<?xml version="1.0" encoding="UTF-8" standalone="no"?>
<!DOCTYPE svg PUBLIC "-//W3C//DTD SVG 1.1//EN" "http://www.w3.org/Graphics/SVG/1.1/DTD/svg11.dtd">
<svg width="100%" height="100%" viewBox="0 0 185 55" version="1.1" xmlns="http://www.w3.org/2000/svg" xmlns:xlink="http://www.w3.org/1999/xlink" xml:space="preserve" xmlns:serif="http://www.serif.com/" style="fill-rule:evenodd;clip-rule:evenodd;stroke-linejoin:round;stroke-miterlimit:2;">
    <g transform="matrix(1,0,0,1,-11060.4,-4912.56)">
        <g transform="matrix(1.43159,0,0,1.77184,-4569.55,-124.021)">
            <g transform="matrix(0.698526,0,0,0.564386,10917.9,2842.58)">
                <path d="M185,8C185,3.585 181.415,0 177,0L8,0C3.585,0 0,3.585 0,8L0,47C0,51.415 3.585,55 8,55L177,55C181.415,55 185,51.415 185,47L185,8Z" style="fill:rgb(233,218,235);"/>
            </g>
        </g>
        <g transform="matrix(1.43159,0,0,1.77184,-4569.55,-124.021)">
            <g transform="matrix(0.698526,0,0,0.564386,10917.9,2842.58)">
                <path d="M47.31,40L47.31,14.44L51.342,14.44L51.342,36.436L65.058,36.436L65.058,40L47.31,40ZM76.113,40.36C74.145,40.36 72.429,39.916 70.965,39.028C69.525,38.116 68.409,36.928 67.617,35.464C66.825,33.976 66.429,32.356 66.429,30.604C66.429,28.852 66.825,27.244 67.617,25.78C68.433,24.292 69.561,23.104 71.001,22.216C72.465,21.304 74.169,20.848 76.113,20.848C78.057,20.848 79.749,21.304 81.189,22.216C82.653,23.104 83.781,24.292 84.573,25.78C85.389,27.244 85.797,28.852 85.797,30.604C85.797,32.356 85.401,33.976 84.609,35.464C83.817,36.928 82.689,38.116 81.225,39.028C79.785,39.916 78.081,40.36 76.113,40.36ZM70.497,30.64C70.497,31.84 70.749,32.92 71.253,33.88C71.757,34.84 72.429,35.596 73.269,36.148C74.109,36.7 75.057,36.976 76.113,36.976C77.145,36.976 78.081,36.7 78.921,36.148C79.785,35.572 80.469,34.804 80.973,33.844C81.477,32.884 81.729,31.804 81.729,30.604C81.729,29.404 81.477,28.324 80.973,27.364C80.469,26.404 79.785,25.648 78.921,25.096C78.081,24.52 77.145,24.232 76.113,24.232C75.081,24.232 74.133,24.52 73.269,25.096C72.429,25.648 71.757,26.416 71.253,27.4C70.749,28.36 70.497,29.44 70.497,30.64ZM96.762,40.18C95.058,40.18 93.558,39.736 92.262,38.848C90.99,37.96 89.982,36.796 89.238,35.356C88.518,33.892 88.158,32.308 88.158,30.604C88.158,28.828 88.53,27.196 89.274,25.708C90.018,24.22 91.038,23.044 92.334,22.18C93.654,21.292 95.178,20.848 96.906,20.848C98.418,20.848 99.738,21.208 100.866,21.928C102.018,22.648 102.966,23.584 103.71,24.736L103.71,21.172L107.202,21.172L107.202,39.46C107.202,41.284 106.758,42.832 105.87,44.104C105.006,45.376 103.818,46.348 102.306,47.02C100.794,47.692 99.09,48.028 97.194,48.028C95.106,48.028 93.366,47.668 91.974,46.948C90.606,46.228 89.454,45.244 88.518,43.996L90.75,41.908C91.47,42.916 92.394,43.684 93.522,44.212C94.674,44.74 95.898,45.004 97.194,45.004C98.274,45.004 99.27,44.8 100.182,44.392C101.118,44.008 101.862,43.408 102.414,42.592C102.966,41.776 103.242,40.732 103.242,39.46L103.242,36.58C102.57,37.708 101.646,38.596 100.47,39.244C99.294,39.868 98.058,40.18 96.762,40.18ZM98.058,36.976C98.85,36.976 99.606,36.808 100.326,36.472C101.046,36.112 101.658,35.644 102.162,35.068C102.69,34.492 103.05,33.88 103.242,33.232L103.242,28.3C102.762,27.1 102.006,26.128 100.974,25.384C99.966,24.616 98.898,24.232 97.77,24.232C96.618,24.232 95.622,24.544 94.782,25.168C93.966,25.792 93.33,26.608 92.874,27.616C92.418,28.6 92.19,29.632 92.19,30.712C92.19,31.864 92.442,32.92 92.946,33.88C93.474,34.816 94.182,35.572 95.07,36.148C95.958,36.7 96.954,36.976 98.058,36.976ZM111.95,18.076L111.95,13.72L115.91,13.72L115.91,18.076L111.95,18.076ZM111.95,40L111.95,21.172L115.91,21.172L115.91,40L111.95,40ZM137.553,40L133.593,40L133.593,29.452C133.593,27.676 133.305,26.392 132.729,25.6C132.177,24.784 131.349,24.376 130.245,24.376C129.477,24.376 128.709,24.568 127.941,24.952C127.197,25.336 126.525,25.864 125.925,26.536C125.325,27.208 124.893,27.964 124.629,28.804L124.629,40L120.669,40L120.669,21.172L124.269,21.172L124.269,24.952C124.989,23.704 126.033,22.708 127.401,21.964C128.769,21.22 130.281,20.848 131.937,20.848C133.425,20.848 134.577,21.208 135.393,21.928C136.209,22.624 136.773,23.548 137.085,24.7C137.397,25.852 137.553,27.124 137.553,28.516L137.553,40Z" style="fill:white;fill-rule:nonzero;"/>
            </g>
        </g>
    </g>
</svg>
