<?xml version="1.0" encoding="UTF-8" standalone="no"?>
<!DOCTYPE svg PUBLIC "-//W3C//DTD SVG 1.1//EN" "http://www.w3.org/Graphics/SVG/1.1/DTD/svg11.dtd">
<svg width="100%" height="100%" viewBox="0 0 619 55" version="1.1" xmlns="http://www.w3.org/2000/svg" xmlns:xlink="http://www.w3.org/1999/xlink" xml:space="preserve" xmlns:serif="http://www.serif.com/" style="fill-rule:evenodd;clip-rule:evenodd;stroke-linejoin:round;stroke-miterlimit:2;">
    <g transform="matrix(1,0,0,1,-11060.4,-4703.97)">
        <g transform="matrix(1.43159,0,0,1.77184,-4569.55,-124.021)">
            <g transform="matrix(0.698526,0,0,0.564386,10917.9,2724.85)">
                <path d="M619,27.5C619,12.322 606.678,0 591.5,0L27.5,0C12.322,0 0,12.322 0,27.5C0,42.678 12.322,55 27.5,55L591.5,55C606.678,55 619,42.678 619,27.5Z" style="fill:rgb(233,218,235);"/>
            </g>
            <g transform="matrix(0.698526,0,0,0.564386,10917.9,2724.85)">
                <path d="M264.708,40.103L264.708,14.543L268.74,14.543L268.74,36.539L282.456,36.539L282.456,40.103L264.708,40.103ZM293.512,40.463C291.544,40.463 289.828,40.019 288.364,39.131C286.924,38.219 285.808,37.031 285.016,35.567C284.224,34.079 283.828,32.459 283.828,30.706C283.828,28.955 284.224,27.347 285.016,25.883C285.832,24.395 286.96,23.206 288.4,22.319C289.864,21.407 291.568,20.951 293.512,20.951C295.456,20.951 297.148,21.407 298.588,22.319C300.052,23.206 301.18,24.395 301.972,25.883C302.788,27.347 303.196,28.955 303.196,30.706C303.196,32.459 302.8,34.079 302.008,35.567C301.216,37.031 300.088,38.219 298.624,39.131C297.184,40.019 295.48,40.463 293.512,40.463ZM287.896,30.743C287.896,31.943 288.148,33.023 288.652,33.983C289.156,34.943 289.828,35.699 290.668,36.251C291.508,36.803 292.456,37.079 293.512,37.079C294.544,37.079 295.48,36.803 296.32,36.251C297.184,35.675 297.868,34.907 298.372,33.947C298.876,32.987 299.128,31.907 299.128,30.706C299.128,29.507 298.876,28.427 298.372,27.467C297.868,26.507 297.184,25.751 296.32,25.199C295.48,24.623 294.544,24.334 293.512,24.334C292.48,24.334 291.532,24.623 290.668,25.199C289.828,25.751 289.156,26.519 288.652,27.503C288.148,28.462 287.896,29.543 287.896,30.743ZM314.16,40.283C312.456,40.283 310.956,39.839 309.66,38.951C308.388,38.063 307.38,36.899 306.636,35.459C305.916,33.995 305.556,32.411 305.556,30.706C305.556,28.93 305.928,27.299 306.672,25.811C307.416,24.323 308.436,23.147 309.732,22.283C311.052,21.395 312.576,20.951 314.304,20.951C315.816,20.951 317.136,21.311 318.264,22.031C319.416,22.751 320.364,23.687 321.108,24.839L321.108,21.275L324.6,21.275L324.6,39.563C324.6,41.387 324.156,42.935 323.268,44.207C322.404,45.478 321.216,46.451 319.704,47.123C318.192,47.795 316.488,48.131 314.592,48.131C312.504,48.131 310.764,47.771 309.372,47.051C308.004,46.331 306.852,45.347 305.916,44.099L308.148,42.011C308.868,43.019 309.792,43.786 310.92,44.315C312.072,44.843 313.296,45.106 314.592,45.106C315.672,45.106 316.668,44.903 317.58,44.495C318.516,44.111 319.26,43.511 319.812,42.695C320.364,41.879 320.64,40.835 320.64,39.563L320.64,36.683C319.968,37.811 319.044,38.699 317.868,39.347C316.692,39.971 315.456,40.283 314.16,40.283ZM315.456,37.079C316.248,37.079 317.004,36.911 317.724,36.575C318.444,36.215 319.056,35.747 319.56,35.17C320.088,34.594 320.448,33.983 320.64,33.335L320.64,28.403C320.16,27.203 319.404,26.231 318.372,25.487C317.364,24.719 316.296,24.334 315.168,24.334C314.016,24.334 313.02,24.647 312.18,25.27C311.364,25.895 310.728,26.711 310.272,27.719C309.816,28.703 309.588,29.735 309.588,30.815C309.588,31.967 309.84,33.023 310.344,33.983C310.872,34.919 311.58,35.675 312.468,36.251C313.356,36.803 314.352,37.079 315.456,37.079ZM329.349,18.179L329.349,13.823L333.309,13.823L333.309,18.179L329.349,18.179ZM329.349,40.103L329.349,21.275L333.309,21.275L333.309,40.103L329.349,40.103ZM354.952,40.103L350.992,40.103L350.992,29.555C350.992,27.779 350.704,26.494 350.128,25.703C349.576,24.887 348.748,24.479 347.644,24.479C346.876,24.479 346.108,24.671 345.34,25.055C344.596,25.439 343.924,25.967 343.324,26.639C342.724,27.311 342.292,28.067 342.028,28.907L342.028,40.103L338.068,40.103L338.068,21.275L341.668,21.275L341.668,25.055C342.388,23.807 343.432,22.811 344.8,22.067C346.168,21.323 347.68,20.951 349.336,20.951C350.824,20.951 351.976,21.311 352.792,22.031C353.608,22.727 354.172,23.651 354.484,24.802C354.796,25.955 354.952,27.227 354.952,28.619L354.952,40.103Z" style="fill:white;fill-rule:nonzero;"/>
            </g>
        </g>
    </g>
</svg>
