<?xml version="1.0" encoding="UTF-8" standalone="no"?>
<!DOCTYPE svg PUBLIC "-//W3C//DTD SVG 1.1//EN" "http://www.w3.org/Graphics/SVG/1.1/DTD/svg11.dtd">
<svg width="100%" height="100%" viewBox="0 0 619 55" version="1.1" xmlns="http://www.w3.org/2000/svg" xmlns:xlink="http://www.w3.org/1999/xlink" xml:space="preserve" xmlns:serif="http://www.serif.com/" style="fill-rule:evenodd;clip-rule:evenodd;stroke-linejoin:round;stroke-miterlimit:2;">
    <g transform="matrix(1,0,0,1,-10791.1,-4736.08)">
        <g transform="matrix(1.43159,0,0,1.77184,-4569.55,-124.021)">
            <g transform="matrix(1,0,0,1,-90.7638,171.921)">
                <g transform="matrix(0.698526,0,0,0.564386,10820.6,2571.05)">
                    <path d="M619,27.5C619,12.322 606.678,0 591.5,0L27.5,0C12.322,0 0,12.322 0,27.5C0,42.678 12.322,55 27.5,55L591.5,55C606.678,55 619,42.678 619,27.5Z" style="fill:rgb(233,218,235);"/>
                </g>
                <g transform="matrix(0.698526,0,0,0.564386,10820.6,2571.05)">
                    <path d="M227.088,14.543L230.904,14.543L240.84,40.103L236.592,40.103L233.892,33.155L224.028,33.155L221.364,40.103L217.08,40.103L227.088,14.543ZM233.1,30.167L228.996,18.971L224.748,30.167L233.1,30.167ZM254.189,40.463C252.677,40.463 251.345,40.103 250.193,39.383C249.041,38.663 248.129,37.727 247.457,36.575L247.457,47.771L243.497,47.771L243.497,21.275L246.989,21.275L246.989,24.659C247.709,23.531 248.645,22.631 249.797,21.959C250.949,21.287 252.233,20.951 253.649,20.951C255.377,20.951 256.901,21.407 258.221,22.319C259.565,23.206 260.621,24.395 261.389,25.883C262.157,27.347 262.541,28.943 262.541,30.671C262.541,32.495 262.181,34.151 261.461,35.639C260.741,37.103 259.757,38.279 258.509,39.167C257.261,40.031 255.821,40.463 254.189,40.463ZM252.893,37.079C254.021,37.079 254.993,36.779 255.809,36.179C256.649,35.555 257.297,34.763 257.753,33.803C258.233,32.819 258.473,31.775 258.473,30.671C258.473,29.519 258.209,28.462 257.681,27.503C257.177,26.543 256.481,25.775 255.593,25.199C254.729,24.623 253.733,24.334 252.605,24.334C251.933,24.334 251.225,24.503 250.481,24.839C249.761,25.174 249.125,25.619 248.573,26.171C248.021,26.723 247.649,27.347 247.457,28.043L247.457,32.975C247.937,34.127 248.669,35.099 249.653,35.891C250.661,36.683 251.741,37.079 252.893,37.079ZM276.795,40.463C275.283,40.463 273.951,40.103 272.799,39.383C271.647,38.663 270.735,37.727 270.063,36.575L270.063,47.771L266.103,47.771L266.103,21.275L269.595,21.275L269.595,24.659C270.315,23.531 271.251,22.631 272.403,21.959C273.555,21.287 274.839,20.951 276.255,20.951C277.983,20.951 279.507,21.407 280.827,22.319C282.171,23.206 283.227,24.395 283.995,25.883C284.763,27.347 285.147,28.943 285.147,30.671C285.147,32.495 284.787,34.151 284.067,35.639C283.347,37.103 282.363,38.279 281.115,39.167C279.867,40.031 278.427,40.463 276.795,40.463ZM275.499,37.079C276.627,37.079 277.599,36.779 278.415,36.179C279.255,35.555 279.903,34.763 280.359,33.803C280.839,32.819 281.079,31.775 281.079,30.671C281.079,29.519 280.815,28.462 280.287,27.503C279.783,26.543 279.087,25.775 278.199,25.199C277.335,24.623 276.339,24.334 275.211,24.334C274.539,24.334 273.831,24.503 273.087,24.839C272.367,25.174 271.731,25.619 271.179,26.171C270.627,26.723 270.255,27.347 270.063,28.043L270.063,32.975C270.543,34.127 271.275,35.099 272.259,35.891C273.267,36.683 274.347,37.079 275.499,37.079ZM288.744,13.823L292.704,13.823L292.704,34.667C292.704,35.627 292.848,36.239 293.136,36.503C293.424,36.767 293.784,36.899 294.216,36.899C294.696,36.899 295.152,36.85 295.584,36.755C296.016,36.658 296.376,36.539 296.664,36.395L297.24,39.527C296.664,39.767 295.98,39.971 295.188,40.139C294.396,40.307 293.688,40.391 293.064,40.391C291.72,40.391 290.664,40.019 289.896,39.275C289.128,38.507 288.744,37.451 288.744,36.106L288.744,13.823ZM299.376,44.531C299.736,44.603 300.084,44.663 300.42,44.711C300.78,44.759 301.068,44.783 301.284,44.783C301.692,44.783 302.04,44.651 302.328,44.387C302.64,44.147 302.952,43.691 303.264,43.019C303.576,42.347 303.96,41.375 304.416,40.103L296.676,21.275L300.816,21.275L306.576,36.071L311.688,21.275L315.504,21.275L306.972,44.459C306.588,45.515 305.916,46.414 304.956,47.158C304.02,47.903 302.808,48.275 301.32,48.275C301.032,48.275 300.732,48.251 300.42,48.203C300.108,48.155 299.76,48.083 299.376,47.987L299.376,44.531ZM330.897,22.031L330.897,40.103L326.865,40.103L326.865,14.543L330.177,14.543L344.649,33.011L344.649,14.579L348.717,14.579L348.717,40.103L345.189,40.103L330.897,22.031ZM362.102,40.463C360.134,40.463 358.418,40.019 356.954,39.131C355.514,38.219 354.398,37.031 353.606,35.567C352.814,34.079 352.418,32.459 352.418,30.706C352.418,28.955 352.814,27.347 353.606,25.883C354.422,24.395 355.55,23.206 356.99,22.319C358.454,21.407 360.158,20.951 362.102,20.951C364.046,20.951 365.738,21.407 367.178,22.319C368.642,23.206 369.77,24.395 370.562,25.883C371.378,27.347 371.786,28.955 371.786,30.706C371.786,32.459 371.39,34.079 370.598,35.567C369.806,37.031 368.678,38.219 367.214,39.131C365.774,40.019 364.07,40.463 362.102,40.463ZM356.486,30.743C356.486,31.943 356.738,33.023 357.242,33.983C357.746,34.943 358.418,35.699 359.258,36.251C360.098,36.803 361.046,37.079 362.102,37.079C363.134,37.079 364.07,36.803 364.91,36.251C365.774,35.675 366.458,34.907 366.962,33.947C367.466,32.987 367.718,31.907 367.718,30.706C367.718,29.507 367.466,28.427 366.962,27.467C366.458,26.507 365.774,25.751 364.91,25.199C364.07,24.623 363.134,24.334 362.102,24.334C361.07,24.334 360.122,24.623 359.258,25.199C358.418,25.751 357.746,26.519 357.242,27.503C356.738,28.462 356.486,29.543 356.486,30.743ZM398.137,21.275L401.917,21.275L393.997,40.103L390.613,40.103L387.229,31.607L383.845,40.103L380.461,40.103L372.505,21.275L376.285,21.275L382.333,36.251L384.997,29.302L381.757,21.311L385.105,21.311L387.229,27.179L389.317,21.311L392.665,21.311L389.461,29.302L392.125,36.251L398.137,21.275Z" style="fill:white;fill-rule:nonzero;"/>
                </g>
            </g>
        </g>
    </g>
</svg>
