<svg width="556" height="36" viewBox="0 0 556 36" fill="none" xmlns="http://www.w3.org/2000/svg">
<path d="M15.4389 20.91H6.33891L4.20391 27H0.143906L8.89391 2.5H12.8839L21.5989 27H17.5739L15.4389 20.91ZM14.1439 17.305L10.8889 7.995L7.59891 17.305H14.1439ZM32.8364 9.325C34.4464 9.325 35.8347 9.72167 37.0014 10.515C38.168 11.3083 39.0547 12.3933 39.6614 13.77C40.268 15.1233 40.5714 16.64 40.5714 18.32C40.5714 20 40.268 21.5283 39.6614 22.905C39.078 24.2817 38.203 25.3667 37.0364 26.16C35.8697 26.9533 34.4697 27.35 32.8364 27.35C31.7164 27.35 30.748 27.21 29.9314 26.93C29.138 26.65 28.4147 26.2067 27.7614 25.6V35.47H23.8414V9.64H26.9564L27.3764 11.495C28.123 10.795 28.928 10.2583 29.7914 9.885C30.678 9.51167 31.693 9.325 32.8364 9.325ZM32.1714 24.06C33.548 24.06 34.6214 23.5467 35.3914 22.52C36.1614 21.4933 36.5464 20.0933 36.5464 18.32C36.5464 16.57 36.1614 15.1817 35.3914 14.155C34.6214 13.1283 33.548 12.615 32.1714 12.615C30.7014 12.615 29.558 13.1167 28.7414 14.12C27.948 15.1233 27.5514 16.5233 27.5514 18.32C27.5514 20.14 27.948 21.5517 28.7414 22.555C29.558 23.5583 30.7014 24.06 32.1714 24.06ZM52.6948 9.325C54.3048 9.325 55.6931 9.72167 56.8598 10.515C58.0264 11.3083 58.9131 12.3933 59.5198 13.77C60.1264 15.1233 60.4298 16.64 60.4298 18.32C60.4298 20 60.1264 21.5283 59.5198 22.905C58.9364 24.2817 58.0614 25.3667 56.8948 26.16C55.7281 26.9533 54.3281 27.35 52.6948 27.35C51.5748 27.35 50.6064 27.21 49.7898 26.93C48.9964 26.65 48.2731 26.2067 47.6198 25.6V35.47H43.6998V9.64H46.8148L47.2348 11.495C47.9814 10.795 48.7864 10.2583 49.6498 9.885C50.5364 9.51167 51.5514 9.325 52.6948 9.325ZM52.0298 24.06C53.4064 24.06 54.4798 23.5467 55.2498 22.52C56.0198 21.4933 56.4048 20.0933 56.4048 18.32C56.4048 16.57 56.0198 15.1817 55.2498 14.155C54.4798 13.1283 53.4064 12.615 52.0298 12.615C50.5598 12.615 49.4164 13.1167 48.5998 14.12C47.8064 15.1233 47.4098 16.5233 47.4098 18.32C47.4098 20.14 47.8064 21.5517 48.5998 22.555C49.4164 23.5583 50.5598 24.06 52.0298 24.06ZM68.0032 27.35C66.5098 27.35 65.3898 26.9417 64.6432 26.125C63.9198 25.285 63.5582 24.2233 63.5582 22.94V0.749998H67.4432V21.12C67.4432 22.1 67.5015 22.8 67.6182 23.22C67.7348 23.6167 67.9448 23.8733 68.2482 23.99C68.5515 24.1067 69.0648 24.165 69.7882 24.165L69.4032 27.35H68.0032ZM72.4107 2.5H76.3307V6.525H72.4107V2.5ZM72.4107 9.64H76.3307V27H72.4107V9.64ZM88.5271 27.35C86.6138 27.35 84.9688 26.9533 83.5921 26.16C82.2388 25.3667 81.2121 24.2933 80.5121 22.94C79.8121 21.5867 79.4621 20.07 79.4621 18.39C79.4621 16.6633 79.8004 15.1117 80.4771 13.735C81.1771 12.3583 82.2154 11.2733 83.5921 10.48C84.9688 9.68667 86.6721 9.29 88.7021 9.29C90.4521 9.29 92.0154 9.65167 93.3921 10.375L92.9721 13.595C91.6188 12.9417 90.2771 12.615 88.9471 12.615C87.1971 12.615 85.8438 13.1283 84.8871 14.155C83.9304 15.1817 83.4521 16.57 83.4521 18.32C83.4521 20.0467 83.9304 21.435 84.8871 22.485C85.8438 23.535 87.1738 24.06 88.8771 24.06C90.3238 24.06 91.7004 23.6867 93.0071 22.94L93.4271 26.195C92.8204 26.545 92.0854 26.825 91.2221 27.035C90.3588 27.245 89.4604 27.35 88.5271 27.35ZM100.255 27.35C98.7615 27.35 97.5248 26.8833 96.5448 25.95C95.5882 24.9933 95.1098 23.745 95.1098 22.205C95.1098 20.6883 95.6465 19.475 96.7198 18.565C97.7932 17.655 99.0765 17.0133 100.57 16.64C102.087 16.2433 103.592 16.0217 105.085 15.975C105.062 14.7617 104.793 13.9217 104.28 13.455C103.767 12.965 102.915 12.72 101.725 12.72C100.978 12.72 100.232 12.8367 99.4848 13.07C98.7615 13.28 97.9448 13.63 97.0348 14.12L96.6148 10.935C98.5748 9.86167 100.64 9.325 102.81 9.325C104.91 9.325 106.473 9.90833 107.5 11.075C108.527 12.2183 109.04 14.12 109.04 16.78V21.085C109.04 21.995 109.075 22.66 109.145 23.08C109.238 23.4767 109.39 23.7567 109.6 23.92C109.833 24.0833 110.207 24.165 110.72 24.165H111.21L110.755 27.35H109.67C108.55 27.35 107.675 27.1633 107.045 26.79C106.438 26.4167 105.948 25.8683 105.575 25.145C104.968 25.8217 104.198 26.3583 103.265 26.755C102.332 27.1517 101.328 27.35 100.255 27.35ZM101.655 24.305C102.238 24.305 102.845 24.165 103.475 23.885C104.128 23.5817 104.677 23.1733 105.12 22.66V18.635C103.323 18.705 101.877 19.02 100.78 19.58C99.7065 20.14 99.1698 20.9567 99.1698 22.03C99.1698 23.5467 99.9982 24.305 101.655 24.305ZM119.065 27.35C117.548 27.35 116.393 26.9183 115.6 26.055C114.83 25.1917 114.445 24.1533 114.445 22.94V12.79H111.82L112.17 9.64H114.445V5.65L118.365 5.23V9.64H122.46V12.79H118.365V21.12C118.365 22.1467 118.423 22.8583 118.54 23.255C118.656 23.6283 118.901 23.8733 119.275 23.99C119.671 24.1067 120.371 24.165 121.375 24.165H122.425L122.075 27.35H119.065ZM125.218 2.5H129.138V6.525H125.218V2.5ZM125.218 9.64H129.138V27H125.218V9.64ZM141.055 27.35C139.258 27.35 137.695 26.9533 136.365 26.16C135.035 25.3433 134.008 24.2467 133.285 22.87C132.585 21.4933 132.235 19.9767 132.235 18.32C132.235 16.6633 132.585 15.1467 133.285 13.77C134.008 12.3933 135.035 11.3083 136.365 10.515C137.695 9.69833 139.258 9.29 141.055 9.29C142.875 9.29 144.45 9.69833 145.78 10.515C147.11 11.3083 148.125 12.3933 148.825 13.77C149.525 15.1467 149.875 16.6633 149.875 18.32C149.875 19.9767 149.525 21.4933 148.825 22.87C148.125 24.2467 147.11 25.3433 145.78 26.16C144.45 26.9533 142.875 27.35 141.055 27.35ZM141.055 24.06C142.571 24.06 143.75 23.5467 144.59 22.52C145.453 21.4933 145.885 20.0933 145.885 18.32C145.885 16.57 145.453 15.1817 144.59 14.155C143.75 13.105 142.571 12.58 141.055 12.58C139.538 12.58 138.36 13.105 137.52 14.155C136.68 15.1817 136.26 16.57 136.26 18.32C136.26 20.0933 136.68 21.4933 137.52 22.52C138.36 23.5467 139.538 24.06 141.055 24.06ZM161.686 9.325C163.95 9.325 165.641 10.0367 166.761 11.46C167.881 12.8833 168.441 14.8433 168.441 17.34V27H164.556V17.585C164.556 15.8583 164.253 14.5983 163.646 13.805C163.063 13.0117 162.083 12.615 160.706 12.615C159.073 12.615 157.813 13.1867 156.926 14.33V27H153.006V9.64H156.471L156.611 11.075C158.105 9.90833 159.796 9.325 161.686 9.325ZM180.947 2.5H190.082C192.438 2.5 194.527 2.99 196.347 3.97C198.19 4.95 199.625 6.36167 200.652 8.205C201.678 10.0483 202.192 12.23 202.192 14.75C202.192 17.27 201.678 19.4517 200.652 21.295C199.625 23.1383 198.19 24.55 196.347 25.53C194.527 26.51 192.438 27 190.082 27H180.947V2.5ZM190.082 23.36C192.578 23.36 194.48 22.6017 195.787 21.085C197.093 19.545 197.747 17.4333 197.747 14.75C197.747 12.0667 197.093 9.96667 195.787 8.45C194.48 6.91 192.578 6.14 190.082 6.14H185.007V23.36H190.082ZM213.735 27.35C211.728 27.35 210.013 26.9417 208.59 26.125C207.19 25.3083 206.128 24.2117 205.405 22.835C204.681 21.435 204.32 19.8833 204.32 18.18C204.32 16.5467 204.646 15.065 205.3 13.735C205.976 12.3817 206.956 11.3083 208.24 10.515C209.546 9.72167 211.075 9.325 212.825 9.325C214.365 9.325 215.695 9.65167 216.815 10.305C217.958 10.935 218.821 11.81 219.405 12.93C220.011 14.05 220.315 15.3333 220.315 16.78C220.315 17.5267 220.233 18.2383 220.07 18.915H208.38C208.59 20.7117 209.208 22.0183 210.235 22.835C211.285 23.6517 212.58 24.06 214.12 24.06C216.01 24.06 217.725 23.6283 219.265 22.765L219.545 26.02C217.771 26.9067 215.835 27.35 213.735 27.35ZM216.325 16.255C216.325 15.2283 216.033 14.365 215.45 13.665C214.866 12.965 213.98 12.615 212.79 12.615C210.526 12.615 209.103 13.8283 208.52 16.255H216.325ZM227.198 27.35C225.705 27.35 224.468 26.8833 223.488 25.95C222.532 24.9933 222.053 23.745 222.053 22.205C222.053 20.6883 222.59 19.475 223.663 18.565C224.737 17.655 226.02 17.0133 227.513 16.64C229.03 16.2433 230.535 16.0217 232.028 15.975C232.005 14.7617 231.737 13.9217 231.223 13.455C230.71 12.965 229.858 12.72 228.668 12.72C227.922 12.72 227.175 12.8367 226.428 13.07C225.705 13.28 224.888 13.63 223.978 14.12L223.558 10.935C225.518 9.86167 227.583 9.325 229.753 9.325C231.853 9.325 233.417 9.90833 234.443 11.075C235.47 12.2183 235.983 14.12 235.983 16.78V21.085C235.983 21.995 236.018 22.66 236.088 23.08C236.182 23.4767 236.333 23.7567 236.543 23.92C236.777 24.0833 237.15 24.165 237.663 24.165H238.153L237.698 27.35H236.613C235.493 27.35 234.618 27.1633 233.988 26.79C233.382 26.4167 232.892 25.8683 232.518 25.145C231.912 25.8217 231.142 26.3583 230.208 26.755C229.275 27.1517 228.272 27.35 227.198 27.35ZM228.598 24.305C229.182 24.305 229.788 24.165 230.418 23.885C231.072 23.5817 231.62 23.1733 232.063 22.66V18.635C230.267 18.705 228.82 19.02 227.723 19.58C226.65 20.14 226.113 20.9567 226.113 22.03C226.113 23.5467 226.942 24.305 228.598 24.305ZM256.221 0.749998V27H252.616L252.441 25.53C251.111 26.7433 249.466 27.35 247.506 27.35C245.896 27.35 244.484 26.9533 243.271 26.16C242.057 25.3433 241.124 24.2583 240.471 22.905C239.817 21.5283 239.491 20.0117 239.491 18.355C239.491 16.7217 239.806 15.2167 240.436 13.84C241.089 12.4633 242.011 11.3667 243.201 10.55C244.414 9.73333 245.849 9.325 247.506 9.325C249.396 9.325 250.994 9.885 252.301 11.005V0.749998H256.221ZM248.101 24.06C249.477 24.06 250.562 23.5583 251.356 22.555C252.172 21.5517 252.581 20.1517 252.581 18.355C252.581 16.5817 252.172 15.1817 251.356 14.155C250.539 13.1283 249.454 12.615 248.101 12.615C246.677 12.615 245.557 13.1517 244.741 14.225C243.924 15.275 243.516 16.6517 243.516 18.355C243.516 20.035 243.924 21.4117 244.741 22.485C245.557 23.535 246.677 24.06 248.101 24.06ZM264.776 27.35C263.282 27.35 262.162 26.9417 261.416 26.125C260.692 25.285 260.331 24.2233 260.331 22.94V0.749998H264.216V21.12C264.216 22.1 264.274 22.8 264.391 23.22C264.507 23.6167 264.717 23.8733 265.021 23.99C265.324 24.1067 265.837 24.165 266.561 24.165L266.176 27.35H264.776ZM269.183 2.5H273.103V6.525H269.183V2.5ZM269.183 9.64H273.103V27H269.183V9.64ZM285.93 9.325C288.193 9.325 289.885 10.0367 291.005 11.46C292.125 12.8833 292.685 14.8433 292.685 17.34V27H288.8V17.585C288.8 15.8583 288.496 14.5983 287.89 13.805C287.306 13.0117 286.326 12.615 284.95 12.615C283.316 12.615 282.056 13.1867 281.17 14.33V27H277.25V9.64H280.715L280.855 11.075C282.348 9.90833 284.04 9.325 285.93 9.325ZM305.029 27.35C303.022 27.35 301.307 26.9417 299.884 26.125C298.484 25.3083 297.422 24.2117 296.699 22.835C295.975 21.435 295.614 19.8833 295.614 18.18C295.614 16.5467 295.94 15.065 296.594 13.735C297.27 12.3817 298.25 11.3083 299.534 10.515C300.84 9.72167 302.369 9.325 304.119 9.325C305.659 9.325 306.989 9.65167 308.109 10.305C309.252 10.935 310.115 11.81 310.699 12.93C311.305 14.05 311.609 15.3333 311.609 16.78C311.609 17.5267 311.527 18.2383 311.364 18.915H299.674C299.884 20.7117 300.502 22.0183 301.529 22.835C302.579 23.6517 303.874 24.06 305.414 24.06C307.304 24.06 309.019 23.6283 310.559 22.765L310.839 26.02C309.065 26.9067 307.129 27.35 305.029 27.35ZM307.619 16.255C307.619 15.2283 307.327 14.365 306.744 13.665C306.16 12.965 305.274 12.615 304.084 12.615C301.82 12.615 300.397 13.8283 299.814 16.255H307.619ZM314.222 9.64H318.492V14.015H314.222V9.64ZM314.222 22.625H318.492V27H314.222V22.625ZM330.756 2.5H339.891C342.248 2.5 344.336 2.99 346.156 3.97C348 4.95 349.435 6.36167 350.461 8.205C351.488 10.0483 352.001 12.23 352.001 14.75C352.001 17.27 351.488 19.4517 350.461 21.295C349.435 23.1383 348 24.55 346.156 25.53C344.336 26.51 342.248 27 339.891 27H330.756V2.5ZM339.891 23.36C342.388 23.36 344.29 22.6017 345.596 21.085C346.903 19.545 347.556 17.4333 347.556 14.75C347.556 12.0667 346.903 9.96667 345.596 8.45C344.29 6.91 342.388 6.14 339.891 6.14H334.816V23.36H339.891ZM363.544 27.35C361.538 27.35 359.823 26.9417 358.399 26.125C356.999 25.3083 355.938 24.2117 355.214 22.835C354.491 21.435 354.129 19.8833 354.129 18.18C354.129 16.5467 354.456 15.065 355.109 13.735C355.786 12.3817 356.766 11.3083 358.049 10.515C359.356 9.72167 360.884 9.325 362.634 9.325C364.174 9.325 365.504 9.65167 366.624 10.305C367.768 10.935 368.631 11.81 369.214 12.93C369.821 14.05 370.124 15.3333 370.124 16.78C370.124 17.5267 370.043 18.2383 369.879 18.915H358.189C358.399 20.7117 359.018 22.0183 360.044 22.835C361.094 23.6517 362.389 24.06 363.929 24.06C365.819 24.06 367.534 23.6283 369.074 22.765L369.354 26.02C367.581 26.9067 365.644 27.35 363.544 27.35ZM366.134 16.255C366.134 15.2283 365.843 14.365 365.259 13.665C364.676 12.965 363.789 12.615 362.599 12.615C360.336 12.615 358.913 13.8283 358.329 16.255H366.134ZM381.208 27.35C379.294 27.35 377.649 26.9533 376.273 26.16C374.919 25.3667 373.893 24.2933 373.193 22.94C372.493 21.5867 372.143 20.07 372.143 18.39C372.143 16.6633 372.481 15.1117 373.158 13.735C373.858 12.3583 374.896 11.2733 376.273 10.48C377.649 9.68667 379.353 9.29 381.383 9.29C383.133 9.29 384.696 9.65167 386.073 10.375L385.653 13.595C384.299 12.9417 382.958 12.615 381.628 12.615C379.878 12.615 378.524 13.1283 377.568 14.155C376.611 15.1817 376.133 16.57 376.133 18.32C376.133 20.0467 376.611 21.435 377.568 22.485C378.524 23.535 379.854 24.06 381.558 24.06C383.004 24.06 384.381 23.6867 385.688 22.94L386.108 26.195C385.501 26.545 384.766 26.825 383.903 27.035C383.039 27.245 382.141 27.35 381.208 27.35ZM397.28 27.35C395.273 27.35 393.558 26.9417 392.135 26.125C390.735 25.3083 389.673 24.2117 388.95 22.835C388.226 21.435 387.865 19.8833 387.865 18.18C387.865 16.5467 388.191 15.065 388.845 13.735C389.521 12.3817 390.501 11.3083 391.785 10.515C393.091 9.72167 394.62 9.325 396.37 9.325C397.91 9.325 399.24 9.65167 400.36 10.305C401.503 10.935 402.366 11.81 402.95 12.93C403.556 14.05 403.86 15.3333 403.86 16.78C403.86 17.5267 403.778 18.2383 403.615 18.915H391.925C392.135 20.7117 392.753 22.0183 393.78 22.835C394.83 23.6517 396.125 24.06 397.665 24.06C399.555 24.06 401.27 23.6283 402.81 22.765L403.09 26.02C401.316 26.9067 399.38 27.35 397.28 27.35ZM399.87 16.255C399.87 15.2283 399.578 14.365 398.995 13.665C398.411 12.965 397.525 12.615 396.335 12.615C394.071 12.615 392.648 13.8283 392.065 16.255H399.87ZM426.668 9.325C428.955 9.325 430.658 10.0017 431.778 11.355C432.898 12.685 433.458 14.61 433.458 17.13V27H429.538V17.34C429.538 15.7067 429.258 14.5167 428.698 13.77C428.161 13 427.263 12.615 426.003 12.615C424.626 12.615 423.635 13.035 423.028 13.875C422.421 14.715 422.118 15.8233 422.118 17.2V27H418.233V17.585C418.233 15.8117 417.93 14.54 417.323 13.77C416.74 13 415.841 12.615 414.628 12.615C412.971 12.615 411.7 13.1983 410.813 14.365V27H406.893V9.64H410.148L410.393 11.18C411.933 9.94333 413.671 9.325 415.608 9.325C417.988 9.325 419.726 10.2467 420.823 12.09C421.43 11.2033 422.223 10.5267 423.203 10.06C424.206 9.57 425.361 9.325 426.668 9.325ZM446.271 9.325C447.904 9.325 449.304 9.73333 450.471 10.55C451.661 11.3667 452.559 12.4633 453.166 13.84C453.796 15.1933 454.111 16.6867 454.111 18.32C454.111 19.9767 453.784 21.4933 453.131 22.87C452.501 24.2467 451.591 25.3433 450.401 26.16C449.234 26.9533 447.857 27.35 446.271 27.35C444.217 27.35 442.514 26.7433 441.161 25.53L440.986 27H437.381V0.749998H441.301V11.145C442.747 9.93167 444.404 9.325 446.271 9.325ZM445.746 24.06C447.076 24.06 448.126 23.535 448.896 22.485C449.689 21.4117 450.086 20.0233 450.086 18.32C450.086 16.6167 449.689 15.24 448.896 14.19C448.126 13.14 447.076 12.615 445.746 12.615C444.276 12.615 443.132 13.1167 442.316 14.12C441.499 15.1233 441.091 16.5233 441.091 18.32C441.091 20.14 441.499 21.5517 442.316 22.555C443.132 23.5583 444.276 24.06 445.746 24.06ZM465.571 27.35C463.564 27.35 461.849 26.9417 460.426 26.125C459.026 25.3083 457.964 24.2117 457.241 22.835C456.517 21.435 456.156 19.8833 456.156 18.18C456.156 16.5467 456.482 15.065 457.136 13.735C457.812 12.3817 458.792 11.3083 460.076 10.515C461.382 9.72167 462.911 9.325 464.661 9.325C466.201 9.325 467.531 9.65167 468.651 10.305C469.794 10.935 470.657 11.81 471.241 12.93C471.847 14.05 472.151 15.3333 472.151 16.78C472.151 17.5267 472.069 18.2383 471.906 18.915H460.216C460.426 20.7117 461.044 22.0183 462.071 22.835C463.121 23.6517 464.416 24.06 465.956 24.06C467.846 24.06 469.561 23.6283 471.101 22.765L471.381 26.02C469.607 26.9067 467.671 27.35 465.571 27.35ZM468.161 16.255C468.161 15.2283 467.869 14.365 467.286 13.665C466.702 12.965 465.816 12.615 464.626 12.615C462.362 12.615 460.939 13.8283 460.356 16.255H468.161ZM475.184 9.64H478.719L478.929 11.845C479.559 11.075 480.282 10.4567 481.099 9.99C481.916 9.52333 482.767 9.29 483.654 9.29C483.887 9.29 484.144 9.31333 484.424 9.36L484.109 13.35C483.736 13.2333 483.292 13.175 482.779 13.175C482.009 13.175 481.286 13.3617 480.609 13.735C479.932 14.085 479.454 14.505 479.174 14.995V27H475.184V9.64ZM497.542 8.275C496.446 9.06833 495.349 9.59333 494.252 9.85L493.797 6.315C494.637 6.105 495.536 5.62667 496.492 4.88C497.472 4.11 498.161 3.31667 498.557 2.5H501.567V27H497.542V8.275ZM524.371 17.795V21.12H521.221V27H517.266V21.12H505.121L518.421 2.5H521.221V17.795H524.371ZM517.266 17.795V9.64L511.526 17.795H517.266ZM533.733 27.35C532.216 27.35 531.061 26.9183 530.268 26.055C529.498 25.1917 529.113 24.1533 529.113 22.94V12.79H526.488L526.838 9.64H529.113V5.65L533.033 5.23V9.64H537.128V12.79H533.033V21.12C533.033 22.1467 533.091 22.8583 533.208 23.255C533.324 23.6283 533.569 23.8733 533.943 23.99C534.339 24.1067 535.039 24.165 536.043 24.165H537.093L536.743 27.35H533.733ZM548.496 9.325C550.69 9.325 552.335 10.0483 553.431 11.495C554.551 12.9183 555.111 14.8667 555.111 17.34V27H551.191V17.69C551.191 15.94 550.9 14.6567 550.316 13.84C549.733 13.0233 548.8 12.615 547.516 12.615C545.976 12.615 544.728 13.21 543.771 14.4V27H539.851V0.749998H543.771V10.97C544.471 10.4333 545.195 10.025 545.941 9.745C546.688 9.465 547.54 9.325 548.496 9.325Z" fill="black"/>
</svg>
