<svg xmlns="http://www.w3.org/2000/svg" width="248" height="33" fill="none" viewBox="0 0 248 33"><path fill="#000" d="M0.0742188 2.09375H18.8242V6.625H11.6367V31H7.26172V6.625H0.0742188V2.09375ZM23.5117 2.25H36.832V6.625H27.9062V17.25H36.832V21.625H27.9062V26.625H36.832V31H23.5117V2.25ZM47.9062 31.0391C46.6562 31.0391 45.5495 30.8828 44.5859 30.5703C43.6354 30.2578 42.6133 29.6979 41.5195 28.8906V23.5195C42.1966 24.2357 42.7174 24.724 43.082 24.9844C43.4466 25.2318 43.8893 25.4987 44.4102 25.7852C44.944 26.0716 45.5299 26.3125 46.168 26.5078C46.806 26.7031 47.4375 26.8008 48.0625 26.8008C49.3516 26.8008 50.4062 26.3581 51.2266 25.4727C52.0599 24.5742 52.4766 23.513 52.4766 22.2891C52.4766 21.2865 52.125 20.4727 51.4219 19.8477C50.7188 19.2227 49.5664 18.5065 47.9648 17.6992C47.0013 17.2044 46.1875 16.7552 45.5234 16.3516C44.8594 15.9479 44.2214 15.4466 43.6094 14.8477C42.9974 14.2487 42.5026 13.5391 42.125 12.7188C41.7474 11.8854 41.5586 10.9089 41.5586 9.78906C41.6107 8.69531 41.8776 7.67969 42.3594 6.74219C42.8411 5.79167 43.4922 4.96484 44.3125 4.26172C45.1328 3.54557 46.0638 2.99219 47.1055 2.60156C48.1602 2.21094 49.2669 2.01562 50.4258 2.01562C51.2982 2.04167 52.0924 2.16536 52.8086 2.38672C53.5247 2.59505 54.3385 2.97917 55.25 3.53906V8.05078C54.7031 7.6862 54.3255 7.46484 54.1172 7.38672C53.9219 7.29557 53.6354 7.15234 53.2578 6.95703C52.8932 6.7487 52.4635 6.57292 51.9688 6.42969C51.487 6.28646 50.9727 6.21484 50.4258 6.21484C49.2018 6.22786 48.1667 6.61849 47.3203 7.38672C46.474 8.14193 46.0508 9.02083 46.0508 10.0234C46.0768 10.974 46.4284 11.7357 47.1055 12.3086C47.7956 12.8685 48.9023 13.5 50.4258 14.2031C51.4674 14.6979 52.3138 15.1341 52.9648 15.5117C53.6289 15.8893 54.2799 16.3776 54.918 16.9766C55.556 17.5755 56.0703 18.3307 56.4609 19.2422C56.8516 20.1536 57.0599 21.2344 57.0859 22.4844C57.0859 23.6302 56.8451 24.724 56.3633 25.7656C55.8815 26.7943 55.2109 27.7057 54.3516 28.5C53.4922 29.2943 52.5026 29.9193 51.3828 30.375C50.276 30.8177 49.1172 31.0391 47.9062 31.0391ZM60.7383 2.09375H79.4883V6.625H72.3008V30.8438H67.9258V6.625H60.7383V2.09375ZM84.1758 2.09375H88.5508V31H84.1758V2.09375ZM104.098 17.5625L110.582 7.62109L114.957 0.921875V31H110.582V15.6289L104.098 25.5703L97.6133 15.6289V31H93.2383V0.921875L97.6133 7.62109L104.098 17.5625ZM149.195 16.5469C149.195 18.5521 148.805 20.4336 148.023 22.1914C147.255 23.9362 146.201 25.4596 144.859 26.7617C143.518 28.0638 141.956 29.099 140.172 29.8672C138.388 30.6224 136.474 31 134.43 31C132.372 31 130.452 30.6224 128.668 29.8672C126.884 29.099 125.322 28.0638 123.98 26.7617C122.639 25.4596 121.578 23.9362 120.797 22.1914C120.029 20.4336 119.645 18.5521 119.645 16.5469C119.645 14.5547 120.029 12.6732 120.797 10.9023C121.578 9.11849 122.639 7.57552 123.98 6.27344C125.322 4.97135 126.884 3.94271 128.668 3.1875C130.452 2.43229 132.372 2.05469 134.43 2.05469C136.474 2.05469 138.388 2.43229 140.172 3.1875C141.956 3.94271 143.518 4.97135 144.859 6.27344C146.201 7.57552 147.255 9.11849 148.023 10.9023C148.805 12.6732 149.195 14.5547 149.195 16.5469ZM124.371 16.5469C124.371 17.9401 124.632 19.2487 125.152 20.4727C125.673 21.6836 126.389 22.7448 127.301 23.6562C128.212 24.5547 129.28 25.2643 130.504 25.7852C131.728 26.293 133.036 26.5469 134.43 26.5469C135.81 26.5469 137.112 26.293 138.336 25.7852C139.56 25.2643 140.621 24.5547 141.52 23.6562C142.431 22.7448 143.147 21.6836 143.668 20.4727C144.189 19.2487 144.449 17.9401 144.449 16.5469C144.449 15.1536 144.189 13.8516 143.668 12.6406C143.147 11.4167 142.431 10.3555 141.52 9.45703C140.621 8.54557 139.56 7.83594 138.336 7.32812C137.112 6.82031 135.81 6.56641 134.43 6.56641C133.036 6.56641 131.728 6.82031 130.504 7.32812C129.28 7.83594 128.212 8.54557 127.301 9.45703C126.389 10.3555 125.673 11.4167 125.152 12.6406C124.632 13.8516 124.371 15.1536 124.371 16.5469ZM167.242 19.0078V2.09375H171.617V32.2695L158.277 14.2227V31H153.902V0.921875L167.242 19.0078ZM176.324 2.09375H180.699V31H176.324V2.09375ZM191.617 27.1133L190.074 31.0977H185.387L196.988 0.941406L208.57 31.0977H203.883L202.359 27.1133H191.617ZM193.297 22.7383H200.68L196.988 13.1484L193.297 22.7383ZM213.277 2.25H217.672V26.625H227.652V31H213.277V2.25ZM238.727 31.0391C237.477 31.0391 236.37 30.8828 235.406 30.5703C234.456 30.2578 233.434 29.6979 232.34 28.8906V23.5195C233.017 24.2357 233.538 24.724 233.902 24.9844C234.267 25.2318 234.71 25.4987 235.23 25.7852C235.764 26.0716 236.35 26.3125 236.988 26.5078C237.626 26.7031 238.258 26.8008 238.883 26.8008C240.172 26.8008 241.227 26.3581 242.047 25.4727C242.88 24.5742 243.297 23.513 243.297 22.2891C243.297 21.2865 242.945 20.4727 242.242 19.8477C241.539 19.2227 240.387 18.5065 238.785 17.6992C237.822 17.2044 237.008 16.7552 236.344 16.3516C235.68 15.9479 235.042 15.4466 234.43 14.8477C233.818 14.2487 233.323 13.5391 232.945 12.7188C232.568 11.8854 232.379 10.9089 232.379 9.78906C232.431 8.69531 232.698 7.67969 233.18 6.74219C233.661 5.79167 234.312 4.96484 235.133 4.26172C235.953 3.54557 236.884 2.99219 237.926 2.60156C238.98 2.21094 240.087 2.01562 241.246 2.01562C242.118 2.04167 242.913 2.16536 243.629 2.38672C244.345 2.59505 245.159 2.97917 246.07 3.53906V8.05078C245.523 7.6862 245.146 7.46484 244.938 7.38672C244.742 7.29557 244.456 7.15234 244.078 6.95703C243.714 6.7487 243.284 6.57292 242.789 6.42969C242.307 6.28646 241.793 6.21484 241.246 6.21484C240.022 6.22786 238.987 6.61849 238.141 7.38672C237.294 8.14193 236.871 9.02083 236.871 10.0234C236.897 10.974 237.249 11.7357 237.926 12.3086C238.616 12.8685 239.723 13.5 241.246 14.2031C242.288 14.6979 243.134 15.1341 243.785 15.5117C244.449 15.8893 245.1 16.3776 245.738 16.9766C246.376 17.5755 246.891 18.3307 247.281 19.2422C247.672 20.1536 247.88 21.2344 247.906 22.4844C247.906 23.6302 247.665 24.724 247.184 25.7656C246.702 26.7943 246.031 27.7057 245.172 28.5C244.312 29.2943 243.323 29.9193 242.203 30.375C241.096 30.8177 239.938 31.0391 238.727 31.0391Z"/></svg>