<svg width="650" height="141" viewBox="0 0 650 141" fill="none" xmlns="http://www.w3.org/2000/svg">
<path d="M8.13672 19.9492H12.25C13.375 19.9492 14.3242 19.5273 15.0977 18.6836C15.8945 17.8164 16.293 16.7617 16.293 15.5195C16.293 14.3008 15.8945 13.2695 15.0977 12.4258C14.3242 11.5586 13.375 11.125 12.25 11.125H8.13672V19.9492ZM0.261719 55V3.25H12.25C15.5547 3.25 18.3672 4.41016 20.6875 6.73047C23.0078 9.05078 24.168 11.8516 24.168 15.1328C24.168 18.3672 23.0547 21.1328 20.8281 23.4297C23.2188 24.1797 25.3867 25.5156 27.332 27.4375C30.4727 30.6016 32.043 34.4102 32.043 38.8633C32.043 43.3164 30.4609 47.125 27.2969 50.2891C24.1562 53.4297 20.3594 55 15.9062 55H0.261719ZM8.13672 29.582V41.4297V47.125H15.9062C18.1797 47.125 20.125 46.2695 21.7422 44.5586C23.3594 42.8242 24.168 40.75 24.168 38.3359C24.168 35.9453 23.3594 33.8945 21.7422 32.1836C20.125 30.4492 18.1797 29.582 15.9062 29.582H8.13672ZM93.6719 28.9844C93.6719 32.5938 92.9688 35.9805 91.5625 39.1445C90.1797 42.2852 88.2812 45.0273 85.8672 47.3711C83.4531 49.7148 80.6406 51.5781 77.4297 52.9609C74.2188 54.3203 70.7734 55 67.0938 55C63.3906 55 59.9336 54.3203 56.7227 52.9609C53.5117 51.5781 50.6992 49.7148 48.2852 47.3711C45.8711 45.0273 43.9609 42.2852 42.5547 39.1445C41.1719 35.9805 40.4805 32.5938 40.4805 28.9844C40.4805 25.3984 41.1719 22.0117 42.5547 18.8242C43.9609 15.6133 45.8711 12.8359 48.2852 10.4922C50.6992 8.14844 53.5117 6.29688 56.7227 4.9375C59.9336 3.57812 63.3906 2.89844 67.0938 2.89844C70.7734 2.89844 74.2188 3.57812 77.4297 4.9375C80.6406 6.29688 83.4531 8.14844 85.8672 10.4922C88.2812 12.8359 90.1797 15.6133 91.5625 18.8242C92.9688 22.0117 93.6719 25.3984 93.6719 28.9844ZM48.9883 28.9844C48.9883 31.4922 49.457 33.8477 50.3945 36.0508C51.332 38.2305 52.6211 40.1406 54.2617 41.7812C55.9023 43.3984 57.8242 44.6758 60.0273 45.6133C62.2305 46.5273 64.5859 46.9844 67.0938 46.9844C69.5781 46.9844 71.9219 46.5273 74.125 45.6133C76.3281 44.6758 78.2383 43.3984 79.8555 41.7812C81.4961 40.1406 82.7852 38.2305 83.7227 36.0508C84.6602 33.8477 85.1289 31.4922 85.1289 28.9844C85.1289 26.4766 84.6602 24.1328 83.7227 21.9531C82.7852 19.75 81.4961 17.8398 79.8555 16.2227C78.2383 14.582 76.3281 13.3047 74.125 12.3906C71.9219 11.4766 69.5781 11.0195 67.0938 11.0195C64.5859 11.0195 62.2305 11.4766 60.0273 12.3906C57.8242 13.3047 55.9023 14.582 54.2617 16.2227C52.6211 17.8398 51.332 19.75 50.3945 21.9531C49.457 24.1328 48.9883 26.4766 48.9883 28.9844ZM102.145 2.96875H110.02V55H102.145V2.96875ZM118.457 3.25H126.367V47.125H144.332V55H118.457V3.25ZM152.77 3.25H176.746V11.125H160.68V30.25H176.746V38.125H160.68V47.125H176.746V55H152.77V3.25ZM193.059 36.1211H193.656C197.172 36.1211 200.172 34.8789 202.656 32.3945C205.141 29.9102 206.383 26.9102 206.383 23.3945C206.383 19.8789 205.141 16.8789 202.656 14.3945C200.172 11.9102 197.172 10.668 193.656 10.668H193.059V36.1211ZM206.277 39.6016L213.66 55.0703H205.223L199.633 43.082C197.758 43.6445 195.766 43.9258 193.656 43.9258H193.059V55H185.184V2.89844H193.656C199.328 2.89844 204.168 4.90234 208.176 8.91016C212.184 12.918 214.188 17.7461 214.188 23.3945C214.188 29.0664 212.184 33.9062 208.176 37.9141C207.566 38.5234 206.934 39.0859 206.277 39.6016ZM242.207 30.8125L253.879 12.918L261.754 0.859375V55H253.879V27.332L242.207 45.2266L230.535 27.332V55H222.66V0.859375L230.535 12.918L242.207 30.8125ZM281.406 48.0039L278.629 55.1758H270.191L291.074 0.894531L311.922 55.1758H303.484L300.742 48.0039H281.406ZM284.43 40.1289H297.719L291.074 22.8672L284.43 40.1289ZM352.035 3.17969L340.293 23.2891L351.227 55H342.824L335.02 32.3242L328.305 43.7852V55L320.395 54.9297V3.17969H328.305V28.2109L342.93 3.17969H352.035ZM360.473 3.25H384.449V11.125H368.383V30.25H384.449V38.125H368.383V47.125H384.449V55H360.473V3.25ZM451.457 55H443.512V38.125H425.441V55H417.496V2.96875H425.441V30.1094H443.512V2.96875H451.457V55ZM471.109 48.0039L468.332 55.1758H459.895L480.777 0.894531L501.625 55.1758H493.188L490.445 48.0039H471.109ZM474.133 40.1289H487.422L480.777 22.8672L474.133 40.1289ZM539.734 44.1719V53.1719C536.688 54.3906 533.43 55 529.961 55C526.258 55 522.801 54.3203 519.59 52.9609C516.379 51.5781 513.566 49.7148 511.152 47.3711C508.738 45.0273 506.828 42.2852 505.422 39.1445C504.039 35.9805 503.348 32.5938 503.348 28.9844C503.348 25.3984 504.039 22.0117 505.422 18.8242C506.828 15.6133 508.738 12.8359 511.152 10.4922C513.566 8.14844 516.379 6.29688 519.59 4.9375C522.801 3.57812 526.258 2.89844 529.961 2.89844C533.43 2.89844 536.688 3.49609 539.734 4.69141V13.7969C538.867 13.2578 537.953 12.7891 536.992 12.3906C534.789 11.4766 532.445 11.0195 529.961 11.0195C527.453 11.0195 525.098 11.4766 522.895 12.3906C520.691 13.3047 518.77 14.582 517.129 16.2227C515.488 17.8398 514.199 19.75 513.262 21.9531C512.324 24.1328 511.855 26.4766 511.855 28.9844C511.855 31.4922 512.324 33.8477 513.262 36.0508C514.199 38.2305 515.488 40.1406 517.129 41.7812C518.77 43.3984 520.691 44.6758 522.895 45.6133C525.098 46.5273 527.453 46.9844 529.961 46.9844C532.445 46.9844 534.789 46.5156 536.992 45.5781C537.953 45.1797 538.867 44.7109 539.734 44.1719ZM579.848 3.17969L568.105 23.2891L579.039 55H570.637L562.832 32.3242L556.117 43.7852V55L548.207 54.9297V3.17969H556.117V28.2109L570.742 3.17969H579.848ZM588.285 3.25H612.262V11.125H596.195V30.25H612.262V38.125H596.195V47.125H612.262V55H588.285V3.25ZM628.574 36.1211H629.172C632.688 36.1211 635.688 34.8789 638.172 32.3945C640.656 29.9102 641.898 26.9102 641.898 23.3945C641.898 19.8789 640.656 16.8789 638.172 14.3945C635.688 11.9102 632.688 10.668 629.172 10.668H628.574V36.1211ZM641.793 39.6016L649.176 55.0703H640.738L635.148 43.082C633.273 43.6445 631.281 43.9258 629.172 43.9258H628.574V55H620.699V2.89844H629.172C634.844 2.89844 639.684 4.90234 643.691 8.91016C647.699 12.918 649.703 17.7461 649.703 23.3945C649.703 29.0664 647.699 33.9062 643.691 37.9141C643.082 38.5234 642.449 39.0859 641.793 39.6016ZM130.867 131.004L128.09 138.176H119.652L140.535 83.8945L161.383 138.176H152.945L150.203 131.004H130.867ZM133.891 123.129H147.18L140.535 105.867L133.891 123.129ZM177.73 126.926V138H169.855V85.8984H178.328C184 85.8984 188.84 87.9023 192.848 91.9102C196.855 95.918 198.859 100.746 198.859 106.395C198.859 112.066 196.855 116.906 192.848 120.914C188.84 124.922 184 126.926 178.328 126.926H177.73ZM177.73 119.121H178.328C181.844 119.121 184.844 117.879 187.328 115.395C189.812 112.91 191.055 109.91 191.055 106.395C191.055 102.879 189.812 99.8789 187.328 97.3945C184.844 94.9102 181.844 93.668 178.328 93.668H177.73V119.121ZM215.207 126.926V138H207.332V85.8984H215.805C221.477 85.8984 226.316 87.9023 230.324 91.9102C234.332 95.918 236.336 100.746 236.336 106.395C236.336 112.066 234.332 116.906 230.324 120.914C226.316 124.922 221.477 126.926 215.805 126.926H215.207ZM215.207 119.121H215.805C219.32 119.121 222.32 117.879 224.805 115.395C227.289 112.91 228.531 109.91 228.531 106.395C228.531 102.879 227.289 99.8789 224.805 97.3945C222.32 94.9102 219.32 93.668 215.805 93.668H215.207V119.121ZM244.809 86.25H252.719V130.125H270.684V138H244.809V86.25ZM279.121 85.9688H286.996V138H279.121V85.9688ZM331.82 127.172V136.172C328.773 137.391 325.516 138 322.047 138C318.344 138 314.887 137.32 311.676 135.961C308.465 134.578 305.652 132.715 303.238 130.371C300.824 128.027 298.914 125.285 297.508 122.145C296.125 118.98 295.434 115.594 295.434 111.984C295.434 108.398 296.125 105.012 297.508 101.824C298.914 98.6133 300.824 95.8359 303.238 93.4922C305.652 91.1484 308.465 89.2969 311.676 87.9375C314.887 86.5781 318.344 85.8984 322.047 85.8984C325.516 85.8984 328.773 86.4961 331.82 87.6914V96.7969C330.953 96.2578 330.039 95.7891 329.078 95.3906C326.875 94.4766 324.531 94.0195 322.047 94.0195C319.539 94.0195 317.184 94.4766 314.98 95.3906C312.777 96.3047 310.855 97.582 309.215 99.2227C307.574 100.84 306.285 102.75 305.348 104.953C304.41 107.133 303.941 109.477 303.941 111.984C303.941 114.492 304.41 116.848 305.348 119.051C306.285 121.23 307.574 123.141 309.215 124.781C310.855 126.398 312.777 127.676 314.98 128.613C317.184 129.527 319.539 129.984 322.047 129.984C324.531 129.984 326.875 129.516 329.078 128.578C330.039 128.18 330.953 127.711 331.82 127.172ZM351.508 131.004L348.73 138.176H340.293L361.176 83.8945L382.023 138.176H373.586L370.844 131.004H351.508ZM354.531 123.129H367.82L361.176 105.867L354.531 123.129ZM378.262 85.9688H412.012V94.125H399.074V137.719H391.199V94.125H378.262V85.9688ZM420.449 85.9688H428.324V138H420.449V85.9688ZM489.953 111.984C489.953 115.594 489.25 118.98 487.844 122.145C486.461 125.285 484.562 128.027 482.148 130.371C479.734 132.715 476.922 134.578 473.711 135.961C470.5 137.32 467.055 138 463.375 138C459.672 138 456.215 137.32 453.004 135.961C449.793 134.578 446.98 132.715 444.566 130.371C442.152 128.027 440.242 125.285 438.836 122.145C437.453 118.98 436.762 115.594 436.762 111.984C436.762 108.398 437.453 105.012 438.836 101.824C440.242 98.6133 442.152 95.8359 444.566 93.4922C446.98 91.1484 449.793 89.2969 453.004 87.9375C456.215 86.5781 459.672 85.8984 463.375 85.8984C467.055 85.8984 470.5 86.5781 473.711 87.9375C476.922 89.2969 479.734 91.1484 482.148 93.4922C484.562 95.8359 486.461 98.6133 487.844 101.824C489.25 105.012 489.953 108.398 489.953 111.984ZM445.27 111.984C445.27 114.492 445.738 116.848 446.676 119.051C447.613 121.23 448.902 123.141 450.543 124.781C452.184 126.398 454.105 127.676 456.309 128.613C458.512 129.527 460.867 129.984 463.375 129.984C465.859 129.984 468.203 129.527 470.406 128.613C472.609 127.676 474.52 126.398 476.137 124.781C477.777 123.141 479.066 121.23 480.004 119.051C480.941 116.848 481.41 114.492 481.41 111.984C481.41 109.477 480.941 107.133 480.004 104.953C479.066 102.75 477.777 100.84 476.137 99.2227C474.52 97.582 472.609 96.3047 470.406 95.3906C468.203 94.4766 465.859 94.0195 463.375 94.0195C460.867 94.0195 458.512 94.4766 456.309 95.3906C454.105 96.3047 452.184 97.582 450.543 99.2227C448.902 100.84 447.613 102.75 446.676 104.953C445.738 107.133 445.27 109.477 445.27 111.984ZM522.438 116.414V85.9688H530.312V140.285L506.301 107.801V138H498.426V83.8594L522.438 116.414Z" fill="black"/>
</svg>
