<?xml version="1.0" encoding="UTF-8" standalone="no"?>
<!DOCTYPE svg PUBLIC "-//W3C//DTD SVG 1.1//EN" "http://www.w3.org/Graphics/SVG/1.1/DTD/svg11.dtd">
<svg width="100%" height="100%" viewBox="0 0 1505 981" version="1.1" xmlns="http://www.w3.org/2000/svg" xmlns:xlink="http://www.w3.org/1999/xlink" xml:space="preserve" xmlns:serif="http://www.serif.com/" style="fill-rule:evenodd;clip-rule:evenodd;stroke-linecap:round;stroke-linejoin:round;stroke-miterlimit:1.5;">
    <g transform="matrix(1,0,0,1,-1979.89,-1.77636e-15)">
        <g id="Artboard1" transform="matrix(0.529559,0,0,0.361857,1996.36,5.02791)">
            <rect x="-31.105" y="-13.895" width="2841.47" height="2709.47" style="fill:none;"/>
            <g transform="matrix(0.956984,0,0,1.04443,25.7863,-169.911)">
                <g transform="matrix(2.30942,-0.118347,0.0753557,2.64404,-4941.17,221.902)">
                    <ellipse cx="2605.17" cy="682.239" rx="104.103" ry="374.771" style="fill:rgb(80,204,197);"/>
                </g>
                <g transform="matrix(2.14436,-0.109889,0.0699699,2.45507,-4509,307.883)">
                    <ellipse cx="2605.17" cy="682.239" rx="104.103" ry="374.771" style="fill:rgb(154,244,215);"/>
                </g>
            </g>
            <g transform="matrix(1.88487,0.168069,-0.114845,2.75841,-3847.56,-690.695)">
                <path d="M2447.53,140.903C2447.53,140.903 2566.5,299.844 2566.5,588.546C2566.5,835.607 2513.19,1036.19 2447.53,1036.19C2381.86,1036.19 2328.55,835.607 2328.55,588.546C2328.55,287.946 2447.53,140.903 2447.53,140.903Z" style="fill:rgb(246,203,92);"/>
                <clipPath id="_clip1">
                    <path d="M2447.53,140.903C2447.53,140.903 2566.5,299.844 2566.5,588.546C2566.5,835.607 2513.19,1036.19 2447.53,1036.19C2381.86,1036.19 2328.55,835.607 2328.55,588.546C2328.55,287.946 2447.53,140.903 2447.53,140.903Z"/>
                </clipPath>
                <g clip-path="url(#_clip1)">
                    <g transform="matrix(0.998149,-0.0608171,0.0608171,0.998149,26.2555,101.481)">
                        <path d="M2423.73,182.544L2368.3,1042.14" style="fill:none;stroke:rgb(203,38,31);stroke-width:4.17px;"/>
                    </g>
                    <g transform="matrix(0.998149,-0.0608171,0.0608171,0.998149,9.44043,102.506)">
                        <path d="M2423.73,182.544L2368.3,1042.14" style="fill:none;stroke:rgb(203,38,31);stroke-width:4.17px;"/>
                    </g>
                </g>
            </g>
            <g transform="matrix(1.8024,0.337587,-0.230679,2.63772,-2732.81,-1457.9)">
                <path d="M2926.4,295.57C2926.4,295.57 3084.04,440.517 3084.04,711.982C3084.04,941.806 3013.41,1128.39 2926.4,1128.39C2839.39,1128.39 2768.76,941.806 2768.76,711.982C2768.76,440.517 2926.4,295.57 2926.4,295.57Z" style="fill:rgb(244,135,103);"/>
                <clipPath id="_clip2">
                    <path d="M2926.4,295.57C2926.4,295.57 3084.04,440.517 3084.04,711.982C3084.04,941.806 3013.41,1128.39 2926.4,1128.39C2839.39,1128.39 2768.76,941.806 2768.76,711.982C2768.76,440.517 2926.4,295.57 2926.4,295.57Z"/>
                </clipPath>
                <g clip-path="url(#_clip2)">
                    <g transform="matrix(1.03081,-0.131927,0.131927,1.03081,-523.23,465.622)">
                        <path d="M3319.29,216.749L3211.2,1081.3" style="fill:none;stroke:rgb(255,198,195);stroke-width:4.17px;"/>
                    </g>
                </g>
            </g>
            <g transform="matrix(1.87336,-0.347712,0.237598,2.74156,-3136.79,572.273)">
                <path d="M2605.17,307.468C2662.62,307.468 2722.66,462.012 2722.66,668.854C2722.66,875.696 2662.62,1057.01 2605.17,1057.01C2547.71,1057.01 2489.17,877.183 2489.17,670.341C2489.17,463.499 2547.71,307.468 2605.17,307.468Z" style="fill:rgb(75,139,238);"/>
            </g>
            <g transform="matrix(1.82092,0,0,2.82932,-3769.93,-483.244)">
                <path d="M2881.78,277.724C2881.78,277.724 3006.71,391.974 3006.71,584.603C3006.71,873.104 2950.73,1059.98 2881.78,1059.98C2812.84,1059.98 2756.86,884.724 2756.86,584.603C2756.86,394.879 2881.78,277.724 2881.78,277.724Z" style="fill:rgb(242,242,242);"/>
                <clipPath id="_clip3">
                    <path d="M2881.78,277.724C2881.78,277.724 3006.71,391.974 3006.71,584.603C3006.71,873.104 2950.73,1059.98 2881.78,1059.98C2812.84,1059.98 2756.86,884.724 2756.86,584.603C2756.86,394.879 2881.78,277.724 2881.78,277.724Z"/>
                </clipPath>
                <g clip-path="url(#_clip3)">
                    <g transform="matrix(1.03704,0,0,0.976744,-8.37344,27.1755)">
                        <path d="M2786.85,220.715L2793.84,1075.35" style="fill:none;stroke:rgb(113,113,113);stroke-width:4.17px;"/>
                    </g>
                </g>
            </g>
            <g transform="matrix(2.17828,-0.356429,0.209831,2.74641,-4520.16,401.352)">
                <path d="M2156.04,301.519C2156.04,301.519 2244.46,360.73 2244.46,568.392C2244.46,978.73 2202,1054.04 2156.04,1054.04C2110.07,1054.04 2072.76,880.499 2072.76,567.725C2072.76,360.063 2156.04,301.519 2156.04,301.519Z" style="fill:rgb(255,190,204);"/>
                <clipPath id="_clip4">
                    <path d="M2156.04,301.519C2156.04,301.519 2244.46,360.73 2244.46,568.392C2244.46,978.73 2202,1054.04 2156.04,1054.04C2110.07,1054.04 2072.76,880.499 2072.76,567.725C2072.76,360.063 2156.04,301.519 2156.04,301.519Z"/>
                </clipPath>
                <g clip-path="url(#_clip4)">
                    <g transform="matrix(0.856203,0.111118,-0.0957324,0.993807,362.087,-247.105)">
                        <path d="M2124.3,268.305L2220.45,1029.74" style="fill:none;stroke:rgb(113,113,113);stroke-width:4.17px;"/>
                    </g>
                </g>
            </g>
        </g>
    </g>
</svg>
