<?xml version="1.0" encoding="UTF-8" standalone="no"?>
<!DOCTYPE svg PUBLIC "-//W3C//DTD SVG 1.1//EN" "http://www.w3.org/Graphics/SVG/1.1/DTD/svg11.dtd">
<svg width="100%" height="100%" viewBox="0 0 1440 1735" version="1.1" xmlns="http://www.w3.org/2000/svg" xmlns:xlink="http://www.w3.org/1999/xlink" xml:space="preserve" xmlns:serif="http://www.serif.com/" style="fill-rule:evenodd;clip-rule:evenodd;stroke-linecap:round;stroke-linejoin:round;stroke-miterlimit:1.5;">
    <g transform="matrix(1,0,0,1,-3779,-30)">
        <g id="Artboard2" transform="matrix(0.489796,0,0,0.672481,1927.57,56.8992)">
            <rect x="3780" y="-40" width="2940" height="2580" style="fill:rgb(167,195,255);"/>
            <clipPath id="_clip1">
                <rect x="3780" y="-40" width="2940" height="2580"/>
            </clipPath>
            <g clip-path="url(#_clip1)">
                <g id="Building-2" serif:id="Building 2" transform="matrix(0.317015,0,0,0.230896,466.41,1587.88)">
                    <g transform="matrix(1,0,0,1,-734.191,0)">
                        <g transform="matrix(4.81182,0,0,3.87382,6182.58,-5448.11)">
                            <rect x="633.574" y="1785.73" width="838.773" height="1195.7" style="fill:rgb(253,225,233);"/>
                        </g>
                        <g id="Sills" transform="matrix(1,0,0,1,0,276.448)">
                            <g transform="matrix(0.639369,0,0,1,4081.09,-450.928)">
                                <path d="M12702.4,2913.03C12702.4,2900.83 12686.9,2890.93 12667.8,2890.93L9761.49,2890.93C9742.42,2890.93 9726.94,2900.83 9726.94,2913.03L9726.94,2957.22C9726.94,2969.41 9742.42,2979.31 9761.49,2979.31L12667.8,2979.31C12686.9,2979.31 12702.4,2969.41 12702.4,2957.22L12702.4,2913.03Z" style="fill:rgb(255,142,158);"/>
                            </g>
                            <g transform="matrix(0.639369,0,0,0.466112,4081.09,1162.04)">
                                <path d="M12702.4,2913.03C12702.4,2900.83 12695.2,2890.93 12686.3,2890.93L9743.04,2890.93C9734.15,2890.93 9726.94,2900.83 9726.94,2913.03L9726.94,2957.22C9726.94,2969.41 9734.15,2979.31 9743.04,2979.31L12686.3,2979.31C12695.2,2979.31 12702.4,2969.41 12702.4,2957.22L12702.4,2913.03Z" style="fill:rgb(209,113,126);"/>
                            </g>
                            <g transform="matrix(0.22972,0,0,2.44,10502.3,-4613.88)">
                                <path d="M12702.4,2913.03C12702.4,2900.83 12597.2,2890.93 12467.7,2890.93L9961.62,2890.93C9832.09,2890.93 9726.94,2900.83 9726.94,2913.03L9726.94,2957.22C9726.94,2969.41 9832.09,2979.31 9961.62,2979.31L12467.7,2979.31C12597.2,2979.31 12702.4,2969.41 12702.4,2957.22L12702.4,2913.03Z" style="fill:rgb(255,142,158);"/>
                            </g>
                            <g transform="matrix(-1,0,0,0.894941,22502.5,-1136.5)">
                                <path d="M9233.39,4166.78C9233.39,4166.78 9167.1,4183.72 9121.12,4195.46C9110.54,4198.17 9101.6,4206.03 9096.77,4216.89C9091.93,4227.75 9091.71,4240.45 9096.16,4251.52C9096.16,4251.52 9096.17,4251.53 9096.17,4251.53C9118.06,4305.94 9166.25,4341.17 9219.63,4341.82C9227.97,4341.92 9233.39,4341.98 9233.39,4341.98L9233.39,4166.78Z" style="fill:rgb(209,113,126);"/>
                            </g>
                            <g transform="matrix(0.22972,0,0,1.00693,10501.5,-343.033)">
                                <path d="M12702.4,2913.03C12702.4,2900.83 12659,2890.93 12605.6,2890.93L9823.78,2890.93C9770.33,2890.93 9726.94,2900.83 9726.94,2913.03L9726.94,2957.22C9726.94,2969.41 9770.33,2979.31 9823.78,2979.31L12605.6,2979.31C12659,2979.31 12702.4,2969.41 12702.4,2957.22L12702.4,2913.03Z" style="fill:rgb(209,113,126);"/>
                            </g>
                            <g transform="matrix(1,0,0,0.722222,0,319.111)">
                                <path d="M13420.3,1190.22C13420.3,1167.36 13406.8,1148.8 13390.3,1148.8L9112.94,1148.8C9096.43,1148.8 9083.02,1167.36 9083.02,1190.22L9083.02,1273.07C9083.02,1295.93 9096.43,1314.49 9112.94,1314.49L13390.3,1314.49C13406.8,1314.49 13420.3,1295.93 13420.3,1273.07L13420.3,1190.22Z" style="fill:rgb(255,142,158);"/>
                            </g>
                        </g>
                        <g id="Windows" transform="matrix(1,0,0,1,2.27374e-13,276.448)">
                            <g transform="matrix(0.677071,0,0,1.83077,3624.46,-3059.56)">
                                <path d="M12722.9,3244.1C12722.9,3194.03 12613,3153.39 12477.6,3153.39L10051.6,3153.39C9916.25,3153.39 9806.34,3194.03 9806.34,3244.1L9806.34,3621.89C9806.34,3671.95 9916.25,3712.6 10051.6,3712.6L12477.6,3712.6C12613,3712.6 12722.9,3671.95 12722.9,3621.89L12722.9,3244.1Z" style="fill:rgb(62,67,128);"/>
                            </g>
                            <g transform="matrix(1,0,0,1.04286,-2.27374e-13,-415.512)">
                                <path d="M13269.4,3145.89C13269.4,3145.89 13254.9,3145.89 13233.4,3145.89C13184.9,3145.89 13138.4,3164.35 13104.1,3197.21C13069.9,3230.07 13050.6,3274.64 13050.6,3321.11C13050.6,3460.87 13050.6,3655.69 13050.6,3795.45C13050.6,3841.92 13069.9,3886.48 13104.1,3919.34C13138.4,3952.2 13184.9,3970.66 13233.4,3970.66C13254.9,3970.66 13269.4,3970.66 13269.4,3970.66L13269.4,3145.89Z" style="fill:rgb(62,67,128);"/>
                            </g>
                            <g transform="matrix(1,0,0,1,1101.66,-261.765)">
                                <rect x="10644.8" y="2930.5" width="29.456" height="1113.44" style="fill:rgb(253,225,233);"/>
                            </g>
                            <g transform="matrix(1,0,0,1,2515.2,-261.765)">
                                <rect x="10644.8" y="2930.5" width="29.456" height="1113.44" style="fill:rgb(253,225,233);"/>
                            </g>
                            <g transform="matrix(6.12323e-17,-1,0.236102,1.44571e-17,12314.6,14164.2)">
                                <rect x="10644.8" y="2930.5" width="29.456" height="1113.44" style="fill:rgb(253,225,233);"/>
                            </g>
                            <g transform="matrix(1,0,0,1.04286,-2.27374e-13,-1856.38)">
                                <path d="M13269.4,3145.89L13233.4,3145.89C13184.9,3145.89 13138.4,3164.35 13104.1,3197.21C13069.9,3230.07 13050.6,3274.64 13050.6,3321.11C13050.6,3460.87 13050.6,3655.69 13050.6,3795.45C13050.6,3841.92 13069.9,3886.48 13104.1,3919.34C13138.4,3952.2 13184.9,3970.66 13233.4,3970.66C13254.9,3970.66 13269.4,3970.66 13269.4,3970.66L13269.4,3145.89Z" style="fill:rgb(62,67,128);"/>
                            </g>
                            <g transform="matrix(1,0,0,0.865079,2515.2,-1157.02)">
                                <rect x="10644.8" y="2930.5" width="29.456" height="1113.44" style="fill:rgb(253,225,233);"/>
                            </g>
                            <g transform="matrix(6.12323e-17,-1,0.236102,1.44571e-17,12314.6,12723.3)">
                                <rect x="10644.8" y="2930.5" width="29.456" height="1113.44" style="fill:rgb(253,225,233);"/>
                            </g>
                            <g transform="matrix(6.12323e-17,-1,2.00265,1.22627e-16,4219.36,14038.2)">
                                <rect x="10644.8" y="2930.5" width="29.456" height="1113.44" style="fill:rgb(253,225,233);"/>
                            </g>
                            <g transform="matrix(1,0,0,1,591.85,-261.765)">
                                <rect x="10644.8" y="2930.5" width="29.456" height="1113.44" style="fill:rgb(253,225,233);"/>
                            </g>
                            <g transform="matrix(0.316231,0,0,0.96044,9073.22,-197.409)">
                                <path d="M13316.8,1543.53C13316.8,1534.91 13295.6,1527.92 13269.4,1527.92C13269.4,1527.92 13269.4,1527.92 13269.4,1527.92L13269.4,1687.18C13269.4,1687.18 13269.4,1687.18 13269.4,1687.18C13295.6,1687.18 13316.8,1680.19 13316.8,1671.57C13316.8,1641.09 13316.8,1574.01 13316.8,1543.53Z" style="fill:rgb(253,225,233);stroke:rgb(253,225,233);stroke-width:26.27px;"/>
                            </g>
                            <g transform="matrix(0.316231,0,0,0.957706,9073.22,822.734)">
                                <path d="M13316.8,1543.58C13316.8,1534.93 13295.6,1527.92 13269.4,1527.92C13269.4,1527.92 13269.4,1527.92 13269.4,1527.92L13269.4,1687.18L13269.4,1687.18C13295.6,1687.18 13316.8,1680.17 13316.8,1671.52C13316.8,1641.04 13316.8,1574.06 13316.8,1543.58Z" style="fill:rgb(253,225,233);stroke:rgb(253,225,233);stroke-width:26.34px;"/>
                            </g>
                            <g transform="matrix(0.316231,0,0,1.29765,9073.68,674.433)">
                                <path d="M13316.8,1539.48C13316.8,1536.41 13311.9,1533.47 13303,1531.31C13294.1,1529.14 13282,1527.92 13269.4,1527.92C13269.4,1527.92 13269.4,1527.92 13269.4,1527.92L13269.4,1687.18L13269.4,1687.18C13282,1687.18 13294.1,1685.96 13303,1683.79C13311.9,1681.62 13316.8,1678.69 13316.8,1675.62C13316.8,1646.23 13316.8,1568.87 13316.8,1539.48Z" style="fill:rgb(253,225,233);stroke:rgb(253,225,233);stroke-width:19.89px;"/>
                            </g>
                            <g transform="matrix(0.316231,0,0,1.07849,9073.68,2078.83)">
                                <path d="M13316.8,1541.82C13316.8,1534.14 13295.6,1527.92 13269.4,1527.92C13269.4,1527.92 13269.4,1527.92 13269.4,1527.92L13269.4,1687.18C13269.4,1687.18 13269.4,1687.18 13269.4,1687.18C13295.6,1687.18 13316.8,1680.95 13316.8,1673.27C13316.8,1643.12 13316.8,1571.98 13316.8,1541.82Z" style="fill:rgb(253,225,233);stroke:rgb(253,225,233);stroke-width:23.64px;"/>
                            </g>
                        </g>
                        <g id="_-Pillar-" serif:id="&quot;Pillar&quot;" transform="matrix(1,0,0,0.898528,4.54747e-13,376.768)">
                            <g transform="matrix(0.908163,0,0,1.02902,1013.45,170.118)">
                                <path d="M13139.7,1135.74C13139.7,1073.14 13088,1022.31 13024.3,1022.31L12793.3,1022.31C12729.6,1022.31 12677.8,1073.14 12677.8,1135.74L12677.8,3958.58C12677.8,4021.18 12729.6,4072.01 12793.3,4072.01L13024.3,4072.01C13088,4072.01 13139.7,4021.18 13139.7,3958.58L13139.7,1135.74Z" style="fill:rgb(255,142,158);"/>
                            </g>
                            <g transform="matrix(5.5609e-17,-1.01072,0.279573,1.90522e-17,11808.1,14269.3)">
                                <path d="M13139.7,1397.44C13139.7,1190.4 13088,1022.31 13024.3,1022.31L12793.3,1022.31C12729.6,1022.31 12677.8,1190.4 12677.8,1397.44L12677.8,3696.88C12677.8,3903.92 12729.6,4072.01 12793.3,4072.01L13024.3,4072.01C13088,4072.01 13139.7,3903.92 13139.7,3696.88L13139.7,1397.44Z" style="fill:rgb(255,142,158);"/>
                            </g>
                            <g transform="matrix(0.753986,0,0,0.555141,2975.26,530.089)">
                                <path d="M12946.5,1267.04L12093.9,1267.04C12093.9,1267.04 12093.9,1351.87 12093.9,1443.41C12093.9,1566.92 12160.1,1667.05 12241.8,1667.05C12486,1667.05 12946.5,1667.05 12946.5,1667.05L12946.5,1267.04Z" style="fill:rgb(209,113,126);"/>
                            </g>
                            <g transform="matrix(1,0,0,1.11854,-4.54747e-13,-423.085)">
                                <rect x="12527" y="1667.05" width="209.755" height="2491.77" style="fill:rgb(209,113,126);"/>
                            </g>
                        </g>
                        <g id="Shadow-Circles" serif:id="Shadow Circles" transform="matrix(1,0,0,1,-12.0652,305.604)">
                            <g transform="matrix(1,0,0,1,99.4142,114.142)">
                                <circle cx="11964.8" cy="1632.17" r="248.535" style="fill:rgb(209,113,126);"/>
                            </g>
                            <g transform="matrix(0.459259,0,0,0.459259,6100.75,996.721)">
                                <circle cx="11964.8" cy="1632.17" r="248.535" style="fill:rgb(209,113,126);"/>
                            </g>
                            <g transform="matrix(0.459259,0,0,0.459259,5768.54,996.721)">
                                <circle cx="11964.8" cy="1632.17" r="248.535" style="fill:rgb(209,113,126);"/>
                            </g>
                        </g>
                        <g id="Circles" transform="matrix(1,0,0,1,0,276.448)">
                            <g transform="matrix(1,0,0,1,99.4142,114.142)">
                                <circle cx="11964.8" cy="1632.17" r="248.535" style="fill:rgb(255,142,158);"/>
                            </g>
                            <g transform="matrix(0.459259,0,0,0.459259,6100.75,996.721)">
                                <circle cx="11964.8" cy="1632.17" r="248.535" style="fill:rgb(255,142,158);"/>
                            </g>
                            <g transform="matrix(0.459259,0,0,0.459259,5768.54,996.721)">
                                <circle cx="11964.8" cy="1632.17" r="248.535" style="fill:rgb(255,142,158);"/>
                            </g>
                        </g>
                        <g id="Door">
                        </g>
                    </g>
                    <g transform="matrix(2.26586,0,0,2.28474,16189.7,123.919)">
                        <g transform="matrix(1.01895,0,0,1.27837,22.9233,-689.724)">
                            <rect x="371.842" y="569.684" width="1702.11" height="2007.79" style="fill:rgb(253,236,225);"/>
                        </g>
                        <g id="Top-rectangle" serif:id="Top rectangle" transform="matrix(0.634876,0,0,0.684221,-94.7725,-1075.17)">
                            <path d="M3524.72,1698.03C3524.72,1658.85 3490.2,1627.09 3447.63,1627.09C3034.07,1627.09 1086.48,1627.09 797.745,1627.09C788.246,1627.09 779.136,1630.56 772.419,1636.74C765.703,1642.92 761.929,1651.31 761.929,1660.05C761.929,1682.89 761.929,1713.18 761.929,1736.02C761.929,1744.76 765.703,1753.14 772.419,1759.33C779.136,1765.51 788.246,1768.98 797.745,1768.98C1086.48,1768.98 3034.07,1768.98 3447.63,1768.98C3490.2,1768.98 3524.72,1737.22 3524.72,1698.04C3524.72,1698.03 3524.72,1698.03 3524.72,1698.03Z" style="fill:rgb(92,145,255);"/>
                        </g>
                        <g id="Top-rectangle1" serif:id="Top rectangle" transform="matrix(0.634876,0,0,0.345292,-94.7725,-472.604)">
                            <path d="M3524.72,1698.03C3524.72,1679.21 3520.62,1661.17 3513.32,1647.87C3506.03,1634.56 3496.13,1627.09 3485.81,1627.09C3174.83,1627.09 1096.76,1627.09 797.745,1627.09C788.246,1627.09 779.136,1633.97 772.419,1646.22C765.703,1658.46 761.929,1675.08 761.929,1692.4C761.929,1696.15 761.929,1699.92 761.929,1703.67C761.929,1720.99 765.703,1737.6 772.419,1749.85C779.136,1762.1 788.246,1768.98 797.745,1768.98C1096.76,1768.98 3174.83,1768.98 3485.81,1768.98C3496.13,1768.98 3506.03,1761.5 3513.32,1748.2C3520.62,1734.9 3524.72,1716.85 3524.72,1698.04C3524.72,1698.03 3524.72,1698.03 3524.72,1698.03Z" style="fill:rgb(32,104,255);"/>
                        </g>
                        <g transform="matrix(-1.01895,0,0,0.956051,2971.06,-519.728)">
                            <path d="M1668.98,285.238L1322.17,584.225L1322.17,1934.82L1668.98,1934.82L1668.98,285.238Z" style="fill:rgb(32,104,255);"/>
                        </g>
                        <g transform="matrix(-1.01895,0,0,0.956051,2971.06,-13.7543)">
                            <path d="M1668.98,285.238L1322.17,584.225L1322.17,1934.82L1668.98,1934.82L1668.98,285.238Z" style="fill:rgb(32,104,255);"/>
                        </g>
                        <g transform="matrix(1.01895,0,0,0.956051,-426.57,-518.717)">
                            <path d="M1668.98,285.238L1322.17,584.225L1322.17,1934.82L1668.98,1934.82L1668.98,285.238Z" style="fill:rgb(92,145,255);stroke:rgb(92,145,255);stroke-width:2.87px;"/>
                        </g>
                        <g transform="matrix(1.01701,0,0,0.954228,-423.665,-9.23563)">
                            <path d="M1668.98,285.238L1322.17,584.225L1322.17,1934.82L1668.98,1934.82L1668.98,285.238Z" style="fill:rgb(92,145,255);stroke:rgb(92,145,255);stroke-width:2.87px;"/>
                        </g>
                        <g transform="matrix(1,0,0,1,0,228.777)">
                            <g transform="matrix(1.01895,0,0,1.01053,-61.2696,-34.7368)">
                                <rect x="552.958" y="1035.39" width="266.779" height="515.773" style="fill:rgb(32,52,95);stroke:rgb(32,52,95);stroke-width:2.79px;"/>
                            </g>
                            <g transform="matrix(1.01895,0,0,1.01053,-33.9768,-34.7368)">
                                <rect x="524.01" y="1166.81" width="271.903" height="15.994" style="fill:rgb(253,236,225);"/>
                            </g>
                            <g transform="matrix(1.3586,0,0,1.01486,-256.364,772.647)">
                                <rect x="651.755" y="234" width="13.281" height="515.733" style="fill:rgb(253,236,225);"/>
                            </g>
                        </g>
                        <g transform="matrix(1,0,0,1,0,258.817)">
                            <g transform="matrix(1.01895,0,0,1.01053,-63.7623,-843.498)">
                                <rect x="552.958" y="1035.39" width="266.779" height="515.773" style="fill:rgb(32,52,95);stroke:rgb(32,52,95);stroke-width:2.79px;"/>
                            </g>
                            <g transform="matrix(1.01895,0,0,1.01053,-34.9958,-843.313)">
                                <rect x="524.01" y="1166.81" width="271.903" height="15.994" style="fill:rgb(253,236,225);"/>
                            </g>
                            <g transform="matrix(1.3586,0,0,1.01486,-259.421,-35.7517)">
                                <rect x="651.755" y="234" width="13.281" height="515.733" style="fill:rgb(253,236,225);"/>
                            </g>
                        </g>
                        <g transform="matrix(2.49652,0,0,0.991736,-1968.62,-254.513)">
                            <g transform="matrix(0.0827174,0,0,0.749903,852.344,141.852)">
                                <path d="M3524.72,1657.41C3524.72,1649.37 3513.12,1641.65 3492.47,1635.97C3471.82,1630.28 3443.81,1627.09 3414.61,1627.09C2970.79,1627.09 1315.85,1627.09 872.04,1627.09C811.227,1627.09 761.929,1640.66 761.929,1657.41C761.929,1680.93 761.929,1713.37 761.929,1736.87C761.929,1753.59 811.063,1767.15 871.77,1767.19C1315.1,1767.49 2970.04,1768.61 3414.34,1768.9C3443.59,1768.92 3471.66,1765.74 3492.37,1760.05C3513.08,1754.36 3524.72,1746.64 3524.72,1738.58C3524.72,1714.62 3524.72,1681.36 3524.72,1657.41Z" style="fill:rgb(92,145,255);"/>
                            </g>
                            <g transform="matrix(0.0827174,0,0,0.41171,852.344,738.594)">
                                <path d="M3524.72,1682.32C3524.72,1667.67 3513.12,1653.62 3492.47,1643.26C3471.82,1632.91 3443.81,1627.09 3414.61,1627.09C2970.79,1627.09 1315.85,1627.09 872.04,1627.09C811.227,1627.09 761.929,1651.82 761.929,1682.32C761.929,1692.07 761.929,1702.22 761.929,1711.96C761.929,1742.44 811.137,1767.15 871.892,1767.19C1315.44,1767.49 2970.38,1768.61 3414.46,1768.9C3443.69,1768.92 3471.73,1763.11 3492.42,1752.75C3513.1,1742.39 3524.72,1728.34 3524.72,1713.67C3524.72,1703.38 3524.72,1692.61 3524.72,1682.32Z" style="fill:rgb(32,104,255);"/>
                            </g>
                            <g transform="matrix(0.313702,0,0,1.04895,658.35,-1534.22)">
                                <path d="M928.232,2841.52C928.232,2841.52 888.206,2834.07 854.426,2827.78C845.34,2826.09 835.745,2828.27 829.457,2833.45C823.169,2838.63 821.207,2845.97 824.352,2852.56C835.765,2876.46 850.492,2907.3 858.551,2924.17C862.11,2931.63 871.492,2936.65 882.088,2936.77C900.961,2936.99 928.232,2937.3 928.232,2937.3L928.232,2841.52Z" style="fill:rgb(32,104,255);"/>
                            </g>
                        </g>
                        <g transform="matrix(2.49652,0,0,0.991736,-1968.62,-1032.92)">
                            <g transform="matrix(0.0827174,0,0,0.749903,852.344,141.852)">
                                <path d="M3524.72,1657.41C3524.72,1649.37 3513.12,1641.65 3492.47,1635.97C3471.82,1630.28 3443.81,1627.09 3414.61,1627.09C2970.79,1627.09 1315.85,1627.09 872.04,1627.09C811.227,1627.09 761.929,1640.66 761.929,1657.41C761.929,1680.93 761.929,1713.37 761.929,1736.87C761.929,1753.59 811.063,1767.15 871.77,1767.19C1315.1,1767.49 2970.04,1768.61 3414.34,1768.9C3443.59,1768.92 3471.66,1765.74 3492.37,1760.05C3513.08,1754.36 3524.72,1746.64 3524.72,1738.58C3524.72,1714.62 3524.72,1681.36 3524.72,1657.41Z" style="fill:rgb(92,145,255);"/>
                            </g>
                            <g transform="matrix(0.0827174,0,0,0.41171,852.344,738.594)">
                                <path d="M3524.72,1682.32C3524.72,1667.67 3513.12,1653.62 3492.47,1643.26C3471.82,1632.91 3443.81,1627.09 3414.61,1627.09C2970.79,1627.09 1315.85,1627.09 872.04,1627.09C811.227,1627.09 761.929,1651.82 761.929,1682.32C761.929,1692.07 761.929,1702.22 761.929,1711.96C761.929,1742.44 811.137,1767.15 871.892,1767.19C1315.44,1767.49 2970.38,1768.61 3414.46,1768.9C3443.69,1768.92 3471.73,1763.11 3492.42,1752.75C3513.1,1742.39 3524.72,1728.34 3524.72,1713.67C3524.72,1703.38 3524.72,1692.61 3524.72,1682.32Z" style="fill:rgb(32,104,255);"/>
                            </g>
                            <g transform="matrix(0.313702,0,0,1.04895,658.35,-1534.22)">
                                <path d="M928.232,2841.52C928.232,2841.52 888.059,2834.58 854.477,2828.78C845.502,2827.23 836.108,2829.45 829.972,2834.58C823.837,2839.71 821.935,2846.93 825.012,2853.42C836.175,2876.94 850.665,2907.48 858.613,2924.22C862.133,2931.64 871.461,2936.65 882.002,2936.77C900.877,2936.99 928.232,2937.3 928.232,2937.3L928.232,2841.52Z" style="fill:rgb(32,104,255);"/>
                            </g>
                        </g>
                        <g>
                            <g transform="matrix(2.49652,0,0,0.991736,-1971.68,-483.29)">
                                <g transform="matrix(0.408147,0,0,1.01895,-50.7141,-45.5747)">
                                    <circle cx="2547.23" cy="751.342" r="36.405" style="fill:rgb(92,145,255);"/>
                                </g>
                                <g transform="matrix(0.269071,0,0,0.671741,303.521,215.155)">
                                    <circle cx="2547.23" cy="751.342" r="36.405" style="fill:rgb(253,236,225);stroke:rgb(253,236,225);stroke-width:4.23px;"/>
                                </g>
                            </g>
                            <g transform="matrix(2.49652,0,0,0.991736,-1814.72,-482.789)">
                                <g transform="matrix(0.408147,0,0,1.01895,-50.7141,-45.5747)">
                                    <circle cx="2547.23" cy="751.342" r="36.405" style="fill:rgb(92,145,255);"/>
                                </g>
                                <g transform="matrix(0.269071,0,0,0.671741,303.521,215.155)">
                                    <circle cx="2547.23" cy="751.342" r="36.405" style="fill:rgb(253,236,225);stroke:rgb(253,236,225);stroke-width:4.23px;"/>
                                </g>
                            </g>
                            <g transform="matrix(2.49652,0,0,0.991736,-1657.56,-482.789)">
                                <g transform="matrix(0.408147,0,0,1.01895,-50.7141,-45.5747)">
                                    <circle cx="2547.23" cy="751.342" r="36.405" style="fill:rgb(92,145,255);"/>
                                </g>
                                <g transform="matrix(0.269071,0,0,0.671741,303.521,215.155)">
                                    <circle cx="2547.23" cy="751.342" r="36.405" style="fill:rgb(253,236,225);stroke:rgb(253,236,225);stroke-width:4.23px;"/>
                                </g>
                            </g>
                        </g>
                    </g>
                </g>
            </g>
        </g>
    </g>
</svg>
