<svg width="157" height="31" viewBox="0 0 157 31" fill="none" xmlns="http://www.w3.org/2000/svg">
<path d="M8.07031 30.8622L0.21875 2.95203H4.78906L9.125 18.4403L14.0664 3.1864L14.1445 2.95203L14.457 3.04968L14.7695 2.95203L14.8477 3.1864L19.7891 18.4598L24.125 2.95203H28.6953L20.8438 30.8622H19.2227L14.457 16.1942L9.69141 30.8622H8.07031ZM52.25 30.8622H47.8359V21.4872H37.7969V30.8622H33.3828V1.95593H37.7969V17.0341H47.8359V1.95593H52.25V30.8622ZM56.9375 1.97546H61.5664L66.9961 18.3036L72.4062 1.97546H77.0352L69.4961 23.4403V30.8622H64.4766V23.4403L56.9375 1.97546ZM99.7891 11.3895H102.074C102.699 11.3895 103.227 11.1552 103.656 10.6864C104.099 10.2046 104.32 9.61869 104.32 8.92859C104.32 8.25151 104.099 7.67859 103.656 7.20984C103.227 6.72807 102.699 6.48718 102.074 6.48718H99.7891V11.3895ZM95.4141 30.8622V2.11218H102.074C103.91 2.11218 105.473 2.75671 106.762 4.04578C108.051 5.33484 108.695 6.89083 108.695 8.71375C108.695 10.5106 108.077 12.0471 106.84 13.3231C108.168 13.7398 109.372 14.482 110.453 15.5497C112.198 17.3075 113.07 19.4234 113.07 21.8973C113.07 24.3713 112.191 26.4872 110.434 28.245C108.689 29.9898 106.579 30.8622 104.105 30.8622H95.4141ZM99.7891 16.7411V23.3231V26.4872H104.105C105.368 26.4872 106.449 26.0119 107.348 25.0614C108.246 24.0979 108.695 22.9455 108.695 21.6044C108.695 20.2762 108.246 19.1369 107.348 18.1864C106.449 17.2229 105.368 16.7411 104.105 16.7411H99.7891ZM132.777 2.03406H136.43V30.9012H132.035V16.9364L127.094 30.12L122.133 16.7411V30.8622H117.758V2.03406H121.41L127.094 17.5028L132.777 2.03406ZM151.566 22.7177H146.566V19.5927C146.566 16.8192 147.497 14.6708 149.359 13.1473C151.221 11.6109 152.165 10.0288 152.191 8.40125C151.931 6.69552 150.967 5.84265 149.301 5.84265C147.647 5.84265 146.111 7.09265 144.691 9.59265L141.117 7.99109C141.807 4.94421 143.305 2.86088 145.609 1.74109C146.859 1.14213 148.142 0.842651 149.457 0.842651C150.564 0.842651 151.684 1.05098 152.816 1.46765C155.316 2.40515 156.566 4.58614 156.566 8.01062C156.71 10.9794 155.811 13.0692 153.871 14.2802C151.944 15.4781 151.176 18.2906 151.566 22.7177ZM151.215 26.4872V30.8622H146.918V26.4872H151.215Z" fill="black"/>
</svg>
