<?xml version="1.0" encoding="UTF-8" standalone="no"?>
<!DOCTYPE svg PUBLIC "-//W3C//DTD SVG 1.1//EN" "http://www.w3.org/Graphics/SVG/1.1/DTD/svg11.dtd">
<svg width="100%" height="100%" viewBox="0 0 686 192" version="1.1" xmlns="http://www.w3.org/2000/svg" xmlns:xlink="http://www.w3.org/1999/xlink" xml:space="preserve" xmlns:serif="http://www.serif.com/" style="fill-rule:evenodd;clip-rule:evenodd;stroke-linejoin:round;stroke-miterlimit:2;">
    <g transform="matrix(1,0,0,1,-10327.9,-2154.6)">
        <g transform="matrix(1,0,0,1,2023.26,35.0747)">
            <g transform="matrix(2.71861,0,0,1.16966,-19637,-496.341)">
                <path d="M10529.9,2261.03C10529.9,2247.45 10525.2,2236.43 10519.3,2236.43L10288.5,2236.43C10282.7,2236.43 10277.9,2247.45 10277.9,2261.03L10277.9,2375.83C10277.9,2389.4 10282.7,2400.43 10288.5,2400.43L10519.3,2400.43C10525.2,2400.43 10529.9,2389.4 10529.9,2375.83L10529.9,2261.03Z" style="fill:rgb(255,0,67);"/>
            </g>
            <g transform="matrix(1,0,0,1,-2002.26,-30.0747)">
                <text x="10392.9px" y="2272.04px" style="font-family:'Cabin-SemiBold', 'Cabin';font-weight:600;font-size:104.167px;">Appl<tspan x="10601.6px " y="2272.04px ">y</tspan> N<tspan x="10751.8px 10809.8px " y="2272.04px 2272.04px ">ow</tspan>!</text>
            </g>
        </g>
    </g>
</svg>
