<svg width="98" height="32" viewBox="0 0 98 32" fill="none" xmlns="http://www.w3.org/2000/svg">
<path d="M4.89844 22.9727V30.9609H0.523438V2.21094H4.89844H5.67969C8.40104 2.21094 10.7188 3.22656 12.6328 5.25781C14.5469 7.28906 15.5039 9.73698 15.5039 12.6016C15.5039 15.4792 14.5469 17.9336 12.6328 19.9648C10.7188 21.9961 8.40104 23.0117 5.67969 23.0117C5.41927 23.0117 5.15885 22.9987 4.89844 22.9727ZM4.89844 6.48828V18.6758C5.14583 18.7148 5.40625 18.7344 5.67969 18.7344C7.28125 18.7344 8.64193 18.1354 9.76172 16.9375C10.8945 15.7396 11.4609 14.2943 11.4609 12.6016C11.4609 10.9089 10.8945 9.47005 9.76172 8.28516C8.64193 7.08724 7.28125 6.48828 5.67969 6.48828H4.89844ZM21.0508 27.1133L19.5078 31.0977H14.8203L26.4219 0.941406L38.0039 31.0977H33.3164L31.793 27.1133H21.0508ZM22.7305 22.7383H30.1133L26.4219 13.1484L22.7305 22.7383ZM55.4258 26.4102V21.625H52.3984V17.25H59.1758V29.9844C57.4831 30.6615 55.6732 31 53.7461 31C51.6888 31 49.7682 30.6224 47.9844 29.8672C46.2005 29.099 44.638 28.0638 43.2969 26.7617C41.9557 25.4596 40.8945 23.9362 40.1133 22.1914C39.3451 20.4336 38.9609 18.5521 38.9609 16.5469C38.9609 14.5547 39.3451 12.6732 40.1133 10.9023C40.8945 9.11849 41.9557 7.57552 43.2969 6.27344C44.638 4.97135 46.2005 3.94271 47.9844 3.1875C49.7682 2.43229 51.6888 2.05469 53.7461 2.05469C55.6732 2.05469 57.4831 2.38672 59.1758 3.05078V8.10938C58.694 7.8099 58.1862 7.54948 57.6523 7.32812C56.4284 6.82031 55.1263 6.56641 53.7461 6.56641C52.3529 6.56641 51.0443 6.82031 49.8203 7.32812C48.5964 7.83594 47.5286 8.54557 46.6172 9.45703C45.7057 10.3555 44.9896 11.4167 44.4688 12.6406C43.9479 13.8516 43.6875 15.1536 43.6875 16.5469C43.6875 17.9401 43.9479 19.2487 44.4688 20.4727C44.9896 21.6836 45.7057 22.7448 46.6172 23.6562C47.5286 24.5547 48.5964 25.2643 49.8203 25.7852C51.0443 26.293 52.3529 26.5469 53.7461 26.5469C54.319 26.5469 54.8789 26.5013 55.4258 26.4102ZM63.8828 2.25H77.2031V6.625H68.2773V17.25H77.2031V21.625H68.2773V26.625H77.2031V31H63.8828V2.25ZM88.2773 31.0391C87.0273 31.0391 85.9206 30.8828 84.957 30.5703C84.0065 30.2578 82.9844 29.6979 81.8906 28.8906V23.5195C82.5677 24.2357 83.0885 24.724 83.4531 24.9844C83.8177 25.2318 84.2604 25.4987 84.7812 25.7852C85.3151 26.0716 85.901 26.3125 86.5391 26.5078C87.1771 26.7031 87.8086 26.8008 88.4336 26.8008C89.7227 26.8008 90.7773 26.3581 91.5977 25.4727C92.431 24.5742 92.8477 23.513 92.8477 22.2891C92.8477 21.2865 92.4961 20.4727 91.793 19.8477C91.0898 19.2227 89.9375 18.5065 88.3359 17.6992C87.3724 17.2044 86.5586 16.7552 85.8945 16.3516C85.2305 15.9479 84.5924 15.4466 83.9805 14.8477C83.3685 14.2487 82.8737 13.5391 82.4961 12.7188C82.1185 11.8854 81.9297 10.9089 81.9297 9.78906C81.9818 8.69531 82.2487 7.67969 82.7305 6.74219C83.2122 5.79167 83.8633 4.96484 84.6836 4.26172C85.5039 3.54557 86.4349 2.99219 87.4766 2.60156C88.5312 2.21094 89.638 2.01562 90.7969 2.01562C91.6693 2.04167 92.4635 2.16536 93.1797 2.38672C93.8958 2.59505 94.7096 2.97917 95.6211 3.53906V8.05078C95.0742 7.6862 94.6966 7.46484 94.4883 7.38672C94.293 7.29557 94.0065 7.15234 93.6289 6.95703C93.2643 6.7487 92.8346 6.57292 92.3398 6.42969C91.8581 6.28646 91.3438 6.21484 90.7969 6.21484C89.5729 6.22786 88.5378 6.61849 87.6914 7.38672C86.8451 8.14193 86.4219 9.02083 86.4219 10.0234C86.4479 10.974 86.7995 11.7357 87.4766 12.3086C88.1667 12.8685 89.2734 13.5 90.7969 14.2031C91.8385 14.6979 92.6849 15.1341 93.3359 15.5117C94 15.8893 94.651 16.3776 95.2891 16.9766C95.9271 17.5755 96.4414 18.3307 96.832 19.2422C97.2227 20.1536 97.431 21.2344 97.457 22.4844C97.457 23.6302 97.2161 24.724 96.7344 25.7656C96.2526 26.7943 95.582 27.7057 94.7227 28.5C93.8633 29.2943 92.8737 29.9193 91.7539 30.375C90.6471 30.8177 89.4883 31.0391 88.2773 31.0391Z" fill="black"/>
</svg>
