<?xml version="1.0" encoding="UTF-8" standalone="no"?><!DOCTYPE svg PUBLIC "-//W3C//DTD SVG 1.1//EN" "http://www.w3.org/Graphics/SVG/1.1/DTD/svg11.dtd"><svg width="100%" height="100%" viewBox="0 0 72 72" version="1.1" xmlns="http://www.w3.org/2000/svg" xmlns:xlink="http://www.w3.org/1999/xlink" xml:space="preserve" xmlns:serif="http://www.serif.com/" style="fill-rule:evenodd;clip-rule:evenodd;stroke-linecap:round;stroke-linejoin:round;stroke-miterlimit:1.5;"><circle id="Food" cx="36" cy="36" r="36" style="fill:#fff;"/><clipPath id="_clip1"><circle cx="36" cy="36" r="36"/></clipPath><g clip-path="url(#_clip1)"><g><path id="Spoon" d="M29.302,32.564c-2.644,0.538 -6.539,-1.167 -9.781,-4.542c-4.16,-4.329 -5.68,-9.776 -3.393,-12.156c2.287,-2.38 7.521,-0.798 11.681,3.531c3.234,3.366 4.873,7.408 4.367,10.158l22.399,23.31c0.461,0.48 0.513,1.206 0.115,1.62l-1.442,1.5c-0.397,0.414 -1.095,0.36 -1.556,-0.12l-22.39,-23.301Z" style="fill:#fff;stroke:#000;stroke-width:2.52px;"/><g id="Fork"><path d="M41.542,23.27c-1.933,1.826 -3.676,8.195 -4.132,8.67l-20.396,21.225c-0.456,0.475 -0.452,1.251 0.01,1.732l1.673,1.742c0.462,0.48 1.208,0.485 1.665,0.009l20.395,-21.225c0.457,-0.475 7.145,-3.037 8.16,-4.589" style="fill:#fff;stroke:#000;stroke-width:2.52px;"/><path d="M48.49,31.279l10.755,-11.193" style="fill:none;stroke:#000;stroke-width:2.52px;"/><path d="M41.195,23.63l10.651,-11.084" style="fill:none;stroke:#000;stroke-width:2.52px;"/><path d="M43.661,26.197l10.651,-11.084" style="fill:none;stroke:#000;stroke-width:2.52px;"/><path d="M46.127,28.763l10.651,-11.084" style="fill:none;stroke:#000;stroke-width:2.52px;"/></g></g></g></svg>