<?xml version="1.0" encoding="UTF-8" standalone="no"?><!DOCTYPE svg PUBLIC "-//W3C//DTD SVG 1.1//EN" "http://www.w3.org/Graphics/SVG/1.1/DTD/svg11.dtd"><svg width="100%" height="100%" viewBox="0 0 72 72" version="1.1" xmlns="http://www.w3.org/2000/svg" xmlns:xlink="http://www.w3.org/1999/xlink" xml:space="preserve" xmlns:serif="http://www.serif.com/" style="fill-rule:evenodd;clip-rule:evenodd;stroke-linecap:round;stroke-linejoin:round;stroke-miterlimit:1.5;"><circle cx="36" cy="36" r="36" style="fill:#fff;"/><clipPath id="_clip1"><circle cx="36" cy="36" r="36"/></clipPath><g clip-path="url(#_clip1)"><g><g><ellipse cx="27.291" cy="24.007" rx="8.351" ry="8.407" style="fill:#fff;stroke:#000;stroke-width:2.06px;"/><path d="M38.977,47.331c0,-6.456 -5.234,-11.691 -11.691,-11.691l0,0c-6.457,0 -11.691,5.235 -11.691,11.691l0,9.069l23.382,0l0,-9.069Z" style="fill:#fff;stroke:#000;stroke-width:2.06px;"/></g><g><ellipse cx="47.715" cy="31.561" rx="6.203" ry="6.446" style="fill:#fff;stroke:#000;stroke-width:2.06px;"/><path d="M56.395,49.165c0,-4.796 -3.888,-8.683 -8.684,-8.683l0,0c-4.796,0 -8.683,3.887 -8.683,8.683l0,7.235l17.367,0l0,-7.235Z" style="fill:#fff;stroke:#000;stroke-width:2.06px;"/></g></g></g></svg>