<svg xmlns="http://www.w3.org/2000/svg" xmlns:xlink="http://www.w3.org/1999/xlink" width="100%" height="100%" preserveAspectRatio="none" version="1.1" viewBox="0 0 860 512" xml:space="preserve" style="fill-rule:evenodd;clip-rule:evenodd;stroke-linejoin:round;stroke-miterlimit:2"><g><g><g transform="matrix(1,0,0,1,-1844.97,-1366.42) matrix(1,0,0,2.00779,-0.966674,9.95618) matrix(0.864322,0,0,0.414645,251.289,600.947)"><path d="M2839.97,242.316C2839.97,207.945 2813.09,180.041 2779.98,180.041L1904.95,180.041C1871.84,180.041 1844.97,207.945 1844.97,242.316L1844.97,732.767C1844.97,767.137 1871.84,795.041 1904.95,795.041L2779.98,795.041C2813.09,795.041 2839.97,767.137 2839.97,732.767L2839.97,242.316Z" style="fill:#c49eff"/><clipPath id="_clip1"><path d="M2839.97,242.316C2839.97,207.945 2813.09,180.041 2779.98,180.041L1904.95,180.041C1871.84,180.041 1844.97,207.945 1844.97,242.316L1844.97,732.767C1844.97,767.137 1871.84,795.041 1904.95,795.041L2779.98,795.041C2813.09,795.041 2839.97,767.137 2839.97,732.767L2839.97,242.316Z"/></clipPath><g clip-path="url(#_clip1)"><g transform="matrix(2.20983,0,0,1.20117,-2367.07,-41.0239)"><rect width="50" height="664" x="1956.31" y="125.065" style="fill:#fff"/></g><g transform="matrix(2.20983,0,0,1.20117,-2146.09,-50.6333)"><rect width="50" height="664" x="1956.31" y="125.065" style="fill:#fff"/></g><g transform="matrix(2.20983,0,0,1.20117,-1925.11,-48.231)"><rect width="50" height="664" x="1956.31" y="125.065" style="fill:#fff"/></g><g transform="matrix(2.20983,0,0,1.20117,-1704.13,-45.8286)"><rect width="50" height="664" x="1956.31" y="125.065" style="fill:#fff"/></g></g></g></g></g></svg>