<?xml version="1.0" encoding="UTF-8" standalone="no"?><!DOCTYPE svg PUBLIC "-//W3C//DTD SVG 1.1//EN" "http://www.w3.org/Graphics/SVG/1.1/DTD/svg11.dtd"><svg width="100%" height="100%" viewBox="0 0 72 72" version="1.1" xmlns="http://www.w3.org/2000/svg" xmlns:xlink="http://www.w3.org/1999/xlink" xml:space="preserve" xmlns:serif="http://www.serif.com/" style="fill-rule:evenodd;clip-rule:evenodd;stroke-linecap:round;stroke-linejoin:round;stroke-miterlimit:1.5;"><circle cx="36" cy="36" r="36" style="fill:#fff;"/><clipPath id="_clip1"><circle cx="36" cy="36" r="36"/></clipPath><g clip-path="url(#_clip1)"><g><path d="M33.836,15.057c-1.71,-0.244 -3.446,-0.244 -5.156,0l-0.411,2.666c-0.728,0.141 -1.446,0.333 -2.147,0.575l-1.689,-2.103c-1.603,0.644 -3.106,1.513 -4.465,2.579l0.976,2.514c-0.56,0.486 -1.085,1.012 -1.571,1.572l-2.514,-0.977c-1.066,1.36 -1.934,2.863 -2.579,4.466l2.104,1.689c-0.243,0.702 -0.435,1.419 -0.576,2.148l-2.665,0.411c-0.244,1.71 -0.244,3.447 0,5.157l2.665,0.411c0.141,0.728 0.333,1.446 0.576,2.147l-2.104,1.689c0.645,1.603 1.513,3.107 2.579,4.467l2.514,-0.977c0.486,0.56 1.011,1.085 1.571,1.572l-0.976,2.514c1.359,1.066 2.862,1.934 4.465,2.579l1.689,-2.104c0.701,0.243 1.419,0.435 2.147,0.576l0.411,2.666c1.71,0.243 3.446,0.243 5.156,0l0.411,-2.666c0.729,-0.141 1.446,-0.333 2.147,-0.576l1.689,2.104c1.603,-0.645 3.106,-1.513 4.466,-2.579l-0.977,-2.514c0.56,-0.487 1.085,-1.012 1.572,-1.572l2.514,0.977c1.065,-1.36 1.933,-2.864 2.578,-4.467l-2.103,-1.689c0.242,-0.701 0.434,-1.419 0.575,-2.147l2.666,-0.411c0.243,-1.71 0.243,-3.447 0,-5.157l-2.666,-0.411c-0.141,-0.729 -0.333,-1.446 -0.575,-2.148l2.103,-1.689c-0.645,-1.603 -1.513,-3.106 -2.578,-4.466l-2.514,0.977c-0.487,-0.56 -1.012,-1.086 -1.572,-1.572l0.977,-2.514c-1.36,-1.066 -2.863,-1.935 -4.466,-2.579l-1.689,2.103c-0.701,-0.242 -1.418,-0.434 -2.147,-0.575l-0.411,-2.666Zm-2.578,14.458c2.02,0 3.66,1.64 3.66,3.66c0,2.021 -1.64,3.661 -3.66,3.661c-2.02,0 -3.659,-1.64 -3.659,-3.661c0,-2.02 1.639,-3.66 3.659,-3.66Z" style="fill:#fff;stroke:#000;stroke-width:2.52px;"/><path d="M50.523,35.717c-1.604,-0.366 -3.27,-0.366 -4.875,0l0.187,2.665c-0.938,0.263 -1.822,0.689 -2.612,1.258l-1.967,-1.807c-1.286,1.026 -2.325,2.329 -3.039,3.812l2.199,1.515c-0.379,0.898 -0.597,1.855 -0.645,2.828l-2.639,0.41c0,1.646 0.371,3.271 1.085,4.754l2.556,-0.775c0.465,0.856 1.077,1.623 1.807,2.267l-1.324,2.32c1.287,1.026 2.788,1.749 4.392,2.116l0.988,-2.482c0.959,0.169 1.941,0.169 2.9,0l0.987,2.482c1.605,-0.367 3.106,-1.09 4.393,-2.116l-1.325,-2.32c0.731,-0.644 1.343,-1.411 1.808,-2.267l2.556,0.775c0.714,-1.483 1.085,-3.108 1.085,-4.754l-2.639,-0.41c-0.048,-0.973 -0.267,-1.93 -0.645,-2.828l2.199,-1.515c-0.714,-1.483 -1.753,-2.786 -3.039,-3.812l-1.967,1.807c-0.79,-0.569 -1.675,-0.995 -2.612,-1.258l0.186,-2.665Zm-2.437,7.943c1.511,0 2.738,1.227 2.738,2.738c0,1.512 -1.227,2.739 -2.738,2.739c-1.512,0 -2.739,-1.227 -2.739,-2.739c0,-1.511 1.227,-2.738 2.739,-2.738Z" style="fill:#fff;stroke:#000;stroke-width:2.52px;"/></g></g></svg>