<svg xmlns="http://www.w3.org/2000/svg" xmlns:xlink="http://www.w3.org/1999/xlink" width="100%" height="100%" version="1.1" viewBox="0 0 593 200" xml:space="preserve" style="fill-rule:evenodd;clip-rule:evenodd;stroke-linejoin:round;stroke-miterlimit:1.5"><g id="Artboard1" transform="matrix(1.82462,0,0,0.966184,-352.151,-60.8696)"><rect width="325" height="207" x="193" y="63" style="fill:none"/><g><g><path d="M380,234.5C380,184.552 420.552,144 470.5,144C520.448,144 561,184.552 561,234.5" transform="matrix(2.42833,0,0,1.935,-546.136,-140.67) matrix(0.18704,0,0,-0.443274,238.158,262.692)" style="fill:none;stroke:#ff8e9e;stroke-width:21.12px"/></g><g><path d="M380,234.5C380,184.552 420.552,144 470.5,144C520.448,144 561,184.552 561,234.5" transform="matrix(2.42833,0,0,1.935,-546.136,-140.67) matrix(0.18704,0,0,0.443274,238.158,54.7965)" style="fill:none;stroke:#a7c3ff;stroke-width:21.12px"/></g></g><g><g><path d="M380,234.5C380,184.552 420.552,144 470.5,144C520.448,144 561,184.552 561,234.5" transform="matrix(2.42833,0,0,1.935,-436.524,-140.67) matrix(0.18704,0,0,-0.443274,238.158,262.692)" style="fill:none;stroke:#ff8e9e;stroke-width:21.12px"/></g><g><path d="M380,234.5C380,184.552 420.552,144 470.5,144C520.448,144 561,184.552 561,234.5" transform="matrix(2.42833,0,0,1.935,-436.524,-140.67) matrix(0.18704,0,0,0.443274,238.158,54.7965)" style="fill:none;stroke:#a7c3ff;stroke-width:21.12px"/></g></g><g><g><path d="M380,234.5C380,184.552 420.552,144 470.5,144C520.448,144 561,184.552 561,234.5" transform="matrix(2.42833,0,0,1.935,-326.911,-140.67) matrix(0.18704,0,0,-0.443274,238.158,262.692)" style="fill:none;stroke:#ff8e9e;stroke-width:21.12px"/></g><g><path d="M380,234.5C380,184.552 420.552,144 470.5,144C520.448,144 561,184.552 561,234.5" transform="matrix(2.42833,0,0,1.935,-326.911,-140.67) matrix(0.18704,0,0,0.443274,238.158,54.7965)" style="fill:none;stroke:#a7c3ff;stroke-width:21.12px"/></g></g></g></svg>