<svg xmlns="http://www.w3.org/2000/svg" xmlns:xlink="http://www.w3.org/1999/xlink" width="100%" height="100%" version="1.1" viewBox="0 0 179 268" xml:space="preserve" style="fill-rule:evenodd;clip-rule:evenodd;stroke-miterlimit:2"><g><path d="M89.486,0c49.388,0 89.485,40.097 89.485,89.486c0,62.989 -64.002,102.375 -84.781,174.892c-0.532,1.925 -2.299,3.247 -4.296,3.214c-1.997,-0.034 -3.719,-1.413 -4.187,-3.355c-17.994,-71.12 -85.707,-110.832 -85.707,-174.751c0,-49.389 40.097,-89.486 89.486,-89.486Z" style="fill:#ab343b"/><g><path d="M140.209,72.271l-10.242,10.979c-1.881,2.02 -4.943,2.026 -6.833,0.015l-4.571,-4.866c-1.89,-2.012 -4.952,-2.005 -6.833,0.014l-50.021,53.721c-1.898,2.02 -4.96,2.027 -6.849,0.015l-4.571,-4.866c-1.89,-2.012 -1.897,-5.285 -0.016,-7.305l50.037,-53.721c1.881,-2.019 1.874,-5.293 -0.016,-7.304l-4.571,-4.866c-1.889,-2.012 -1.896,-5.285 -0.015,-7.305l0.852,-1.018c0.916,-0.967 2.14,-1.607 3.429,-1.61l18.774,-0.04c1.29,-0.003 2.516,0.632 3.42,1.595l18.01,19.223c1.89,1.994 1.897,5.319 0.016,7.339Z" style="fill:#fff"/><path d="M128.932,127.115l-4.55,4.885c-1.881,2.02 -4.943,2.027 -6.849,0.015l-18.834,-20.065c-1.889,-2.012 -1.896,-5.285 -0.015,-7.305l4.55,-4.885c1.881,-2.02 4.943,-2.026 6.833,-0.015l18.85,20.065c1.89,2.012 1.897,5.285 0.015,7.305Z" style="fill:#fff"/><path d="M38.762,65.183l17.928,-19.334c0.9,-0.967 2.124,-1.607 3.413,-1.609l18.775,-0.041c1.289,-0.002 2.515,0.632 3.436,1.595l0.856,0.963c1.89,2.029 1.897,5.32 0.015,7.339l-4.55,4.886c-1.881,2.019 -1.874,5.31 0.016,7.322l1.712,1.822c1.89,2.012 1.897,5.285 0.016,7.322l-4.551,4.868c-1.881,2.037 -4.943,2.044 -6.833,0.015l-1.712,-1.823c-1.89,-2.011 -4.952,-2.005 -6.833,0.015l-4.55,4.885c-1.881,2.02 -4.943,2.026 -6.833,0.015l-10.289,-10.935c-1.89,-2.012 -1.897,-5.285 -0.016,-7.305Z" style="fill:#fff"/></g><circle cx="89.486" cy="88.884" r="75.426" style="fill:none;stroke:#fff;stroke-width:8px"/></g></svg>