<?xml version="1.0" encoding="UTF-8" standalone="no"?><!DOCTYPE svg PUBLIC "-//W3C//DTD SVG 1.1//EN" "http://www.w3.org/Graphics/SVG/1.1/DTD/svg11.dtd"><svg width="100%" height="100%" viewBox="0 0 1827 724" version="1.1" xmlns="http://www.w3.org/2000/svg" xmlns:xlink="http://www.w3.org/1999/xlink" xml:space="preserve" xmlns:serif="http://www.serif.com/" style="fill-rule:evenodd;clip-rule:evenodd;stroke-linejoin:round;stroke-miterlimit:2;"><g id="Clouds"><path d="M524.207,32.295l-174.822,0c0,-17.824 14.471,-32.295 32.295,-32.295c13.989,0 25.913,8.914 30.396,21.367c0.627,-0.048 1.26,-0.072 1.899,-0.072c7.883,0 14.911,3.691 19.449,9.438c5.203,-8.607 14.65,-14.365 25.432,-14.365c7.077,0 13.579,2.481 18.683,6.62c3.653,-8.777 12.315,-14.954 22.408,-14.954c13.39,0 24.26,10.871 24.26,24.261Z" style="fill:#ffc875;"/><path d="M1390.54,67.592c2.927,-11.331 13.226,-19.711 25.466,-19.711c12.72,0 23.342,9.05 25.776,21.056c1.727,-0.555 3.568,-0.855 5.478,-0.855c7.421,0 13.793,4.521 16.511,10.957c4.064,-3.05 9.113,-4.858 14.581,-4.858c5.085,0 9.808,1.563 13.713,4.235c5.579,-9.342 15.79,-15.604 27.452,-15.604c10.331,0 19.523,4.914 25.365,12.53c3.966,-4.415 9.718,-7.193 16.114,-7.193c11.954,0 21.659,9.705 21.659,21.659c0,0.009 0,0.028 0,0.028l-261.554,0.039c0,0 -0.002,-0.045 -0.002,-0.067c0,-15.146 12.297,-27.443 27.443,-27.443c7.56,0 14.411,3.064 19.376,8.016c3.602,-3.095 8.286,-4.967 13.403,-4.967c3.314,0 6.445,0.785 9.219,2.178Z" style="fill:#ffc875;"/><path d="M116.997,363.776c1.132,-11.996 11.244,-21.395 23.534,-21.395c11.587,0 21.238,8.355 23.252,19.364c1.74,-0.473 3.57,-0.725 5.459,-0.725c4.296,0 8.289,1.306 11.604,3.543c3.781,-5.189 9.904,-8.564 16.809,-8.564c4.135,0 7.989,1.211 11.228,3.296c4.27,-6.37 11.535,-10.567 19.772,-10.567c11.648,0 21.352,8.392 23.39,19.454c2.501,-1.378 5.374,-2.162 8.429,-2.162c9.658,0 17.5,7.841 17.5,17.5c0,0.009 0,0.028 0,0.028l-238,-0.011c0,0 0,-0.011 0,-0.017c0,-17.386 14.115,-31.5 31.5,-31.5c10.337,0 19.518,4.99 25.263,12.691c2.984,-2.314 6.729,-3.691 10.794,-3.691c3.482,0 6.73,1.011 9.466,2.756Z" style="fill:#ffc875;"/><path d="M1689.18,422.764c5.018,-5.439 12.169,-8.842 20.101,-8.842c11.273,0 20.97,6.874 25.206,16.698c0.744,-0.102 1.503,-0.155 2.275,-0.155c9.13,0 16.543,7.413 16.543,16.543c0,0.172 -0.008,0.513 -0.008,0.513l-247.921,-0.074c0,0 -0.004,-0.292 -0.004,-0.439c0,-14.097 11.446,-25.543 25.544,-25.543c5.942,0 11.414,2.034 15.755,5.443c4.388,-7.751 12.71,-12.986 22.245,-12.986c12.308,0 22.595,8.724 25.008,20.321c0.178,-0.004 0.356,-0.006 0.535,-0.006c6.084,0 11.581,2.553 15.5,6.657c3.919,-4.104 9.417,-6.657 15.5,-6.657c3.651,0 7.09,0.919 10.105,2.542c4.329,-13.269 16.703,-22.857 31.275,-22.857c8.619,0 16.47,3.354 22.341,8.842Z" style="fill:#ffc875;"/><path d="M1826.55,447.521l-56.178,-0.012c0,0 0,-0.018 0,-0.027c0,-6.225 5.054,-11.278 11.278,-11.278c4.655,0 8.656,2.826 10.377,6.855c1.512,-2.219 4.06,-3.677 6.945,-3.677c3.719,0 6.877,2.422 7.981,5.773c0.855,-0.282 1.77,-0.434 2.719,-0.434c1.906,0 3.669,0.614 5.103,1.655c0.519,-2.75 2.936,-4.833 5.836,-4.833c3.278,0 5.939,2.661 5.939,5.939c0,0.013 0,0.039 0,0.039Z" style="fill:#ffc875;"/></g><g id="Stars"><circle cx="250.137" cy="279.59" r="2" style="fill:#fff;"/><circle cx="871.76" cy="279.59" r="2" style="fill:#fff;"/><circle cx="782.593" cy="446.1" r="2" style="fill:#fff;"/><circle cx="1100" cy="469.436" r="2" style="fill:#fff;"/><circle cx="1473.28" cy="579.154" r="2" style="fill:#fff;"/><circle cx="1268.91" cy="629.461" r="2" style="fill:#fff;"/><circle cx="663.678" cy="625.76" r="2" style="fill:#fff;"/><circle cx="573.678" cy="490.761" r="2" style="fill:#fff;"/><circle cx="250.137" cy="652.093" r="2" style="fill:#fff;"/><circle cx="959.195" cy="721.254" r="2" style="fill:#fff;"/><circle cx="1150.72" cy="279.59" r="2" style="fill:#fff;"/><circle cx="530.41" cy="209.59" r="2" style="fill:#fff;"/><circle cx="1563.18" cy="289.293" r="2" style="fill:#fff;"/><circle cx="1705.7" cy="625.76" r="2" style="fill:#fff;"/><circle cx="2" cy="515.76" r="2" style="fill:#fff;"/></g></svg>