<svg xmlns="http://www.w3.org/2000/svg" xmlns:xlink="http://www.w3.org/1999/xlink" width="100%" height="100%" version="1.1" viewBox="0 0 72 72" xml:space="preserve" style="fill-rule:evenodd;clip-rule:evenodd;stroke-linecap:round;stroke-linejoin:round;stroke-miterlimit:1.5"><circle cx="36" cy="36" r="36" style="fill:#fff"/><clipPath id="_clip1"><circle cx="36" cy="36" r="36"/></clipPath><g clip-path="url(#_clip1)"><g><g><path d="M31.203,18.609l9.849,0l-2.462,6.952l-4.925,0l-2.462,-6.952Z" style="fill:#fff;stroke:#000;stroke-width:2.52px"/><path d="M41.096,50.661l-0.057,0l-4.896,8.377l-4.902,-8.386l0.007,0l2.462,-25.026l4.924,0l2.462,25.035Z" style="fill:#fff;stroke:#000;stroke-width:2.52px"/></g><g><path d="M55.202,22.566c0,-3.704 -4.95,-9.13 -7.2,-11.75c-2.25,-2.62 -6.809,-2.099 -12.258,-2.099c-4.586,0 -9.117,-0.63 -11.368,1.989c-2.25,2.62 -7.574,8.156 -7.574,11.86l0,36.954c0,1.193 0.967,2.16 2.16,2.16l34.08,0c1.193,0 2.16,-0.967 2.16,-2.16l0,-36.954Z" style="fill:none;stroke:#000;stroke-width:2.06px"/><path d="M36,18.084l9.6,-9.438l-19.2,0l9.6,9.438Z" style="fill:#fff;stroke:#000;stroke-width:2.06px"/><path d="M26.4,31.68l0,30" style="fill:none;stroke:#000;stroke-width:2.06px"/><path d="M45.6,31.68l0,30" style="fill:none;stroke:#000;stroke-width:2.06px"/><path d="M47.668,14.314l-7.985,8.593l-2.362,-5.696l8.67,-8.569l2.415,2.604l-0.738,3.068Z" style="fill:#fff;stroke:#000;stroke-width:2.06px"/><path d="M24.62,14.314l7.984,8.593l2.362,-5.696l-8.67,-8.569l-2.415,2.604l0.739,3.068Z" style="fill:#fff;stroke:#000;stroke-width:2.06px"/></g></g></g></svg>