<?xml version="1.0" encoding="UTF-8" standalone="no"?><!DOCTYPE svg PUBLIC "-//W3C//DTD SVG 1.1//EN" "http://www.w3.org/Graphics/SVG/1.1/DTD/svg11.dtd"><svg width="100%" height="100%" viewBox="0 0 2410 997" version="1.1" xmlns="http://www.w3.org/2000/svg" xmlns:xlink="http://www.w3.org/1999/xlink" xml:space="preserve" xmlns:serif="http://www.serif.com/" style="fill-rule:evenodd;clip-rule:evenodd;stroke-miterlimit:2;"><g id="Testimonials-Image" serif:id="Testimonials Image"><rect id="Bushes---Trees" serif:id="Bushes &amp; Trees" x="0" y="0" width="2410" height="997" style="fill:none;"/><clipPath id="_clip1"><rect x="0" y="0" width="2410" height="997"/></clipPath><g clip-path="url(#_clip1)"><g><g><path d="M558.986,1006.29c-10.712,2.426 -21.856,3.707 -33.296,3.707c-82.975,0 -150.341,-67.365 -150.341,-150.34c0,-82.975 67.366,-150.34 150.341,-150.34c48.006,0 90.788,22.549 118.32,57.625c2.961,3.83 7.802,5.7 12.568,4.856c8.288,-1.41 16.805,-2.149 25.494,-2.149c35.264,0 67.708,12.168 93.36,32.53c4.07,3.269 9.698,3.791 14.3,1.326c21.001,-11.146 44.95,-17.465 70.364,-17.465c53.245,0 100.062,27.74 126.775,69.543c3.272,5.22 9.759,7.426 15.534,5.283c16.287,-6.009 33.888,-9.31 52.255,-9.31c82.975,0 150.34,67.365 150.34,150.34c0,82.975 -67.365,150.34 -150.34,150.34c-57.158,0 -106.908,-31.965 -132.333,-78.98c-18.967,8.647 -40.041,13.465 -62.231,13.465c-38.415,0 -73.484,-14.44 -100.071,-38.182c-22.736,13.826 -49.422,21.791 -77.953,21.791c-50.872,0 -95.877,-25.323 -123.086,-64.04Z" style="fill:#408e81;"/><path d="M1070.88,912.416c-2.827,1.316 -3.35,6.189 -1.167,10.876c2.182,4.686 6.248,7.422 9.075,6.106c2.826,-1.316 3.349,-6.19 1.167,-10.876c-2.183,-4.686 -6.249,-7.422 -9.075,-6.106Z" style="fill:#38827e;"/><path d="M934.467,813.751c-2.522,-1.834 -7.038,0.071 -10.079,4.252c-3.041,4.18 -3.462,9.063 -0.941,10.897c2.521,1.834 7.037,-0.071 10.078,-4.251c3.041,-4.181 3.463,-9.064 0.942,-10.898Z" style="fill:#38827e;"/><path d="M655.985,782.351c-2.652,1.639 -2.6,6.54 0.117,10.938c2.717,4.397 7.077,6.637 9.729,4.999c2.653,-1.639 2.6,-6.54 -0.117,-10.938c-2.717,-4.397 -7.076,-6.638 -9.729,-4.999Z" style="fill:#38827e;"/><path d="M525.064,719.678c-3.026,-0.752 -6.494,2.711 -7.74,7.728c-1.246,5.018 0.199,9.701 3.225,10.452c3.026,0.752 6.494,-2.711 7.74,-7.728c1.246,-5.017 -0.199,-9.701 -3.225,-10.452Z" style="fill:#38827e;"/><path d="M1031.04,879.034c-2.953,-1.001 -6.696,2.162 -8.355,7.059c-1.659,4.896 -0.608,9.683 2.345,10.683c2.953,1.001 6.697,-2.162 8.356,-7.059c1.658,-4.896 0.607,-9.683 -2.346,-10.683Z" style="fill:#5aa788;"/><path d="M840.822,814.56c-2.779,1.415 -3.13,6.303 -0.784,10.91c2.345,4.607 6.505,7.198 9.283,5.784c2.779,-1.415 3.13,-6.303 0.785,-10.91c-2.346,-4.607 -6.506,-7.198 -9.284,-5.784Z" style="fill:#5aa788;"/><path d="M736,798.949c-3.007,-0.827 -6.56,2.549 -7.931,7.533c-1.37,4.985 -0.042,9.703 2.964,10.529c3.006,0.827 6.559,-2.549 7.93,-7.533c1.371,-4.984 0.043,-9.702 -2.963,-10.529Z" style="fill:#5aa788;"/><path d="M538.11,758.865c-0.606,3.059 3.019,6.357 8.09,7.361c5.071,1.004 9.68,-0.663 10.285,-3.722c0.606,-3.058 -3.019,-6.356 -8.09,-7.361c-5.071,-1.004 -9.68,0.664 -10.285,3.722Z" style="fill:#5aa788;"/></g><g><path d="M1765.36,1039.08c10.711,2.426 21.855,3.707 33.296,3.707c82.975,0 150.34,-67.365 150.34,-150.34c0,-82.975 -67.365,-150.341 -150.34,-150.341c-48.007,0 -90.788,22.55 -118.321,57.626c-2.96,3.83 -7.801,5.7 -12.568,4.856c-8.288,-1.41 -16.805,-2.149 -25.493,-2.149c-35.264,0 -67.709,12.168 -93.361,32.53c-4.07,3.269 -9.698,3.791 -14.299,1.326c-21.001,-11.146 -44.951,-17.465 -70.364,-17.465c-53.246,0 -100.063,27.74 -126.776,69.543c-3.272,5.22 -9.758,7.426 -15.534,5.283c-16.286,-6.009 -33.888,-9.31 -52.254,-9.31c-82.975,0 -150.341,67.365 -150.341,150.34c0,82.975 67.366,150.34 150.341,150.34c57.157,0 106.908,-31.965 132.333,-78.98c18.967,8.647 40.041,13.464 62.231,13.464c38.414,0 73.483,-14.439 100.07,-38.181c22.736,13.825 49.422,21.79 77.954,21.79c50.872,0 95.877,-25.322 123.086,-64.039Z" style="fill:#408e81;"/><path d="M1393.15,879.184c-3.054,0.628 -4.687,5.249 -3.646,10.312c1.042,5.064 4.367,8.665 7.421,8.036c3.054,-0.628 4.687,-5.249 3.646,-10.312c-1.042,-5.064 -4.367,-8.664 -7.421,-8.036Z" style="fill:#5aa788;"/><path d="M1588.04,869.978c-2.953,-1.001 -6.696,2.162 -8.355,7.059c-1.659,4.896 -0.608,9.683 2.345,10.683c2.953,1.001 6.697,-2.162 8.356,-7.059c1.658,-4.896 0.607,-9.683 -2.346,-10.683Z" style="fill:#5aa788;"/><path d="M1693.43,804.98c-2.973,0.938 -4.123,5.703 -2.567,10.632c1.557,4.93 5.235,8.17 8.208,7.231c2.973,-0.939 4.123,-5.703 2.566,-10.633c-1.557,-4.929 -5.234,-8.169 -8.207,-7.23Z" style="fill:#5aa788;"/><path d="M1847.07,796.574c-3.111,-0.207 -5.914,3.814 -6.256,8.972c-0.342,5.158 1.905,9.513 5.016,9.719c3.111,0.207 5.915,-3.813 6.257,-8.972c0.342,-5.158 -1.906,-9.513 -5.017,-9.719Z" style="fill:#5aa788;"/><path d="M1822.94,762.065c-2.902,1.14 -3.724,5.972 -1.833,10.783c1.89,4.812 5.78,7.792 8.682,6.652c2.902,-1.14 3.724,-5.971 1.833,-10.783c-1.89,-4.811 -5.78,-7.792 -8.682,-6.652Z" style="fill:#5aa788;"/><path d="M1766.48,833.316c-2.942,-1.034 -6.722,2.085 -8.437,6.962c-1.714,4.877 -0.719,9.676 2.222,10.71c2.942,1.034 6.722,-2.085 8.437,-6.962c1.715,-4.877 0.719,-9.676 -2.222,-10.71Z" style="fill:#38827e;"/><path d="M1483.28,843.701c-1.898,-2.474 -6.769,-1.926 -10.87,1.222c-4.1,3.148 -5.888,7.711 -3.99,10.184c1.899,2.473 6.769,1.926 10.87,-1.222c4.101,-3.148 5.888,-7.711 3.99,-10.184Z" style="fill:#38827e;"/><path d="M1268.88,912.416c-2.827,1.316 -3.35,6.189 -1.167,10.876c2.182,4.686 6.248,7.422 9.075,6.106c2.826,-1.316 3.349,-6.19 1.167,-10.876c-2.183,-4.686 -6.249,-7.422 -9.075,-6.106Z" style="fill:#38827e;"/><path d="M1627.42,822.158c-2.901,1.142 -3.72,5.974 -1.828,10.785c1.893,4.81 5.785,7.789 8.687,6.647c2.901,-1.141 3.72,-5.973 1.827,-10.784c-1.893,-4.81 -5.785,-7.789 -8.686,-6.648Z" style="fill:#38827e;"/></g><g id="Tree"><path d="M1898.77,565.32l54,0l0,100.12c10.056,-35.407 75.462,-42 76,-83.12l13.174,0c0.504,-0.049 0.062,3.901 -1,8.702c-9.281,41.931 -60.257,52.038 -78,88c0,0 -4.669,7.188 -10.174,23.299l0,175.223c0,20.539 4.941,40.775 14.406,59.003c3.165,6.095 5.594,10.773 5.594,10.773l-94,0c0,0 2.434,-4.687 5.603,-10.791c9.459,-18.216 14.397,-38.44 14.397,-58.965l0,-312.244Z" style="fill:#16505e;"/><clipPath id="_clip2"><path d="M1898.77,565.32l54,0l0,100.12c10.056,-35.407 75.462,-42 76,-83.12l13.174,0c0.504,-0.049 0.062,3.901 -1,8.702c-9.281,41.931 -60.257,52.038 -78,88c0,0 -4.669,7.188 -10.174,23.299l0,175.223c0,20.539 4.941,40.775 14.406,59.003c3.165,6.095 5.594,10.773 5.594,10.773l-94,0c0,0 2.434,-4.687 5.603,-10.791c9.459,-18.216 14.397,-38.44 14.397,-58.965l0,-312.244Z"/></clipPath><g clip-path="url(#_clip2)"><path d="M1981.77,585.32l29.654,17l47.346,0l-83,275.224c0,20.539 4.941,40.775 14.406,59.003c3.165,6.095 5.594,10.773 5.594,10.773l-94,0c0,0 2.434,-4.687 5.603,-10.791c9.459,-18.216 14.397,-38.44 14.397,-58.965c0,0 0,-167.57 0,-234.202c0,-16.501 9.186,-31.63 23.827,-39.24c16.746,-8.704 36.173,-18.802 36.173,-18.802Z" style="fill:#1e726e;"/></g><path d="M1922.77,712.32c-30.039,-40.072 -30,-40 -30,-40c0,0 -37.299,-46.357 -57.443,-71.394c-8.126,-10.1 -12.557,-22.674 -12.557,-35.637c0,-13.166 0,-27.969 0,-27.969l-21,0l0,29.11c0,14.789 5.192,29.108 14.67,40.461c25.738,30.83 76.33,91.429 76.33,91.429c10.419,12.964 23.11,29.567 30,50.18c0,0 2.231,-28.746 0,-36.18Z" style="fill:#1e726e;"/><clipPath id="_clip3"><path d="M1922.77,712.32c-30.039,-40.072 -30,-40 -30,-40c0,0 -37.299,-46.357 -57.443,-71.394c-8.126,-10.1 -12.557,-22.674 -12.557,-35.637c0,-13.166 0,-27.969 0,-27.969l-21,0l0,29.11c0,14.789 5.192,29.108 14.67,40.461c25.738,30.83 76.33,91.429 76.33,91.429c10.419,12.964 23.11,29.567 30,50.18c0,0 2.231,-28.746 0,-36.18Z"/></clipPath><g clip-path="url(#_clip3)"><rect x="1786.77" y="537.32" width="53" height="29" style="fill:#16505e;"/></g><g><path d="M2031.15,324.917c23.678,0.001 42.9,19.224 42.9,42.901c0,0 0,25.364 0,37.086c0,1.542 0.613,3.021 1.703,4.111c1.091,1.091 2.569,1.703 4.111,1.703c0.001,0 0.001,0 0.001,0c23.677,0.001 42.9,19.223 42.9,42.9l0,85.801c0,23.677 -19.223,42.9 -42.9,42.901l-190.2,0c-19.877,0 -36.615,-13.549 -41.475,-31.906c-1.059,-3.971 -4.655,-6.734 -8.765,-6.734c-20.903,-0.001 -78.007,-0.001 -78.007,-0.001c-23.677,0 -42.9,-19.223 -42.9,-42.901l0,-85.8c0,-23.677 19.222,-42.9 42.9,-42.901l32.374,0c1.13,0 2.213,-0.448 3.011,-1.247c0.799,-0.798 1.247,-1.881 1.247,-3.011c0,-0.001 0,-0.001 0,-0.001c0,-23.677 19.223,-42.9 42.901,-42.901l190.199,0Z" style="fill:#408e81;"/><clipPath id="_clip4"><path d="M2031.15,324.917c23.678,0.001 42.9,19.224 42.9,42.901c0,0 0,25.364 0,37.086c0,1.542 0.613,3.021 1.703,4.111c1.091,1.091 2.569,1.703 4.111,1.703c0.001,0 0.001,0 0.001,0c23.677,0.001 42.9,19.223 42.9,42.9l0,85.801c0,23.677 -19.223,42.9 -42.9,42.901l-190.2,0c-19.877,0 -36.615,-13.549 -41.475,-31.906c-1.059,-3.971 -4.655,-6.734 -8.765,-6.734c-20.903,-0.001 -78.007,-0.001 -78.007,-0.001c-23.677,0 -42.9,-19.223 -42.9,-42.901l0,-85.8c0,-23.677 19.222,-42.9 42.9,-42.901l32.374,0c1.13,0 2.213,-0.448 3.011,-1.247c0.799,-0.798 1.247,-1.881 1.247,-3.011c0,-0.001 0,-0.001 0,-0.001c0,-23.677 19.223,-42.9 42.901,-42.901l190.199,0Z"/></clipPath><g clip-path="url(#_clip4)"><path d="M2053.15,324.917c23.678,0.001 42.9,19.224 42.9,42.901l0,37.086c0,1.542 0.613,3.021 1.703,4.111c1.091,1.091 2.569,1.703 4.111,1.703c0.001,0 0.001,0 0.001,0c23.677,0.001 42.9,19.223 42.9,42.9l0,65.801c0,23.677 -19.223,42.9 -42.9,42.901l-190.2,0c-19.848,0 -36.566,-5.544 -41.454,-22.147c-1.141,-3.851 -4.68,-6.493 -8.696,-6.493c-20.83,-0.001 -78.097,-0.001 -78.097,-0.001c-23.677,0 -42.9,-19.223 -42.9,-42.901l0,-65.8c0,-23.677 19.222,-42.9 42.9,-42.901l27.561,0c5.01,0 9.071,-4.061 9.071,-9.071c0,-2.812 0,-5.188 0,-5.188c0,-23.677 19.223,-42.9 42.901,-42.901l190.199,0Z" style="fill:#5aa788;"/></g><path d="M1794.23,404.905c-3.057,-0.612 -6.362,3.008 -7.375,8.077c-1.013,5.069 0.647,9.681 3.704,10.292c3.057,0.611 6.362,-3.008 7.375,-8.078c1.013,-5.069 -0.646,-9.68 -3.704,-10.291Z" style="fill:#408e81;"/><path d="M1929.43,526.866c-2.764,1.443 -3.066,6.335 -0.674,10.917c2.392,4.583 6.577,7.133 9.341,5.69c2.764,-1.443 3.067,-6.334 0.675,-10.917c-2.392,-4.583 -6.578,-7.132 -9.342,-5.69Z" style="fill:#408e81;"/><path d="M1980.84,434.626c-4.346,-1.172 -9.45,3.726 -11.393,10.931c-1.942,7.205 0.009,14.005 4.354,15.177c4.346,1.171 9.45,-3.727 11.393,-10.932c1.942,-7.204 -0.009,-14.005 -4.354,-15.176Z" style="fill:#408e81;"/><path d="M1878.39,359.936c-5.338,2.206 -6.701,11.182 -3.043,20.032c3.658,8.85 10.961,14.243 16.298,12.037c5.338,-2.206 6.701,-11.182 3.043,-20.032c-3.657,-8.85 -10.961,-14.243 -16.298,-12.037Z" style="fill:#408e81;"/><path d="M2086.19,513.372c-3.051,-0.642 -6.392,2.943 -7.457,8.002c-1.065,5.058 0.547,9.687 3.598,10.329c3.051,0.642 6.393,-2.943 7.458,-8.002c1.065,-5.059 -0.548,-9.687 -3.599,-10.329Z" style="fill:#408e81;"/><path d="M1816.45,458.992c-5.034,3.474 -4.444,13.071 1.317,21.417c5.761,8.346 14.524,12.302 19.558,8.827c5.034,-3.474 4.444,-13.071 -1.317,-21.417c-5.761,-8.346 -14.524,-12.302 -19.558,-8.827Z" style="fill:#6fb884;"/><path d="M1947.35,427.055c-3.1,0.334 -5.167,4.778 -4.614,9.918c0.553,5.139 3.519,9.041 6.619,8.708c3.1,-0.334 5.167,-4.778 4.614,-9.918c-0.553,-5.139 -3.519,-9.041 -6.619,-8.708Z" style="fill:#6fb884;"/><path d="M2037.93,348.879c-3.1,0.334 -5.168,4.777 -4.614,9.917c0.553,5.14 3.519,9.042 6.619,8.708c3.1,-0.334 5.167,-4.777 4.614,-9.917c-0.553,-5.14 -3.519,-9.042 -6.619,-8.708Z" style="fill:#6fb884;"/><path d="M2035.86,512.282c-2.785,-4.811 -11.521,-4.968 -19.497,-0.351c-7.976,4.617 -12.19,12.271 -9.406,17.082c2.785,4.81 11.521,4.967 19.497,0.35c7.976,-4.617 12.191,-12.271 9.406,-17.081Z" style="fill:#6fb884;"/><path d="M1921.6,487.368c-3.214,-3.511 -9.77,-2.749 -14.632,1.701c-4.862,4.45 -6.2,10.913 -2.987,14.424c3.214,3.511 9.77,2.749 14.632,-1.701c4.862,-4.45 6.2,-10.913 2.987,-14.424Z" style="fill:#f88ea8;"/><path d="M1953.87,357.47c-3.191,-0.545 -6.395,2.598 -7.151,7.016c-0.755,4.418 1.221,8.448 4.412,8.994c3.19,0.546 6.394,-2.598 7.15,-7.016c0.756,-4.418 -1.221,-8.448 -4.411,-8.994Z" style="fill:#f88ea8;"/><path d="M1783.49,503.71c-1.327,1.701 -0.491,4.574 1.864,6.41c2.356,1.837 5.345,1.947 6.672,0.246c1.326,-1.701 0.491,-4.573 -1.865,-6.41c-2.356,-1.837 -5.345,-1.947 -6.671,-0.246Z" style="fill:#f88ea8;"/><path d="M2073.63,424.079c-3.92,0.656 -6.364,5.596 -5.455,11.023c0.909,5.428 4.829,9.302 8.749,8.646c3.919,-0.657 6.364,-5.596 5.455,-11.024c-0.909,-5.428 -4.83,-9.302 -8.749,-8.645Z" style="fill:#f88ea8;"/></g></g><g id="Tree1" serif:id="Tree"><path d="M917.543,678.701l-54,0l0,100.121c-10.056,-35.408 -75.462,-42 -76,-83.121l-13.174,0c-0.504,-0.049 -0.062,3.902 1,8.703c9.281,41.93 60.257,52.038 78,88c0,0 4.669,7.188 10.174,23.299l0,175.223c0,20.538 -4.941,40.775 -14.406,59.002c-3.165,6.095 -5.594,10.773 -5.594,10.773l94,0c0,0 -2.434,-4.687 -5.603,-10.79c-9.459,-18.216 -14.397,-38.44 -14.397,-58.965l0,-312.245Z" style="fill:#16505e;"/><clipPath id="_clip5"><path d="M917.543,678.701l-54,0l0,100.121c-10.056,-35.408 -75.462,-42 -76,-83.121l-13.174,0c-0.504,-0.049 -0.062,3.902 1,8.703c9.281,41.93 60.257,52.038 78,88c0,0 4.669,7.188 10.174,23.299l0,175.223c0,20.538 -4.941,40.775 -14.406,59.002c-3.165,6.095 -5.594,10.773 -5.594,10.773l94,0c0,0 -2.434,-4.687 -5.603,-10.79c-9.459,-18.216 -14.397,-38.44 -14.397,-58.965l0,-312.245Z"/></clipPath><g clip-path="url(#_clip5)"><path d="M948.667,698.701l29.653,17l47.347,0l-83,275.225c0,20.538 4.941,40.775 14.406,59.002c3.165,6.095 5.594,10.773 5.594,10.773l-94,0c0,0 2.433,-4.687 5.603,-10.79c9.459,-18.216 14.397,-38.44 14.397,-58.965c0,0 0,-167.571 0,-234.203c0,-16.501 9.186,-31.629 23.827,-39.239c16.745,-8.705 36.173,-18.803 36.173,-18.803Z" style="fill:#1e726e;"/></g><g><path d="M785.158,438.299c-23.678,0 -42.9,19.223 -42.9,42.9c0,0 0,25.364 0,37.087c0,1.542 -0.613,3.02 -1.703,4.111c-1.091,1.09 -2.569,1.703 -4.111,1.703c-0.001,0 -0.001,0 -0.001,0c-23.677,0 -42.9,19.223 -42.9,42.9l0,85.801c0,23.677 19.223,42.9 42.9,42.9l190.2,0c19.877,0 36.615,-13.548 41.476,-31.906c1.058,-3.971 4.654,-6.734 8.764,-6.734c20.903,-0.001 78.007,-0.001 78.007,-0.001c23.677,0 42.9,-19.223 42.9,-42.9l0,-85.801c0,-23.677 -19.222,-42.9 -42.9,-42.9l-32.374,0c-1.13,0 -2.213,-0.449 -3.011,-1.247c-0.799,-0.799 -1.247,-1.882 -1.247,-3.011c0,-0.001 0,-0.002 0,-0.002c0,-23.677 -19.223,-42.9 -42.901,-42.9l-190.199,0Z" style="fill:#408e81;"/><clipPath id="_clip6"><path d="M785.158,438.299c-23.678,0 -42.9,19.223 -42.9,42.9c0,0 0,25.364 0,37.087c0,1.542 -0.613,3.02 -1.703,4.111c-1.091,1.09 -2.569,1.703 -4.111,1.703c-0.001,0 -0.001,0 -0.001,0c-23.677,0 -42.9,19.223 -42.9,42.9l0,85.801c0,23.677 19.223,42.9 42.9,42.9l190.2,0c19.877,0 36.615,-13.548 41.476,-31.906c1.058,-3.971 4.654,-6.734 8.764,-6.734c20.903,-0.001 78.007,-0.001 78.007,-0.001c23.677,0 42.9,-19.223 42.9,-42.9l0,-85.801c0,-23.677 -19.222,-42.9 -42.9,-42.9l-32.374,0c-1.13,0 -2.213,-0.449 -3.011,-1.247c-0.799,-0.799 -1.247,-1.882 -1.247,-3.011c0,-0.001 0,-0.002 0,-0.002c0,-23.677 -19.223,-42.9 -42.901,-42.9l-190.199,0Z"/></clipPath><g clip-path="url(#_clip6)"><path d="M813.158,434.299c-23.678,0 -42.9,19.223 -42.9,42.9c0,0 0,25.364 0,37.087c0,1.542 -0.613,3.02 -1.703,4.111c-1.091,1.09 -2.569,1.703 -4.111,1.703c-0.001,0 -0.001,0 -0.001,0c-23.677,0 -42.9,19.223 -42.9,42.9l0,65.801c0,23.677 19.223,42.9 42.9,42.9l176.684,0c7.488,0 13.562,-6.066 13.572,-13.555c-0.001,-0.016 -0.001,-0.033 -0.001,-0.05c0.011,-8.425 6.837,-15.253 15.263,-15.266c9.102,-0.083 20.194,-0.096 27.161,0.22c0.139,0.007 0.279,0.01 0.418,0.01c4.627,0 85.35,0 85.35,0c23.677,0 42.9,-19.223 42.9,-42.9l0,-65.801c0,-23.677 -19.222,-42.9 -42.9,-42.9c0,0 -16.713,0 -27.561,0c-5.01,0 -9.071,-4.062 -9.071,-9.072c0,-2.812 0,-5.188 0,-5.188c0,-23.677 -19.223,-42.9 -42.901,-42.9l-190.199,0Z" style="fill:#5aa788;"/></g><path d="M1022.08,518.286c3.057,-0.611 6.362,3.008 7.375,8.078c1.013,5.069 -0.647,9.68 -3.704,10.292c-3.057,0.611 -6.362,-3.009 -7.375,-8.078c-1.013,-5.069 0.646,-9.681 3.704,-10.292Z" style="fill:#408e81;"/><path d="M886.879,640.248c2.764,1.442 3.066,6.334 0.674,10.917c-2.392,4.583 -6.577,7.132 -9.341,5.69c-2.764,-1.443 -3.067,-6.335 -0.675,-10.918c2.392,-4.583 6.578,-7.132 9.342,-5.689Z" style="fill:#408e81;"/><path d="M835.471,548.007c4.346,-1.171 9.45,3.727 11.393,10.932c1.942,7.204 -0.009,14.005 -4.354,15.176c-4.346,1.172 -9.45,-3.727 -11.393,-10.931c-1.942,-7.205 0.009,-14.005 4.354,-15.177Z" style="fill:#408e81;"/><path d="M937.917,473.317c5.338,2.206 6.701,11.182 3.043,20.032c-3.658,8.85 -10.961,14.244 -16.298,12.038c-5.338,-2.207 -6.701,-11.183 -3.043,-20.032c3.657,-8.85 10.961,-14.244 16.298,-12.038Z" style="fill:#408e81;"/><path d="M730.115,626.753c3.051,-0.642 6.392,2.944 7.457,8.002c1.065,5.059 -0.547,9.687 -3.598,10.329c-3.051,0.643 -6.393,-2.943 -7.458,-8.001c-1.065,-5.059 0.548,-9.687 3.599,-10.33Z" style="fill:#408e81;"/><path d="M999.853,572.373c5.034,3.475 4.444,13.071 -1.317,21.418c-5.761,8.346 -14.524,12.301 -19.558,8.827c-5.034,-3.475 -4.444,-13.071 1.317,-21.418c5.761,-8.346 14.524,-12.301 19.558,-8.827Z" style="fill:#6fb884;"/><path d="M868.963,540.437c3.1,0.334 5.167,4.777 4.614,9.917c-0.553,5.14 -3.519,9.042 -6.619,8.708c-3.1,-0.334 -5.167,-4.777 -4.614,-9.917c0.553,-5.14 3.519,-9.042 6.619,-8.708Z" style="fill:#6fb884;"/><path d="M778.376,462.261c3.1,0.333 5.168,4.777 4.614,9.917c-0.553,5.139 -3.519,9.041 -6.619,8.708c-3.1,-0.334 -5.167,-4.778 -4.614,-9.918c0.553,-5.139 3.519,-9.041 6.619,-8.707Z" style="fill:#6fb884;"/><path d="M780.448,625.663c2.785,-4.81 11.521,-4.967 19.497,-0.35c7.976,4.617 12.19,12.271 9.406,17.081c-2.785,4.811 -11.521,4.968 -19.497,0.351c-7.976,-4.617 -12.191,-12.271 -9.406,-17.082Z" style="fill:#6fb884;"/><path d="M894.713,600.75c3.214,-3.511 9.77,-2.749 14.632,1.701c4.862,4.45 6.2,10.913 2.987,14.424c-3.214,3.511 -9.77,2.749 -14.632,-1.701c-4.862,-4.45 -6.2,-10.913 -2.987,-14.424Z" style="fill:#f88ea8;"/><path d="M862.436,470.852c3.191,-0.546 6.395,2.598 7.151,7.016c0.755,4.418 -1.221,8.448 -4.412,8.994c-3.19,0.546 -6.394,-2.598 -7.15,-7.016c-0.756,-4.418 1.221,-8.448 4.411,-8.994Z" style="fill:#f88ea8;"/><path d="M1032.81,617.092c1.327,1.701 0.491,4.573 -1.864,6.41c-2.356,1.837 -5.345,1.947 -6.672,0.246c-1.326,-1.701 -0.491,-4.574 1.865,-6.41c2.356,-1.837 5.345,-1.948 6.671,-0.246Z" style="fill:#f88ea8;"/><path d="M742.676,537.46c3.92,0.657 6.364,5.596 5.455,11.024c-0.909,5.428 -4.829,9.301 -8.749,8.645c-3.919,-0.656 -6.364,-5.596 -5.455,-11.024c0.909,-5.427 4.83,-9.301 8.749,-8.645Z" style="fill:#f88ea8;"/></g></g><g><path d="M1750.49,866.799c11.202,3.339 23.335,0.514 31.91,-7.431c27.271,-25.196 63.722,-40.594 103.742,-40.594c84.443,0 153,68.557 153,153c0,84.443 -68.557,153 -153,153c-22.184,0 -43.272,-4.731 -62.308,-13.24c-28.075,33.513 -70.23,54.839 -117.326,54.839c-19.825,0 -38.775,-3.779 -56.167,-10.655c-27.693,27.686 -65.938,44.819 -108.152,44.819c-84.443,0 -153,-68.557 -153,-153c0,-84.443 68.557,-153 153,-153c13.83,0 27.234,1.839 39.981,5.286c10.152,2.722 20.993,0.454 29.203,-6.109c26.068,-20.898 59.16,-33.341 95.135,-33.341c15.285,0 30.05,2.246 43.982,6.426Z" style="fill:#5aa788;"/><path d="M1859.27,907.278c-2.117,0.412 -3.373,3.127 -2.802,6.06c0.571,2.932 2.754,4.977 4.871,4.565c2.118,-0.412 3.373,-3.128 2.802,-6.06c-0.571,-2.932 -2.754,-4.978 -4.871,-4.565Z" style="fill:#f88ea8;"/><path d="M1697.49,895.629c-1.398,1.643 -0.687,4.548 1.588,6.485c2.274,1.936 5.256,2.174 6.655,0.532c1.398,-1.643 0.686,-4.548 -1.588,-6.485c-2.275,-1.936 -5.257,-2.174 -6.655,-0.532Z" style="fill:#f88ea8;"/><path d="M1957.78,848.707c-1.456,-1.592 -4.428,-1.246 -6.631,0.771c-2.204,2.016 -2.81,4.946 -1.354,6.537c1.456,1.591 4.428,1.246 6.631,-0.771c2.204,-2.017 2.811,-4.946 1.354,-6.537Z" style="fill:#f88ea8;"/><path d="M1523.48,911.184c-3.054,0.628 -4.687,5.249 -3.646,10.312c1.042,5.064 4.367,8.665 7.421,8.036c3.054,-0.628 4.687,-5.249 3.646,-10.312c-1.042,-5.064 -4.367,-8.664 -7.421,-8.036Z" style="fill:#408e81;"/><path d="M1645.22,918.416c-2.716,-1.531 -6.982,0.882 -9.521,5.385c-2.539,4.503 -2.395,9.402 0.321,10.933c2.715,1.531 6.982,-0.881 9.521,-5.384c2.538,-4.503 2.395,-9.402 -0.321,-10.934Z" style="fill:#408e81;"/><path d="M1839.23,853.905c-3.057,-0.612 -6.362,3.008 -7.375,8.077c-1.013,5.069 0.647,9.681 3.704,10.292c3.057,0.611 6.362,-3.008 7.375,-8.078c1.013,-5.069 -0.646,-9.68 -3.704,-10.291Z" style="fill:#408e81;"/><path d="M1994.69,914.07c-3.057,-0.611 -6.362,3.009 -7.375,8.078c-1.013,5.069 0.646,9.681 3.704,10.292c3.057,0.611 6.362,-3.008 7.375,-8.078c1.013,-5.069 -0.647,-9.68 -3.704,-10.292Z" style="fill:#408e81;"/><path d="M1870.01,921.708c-3.058,-0.611 -6.362,3.008 -7.375,8.078c-1.014,5.069 0.646,9.68 3.703,10.291c3.058,0.611 6.362,-3.008 7.376,-8.077c1.013,-5.069 -0.647,-9.681 -3.704,-10.292Z" style="fill:#6fb884;"/><path d="M1923.22,842.905c-2.566,1.772 -2.265,6.663 0.671,10.918c2.937,4.254 7.404,6.271 9.97,4.499c2.566,-1.771 2.265,-6.663 -0.672,-10.917c-2.936,-4.254 -7.403,-6.271 -9.969,-4.5Z" style="fill:#6fb884;"/><path d="M1753.9,903.187c-2.566,1.771 -2.265,6.663 0.671,10.918c2.937,4.254 7.404,6.27 9.97,4.499c2.566,-1.771 2.265,-6.663 -0.671,-10.917c-2.937,-4.255 -7.404,-6.271 -9.97,-4.5Z" style="fill:#6fb884;"/><path d="M1554.64,922.125c-2.696,-1.566 -6.993,0.79 -9.591,5.26c-2.597,4.469 -2.517,9.37 0.178,10.937c2.696,1.566 6.993,-0.791 9.591,-5.26c2.597,-4.469 2.518,-9.37 -0.178,-10.937Z" style="fill:#6fb884;"/></g><g id="Bush-1" serif:id="Bush 1"><path d="M847.376,1136.29c-15.573,5.35 -32.279,8.253 -49.658,8.253c-42.215,0 -80.459,-17.133 -108.153,-44.819c-17.392,6.876 -36.341,10.655 -56.166,10.655c-47.097,0 -89.251,-21.326 -117.326,-54.839c-19.036,8.509 -40.124,13.24 -62.308,13.24c-84.443,0 -153,-68.557 -153,-153c0,-84.443 68.557,-153 153,-153c40.019,0 76.471,15.398 103.741,40.594c8.575,7.945 20.708,10.77 31.911,7.431c13.931,-4.18 28.696,-6.426 43.982,-6.426c35.975,0 69.067,12.443 95.134,33.341c8.21,6.563 19.052,8.831 29.204,6.109c12.746,-3.447 26.15,-5.286 39.981,-5.286c38.718,0 74.096,14.413 101.057,38.163c5.252,4.68 12.223,6.949 19.224,6.257c4.538,-0.416 9.137,-0.641 13.788,-0.641c77.832,0 141.021,63.189 141.021,141.021c0,77.832 -63.189,141.022 -141.021,141.022c-31.645,0 -60.87,-10.446 -84.411,-28.075Z" style="fill:#5aa788;"/><path d="M945.961,903.682c-3.042,0.683 -4.593,5.332 -3.461,10.376c1.131,5.044 4.52,8.585 7.562,7.902c3.042,-0.682 4.593,-5.331 3.462,-10.375c-1.132,-5.045 -4.521,-8.586 -7.563,-7.903Z" style="fill:#6fb884;"/><path d="M783.883,904.421c-2.813,-1.346 -6.907,1.348 -9.138,6.011c-2.231,4.664 -1.759,9.542 1.054,10.888c2.812,1.345 6.907,-1.349 9.138,-6.012c2.231,-4.663 1.758,-9.542 -1.054,-10.887Z" style="fill:#6fb884;"/><path d="M661.714,871.206c-3.046,0.663 -4.627,5.302 -3.528,10.354c1.099,5.051 4.464,8.614 7.511,7.951c3.047,-0.663 4.628,-5.302 3.529,-10.353c-1.099,-5.051 -4.465,-8.614 -7.512,-7.952Z" style="fill:#6fb884;"/><path d="M531.887,879.833c-3.031,-0.728 -6.473,2.761 -7.681,7.788c-1.207,5.026 0.274,9.698 3.305,10.426c3.032,0.729 6.473,-2.761 7.681,-7.787c1.208,-5.027 -0.273,-9.699 -3.305,-10.427Z" style="fill:#6fb884;"/><path d="M589.996,834.409c-3.054,0.629 -4.687,5.25 -3.646,10.313c1.042,5.063 4.367,8.664 7.421,8.036c3.054,-0.628 4.687,-5.249 3.646,-10.313c-1.042,-5.063 -4.367,-8.664 -7.421,-8.036Z" style="fill:#408e81;"/><path d="M732.41,862.107c-3.003,-0.84 -6.571,2.52 -7.963,7.499c-1.392,4.978 -0.085,9.702 2.918,10.542c3.003,0.839 6.571,-2.521 7.963,-7.5c1.392,-4.978 0.084,-9.702 -2.918,-10.541Z" style="fill:#408e81;"/><path d="M928.713,916.482c-3.002,-0.84 -6.57,2.52 -7.963,7.499c-1.392,4.978 -0.084,9.702 2.919,10.541c3.002,0.84 6.57,-2.52 7.962,-7.499c1.392,-4.978 0.085,-9.702 -2.918,-10.541Z" style="fill:#408e81;"/><path d="M359.539,891.474c-2.977,-0.926 -6.64,2.33 -8.175,7.267c-1.535,4.936 -0.364,9.695 2.613,10.621c2.977,0.926 6.641,-2.331 8.175,-7.267c1.535,-4.936 0.364,-9.696 -2.613,-10.621Z" style="fill:#408e81;"/><path d="M389.938,793.988c-3.06,0.596 -4.742,5.199 -3.754,10.273c0.988,5.075 4.275,8.71 7.335,8.114c3.061,-0.596 4.743,-5.199 3.755,-10.273c-0.989,-5.074 -4.275,-8.71 -7.336,-8.114Z" style="fill:#6fb884;"/><path d="M843.226,884.278c-2.118,0.412 -3.373,3.127 -2.802,6.06c0.571,2.932 2.754,4.977 4.871,4.565c2.117,-0.412 3.373,-3.128 2.802,-6.06c-0.571,-2.932 -2.754,-4.978 -4.871,-4.565Z" style="fill:#f88ea8;"/><path d="M510.782,814.008c-2.073,-0.597 -4.428,1.249 -5.255,4.119c-0.827,2.87 0.185,5.686 2.257,6.283c2.073,0.597 4.428,-1.248 5.255,-4.119c0.827,-2.87 -0.185,-5.685 -2.257,-6.283Z" style="fill:#f88ea8;"/><path d="M628.291,902.356c-2.073,-0.597 -4.427,1.249 -5.254,4.119c-0.828,2.87 0.184,5.686 2.257,6.283c2.073,0.597 4.427,-1.248 5.254,-4.119c0.827,-2.87 -0.184,-5.685 -2.257,-6.283Z" style="fill:#f88ea8;"/></g></g></g><g id="Log"><path d="M1651.83,945.883l-0.019,-53.683l111.218,-0.038c28.727,0.005 28.745,53.688 0.019,53.683l-111.218,0.038Z" style="fill:#1e726e;"/><clipPath id="_clip7"><path d="M1651.83,945.883l-0.019,-53.683l111.218,-0.038c28.727,0.005 28.745,53.688 0.019,53.683l-111.218,0.038Z"/></clipPath><g clip-path="url(#_clip7)"><path d="M1651.84,972.725l-0.019,-53.683l149.273,-0.052l0.018,53.684l-149.272,0.051Z" style="fill:#16505e;"/></g><path d="M1624.26,918.971c0.005,14.771 12.332,26.758 27.51,26.753c15.177,-0.005 27.496,-12.001 27.491,-26.772c-0.005,-14.77 -12.332,-26.757 -27.51,-26.752c-15.177,0.005 -27.496,12.001 -27.491,26.771Z" style="fill:#1e726e;"/><path d="M1651.93,892.2l0.177,0.002l0.178,0.003l0.177,0.003l0.176,0.005l0.177,0.006l0.176,0.007l0.176,0.008l0.175,0.01l0.175,0.01l0.175,0.011l0.175,0.012l0.174,0.014l0.174,0.014l0.174,0.016l0.173,0.016l0.173,0.018l0.173,0.019l0.173,0.019l0.172,0.021l0.172,0.022l0.171,0.023l0.171,0.023l0.171,0.025l0.17,0.026l0.171,0.027l0.169,0.028l0.17,0.029l0.169,0.03l0.168,0.03l0.169,0.032l0.168,0.033l0.167,0.034l0.168,0.035l0.166,0.036l0.167,0.037l0.166,0.037l0.166,0.039l0.165,0.04l0.165,0.041l0.164,0.041l0.165,0.043l0.163,0.044l0.164,0.044l0.162,0.046l0.163,0.046l0.162,0.048l0.162,0.048l0.161,0.05l0.161,0.05l0.16,0.051l0.16,0.052l0.159,0.053l0.159,0.054l0.159,0.055l0.158,0.056l0.158,0.056l0.157,0.058l0.157,0.059l0.156,0.059l0.156,0.06l0.156,0.062l0.155,0.062l0.154,0.063l0.154,0.064l0.153,0.064l0.154,0.066l0.152,0.067l0.152,0.067l0.152,0.068l0.151,0.07l0.15,0.07l0.15,0.07l0.15,0.072l0.149,0.073l0.148,0.073l0.148,0.075l0.148,0.075l0.147,0.076l0.146,0.077l0.146,0.077l0.145,0.079l0.145,0.079l0.144,0.08l0.144,0.081l0.143,0.082l0.143,0.082l0.142,0.084l0.141,0.084l0.141,0.085l0.141,0.086l0.14,0.086l0.139,0.088l0.138,0.088l0.138,0.089l0.138,0.09l0.137,0.09l0.136,0.092l0.136,0.092l0.135,0.093l0.135,0.093l0.133,0.095l0.134,0.095l0.133,0.096l0.132,0.097l0.131,0.097l0.131,0.098l0.13,0.099l0.13,0.1l0.129,0.1l0.128,0.101l0.128,0.102l0.127,0.103l0.126,0.103l0.126,0.104l0.125,0.105l0.125,0.106l0.123,0.106l0.124,0.107l0.122,0.107l0.122,0.109l0.121,0.109l0.121,0.109l0.119,0.111l0.119,0.111l0.119,0.112l0.118,0.112l0.117,0.113l0.116,0.114l0.116,0.115l0.115,0.115l0.114,0.116l0.113,0.116l0.113,0.117l0.112,0.118l0.112,0.119l0.111,0.119l0.109,0.12l0.11,0.12l0.108,0.121l0.108,0.122l0.107,0.122l0.106,0.123l0.106,0.124l0.105,0.124l0.104,0.125l0.103,0.125l0.102,0.126l0.102,0.127l0.101,0.127l0.1,0.128l0.1,0.129l0.099,0.129l0.097,0.129l0.098,0.131l0.096,0.13l0.095,0.132l0.095,0.132l0.094,0.132l0.093,0.134l0.093,0.133l0.091,0.135l0.091,0.135l0.09,0.135l0.089,0.136l0.088,0.136l0.088,0.138l0.086,0.137l0.086,0.138l0.085,0.139l0.084,0.139l0.083,0.14l0.083,0.141l0.081,0.14l0.081,0.142l0.08,0.142l0.079,0.142l0.078,0.143l0.078,0.143l0.076,0.144l0.076,0.145l0.074,0.145l0.074,0.145l0.073,0.146l0.072,0.147l0.071,0.147l0.071,0.147l0.069,0.148l0.068,0.148l0.068,0.149l0.067,0.15l0.066,0.149l0.064,0.151l0.064,0.15l0.063,0.152l0.062,0.151l0.062,0.152l0.06,0.153l0.059,0.153l0.059,0.153l0.057,0.154l0.057,0.155l0.055,0.154l0.055,0.155l0.053,0.156l0.053,0.156l0.052,0.157l0.051,0.156l0.049,0.158l0.049,0.157l0.048,0.158l0.047,0.159l0.046,0.159l0.045,0.159l0.044,0.16l0.043,0.16l0.042,0.16l0.041,0.161l0.04,0.161l0.039,0.162l0.038,0.162l0.037,0.162l0.036,0.163l0.035,0.163l0.034,0.163l0.032,0.164l0.032,0.164l0.031,0.165l0.03,0.165l0.029,0.165l0.027,0.165l0.027,0.166l0.026,0.166l0.024,0.167l0.024,0.167l0.022,0.167l0.022,0.168l0.02,0.167l0.019,0.168l0.019,0.169l0.017,0.169l0.016,0.169l0.015,0.169l0.014,0.17l0.012,0.17l0.012,0.17l0.011,0.17l0.009,0.171l0.009,0.171l0.007,0.172l0.006,0.171l0.005,0.172l0.004,0.172l0.003,0.173l0.002,0.173l0.001,0.172l-0.001,0.173l-0.002,0.173l-0.002,0.173l-0.004,0.172l-0.005,0.172l-0.006,0.171l-0.007,0.172l-0.009,0.171l-0.009,0.171l-0.011,0.17l-0.011,0.17l-0.013,0.17l-0.014,0.17l-0.015,0.169l-0.016,0.169l-0.017,0.169l-0.018,0.169l-0.019,0.168l-0.02,0.168l-0.021,0.167l-0.023,0.167l-0.023,0.167l-0.025,0.167l-0.025,0.166l-0.027,0.166l-0.027,0.165l-0.029,0.165l-0.03,0.165l-0.03,0.165l-0.032,0.164l-0.033,0.164l-0.034,0.163l-0.034,0.163l-0.036,0.163l-0.037,0.162l-0.038,0.162l-0.039,0.162l-0.04,0.161l-0.041,0.161l-0.041,0.161l-0.043,0.16l-0.044,0.159l-0.045,0.16l-0.046,0.159l-0.047,0.158l-0.047,0.158l-0.049,0.158l-0.05,0.157l-0.051,0.157l-0.051,0.157l-0.053,0.156l-0.053,0.155l-0.055,0.156l-0.055,0.154l-0.057,0.155l-0.057,0.154l-0.058,0.153l-0.06,0.153l-0.06,0.153l-0.061,0.152l-0.062,0.152l-0.063,0.151l-0.064,0.151l-0.064,0.15l-0.066,0.15l-0.067,0.149l-0.067,0.149l-0.068,0.149l-0.07,0.148l-0.07,0.147l-0.071,0.147l-0.072,0.146l-0.073,0.146l-0.074,0.146l-0.074,0.145l-0.076,0.145l-0.076,0.144l-0.077,0.143l-0.078,0.143l-0.079,0.143l-0.08,0.141l-0.081,0.142l-0.081,0.141l-0.082,0.14l-0.084,0.14l-0.084,0.139l-0.085,0.139l-0.085,0.138l-0.087,0.138l-0.087,0.137l-0.088,0.137l-0.089,0.136l-0.09,0.135l-0.091,0.135l-0.091,0.135l-0.093,0.134l-0.093,0.133l-0.093,0.132l-0.095,0.133l-0.096,0.131l-0.096,0.131l-0.097,0.13l-0.098,0.13l-0.098,0.129l-0.1,0.129l-0.1,0.128l-0.101,0.127l-0.101,0.127l-0.103,0.126l-0.103,0.125l-0.104,0.125l-0.105,0.125l-0.105,0.123l-0.106,0.123l-0.107,0.123l-0.108,0.121l-0.108,0.122l-0.109,0.12l-0.11,0.12l-0.111,0.119l-0.111,0.119l-0.112,0.118l-0.113,0.117l-0.113,0.116l-0.115,0.116l-0.114,0.116l-0.116,0.114l-0.116,0.114l-0.117,0.113l-0.118,0.113l-0.118,0.112l-0.119,0.111l-0.12,0.11l-0.12,0.11l-0.122,0.109l-0.121,0.109l-0.123,0.107l-0.123,0.107l-0.124,0.107l-0.124,0.105l-0.125,0.105l-0.126,0.104l-0.126,0.104l-0.127,0.102l-0.128,0.102l-0.128,0.102l-0.129,0.1l-0.129,0.1l-0.131,0.099l-0.13,0.098l-0.132,0.098l-0.132,0.097l-0.132,0.096l-0.134,0.095l-0.134,0.094l-0.134,0.094l-0.135,0.093l-0.136,0.092l-0.136,0.092l-0.137,0.09l-0.137,0.09l-0.138,0.089l-0.139,0.089l-0.139,0.087l-0.14,0.087l-0.14,0.086l-0.141,0.085l-0.141,0.084l-0.142,0.084l-0.143,0.082l-0.143,0.082l-0.144,0.081l-0.144,0.081l-0.145,0.079l-0.145,0.079l-0.146,0.077l-0.146,0.077l-0.147,0.076l-0.147,0.076l-0.148,0.074l-0.149,0.073l-0.149,0.073l-0.149,0.072l-0.15,0.071l-0.151,0.07l-0.151,0.069l-0.151,0.069l-0.152,0.067l-0.153,0.067l-0.153,0.066l-0.153,0.065l-0.154,0.064l-0.155,0.063l-0.154,0.062l-0.156,0.061l-0.156,0.061l-0.156,0.059l-0.157,0.059l-0.157,0.058l-0.158,0.057l-0.158,0.055l-0.158,0.055l-0.159,0.055l-0.16,0.053l-0.16,0.052l-0.16,0.051l-0.161,0.051l-0.161,0.049l-0.161,0.048l-0.163,0.048l-0.162,0.047l-0.163,0.045l-0.163,0.045l-0.164,0.044l-0.164,0.042l-0.164,0.042l-0.165,0.041l-0.166,0.04l-0.165,0.039l-0.166,0.038l-0.167,0.037l-0.166,0.036l-0.168,0.035l-0.167,0.034l-0.168,0.033l-0.168,0.032l-0.169,0.031l-0.169,0.03l-0.17,0.029l-0.169,0.028l-0.17,0.027l-0.171,0.026l-0.171,0.025l-0.171,0.024l-0.171,0.023l-0.172,0.021l-0.172,0.021l-0.173,0.02l-0.172,0.019l-0.173,0.018l-0.174,0.016l-0.173,0.016l-0.175,0.014l-0.174,0.014l-0.174,0.012l-0.175,0.012l-0.176,0.01l-0.175,0.009l-0.176,0.009l-0.176,0.007l-0.176,0.006l-0.177,0.005l-0.177,0.004l-0.177,0.002l-0.178,0.002l-0.177,0.001l-0.178,-0.001l-0.178,-0.001l-0.177,-0.003l-0.177,-0.004l-0.176,-0.005l-0.177,-0.005l-0.176,-0.007l-0.176,-0.009l-0.175,-0.009l-0.175,-0.01l-0.175,-0.011l-0.175,-0.013l-0.174,-0.013l-0.174,-0.014l-0.174,-0.016l-0.173,-0.017l-0.174,-0.017l-0.172,-0.019l-0.173,-0.019l-0.172,-0.021l-0.172,-0.022l-0.171,-0.023l-0.171,-0.024l-0.171,-0.024l-0.171,-0.026l-0.17,-0.027l-0.169,-0.028l-0.17,-0.029l-0.169,-0.03l-0.169,-0.031l-0.168,-0.032l-0.168,-0.032l-0.167,-0.034l-0.168,-0.035l-0.167,-0.036l-0.166,-0.037l-0.166,-0.038l-0.166,-0.038l-0.165,-0.04l-0.165,-0.041l-0.165,-0.042l-0.164,-0.042l-0.163,-0.044l-0.164,-0.045l-0.163,-0.045l-0.162,-0.047l-0.162,-0.047l-0.162,-0.048l-0.161,-0.05l-0.161,-0.05l-0.16,-0.051l-0.16,-0.052l-0.16,-0.053l-0.159,-0.054l-0.158,-0.055l-0.158,-0.056l-0.158,-0.057l-0.157,-0.057l-0.157,-0.059l-0.156,-0.059l-0.156,-0.061l-0.156,-0.061l-0.155,-0.062l-0.154,-0.063l-0.154,-0.064l-0.154,-0.065l-0.153,-0.065l-0.152,-0.067l-0.152,-0.067l-0.152,-0.069l-0.151,-0.069l-0.15,-0.07l-0.15,-0.071l-0.15,-0.071l-0.149,-0.073l-0.148,-0.073l-0.148,-0.075l-0.148,-0.075l-0.147,-0.076l-0.146,-0.077l-0.146,-0.077l-0.145,-0.079l-0.145,-0.079l-0.144,-0.08l-0.144,-0.081l-0.143,-0.082l-0.143,-0.083l-0.142,-0.083l-0.142,-0.084l-0.14,-0.085l-0.141,-0.086l-0.14,-0.087l-0.139,-0.087l-0.139,-0.088l-0.138,-0.089l-0.137,-0.09l-0.137,-0.091l-0.136,-0.091l-0.136,-0.092l-0.135,-0.093l-0.135,-0.094l-0.134,-0.094l-0.133,-0.095l-0.133,-0.096l-0.132,-0.097l-0.131,-0.097l-0.131,-0.098l-0.13,-0.099l-0.13,-0.1l-0.129,-0.1l-0.128,-0.102l-0.128,-0.102l-0.127,-0.102l-0.126,-0.103l-0.126,-0.105l-0.125,-0.104l-0.125,-0.106l-0.124,-0.106l-0.123,-0.107l-0.122,-0.108l-0.122,-0.108l-0.121,-0.109l-0.121,-0.11l-0.119,-0.11l-0.12,-0.111l-0.118,-0.112l-0.118,-0.112l-0.117,-0.114l-0.116,-0.113l-0.116,-0.115l-0.115,-0.115l-0.114,-0.116l-0.114,-0.116l-0.112,-0.118l-0.113,-0.117l-0.111,-0.119l-0.111,-0.119l-0.11,-0.12l-0.109,-0.12l-0.108,-0.121l-0.108,-0.122l-0.107,-0.122l-0.106,-0.123l-0.106,-0.124l-0.105,-0.124l-0.104,-0.125l-0.103,-0.125l-0.103,-0.126l-0.101,-0.127l-0.101,-0.127l-0.1,-0.128l-0.1,-0.129l-0.099,-0.129l-0.098,-0.129l-0.097,-0.131l-0.096,-0.131l-0.095,-0.131l-0.095,-0.132l-0.094,-0.133l-0.093,-0.133l-0.093,-0.134l-0.091,-0.134l-0.091,-0.135l-0.09,-0.135l-0.089,-0.136l-0.088,-0.137l-0.088,-0.137l-0.086,-0.137l-0.086,-0.139l-0.085,-0.138l-0.084,-0.14l-0.083,-0.139l-0.083,-0.141l-0.082,-0.141l-0.08,-0.141l-0.08,-0.142l-0.079,-0.142l-0.078,-0.143l-0.078,-0.144l-0.076,-0.144l-0.076,-0.144l-0.074,-0.145l-0.074,-0.146l-0.073,-0.146l-0.072,-0.146l-0.071,-0.147l-0.071,-0.147l-0.069,-0.148l-0.069,-0.149l-0.067,-0.149l-0.067,-0.149l-0.066,-0.15l-0.064,-0.15l-0.064,-0.151l-0.063,-0.151l-0.063,-0.151l-0.061,-0.153l-0.06,-0.152l-0.059,-0.153l-0.059,-0.154l-0.057,-0.153l-0.057,-0.155l-0.055,-0.155l-0.055,-0.155l-0.054,-0.155l-0.052,-0.156l-0.052,-0.157l-0.051,-0.157l-0.05,-0.157l-0.048,-0.158l-0.048,-0.158l-0.047,-0.158l-0.046,-0.159l-0.045,-0.159l-0.044,-0.16l-0.043,-0.16l-0.042,-0.161l-0.041,-0.16l-0.04,-0.162l-0.039,-0.161l-0.038,-0.162l-0.037,-0.162l-0.036,-0.163l-0.035,-0.163l-0.034,-0.164l-0.033,-0.163l-0.031,-0.165l-0.031,-0.164l-0.03,-0.165l-0.029,-0.165l-0.028,-0.166l-0.026,-0.166l-0.026,-0.166l-0.024,-0.166l-0.024,-0.167l-0.022,-0.167l-0.022,-0.168l-0.02,-0.168l-0.019,-0.168l-0.019,-0.168l-0.017,-0.169l-0.016,-0.169l-0.015,-0.169l-0.014,-0.17l-0.013,-0.17l-0.011,-0.17l-0.011,-0.171l-0.009,-0.17l-0.009,-0.171l-0.007,-0.172l-0.006,-0.171l-0.005,-0.172l-0.004,-0.173l-0.003,-0.172l-0.002,-0.173l-0.001,-0.173l0.001,-0.173l0.001,-0.172l0.003,-0.173l0.004,-0.172l0.005,-0.172l0.006,-0.172l0.007,-0.171l0.009,-0.171l0.009,-0.171l0.011,-0.17l0.011,-0.171l0.013,-0.17l0.014,-0.169l0.014,-0.17l0.016,-0.169l0.017,-0.168l0.019,-0.169l0.019,-0.168l0.02,-0.168l0.021,-0.167l0.023,-0.167l0.023,-0.167l0.024,-0.167l0.026,-0.166l0.027,-0.166l0.027,-0.165l0.029,-0.166l0.03,-0.165l0.03,-0.164l0.032,-0.164l0.033,-0.164l0.034,-0.163l0.034,-0.164l0.036,-0.162l0.037,-0.163l0.038,-0.162l0.039,-0.161l0.04,-0.162l0.041,-0.16l0.041,-0.161l0.043,-0.16l0.044,-0.16l0.045,-0.159l0.046,-0.159l0.047,-0.158l0.047,-0.159l0.049,-0.157l0.05,-0.158l0.05,-0.156l0.052,-0.157l0.053,-0.156l0.053,-0.156l0.055,-0.155l0.055,-0.155l0.057,-0.154l0.057,-0.154l0.058,-0.153l0.059,-0.153l0.061,-0.153l0.061,-0.152l0.062,-0.152l0.063,-0.151l0.063,-0.151l0.065,-0.15l0.066,-0.15l0.066,-0.149l0.068,-0.149l0.068,-0.149l0.07,-0.148l0.07,-0.147l0.071,-0.147l0.072,-0.147l0.073,-0.146l0.073,-0.145l0.075,-0.145l0.075,-0.145l0.077,-0.144l0.077,-0.143l0.078,-0.143l0.079,-0.143l0.08,-0.142l0.081,-0.141l0.081,-0.141l0.082,-0.14l0.084,-0.14l0.084,-0.14l0.084,-0.138l0.086,-0.139l0.087,-0.137l0.087,-0.138l0.088,-0.136l0.089,-0.136l0.09,-0.136l0.091,-0.135l0.091,-0.134l0.092,-0.134l0.093,-0.133l0.094,-0.133l0.095,-0.132l0.095,-0.131l0.097,-0.131l0.097,-0.13l0.098,-0.13l0.098,-0.129l0.099,-0.129l0.101,-0.128l0.1,-0.127l0.102,-0.127l0.103,-0.126l0.103,-0.126l0.104,-0.125l0.104,-0.124l0.106,-0.123l0.106,-0.123l0.107,-0.123l0.108,-0.122l0.108,-0.121l0.109,-0.12l0.11,-0.12l0.111,-0.119l0.111,-0.119l0.112,-0.118l0.113,-0.117l0.113,-0.117l0.114,-0.116l0.115,-0.115l0.116,-0.114l0.116,-0.114l0.117,-0.113l0.118,-0.113l0.118,-0.112l0.119,-0.111l0.12,-0.111l0.12,-0.109l0.121,-0.11l0.122,-0.108l0.123,-0.108l0.123,-0.107l0.123,-0.106l0.125,-0.106l0.125,-0.104l0.126,-0.105l0.126,-0.103l0.127,-0.103l0.128,-0.102l0.128,-0.101l0.129,-0.1l0.129,-0.1l0.13,-0.099l0.131,-0.099l0.132,-0.097l0.132,-0.097l0.132,-0.096l0.134,-0.095l0.133,-0.095l0.135,-0.093l0.135,-0.093l0.136,-0.093l0.136,-0.091l0.137,-0.091l0.137,-0.089l0.138,-0.09l0.139,-0.088l0.139,-0.087l0.14,-0.087l0.14,-0.086l0.141,-0.085l0.141,-0.084l0.142,-0.084l0.143,-0.083l0.143,-0.081l0.144,-0.082l0.144,-0.08l0.145,-0.079l0.145,-0.079l0.146,-0.078l0.146,-0.076l0.147,-0.077l0.147,-0.075l0.148,-0.074l0.149,-0.074l0.149,-0.072l0.149,-0.072l0.15,-0.071l0.151,-0.07l0.151,-0.07l0.151,-0.068l0.152,-0.068l0.153,-0.066l0.153,-0.066l0.153,-0.065l0.154,-0.064l0.154,-0.063l0.155,-0.062l0.156,-0.062l0.155,-0.06l0.157,-0.06l0.157,-0.058l0.157,-0.058l0.157,-0.057l0.159,-0.056l0.158,-0.055l0.159,-0.054l0.16,-0.053l0.159,-0.052l0.161,-0.051l0.161,-0.051l0.161,-0.049l0.161,-0.049l0.162,-0.047l0.163,-0.047l0.163,-0.045l0.163,-0.045l0.164,-0.044l0.164,-0.043l0.164,-0.042l0.165,-0.04l0.165,-0.04l0.166,-0.039l0.166,-0.038l0.167,-0.037l0.166,-0.036l0.168,-0.035l0.167,-0.034l0.168,-0.033l0.168,-0.032l0.169,-0.031l0.169,-0.03l0.169,-0.029l0.17,-0.028l0.17,-0.027l0.171,-0.026l0.17,-0.025l0.172,-0.024l0.171,-0.023l0.172,-0.022l0.172,-0.02l0.172,-0.02l0.173,-0.019l0.173,-0.018l0.174,-0.016l0.173,-0.016l0.174,-0.015l0.175,-0.013l0.174,-0.013l0.175,-0.011l0.176,-0.01l0.175,-0.01l0.176,-0.008l0.176,-0.007l0.176,-0.006l0.177,-0.005l0.177,-0.004l0.177,-0.003l0.178,-0.001l0.177,-0.001l0.178,0Zm-0.312,6.501l-0.139,0.001l-0.139,0.002l-0.133,0.003l-0.138,0.004l-0.138,0.005l-0.132,0.005l-0.137,0.006l-0.137,0.008l-0.137,0.008l-0.136,0.008l-0.129,0.01l-0.135,0.01l-0.142,0.012l-0.128,0.011l-0.128,0.013l-0.14,0.014l-0.133,0.015l-0.134,0.015l-0.131,0.016l-0.126,0.016l-0.139,0.019l-0.131,0.018l-0.13,0.019l-0.13,0.02l-0.132,0.021l-0.129,0.021l-0.129,0.022l-0.135,0.024l-0.13,0.024l-0.127,0.024l-0.127,0.025l-0.128,0.026l-0.125,0.026l-0.134,0.029l-0.127,0.028l-0.124,0.029l-0.13,0.03l-0.125,0.03l-0.133,0.033l-0.123,0.031l-0.122,0.032l-0.129,0.035l-0.123,0.033l-0.127,0.036l-0.123,0.035l-0.122,0.036l-0.132,0.04l-0.119,0.036l-0.12,0.038l-0.127,0.04l-0.118,0.039l-0.123,0.041l-0.125,0.043l-0.119,0.041l-0.121,0.042l-0.123,0.045l-0.118,0.043l-0.121,0.046l-0.121,0.045l-0.12,0.047l-0.119,0.047l-0.116,0.047l-0.119,0.048l-0.118,0.049l-0.12,0.051l-0.115,0.049l-0.119,0.053l-0.117,0.051l-0.11,0.05l-0.116,0.053l-0.12,0.057l-0.118,0.055l-0.106,0.051l-0.114,0.056l-0.118,0.058l-0.113,0.057l-0.113,0.057l-0.111,0.058l-0.112,0.059l-0.111,0.059l-0.111,0.06l-0.112,0.062l-0.11,0.061l-0.112,0.063l-0.106,0.061l-0.105,0.061l-0.116,0.068l-0.108,0.064l-0.104,0.063l-0.108,0.067l-0.111,0.068l-0.106,0.067l-0.105,0.067l-0.105,0.067l-0.101,0.067l-0.11,0.073l-0.103,0.069l-0.103,0.07l-0.104,0.071l-0.099,0.069l-0.106,0.075l-0.105,0.075l-0.098,0.071l-0.097,0.071l-0.108,0.08l-0.096,0.072l-0.095,0.073l-0.107,0.082l-0.094,0.073l-0.102,0.081l-0.097,0.078l-0.093,0.075l-0.097,0.079l-0.096,0.079l-0.099,0.083l-0.095,0.081l-0.09,0.077l-0.094,0.082l-0.097,0.086l-0.089,0.079l-0.096,0.086l-0.092,0.084l-0.088,0.081l-0.094,0.088l-0.09,0.085l-0.086,0.083l-0.089,0.086l-0.096,0.093l-0.084,0.084l-0.084,0.085l-0.091,0.091l-0.086,0.089l-0.086,0.089l-0.085,0.09l-0.085,0.09l-0.084,0.091l-0.083,0.091l-0.084,0.092l-0.082,0.091l-0.081,0.093l-0.082,0.093l-0.081,0.094l-0.08,0.094l-0.079,0.094l-0.079,0.095l-0.078,0.095l-0.079,0.096l-0.08,0.1l-0.076,0.096l-0.073,0.094l-0.076,0.098l-0.074,0.097l-0.075,0.099l-0.073,0.099l-0.072,0.098l-0.077,0.105l-0.071,0.1l-0.066,0.092l-0.073,0.105l-0.073,0.106l-0.065,0.096l-0.07,0.103l-0.071,0.108l-0.064,0.097l-0.064,0.1l-0.071,0.111l-0.065,0.104l-0.063,0.101l-0.067,0.11l-0.063,0.105l-0.058,0.097l-0.062,0.106l-0.066,0.115l-0.061,0.106l-0.059,0.104l-0.059,0.108l-0.058,0.106l-0.061,0.113l-0.058,0.109l-0.054,0.104l-0.058,0.112l-0.057,0.113l-0.052,0.104l-0.055,0.111l-0.055,0.114l-0.049,0.104l-0.053,0.114l-0.055,0.118l-0.049,0.108l-0.048,0.11l-0.053,0.119l-0.047,0.108l-0.045,0.109l-0.052,0.123l-0.047,0.116l-0.044,0.11l-0.045,0.112l-0.043,0.113l-0.044,0.117l-0.044,0.117l-0.044,0.12l-0.04,0.112l-0.04,0.113l-0.042,0.121l-0.038,0.116l-0.041,0.121l-0.037,0.114l-0.036,0.115l-0.038,0.123l-0.035,0.117l-0.035,0.118l-0.035,0.122l-0.033,0.119l-0.033,0.118l-0.033,0.124l-0.031,0.119l-0.031,0.12l-0.029,0.12l-0.029,0.12l-0.028,0.119l-0.028,0.122l-0.028,0.129l-0.026,0.12l-0.024,0.116l-0.026,0.129l-0.023,0.122l-0.022,0.119l-0.024,0.13l-0.021,0.124l-0.02,0.118l-0.021,0.131l-0.019,0.125l-0.018,0.12l-0.017,0.126l-0.017,0.126l-0.017,0.128l-0.015,0.127l-0.014,0.121l-0.013,0.128l-0.013,0.128l-0.012,0.122l-0.011,0.13l-0.011,0.129l-0.009,0.13l-0.009,0.131l-0.008,0.124l-0.007,0.125l-0.006,0.132l-0.006,0.131l-0.004,0.126l-0.004,0.133l-0.003,0.133l-0.002,0.12l-0.001,0.134l-0.001,0.134l0.001,0.128l0.001,0.134l0.002,0.127l0.003,0.126l0.004,0.133l0.01,0.258l0.014,0.262l0.016,0.249l0.021,0.259l0.023,0.258l0.027,0.25l0.029,0.248l0.033,0.254l0.036,0.252l0.04,0.25l0.02,0.118l0.045,0.254l0.047,0.247l0.024,0.122l0.024,0.116l0.055,0.25l0.055,0.241l0.061,0.246l0.061,0.238l0.065,0.237l0.069,0.243l0.071,0.237l0.037,0.119l0.036,0.114l0.037,0.114l0.081,0.244l0.039,0.113l0.083,0.232l0.086,0.232l0.088,0.229l0.093,0.234l0.045,0.11l0.098,0.232l0.046,0.108l0.101,0.227l0.049,0.11l0.105,0.224l0.106,0.22l0.108,0.218l0.114,0.223l0.116,0.22l0.116,0.213l0.058,0.106l0.123,0.216l0.061,0.106l0.125,0.211l0.126,0.207l0.133,0.213l0.132,0.206l0.135,0.204l0.07,0.104l0.138,0.202l0.072,0.102l0.145,0.204l0.14,0.191l0.15,0.2l0.151,0.196l0.153,0.193l0.077,0.097l0.156,0.191l0.159,0.189l0.164,0.191l0.078,0.089l0.164,0.185l0.167,0.182l0.172,0.185l0.165,0.172l0.18,0.183l0.172,0.172l0.178,0.173l0.183,0.174l0.179,0.165l0.187,0.17l0.09,0.08l0.191,0.166l0.189,0.162l0.192,0.159l0.092,0.076l0.202,0.162l0.095,0.075l0.197,0.152l0.199,0.15l0.201,0.148l0.207,0.149l0.098,0.069l0.206,0.143l0.211,0.142l0.206,0.136l0.212,0.135l0.217,0.135l0.104,0.064l0.222,0.133l0.105,0.062l0.215,0.123l0.224,0.126l0.226,0.123l0.106,0.056l0.229,0.119l0.109,0.056l0.108,0.054l0.235,0.116l0.227,0.107l0.233,0.108l0.116,0.052l0.234,0.103l0.111,0.048l0.245,0.102l0.113,0.046l0.241,0.096l0.12,0.046l0.114,0.044l0.245,0.091l0.118,0.042l0.243,0.085l0.119,0.04l0.252,0.083l0.118,0.038l0.119,0.037l0.253,0.077l0.25,0.072l0.121,0.034l0.251,0.067l0.255,0.066l0.254,0.062l0.125,0.029l0.125,0.029l0.126,0.027l0.26,0.056l0.262,0.052l0.127,0.024l0.128,0.023l0.129,0.023l0.13,0.022l0.13,0.022l0.129,0.02l0.131,0.02l0.268,0.038l0.127,0.017l0.131,0.016l0.272,0.032l0.127,0.014l0.134,0.014l0.134,0.012l0.276,0.024l0.123,0.01l0.278,0.018l0.136,0.008l0.131,0.007l0.275,0.012l0.132,0.004l0.138,0.004l0.139,0.003l0.133,0.002l0.28,0.002l0.133,-0.001l0.14,-0.001l0.133,-0.002l0.139,-0.003l0.138,-0.004l0.138,-0.005l0.138,-0.005l0.131,-0.006l0.137,-0.008l0.136,-0.008l0.13,-0.008l0.136,-0.01l0.142,-0.011l0.129,-0.011l0.133,-0.012l0.135,-0.013l0.127,-0.013l0.14,-0.015l0.133,-0.015l0.133,-0.016l0.131,-0.017l0.125,-0.017l0.139,-0.019l0.131,-0.019l0.13,-0.02l0.129,-0.021l0.131,-0.021l0.136,-0.023l0.122,-0.022l0.128,-0.024l0.136,-0.025l0.126,-0.025l0.133,-0.027l0.128,-0.027l0.12,-0.026l0.131,-0.029l0.132,-0.03l0.126,-0.03l0.123,-0.029l0.125,-0.031l0.13,-0.034l0.129,-0.033l0.123,-0.033l0.123,-0.034l0.123,-0.034l0.127,-0.036l0.126,-0.037l0.121,-0.037l0.127,-0.039l0.119,-0.037l0.119,-0.038l0.132,-0.043l0.125,-0.042l0.118,-0.04l0.116,-0.04l0.125,-0.044l0.121,-0.044l0.116,-0.042l0.123,-0.047l0.12,-0.045l0.12,-0.047l0.122,-0.048l0.114,-0.046l0.118,-0.048l0.119,-0.049l0.117,-0.05l0.12,-0.052l0.112,-0.048l0.116,-0.052l0.122,-0.055l0.115,-0.053l0.11,-0.051l0.114,-0.054l0.12,-0.058l0.114,-0.055l0.108,-0.054l0.113,-0.057l0.117,-0.06l0.112,-0.058l0.112,-0.058l0.116,-0.062l0.111,-0.06l0.105,-0.058l0.11,-0.061l0.111,-0.063l0.114,-0.065l0.109,-0.063l0.104,-0.062l0.108,-0.063l0.107,-0.065l0.111,-0.069l0.107,-0.065l0.102,-0.065l0.107,-0.068l0.109,-0.071l0.105,-0.068l0.1,-0.067l0.108,-0.072l0.103,-0.07l0.104,-0.071l0.107,-0.075l0.098,-0.069l0.098,-0.07l0.105,-0.076l0.101,-0.074l0.099,-0.074l0.104,-0.078l0.096,-0.073l0.095,-0.073l0.105,-0.082l0.099,-0.078l0.09,-0.072l0.104,-0.084l0.1,-0.082l0.085,-0.07l0.095,-0.08l0.103,-0.087l0.094,-0.081l0.09,-0.078l0.093,-0.083l0.1,-0.089l0.089,-0.079l0.088,-0.081l0.095,-0.087l0.091,-0.085l0.087,-0.082l0.089,-0.086l0.096,-0.093l0.085,-0.083l0.085,-0.084l0.091,-0.091l0.086,-0.088l0.087,-0.089l0.086,-0.089l0.085,-0.09l0.085,-0.09l0.084,-0.091l0.083,-0.091l0.08,-0.088l0.086,-0.096l0.085,-0.096l0.078,-0.09l0.077,-0.089l0.083,-0.098l0.083,-0.098l0.076,-0.091l0.082,-0.1l0.074,-0.091l0.075,-0.093l0.079,-0.1l0.076,-0.097l0.078,-0.101l0.075,-0.099l0.072,-0.094l0.073,-0.099l0.073,-0.099l0.072,-0.1l0.073,-0.101l0.07,-0.099l0.073,-0.105l0.07,-0.102l0.067,-0.098l0.069,-0.102l0.067,-0.102l0.067,-0.102l0.067,-0.103l0.067,-0.105l0.068,-0.109l0.062,-0.099l0.063,-0.105l0.067,-0.11l0.06,-0.101l0.065,-0.11l0.06,-0.104l0.057,-0.101l0.065,-0.116l0.06,-0.107l0.059,-0.108l0.058,-0.108l0.053,-0.101l0.057,-0.109l0.061,-0.118l0.056,-0.11l0.052,-0.105l0.054,-0.111l0.054,-0.111l0.055,-0.114l0.052,-0.112l0.049,-0.107l0.051,-0.113l0.052,-0.116l0.047,-0.107l0.049,-0.115l0.05,-0.116l0.044,-0.107l0.048,-0.118l0.048,-0.118l0.043,-0.11l0.045,-0.117l0.043,-0.111l0.042,-0.114l0.046,-0.126l0.041,-0.114l0.039,-0.112l0.041,-0.119l0.039,-0.116l0.04,-0.12l0.037,-0.116l0.037,-0.116l0.038,-0.121l0.035,-0.117l0.036,-0.122l0.034,-0.118l0.033,-0.119l0.033,-0.118l0.032,-0.119l0.032,-0.124l0.03,-0.12l0.03,-0.12l0.029,-0.119l0.028,-0.121l0.029,-0.129l0.027,-0.12l0.024,-0.115l0.027,-0.129l0.025,-0.123l0.022,-0.116l0.024,-0.129l0.023,-0.125l0.02,-0.118l0.022,-0.131l0.02,-0.124l0.018,-0.119l0.019,-0.126l0.017,-0.126l0.017,-0.127l0.016,-0.126l0.016,-0.127l0.014,-0.122l0.013,-0.128l0.013,-0.129l0.012,-0.129l0.012,-0.129l0.01,-0.123l0.009,-0.124l0.009,-0.13l0.008,-0.13l0.007,-0.125l0.006,-0.131l0.006,-0.133l0.004,-0.132l0.004,-0.126l0.003,-0.127l0.002,-0.133l0.001,-0.127l0.001,-0.128l-0.001,-0.134l-0.001,-0.134l-0.002,-0.127l-0.003,-0.126l-0.004,-0.133l-0.005,-0.133l-0.006,-0.131l-0.006,-0.126l-0.007,-0.124l-0.008,-0.131l-0.009,-0.13l-0.009,-0.124l-0.011,-0.13l-0.011,-0.128l-0.012,-0.122l-0.013,-0.129l-0.014,-0.128l-0.014,-0.128l-0.015,-0.121l-0.016,-0.127l-0.018,-0.132l-0.017,-0.12l-0.019,-0.126l-0.019,-0.125l-0.019,-0.119l-0.022,-0.131l-0.021,-0.124l-0.022,-0.117l-0.024,-0.13l-0.024,-0.123l-0.023,-0.116l-0.027,-0.129l-0.026,-0.122l-0.025,-0.114l-0.029,-0.127l-0.03,-0.129l-0.028,-0.114l-0.029,-0.117l-0.032,-0.126l-0.032,-0.121l-0.031,-0.117l-0.033,-0.118l-0.035,-0.125l-0.033,-0.116l-0.035,-0.118l-0.038,-0.123l-0.035,-0.115l-0.036,-0.114l-0.041,-0.124l-0.037,-0.114l-0.039,-0.114l-0.041,-0.121l-0.043,-0.12l-0.041,-0.115l-0.04,-0.109l-0.045,-0.12l-0.045,-0.119l-0.044,-0.114l-0.045,-0.113l-0.045,-0.112l-0.047,-0.115l-0.045,-0.109l-0.049,-0.115l-0.05,-0.116l-0.049,-0.111l-0.053,-0.119l-0.05,-0.11l-0.05,-0.109l-0.052,-0.109l-0.052,-0.109l-0.056,-0.117l-0.053,-0.108l-0.056,-0.11l-0.055,-0.11l-0.057,-0.11l-0.057,-0.109l-0.055,-0.103l-0.061,-0.114l-0.059,-0.108l-0.057,-0.102l-0.063,-0.112l-0.061,-0.107l-0.058,-0.101l-0.066,-0.111l-0.062,-0.105l-0.064,-0.105l-0.067,-0.11l-0.062,-0.101l-0.063,-0.099l-0.066,-0.103l-0.069,-0.108l-0.071,-0.107l-0.065,-0.099l-0.065,-0.097l-0.073,-0.106l-0.07,-0.102l-0.067,-0.096l-0.075,-0.105l-0.072,-0.1l-0.072,-0.1l-0.072,-0.098l-0.071,-0.095l-0.078,-0.103l-0.075,-0.098l-0.072,-0.094l-0.082,-0.104l-0.077,-0.097l-0.071,-0.088l-0.081,-0.099l-0.078,-0.096l-0.076,-0.091l-0.083,-0.098l-0.08,-0.094l-0.081,-0.094l-0.081,-0.092l-0.082,-0.093l-0.086,-0.095l-0.079,-0.088l-0.084,-0.092l-0.084,-0.09l-0.085,-0.09l-0.089,-0.093l-0.082,-0.086l-0.087,-0.089l-0.09,-0.092l-0.084,-0.084l-0.088,-0.087l-0.089,-0.087l-0.093,-0.089l-0.089,-0.086l-0.087,-0.082l-0.09,-0.084l-0.092,-0.084l-0.095,-0.087l-0.093,-0.084l-0.089,-0.079l-0.094,-0.082l-0.097,-0.085l-0.094,-0.081l-0.095,-0.08l-0.092,-0.077l-0.096,-0.079l-0.104,-0.085l-0.093,-0.076l-0.093,-0.074l-0.102,-0.08l-0.098,-0.077l-0.1,-0.076l-0.099,-0.076l-0.1,-0.074l-0.096,-0.072l-0.106,-0.077l-0.101,-0.073l-0.101,-0.072l-0.107,-0.076l-0.099,-0.069l-0.105,-0.072l-0.1,-0.068l-0.105,-0.07l-0.108,-0.072l-0.102,-0.066l-0.105,-0.068l-0.109,-0.069l-0.108,-0.068l-0.101,-0.063l-0.112,-0.068l-0.109,-0.066l-0.102,-0.061l-0.113,-0.066l-0.106,-0.061l-0.109,-0.062l-0.117,-0.066l-0.107,-0.06l-0.11,-0.06l-0.111,-0.06l-0.108,-0.058l-0.115,-0.059l-0.117,-0.061l-0.11,-0.056l-0.113,-0.057l-0.116,-0.057l-0.113,-0.056l-0.112,-0.053l-0.118,-0.056l-0.114,-0.053l-0.114,-0.052l-0.118,-0.054l-0.111,-0.049l-0.117,-0.051l-0.126,-0.053l-0.117,-0.05l-0.11,-0.046l-0.122,-0.049l-0.121,-0.049l-0.111,-0.044l-0.121,-0.046l-0.128,-0.049l-0.118,-0.044l-0.115,-0.042l-0.128,-0.046l-0.116,-0.042l-0.119,-0.041l-0.125,-0.042l-0.122,-0.04l-0.126,-0.042l-0.12,-0.038l-0.125,-0.039l-0.121,-0.037l-0.122,-0.036l-0.132,-0.039l-0.121,-0.035l-0.122,-0.034l-0.129,-0.035l-0.122,-0.033l-0.124,-0.032l-0.131,-0.033l-0.123,-0.031l-0.125,-0.029l-0.132,-0.031l-0.125,-0.029l-0.131,-0.029l-0.127,-0.027l-0.127,-0.027l-0.128,-0.026l-0.127,-0.024l-0.133,-0.026l-0.129,-0.023l-0.13,-0.023l-0.129,-0.022l-0.129,-0.021l-0.137,-0.022l-0.13,-0.02l-0.125,-0.018l-0.132,-0.018l-0.138,-0.019l-0.131,-0.016l-0.126,-0.016l-0.134,-0.015l-0.14,-0.015l-0.133,-0.014l-0.128,-0.012l-0.135,-0.012l-0.135,-0.011l-0.135,-0.01l-0.136,-0.01l-0.129,-0.008l-0.137,-0.008l-0.143,-0.008l-0.131,-0.006l-0.132,-0.005l-0.138,-0.005l-0.138,-0.003l-0.139,-0.003l-0.139,-0.002l-0.134,-0.002l-0.134,0l-0.14,0.001Z" style="fill:#16505e;"/><path d="M1735.59,919.131c0.005,14.77 12.332,26.757 27.509,26.752c15.178,-0.005 27.496,-12.001 27.491,-26.771c-0.005,-14.77 -12.331,-26.758 -27.509,-26.753c-15.178,0.006 -27.496,12.001 -27.491,26.772Z" style="fill:#1e726e;"/><clipPath id="_clip8"><path d="M1735.59,919.131c0.005,14.77 12.332,26.757 27.509,26.752c15.178,-0.005 27.496,-12.001 27.491,-26.771c-0.005,-14.77 -12.331,-26.758 -27.509,-26.753c-15.178,0.006 -27.496,12.001 -27.491,26.772Z"/></clipPath><g clip-path="url(#_clip8)"><path d="M1591.84,972.725l-0.019,-53.683l223.48,-0.077l0.018,53.683l-223.479,0.077Z" style="fill:#16505e;"/></g><path d="M1639.91,918.966c0.003,6.585 5.338,11.93 11.907,11.927c6.57,-0.002 11.901,-5.35 11.899,-11.935c-0.002,-6.585 -5.337,-11.93 -11.907,-11.928c-6.569,0.003 -11.901,5.351 -11.899,11.936Z" style="fill:#16505e;"/></g><g id="Chest"><rect x="1112.04" y="877.267" width="107.964" height="61.303" style="fill:#cacaaf;"/><rect x="1124.87" y="877.267" width="82.295" height="49.081" style="fill:#f88ea8;"/><rect x="1112.04" y="829.813" width="107.964" height="66.141" style="fill:#fff8b8;"/><rect x="1112.04" y="846.929" width="107.964" height="49.025" style="fill:#d3d4b9;"/><rect x="1152.59" y="891.116" width="26.867" height="16.803" style="fill:#f9e99b;"/><rect x="1112.04" y="829.813" width="12.834" height="66.141" style="fill:#f9e99b;"/><rect x="1159.6" y="829.813" width="12.834" height="66.141" style="fill:#f9e99b;"/><rect x="1207.17" y="829.813" width="12.834" height="66.141" style="fill:#f9e99b;"/><path d="M1112.04,883.119l0,12.835l107.964,0l0,-12.835l-107.964,0Z" style="fill:#f9e99b;"/></g><g id="Sign"><rect x="582.104" y="868.87" width="61.316" height="40.571" style="fill:#cacaaf;"/><rect x="589.449" y="868.87" width="61.316" height="40.571" style="fill:#d3d4b9;"/><rect x="608.511" y="909.442" width="8.241" height="22.554" style="fill:#cacaaf;"/><rect x="614.314" y="909.442" width="8.241" height="30.429" style="fill:#d3d4b9;"/><rect x="596.138" y="876.477" width="47.938" height="25.357" style="fill:#f88ea8;"/></g><path id="Rock" d="M1260.67,944.741c0,0 24.307,-33.943 32.599,-45.523c1.783,-2.489 4.262,-4.394 7.126,-5.476c8.247,-3.116 26.031,-9.834 35.078,-13.252c3.562,-1.345 7.494,-1.333 11.047,0.034c14.75,5.676 54.673,21.038 64.857,24.957c1.583,0.609 3.056,1.474 4.359,2.56c8.789,7.326 44.032,36.7 44.032,36.7l-199.098,0Z" style="fill:#d3d4b9;"/><clipPath id="_clip9"><path d="M1260.67,944.741c0,0 24.307,-33.943 32.599,-45.523c1.783,-2.489 4.262,-4.394 7.126,-5.476c8.247,-3.116 26.031,-9.834 35.078,-13.252c3.562,-1.345 7.494,-1.333 11.047,0.034c14.75,5.676 54.673,21.038 64.857,24.957c1.583,0.609 3.056,1.474 4.359,2.56c8.789,7.326 44.032,36.7 44.032,36.7l-199.098,0Z"/></clipPath><g clip-path="url(#_clip9)"><path d="M1325.27,871.401c0,0 12.553,17.854 18.907,26.89c1.992,2.833 1.339,6.742 -1.467,8.774c-5.892,4.267 -15.462,11.197 -20.534,14.869c-2.064,1.495 -3.031,4.081 -2.455,6.564c1.805,7.775 5.549,23.903 5.549,23.903l-74.5,5l6,-90l68.5,4Z" style="fill:#cacaaf;"/></g><path id="Big-Boi-Rock" serif:id="Big Boi Rock" d="M362.765,953.66l0,-55.099c0,-2.712 1.096,-5.308 3.04,-7.199c6.956,-6.768 23.965,-23.317 30.92,-30.085c1.944,-1.891 3.04,-4.487 3.04,-7.199c0,-8.333 0,-27.046 0,-38.714c0,-2.664 1.058,-5.219 2.942,-7.103c1.884,-1.883 4.438,-2.941 7.102,-2.941l37.696,0c3.832,0 7.33,2.18 9.017,5.62c5.688,11.595 18.503,37.717 22.216,45.287c0.676,1.377 1.027,2.89 1.027,4.424c0,9.112 0,42.296 0,51.991c0,1.755 0.459,3.478 1.332,4.999c4.764,8.302 20.668,36.019 20.668,36.019l-139,0Z" style="fill:#d3d4b9;"/><clipPath id="_clip10"><path d="M362.765,953.66l0,-55.099c0,-2.712 1.096,-5.308 3.04,-7.199c6.956,-6.768 23.965,-23.317 30.92,-30.085c1.944,-1.891 3.04,-4.487 3.04,-7.199c0,-8.333 0,-27.046 0,-38.714c0,-2.664 1.058,-5.219 2.942,-7.103c1.884,-1.883 4.438,-2.941 7.102,-2.941l37.696,0c3.832,0 7.33,2.18 9.017,5.62c5.688,11.595 18.503,37.717 22.216,45.287c0.676,1.377 1.027,2.89 1.027,4.424c0,9.112 0,42.296 0,51.991c0,1.755 0.459,3.478 1.332,4.999c4.764,8.302 20.668,36.019 20.668,36.019l-139,0Z"/></clipPath><g clip-path="url(#_clip10)"><path d="M410.765,805.32c0,0 20.115,38.074 26.247,49.681c1.066,2.018 0.844,4.475 -0.566,6.27c-6.309,8.029 -23.671,30.127 -29.062,36.988c-1.029,1.31 -1.443,2.999 -1.136,4.636c1.998,10.658 9.517,50.765 9.517,50.765l-73,17.66l-2,-147l61,-36l9,17Z" style="fill:#cacaaf;"/></g><g><rect x="1058.68" y="921.173" width="5.38" height="17.468" style="fill:#16505e;"/><circle cx="1061.37" cy="917.351" r="6.807" style="fill:#f9e99b;stroke:#fff;stroke-width:4px;"/></g><g><rect x="1467.61" y="921.126" width="5.38" height="17.468" style="fill:#16505e;"/><circle cx="1470.3" cy="917.304" r="6.807" style="fill:#f9e99b;stroke:#fff;stroke-width:4px;"/></g><g><rect x="1979.65" y="929.351" width="5.38" height="17.468" style="fill:#16505e;"/><circle cx="1982.34" cy="925.529" r="6.807" style="fill:#f9e99b;stroke:#fff;stroke-width:4px;"/></g><rect x="475.765" y="946.66" width="1541" height="24.34" style="fill:#a7d18d;"/><g><rect x="1832.12" y="894.652" width="5.476" height="40.161" style="fill:#16505e;"/><rect x="1821.36" y="907.105" width="5.476" height="40.161" style="fill:#16505e;"/><path d="M1838.51,887.172c0,-1.007 -0.818,-1.825 -1.826,-1.825l-3.651,0c-1.007,0 -1.825,0.818 -1.825,1.825l0,7.48c0,1.008 0.818,1.826 1.825,1.826l3.651,0c1.008,0 1.826,-0.818 1.826,-1.826l0,-7.48Z" style="fill:#f9e99b;"/></g><g><rect x="676.655" y="902.533" width="5.476" height="40.161" style="fill:#16505e;"/><rect x="687.416" y="914.985" width="5.476" height="40.161" style="fill:#16505e;"/></g><path d="M2077.76,981c0,-9.198 -3.654,-18.019 -10.157,-24.523c-6.504,-6.504 -15.325,-10.157 -24.523,-10.157c-33.632,0 -78.806,0 -149.399,0c-10.464,0 -31.268,-20 -42.39,-20l-117.921,0c-13.178,0 -36.616,30 -50.296,30l-155.197,0c-15.944,0 -32.065,-18 -48.339,-18l-439.314,0c-14.227,0 -28.366,18 -42.399,18l-241.654,0c-16.412,0 -32.563,-24 -48.421,-24l-129.368,0c-17.104,0 -23.623,14 -39.497,14l-203.445,0c-9.198,0 -18.019,3.653 -24.522,10.157c-6.504,6.504 -10.158,15.325 -10.158,24.523c0,0 0,0 0,0l1777,0l0,0Z" style="fill:#7eba68;"/><rect x="300.765" y="981" width="1777" height="16" style="fill:#152947;"/><g><rect x="523.307" y="928.964" width="5.38" height="17.468" style="fill:#16505e;"/><circle cx="525.997" cy="925.142" r="6.807" style="fill:#f9e99b;stroke:#fff;stroke-width:4px;"/></g><g><path d="M776.885,834.707c1.383,1.315 0.956,4.012 -0.952,6.02c-1.909,2.008 -4.582,2.571 -5.965,1.256c-1.383,-1.315 -0.957,-4.012 0.952,-6.02c1.908,-2.008 4.581,-2.571 5.965,-1.256Z" style="fill:#f9e99b;"/><path d="M777.207,838.497c0.954,-0.024 1.757,1.081 1.792,2.465c0.035,1.385 -0.711,2.529 -1.665,2.553c-0.954,0.024 -1.757,-1.08 -1.792,-2.465c-0.035,-1.385 0.711,-2.529 1.665,-2.553Z" style="fill:#fff;"/><path d="M773.263,834.748c0.024,0.954 -1.08,1.757 -2.465,1.792c-1.385,0.035 -2.529,-0.711 -2.553,-1.665c-0.024,-0.954 1.081,-1.757 2.465,-1.792c1.385,-0.035 2.529,0.711 2.553,1.665Z" style="fill:#fff;"/><path d="M776.694,835.858c0.896,-0.872 2.901,-1.71 4.027,-1.057" style="fill:none;stroke:#000;stroke-width:1px;"/><path d="M775.525,834.747c0.825,-0.939 1.56,-2.984 0.852,-4.076" style="fill:none;stroke:#000;stroke-width:1px;"/></g><path d="M741.219,875.598c0,-0.521 10.644,-9.307 14.778,-7.751c2.114,0.796 3.943,3.684 2.597,5.858c-1.845,2.979 -6.024,2.16 -7.158,0c-1.482,-2.823 0.059,-7.551 1.059,-9.241c3.247,-5.485 7.151,-2.892 11.084,-6.813c2.815,-2.807 1.011,-11.134 4.666,-14.957" style="fill:none;stroke:#fff;stroke-width:1px;"/><g><path d="M1487.5,903.758c-0.597,-1.813 1.055,-3.989 3.686,-4.855c2.631,-0.867 5.252,-0.099 5.849,1.714c0.598,1.813 -1.054,3.988 -3.685,4.855c-2.632,0.866 -5.253,0.098 -5.85,-1.714Z" style="fill:#f9e99b;"/><path d="M1489.01,900.265c-0.852,-0.43 -1.037,-1.783 -0.413,-3.019c0.624,-1.237 1.822,-1.892 2.674,-1.462c0.852,0.429 1.037,1.782 0.413,3.019c-0.623,1.237 -1.822,1.892 -2.674,1.462Z" style="fill:#fff;"/><path d="M1490.71,905.434c0.429,-0.852 1.782,-1.038 3.019,-0.414c1.237,0.624 1.892,1.822 1.462,2.674c-0.429,0.852 -1.783,1.038 -3.019,0.414c-1.237,-0.624 -1.892,-1.822 -1.462,-2.674Z" style="fill:#fff;"/><path d="M1488.21,902.833c-1.201,0.345 -3.364,0.135 -4.048,-0.972" style="fill:none;stroke:#000;stroke-width:1px;"/><path d="M1488.72,904.366c-1.171,0.437 -2.786,1.891 -2.678,3.187" style="fill:none;stroke:#000;stroke-width:1px;"/></g><path d="M1561.99,894.644c-15.793,24.091 -43.062,-4.992 -62.76,5.164" style="fill:none;stroke:#fff;stroke-width:1px;"/><path d="M1112.26,910.69c-2.179,18.574 -3.716,18.289 -22.035,14.528c19.08,3.463 17.385,6.813 14.528,22.035c1.038,-12.366 5.14,-17.784 22.035,-14.528c-16.855,-3.46 -18.289,-3.716 -14.528,-22.035Z" style="fill:#fff;"/><path d="M1236.38,839.485c-16.532,-8.741 -15.711,-10.072 -5.586,-25.795c-10.122,16.541 -12.634,13.75 -25.795,5.586c11.155,5.436 14.726,11.218 5.586,25.795c9.316,-14.465 10.072,-15.711 25.795,-5.586Z" style="fill:#fff;"/><g><path d="M762.674,950.982l3.297,-0.003l0.001,1.733l-3.297,0.003l-0.001,-1.733Z" style="fill:#fff;"/><path d="M757.644,950.987l3.297,-0.003l0.001,1.733l-3.297,0.003l-0.001,-1.733Z" style="fill:#fff;"/><path d="M762.672,948.582l0.002,2.4l-1.733,0.002l-0.002,-2.4l1.733,-0.002Z" style="fill:#fff;"/><path d="M762.675,952.715l0.002,2.4l-1.732,0.002l-0.003,-2.4l1.733,-0.002Z" style="fill:#fff;"/></g><g><path d="M894.197,950.291l3.297,-0.003l0.001,1.733l-3.297,0.003l-0.001,-1.733Z" style="fill:#fff;"/><path d="M889.167,950.295l3.297,-0.003l0.001,1.733l-3.297,0.003l-0.001,-1.733Z" style="fill:#fff;"/><path d="M894.194,947.891l0.003,2.4l-1.733,0.001l-0.002,-2.4l1.732,-0.001Z" style="fill:#fff;"/><path d="M894.198,952.024l0.002,2.4l-1.733,0.001l-0.002,-2.4l1.733,-0.001Z" style="fill:#fff;"/></g><g><path d="M1548.57,950.323l3.297,-0.003l0.002,1.733l-3.297,0.003l-0.002,-1.733Z" style="fill:#fff;"/><path d="M1543.54,950.328l3.297,-0.003l0.002,1.732l-3.297,0.003l-0.002,-1.732Z" style="fill:#fff;"/><path d="M1548.57,947.923l0.002,2.4l-1.733,0.002l-0.002,-2.4l1.733,-0.002Z" style="fill:#fff;"/><path d="M1548.58,952.056l0.002,2.4l-1.733,0.001l-0.002,-2.4l1.733,-0.001Z" style="fill:#fff;"/></g><g><path d="M1657.59,950.323l3.297,-0.003l0.001,1.733l-3.297,0.003l-0.001,-1.733Z" style="fill:#fff;"/><path d="M1652.56,950.328l3.297,-0.003l0.001,1.732l-3.297,0.003l-0.001,-1.732Z" style="fill:#fff;"/><path d="M1657.59,947.923l0.003,2.4l-1.733,0.002l-0.002,-2.4l1.732,-0.002Z" style="fill:#fff;"/><path d="M1657.59,952.056l0.002,2.4l-1.732,0.001l-0.003,-2.4l1.733,-0.001Z" style="fill:#fff;"/></g><path d="M863.543,815.703l0,-36.881c-10.056,-35.408 -75.462,-42 -76,-83.121l-13.174,0c-0.504,-0.049 -0.062,3.902 1,8.703c9.281,41.93 60.257,52.038 78,88c0,0 4.669,7.188 10.174,23.299Z" style="fill:#1e726e;"/><clipPath id="_clip11"><path d="M863.543,815.703l0,-36.881c-10.056,-35.408 -75.462,-42 -76,-83.121l-13.174,0c-0.504,-0.049 -0.062,3.902 1,8.703c9.281,41.93 60.257,52.038 78,88c0,0 4.669,7.188 10.174,23.299Z"/></clipPath><g clip-path="url(#_clip11)"><rect x="761.765" y="695.701" width="46" height="17.619" style="fill:#16505e;"/></g></g></svg>