<?xml version="1.0" encoding="UTF-8" standalone="no"?><!DOCTYPE svg PUBLIC "-//W3C//DTD SVG 1.1//EN" "http://www.w3.org/Graphics/SVG/1.1/DTD/svg11.dtd"><svg width="100%" height="100%" viewBox="0 0 72 72" version="1.1" xmlns="http://www.w3.org/2000/svg" xmlns:xlink="http://www.w3.org/1999/xlink" xml:space="preserve" xmlns:serif="http://www.serif.com/" style="fill-rule:evenodd;clip-rule:evenodd;stroke-linecap:round;stroke-linejoin:round;stroke-miterlimit:1.5;"><circle cx="36" cy="36" r="36" style="fill:#fff;"/><clipPath id="_clip1"><circle cx="36" cy="36" r="36"/></clipPath><g clip-path="url(#_clip1)"><g><g><path d="M33.965,16.634c-0.317,-2.266 -0.135,-5.44 -6.201,-4.73c-6.096,0.713 0.234,5.436 -1.995,5.211c-11.201,-1.13 -5.842,7.385 -11.351,7.988c-5.254,0.576 2.929,9.589 -0.42,11.343c-4.091,2.142 -3.711,8.811 -0.255,9.334c7.678,1.161 -6.907,9.112 5.194,8.446c4.523,-0.249 5.201,5.096 8.372,5.096c2.337,0 4.632,-1.057 6.656,-3.064c0,0 1.034,-32.232 0,-39.624Z" style="fill:#fff;stroke:#000;stroke-width:2.06px;"/><path d="M18.937,54.226c2.437,-3.061 7.312,-9.182 10.287,-2.673" style="fill:none;stroke:#000;stroke-width:2.06px;"/><path d="M34.361,38.606c-3.363,2.178 -10.091,6.534 -13.773,1.477" style="fill:none;stroke:#000;stroke-width:2.06px;"/><path d="M33.965,16.634c-1.483,3.443 -4.449,10.329 -9.059,6.059" style="fill:none;stroke:#000;stroke-width:2.06px;"/><path d="M14.418,25.103c0,0 3.507,10.85 10.715,7.765" style="fill:none;stroke:#000;stroke-width:2.06px;"/></g><g><path d="M38.035,16.634c0.317,-2.266 0.135,-5.44 6.201,-4.73c6.096,0.713 -0.234,5.436 1.995,5.211c11.201,-1.13 5.842,7.385 11.351,7.988c5.254,0.576 -2.929,9.589 0.42,11.343c4.091,2.142 3.711,8.811 0.255,9.334c-7.678,1.161 6.907,9.112 -5.194,8.446c-4.523,-0.249 -5.201,5.096 -8.372,5.096c-2.337,0 -4.632,-1.057 -6.656,-3.064c0,0 -1.034,-32.232 0,-39.624Z" style="fill:#fff;stroke:#000;stroke-width:2.06px;"/><path d="M53.063,54.226c-2.437,-3.061 -7.312,-9.182 -10.287,-2.673" style="fill:none;stroke:#000;stroke-width:2.06px;"/><path d="M37.639,38.606c3.363,2.178 10.091,6.534 13.773,1.477" style="fill:none;stroke:#000;stroke-width:2.06px;"/><path d="M38.035,16.634c1.483,3.443 4.449,10.329 9.059,6.059" style="fill:none;stroke:#000;stroke-width:2.06px;"/><path d="M57.582,25.103c0,0 -3.507,10.85 -10.715,7.765" style="fill:none;stroke:#000;stroke-width:2.06px;"/></g></g></g></svg>