<?xml version="1.0" encoding="UTF-8" standalone="no"?><!DOCTYPE svg PUBLIC "-//W3C//DTD SVG 1.1//EN" "http://www.w3.org/Graphics/SVG/1.1/DTD/svg11.dtd"><svg width="100%" height="100%" viewBox="0 0 28 47" version="1.1" xmlns="http://www.w3.org/2000/svg" xmlns:xlink="http://www.w3.org/1999/xlink" xml:space="preserve" xmlns:serif="http://www.serif.com/" style="fill-rule:evenodd;clip-rule:evenodd;stroke-linejoin:round;stroke-miterlimit:2;"><path d="M0,10.465c0.46,-1.379 1.076,-2.653 1.849,-3.823c0.877,-1.357 1.869,-2.485 2.976,-3.383c1.233,-1.003 2.58,-1.797 4.042,-2.382c1.483,-0.585 3.206,-0.877 5.17,-0.877c1.901,0 3.707,0.334 5.42,1.003c1.713,0.668 3.175,1.577 4.387,2.726c1.19,1.127 2.151,2.506 2.882,4.135c0.71,1.567 1.066,3.311 1.066,5.233c0,1.378 -0.188,2.579 -0.564,3.603c-0.397,1.086 -0.899,2.068 -1.504,2.945c-0.46,0.669 -1.212,1.525 -2.256,2.569c-0.669,0.669 -1.609,1.536 -2.82,2.601l-1.316,1.222c-0.293,0.313 -0.522,0.606 -0.689,0.877c-0.188,0.334 -0.293,0.658 -0.314,0.972c-0.042,0.501 -0.062,0.96 -0.062,1.378l0,3.259l-7.614,0l0,-4.731c0,-1.045 0.104,-1.912 0.313,-2.601c0.209,-0.689 0.543,-1.347 1.003,-1.974c0.418,-0.564 1.013,-1.17 1.786,-1.817l2.663,-2.287c1.024,-0.878 1.88,-1.745 2.569,-2.601c0.731,-0.898 1.097,-2.016 1.097,-3.353c0,-1.817 -0.606,-3.248 -1.817,-4.292c-1.212,-1.044 -2.622,-1.567 -4.23,-1.567c-0.857,0 -1.692,0.178 -2.507,0.533c-0.794,0.355 -1.493,0.804 -2.099,1.347c-0.668,0.606 -1.232,1.254 -1.692,1.943c-0.46,0.668 -0.856,1.452 -1.191,2.35l-6.548,-3.008Zm9.431,30.925c0,-1.421 0.491,-2.622 1.473,-3.604c0.981,-0.981 2.182,-1.472 3.603,-1.472c1.399,0 2.59,0.491 3.572,1.472c0.981,0.982 1.472,2.183 1.472,3.604c0,1.399 -0.491,2.59 -1.472,3.572c-1.003,1.002 -2.194,1.503 -3.572,1.503c-1.4,0 -2.601,-0.501 -3.603,-1.503c-0.982,-0.982 -1.473,-2.173 -1.473,-3.572Z" style="fill:#ab343b;fill-rule:nonzero;"/></svg>