<svg width="65" height="32" viewBox="0 0 65 32" fill="none" xmlns="http://www.w3.org/2000/svg">
<path d="M0.214844 1.25H13.5352V5.625H4.60938V13.4375H13.5352V17.8125H4.60938V30H0.214844V1.25ZM25.6445 0.957031L33.4961 30.0977H29.0234L27.793 25.4883H20.8398L19.6094 30.0977H15.1367L22.9883 0.957031H25.6445ZM22.0898 20.8594H26.543L24.3359 11.543L22.0898 20.8594ZM53.5742 24.8047L49.3945 19.8242H54.6875L56.9922 22.5195C57.8385 21.6471 58.5091 20.625 59.0039 19.4531C59.5247 18.2422 59.7852 16.9401 59.7852 15.5469C59.7852 14.1536 59.5247 12.8516 59.0039 11.6406C58.4831 10.4167 57.7669 9.35547 56.8555 8.45703C55.957 7.54557 54.8958 6.83594 53.6719 6.32812C52.4479 5.82031 51.1458 5.56641 49.7656 5.56641C48.3724 5.56641 47.0638 5.82031 45.8398 6.32812C44.6159 6.83594 43.5482 7.54557 42.6367 8.45703C41.7253 9.35547 41.0091 10.4167 40.4883 11.6406C39.9674 12.8516 39.707 14.1536 39.707 15.5469C39.707 16.9401 39.9674 18.2487 40.4883 19.4727C41.0091 20.6836 41.7253 21.7448 42.6367 22.6562C43.5482 23.5547 44.6159 24.2643 45.8398 24.7852C47.0638 25.293 48.3724 25.5469 49.7656 25.5469C51.1068 25.5469 52.3763 25.2995 53.5742 24.8047ZM59.9609 25.9961L64.7852 31.6406H59.3164L56.5625 28.3594C56.224 28.5417 55.8724 28.7044 55.5078 28.8477C53.724 29.6159 51.8099 30 49.7656 30C47.7083 30 45.7878 29.6224 44.0039 28.8672C42.2201 28.099 40.6576 27.0638 39.3164 25.7617C37.9753 24.4596 36.9141 22.9362 36.1328 21.1914C35.3646 19.4336 34.9805 17.5521 34.9805 15.5469C34.9805 13.5547 35.3646 11.6732 36.1328 9.90234C36.9141 8.11849 37.9753 6.57552 39.3164 5.27344C40.6576 3.97135 42.2201 2.94271 44.0039 2.1875C45.7878 1.43229 47.7083 1.05469 49.7656 1.05469C51.8099 1.05469 53.724 1.43229 55.5078 2.1875C57.2917 2.94271 58.8542 3.97135 60.1953 5.27344C61.5365 6.57552 62.5911 8.11849 63.3594 9.90234C64.1406 11.6732 64.5312 13.5547 64.5312 15.5469C64.5312 17.5521 64.1406 19.4336 63.3594 21.1914C62.5911 22.9362 61.5365 24.4596 60.1953 25.7617C60.1172 25.8398 60.0391 25.918 59.9609 25.9961Z" fill="black"/>
</svg>
