<?xml version="1.0" encoding="UTF-8" standalone="no"?><!DOCTYPE svg PUBLIC "-//W3C//DTD SVG 1.1//EN" "http://www.w3.org/Graphics/SVG/1.1/DTD/svg11.dtd"><svg width="1770" height="439" viewBox="8 0 1770 439" version="1.1" xmlns="http://www.w3.org/2000/svg" xmlns:xlink="http://www.w3.org/1999/xlink" xml:space="preserve" xmlns:serif="http://www.serif.com/" style="fill-rule:evenodd;clip-rule:evenodd;stroke-miterlimit:2;"><g><clipPath id="_clip1"><rect x="0.878" y="0" width="1777" height="439.216"/></clipPath><g clip-path="url(#_clip1)"><g id="Background"><path d="M689.442,81.851c0.536,-0.951 1.546,-1.538 2.638,-1.532c1.092,0.005 2.095,0.602 2.622,1.558c11.477,21.32 17.46,45.65 23.949,69.703l-53.104,0c5.357,-23.647 11.347,-47.195 23.895,-69.729Z" style="fill:#ffb05c;"/><path d="M1404.62,75.851c0.537,-0.951 1.546,-1.537 2.638,-1.531c1.092,0.005 2.096,0.601 2.622,1.558c11.477,21.32 17.461,45.65 23.95,69.702l-53.105,0c5.358,-23.646 11.347,-47.195 23.895,-69.729Z" style="fill:#ffb05c;"/><path d="M1378.43,102.274c0.536,-0.951 1.545,-1.537 2.637,-1.531c1.092,0.005 2.096,0.601 2.623,1.558c11.476,21.32 17.46,45.65 23.949,69.702l-53.104,0c5.357,-23.646 11.346,-47.195 23.895,-69.729Z" style="fill:#ffb05c;"/><path d="M1676.33,4.59c0.536,-0.951 1.546,-1.537 2.638,-1.531c1.092,0.005 2.095,0.601 2.622,1.558c11.477,21.32 17.46,45.65 23.949,69.703l-53.104,0c5.357,-23.647 11.347,-47.196 23.895,-69.73Z" style="fill:#ffb05c;"/><path d="M717.473,95.172c0.537,-0.952 1.546,-1.538 2.638,-1.532c1.092,0.005 2.096,0.602 2.622,1.558c11.477,21.32 17.461,45.65 23.95,69.703l-53.105,0c5.358,-23.647 11.347,-47.195 23.895,-69.729Z" style="fill:#ffb05c;"/><path d="M50.773,14.2c0.537,-0.951 1.546,-1.538 2.638,-1.532c1.092,0.006 2.096,0.602 2.622,1.558c11.477,21.32 17.461,45.65 23.95,69.703l-53.105,0c5.358,-23.646 11.347,-47.195 23.895,-69.729Z" style="fill:#ffb05c;"/><path d="M0.878,53.929l210.772,0c11.164,0 22.006,3.736 30.8,10.612c25.512,19.95 80.345,62.826 105.857,82.776c8.794,6.876 19.636,10.612 30.799,10.612c18.154,0 46.711,0 65.828,0c12.806,0 25.123,-4.913 34.413,-13.727c13.991,-13.273 35.072,-33.273 49.063,-46.546c9.29,-8.814 21.607,-13.727 34.413,-13.727c12.73,0 29.236,0 42.304,0c13.873,0 27.122,5.764 36.58,15.914c3.692,3.962 7.651,8.21 11.343,12.172c9.457,10.15 22.707,15.914 36.58,15.914c32.192,0 91.554,0 117.97,0c8.702,0 17.252,2.271 24.807,6.588c17.473,9.984 50.47,28.84 67.943,38.824c7.555,4.317 16.105,6.588 24.807,6.588c49.2,0 220.691,0 267.716,0c7.891,0 15.671,-1.868 22.702,-5.451c19.958,-10.171 62.649,-31.927 82.606,-42.098c7.032,-3.583 14.811,-5.451 22.703,-5.451c26.799,0 91.307,0 119.004,0c8.519,0 16.897,-2.177 24.338,-6.324c24.786,-13.812 83.519,-46.541 108.305,-60.352c7.441,-4.147 15.819,-6.324 24.338,-6.324l180.009,0l0,440.68l-1776,0l0,-440.68Z" style="fill:#ffb05c;"/><path d="M0.878,83.929l185.379,0c10.79,0 21.292,3.491 29.935,9.951c18.934,14.153 53.439,39.945 72.373,54.097c8.643,6.461 19.144,9.952 29.935,9.952l66.434,0c12.806,0 25.123,-4.913 34.413,-13.727c13.991,-13.273 35.072,-33.273 49.063,-46.546c9.29,-8.814 21.607,-13.727 34.413,-13.727c12.871,0 29.602,0 42.736,0c13.62,0 26.65,5.556 36.079,15.383c12.16,12.674 29.32,30.56 41.48,43.233c9.43,9.828 22.46,15.384 36.08,15.384c32.09,0 91.867,0 118.402,0c8.702,0 17.252,2.271 24.807,6.588c17.473,9.984 50.47,28.84 67.943,38.824c7.555,4.317 16.105,6.588 24.807,6.588c43.679,0 182.916,0 232.215,0c11.334,0 22.331,-3.85 31.189,-10.92c19.924,-15.901 56.711,-45.259 76.635,-61.16c8.858,-7.07 19.855,-10.92 31.188,-10.92c39.156,0 132.905,0 165.276,0c7.387,0 14.682,-1.637 21.361,-4.793c17.509,-8.273 53.206,-25.141 70.714,-33.414c6.679,-3.156 13.975,-4.793 21.362,-4.793l232.781,0l0,410.68l-1777,0l0,-410.68Z" style="fill:#e8924d;"/></g><g id="Midground"><path d="M580.197,190.24c0.543,-0.931 1.541,-1.501 2.618,-1.496c1.078,0.005 2.071,0.585 2.604,1.521c24.268,43.055 36.442,92.737 49.688,141.832l-104.551,0c10.91,-48.158 23.152,-96.109 49.641,-141.857Z" style="fill:#de7e42;"/><path d="M813.04,87.375c0.544,-0.924 1.539,-1.49 2.612,-1.485c1.073,0.005 2.063,0.58 2.598,1.509c34.93,61.142 52.259,131.928 71.128,201.87l-147.423,0c15.533,-68.56 32.98,-136.824 71.085,-201.894Z" style="fill:#bf5047;"/><clipPath id="_clip2"><path d="M813.04,87.375c0.544,-0.924 1.539,-1.49 2.612,-1.485c1.073,0.005 2.063,0.58 2.598,1.509c34.93,61.142 52.259,131.928 71.128,201.87l-147.423,0c15.533,-68.56 32.98,-136.824 71.085,-201.894Z"/></clipPath><g clip-path="url(#_clip2)"><path d="M815.667,83.929c28.67,67.143 39.382,133.695 58.711,205.34l-147.423,0c8.008,-79.183 32.193,-158.028 88.712,-205.34Z" style="fill:#912838;"/></g><path d="M1186.56,85.423c0.543,-0.929 1.54,-1.499 2.617,-1.494c1.077,0.005 2.069,0.584 2.603,1.519c25.511,45.166 38.287,97.31 52.189,148.838l-109.553,0c11.45,-50.538 24.3,-100.86 52.144,-148.863Z" style="fill:#bf5047;"/><clipPath id="_clip3"><path d="M1186.56,85.423c0.543,-0.929 1.54,-1.499 2.617,-1.494c1.077,0.005 2.069,0.584 2.603,1.519c25.511,45.166 38.287,97.31 52.189,148.838l-109.553,0c11.45,-50.538 24.3,-100.86 52.144,-148.863Z"/></clipPath><g clip-path="url(#_clip3)"><path d="M1189.19,81.694c21.306,49.895 29.266,99.351 43.63,152.592l-109.553,0c5.951,-58.842 23.923,-117.433 65.923,-152.592Z" style="fill:#912838;"/></g><path d="M303.559,109.423c0.543,-0.929 1.54,-1.499 2.617,-1.494c1.077,0.005 2.069,0.584 2.603,1.519c25.511,45.166 38.287,97.31 52.189,148.838l-109.553,0c11.45,-50.538 24.3,-100.86 52.144,-148.863Z" style="fill:#bf5047;"/><clipPath id="_clip4"><path d="M303.559,109.423c0.543,-0.929 1.54,-1.499 2.617,-1.494c1.077,0.005 2.069,0.584 2.603,1.519c25.511,45.166 38.287,97.31 52.189,148.838l-109.553,0c11.45,-50.538 24.3,-100.86 52.144,-148.863Z"/></clipPath><g clip-path="url(#_clip4)"><path d="M306.191,105.694c21.306,49.895 29.266,99.351 43.63,152.592l-109.553,0c5.951,-58.842 23.923,-117.433 65.923,-152.592Z" style="fill:#912838;"/></g><path d="M1237.34,129.156c0.543,-0.93 1.541,-1.5 2.617,-1.495c1.077,0.005 2.069,0.584 2.603,1.519c25.512,45.166 38.288,97.311 52.189,148.838l-109.553,0c11.45,-50.538 24.3,-100.86 52.144,-148.862Z" style="fill:#bf5047;"/><clipPath id="_clip5"><path d="M1237.34,129.156c0.543,-0.93 1.541,-1.5 2.617,-1.495c1.077,0.005 2.069,0.584 2.603,1.519c25.512,45.166 38.288,97.311 52.189,148.838l-109.553,0c11.45,-50.538 24.3,-100.86 52.144,-148.862Z"/></clipPath><g clip-path="url(#_clip5)"><path d="M1239.98,125.427c21.305,49.895 29.266,99.35 43.63,152.591l-109.553,0c5.951,-58.842 23.923,-117.433 65.923,-152.591Z" style="fill:#912838;"/></g><path d="M511.154,157.04c0.544,-0.928 1.54,-1.497 2.616,-1.492c1.075,0.005 2.067,0.583 2.601,1.516c27.999,49.387 41.978,106.456 57.192,162.849l-119.556,0c12.528,-55.3 26.593,-110.362 57.147,-162.873Z" style="fill:#de7e42;"/><path d="M174.622,72.458c0.543,-0.93 1.54,-1.499 2.617,-1.494c1.076,0.005 2.068,0.584 2.603,1.519c25.79,45.64 38.701,98.337 52.75,150.411l-110.676,0c11.571,-51.073 24.557,-101.927 52.706,-150.436Z" style="fill:#de7e42;"/><path d="M0.878,139.929l135.426,0c14.352,0 28.012,6.167 37.504,16.932c17.12,19.416 45.021,51.06 62.141,70.476c9.492,10.765 23.151,16.932 37.503,16.932c41.022,0 127.433,0 169.459,0c15.153,0 29.488,6.872 38.979,18.684c10.236,12.742 23.74,29.55 33.977,42.292c9.491,11.812 23.826,18.684 38.979,18.684l63.065,0c15.153,0 29.488,-6.872 38.979,-18.684c10.236,-12.742 23.74,-29.55 33.977,-42.292c9.491,-11.812 23.826,-18.684 38.979,-18.684c30.723,0 83.707,0 114.636,0c15.397,0 29.935,-7.094 39.41,-19.229c13.314,-17.053 32.659,-41.829 45.973,-58.881c9.475,-12.136 24.013,-19.23 39.41,-19.23c38.431,0 112.681,0 151.529,0c15.78,0 30.633,7.449 40.071,20.096c6.328,8.479 13.679,18.329 20.007,26.808c9.437,12.647 24.291,20.096 40.071,20.096l101.174,0c13.873,0 27.122,-5.764 36.58,-15.914c3.692,-3.962 7.651,-8.21 11.343,-12.172c9.457,-10.15 22.707,-15.914 36.58,-15.914l138.492,0c17.804,0 34.264,9.467 43.218,24.855c10.481,18.015 24.596,42.274 35.077,60.29c8.953,15.388 25.414,24.855 43.218,24.855l111.243,0l0,184.68l-1777,0l0,-324.68Z" style="fill:#bf5047;"/><path d="M0.878,169.929l100.426,0c14.352,0 28.012,6.167 37.504,16.932c17.12,19.416 45.021,51.06 62.141,70.476c9.492,10.765 23.151,16.932 37.503,16.932c41.022,0 127.433,0 169.459,0c15.153,0 29.488,6.872 38.979,18.684c10.236,12.742 23.74,29.55 33.977,42.292c9.491,11.812 23.826,18.684 38.979,18.684c32.575,0 90.49,0 123.065,0c15.153,0 29.488,-6.872 38.979,-18.684c10.236,-12.742 23.74,-29.55 33.977,-42.292c9.491,-11.812 23.826,-18.684 38.979,-18.684l50.646,0c17.604,0 33.912,-9.258 42.934,-24.375c13.48,-22.586 33.425,-56.004 46.904,-78.59c9.023,-15.117 25.33,-24.375 42.935,-24.375l127.036,0c16.062,0 31.146,7.716 40.545,20.741c11.822,16.382 28.242,39.136 40.065,55.518c9.399,13.025 24.483,20.741 40.545,20.741l92.964,0c18.178,0 34.925,-9.867 43.735,-25.768c4.031,-7.275 8.416,-15.189 12.446,-22.464c8.811,-15.901 25.557,-25.768 43.736,-25.768l111.232,0c17.563,0 33.838,9.215 42.875,24.275c15.38,25.635 39.488,65.815 54.869,91.45c9.036,15.06 25.312,24.275 42.875,24.275c49.528,0 146.69,0 146.69,0l0,184.68l-1777,0l0,-324.68Z" style="fill:#912838;"/><path d="M1714.88,109.687c0.543,-0.929 1.54,-1.497 2.615,-1.492c1.076,0.005 2.067,0.583 2.602,1.516c27.999,49.387 41.978,106.456 57.192,162.848l-119.557,0c12.529,-55.299 26.593,-110.361 57.148,-162.872Z" style="fill:#de7e42;"/><path d="M1658.79,151.294c0.544,-0.928 1.54,-1.497 2.616,-1.492c1.075,0.005 2.067,0.583 2.601,1.516c27.999,49.387 41.978,106.456 57.193,162.849l-119.557,0c12.528,-55.3 26.593,-110.362 57.147,-162.873Z" style="fill:#de7e42;"/><g><rect x="1162.11" y="199.522" width="3.688" height="11.974" style="fill:#912838;"/><circle cx="1163.96" cy="196.902" r="4.666" style="fill:#e8924d;stroke:#912838;stroke-width:3px;"/></g><g><rect x="1491.06" y="160.371" width="3.688" height="11.974" style="fill:#912838;"/><circle cx="1492.9" cy="157.752" r="4.666" style="fill:#e8924d;stroke:#912838;stroke-width:3px;"/></g><g><rect x="640.492" y="344.152" width="3.688" height="11.974" style="fill:#912838;"/><circle cx="642.336" cy="341.532" r="4.666" style="fill:#e8924d;stroke:#912838;stroke-width:3px;"/></g><g><rect x="227.98" y="242.62" width="3.688" height="11.974" style="fill:#912838;"/><circle cx="229.824" cy="240" r="4.666" style="fill:#e8924d;stroke:#912838;stroke-width:3px;"/></g><g><rect x="69.176" y="137.585" width="3.688" height="11.974" style="fill:#912838;"/><circle cx="71.02" cy="134.965" r="4.666" style="fill:#e8924d;stroke:#912838;stroke-width:3px;"/></g><path d="M809.338,256.52c0.128,-0.146 0.264,-0.29 0.405,-0.432c1.958,-1.958 4.381,-2.714 5.407,-1.688c1.027,1.027 0.27,3.449 -1.687,5.407c-1.211,1.211 -2.6,1.962 -3.726,2.117c-0.127,0.02 -0.26,0.03 -0.399,0.029c-0.139,0.001 -0.273,-0.009 -0.4,-0.029c-1.126,-0.155 -2.514,-0.906 -3.725,-2.117c-1.958,-1.958 -2.714,-4.38 -1.688,-5.407c1.026,-1.026 3.449,-0.27 5.407,1.688c0.142,0.142 0.277,0.286 0.406,0.432Z" style="fill:#912838;"/><path d="M1194.68,229.684c0.128,-0.146 0.264,-0.29 0.405,-0.431c1.958,-1.958 4.381,-2.715 5.407,-1.688c1.027,1.026 0.27,3.449 -1.688,5.407c-1.21,1.211 -2.599,1.962 -3.725,2.116c-0.127,0.021 -0.261,0.031 -0.399,0.03c-0.139,0.001 -0.273,-0.009 -0.4,-0.03c-1.126,-0.154 -2.515,-0.905 -3.725,-2.116c-1.958,-1.958 -2.715,-4.381 -1.688,-5.407c1.026,-1.027 3.449,-0.27 5.407,1.688c0.141,0.141 0.277,0.285 0.406,0.431Z" style="fill:#912838;"/><path d="M1293.09,220.896c0.129,-0.146 0.264,-0.29 0.406,-0.432c1.957,-1.958 4.38,-2.714 5.407,-1.688c1.026,1.027 0.27,3.449 -1.688,5.407c-1.211,1.211 -2.6,1.962 -3.726,2.117c-0.127,0.02 -0.26,0.03 -0.399,0.029c-0.139,0.001 -0.273,-0.009 -0.4,-0.029c-1.126,-0.155 -2.514,-0.906 -3.725,-2.117c-1.958,-1.958 -2.714,-4.38 -1.688,-5.407c1.026,-1.026 3.449,-0.27 5.407,1.688c0.142,0.142 0.277,0.286 0.406,0.432Z" style="fill:#912838;"/><path d="M699.11,276.701c0.129,-0.146 0.264,-0.29 0.406,-0.431c1.957,-1.958 4.38,-2.715 5.407,-1.688c1.026,1.026 0.27,3.449 -1.688,5.407c-1.211,1.211 -2.6,1.962 -3.726,2.116c-0.127,0.021 -0.26,0.031 -0.399,0.03c-0.139,0.001 -0.273,-0.009 -0.4,-0.03c-1.126,-0.154 -2.514,-0.905 -3.725,-2.116c-1.958,-1.958 -2.714,-4.381 -1.688,-5.407c1.026,-1.027 3.449,-0.27 5.407,1.688c0.142,0.141 0.277,0.285 0.406,0.431Z" style="fill:#912838;"/><path d="M620.879,334.43c0.128,-0.146 0.264,-0.29 0.405,-0.431c1.958,-1.958 4.381,-2.714 5.407,-1.688c1.027,1.026 0.27,3.449 -1.687,5.407c-1.211,1.211 -2.6,1.962 -3.726,2.116c-0.127,0.021 -0.26,0.031 -0.399,0.03c-0.139,0.001 -0.273,-0.009 -0.4,-0.03c-1.126,-0.154 -2.514,-0.905 -3.725,-2.116c-1.958,-1.958 -2.714,-4.381 -1.688,-5.407c1.026,-1.026 3.449,-0.27 5.407,1.688c0.142,0.141 0.277,0.285 0.406,0.431Z" style="fill:#912838;"/><path d="M397.815,254.035c0.129,-0.146 0.264,-0.29 0.406,-0.432c1.958,-1.957 4.38,-2.714 5.407,-1.687c1.026,1.026 0.27,3.449 -1.688,5.407c-1.211,1.21 -2.599,1.962 -3.725,2.116c-0.127,0.021 -0.261,0.03 -0.4,0.029c-0.139,0.001 -0.272,-0.008 -0.399,-0.029c-1.126,-0.154 -2.515,-0.906 -3.726,-2.116c-1.958,-1.958 -2.714,-4.381 -1.688,-5.407c1.027,-1.027 3.45,-0.27 5.407,1.687c0.142,0.142 0.277,0.286 0.406,0.432Z" style="fill:#912838;"/><path d="M21.198,149.33c0.129,-0.146 0.264,-0.29 0.406,-0.432c1.958,-1.958 4.38,-2.714 5.407,-1.688c1.026,1.027 0.27,3.449 -1.688,5.407c-1.211,1.211 -2.599,1.962 -3.725,2.117c-0.127,0.02 -0.261,0.03 -0.4,0.029c-0.139,0.001 -0.272,-0.009 -0.399,-0.029c-1.126,-0.155 -2.515,-0.906 -3.726,-2.117c-1.958,-1.958 -2.714,-4.38 -1.688,-5.407c1.027,-1.026 3.45,-0.27 5.407,1.688c0.142,0.142 0.277,0.286 0.406,0.432Z" style="fill:#912838;"/><g><path d="M751.899,252.885l3.297,-0.003l0.002,1.733l-3.297,0.002l-0.002,-1.732Z" style="fill:#912838;"/><path d="M746.869,252.889l3.297,-0.003l0.002,1.733l-3.297,0.003l-0.002,-1.733Z" style="fill:#912838;"/><path d="M751.897,250.485l0.002,2.4l-1.733,0.001l-0.002,-2.4l1.733,-0.001Z" style="fill:#912838;"/><path d="M751.901,254.617l0.002,2.4l-1.733,0.002l-0.002,-2.4l1.733,-0.002Z" style="fill:#912838;"/></g><g><path d="M1128.26,179.269l3.297,-0.003l0.002,1.733l-3.297,0.003l-0.002,-1.733Z" style="fill:#912838;"/><path d="M1123.23,179.273l3.297,-0.003l0.002,1.733l-3.297,0.003l-0.002,-1.733Z" style="fill:#912838;"/><path d="M1128.26,176.869l0.002,2.4l-1.733,0.001l-0.002,-2.4l1.733,-0.001Z" style="fill:#912838;"/><path d="M1128.27,181.002l0.002,2.399l-1.733,0.002l-0.002,-2.4l1.733,-0.001Z" style="fill:#912838;"/></g><g><path d="M1251.46,230.938l3.297,-0.003l0.002,1.733l-3.297,0.003l-0.002,-1.733Z" style="fill:#912838;"/><path d="M1246.43,230.943l3.297,-0.003l0.002,1.733l-3.297,0.003l-0.002,-1.733Z" style="fill:#912838;"/><path d="M1251.46,228.538l0.002,2.4l-1.733,0.002l-0.002,-2.4l1.733,-0.002Z" style="fill:#912838;"/><path d="M1251.46,232.671l0.002,2.4l-1.733,0.002l-0.002,-2.4l1.733,-0.002Z" style="fill:#912838;"/></g><g><path d="M664.08,338.525l3.297,-0.003l0.001,1.733l-3.297,0.003l-0.001,-1.733Z" style="fill:#912838;"/><path d="M659.05,338.53l3.297,-0.003l0.001,1.732l-3.297,0.003l-0.001,-1.732Z" style="fill:#912838;"/><path d="M664.078,336.125l0.002,2.4l-1.733,0.002l-0.002,-2.4l1.733,-0.002Z" style="fill:#912838;"/><path d="M664.081,340.258l0.002,2.4l-1.732,0.001l-0.003,-2.4l1.733,-0.001Z" style="fill:#912838;"/></g><g><path d="M532.107,327.929l3.297,-0.003l0.002,1.733l-3.297,0.003l-0.002,-1.733Z" style="fill:#912838;"/><path d="M527.077,327.934l3.297,-0.003l0.002,1.733l-3.297,0.003l-0.002,-1.733Z" style="fill:#912838;"/><path d="M532.105,325.529l0.002,2.4l-1.733,0.002l-0.002,-2.4l1.733,-0.002Z" style="fill:#912838;"/><path d="M532.109,329.662l0.002,2.4l-1.733,0.002l-0.002,-2.4l1.733,-0.002Z" style="fill:#912838;"/></g><g><path d="M422.787,266.963l3.297,-0.003l0.002,1.733l-3.297,0.003l-0.002,-1.733Z" style="fill:#912838;"/><path d="M417.757,266.967l3.297,-0.003l0.002,1.733l-3.297,0.003l-0.002,-1.733Z" style="fill:#912838;"/><path d="M422.785,264.563l0.002,2.4l-1.733,0.001l-0.002,-2.4l1.733,-0.001Z" style="fill:#912838;"/><path d="M422.789,268.696l0.002,2.4l-1.733,0.001l-0.002,-2.4l1.733,-0.001Z" style="fill:#912838;"/></g><g><path d="M323.132,250.465l3.297,-0.003l0.002,1.733l-3.297,0.003l-0.002,-1.733Z" style="fill:#912838;"/><path d="M318.102,250.47l3.297,-0.003l0.002,1.732l-3.297,0.003l-0.002,-1.732Z" style="fill:#912838;"/><path d="M323.13,248.065l0.002,2.4l-1.733,0.002l-0.002,-2.4l1.733,-0.002Z" style="fill:#912838;"/><path d="M323.134,252.198l0.002,2.4l-1.733,0.001l-0.002,-2.4l1.733,-0.001Z" style="fill:#912838;"/></g><g><path d="M107.671,162.757l3.297,-0.003l0.002,1.733l-3.297,0.003l-0.002,-1.733Z" style="fill:#912838;"/><path d="M102.641,162.762l3.297,-0.003l0.002,1.733l-3.297,0.003l-0.002,-1.733Z" style="fill:#912838;"/><path d="M107.669,160.357l0.002,2.4l-1.733,0.002l-0.002,-2.4l1.733,-0.002Z" style="fill:#912838;"/><path d="M107.673,164.49l0.002,2.4l-1.733,0.002l-0.002,-2.4l1.733,-0.002Z" style="fill:#912838;"/></g><rect x="249.878" y="263.929" width="3" height="22" style="fill:#912838;"/><rect x="58.2" y="159.182" width="3" height="22" style="fill:#912838;"/><rect x="541.972" y="348.653" width="3" height="22" style="fill:#912838;"/><rect x="781.181" y="266.025" width="3" height="22" style="fill:#912838;"/><rect x="1226.39" y="233.027" width="3" height="22" style="fill:#912838;"/><rect x="255.774" y="260.75" width="3" height="22" style="fill:#912838;"/><rect x="52.305" y="156.003" width="3" height="22" style="fill:#912838;"/><rect x="536.077" y="345.474" width="3" height="22" style="fill:#912838;"/><rect x="775.286" y="262.846" width="3" height="22" style="fill:#912838;"/><rect x="1220.49" y="239.848" width="3" height="22" style="fill:#912838;"/><path d="M1229.89,228.929c0,-0.552 -0.448,-1 -1,-1l-2,0c-0.552,0 -1,0.448 -1,1l0,4.098c0,0.551 0.448,1 1,1l2,0c0.552,0 1,-0.449 1,-1l0,-4.098Z" style="fill:#e8924d;"/><path d="M539.577,341.376c0,-0.552 -0.448,-1 -1,-1l-2,0c-0.552,0 -1,0.448 -1,1l0,4.098c0,0.552 0.448,1 1,1l2,0c0.552,0 1,-0.448 1,-1l0,-4.098Z" style="fill:#e8924d;"/></g><g id="Foreground"><path d="M976.198,133.065c0.545,-0.925 1.539,-1.491 2.613,-1.486c1.073,0.005 2.062,0.58 2.598,1.51c34.93,61.142 52.258,131.928 71.128,201.87l-147.424,0c15.533,-68.56 32.981,-136.825 71.085,-201.894Z" style="fill:#601c29;"/><clipPath id="_clip6"><path d="M976.198,133.065c0.545,-0.925 1.539,-1.491 2.613,-1.486c1.073,0.005 2.062,0.58 2.598,1.51c34.93,61.142 52.258,131.928 71.128,201.87l-147.424,0c15.533,-68.56 32.981,-136.825 71.085,-201.894Z"/></clipPath><g clip-path="url(#_clip6)"><path d="M978.825,129.619c28.67,67.143 39.383,133.695 58.712,205.34l-147.424,0c8.008,-79.184 32.193,-158.028 88.712,-205.34Z" style="fill:#4a1623;"/></g><path d="M1032.29,165.965c0.544,-0.925 1.539,-1.491 2.612,-1.486c1.073,0.005 2.063,0.58 2.599,1.51c34.929,61.141 52.258,131.927 71.128,201.869l-147.424,0c15.533,-68.56 32.98,-136.824 71.085,-201.893Z" style="fill:#601c29;"/><clipPath id="_clip7"><path d="M1032.29,165.965c0.544,-0.925 1.539,-1.491 2.612,-1.486c1.073,0.005 2.063,0.58 2.599,1.51c34.929,61.141 52.258,131.927 71.128,201.869l-147.424,0c15.533,-68.56 32.98,-136.824 71.085,-201.893Z"/></clipPath><g clip-path="url(#_clip7)"><path d="M1034.91,162.518c28.67,67.143 39.383,133.695 58.712,205.34l-147.424,0c8.008,-79.183 32.193,-158.028 88.712,-205.34Z" style="fill:#4a1623;"/></g><path d="M1484.82,146.089c0.544,-0.925 1.539,-1.491 2.612,-1.486c1.073,0.005 2.063,0.58 2.598,1.51c34.93,61.141 52.259,131.928 71.128,201.869l-147.423,0c15.532,-68.56 32.98,-136.824 71.085,-201.893Z" style="fill:#601c29;"/><clipPath id="_clip8"><path d="M1484.82,146.089c0.544,-0.925 1.539,-1.491 2.612,-1.486c1.073,0.005 2.063,0.58 2.598,1.51c34.93,61.141 52.259,131.928 71.128,201.869l-147.423,0c15.532,-68.56 32.98,-136.824 71.085,-201.893Z"/></clipPath><g clip-path="url(#_clip8)"><path d="M1487.44,142.642c28.671,67.143 39.383,133.695 58.712,205.34l-147.423,0c8.008,-79.183 32.193,-158.028 88.711,-205.34Z" style="fill:#4a1623;"/></g><path d="M1416.73,194.451c0.544,-0.924 1.539,-1.49 2.613,-1.485c1.073,0.005 2.062,0.58 2.598,1.509c34.93,61.142 52.258,131.928 71.128,201.87l-147.424,0c15.533,-68.56 32.981,-136.824 71.085,-201.894Z" style="fill:#601c29;"/><clipPath id="_clip9"><path d="M1416.73,194.451c0.544,-0.924 1.539,-1.49 2.613,-1.485c1.073,0.005 2.062,0.58 2.598,1.509c34.93,61.142 52.258,131.928 71.128,201.87l-147.424,0c15.533,-68.56 32.981,-136.824 71.085,-201.894Z"/></clipPath><g clip-path="url(#_clip9)"><path d="M1419.36,191.005c28.67,67.143 39.383,133.695 58.712,205.34l-147.424,0c8.008,-79.183 32.193,-158.028 88.712,-205.34Z" style="fill:#4a1623;"/></g><path d="M125.48,148.171c0.545,-0.924 1.539,-1.49 2.613,-1.485c1.073,0.005 2.062,0.58 2.598,1.509c34.93,61.142 52.258,131.928 71.128,201.87l-147.424,0c15.533,-68.56 32.981,-136.825 71.085,-201.894Z" style="fill:#601c29;"/><clipPath id="_clip10"><path d="M125.48,148.171c0.545,-0.924 1.539,-1.49 2.613,-1.485c1.073,0.005 2.062,0.58 2.598,1.509c34.93,61.142 52.258,131.928 71.128,201.87l-147.424,0c15.533,-68.56 32.981,-136.825 71.085,-201.894Z"/></clipPath><g clip-path="url(#_clip10)"><path d="M128.107,144.725c28.67,67.143 39.383,133.695 58.712,205.34l-147.424,0c8.008,-79.183 32.193,-158.028 88.712,-205.34Z" style="fill:#4a1623;"/></g><path d="M186.116,215.567c0.544,-0.925 1.539,-1.491 2.612,-1.486c1.073,0.005 2.063,0.58 2.599,1.51c34.929,61.142 52.258,131.928 71.128,201.87l-147.424,0c15.533,-68.56 32.98,-136.825 71.085,-201.894Z" style="fill:#601c29;"/><clipPath id="_clip11"><path d="M186.116,215.567c0.544,-0.925 1.539,-1.491 2.612,-1.486c1.073,0.005 2.063,0.58 2.599,1.51c34.929,61.142 52.258,131.928 71.128,201.87l-147.424,0c15.533,-68.56 32.98,-136.825 71.085,-201.894Z"/></clipPath><g clip-path="url(#_clip11)"><path d="M188.743,212.121c28.67,67.143 39.383,133.695 58.712,205.34l-147.424,0c8.008,-79.184 32.193,-158.028 88.712,-205.34Z" style="fill:#4a1623;"/></g><path d="M0.878,243.416l97.247,0c15.599,0 30.304,7.28 39.762,19.685c7.194,9.435 15.789,20.708 22.983,30.144c9.458,12.404 24.163,19.684 39.761,19.684l52.286,0c12.816,0 25.142,4.921 34.435,13.748c27.628,26.242 87.655,83.26 116.048,110.23c9.887,9.392 23.181,14.337 36.802,13.692c40.799,-1.934 129.399,-6.133 169.38,-8.028c13.014,-0.616 25.274,-6.289 34.168,-15.809c17.694,-18.938 48.167,-51.554 66.306,-70.968c9.455,-10.12 22.685,-15.865 36.535,-15.865l108.295,0c12.974,0 25.44,-5.043 34.765,-14.064c18.915,-18.298 51.775,-50.086 70.69,-68.385c9.324,-9.021 21.79,-14.064 34.764,-14.064c52.534,0 193.433,0 254.215,0c17.697,0 34.076,9.355 43.067,24.599c3.889,6.593 8.094,13.722 11.983,20.316c8.991,15.243 25.369,24.598 43.067,24.598c29.677,0 75.901,0 105.928,0c18.208,0 34.976,-9.898 43.775,-25.839c15.697,-28.439 40.78,-73.884 56.477,-102.322c8.798,-15.941 25.567,-25.839 43.775,-25.839c57.833,0 180.486,0 180.486,0l0,322.68l-1777,0l0,-238.193Z" style="fill:#601c29;"/><path d="M737.879,354.011c0.128,-0.145 0.264,-0.289 0.405,-0.431c1.958,-1.958 4.381,-2.714 5.407,-1.688c1.027,1.027 0.27,3.449 -1.687,5.407c-1.211,1.211 -2.6,1.962 -3.726,2.116c-0.127,0.021 -0.26,0.031 -0.399,0.03c-0.139,0.001 -0.273,-0.009 -0.4,-0.03c-1.126,-0.154 -2.514,-0.905 -3.725,-2.116c-1.958,-1.958 -2.714,-4.38 -1.688,-5.407c1.026,-1.026 3.449,-0.27 5.407,1.688c0.142,0.142 0.277,0.286 0.406,0.431Z" style="fill:#4a1623;"/><path d="M330.377,379.409c0.129,-0.146 0.264,-0.29 0.406,-0.432c1.958,-1.957 4.38,-2.714 5.407,-1.687c1.026,1.026 0.27,3.449 -1.688,5.407c-1.211,1.21 -2.599,1.962 -3.726,2.116c-0.127,0.021 -0.26,0.03 -0.399,0.029c-0.139,0.001 -0.272,-0.008 -0.399,-0.029c-1.127,-0.154 -2.515,-0.906 -3.726,-2.116c-1.958,-1.958 -2.714,-4.381 -1.688,-5.407c1.027,-1.027 3.449,-0.27 5.407,1.687c0.142,0.142 0.277,0.286 0.406,0.432Z" style="fill:#4a1623;"/><path d="M86.884,251.369c0.129,-0.146 0.264,-0.29 0.406,-0.431c1.958,-1.958 4.381,-2.715 5.407,-1.688c1.026,1.026 0.27,3.449 -1.688,5.407c-1.211,1.211 -2.599,1.962 -3.725,2.116c-0.127,0.021 -0.261,0.031 -0.4,0.03c-0.139,0.001 -0.272,-0.009 -0.399,-0.03c-1.126,-0.154 -2.515,-0.905 -3.726,-2.116c-1.957,-1.958 -2.714,-4.381 -1.687,-5.407c1.026,-1.027 3.449,-0.27 5.407,1.688c0.141,0.141 0.277,0.285 0.405,0.431Z" style="fill:#4a1623;"/><path d="M936.566,292.83c0.129,-0.146 0.264,-0.29 0.406,-0.431c1.958,-1.958 4.381,-2.714 5.407,-1.688c1.026,1.026 0.27,3.449 -1.688,5.407c-1.211,1.211 -2.599,1.962 -3.725,2.116c-0.127,0.021 -0.261,0.031 -0.4,0.03c-0.139,0.001 -0.272,-0.009 -0.399,-0.03c-1.126,-0.154 -2.515,-0.905 -3.726,-2.116c-1.957,-1.958 -2.714,-4.381 -1.687,-5.407c1.026,-1.026 3.449,-0.27 5.407,1.688c0.141,0.141 0.277,0.285 0.405,0.431Z" style="fill:#4a1623;"/><path d="M1092.94,255.025c0.128,-0.145 0.264,-0.289 0.405,-0.431c1.958,-1.958 4.381,-2.714 5.407,-1.688c1.027,1.026 0.27,3.449 -1.687,5.407c-1.211,1.211 -2.6,1.962 -3.726,2.116c-0.127,0.021 -0.26,0.031 -0.399,0.03c-0.139,0.001 -0.273,-0.009 -0.4,-0.03c-1.126,-0.154 -2.515,-0.905 -3.725,-2.116c-1.958,-1.958 -2.714,-4.381 -1.688,-5.407c1.026,-1.026 3.449,-0.27 5.407,1.688c0.142,0.142 0.277,0.286 0.406,0.431Z" style="fill:#4a1623;"/><path d="M1230.53,248.605c0.128,-0.146 0.264,-0.29 0.405,-0.432c1.958,-1.957 4.381,-2.714 5.407,-1.687c1.027,1.026 0.27,3.449 -1.687,5.407c-1.211,1.21 -2.6,1.962 -3.726,2.116c-0.127,0.021 -0.26,0.03 -0.399,0.029c-0.139,0.001 -0.273,-0.008 -0.4,-0.029c-1.126,-0.154 -2.514,-0.906 -3.725,-2.116c-1.958,-1.958 -2.714,-4.381 -1.688,-5.407c1.026,-1.027 3.449,-0.27 5.407,1.687c0.142,0.142 0.277,0.286 0.406,0.432Z" style="fill:#4a1623;"/><path d="M1348.01,321.998c0.128,-0.146 0.264,-0.29 0.405,-0.432c1.958,-1.957 4.381,-2.714 5.407,-1.687c1.027,1.026 0.27,3.449 -1.687,5.407c-1.211,1.21 -2.6,1.962 -3.726,2.116c-0.127,0.021 -0.26,0.03 -0.399,0.029c-0.139,0.001 -0.273,-0.008 -0.4,-0.029c-1.126,-0.154 -2.515,-0.906 -3.725,-2.116c-1.958,-1.958 -2.714,-4.381 -1.688,-5.407c1.026,-1.027 3.449,-0.27 5.407,1.687c0.142,0.142 0.277,0.286 0.406,0.432Z" style="fill:#4a1623;"/><path d="M1609.19,165.792c0.129,-0.146 0.264,-0.29 0.406,-0.431c1.958,-1.958 4.381,-2.715 5.407,-1.688c1.026,1.026 0.27,3.449 -1.688,5.407c-1.211,1.211 -2.599,1.962 -3.725,2.116c-0.127,0.021 -0.261,0.031 -0.4,0.03c-0.139,0.001 -0.272,-0.009 -0.399,-0.03c-1.126,-0.154 -2.515,-0.905 -3.726,-2.116c-1.957,-1.958 -2.714,-4.381 -1.687,-5.407c1.026,-1.027 3.449,-0.27 5.407,1.688c0.141,0.141 0.277,0.285 0.405,0.431Z" style="fill:#4a1623;"/><path d="M1526.58,287.239c0.129,-0.146 0.264,-0.29 0.406,-0.431c1.957,-1.958 4.38,-2.715 5.407,-1.688c1.026,1.026 0.27,3.449 -1.688,5.407c-1.211,1.211 -2.6,1.962 -3.726,2.116c-0.127,0.021 -0.26,0.031 -0.399,0.03c-0.139,0.001 -0.273,-0.009 -0.4,-0.03c-1.126,-0.154 -2.514,-0.905 -3.725,-2.116c-1.958,-1.958 -2.714,-4.381 -1.688,-5.407c1.027,-1.027 3.449,-0.27 5.407,1.688c0.142,0.141 0.277,0.285 0.406,0.431Z" style="fill:#4a1623;"/><path d="M0.878,263.416l77.247,0c15.599,0 30.304,7.28 39.762,19.685c7.194,9.435 15.789,20.708 22.983,30.144c9.458,12.404 24.163,19.684 39.761,19.684l52.484,0c12.698,0 24.92,4.831 34.186,13.512c22.291,20.885 64.864,60.771 87.155,81.656c9.266,8.682 21.488,13.512 34.186,13.512l269.266,0c14.001,0 27.36,-5.87 36.83,-16.182c13.123,-14.292 32.158,-35.023 45.281,-49.315c9.469,-10.313 22.829,-16.183 36.829,-16.183l108.038,0c12.974,0 25.44,-5.043 34.765,-14.064c18.915,-18.298 51.775,-50.086 70.69,-68.385c9.324,-9.021 21.79,-14.064 34.764,-14.064c44.812,0 152.56,0 204.215,0c17.697,0 34.076,9.355 43.067,24.599c3.889,6.593 8.094,13.722 11.983,20.316c8.991,15.243 25.369,24.598 43.067,24.598l155.928,0c18.208,0 34.976,-9.898 43.775,-25.839c15.697,-28.439 40.78,-73.884 56.477,-102.322c8.798,-15.941 25.567,-25.839 43.775,-25.839l150.486,0l0,272.68l-1777,0l0,-188.193Z" style="fill:#4a1623;"/><g><rect x="1660.94" y="167.067" width="3" height="22" style="fill:#4a1623;"/><rect x="1655.04" y="173.888" width="3" height="22" style="fill:#4a1623;"/><path d="M1664.44,162.969c0,-0.551 -0.448,-1 -1,-1l-2,0c-0.552,0 -1,0.449 -1,1l0,4.098c0,0.552 0.448,1 1,1l2,0c0.552,0 1,-0.448 1,-1l0,-4.098Z" style="fill:#912838;"/></g><g><rect x="911.009" y="336.401" width="3" height="22" style="fill:#4a1623;"/><rect x="905.113" y="343.222" width="3" height="22" style="fill:#4a1623;"/><path d="M914.509,332.303c0,-0.552 -0.449,-1 -1,-1l-2,0c-0.552,0 -1,0.448 -1,1l0,4.098c0,0.552 0.448,1 1,1l2,0c0.551,0 1,-0.448 1,-1l0,-4.098Z" style="fill:#912838;"/></g><g><rect x="115.837" y="271.481" width="3" height="22" style="fill:#4a1623;"/><rect x="121.733" y="278.302" width="3" height="22" style="fill:#4a1623;"/><path d="M115.337,267.383c0,-0.552 0.448,-1 1,-1l2,0c0.552,0 1,0.448 1,1l0,4.098c0,0.552 -0.448,1 -1,1l-2,0c-0.552,0 -1,-0.448 -1,-1l0,-4.098Z" style="fill:#912838;"/></g><g><path d="M196.132,320.465l3.297,-0.003l0.002,1.733l-3.297,0.003l-0.002,-1.733Z" style="fill:#4a1623;"/><path d="M191.102,320.47l3.297,-0.003l0.002,1.732l-3.297,0.003l-0.002,-1.732Z" style="fill:#4a1623;"/><path d="M196.13,318.065l0.002,2.4l-1.733,0.002l-0.002,-2.4l1.733,-0.002Z" style="fill:#4a1623;"/><path d="M196.134,322.198l0.002,2.4l-1.733,0.001l-0.002,-2.4l1.733,-0.001Z" style="fill:#4a1623;"/></g><g><path d="M39.472,254.928l3.297,-0.003l0.002,1.733l-3.297,0.003l-0.002,-1.733Z" style="fill:#4a1623;"/><path d="M34.443,254.933l3.297,-0.003l0.001,1.733l-3.297,0.003l-0.001,-1.733Z" style="fill:#4a1623;"/><path d="M39.47,252.528l0.002,2.4l-1.732,0.002l-0.003,-2.4l1.733,-0.002Z" style="fill:#4a1623;"/><path d="M39.474,256.661l0.002,2.4l-1.733,0.002l-0.002,-2.4l1.733,-0.002Z" style="fill:#4a1623;"/></g><g><path d="M303.58,369.19l3.297,-0.003l0.002,1.733l-3.297,0.003l-0.002,-1.733Z" style="fill:#4a1623;"/><path d="M298.55,369.194l3.297,-0.003l0.002,1.733l-3.297,0.003l-0.002,-1.733Z" style="fill:#4a1623;"/><path d="M303.578,366.79l0.002,2.4l-1.733,0.001l-0.002,-2.4l1.733,-0.001Z" style="fill:#4a1623;"/><path d="M303.582,370.923l0.002,2.4l-1.733,0.001l-0.002,-2.4l1.733,-0.001Z" style="fill:#4a1623;"/></g><g><path d="M837.147,351.15l3.297,-0.003l0.001,1.733l-3.297,0.003l-0.001,-1.733Z" style="fill:#4a1623;"/><path d="M832.117,351.155l3.297,-0.003l0.001,1.733l-3.297,0.003l-0.001,-1.733Z" style="fill:#4a1623;"/><path d="M837.144,348.75l0.003,2.4l-1.733,0.002l-0.002,-2.4l1.732,-0.002Z" style="fill:#4a1623;"/><path d="M837.148,352.883l0.002,2.4l-1.732,0.002l-0.003,-2.4l1.733,-0.002Z" style="fill:#4a1623;"/></g><g><path d="M1199.74,247.975l3.297,-0.003l0.002,1.732l-3.297,0.003l-0.002,-1.732Z" style="fill:#4a1623;"/><path d="M1194.71,247.979l3.297,-0.003l0.002,1.733l-3.297,0.003l-0.002,-1.733Z" style="fill:#4a1623;"/><path d="M1199.74,245.575l0.002,2.4l-1.733,0.001l-0.002,-2.4l1.733,-0.001Z" style="fill:#4a1623;"/><path d="M1199.75,249.707l0.002,2.4l-1.733,0.002l-0.002,-2.4l1.733,-0.002Z" style="fill:#4a1623;"/></g><g><path d="M1422.01,326.508l3.297,-0.003l0.002,1.733l-3.297,0.003l-0.002,-1.733Z" style="fill:#4a1623;"/><path d="M1416.98,326.513l3.297,-0.003l0.002,1.733l-3.297,0.003l-0.002,-1.733Z" style="fill:#4a1623;"/><path d="M1422.01,324.108l0.002,2.4l-1.733,0.002l-0.002,-2.4l1.733,-0.002Z" style="fill:#4a1623;"/><path d="M1422.01,328.241l0.002,2.4l-1.733,0.002l-0.002,-2.4l1.733,-0.002Z" style="fill:#4a1623;"/></g></g><g><path d="M560.419,283.769c-5.019,5.963 -5.489,5.511 -11,0c5.845,5.582 4.486,6.359 0,11c3.198,-4.064 5.869,-5.009 11,0c-5.071,-5.071 -5.511,-5.489 0,-11Z" style="fill:#fff;"/><path d="M616.593,328.161c-6.89,-3.643 -6.548,-4.198 -2.329,-10.751c-4.218,6.894 -5.265,5.731 -10.75,2.328c4.649,2.266 6.137,4.676 2.328,10.751c3.882,-6.029 4.198,-6.548 10.751,-2.328Z" style="fill:#fff;"/><circle cx="350.918" cy="398.224" r="2.084" style="fill:#ffa13c;"/><circle cx="233.721" cy="463.647" r="2.084" style="fill:#ffa13c;"/><circle cx="53.566" cy="381.839" r="2.084" style="fill:#ffa13c;"/><g><rect x="6.176" y="316.481" width="3.688" height="11.974" style="fill:#4a1623;"/><circle cx="8.02" cy="313.861" r="4.666" style="fill:#912838;stroke:#4a1623;stroke-width:3px;"/></g><g><rect x="152.491" y="378.917" width="3.688" height="11.974" style="fill:#4a1623;"/><circle cx="154.335" cy="376.297" r="4.666" style="fill:#912838;stroke:#4a1623;stroke-width:3px;"/></g><g><rect x="285.994" y="395.123" width="3.688" height="11.974" style="fill:#4a1623;"/><circle cx="287.838" cy="392.503" r="4.666" style="fill:#912838;stroke:#4a1623;stroke-width:3px;"/></g><g><rect x="352.817" y="475.333" width="3.688" height="11.974" style="fill:#4a1623;"/><circle cx="354.661" cy="472.714" r="4.666" style="fill:#912838;stroke:#4a1623;stroke-width:3px;"/></g><g><rect x="702.947" y="466.111" width="3.688" height="11.974" style="fill:#4a1623;"/><circle cx="704.791" cy="463.491" r="4.666" style="fill:#912838;stroke:#4a1623;stroke-width:3px;"/></g><g><rect x="1059.52" y="317.901" width="3.688" height="11.974" style="fill:#4a1623;"/><circle cx="1061.37" cy="315.281" r="4.666" style="fill:#912838;stroke:#4a1623;stroke-width:3px;"/></g><g><rect x="857.721" y="401.361" width="3.688" height="11.974" style="fill:#4a1623;"/><circle cx="859.565" cy="398.742" r="4.666" style="fill:#912838;stroke:#4a1623;stroke-width:3px;"/></g><g><rect x="1376.5" y="371.542" width="3.688" height="11.974" style="fill:#4a1623;"/><circle cx="1378.34" cy="368.922" r="4.666" style="fill:#912838;stroke:#4a1623;stroke-width:3px;"/></g><g><rect x="1714.19" y="217.565" width="3.688" height="11.974" style="fill:#4a1623;"/><circle cx="1716.03" cy="214.945" r="4.666" style="fill:#912838;stroke:#4a1623;stroke-width:3px;"/></g></g><g><circle cx="64.962" cy="222.845" r="2.084" style="fill:#ffa13c;"/><circle cx="259.858" cy="304.51" r="2.084" style="fill:#ffa13c;"/><circle cx="412.962" cy="236.845" r="2.084" style="fill:#ffa13c;"/><circle cx="431.731" cy="324.495" r="2.084" style="fill:#ffa13c;"/><circle cx="512.823" cy="310.845" r="2.084" style="fill:#ffa13c;"/><circle cx="637.191" cy="283.845" r="2.084" style="fill:#ffa13c;"/><circle cx="448.556" cy="457.119" r="2.084" style="fill:#ffa13c;"/><circle cx="605.478" cy="395.231" r="2.084" style="fill:#ffa13c;"/><circle cx="754.478" cy="295.231" r="2.084" style="fill:#ffa13c;"/><circle cx="870.408" cy="357.026" r="2.084" style="fill:#ffa13c;"/><circle cx="763.635" cy="452.158" r="2.084" style="fill:#ffa13c;"/><circle cx="989.24" cy="431.808" r="2.084" style="fill:#ffa13c;"/><circle cx="928.347" cy="223.159" r="2.084" style="fill:#ffa13c;"/><circle cx="1066.67" cy="178.331" r="2.084" style="fill:#ffa13c;"/><circle cx="1199.07" cy="291.636" r="2.084" style="fill:#ffa13c;"/><circle cx="1351.19" cy="217.144" r="2.084" style="fill:#ffa13c;"/><circle cx="1438.52" cy="247.533" r="2.084" style="fill:#ffa13c;"/><circle cx="1567.57" cy="193.178" r="2.084" style="fill:#ffa13c;"/><circle cx="1653.67" cy="276.859" r="2.084" style="fill:#ffa13c;"/><circle cx="1740.42" cy="376.094" r="2.084" style="fill:#ffa13c;"/><circle cx="1555.4" cy="409.794" r="2.084" style="fill:#ffa13c;"/><circle cx="1371.27" cy="471.513" r="2.084" style="fill:#ffa13c;"/><circle cx="1197.89" cy="377.375" r="2.084" style="fill:#ffa13c;"/><g><rect x="557.395" y="317.41" width="50.871" height="28.885" style="fill:#912838;"/><rect x="557.395" y="311.629" width="50.871" height="28.885" style="fill:#de7e42;"/><rect x="563.443" y="311.629" width="38.777" height="23.126" style="fill:#912838;"/><rect x="557.395" y="289.269" width="50.871" height="31.165" style="fill:#ffb05c;"/><rect x="557.395" y="297.334" width="50.871" height="23.1" style="fill:#e8924d;"/><rect x="576.502" y="318.154" width="12.659" height="7.917" style="fill:#ffa13c;"/><rect x="557.395" y="289.269" width="6.047" height="31.165" style="fill:#ffa13c;"/><rect x="579.807" y="289.269" width="6.047" height="31.165" style="fill:#ffa13c;"/><rect x="602.219" y="289.269" width="6.047" height="31.165" style="fill:#ffa13c;"/><path d="M557.395,314.386l0,6.048l50.872,0l0,-6.048l-50.872,0Z" style="fill:#ffa13c;"/></g><g><rect x="1430.52" y="120.929" width="48.362" height="32" style="fill:#bf5047;"/><rect x="1427.88" y="120.929" width="48.362" height="32" style="fill:#912838;"/><rect x="1453.13" y="152.929" width="6.5" height="17" style="fill:#bf5047;"/><rect x="1450.13" y="152.929" width="6.5" height="24" style="fill:#912838;"/><rect x="1433.15" y="126.929" width="37.81" height="20" style="fill:#de7e42;"/></g></g></g></g></svg>
