<?xml version="1.0" encoding="UTF-8" standalone="no"?><!DOCTYPE svg PUBLIC "-//W3C//DTD SVG 1.1//EN" "http://www.w3.org/Graphics/SVG/1.1/DTD/svg11.dtd"><svg width="100%" height="100%" viewBox="0 0 224 26" version="1.1" xmlns="http://www.w3.org/2000/svg" xmlns:xlink="http://www.w3.org/1999/xlink" xml:space="preserve" xmlns:serif="http://www.serif.com/" style="fill-rule:evenodd;clip-rule:evenodd;stroke-linejoin:round;stroke-miterlimit:2;"><path d="M5.1,21.72l0.33,-0.03l0.21,-0.03l0.33,0l0.21,-0.03l0.27,0.03l0.21,-0.03l0.39,-0.12l0.24,-0.03l0.45,-0.15l0.18,-0.12l0.36,-0.09l0.27,-0.21l0.3,-0.18l0.24,-0.21l0.15,-0.12l0.24,-0.27l0.15,-0.12l0.15,-0.3l0.18,-0.12l0.27,-0.51l0.15,-0.42l0.06,-0.27l0.06,-0.24l0.12,-0.39l0,-0.45l0.03,-0.18l0.09,-0.42l0,-0.84l0.03,-0.21l-0.03,-0.21l0.03,-0.18l0.03,-0.42l-0.06,-0.18l-0.15,-0.51l-0.03,-0.21l-0.03,-0.24l-0.03,-0.21l-0.18,-0.63l-0.18,-0.39l-0.24,-0.6l-0.03,-0.15l-0.27,-0.33l-0.21,-0.51l-0.36,-0.36l-0.15,-0.27l-0.27,-0.3l-0.09,-0.15l-0.15,-0.09l-0.09,-0.18l-0.3,-0.24l-0.18,-0.12l-0.12,-0.15l-0.12,-0.24l-0.15,-0.15l-0.12,-0.18l-0.39,-0.48l-0.33,-0.42l-0.21,-0.39l-0.12,-0.24l-0.24,-0.42l-0.21,-0.57l-0.03,-0.21l0,-0.39l0.03,-0.42l0.09,-0.3l0.03,-0.21l0.12,-0.3l0.09,-0.21l0.15,-0.21l0.33,-0.15l0.36,-0.12l0.39,0.06l0.3,0.24l0.27,0.27l0.09,0.18l0.06,0.36l0,0.69l-0.09,0.93l-0.06,0.24l0.03,0.39l0.24,0.21l0.42,0l0.42,0.03l1.68,0l0.54,-0.03l0.36,-0.18l0.12,-0.66l0.12,-0.84l0.03,-0.51l-0.03,-0.6l0,-0.66l-0.18,-0.72l-0.09,-0.21l-0.06,-0.33l-0.12,-0.18l-0.21,-0.33l-0.09,-0.15l-0.3,-0.33l-0.09,-0.12l-0.33,-0.3l-0.24,-0.09l-0.21,-0.18l-0.36,-0.18l-0.12,-0.09l-0.21,-0.03l-0.51,-0.15l-0.45,-0.03l-0.27,-0.06l-0.21,0l-0.75,-0.03l-0.93,0l-0.51,0.15l-0.57,0.12l-0.33,0.18l-0.48,0.18l-0.54,0.39l-0.36,0.3l-0.18,0.18l-0.18,0.3l-0.09,0.12l-0.24,0.27l-0.09,0.15l-0.09,0.21l-0.12,0.24l-0.18,0.39l-0.03,0.3l-0.09,0.3l-0.12,0.21l-0.03,0.42l-0.09,0.21l-0.06,0.6l0,0.87l-0.03,0.21l0.03,0.24l0.03,0.39l0.12,0.39l0.06,0.24l0.09,0.21l0.15,0.21l0.12,0.27l0.18,0.45l0.18,0.3l0.15,0.21l0.3,0.24l0.3,0.33l0.27,0.39l0.36,0.39l0.33,0.39l0.12,0.18l0.15,0.15l0.33,0.39l0.15,0.24l0.21,0.21l0.09,0.15l0.06,0.15l0.12,0.18l0.21,0.42l0.24,0.36l0.24,0.42l0.09,0.45l0,0.18l0.12,0.54l0,0.48l0.03,0.42l0,0.21l-0.03,0.3l-0.06,0.36l-0.12,0.36l-0.12,0.21l-0.15,0.27l-0.15,0.15l-0.33,0.09l-0.24,0.06l-0.27,0l-0.39,-0.09l-0.3,-0.3l-0.21,-0.45l-0.09,-0.3l-0.06,-0.66l0,-0.63l0.03,-0.21l0,-1.11l-0.24,-0.42l-0.39,-0.03l-1.68,0l-0.36,-0.03l-0.72,0.06l-0.42,0.21l-0.09,0.48l-0.06,0.21l-0.03,0.24l-0.06,0.45l0.03,0.21l-0.03,0.51l0,0.9l0.06,0.48l0.03,0.18l0.09,0.42l0.03,0.18l0.21,0.54l0.06,0.24l0.21,0.51l0.27,0.42l0.3,0.36l0.3,0.39l0.36,0.24l0.3,0.21l0.33,0.12l0.48,0.21l0.21,0.06l0.63,0.12l0.3,0l0.21,0.03l0.72,0.06Z" style="fill:#050505;fill-rule:nonzero;"/><path d="M17.61,21.51l0.6,0l0.45,-0.03l0.69,0l0.6,-0.06l0.18,-0.06l0.27,-0.06l0.36,-0.09l0.18,-0.06l0.48,-0.18l0.15,-0.12l0.36,-0.15l0.24,-0.15l0.27,-0.15l0.24,-0.3l0.27,-0.21l0.18,-0.27l0.12,-0.27l0.15,-0.21l0.12,-0.21l0.18,-0.42l0.12,-0.18l0.21,-0.39l0.09,-0.39l0.15,-0.18l0.09,-0.51l0.12,-0.39l0.12,-0.36l0.06,-0.21l0.06,-0.18l0,-0.21l0.06,-0.27l0.09,-0.33l0.06,-0.21l0,-0.18l0.09,-0.39l0.12,-0.36l0,-0.06l0.09,-0.42l0.03,-0.21l0.12,-0.42l0.09,-0.39l0.06,-0.36l0.03,-0.39l0.12,-0.24l0.06,-0.42l0,-0.21l0.12,-0.42l0.03,-0.42l0.06,-0.42l0.03,-0.18l0.09,-0.42l0,-0.18l0.09,-0.45l0.21,-0.66l-0.03,-0.21l0.06,-0.21l0.03,-0.18l0.06,-0.21l0,-0.21l0.09,-0.36l0.06,-0.27l0.09,-0.27l0.06,-0.27l0.09,-0.33l0,-0.18l0.12,-0.36l-0.03,-0.18l0.12,-0.39l0.03,-0.21l0.06,-0.24l0.03,-0.21l0.12,-0.42l0.03,-0.24l0.06,-0.42l0.06,-0.24l0.03,-0.45l0.18,-0.42l-0.03,-0.45l-0.24,-0.24l-0.24,-0.03l-0.27,0.03l-0.21,0.03l-0.3,-0.03l-0.21,0.03l-0.24,0l-0.21,-0.03l-0.21,0l-0.87,0.03l-0.21,-0.03l-0.21,0l-0.9,0.03l-0.09,0.21l-0.03,0.24l-0.09,0.39l-0.09,0.42l-0.09,0.39l-0.03,0.18l-0.03,0.36l-0.03,0.18l-0.15,0.33l0.03,0.21l-0.06,0.39l-0.06,0.42l-0.09,0.42l-0.03,0.24l-0.06,0.42l-0.03,0.24l-0.12,0.42l0.03,0.33l-0.18,0.3l0,0.42l-0.03,0.15l-0.06,0.42l0,0.24l-0.12,0.42l-0.03,0.24l-0.12,0.42l-0.06,0.36l-0.09,0.39l-0.06,0.39l0,0.24l-0.15,0.42l-0.06,0.21l-0.03,0.36l-0.12,0.54l-0.06,0.3l-0.06,0.39l-0.03,0.21l-0.06,0.24l-0.06,0.21l-0.03,0.27l-0.06,0.27l-0.06,0.18l-0.03,0.3l-0.06,0.21l-0.09,0.42l-0.15,0.6l-0.06,0.18l-0.06,0.27l-0.15,0.3l-0.21,0.48l-0.09,0.18l-0.18,0.24l-0.3,0.24l-0.69,0.09l-0.63,-0.09l-0.33,-0.09l-0.33,-0.39l-0.03,-0.36l0,-0.33l-0.03,-0.48l0.03,-0.21l0.03,-0.18l0.03,-0.27l0.09,-0.72l0.09,-0.39l0.03,-0.42l0.09,-0.6l0.15,-1.08l0.06,-0.36l0.12,-0.39l0,-0.39l0.09,-0.36l0.06,-0.18l0.06,-0.21l0.03,-0.24l0.03,-0.27l0.12,-0.27l-0.06,-0.39l0.03,-0.18l0.15,-0.42l0,-0.21l0.06,-0.24l0.03,-0.21l0.03,-0.3l0.09,-0.21l0.03,-0.18l0.06,-0.45l0.09,-0.45l0.03,-0.24l0.15,-0.42l0.03,-0.21l0,-0.3l0.03,-0.24l0.06,-0.39l0.12,-0.36l0,-0.21l0.06,-0.18l0.03,-0.21l0.06,-0.24l0.06,-0.27l0.06,-0.21l-0.03,-0.42l0.06,-0.21l0.06,-0.18l0,-0.42l-0.03,-0.45l-0.27,-0.21l-0.48,-0.03l-0.27,-0.03l-0.72,0.06l-1.26,-0.03l-0.27,0.03l-0.15,0l-0.51,0.03l-0.18,0.06l-0.06,0.24l-0.12,0.42l-0.06,0.42l-0.06,0.3l-0.06,0.15l-0.15,0.39l-0.09,0.84l-0.06,0.18l0,0.21l-0.09,0.42l0,0.24l-0.03,0.24l-0.09,0.42l-0.03,0.24l-0.03,0.21l-0.15,0.39l-0.03,0.18l0,0.21l-0.06,0.39l-0.06,0.18l-0.09,0.84l-0.09,0.18l-0.03,0.42l0,0.24l-0.12,0.42l-0.09,0.39l-0.03,0.42l-0.12,0.39l0,0.39l-0.06,0.21l-0.09,0.36l-0.03,0.21l0.03,0.21l-0.09,0.36l-0.03,0.18l-0.03,0.21l-0.12,0.36l0,0.39l-0.06,0.3l-0.06,0.36l-0.03,0.45l-0.03,0.39l-0.12,0.81l-0.06,0.27l-0.03,1.02l-0.03,0.18l0.12,1.02l0.03,0.42l0.12,0.48l0.24,0.42l0.24,0.48l0.03,0.09l0.15,0.24l0.33,0.39l0.3,0.3l0.6,0.36l0.18,0.09l0.21,0.09l0.51,0.18l0.12,0.06l0.21,0.06l1.23,0.15Z" style="fill:#050505;fill-rule:nonzero;"/><path d="M27.87,21.39l3.18,0l0.33,-0.12l0.09,-0.3l0.12,-0.36l0.09,-0.54l0.06,-0.18l0,-0.39l0.03,-0.21l0.09,-0.39l0.12,-0.87l0.06,-0.21l0.03,-0.18l0.06,-0.42l0.12,-0.6l0.12,-0.45l0.06,-0.42l0.03,-0.18l-0.03,-0.21l0.06,-0.21l0.09,-0.36l-0.06,-0.21l0.09,-0.39l0.06,-0.18l0.12,-1.17l0.21,-1.44l0.03,-0.75l0.06,-0.51l0.03,-0.33l0.03,-0.6l0.03,-0.84l0.09,0l0.18,1.14l0.18,1.08l0.09,0.84l0.15,0.96l0.12,0.84l0.06,0.57l0.12,0.6l0,0.45l0.03,0.18l0.09,0.42l0.03,0.18l0.09,0.42l0,0.18l0.09,0.45l0.09,0.33l0.03,0.45l0.06,0.42l0.03,0.18l0.12,0.63l0.03,0.18l0.06,0.63l0.03,0.18l0.03,0.36l0.03,0.15l0.15,0.42l0.24,0.48l0.24,0.21l0.51,0l0.39,0.03l0.6,0l0.18,-0.03l0.3,0.03l0.21,-0.03l0.57,0.03l0.12,0l0.33,-0.06l0.42,-0.03l0.3,-0.21l0.27,-0.36l0.15,-0.96l0.09,-0.39l0.06,-0.21l0,-0.18l0.15,-0.39l0,-0.48l0.12,-0.42l0.09,-0.24l0.06,-0.39l0.03,-0.39l0.03,-0.33l0.12,-0.36l0.12,-0.27l0.06,-0.3l0.06,-0.42l0.12,-0.42l0,-0.18l0.03,-0.18l0.03,-0.21l0.03,-0.18l0.03,-0.27l0.06,-0.27l0.09,-0.42l0.09,-0.18l0,-0.39l0.03,-0.18l0.03,-0.21l0.06,-0.18l0.03,-0.21l0.06,-0.18l-0.03,-0.27l0.06,-0.24l0.06,-0.42l0.09,-0.39l0.06,-0.21l0.09,-0.39l0.06,-0.24l0.03,-0.21l0.03,-0.33l0.09,-0.27l0.12,-0.9l0.06,-0.21l0,-0.39l0.06,-0.21l0.06,-0.24l0.09,-0.27l0.06,-0.48l0.12,-0.48l0.09,-0.63l0.06,-0.24l0.09,-0.54l0.09,-0.33l0.18,-0.72l0.06,-0.42l0.09,-0.66l-0.03,-0.24l0.09,-0.42l0,-0.24l-0.03,-0.24l-0.18,-0.09l-0.42,-0.09l-0.42,0.03l-0.3,0l-0.69,-0.03l-0.3,0l-0.21,0.03l-0.63,-0.06l-0.57,0.12l-0.12,0.09l-0.24,0.42l-0.12,0.63l-0.09,0.48l-0.03,0.18l0,0.27l-0.09,0.24l-0.06,0.21l-0.09,0.42l-0.03,0.24l-0.06,0.42l-0.06,0.18l-0.03,0.21l-0.09,0.39l0,0.18l-0.09,0.54l0.03,0.21l-0.18,0.36l0,0.21l-0.03,0.36l0,0.36l-0.12,0.39l0,0.18l-0.06,0.42l-0.06,0.18l-0.03,0.42l-0.03,0.24l-0.03,0.21l-0.03,0.18l-0.09,0.42l0,1.02l-0.09,0.63l-0.09,1.44l0,0.42l-0.06,0.72l-0.03,0.6l-0.09,0l-0.09,-0.66l-0.09,-0.81l-0.06,-0.36l-0.06,-0.21l0,-0.21l-0.06,-0.66l-0.12,-0.69l-0.09,-0.81l-0.06,-0.24l-0.06,-0.42l-0.03,-0.48l-0.09,-0.51l-0.06,-0.51l-0.09,-0.45l-0.03,-0.33l0,-0.21l-0.09,-0.33l0,-0.18l-0.09,-0.39l-0.06,-0.45l-0.03,-0.21l-0.06,-0.24l-0.12,-0.6l-0.09,-0.42l-0.09,-0.51l-0.09,-0.48l-0.12,-0.72l-0.12,-0.42l-0.03,-0.33l-0.06,-0.36l-0.12,-0.3l-0.03,-0.21l-0.18,-0.27l-0.33,-0.09l-0.42,0l-0.45,-0.03l-0.36,0.03l-0.57,-0.03l-0.39,0.03l-0.27,0l-0.51,-0.03l-0.42,0.03l-0.3,0.06l-0.18,0.33l-0.09,0.15l-0.06,0.18l-0.09,0.39l0,0.24l-0.09,0.39l-0.06,0.36l-0.06,0.39l-0.03,0.21l-0.06,0.18l-0.03,0.21l-0.03,0.18l-0.03,0.21l-0.03,0.39l-0.06,0.27l-0.12,0.27l0,0.21l-0.15,0.84l-0.06,0.18l-0.03,0.21l0,0.36l-0.09,0.27l-0.09,0.33l-0.06,0.39l-0.06,0.21l0,0.21l-0.09,0.21l0,0.24l-0.09,0.24l-0.03,0.24l0,0.42l-0.06,0.3l-0.06,0.24l-0.15,0.36l-0.03,0.3l-0.03,0.42l-0.03,0.21l-0.03,0.18l-0.15,0.36l0,0.18l-0.03,0.18l-0.03,0.39l-0.06,0.18l-0.03,0.21l-0.06,0.36l-0.09,0.33l-0.06,0.27l-0.06,0.36l-0.12,0.48l-0.06,0.39l0.03,0.21l-0.03,0.18l-0.09,0.36l-0.03,0.21l-0.03,0.36l-0.12,0.21l0,0.39l-0.06,0.24l0,0.21l-0.09,0.48l-0.06,0.27l-0.09,0.42l-0.06,0.15l-0.09,0.42l-0.03,0.21l-0.12,0.42l-0.06,0.48l0,0.48l-0.06,0.24l0.15,0.36l0.45,0.06Z" style="fill:#050505;fill-rule:nonzero;"/><path d="M48.87,21.39l0.21,-0.03l0.15,0l0.21,-0.03l0.93,0l0.33,-0.12l0.48,-0.06l0.3,-0.06l0.42,-0.12l0.3,-0.21l0.33,-0.09l0.39,-0.18l0.18,-0.12l0.27,-0.24l0.42,-0.33l0.42,-0.51l0.21,-0.36l0.15,-0.18l0.15,-0.21l0.03,-0.18l0.24,-0.24l0.15,-0.3l0.21,-0.6l0.21,-0.42l0.12,-0.42l0.03,-0.18l0.18,-0.39l0.03,-0.33l0.06,-0.18l0.21,-0.39l0.09,-0.21l0.06,-0.36l0.03,-0.39l0.18,-0.63l0.03,-0.3l0.09,-0.24l0.06,-0.24l0.06,-0.69l0.06,-0.45l0.12,-0.57l0,-0.21l0.15,-0.48l0,-0.84l0.03,-0.21l0.06,-0.51l0,-0.21l0.09,-0.48l0,-0.18l0.03,-0.21l-0.06,-0.21l0.03,-0.21l-0.03,-0.18l-0.09,-0.42l0.09,-0.18l-0.03,-0.39l-0.06,-0.6l0.03,-0.21l-0.15,-0.42l0,-0.21l-0.09,-0.51l-0.12,-0.21l-0.18,-0.45l-0.12,-0.42l-0.15,-0.27l-0.12,-0.15l-0.24,-0.36l-0.45,-0.6l-0.18,-0.15l-0.21,-0.15l-0.3,-0.18l-0.12,-0.06l-0.15,-0.09l-0.51,-0.15l-0.18,-0.06l-0.06,0l-0.42,-0.12l-0.24,-0.09l-0.21,0l-0.45,-0.06l-0.27,-0.03l-0.24,-0.03l-0.48,0l-0.18,0.03l-0.33,-0.03l-0.75,0l-0.6,0.03l-0.66,-0.03l-0.24,0l-0.48,0.06l-0.21,-0.03l-0.36,-0.03l-0.21,0l-0.3,0.09l-0.09,0.33l-0.06,0.09l-0.09,0.3l-0.06,0.21l-0.03,0.36l-0.03,0.21l-0.09,0.18l-0.06,0.36l-0.06,0.42l-0.09,0.39l-0.03,0.21l0,0.18l-0.06,0.21l-0.15,0.54l-0.06,0.36l-0.06,0.63l-0.03,0.24l0,0.42l-0.12,0.36l-0.06,0.36l0,0.18l-0.09,0.36l-0.03,0.21l-0.06,0.36l-0.03,0.21l0,0.18l-0.03,0.21l-0.06,0.21l-0.09,0.21l-0.15,0.84l-0.06,0.18l-0.09,0.42l-0.06,0.18l-0.06,0.21l0,0.6l-0.12,0.36l-0.03,0.18l-0.09,0.36l-0.06,0.21l-0.06,0.39l-0.03,0.21l-0.09,0.42l-0.03,0.24l-0.09,0.42l0,0.66l-0.12,0.21l-0.03,0.18l-0.03,0.39l-0.06,0.24l-0.09,0.42l0,0.24l-0.06,0.3l-0.12,0.24l-0.06,0.33l-0.03,0.24l-0.06,0.42l0,0.24l-0.06,0.24l-0.06,0.3l-0.09,0.42l-0.03,0.18l-0.06,0.42l-0.15,0.36l-0.03,0.27l0,0.69l0.24,0.06l0.42,0.06l0.9,0l0.21,-0.03l0.24,0l0.6,0.09l0.27,0l0.24,0.03l0.36,-0.03l0.45,0.06l0.39,-0.03l0.39,0.03l0.69,0.03Zm-0.12,-4.08l-0.42,-0.12l0.06,-0.27l0.09,-0.51l0.03,-0.45l0.06,-0.45l0.12,-0.42l0.03,-0.21l0.12,-0.54l0.09,-0.45l0,-0.18l0.15,-0.42l0.03,-0.18l0,-0.39l0.12,-0.78l0.06,-0.21l-0.03,-0.18l0.06,-0.21l0.09,-0.42l0,-0.18l0.09,-0.42l0.06,-0.18l0.09,-0.42l0,-0.21l0.06,-0.48l0.09,-0.42l0,-0.18l0.09,-0.18l0.03,-0.24l0,-0.21l0.06,-0.21l0.03,-0.18l0.06,-0.66l0.06,-0.42l0.06,-0.39l0.12,-0.42l0.09,-0.45l0.06,-0.21l0,-0.18l0.09,-0.21l0.09,-0.24l0.27,-0.03l0.39,0.03l0.48,0.06l0.51,0.15l0.33,0.27l0.21,0.39l0.18,0.51l0.03,0.24l0.06,0.81l-0.03,0.87l0.03,0.63l-0.06,0.63l-0.03,0.18l-0.09,0.63l0,0.42l-0.15,0.42l-0.06,0.24l-0.03,0.21l-0.06,0.45l-0.06,0.42l-0.06,0.39l-0.03,0.21l-0.09,0.36l-0.06,0.18l-0.06,0.15l-0.03,0.18l-0.12,0.39l-0.09,0.42l-0.09,0.33l-0.18,0.57l-0.15,0.39l-0.15,0.3l-0.12,0.3l-0.12,0.21l-0.09,0.18l-0.21,0.24l-0.24,0.24l-0.15,0.12l-0.33,0.18l-0.24,0.12l-0.3,0.09l-0.9,0Z" style="fill:#050505;fill-rule:nonzero;"/><path d="M59.37,21.39l0.24,-0.03l0.84,0.03l0.18,-0.12l0.12,-0.21l0.09,-0.15l0.09,-0.33l0.18,-0.45l0.3,-0.57l0.12,-0.36l0.09,-0.21l0.06,-0.21l0.21,-0.39l0.15,-0.33l0.81,0l1.32,0.03l0.48,0.06l0.66,0.03l0.03,0.24l0,1.41l-0.03,0.3l0.03,0.3l0.03,0.54l0.06,0.3l0.12,0.09l0.45,0l0.39,0.03l0.3,-0.03l0.21,-0.03l0.36,0.03l0.24,0l0.66,-0.03l0.42,0l0.24,0.03l0.21,-0.03c0.12,0 0.21,0.03 0.33,0c0.15,-0.09 0.12,-0.36 0.09,-0.48l0,-0.63l-0.03,-0.66l0,-0.27l-0.03,-0.24l0.03,-0.42l0,-0.45l-0.03,-0.21l-0.03,-0.39l0,-0.18l-0.06,-1.14l0.03,-0.21l-0.03,-0.42l0.03,-0.45l-0.03,-0.45l0,-0.21l-0.03,-1.38l0,-0.9l-0.03,-0.24l-0.03,-0.36l0,-1.17l-0.06,-0.33l-0.03,-0.48l0,-0.18l-0.03,-0.39l0.03,-0.18l-0.03,-0.42l0,-0.6l-0.06,-0.42l0,-0.66l0.03,-0.21l-0.03,-0.45l0,-0.42l-0.06,-0.6l-0.03,-0.39l0,-0.42l-0.03,-1.08l0,-0.54l-0.06,-0.18l0,-0.66l-0.09,-1.29l-0.21,-0.15l-0.15,-0.06l-0.48,0l-0.27,0.03l-0.21,-0.06l-0.27,0l-0.57,0.03l-0.48,0l-0.3,0.03l-0.57,-0.03l-0.3,0l-0.21,0.03l-0.12,0.33l-0.09,0.18l-0.09,0.21l-0.27,0.54l-0.21,0.39l-0.18,0.54l-0.06,0.15l-0.12,0.18l-0.18,0.33l-0.06,0.21l-0.06,0.18l-0.09,0.18l-0.06,0.21l-0.27,0.54l-0.09,0.21l-0.09,0.3l-0.18,0.27l-0.09,0.18l-0.15,0.39l-0.24,0.63l-0.12,0.18l-0.15,0.21l-0.09,0.42l-0.18,0.39l-0.06,0.15l-0.09,0.39l-0.15,0.21l-0.09,0.39l-0.09,0.18l-0.18,0.33l-0.15,0.51l-0.21,0.39l-0.09,0.24l-0.24,0.84l-0.09,0.18l-0.15,0.42l-0.09,0.18l-0.09,0.21l-0.03,0.18l-0.18,0.42l-0.06,0.21l-0.18,0.36l-0.15,0.24l-0.06,0.27l-0.06,0.21l-0.21,0.42l-0.09,0.21l-0.15,0.39l-0.09,0.18l-0.03,0.21l-0.06,0.18l-0.15,0.36l-0.15,0.21l-0.06,0.18l-0.24,0.54l-0.12,0.39l-0.33,0.72l-0.15,0.36l-0.18,0.36l-0.3,0.9l-0.24,0.39l-0.18,0.36l-0.03,0.18l-0.06,0.21l0.06,0.24l0.27,0.06l2.19,0.03l0.21,0.03l0.45,0.03Zm4.95,-7.23l-0.27,-0.03l-0.33,-0.03l-0.24,0l-0.21,-0.18l0.09,-0.21l0.06,-0.27l0.06,-0.21l0.15,-0.51l0.12,-0.21l0.15,-0.45l0.03,-0.21l0.18,-0.66l0.09,-0.27l0.09,-0.21l0.09,-0.27l0.12,-0.21l0.03,-0.21l0.12,-0.3l0.12,-0.24l0.15,-0.48l0.09,-0.3l0.15,-0.48l0.12,-0.39l0.24,-0.09l0.03,0.69l-0.03,1.08l-0.03,1.14l0.03,0.72l-0.06,0.24l0,0.51l-0.03,0.21l0,0.78l-0.03,0.24l0.03,0.24l-0.03,0.42l-0.18,0.15l-0.9,0Z" style="fill:#050505;fill-rule:nonzero;"/><path d="M73.8,21.33l0.63,0l0.18,-0.03l0.45,0.03l0.27,0l0.18,-0.03l0.24,0.03l1.08,0l0.15,-0.63l0.09,-0.54l0.09,-0.42l0.12,-0.45l0.06,-0.21l0.09,-0.45l0.06,-0.42l0,-0.18l0.06,-0.21l0.09,-0.3l0.03,-0.21l0.12,-0.42l0.12,-0.45l0.09,-0.42l0.09,-0.39l-0.03,-0.18l0.06,-0.18l0.06,-0.36l0.06,-0.3l0.09,-0.33l0.12,-0.39l0,-0.21l0.06,-0.3l0.15,-0.15l0.09,-0.15l0.06,-0.24l0.12,-0.15l0.12,-0.36l0.21,-0.36l0.09,-0.18l0.09,-0.15l0.18,-0.18l0.18,-0.39l0.24,-0.36l0.24,-0.54l0.18,-0.3l0.18,-0.39l0.12,-0.21l0.12,-0.18l0.3,-0.39l0.03,-0.18l0.15,-0.18l0.06,-0.15l0.21,-0.36l0.06,-0.18l0.09,-0.21l0.15,-0.39l0.3,-0.51l0.06,-0.18l0.12,-0.18l0.03,-0.18l0.24,-0.36l0.18,-0.42l0.18,-0.18l0.27,-0.57l0.06,-0.18l0.12,-0.18l0.06,-0.21l0.24,-0.33l0.12,-0.36l0.12,-0.15l0.18,-0.36l0.03,-0.21l0.12,-0.18l0.18,-0.36l0.06,-0.18l0.24,-0.33l0.06,-0.15l0.09,-0.39l0,-0.39l-0.33,-0.18l-0.6,0.03l-0.33,-0.06l-0.78,0l-0.48,0.03l-0.45,-0.06l-0.99,0.06l-0.21,0.12l-0.3,0.39l-0.18,0.3l-0.09,0.18l-0.15,0.39l-0.18,0.42l-0.27,0.6l-0.06,0.21l-0.06,0.18l-0.24,0.39l-0.03,0.21l-0.12,0.18l-0.18,0.39l-0.3,0.72l-0.18,0.33l-0.15,0.36l-0.24,0.36l-0.03,0.18l-0.12,0.21l-0.18,0.36l-0.06,0.15l-0.06,0.18l-0.09,0.15l-0.12,-0.03l-0.03,-0.45l-0.12,-0.78l-0.06,-0.36l0,-0.27l-0.09,-0.3l-0.03,-0.39l0.03,-0.3l-0.12,-0.3l-0.06,-0.21l-0.09,-0.42l0.03,-0.18l-0.06,-0.84l-0.12,-0.24l0,-0.3l-0.09,-0.24l0,-0.69l-0.09,-0.3l-0.33,-0.36l-0.45,0l-0.81,-0.03l-0.33,0.06l-0.21,-0.03l-0.3,0.03l-0.42,-0.03l-0.78,0.03l-0.24,0.03l-0.15,0.06l-0.09,0.24l0,0.3l0.03,0.39l0.06,0.42l0.03,0.18l0.03,0.39l0.12,0.9l0.12,0.42l0,0.21l0.06,0.45l0.09,0.21l-0.03,0.36l0.06,0.24l0.06,0.75l0.03,0.24l0.15,0.45l0.09,0.48l0,0.21l0.06,0.39l0.12,0.39l0.09,0.36l0.03,0.21l0.09,0.54l0.09,0.45l-0.03,0.18l0.06,0.42l0.09,0.21l0,0.24l0.09,0.45l0.06,0.45l0.06,0.21l-0.03,0.24l0.03,0.27l0.09,0.3l0.03,0.36l-0.15,0.51l-0.03,0.36l-0.12,0.33l0,0.21l-0.03,0.18l-0.12,0.39l-0.09,0.48l0,0.3l-0.09,0.24l-0.09,0.42l-0.06,0.45l-0.09,0.21l-0.06,0.39l-0.03,0.33l-0.15,0.66l-0.09,0.27l0,0.33l-0.06,0.18l-0.03,0.21l-0.03,0.18l-0.06,0.21l0.03,0.18l-0.06,0.39l-0.06,0.36l0.03,0.39l0.33,0.18l0.45,0l0.21,0.03Z" style="fill:#050505;fill-rule:nonzero;"/><path d="M81.15,25.26l0.39,-0.15l0.3,-0.33l0.09,-0.24l0.3,-0.36l0.15,-0.36l0.24,-0.39l0.27,-0.51l0.24,-0.39l0.18,-0.36l0.21,-0.39l0.12,-0.33l0.18,-0.36l0.24,-0.39l0.27,-0.48l0.15,-0.33l0.21,-0.42l0.18,-0.45l0.21,-0.42l0.15,-0.36l0.15,-0.45l0.03,-0.42l-0.18,-0.24l-0.24,-0.15l-0.54,-0.09l-0.48,-0.03l-0.3,0.03l-0.3,0l-0.24,-0.03l-1.5,0l-0.24,0.18l-0.09,0.15l-0.24,0.42l-0.39,1.08l-0.15,0.51l-0.09,0.27l-0.12,0.24l-0.09,0.33l-0.21,0.48l-0.18,0.51l-0.03,0.24l-0.09,0.21l-0.12,0.3l-0.12,0.33l-0.18,0.51l-0.21,0.51l-0.09,0.18l-0.15,0.24l-0.15,0.33l0,0.24l-0.09,0.48l0.03,0.24l0.15,0.18l0.6,0.09l0.3,0.03l0.54,0.09l0.93,0.03Z" style="fill:#050505;fill-rule:nonzero;"/><path d="M98.22,21.51l0.81,0l0.48,-0.03l0.6,-0.09l0.48,-0.12l0.27,-0.09l0.24,-0.06l0.27,-0.15l0.24,-0.09l0.48,-0.27l0.45,-0.39l0.45,-0.33l0.21,-0.3l0.12,-0.27l0.21,-0.3l0.12,-0.24l0.15,-0.21l0.12,-0.3l0.09,-0.3l0.15,-0.42l0.12,-0.27l0,-0.21l0.12,-0.21l0,-0.21l0.09,-0.21l0,-0.24l0.03,-0.27l0.09,-0.21l-0.06,-0.21l0.12,-0.21l0.03,-0.3l0.09,-0.24l0,-0.3l0.03,-0.33l0.12,-0.54l0.09,-0.18l0.03,-0.39l0.06,-0.21l0.03,-0.18l0,-0.21l0.06,-0.21l0.15,-0.45l0.06,-0.69l0.12,-0.36l0.03,-0.36l0.12,-0.33l0.03,-0.39l0.06,-0.39l0,-0.21l0.03,-0.18l0.06,-0.42l0.12,-0.18l0,-0.6l0.09,-0.21l0,-0.21l0.06,-0.21l0,-0.27l0.12,-0.21l0.06,-0.42l0.03,-0.39l0,-0.21l0.09,-0.39l0.27,-1.08l0,-0.21l0.12,-0.42l0.03,-0.18l0.09,-0.84l0.06,-0.18l0.03,-0.21l0.03,-0.18l0,-0.21l0.03,-0.21l0,-0.18l0.06,-0.21l-0.03,-0.18l-0.06,-0.33l-0.3,-0.12l-0.21,-0.03l-0.03,0l-0.12,-0.03l-1.38,0l-0.36,-0.03l-1.23,0l-0.27,0.03l-1.98,0l-0.21,-0.03l-0.78,-0.09l-0.66,0.12l-0.42,-0.03l-0.42,0.03l-0.45,0l-0.33,0.09l-0.09,0.12l-0.12,0.21l-0.09,0.27l-0.03,0.24l-0.03,0.54l-0.06,0.21l-0.09,0.21l0,0.18l-0.06,0.36l-0.03,0.21l-0.09,0.66l0.03,0.21l0.15,0.3l0.24,0.03l0.33,0.03l3.54,0l0.72,0.03l0,0.18l-0.09,0.45l-0.06,0.45l-0.06,0.18l-0.03,0.39l-0.06,0.21l0,0.18l-0.09,0.42l-0.06,0.21l0,0.18l-0.03,0.21l0,0.3l-0.09,0.21l-0.06,0.36l-0.03,0.21l-0.06,0.18l-0.06,0.3l0,0.18l-0.03,0.42l-0.03,0.39l-0.06,0.21l-0.03,0.24l-0.06,0.42l-0.09,0.54l-0.06,0.45l-0.12,0.57l-0.06,0.18l0.03,0.21l-0.12,0.54l-0.06,0.39l-0.06,0.21l0,0.18l-0.09,0.42l-0.06,0.36l-0.06,0.27l-0.15,0.75l-0.12,0.42l-0.09,0.42l-0.18,0.39l-0.18,0.24l-0.33,0.24l-0.39,0.03l-0.33,0l-0.27,-0.15l-0.24,-0.27l-0.09,-0.3l-0.03,-0.39l0,-0.51l0.09,-0.81l0.06,-0.69l0.06,-0.51l0.09,-0.51l0.09,-0.99l0,-0.3l-0.06,-0.36l-0.27,-0.06l-0.03,-0.03l-1.08,-0.03l-0.45,0l-0.09,0.03l-0.45,-0.03l-0.27,-0.03l-0.63,0.06l-0.21,0l-0.15,0.12l-0.27,0.09l-0.15,0.21l-0.03,0.33l-0.03,0.6l-0.18,0.63l-0.03,0.54l-0.03,0.48l-0.03,1.08l-0.03,0.24l0,0.6l0.03,0.39l0.09,0.78l0.06,0.18l0,0.18l0.06,0.3l0.12,0.24l0.06,0.36l0.06,0.18l0.33,0.51l0.24,0.3l0.27,0.3l0.15,0.21l0.42,0.27l0.39,0.21l0.39,0.15l0.12,0.06l0.3,0.12l0.27,0.09l0.33,0.06l0.3,0.03l0.21,0.03Z" style="fill:#050505;fill-rule:nonzero;"/><path d="M108.18,21.39l0.24,-0.03l0.84,0.03l0.18,-0.12l0.12,-0.21l0.09,-0.15l0.09,-0.33l0.18,-0.45l0.3,-0.57l0.12,-0.36l0.09,-0.21l0.06,-0.21l0.21,-0.39l0.15,-0.33l0.81,0l1.32,0.03l0.48,0.06l0.66,0.03l0.03,0.24l0,1.41l-0.03,0.3l0.03,0.3l0.03,0.54l0.06,0.3l0.12,0.09l0.45,0l0.39,0.03l0.3,-0.03l0.21,-0.03l0.36,0.03l0.24,0l0.66,-0.03l0.42,0l0.24,0.03l0.21,-0.03c0.12,0 0.21,0.03 0.33,0c0.15,-0.09 0.12,-0.36 0.09,-0.48l0,-0.63l-0.03,-0.66l0,-0.27l-0.03,-0.24l0.03,-0.42l0,-0.45l-0.03,-0.21l-0.03,-0.39l0,-0.18l-0.06,-1.14l0.03,-0.21l-0.03,-0.42l0.03,-0.45l-0.03,-0.45l0,-0.21l-0.03,-1.38l0,-0.9l-0.03,-0.24l-0.03,-0.36l0,-1.17l-0.06,-0.33l-0.03,-0.48l0,-0.18l-0.03,-0.39l0.03,-0.18l-0.03,-0.42l0,-0.6l-0.06,-0.42l0,-0.66l0.03,-0.21l-0.03,-0.45l0,-0.42l-0.06,-0.6l-0.03,-0.39l0,-0.42l-0.03,-1.08l0,-0.54l-0.06,-0.18l0,-0.66l-0.09,-1.29l-0.21,-0.15l-0.15,-0.06l-0.48,0l-0.27,0.03l-0.21,-0.06l-0.27,0l-0.57,0.03l-0.48,0l-0.3,0.03l-0.57,-0.03l-0.3,0l-0.21,0.03l-0.12,0.33l-0.09,0.18l-0.09,0.21l-0.27,0.54l-0.21,0.39l-0.18,0.54l-0.06,0.15l-0.12,0.18l-0.18,0.33l-0.06,0.21l-0.06,0.18l-0.09,0.18l-0.06,0.21l-0.27,0.54l-0.09,0.21l-0.09,0.3l-0.18,0.27l-0.09,0.18l-0.15,0.39l-0.24,0.63l-0.12,0.18l-0.15,0.21l-0.09,0.42l-0.18,0.39l-0.06,0.15l-0.09,0.39l-0.15,0.21l-0.09,0.39l-0.09,0.18l-0.18,0.33l-0.15,0.51l-0.21,0.39l-0.09,0.24l-0.24,0.84l-0.09,0.18l-0.15,0.42l-0.09,0.18l-0.09,0.21l-0.03,0.18l-0.18,0.42l-0.06,0.21l-0.18,0.36l-0.15,0.24l-0.06,0.27l-0.06,0.21l-0.21,0.42l-0.09,0.21l-0.15,0.39l-0.09,0.18l-0.03,0.21l-0.06,0.18l-0.15,0.36l-0.15,0.21l-0.06,0.18l-0.24,0.54l-0.12,0.39l-0.33,0.72l-0.15,0.36l-0.18,0.36l-0.3,0.9l-0.24,0.39l-0.18,0.36l-0.03,0.18l-0.06,0.21l0.06,0.24l0.27,0.06l2.19,0.03l0.21,0.03l0.45,0.03Zm4.95,-7.23l-0.27,-0.03l-0.33,-0.03l-0.24,0l-0.21,-0.18l0.09,-0.21l0.06,-0.27l0.06,-0.21l0.15,-0.51l0.12,-0.21l0.15,-0.45l0.03,-0.21l0.18,-0.66l0.09,-0.27l0.09,-0.21l0.09,-0.27l0.12,-0.21l0.03,-0.21l0.12,-0.3l0.12,-0.24l0.15,-0.48l0.09,-0.3l0.15,-0.48l0.12,-0.39l0.24,-0.09l0.03,0.69l-0.03,1.08l-0.03,1.14l0.03,0.72l-0.06,0.24l0,0.51l-0.03,0.21l0,0.78l-0.03,0.24l0.03,0.24l-0.03,0.42l-0.18,0.15l-0.9,0Z" style="fill:#050505;fill-rule:nonzero;"/><path d="M120.66,21.39l3.18,0l0.33,-0.12l0.09,-0.3l0.12,-0.36l0.09,-0.54l0.06,-0.18l0,-0.39l0.03,-0.21l0.09,-0.39l0.12,-0.87l0.06,-0.21l0.03,-0.18l0.06,-0.42l0.12,-0.6l0.12,-0.45l0.06,-0.42l0.03,-0.18l-0.03,-0.21l0.06,-0.21l0.09,-0.36l-0.06,-0.21l0.09,-0.39l0.06,-0.18l0.12,-1.17l0.21,-1.44l0.03,-0.75l0.06,-0.51l0.03,-0.33l0.03,-0.6l0.03,-0.84l0.09,0l0.18,1.14l0.18,1.08l0.09,0.84l0.15,0.96l0.12,0.84l0.06,0.57l0.12,0.6l0,0.45l0.03,0.18l0.09,0.42l0.03,0.18l0.09,0.42l0,0.18l0.09,0.45l0.09,0.33l0.03,0.45l0.06,0.42l0.03,0.18l0.12,0.63l0.03,0.18l0.06,0.63l0.03,0.18l0.03,0.36l0.03,0.15l0.15,0.42l0.24,0.48l0.24,0.21l0.51,0l0.39,0.03l0.6,0l0.18,-0.03l0.3,0.03l0.21,-0.03l0.57,0.03l0.12,0l0.33,-0.06l0.42,-0.03l0.3,-0.21l0.27,-0.36l0.15,-0.96l0.09,-0.39l0.06,-0.21l0,-0.18l0.15,-0.39l0,-0.48l0.12,-0.42l0.09,-0.24l0.06,-0.39l0.03,-0.39l0.03,-0.33l0.12,-0.36l0.12,-0.27l0.06,-0.3l0.06,-0.42l0.12,-0.42l0,-0.18l0.03,-0.18l0.03,-0.21l0.03,-0.18l0.03,-0.27l0.06,-0.27l0.09,-0.42l0.09,-0.18l0,-0.39l0.03,-0.18l0.03,-0.21l0.06,-0.18l0.03,-0.21l0.06,-0.18l-0.03,-0.27l0.06,-0.24l0.06,-0.42l0.09,-0.39l0.06,-0.21l0.09,-0.39l0.06,-0.24l0.03,-0.21l0.03,-0.33l0.09,-0.27l0.12,-0.9l0.06,-0.21l0,-0.39l0.06,-0.21l0.06,-0.24l0.09,-0.27l0.06,-0.48l0.12,-0.48l0.09,-0.63l0.06,-0.24l0.09,-0.54l0.09,-0.33l0.18,-0.72l0.06,-0.42l0.09,-0.66l-0.03,-0.24l0.09,-0.42l0,-0.24l-0.03,-0.24l-0.18,-0.09l-0.42,-0.09l-0.42,0.03l-0.3,0l-0.69,-0.03l-0.3,0l-0.21,0.03l-0.63,-0.06l-0.57,0.12l-0.12,0.09l-0.24,0.42l-0.12,0.63l-0.09,0.48l-0.03,0.18l0,0.27l-0.09,0.24l-0.06,0.21l-0.09,0.42l-0.03,0.24l-0.06,0.42l-0.06,0.18l-0.03,0.21l-0.09,0.39l0,0.18l-0.09,0.54l0.03,0.21l-0.18,0.36l0,0.21l-0.03,0.36l0,0.36l-0.12,0.39l0,0.18l-0.06,0.42l-0.06,0.18l-0.03,0.42l-0.03,0.24l-0.03,0.21l-0.03,0.18l-0.09,0.42l0,1.02l-0.09,0.63l-0.09,1.44l0,0.42l-0.06,0.72l-0.03,0.6l-0.09,0l-0.09,-0.66l-0.09,-0.81l-0.06,-0.36l-0.06,-0.21l0,-0.21l-0.06,-0.66l-0.12,-0.69l-0.09,-0.81l-0.06,-0.24l-0.06,-0.42l-0.03,-0.48l-0.09,-0.51l-0.06,-0.51l-0.09,-0.45l-0.03,-0.33l0,-0.21l-0.09,-0.33l0,-0.18l-0.09,-0.39l-0.06,-0.45l-0.03,-0.21l-0.06,-0.24l-0.12,-0.6l-0.09,-0.42l-0.09,-0.51l-0.09,-0.48l-0.12,-0.72l-0.12,-0.42l-0.03,-0.33l-0.06,-0.36l-0.12,-0.3l-0.03,-0.21l-0.18,-0.27l-0.33,-0.09l-0.42,0l-0.45,-0.03l-0.36,0.03l-0.57,-0.03l-0.39,0.03l-0.27,0l-0.51,-0.03l-0.42,0.03l-0.3,0.06l-0.18,0.33l-0.09,0.15l-0.06,0.18l-0.09,0.39l0,0.24l-0.09,0.39l-0.06,0.36l-0.06,0.39l-0.03,0.21l-0.06,0.18l-0.03,0.21l-0.03,0.18l-0.03,0.21l-0.03,0.39l-0.06,0.27l-0.12,0.27l0,0.21l-0.15,0.84l-0.06,0.18l-0.03,0.21l0,0.36l-0.09,0.27l-0.09,0.33l-0.06,0.39l-0.06,0.21l0,0.21l-0.09,0.21l0,0.24l-0.09,0.24l-0.03,0.24l0,0.42l-0.06,0.3l-0.06,0.24l-0.15,0.36l-0.03,0.3l-0.03,0.42l-0.03,0.21l-0.03,0.18l-0.15,0.36l0,0.18l-0.03,0.18l-0.03,0.39l-0.06,0.18l-0.03,0.21l-0.06,0.36l-0.09,0.33l-0.06,0.27l-0.06,0.36l-0.12,0.48l-0.06,0.39l0.03,0.21l-0.03,0.18l-0.09,0.36l-0.03,0.21l-0.03,0.36l-0.12,0.21l0,0.39l-0.06,0.24l0,0.21l-0.09,0.48l-0.06,0.27l-0.09,0.42l-0.06,0.15l-0.09,0.42l-0.03,0.21l-0.12,0.42l-0.06,0.48l0,0.48l-0.06,0.24l0.15,0.36l0.45,0.06Z" style="fill:#050505;fill-rule:nonzero;"/><path d="M141.81,21.51l0.6,0l0.45,-0.03l0.69,0l0.6,-0.06l0.18,-0.06l0.27,-0.06l0.36,-0.09l0.18,-0.06l0.48,-0.18l0.15,-0.12l0.36,-0.15l0.24,-0.15l0.27,-0.15l0.24,-0.3l0.27,-0.21l0.18,-0.27l0.12,-0.27l0.15,-0.21l0.12,-0.21l0.18,-0.42l0.12,-0.18l0.21,-0.39l0.09,-0.39l0.15,-0.18l0.09,-0.51l0.12,-0.39l0.12,-0.36l0.06,-0.21l0.06,-0.18l0,-0.21l0.06,-0.27l0.09,-0.33l0.06,-0.21l0,-0.18l0.09,-0.39l0.12,-0.36l0,-0.06l0.09,-0.42l0.03,-0.21l0.12,-0.42l0.09,-0.39l0.06,-0.36l0.03,-0.39l0.12,-0.24l0.06,-0.42l0,-0.21l0.12,-0.42l0.03,-0.42l0.06,-0.42l0.03,-0.18l0.09,-0.42l0,-0.18l0.09,-0.45l0.21,-0.66l-0.03,-0.21l0.06,-0.21l0.03,-0.18l0.06,-0.21l0,-0.21l0.09,-0.36l0.06,-0.27l0.09,-0.27l0.06,-0.27l0.09,-0.33l0,-0.18l0.12,-0.36l-0.03,-0.18l0.12,-0.39l0.03,-0.21l0.06,-0.24l0.03,-0.21l0.12,-0.42l0.03,-0.24l0.06,-0.42l0.06,-0.24l0.03,-0.45l0.18,-0.42l-0.03,-0.45l-0.24,-0.24l-0.24,-0.03l-0.27,0.03l-0.21,0.03l-0.3,-0.03l-0.21,0.03l-0.24,0l-0.21,-0.03l-0.21,0l-0.87,0.03l-0.21,-0.03l-0.21,0l-0.9,0.03l-0.09,0.21l-0.03,0.24l-0.09,0.39l-0.09,0.42l-0.09,0.39l-0.03,0.18l-0.03,0.36l-0.03,0.18l-0.15,0.33l0.03,0.21l-0.06,0.39l-0.06,0.42l-0.09,0.42l-0.03,0.24l-0.06,0.42l-0.03,0.24l-0.12,0.42l0.03,0.33l-0.18,0.3l0,0.42l-0.03,0.15l-0.06,0.42l0,0.24l-0.12,0.42l-0.03,0.24l-0.12,0.42l-0.06,0.36l-0.09,0.39l-0.06,0.39l0,0.24l-0.15,0.42l-0.06,0.21l-0.03,0.36l-0.12,0.54l-0.06,0.3l-0.06,0.39l-0.03,0.21l-0.06,0.24l-0.06,0.21l-0.03,0.27l-0.06,0.27l-0.06,0.18l-0.03,0.3l-0.06,0.21l-0.09,0.42l-0.15,0.6l-0.06,0.18l-0.06,0.27l-0.15,0.3l-0.21,0.48l-0.09,0.18l-0.18,0.24l-0.3,0.24l-0.69,0.09l-0.63,-0.09l-0.33,-0.09l-0.33,-0.39l-0.03,-0.36l0,-0.33l-0.03,-0.48l0.03,-0.21l0.03,-0.18l0.03,-0.27l0.09,-0.72l0.09,-0.39l0.03,-0.42l0.09,-0.6l0.15,-1.08l0.06,-0.36l0.12,-0.39l0,-0.39l0.09,-0.36l0.06,-0.18l0.06,-0.21l0.03,-0.24l0.03,-0.27l0.12,-0.27l-0.06,-0.39l0.03,-0.18l0.15,-0.42l0,-0.21l0.06,-0.24l0.03,-0.21l0.03,-0.3l0.09,-0.21l0.03,-0.18l0.06,-0.45l0.09,-0.45l0.03,-0.24l0.15,-0.42l0.03,-0.21l0,-0.3l0.03,-0.24l0.06,-0.39l0.12,-0.36l0,-0.21l0.06,-0.18l0.03,-0.21l0.06,-0.24l0.06,-0.27l0.06,-0.21l-0.03,-0.42l0.06,-0.21l0.06,-0.18l0,-0.42l-0.03,-0.45l-0.27,-0.21l-0.48,-0.03l-0.27,-0.03l-0.72,0.06l-1.26,-0.03l-0.27,0.03l-0.15,0l-0.51,0.03l-0.18,0.06l-0.06,0.24l-0.12,0.42l-0.06,0.42l-0.06,0.3l-0.06,0.15l-0.15,0.39l-0.09,0.84l-0.06,0.18l0,0.21l-0.09,0.42l0,0.24l-0.03,0.24l-0.09,0.42l-0.03,0.24l-0.03,0.21l-0.15,0.39l-0.03,0.18l0,0.21l-0.06,0.39l-0.06,0.18l-0.09,0.84l-0.09,0.18l-0.03,0.42l0,0.24l-0.12,0.42l-0.09,0.39l-0.03,0.42l-0.12,0.39l0,0.39l-0.06,0.21l-0.09,0.36l-0.03,0.21l0.03,0.21l-0.09,0.36l-0.03,0.18l-0.03,0.21l-0.12,0.36l0,0.39l-0.06,0.3l-0.06,0.36l-0.03,0.45l-0.03,0.39l-0.12,0.81l-0.06,0.27l-0.03,1.02l-0.03,0.18l0.12,1.02l0.03,0.42l0.12,0.48l0.24,0.42l0.24,0.48l0.03,0.09l0.15,0.24l0.33,0.39l0.3,0.3l0.6,0.36l0.18,0.09l0.21,0.09l0.51,0.18l0.12,0.06l0.21,0.06l1.23,0.15Z" style="fill:#050505;fill-rule:nonzero;"/><path d="M152.79,21.39l0.24,-0.03l0.84,0.03l0.18,-0.12l0.12,-0.21l0.09,-0.15l0.09,-0.33l0.18,-0.45l0.3,-0.57l0.12,-0.36l0.09,-0.21l0.06,-0.21l0.21,-0.39l0.15,-0.33l0.81,0l1.32,0.03l0.48,0.06l0.66,0.03l0.03,0.24l0,1.41l-0.03,0.3l0.03,0.3l0.03,0.54l0.06,0.3l0.12,0.09l0.45,0l0.39,0.03l0.3,-0.03l0.21,-0.03l0.36,0.03l0.24,0l0.66,-0.03l0.42,0l0.24,0.03l0.21,-0.03c0.12,0 0.21,0.03 0.33,0c0.15,-0.09 0.12,-0.36 0.09,-0.48l0,-0.63l-0.03,-0.66l0,-0.27l-0.03,-0.24l0.03,-0.42l0,-0.45l-0.03,-0.21l-0.03,-0.39l0,-0.18l-0.06,-1.14l0.03,-0.21l-0.03,-0.42l0.03,-0.45l-0.03,-0.45l0,-0.21l-0.03,-1.38l0,-0.9l-0.03,-0.24l-0.03,-0.36l0,-1.17l-0.06,-0.33l-0.03,-0.48l0,-0.18l-0.03,-0.39l0.03,-0.18l-0.03,-0.42l0,-0.6l-0.06,-0.42l0,-0.66l0.03,-0.21l-0.03,-0.45l0,-0.42l-0.06,-0.6l-0.03,-0.39l0,-0.42l-0.03,-1.08l0,-0.54l-0.06,-0.18l0,-0.66l-0.09,-1.29l-0.21,-0.15l-0.15,-0.06l-0.48,0l-0.27,0.03l-0.21,-0.06l-0.27,0l-0.57,0.03l-0.48,0l-0.3,0.03l-0.57,-0.03l-0.3,0l-0.21,0.03l-0.12,0.33l-0.09,0.18l-0.09,0.21l-0.27,0.54l-0.21,0.39l-0.18,0.54l-0.06,0.15l-0.12,0.18l-0.18,0.33l-0.06,0.21l-0.06,0.18l-0.09,0.18l-0.06,0.21l-0.27,0.54l-0.09,0.21l-0.09,0.3l-0.18,0.27l-0.09,0.18l-0.15,0.39l-0.24,0.63l-0.12,0.18l-0.15,0.21l-0.09,0.42l-0.18,0.39l-0.06,0.15l-0.09,0.39l-0.15,0.21l-0.09,0.39l-0.09,0.18l-0.18,0.33l-0.15,0.51l-0.21,0.39l-0.09,0.24l-0.24,0.84l-0.09,0.18l-0.15,0.42l-0.09,0.18l-0.09,0.21l-0.03,0.18l-0.18,0.42l-0.06,0.21l-0.18,0.36l-0.15,0.24l-0.06,0.27l-0.06,0.21l-0.21,0.42l-0.09,0.21l-0.15,0.39l-0.09,0.18l-0.03,0.21l-0.06,0.18l-0.15,0.36l-0.15,0.21l-0.06,0.18l-0.24,0.54l-0.12,0.39l-0.33,0.72l-0.15,0.36l-0.18,0.36l-0.3,0.9l-0.24,0.39l-0.18,0.36l-0.03,0.18l-0.06,0.21l0.06,0.24l0.27,0.06l2.19,0.03l0.21,0.03l0.45,0.03Zm4.95,-7.23l-0.27,-0.03l-0.33,-0.03l-0.24,0l-0.21,-0.18l0.09,-0.21l0.06,-0.27l0.06,-0.21l0.15,-0.51l0.12,-0.21l0.15,-0.45l0.03,-0.21l0.18,-0.66l0.09,-0.27l0.09,-0.21l0.09,-0.27l0.12,-0.21l0.03,-0.21l0.12,-0.3l0.12,-0.24l0.15,-0.48l0.09,-0.3l0.15,-0.48l0.12,-0.39l0.24,-0.09l0.03,0.69l-0.03,1.08l-0.03,1.14l0.03,0.72l-0.06,0.24l0,0.51l-0.03,0.21l0,0.78l-0.03,0.24l0.03,0.24l-0.03,0.42l-0.18,0.15l-0.9,0Z" style="fill:#050505;fill-rule:nonzero;"/><path d="M167.7,21.39l0.24,-0.03l0.45,-0.03l0.27,-0.03l0.3,0.03l0.09,-0.27l0.09,-0.21l0.03,-0.36l0.03,-0.21l0,-0.18l0.03,-0.21l0.03,-0.39l0,-0.18l0.06,-0.21l-0.03,-0.18l0.09,-0.42l0,-0.24l0.06,-0.18l0.03,-0.24l0.12,-0.63l0.06,-0.24l0,-0.63l0.12,-0.24l0.06,-0.42l0,-0.18l0.06,-0.42l0.15,-0.39l0,-0.51l0.09,-0.63l0.03,-0.24l0.09,-0.42l0.06,-0.18l0.03,-0.12l0.21,0.03l0.12,0.12l0.12,0.24l0.06,0.24l0.12,0.24l0.06,0.3l0.09,0.42l0.06,0.15l0.03,0.42l0.12,0.39l0.06,0.39l0.06,0.21l0.12,0.36l0.03,0.21l0.18,0.54l0,0.36l0.12,0.3l0.09,0.33l0.03,0.21l0.09,0.18l0,0.21l0.09,0.21l0.06,0.39l0.06,0.09l0.09,0.24l0,0.24l0.18,0.45l0.09,0.33l0.06,0.15l0.09,0.36l0.06,0.15l0.27,0.27l0.18,0.03l0.27,-0.03l0.24,0l0.33,-0.03l0.39,0l0.78,-0.09l0.63,-0.09l0.39,0l0.33,-0.06l0.15,-0.03l0.09,-0.39l-0.21,-0.57l-0.06,-0.27l-0.03,-0.21l-0.03,-0.36l-0.21,-0.51l-0.06,-0.42l-0.33,-1.08l-0.06,-0.39l-0.15,-0.45l0,-0.18l-0.12,-0.39l-0.06,-0.24l-0.09,-0.21l-0.06,-0.42l-0.06,-0.18l-0.09,-0.39l-0.09,-0.18l-0.06,-0.39l-0.03,-0.24l-0.12,-0.18l-0.06,-0.39l0,-0.27l-0.15,-0.45l-0.09,-0.24l0,-0.27l0.21,-0.03l0.42,-0.21l0.6,-0.39l0.42,-0.45l0.15,-0.15l0.33,-0.39l0.09,-0.18l0.24,-0.39l0.12,-0.27l0.09,-0.21l0.27,-0.39l0.15,-0.36l0.09,-0.21l0.06,-0.18l0.06,-0.21l0.12,-0.36l0.09,-0.3l0.06,-0.48l0.09,-0.48l0,-0.21l-0.03,-0.45l0.03,-0.21l0.09,-0.42l0,-0.24l-0.09,-0.57l0,-0.21l-0.06,-0.57l-0.09,-0.48l-0.21,-0.42l-0.21,-0.36l-0.12,-0.15l-0.15,-0.18l-0.12,-0.12l-0.36,-0.21l-0.15,-0.09l-0.18,-0.09l-0.27,-0.18l-0.21,-0.06l-0.27,-0.12l-0.33,-0.15l-0.24,-0.06l-0.48,0l-0.33,-0.06l-0.45,-0.03l-0.39,-0.06l-0.27,0l-0.45,-0.06l-0.24,-0.06l-0.3,0.03l-0.21,0.03l-1.29,0l-1.8,-0.03l-0.42,0l-0.3,0.06l-0.21,0.24l-0.12,0.15l0.03,0.33l-0.12,0.24l0,0.24l-0.03,0.21l-0.03,0.24l-0.12,0.84l-0.09,0.48l-0.09,0.36l-0.06,0.21l0,0.18l-0.03,0.39l0,0.18l-0.03,0.18l-0.09,0.42l-0.09,0.48l-0.09,0.42l-0.03,0.18l-0.03,0.42l-0.12,0.36l-0.03,0.18l0,0.21l-0.03,0.18l-0.06,0.39l-0.03,0.21l-0.03,0.18l0,0.21l-0.15,0.63l0,0.24l-0.06,0.42l-0.06,0.39l-0.03,0.18l-0.06,0.33l-0.06,0.21l0,0.18l-0.09,0.18l-0.06,0.21l-0.03,0.36l0.03,0.18l-0.06,0.18l-0.15,0.21l0,0.27l-0.03,0.24l-0.03,0.21l-0.12,0.42l0,0.24l-0.03,0.45l-0.06,0.3l0,0.27l-0.15,0.54l0,0.45l-0.12,0.24l0.03,0.24l-0.03,0.21l-0.06,0.24l-0.03,0.42l-0.09,0.24l0.03,0.21l-0.09,0.24l0,0.21l-0.09,0.42l-0.03,0.21l0,0.18l-0.09,0.21l0,0.21l-0.06,0.18l0,0.21l-0.03,0.33l-0.03,0.3l-0.09,0.3l0,0.27l0.06,0.18l0.27,0.06l0.93,0.06l0.39,0l1.08,0.03Zm3.9,-12.36l-0.51,-0.06l0.03,-0.24l-0.03,-0.21l0.03,-0.21l0.09,-0.48l0.06,-0.27l-0.03,-0.27l0.09,-0.27l0.06,-0.45l0,-0.21l0.09,-0.48l0.06,-0.24l0.03,-0.39l0.03,-0.45l0.06,-0.48l0.09,-0.21l0.09,-0.33l0.27,-0.09l0.72,0.03l0.66,0.09l0.27,0.15l0.21,0.21l0.15,0.27l0.09,0.63l0.03,0.66l-0.03,0.48l-0.09,0.24l0,0.24l-0.21,0.42l-0.03,0.18l-0.06,0.24l-0.15,0.39l-0.21,0.18l-0.12,0.18l-0.21,0.24l-0.21,0.12l-0.3,0.18l-0.18,0.12l-0.36,0.09l-0.48,0Z" style="fill:#050505;fill-rule:nonzero;"/><path d="M181.68,21.33l0.63,0l0.18,-0.03l0.45,0.03l0.27,0l0.18,-0.03l0.24,0.03l1.08,0l0.15,-0.63l0.09,-0.54l0.09,-0.42l0.12,-0.45l0.06,-0.21l0.09,-0.45l0.06,-0.42l0,-0.18l0.06,-0.21l0.09,-0.3l0.03,-0.21l0.12,-0.42l0.12,-0.45l0.09,-0.42l0.09,-0.39l-0.03,-0.18l0.06,-0.18l0.06,-0.36l0.06,-0.3l0.09,-0.33l0.12,-0.39l0,-0.21l0.06,-0.3l0.15,-0.15l0.09,-0.15l0.06,-0.24l0.12,-0.15l0.12,-0.36l0.21,-0.36l0.09,-0.18l0.09,-0.15l0.18,-0.18l0.18,-0.39l0.24,-0.36l0.24,-0.54l0.18,-0.3l0.18,-0.39l0.12,-0.21l0.12,-0.18l0.3,-0.39l0.03,-0.18l0.15,-0.18l0.06,-0.15l0.21,-0.36l0.06,-0.18l0.09,-0.21l0.15,-0.39l0.3,-0.51l0.06,-0.18l0.12,-0.18l0.03,-0.18l0.24,-0.36l0.18,-0.42l0.18,-0.18l0.27,-0.57l0.06,-0.18l0.12,-0.18l0.06,-0.21l0.24,-0.33l0.12,-0.36l0.12,-0.15l0.18,-0.36l0.03,-0.21l0.12,-0.18l0.18,-0.36l0.06,-0.18l0.24,-0.33l0.06,-0.15l0.09,-0.39l0,-0.39l-0.33,-0.18l-0.6,0.03l-0.33,-0.06l-0.78,0l-0.48,0.03l-0.45,-0.06l-0.99,0.06l-0.21,0.12l-0.3,0.39l-0.18,0.3l-0.09,0.18l-0.15,0.39l-0.18,0.42l-0.27,0.6l-0.06,0.21l-0.06,0.18l-0.24,0.39l-0.03,0.21l-0.12,0.18l-0.18,0.39l-0.3,0.72l-0.18,0.33l-0.15,0.36l-0.24,0.36l-0.03,0.18l-0.12,0.21l-0.18,0.36l-0.06,0.15l-0.06,0.18l-0.09,0.15l-0.12,-0.03l-0.03,-0.45l-0.12,-0.78l-0.06,-0.36l0,-0.27l-0.09,-0.3l-0.03,-0.39l0.03,-0.3l-0.12,-0.3l-0.06,-0.21l-0.09,-0.42l0.03,-0.18l-0.06,-0.84l-0.12,-0.24l0,-0.3l-0.09,-0.24l0,-0.69l-0.09,-0.3l-0.33,-0.36l-0.45,0l-0.81,-0.03l-0.33,0.06l-0.21,-0.03l-0.3,0.03l-0.42,-0.03l-0.78,0.03l-0.24,0.03l-0.15,0.06l-0.09,0.24l0,0.3l0.03,0.39l0.06,0.42l0.03,0.18l0.03,0.39l0.12,0.9l0.12,0.42l0,0.21l0.06,0.45l0.09,0.21l-0.03,0.36l0.06,0.24l0.06,0.75l0.03,0.24l0.15,0.45l0.09,0.48l0,0.21l0.06,0.39l0.12,0.39l0.09,0.36l0.03,0.21l0.09,0.54l0.09,0.45l-0.03,0.18l0.06,0.42l0.09,0.21l0,0.24l0.09,0.45l0.06,0.45l0.06,0.21l-0.03,0.24l0.03,0.27l0.09,0.3l0.03,0.36l-0.15,0.51l-0.03,0.36l-0.12,0.33l0,0.21l-0.03,0.18l-0.12,0.39l-0.09,0.48l0,0.3l-0.09,0.24l-0.09,0.42l-0.06,0.45l-0.09,0.21l-0.06,0.39l-0.03,0.33l-0.15,0.66l-0.09,0.27l0,0.33l-0.06,0.18l-0.03,0.21l-0.03,0.18l-0.06,0.21l0.03,0.18l-0.06,0.39l-0.06,0.36l0.03,0.39l0.33,0.18l0.45,0l0.21,0.03Z" style="fill:#050505;fill-rule:nonzero;"/><path d="M198.87,21.42l0.6,-0.06l0.24,-0.03l0.39,-0.03l0.21,0.03l0.96,0l0.51,-0.03l0.21,0l0.21,0.06l0.99,0l0.24,-0.06l0.24,0.06l1.32,0l0.24,-0.03l0.81,0l1.11,-0.06l0.54,0.06l0.48,-0.06l0.3,-0.24l0.15,-0.33l0,-0.33l0.06,-0.33l0.06,-0.24l0.03,-0.24l0,-0.24l0.06,-0.21l0,-0.36l0.06,-0.45l-0.03,-0.69l-0.12,-0.21l-0.21,-0.03l-0.24,0.03l-0.42,0.06l-0.36,-0.03l-1.53,0l-0.54,0.03l-1.32,0l-0.6,0.03l-0.24,-0.06l-0.06,-0.15l0.27,-0.33l0.15,-0.18l0.3,-0.27l0.21,-0.3l0.12,-0.12l0.18,-0.24l0.27,-0.3l0.21,-0.3l0.24,-0.18l0.18,-0.24l0.24,-0.33l0.3,-0.3l0.18,-0.15l0.18,-0.3l0.24,-0.27l0.3,-0.36l0.12,-0.24l0.18,-0.18l0.09,-0.18l0.33,-0.42l0.24,-0.33l0.15,-0.18l0.3,-0.33l0.21,-0.33l0.12,-0.24l0.12,-0.18l0.3,-0.36l0.03,-0.18l0.18,-0.21l0.12,-0.33l0.15,-0.27l0.12,-0.27l0.09,-0.21l0.18,-0.39l0.06,-0.18l0.09,-0.24l0.12,-0.24l0.06,-0.15l0.06,-0.39l0.06,-0.24l0.06,-0.3l0.06,-0.39l0.03,-0.24l0.06,-0.45l0,-0.45l0.03,-0.36l0,-0.69l-0.03,-0.42l-0.09,-0.42l-0.06,-0.24l-0.03,-0.18l-0.15,-0.39l-0.15,-0.36l-0.12,-0.27l-0.24,-0.27l-0.27,-0.3l-0.15,-0.15l-0.18,-0.09l-0.09,-0.12l-0.21,-0.09l-0.27,-0.09l-0.42,-0.18l-0.45,-0.12l-0.69,-0.15l-0.75,-0.09l-0.42,0.03l-0.3,-0.03l-0.33,0.03l-0.27,0l-0.36,0.03l-0.3,0l-0.51,0.06l-0.36,0.06l-0.33,0.09l-0.33,0.12l-0.21,0.15l-0.27,0.09l-0.42,0.24l-0.36,0.33l-0.12,0.18l-0.42,0.54l-0.21,0.39l-0.18,0.33l-0.18,0.36l-0.15,0.45l-0.03,0.21l-0.09,0.21l-0.03,0.21l-0.09,0.21l0,0.21l-0.09,0.39l-0.06,0.27l-0.03,0.33l-0.06,0.39l0,0.33l-0.03,0.21l-0.03,0.36l-0.03,0.45l0.03,0.42l0.18,0.15l0.18,0.06l0.51,0.03l0.33,-0.03l0.24,0.03l0.39,-0.03l0.24,0.03l1.11,0l0.3,-0.09l0.12,-0.27l0,-0.21l0.06,-0.21l0.06,-0.42l0.06,-0.45l0.12,-0.51l0.06,-0.3l0.06,-0.24l0.15,-0.39l0.12,-0.21l0.15,-0.18l0.18,-0.24l0.21,-0.12l0.18,-0.12l0.21,-0.06l0.24,-0.03l0.33,0l0.24,0.06l0.3,0.06l0.15,0.15l0.18,0.21l0.12,0.36l0.03,0.33l0,0.45l-0.06,0.42l-0.09,0.54l-0.09,0.33l-0.09,0.18l-0.09,0.3l-0.09,0.18l-0.15,0.33l-0.15,0.27l-0.3,0.42l-0.12,0.21l-0.18,0.3l-0.15,0.21l-0.15,0.18l-0.15,0.15l-0.12,0.18l-0.15,0.18l-0.24,0.33l-0.48,0.72l-0.15,0.18l-0.06,0.18l-0.27,0.24l-0.45,0.45l-0.15,0.33l-0.15,0.21l-0.24,0.24l-0.21,0.3l-0.24,0.33l-0.21,0.3l-0.09,0.21l-0.51,0.51l-0.21,0.27l-0.36,0.39l-0.3,0.33l-0.15,0.27l-0.21,0.27l-0.27,0.3l-0.09,0.12l-0.12,0.21l-0.18,0.24l-0.24,0.3l-0.12,0.24l-0.18,0.24l-0.09,0.24l-0.09,0.18l-0.15,0.18l-0.15,0.45l-0.06,0.42l0,0.18l-0.09,0.63l0,0.36l-0.12,0.54l0.21,0.42l1.02,0.24Z" style="fill:#050505;fill-rule:nonzero;"/><path d="M216.87,21.57l0.63,0l0.09,-0.03l0.45,0l0.18,-0.06l0.3,-0.12l0.24,0l0.51,-0.27l0.15,-0.09l0.51,-0.3l0.36,-0.24l0.27,-0.21l0.27,-0.33l0.15,-0.15l0.15,-0.24l0.36,-0.45l0.21,-0.45l0.18,-0.33l0.24,-0.45l0.06,-0.18l0.15,-0.27l0.03,-0.3l0.12,-0.21l0.06,-0.39l0.06,-0.33l0.06,-0.21l0.09,-0.27l0,-0.42l0.09,-0.42l-0.03,-0.27l0.12,-0.42l0,-0.87l0.09,-0.3l-0.03,-0.42l-0.03,-0.18l0.03,-0.3l-0.03,-0.21l-0.06,-0.39l-0.06,-0.21l0,-0.27l-0.12,-0.27l0,-0.21l-0.09,-0.21l-0.06,-0.24l-0.12,-0.21l-0.12,-0.24l-0.06,-0.24l-0.24,-0.3l-0.24,-0.36l-0.3,-0.33l-0.39,-0.24l-0.36,-0.21l-0.21,-0.09l-0.36,-0.12l-0.36,-0.15l-0.33,-0.09l-0.18,-0.03l-0.48,0l-0.3,0.03l-0.3,0l-0.3,0.06l-0.33,0.06l-0.36,0.06l-0.18,0.12l-0.21,0.03l-0.36,0.21l-0.15,-0.06l0.03,-0.18l0.03,-0.27l0.06,-0.39l0.12,-0.66l0.06,-0.3l0.03,-0.24l0.15,-0.42l0.09,-0.27l0.03,-0.18l0.12,-0.21l0.06,-0.24l0.06,-0.21l0.15,-0.33l0.24,-0.27l0.24,-0.24l0.42,-0.12l0.6,0l0.27,0.03l0.33,0.18l0.21,0.36l0.06,0.33l0.06,0.36l-0.03,0.42l-0.03,0.27l0,0.3l0.09,0.24l0.21,0.09l0.42,0.03l0.54,0.03l0.42,0l0.87,0.03l0.63,0l0.36,-0.15l0.09,-0.45l0.06,-0.45l-0.06,-0.36l0,-0.75l-0.03,-0.27l0,-0.45l-0.06,-0.18l-0.12,-0.42l-0.18,-0.42l-0.12,-0.27l-0.27,-0.54l-0.24,-0.18l-0.33,-0.27l-0.18,-0.12l-0.12,-0.12l-0.51,-0.27l-0.42,-0.12l-0.18,-0.09l-0.51,-0.12l-0.33,-0.06l-0.3,-0.03l-0.18,-0.03l-0.15,0.03l-0.6,-0.03l-0.75,0.06l-0.24,0l-0.48,0.09l-0.21,0l-0.36,0.06l-0.39,0.15l-0.3,0.18l-0.15,0.03l-0.24,0.15l-0.27,0.12l-0.21,0.18l-0.21,0.21l-0.18,0.15l-0.3,0.33l-0.15,0.24l-0.18,0.24l-0.21,0.39l-0.09,0.36l-0.21,0.48l-0.09,0.24l-0.15,0.42l-0.12,0.21l0,0.18l-0.09,0.27l0,0.21l-0.09,0.21l-0.09,0.3l-0.12,0.48l-0.09,0.42l-0.12,0.54l-0.06,0.48l-0.06,0.24l-0.06,0.39l-0.06,0.36l-0.12,0.39l0,0.3l-0.09,0.39l-0.06,0.21l-0.06,0.48l-0.06,0.18l0,0.36l-0.03,0.24l-0.09,0.45l0,0.21l-0.09,0.3l0.06,0.21l-0.06,0.24l0,0.21l-0.09,0.39l-0.03,0.36l-0.03,0.21l-0.06,0.21l0,0.42l-0.03,0.24l0.03,0.42l0,0.18l-0.06,0.24l0,0.42l-0.03,0.24l0.03,0.54l0.03,0.3l0.03,0.36l0.09,0.36l-0.06,0.24l0.18,0.51l-0.03,0.15l0.12,0.27l0.03,0.18l0,0.15l0.21,0.39l0.24,0.21l0.12,0.27l0.15,0.21l0.21,0.15l0.15,0.15l0.21,0.18l0.66,0.39l0.24,0.15l0.27,0.06l0.36,0.12l0.39,0.15l0.24,0.03l0.45,0.15l0.33,-0.06l0.45,0.03l0.51,0.06Zm-0.45,-3.72l-0.42,-0.06l-0.21,-0.09l-0.33,-0.27l-0.09,-0.18l-0.12,-0.21l-0.06,-0.39l-0.09,-0.27l0.06,-0.3l-0.03,-0.45l0,-0.48l0.06,-0.48l0.03,-0.27l0,-0.24l0.03,-0.21l0.09,-0.45l0.09,-0.48l0.09,-0.42l0.15,-0.45l0.18,-0.45l0.24,-0.39l0.36,-0.3l0.18,-0.09l0.39,-0.15l0.24,-0.03l0.15,0l0.3,0.03l0.3,0.06l0.27,0.12l0.21,0.12l0.24,0.27l0.21,0.45l0.09,0.48l0,0.3l-0.03,0.24l0,0.72l-0.09,0.33l0,0.36l-0.06,0.39l-0.03,0.3l-0.12,0.45l0,0.27l-0.15,0.36l-0.24,0.66l-0.12,0.27l-0.18,0.33l-0.21,0.27l-0.3,0.18l-0.3,0.09l-0.45,0.06l-0.33,0Z" style="fill:#050505;fill-rule:nonzero;"/></svg>