<svg xmlns="http://www.w3.org/2000/svg" xmlns:xlink="http://www.w3.org/1999/xlink" width="110%" height="100%" version="1.1" viewBox="0 0 1604 125" xml:space="preserve" style="fill-rule:evenodd;clip-rule:evenodd;stroke-linejoin:round;stroke-miterlimit:2"><rect id="Artboard4" width="1604" height="125" x="0" y="0" style="fill:none"/><clipPath id="_clip1"><rect width="1604" height="125" x="0" y="0"/></clipPath><g clip-path="url(#_clip1)"><path d="M-1,103.195c-0,0 4.268,-5.18 11.008,-13.22c46.06,-54.924 120.52,-76.925 189.019,-55.85l0.01,0c26.16,8.048 54.02,8.77 80.56,2.086c5.91,-1.488 12.13,-3.055 18.42,-4.637c44.78,-11.276 91.98,-8.04 134.799,9.239c4.12,1.661 8.28,3.341 12.44,5.021c50.52,20.386 106.81,21.311 157.97,2.595c6.58,-2.406 13.16,-4.812 19.55,-7.153c39.16,-14.322 81.569,-17.23 122.309,-8.385c24.84,5.394 52.66,11.434 74.53,16.181c24.62,5.346 50.35,-0.476 70.28,-15.902c37.58,-29.096 87.869,-35.829 131.779,-17.646c9.11,3.773 18.45,7.638 27.56,11.412c45.76,18.946 97.01,19.739 143.33,2.218c0.75,-0.285 1.5,-0.57 2.26,-0.855c47.759,-18.069 100.619,-17.251 147.809,2.286c12.07,4.999 24.66,10.21 36.94,15.297c51.11,21.163 109.709,12.66 152.699,-22.16l0,-0.002c11.93,-9.667 28.2,-12.044 42.4,-6.198c14.2,5.846 24.08,18.983 25.75,34.251c2.53,23.119 5.578,42.502 5.578,42.502l-0,31.28l-1607,0l-0,-22.36Z" style="fill:#ffe4c3"/></g></svg>