<?xml version="1.0" encoding="UTF-8" standalone="no"?><!DOCTYPE svg PUBLIC "-//W3C//DTD SVG 1.1//EN" "http://www.w3.org/Graphics/SVG/1.1/DTD/svg11.dtd"><svg width="100%" height="100%" viewBox="0 0 76 122" version="1.1" xmlns="http://www.w3.org/2000/svg" xmlns:xlink="http://www.w3.org/1999/xlink" xml:space="preserve" xmlns:serif="http://www.serif.com/" style="fill-rule:evenodd;clip-rule:evenodd;stroke-miterlimit:2;"><g><path d="M37.965,0c20.953,0 37.964,17.011 37.964,37.965c0,24.642 -23.089,40.769 -33.597,67.255c-0.661,1.689 -2.296,2.795 -4.111,2.78c-1.814,-0.015 -3.43,-1.149 -4.063,-2.849c-9.817,-25.964 -34.158,-42.224 -34.158,-67.186c0,-20.954 17.011,-37.965 37.965,-37.965Z" style="fill:#ab343b;"/><g><path d="M59.484,30.661l-4.345,4.658c-0.798,0.857 -2.097,0.86 -2.899,0.006l-1.939,-2.064c-0.802,-0.854 -2.101,-0.851 -2.899,0.006l-21.222,22.791c-0.805,0.857 -2.104,0.86 -2.906,0.007l-1.939,-2.065c-0.802,-0.853 -0.805,-2.242 -0.007,-3.099l21.229,-22.791c0.798,-0.857 0.795,-2.246 -0.007,-3.099l-1.939,-2.064c-0.802,-0.854 -0.805,-2.243 -0.007,-3.1l0.362,-0.432c0.389,-0.41 0.908,-0.681 1.455,-0.682l7.965,-0.017c0.547,-0.002 1.067,0.268 1.451,0.676l7.64,8.156c0.802,0.846 0.805,2.256 0.007,3.113Z" style="fill:#fff;"/><path d="M54.7,53.929l-1.931,2.073c-0.798,0.856 -2.097,0.859 -2.905,0.006l-7.991,-8.513c-0.801,-0.853 -0.804,-2.242 -0.006,-3.099l1.93,-2.073c0.798,-0.856 2.097,-0.859 2.899,-0.006l7.997,8.513c0.802,0.853 0.805,2.242 0.007,3.099Z" style="fill:#fff;"/><path d="M16.445,27.654l7.606,-8.202c0.382,-0.411 0.901,-0.682 1.448,-0.683l7.965,-0.017c0.547,-0.001 1.067,0.268 1.458,0.676l0.363,0.409c0.802,0.861 0.805,2.257 0.007,3.114l-1.931,2.072c-0.798,0.857 -0.795,2.253 0.007,3.107l0.726,0.773c0.802,0.853 0.805,2.242 0.007,3.106l-1.931,2.065c-0.798,0.865 -2.097,0.867 -2.899,0.007l-0.726,-0.774c-0.802,-0.853 -2.101,-0.85 -2.899,0.007l-1.93,2.072c-0.798,0.857 -2.098,0.86 -2.899,0.006l-4.365,-4.639c-0.802,-0.853 -0.805,-2.242 -0.007,-3.099Z" style="fill:#fff;"/></g><circle cx="37.965" cy="37.709" r="32" style="fill:none;stroke:#fff;stroke-width:3.5px;"/></g></svg>