<?xml version="1.0" encoding="UTF-8" standalone="no"?><!DOCTYPE svg PUBLIC "-//W3C//DTD SVG 1.1//EN" "http://www.w3.org/Graphics/SVG/1.1/DTD/svg11.dtd"><svg width="100%" height="100%" viewBox="0 0 1768 707" version="1.1" xmlns="http://www.w3.org/2000/svg" xmlns:xlink="http://www.w3.org/1999/xlink" xml:space="preserve" xmlns:serif="http://www.serif.com/" style="fill-rule:evenodd;clip-rule:evenodd;stroke-linejoin:round;stroke-miterlimit:2;"><g><ellipse cx="830.735" cy="233.321" rx="73.5" ry="73.435" style="fill:#fe5f55;"/><path d="M1576.88,596.325l0,-92.163l-71.702,-71.638l0,-45.89l-82.405,-82.332l0,-128.896l-57.119,57.068l0,172.381l-66.299,66.24l0,125.23l277.525,0Z" style="fill:#fe5f55;"/><path d="M533.694,596.932l0,-90.929l-70.742,-70.679l0,-45.276l-81.301,-81.229l0,-127.171l-56.355,56.305l0,170.072l-65.411,65.353l0,123.554l273.809,0Z" style="fill:#fe5f55;"/><path d="M107.823,678.398l0,-291.586l76.155,-76.088l0,-112.9l50,-49.955l78.845,0l0,238.943l90,89.92l0,201.666l-295,0" style="fill:#f6ba6c;"/><clipPath id="_clip1"><path d="M107.823,678.398l0,-291.586l76.155,-76.088l0,-112.9l50,-49.955l78.845,0l0,238.943l90,89.92l0,201.666l-295,0"/></clipPath><g clip-path="url(#_clip1)"><path d="M312.823,147.869l-57.5,57.449l0,140.262l-67.613,67.553l0,77.431l59.113,59.061l0,128.773l313,0l0,-514.543l-247,-15.986Z" style="fill:#fec984;"/></g><path d="M1066.36,544.046l0,-170.779l44.603,-44.563l0,-66.124l29.285,-29.259l46.178,0l0,139.946l52.712,52.665l0,118.114l-172.778,0" style="fill:#fe5f55;"/><path d="M1130.82,569.217l0,-158.582l77,-76.931l0,-204.818l101,0l34,33.969l0,83.926l32,31.971l0,179.841l65,-64.943l0,-85.923l40,0l41,40.963l0,174.568l125,124.889l-515,0l0,-78.93Z" style="fill:#fec984;"/><clipPath id="_clip2"><path d="M1130.82,569.217l0,-158.582l77,-76.931l0,-204.818l101,0l34,33.969l0,83.926l32,31.971l0,179.841l65,-64.943l0,-85.923l40,0l41,40.963l0,174.568l125,124.889l-515,0l0,-78.93Z"/></clipPath><g clip-path="url(#_clip2)"><path d="M1207.82,128.886l75,74.933l0,184.697l-65.139,65.081l129.139,129.024l-260,0l0,-453.735l121,0Z" style="fill:#ffd69b;"/><path d="M1479.82,307.727l0,234.791l105.723,105.629l128.277,0l0,-340.42l-234,0Z" style="fill:#f6ba6c;"/></g><path d="M786.47,523.258l0,-223.819l-65.308,-65.251l0,-41.797l-75.056,-74.989l0,-117.402l-52.025,51.979l0,157.008l-60.387,60.333l0,253.938l252.776,0Z" style="fill:#fe5f55;"/><path d="M615.091,596.932l-65,-166.209l65,-64.942l0,-120.26l74,-79.929l0,-120.893l72,0l0,85.795l17.13,17.114l0,126.887l59,58.948l0,189.815l133.87,73.674l-356,0Z" style="fill:#fec984;"/><clipPath id="_clip3"><path d="M615.091,596.932l-65,-166.209l65,-64.942l0,-120.26l74,-79.929l0,-120.893l72,0l0,85.795l17.13,17.114l0,126.887l59,58.948l0,189.815l133.87,73.674l-356,0Z"/></clipPath><g clip-path="url(#_clip3)"><path d="M761.091,44.699l-36,24.978l0,231.794l41,40.964l0,110.784l-36,35.968l74,73.935l215,33.81l-258,-552.233Z" style="fill:#ffd69b;"/></g><path d="M1321.82,582.621l0,-59.363l27.723,-27.698l65.277,0l27.723,27.698l0,88.809l-120.723,0l0,-29.446Z" style="fill:#ffd69b;"/><clipPath id="_clip4"><path d="M1321.82,582.621l0,-59.363l27.723,-27.698l65.277,0l27.723,27.698l0,88.809l-120.723,0l0,-29.446Z"/></clipPath><g clip-path="url(#_clip4)"><path d="M1397.82,495.56l-15.639,15.625l0,33.332l44.639,44.599l45,-9.992l0,-83.564l-74,0Z" style="fill:#f6ba6c;"/></g><path d="M233.885,700.875l0,-136.447l106.155,-106.061l0,-67.939l122,-121.892l0,-190.831l84.565,84.49l0,255.209l98.155,98.068l0,185.403l-410.875,0Z" style="fill:#f6ba6c;"/><clipPath id="_clip5"><path d="M233.885,700.875l0,-136.447l106.155,-106.061l0,-67.939l122,-121.892l0,-190.831l84.565,84.49l0,255.209l98.155,98.068l0,185.403l-410.875,0Z"/></clipPath><g clip-path="url(#_clip5)"><path d="M505.82,121.447l0,267.843l-103.522,103.431l103.522,103.431l0,104.723l290.065,0l0,-579.428l-290.065,0Z" style="fill:#ffd69b;"/></g><path d="M798.618,528.254l83.324,-83.251l48.586,0l79.324,79.254l-211.234,3.997Z" style="fill:#f6ba6c;"/><clipPath id="_clip6"><path d="M798.618,528.254l83.324,-83.251l48.586,0l79.324,79.254l-211.234,3.997Z"/></clipPath><g clip-path="url(#_clip6)"><path d="M920.466,445.003l-29.505,29.479l81.819,81.747l71.748,-47.958l-63.676,-63.268l-60.386,0Z" style="fill:#ffd69b;"/></g><path d="M12.014,703.567c0,0 92.527,-53.513 134.975,-78.063c13.648,-7.893 29.135,-12.049 44.9,-12.049l0.001,0c16.313,0 32.317,-4.446 46.293,-12.859c10.818,-6.513 23.93,-14.407 34.812,-20.958c14.282,-8.598 30.636,-13.141 47.306,-13.141c34.919,0 96.962,0 129.043,0c13.487,0 26.807,-2.974 39.012,-8.711c15.984,-7.512 38.949,-18.305 54.933,-25.817c12.206,-5.737 25.526,-8.711 39.012,-8.711c98.188,0 519.962,0 616.005,0c12.867,0 25.59,2.707 37.342,7.946c17.454,7.78 43.896,19.567 61.349,27.347c11.752,5.239 24.475,7.946 37.342,7.946l101.138,0c16.586,0 32.862,4.498 47.095,13.015c10.903,6.524 24.071,14.404 34.975,20.928c14.232,8.517 30.508,13.015 47.095,13.015c6.519,0 13.576,0 20.241,0c18.536,0 36.637,5.616 51.917,16.109c36.778,25.253 103.854,71.311 103.854,71.311l-1728.64,2.692Z" style="fill:#fec984;"/><path d="M8.582,703.572c0,0 94.962,-53.741 138.221,-78.221c13.778,-7.798 29.34,-11.896 45.172,-11.896l49.37,0c16.67,0 33.024,-4.543 47.305,-13.14c10.727,-6.458 23.619,-14.22 34.345,-20.677c14.282,-8.598 30.636,-13.141 47.306,-13.141c37.042,0 105.047,0 139.043,0c13.487,0 26.807,-2.974 39.012,-8.711c15.984,-7.512 38.949,-18.305 54.933,-25.817c12.206,-5.737 25.526,-8.711 39.012,-8.711c84.254,0 403.568,0 486.005,0c12.867,0 25.59,2.707 37.342,7.946c17.454,7.78 43.896,19.567 61.349,27.347c11.752,5.239 24.475,7.946 37.342,7.946l121.138,0c16.586,0 32.862,4.498 47.095,13.015c10.903,6.524 24.071,14.404 34.975,20.928c14.232,8.517 30.508,13.015 47.095,13.015l71.218,0c17.927,0 35.46,5.254 50.433,15.111c37.999,25.016 109.835,72.309 109.835,72.309l-1737.55,2.697Z" style="fill:#f6ba6c;"/><path d="M8.582,703.572c0,0 65.509,-39.844 99.821,-60.712c13.356,-8.123 28.688,-12.42 44.32,-12.42c54.947,0 189.116,0 235.781,0c10.773,0 21.44,-2.128 31.388,-6.261c18.161,-7.545 48.641,-20.209 67.995,-28.25c11.841,-4.919 24.536,-7.452 37.358,-7.452c72.349,0 325.621,0 395.36,0c11.833,0 23.568,2.137 34.642,6.307c9.364,3.527 21.062,7.933 30.744,11.579c12.452,4.69 25.649,7.092 38.955,7.092c41.608,0 138.262,0 198.72,0c34.425,0 68.503,6.871 100.239,20.209c15.942,6.7 32.379,13.608 43.269,18.185c2.376,0.999 5.113,0.562 7.059,-1.127c1.947,-1.689 2.766,-4.337 2.113,-6.83c0,0 0,0 0,-0.001c-0.843,-3.217 -0.146,-6.643 1.886,-9.276c2.032,-2.633 5.17,-4.175 8.496,-4.175l195.095,0c23.622,0 46.867,5.926 67.606,17.234c38.243,20.852 97.571,53.201 97.571,53.201l-1738.42,2.697Z" style="fill:#b89a88;"/><path d="M40,700.875c0,0 73.824,-40.364 109.701,-59.98c12.546,-6.86 26.616,-10.455 40.915,-10.455c56.7,0 207.876,0 257.888,0c10.773,0 21.44,-2.128 31.388,-6.261c18.161,-7.545 48.641,-20.209 67.995,-28.25c11.841,-4.919 24.536,-7.452 37.358,-7.452l285.36,0c11.833,0 23.568,2.137 34.642,6.307c9.364,3.527 21.062,7.933 30.744,11.579c12.452,4.69 25.649,7.092 38.955,7.092c41.608,0 138.262,0 198.72,0c34.425,0 68.503,6.871 100.239,20.209c3.675,1.544 7.377,3.1 11.03,4.636c28.157,11.833 60.302,9.285 86.242,-6.837c0,0 0,0 0.001,0c1.075,-0.669 2.316,-1.023 3.582,-1.023l207.063,0c23.622,0 46.867,5.926 67.606,17.234c38.243,20.852 97.571,53.201 97.571,53.201l-1707,0Z" style="fill:#715f75;"/><path d="M8.582,703.572c0,0 42.462,-26.819 64.008,-40.428c7.991,-5.047 17.249,-7.726 26.701,-7.726c31.54,0 106.964,0 148.283,0c18.685,0 37.223,-3.304 54.759,-9.758c18.059,-6.647 41.904,-15.425 60.139,-22.137c18.091,-6.659 37.218,-10.068 56.495,-10.068l415.564,0c6.142,0 12.231,1.132 17.963,3.339c14.695,5.657 45.187,17.395 68.719,26.455c20.894,8.044 43.092,12.169 65.481,12.169c30.303,0 73.163,0 94.688,0c8.804,0 17.452,-2.325 25.07,-6.739c8.042,-4.66 18.7,-10.836 26.742,-15.496c7.617,-4.415 16.265,-6.739 25.069,-6.739l310.785,0c8.382,0 16.629,2.107 23.984,6.128c9.001,4.921 21.58,11.797 30.582,16.718c7.354,4.021 15.602,6.128 23.984,6.128l125.941,0c11.71,0 23.048,4.11 32.038,11.613c16.137,13.468 40.551,33.844 40.551,33.844l-1737.55,2.697Z" style="fill:#4a3e56;"/><g><g><path d="M623.844,581.012c-35.536,49.233 -28.861,54.29 -35.838,49.514c-6.978,-4.776 -9.842,-12.195 0.048,-25.859c9.89,-13.663 26.564,-25.517 35.79,-23.655Z" style="fill:#30283a;"/></g><g><path d="M554.502,581.012c35.535,49.233 28.861,54.29 35.838,49.514c6.977,-4.776 9.841,-12.195 -0.048,-25.859c-9.89,-13.663 -26.564,-25.517 -35.79,-23.655Z" style="fill:#30283a;"/></g></g><g><g><path d="M1616.59,628.965c-35.536,49.233 -28.861,54.29 -35.838,49.514c-6.978,-4.776 -9.842,-12.195 0.048,-25.859c9.89,-13.664 26.564,-25.517 35.79,-23.655Z" style="fill:#30283a;"/></g><g><path d="M1547.25,628.965c35.535,49.233 28.86,54.29 35.838,49.514c6.977,-4.776 9.841,-12.195 -0.048,-25.859c-9.89,-13.664 -26.564,-25.517 -35.79,-23.655Z" style="fill:#30283a;"/></g></g><g><g><path d="M309.715,611.194c-27.34,37.879 -22.205,41.77 -27.573,38.095c-5.369,-3.675 -7.572,-9.383 0.037,-19.895c7.609,-10.513 20.438,-19.633 27.536,-18.2Z" style="fill:#715f75;"/></g><g><path d="M256.364,611.194c27.341,37.879 22.205,41.77 27.574,38.095c5.368,-3.675 7.572,-9.383 -0.038,-19.895c-7.609,-10.513 -20.437,-19.633 -27.536,-18.2Z" style="fill:#715f75;"/></g></g><path d="M0,707c0,0 37.429,-22.384 62.56,-37.413c14.569,-8.713 31.227,-13.314 48.202,-13.314l236.105,0c5.923,0 11.8,-1.052 17.355,-3.108c16.262,-6.019 52.691,-19.501 78.19,-28.938c18.129,-6.71 37.307,-10.144 56.639,-10.144l245.433,0c6.172,0 12.292,1.143 18.048,3.371c20.415,7.902 71.166,27.546 91.581,35.448c5.757,2.228 11.876,3.371 18.049,3.371c42.626,0 218.795,0 269.157,0c8.844,0 17.53,-2.345 25.171,-6.798c8.025,-4.675 18.64,-10.86 26.665,-15.535c7.642,-4.453 16.327,-6.798 25.171,-6.798c39.152,0 152.365,0 190.661,0c8.421,0 16.705,2.126 24.084,6.182c8.986,4.939 21.518,11.828 30.503,16.767c7.38,4.056 15.664,6.182 24.085,6.182l144.291,0c6.415,0 12.771,1.235 18.72,3.637c28.777,11.62 116.623,47.09 116.623,47.09l-1767.29,0Z" style="fill:#2d2045;"/><g><rect x="1144.89" y="630.882" width="5.476" height="40.125" style="fill:#30283a;"/><rect x="1155.65" y="643.323" width="5.476" height="40.125" style="fill:#30283a;"/></g><g><rect x="452.857" y="593.908" width="5.476" height="40.125" style="fill:#30283a;"/><rect x="442.095" y="606.349" width="5.476" height="40.125" style="fill:#30283a;"/></g><g><rect x="839.248" y="559.452" width="5.476" height="40.125" style="fill:#715f75;"/><rect x="850.009" y="571.893" width="5.476" height="40.125" style="fill:#715f75;"/></g><g><rect x="1024.24" y="590.032" width="50.871" height="22.865" style="fill:#912838;"/><rect x="1024.24" y="584.256" width="50.871" height="28.859" style="fill:#de7e42;"/><rect x="1030.28" y="584.256" width="38.777" height="23.106" style="fill:#912838;"/><rect x="1024.24" y="561.916" width="50.871" height="31.137" style="fill:#ffb05c;"/><rect x="1024.24" y="569.973" width="50.871" height="23.079" style="fill:#e8924d;"/><rect x="1043.34" y="590.775" width="12.659" height="7.91" style="fill:#ffa13c;"/><rect x="1024.24" y="561.916" width="6.047" height="31.137" style="fill:#ffa13c;"/><rect x="1046.65" y="561.916" width="6.047" height="31.137" style="fill:#ffa13c;"/><rect x="1069.06" y="561.916" width="6.047" height="31.137" style="fill:#ffa13c;"/><path d="M1024.24,587.011l0,6.042l50.871,0l0,-6.042l-50.871,0Z" style="fill:#ffa13c;"/></g><g><g><path d="M1119.01,593.397c-27.617,38.262 -22.43,42.192 -27.852,38.48c-5.423,-3.712 -7.649,-9.477 0.037,-20.096c7.686,-10.619 20.644,-19.831 27.815,-18.384Z" style="fill:#715f75;"/></g><g><path d="M1065.12,593.397c27.617,38.262 22.429,42.192 27.852,38.48c5.422,-3.712 7.648,-9.477 -0.038,-20.096c-7.686,-10.619 -20.644,-19.831 -27.814,-18.384Z" style="fill:#715f75;"/></g></g><path d="M1084.95,553.23c-5.303,8.316 -5.968,7.828 -13.807,1.836c8.269,6.025 6.694,7.226 1.838,13.795c3.335,-5.631 6.529,-7.261 13.807,-1.836c-7.212,-5.513 -7.835,-5.964 -1.838,-13.795Z" style="fill:#fff;"/><path d="M1032.05,605.398c-9.741,1.579 -9.819,0.759 -10.56,-9.074c1.002,10.176 -0.944,9.8 -9.082,10.551c6.426,-1.26 9.769,0.036 10.56,9.074c-0.681,-9.047 -0.759,-9.811 9.082,-10.551Z" style="fill:#fff;"/><ellipse cx="220" cy="644.01" rx="2" ry="1.998" style="fill:#fff;"/><ellipse cx="190" cy="516.177" rx="2" ry="1.998" style="fill:#fff;"/><ellipse cx="594.506" cy="574.331" rx="2" ry="1.998" style="fill:#fff;"/><ellipse cx="494.506" cy="494.402" rx="2" ry="1.998" style="fill:#f6ba6c;"/><ellipse cx="534.506" cy="654.26" rx="2" ry="1.998" style="fill:#fff;"/><ellipse cx="748.46" cy="604.304" rx="2" ry="1.998" style="fill:#f6ba6c;"/><ellipse cx="870.712" cy="484.41" rx="2" ry="1.998" style="fill:#ffd69b;"/><ellipse cx="1159.02" cy="574.331" rx="2" ry="1.998" style="fill:#fff;"/><ellipse cx="1401.16" cy="614.295" rx="2" ry="1.998" style="fill:#ffd69b;"/><ellipse cx="1454.87" cy="459.554" rx="2" ry="1.998" style="fill:#f6ba6c;"/><ellipse cx="1187.04" cy="438.389" rx="2" ry="1.998" style="fill:#fff;"/><ellipse cx="1651.49" cy="574.331" rx="2" ry="1.998" style="fill:#fff;"/><ellipse cx="302.115" cy="281.256" rx="2" ry="1.998" style="fill:#ffd69b;"/><ellipse cx="594.506" cy="343.022" rx="2" ry="1.998" style="fill:#fff;"/><ellipse cx="990.319" cy="335.617" rx="2" ry="1.998" style="fill:#f6ba6c;"/><ellipse cx="1373.69" cy="286.715" rx="2" ry="1.998" style="fill:#fff;"/><ellipse cx="918.02" cy="333.791" rx="27.059" ry="27.035" style="fill:#fe5f55;"/></g></svg>