<?xml version="1.0" encoding="UTF-8" standalone="no"?>
<!DOCTYPE svg PUBLIC "-//W3C//DTD SVG 1.1//EN" "http://www.w3.org/Graphics/SVG/1.1/DTD/svg11.dtd">
<svg width="110%" height="100%" viewBox="0 0 1629 451" version="1.1" xmlns="http://www.w3.org/2000/svg" xmlns:xlink="http://www.w3.org/1999/xlink" xml:space="preserve" xmlns:serif="http://www.serif.com/" style="fill-rule:evenodd;clip-rule:evenodd;stroke-linejoin:round;stroke-miterlimit:2;">
    <g transform="matrix(1,0,0,1,89.0334,-1781)">
        <g transform="matrix(0.459585,0,0,0.520827,103.697,905.975)">
            <g transform="matrix(2.17588,0,0,1.92002,-225.632,-1864.3)">
                <path d="M-89.033,1999.45C-89.033,1975.24 -78.053,1952.33 -59.178,1937.17C-40.302,1922.01 -15.569,1916.23 8.071,1921.45C55.119,1931.84 110.973,1944.18 155.728,1954.06C209.285,1965.89 264.733,1966.29 318.453,1955.23C369.742,1944.67 435.936,1931.04 488.502,1920.22C546.708,1908.23 606.883,1909.71 664.429,1924.54C700.964,1933.95 743.999,1945.04 783.386,1955.19C861.202,1975.24 943.312,1970.76 1018.49,1942.36C1050.86,1930.13 1084.76,1917.33 1112.53,1906.84C1150.35,1892.55 1192.79,1897.84 1225.94,1920.99C1225.94,1920.99 1225.94,1920.99 1225.94,1920.99C1258.91,1944 1301.43,1948.33 1338.36,1932.42C1364.8,1921.03 1396.85,1907.23 1427.49,1894.03C1452.17,1883.39 1480.55,1885.88 1503,1900.66C1525.45,1915.43 1538.97,1940.51 1538.97,1967.39L1538.97,2148L-89.033,2148C-89.033,2148 -89.033,2068.44 -89.033,1999.45Z" style="fill:rgb(243,205,159);"/>
            </g>
        </g>
        <g transform="matrix(0.459585,0,0,0.520827,103.697,905.975)">
            <g transform="matrix(2.17588,0,0,1.92002,-225.632,-1714.53)">
                <path d="M-89.033,1999.45C-89.033,1975.24 -78.053,1952.33 -59.178,1937.17C-40.302,1922.01 -15.569,1916.23 8.071,1921.45C55.119,1931.84 110.973,1944.18 155.728,1954.06C209.285,1965.89 264.733,1966.29 318.453,1955.23C369.742,1944.67 435.936,1931.04 488.502,1920.22C546.708,1908.23 606.883,1909.71 664.429,1924.54C700.964,1933.95 743.999,1945.04 783.386,1955.19C861.202,1975.24 943.312,1970.76 1018.49,1942.36C1050.86,1930.13 1084.76,1917.33 1112.53,1906.84C1150.35,1892.55 1192.79,1897.84 1225.94,1920.99C1225.94,1920.99 1225.94,1920.99 1225.94,1920.99C1258.91,1944 1301.43,1948.33 1338.36,1932.42C1364.8,1921.03 1396.85,1907.23 1427.49,1894.03C1452.17,1883.39 1480.55,1885.88 1503,1900.66C1525.45,1915.43 1538.97,1940.51 1538.97,1967.39L1538.97,2148L-89.033,2148C-89.033,2148 -89.033,2068.44 -89.033,1999.45Z" style="fill:white;"/>
            </g>
        </g>
        <g transform="matrix(0.459585,0,0,0.520827,103.697,905.975)">
            <g transform="matrix(2.17588,0,0,1.92002,-225.632,-1643.49)">
                <path d="M-89.033,1999.45C-89.033,1975.24 -78.053,1952.33 -59.178,1937.17C-40.302,1922.01 -15.569,1916.23 8.071,1921.45C55.119,1931.84 110.973,1944.18 155.728,1954.06C209.285,1965.89 264.733,1966.29 318.453,1955.23C369.742,1944.67 435.936,1931.04 488.502,1920.22C546.708,1908.23 606.883,1909.71 664.429,1924.54C700.964,1933.95 743.999,1945.04 783.386,1955.19C861.202,1975.24 943.312,1970.76 1018.49,1942.36C1050.86,1930.13 1084.76,1917.33 1112.53,1906.84C1150.35,1892.55 1192.79,1897.84 1225.94,1920.99C1225.94,1920.99 1225.94,1920.99 1225.94,1920.99C1258.91,1944 1301.43,1948.33 1338.36,1932.42C1364.8,1921.03 1396.85,1907.23 1427.49,1894.03C1452.17,1883.39 1480.55,1885.88 1503,1900.66C1525.45,1915.43 1538.97,1940.51 1538.97,1967.39L1538.97,2148L-89.033,2148C-89.033,2148 -89.033,2068.44 -89.033,1999.45Z" style="fill:rgb(215,232,249);"/>
            </g>
        </g>
        <g transform="matrix(0.459585,0,0,0.520827,103.697,905.975)">
            <g transform="matrix(2.17588,0,0,1.92002,-225.632,-1580.13)">
                <path d="M-89.033,1999.45C-89.033,1975.24 -78.053,1952.33 -59.178,1937.17C-40.302,1922.01 -15.569,1916.23 8.071,1921.45C55.119,1931.84 110.973,1944.18 155.728,1954.06C209.285,1965.89 264.733,1966.29 318.453,1955.23C369.742,1944.67 435.936,1931.04 488.502,1920.22C546.708,1908.23 606.883,1909.71 664.429,1924.54C700.964,1933.95 743.999,1945.04 783.386,1955.19C861.202,1975.24 943.312,1970.76 1018.49,1942.36C1050.86,1930.13 1084.76,1917.33 1112.53,1906.84C1150.35,1892.55 1192.79,1897.84 1225.94,1920.99C1225.94,1920.99 1225.94,1920.99 1225.94,1920.99C1258.91,1944 1301.43,1948.33 1338.36,1932.42C1364.8,1921.03 1396.85,1907.23 1427.49,1894.03C1452.17,1883.39 1480.55,1885.88 1503,1900.66C1525.45,1915.43 1538.97,1940.51 1538.97,1967.39L1538.97,2148L-89.033,2148C-89.033,2148 -89.033,2068.44 -89.033,1999.45Z" style="fill:rgb(139,186,234);"/>
            </g>
        </g>
    </g>
</svg>
