<?xml version="1.0" encoding="UTF-8" standalone="no"?>
<!DOCTYPE svg PUBLIC "-//W3C//DTD SVG 1.1//EN" "http://www.w3.org/Graphics/SVG/1.1/DTD/svg11.dtd">
<svg width="100%" height="100%" viewBox="0 0 1026 482" version="1.1" xmlns="http://www.w3.org/2000/svg" xmlns:xlink="http://www.w3.org/1999/xlink" xml:space="preserve" xmlns:serif="http://www.serif.com/" style="fill-rule:evenodd;clip-rule:evenodd;stroke-linecap:round;stroke-linejoin:round;stroke-miterlimit:1.5;">
    <g transform="matrix(1,0,0,1,-682.841,-776.488)">
        <g transform="matrix(0.805422,0,0,0.809527,-2809.55,-1603.55)">
            <g transform="matrix(3.51552,0,0,2.5879,-8896.49,-4578.66)">
                <g>
                    <g transform="matrix(0.781237,0,0,1.05589,-976.867,-172.282)">
                        <path d="M6522.62,3043.65C6522.62,3043.65 6531.26,3042.8 6531.4,3052.85C6531.56,3064.32 6524.89,3063.89 6522.91,3063.75L6522.62,3043.65Z" style="fill:rgb(255,53,64);stroke:rgb(255,53,64);stroke-width:0.94px;"/>
                    </g>
                    <g transform="matrix(0.828309,0,0,1.11951,-1286.35,-373.467)">
                        <circle cx="6425.75" cy="3099.91" r="33.868" style="stroke:black;stroke-width:0.89px;"/>
                    </g>
                    <g transform="matrix(0.551679,0,0,0.745627,481.892,772.178)">
                        <circle cx="6442.61" cy="3117.56" r="29.651" style="fill:white;stroke:white;stroke-width:1.33px;"/>
                    </g>
                    <g transform="matrix(0.707225,0,0,0.955857,-504.371,140.395)">
                        <circle cx="6420.13" cy="3092.92" r="7.213" style="fill:rgb(212,214,217);stroke:rgb(212,214,217);stroke-width:1.04px;"/>
                    </g>
                    <g transform="matrix(0.828309,0,0,1.11951,-1483.25,-373.467)">
                        <circle cx="6425.75" cy="3099.91" r="33.868" style="stroke:black;stroke-width:0.89px;"/>
                    </g>
                    <g transform="matrix(0.551679,0,0,0.745627,284.991,772.178)">
                        <circle cx="6442.61" cy="3117.56" r="29.651" style="fill:white;stroke:white;stroke-width:1.33px;"/>
                    </g>
                    <g transform="matrix(0.707225,0,0,0.955857,-701.271,140.395)">
                        <circle cx="6420.13" cy="3092.92" r="7.213" style="fill:rgb(212,214,217);stroke:rgb(212,214,217);stroke-width:1.04px;"/>
                    </g>
                    <g transform="matrix(0.781237,0,0,1.05589,-976.867,-166.784)">
                        <path d="M6088.72,2934.74L6483.01,2934.74C6483.01,2934.74 6537.34,2993.93 6522.85,3094.73L6470.07,3094.73C6470.07,3094.73 6459.11,3096.06 6457.25,3086.62C6455.4,3077.18 6446.29,3056.79 6435.67,3056.45C6425.04,3056.11 6401.44,3056.45 6401.44,3056.45C6401.44,3056.45 6383.9,3053.24 6376.82,3086.3C6376.82,3086.3 6375.91,3095.03 6366.99,3095.03L6221.82,3095.03C6221.82,3095.03 6210.74,3095.33 6207.52,3082.87C6204.29,3070.42 6193.68,3072.72 6190.45,3072.49C6187.22,3072.26 6137.45,3072.49 6137.45,3072.49C6137.45,3072.49 6126.61,3072.97 6122.46,3083.35C6118.31,3093.73 6114.15,3095.11 6110.46,3095.11L6075.25,3095.11C6075.25,3095.11 6060.23,2990.83 6088.72,2934.74Z" style="fill:rgb(58,122,255);stroke:rgb(58,122,255);stroke-width:0.94px;"/>
                    </g>
                    <g transform="matrix(0.781237,0,0,1.05589,-976.867,-172.282)">
                        <path d="M6088.72,2934.74L6483.01,2934.74C6483.01,2934.74 6537.34,2993.93 6522.85,3094.73L6470.07,3094.73C6470.07,3094.73 6459.11,3096.06 6457.25,3086.62C6455.4,3077.18 6446.29,3056.79 6435.67,3056.45C6425.04,3056.11 6401.44,3056.45 6401.44,3056.45C6401.44,3056.45 6383.9,3053.24 6376.82,3086.3C6376.82,3086.3 6375.91,3095.03 6366.99,3095.03L6221.82,3095.03C6221.82,3095.03 6210.74,3095.33 6207.52,3082.87C6204.29,3070.42 6193.68,3072.72 6190.45,3072.49C6187.22,3072.26 6137.45,3072.49 6137.45,3072.49C6137.45,3072.49 6126.61,3072.97 6122.46,3083.35C6118.31,3093.73 6114.15,3095.11 6110.46,3095.11L6075.25,3095.11C6075.25,3095.11 6060.23,2990.83 6088.72,2934.74Z" style="fill:rgb(92,145,255);"/>
                    </g>
                    <g transform="matrix(0.781237,0,0,1.05589,-976.755,-172.282)">
                        <path d="M6088.72,2934.74L6483.01,2934.74C6483.01,2934.74 6508.87,2960.33 6521.21,3018.45C6521.21,3018.45 6508.58,2997.61 6493.63,2997.2C6480.92,2996.87 6073.1,2996.82 6073.1,2996.82C6073.1,2996.82 6073.9,2964.67 6088.72,2934.74Z" style="fill:rgb(162,192,255);"/>
                    </g>
                    <g transform="matrix(0.781237,0,0,1.05589,-976.867,-172.282)">
                        <path d="M6379.97,3020.36L6402.73,3020.36" style="fill:none;stroke:rgb(91,91,91);stroke-width:1.88px;"/>
                    </g>
                    <g transform="matrix(0.781237,0,0,1.05589,-976.867,-172.282)">
                        <path d="M6327.85,3020.53L6349.72,3020.53" style="fill:none;stroke:rgb(91,91,91);stroke-width:1.88px;"/>
                    </g>
                    <g transform="matrix(0.781237,0,0,1.05589,-976.867,-172.282)">
                        <path d="M6127.25,2945.26L6216.04,2945.26C6216.04,2945.26 6221.82,2944.88 6221.82,2949.5L6221.82,2981.67C6221.82,2981.67 6220.66,2987.25 6216.81,2987.06C6212.96,2986.87 6122.05,2987.06 6122.05,2987.06C6122.05,2987.06 6113.77,2987.25 6114.15,2981.86C6114.53,2976.47 6117.81,2952.97 6120.89,2948.54C6123.97,2944.11 6124.89,2945.53 6127.25,2945.26Z" style="fill:white;stroke:white;stroke-width:0.94px;"/>
                    </g>
                    <g transform="matrix(0.786787,0,0,1.08033,-1013.16,-245.7)">
                        <path d="M6351.05,2951.14C6351.05,2948.41 6348.8,2946.2 6346.03,2946.2L6248.85,2946.2C6246.08,2946.2 6243.83,2948.41 6243.83,2951.14L6243.83,2982.4C6243.83,2985.13 6246.08,2987.34 6248.85,2987.34L6346.03,2987.34C6348.8,2987.34 6351.05,2985.13 6351.05,2982.4L6351.05,2951.14Z" style="fill:white;stroke:white;stroke-width:0.93px;"/>
                    </g>
                    <g transform="matrix(0.781237,0,0,1.05589,-976.867,-172.282)">
                        <path d="M6491.17,2944.96C6491.17,2944.96 6481.22,2941.91 6485.89,2952.37C6490.56,2962.83 6498.78,2983 6498.78,2983C6498.78,2983 6499.52,2986.55 6503.26,2987.11L6512.52,2987.11C6512.52,2987.11 6502.13,2959.58 6491.17,2944.96Z" style="fill:white;stroke:white;stroke-width:0.94px;"/>
                    </g>
                    <g transform="matrix(0.781237,0,0,1.05589,-976.867,-171.958)">
                        <path d="M6369.46,2934.77L6369.46,3039.12C6369.46,3039.12 6368.13,3048.09 6378.1,3048.76C6388.07,3049.42 6432.27,3048.76 6432.27,3048.76C6432.27,3048.76 6449.4,3046.12 6458.86,3068.36C6464.36,3081.31 6461.63,3087.72 6470.49,3088.01C6478.46,3088.28 6502.47,3088.01 6502.47,3088.01C6502.47,3088.01 6512.99,3016.23 6468.16,2934.81L6369.46,2934.77Z" style="fill:none;stroke:rgb(117,117,117);stroke-width:0.94px;"/>
                    </g>
                    <g transform="matrix(0.781237,0,0,1.05589,-976.867,-172.282)">
                        <path d="M6231.51,2934.8L6231.51,3094.98" style="fill:none;stroke:rgb(117,117,117);stroke-width:0.94px;"/>
                    </g>
                    <g transform="matrix(0.781237,0,0,1.05589,-976.867,-172.282)">
                        <path d="M6359.51,2934.45L6359.51,3094.98" style="fill:none;stroke:rgb(117,117,117);stroke-width:0.94px;"/>
                    </g>
                    <g transform="matrix(0.908786,0,0,1.05589,-1754.18,-172.282)">
                        <path d="M6101.51,3087.08C6101.51,3083.74 6099.18,3081.04 6096.32,3081.04L6077.69,3081.04C6074.82,3081.04 6072.49,3083.74 6072.49,3087.08L6072.49,3090.1C6072.49,3093.43 6074.82,3096.14 6077.69,3096.14L6096.32,3096.14C6099.18,3096.14 6101.51,3093.43 6101.51,3090.1L6101.51,3087.08Z" style="fill:rgb(212,214,217);stroke:rgb(212,214,217);stroke-width:0.87px;"/>
                    </g>
                    <g transform="matrix(0.781237,0,0,1.05589,-976.387,-172.759)">
                        <path d="M6416.94,2915.9C6416.94,2915.9 6481.14,2913.62 6482.15,2934.61L6088.42,2934.61C6088.42,2934.61 6089.59,2916.79 6130.4,2916.02C6171.2,2915.24 6416.94,2915.9 6416.94,2915.9Z" style="fill:white;stroke:white;stroke-width:0.94px;"/>
                    </g>
                    <g transform="matrix(0.792897,0,0,1.12513,-1055.29,-386.889)">
                        <path d="M6529.89,3087.86C6529.89,3084.83 6527.3,3082.37 6524.12,3082.37L6505.49,3082.37C6502.31,3082.37 6499.72,3084.83 6499.72,3087.86L6499.72,3090.61C6499.72,3093.64 6502.31,3096.1 6505.49,3096.1L6524.12,3096.1C6527.3,3096.1 6529.89,3093.64 6529.89,3090.61L6529.89,3087.86Z" style="fill:rgb(212,214,217);stroke:rgb(212,214,217);stroke-width:0.91px;"/>
                    </g>
                    <g transform="matrix(0.781237,0,0,1.05589,-977.325,-172.746)">
                        <path d="M6385.88,2945.32L6456.94,2945.32C6456.94,2945.32 6462.97,2944.43 6467.09,2953.71C6471.85,2964.43 6476.36,2976.66 6476.36,2976.66C6476.36,2976.66 6479,2986.81 6471.94,2987.25C6464.88,2987.69 6387.65,2987.25 6387.65,2987.25C6387.65,2987.25 6381.03,2988.57 6380.59,2982.39C6380.15,2976.22 6380.59,2950.18 6380.59,2950.18C6380.59,2950.18 6379.11,2945.33 6385.88,2945.32Z" style="fill:white;stroke:white;stroke-width:0.94px;"/>
                    </g>
                </g>
            </g>
        </g>
    </g>
</svg>
