<?xml version="1.0" encoding="UTF-8" standalone="no"?><!DOCTYPE svg PUBLIC "-//W3C//DTD SVG 1.1//EN" "http://www.w3.org/Graphics/SVG/1.1/DTD/svg11.dtd"><svg width="100%" height="100%" viewBox="0 0 455 45" version="1.1" xmlns="http://www.w3.org/2000/svg" xmlns:xlink="http://www.w3.org/1999/xlink" xml:space="preserve" xmlns:serif="http://www.serif.com/" style="fill-rule:evenodd;clip-rule:evenodd;stroke-linejoin:round;stroke-miterlimit:2;"><g><path d="M22.345,43.366l0.572,-0.057l0.401,-0.057l0.688,0.057l0.458,0l1.26,-0.057l0.802,0l0.458,0.057l0.63,-0.057c0.23,0 0.344,0.057 0.573,0c0.287,-0.172 0.229,-0.688 0.172,-0.917l0,-1.203l-0.057,-1.26l0,-0.515l-0.058,-0.458l0.058,-0.802l0,-0.86l-0.058,-0.401l-0.057,-0.744l0,-0.344l-0.114,-2.176l0.057,-0.401l-0.057,-0.802l0.057,-0.86l-0.057,-0.859l0,-0.401l-0.058,-2.635l0,-1.718l-0.057,-0.458l-0.057,-0.688l0,-2.234l-0.115,-0.63l-0.057,-0.916l0,-0.344l-0.057,-0.744l0.057,-0.344l-0.057,-0.802l0,-1.146l-0.115,-0.802l0,-1.26l0.057,-0.401l-0.057,-0.859l0,-0.802l-0.114,-1.145l-0.058,-0.745l0,-0.802l-0.057,-2.062l0,-1.031l-0.115,-0.802l0,-0.802l-0.171,-2.463l-0.344,-0.286l-0.458,-0.115l-0.688,0l0.115,1.719l0,1.26l0.114,0.343l0,1.031l0.058,2.062l0,0.802l0.057,0.745l0.115,1.146l0,0.802l0.057,0.859l-0.057,0.401l0,1.26l0.114,0.802l0,1.145l0.057,0.802l-0.057,0.344l0.057,0.745l0,0.343l0.058,0.917l0.114,0.63l0,2.234l0.058,0.687l0.057,0.458l0,1.719l0.057,2.635l0,0.401l0.057,0.859l-0.057,0.859l0.057,0.802l-0.057,0.401l0.115,2.177l0,0.343l0.057,0.745l0.057,0.401l0,0.859l-0.057,0.802l0.057,0.458l0,0.516l0.057,1.26l0,1.203c0.058,0.229 0.115,0.744 -0.171,0.916c-0.229,0.058 -0.401,0 -0.63,0l-0.401,0.058l-0.459,-0.058l-0.802,0l-1.26,0.058l-0.458,0l-0.687,-0.058l-0.401,0.058l-0.573,0.057l-0.573,-0.057l0,0.4l0.115,0.573l0.229,0.172l0.859,0l0.745,0.057Zm-7.218,-17.184l1.203,0l0.344,-3.666l0,-1.031l-0.286,0.058l-0.459,1.145l-0.172,0.63l-0.229,0.86l-0.114,0.458l-0.172,0.401l-0.286,0.916l0.171,0.229Zm-6.644,17.184l0.458,-0.057l1.604,0.057l0.286,-0.229l0.229,-0.401l0.115,-0.286l0.229,-0.745l0.344,-0.859l0.401,-0.974l0.229,-0.687l0.172,-0.401l0.114,-0.401l0.401,-0.859l0.401,-0.516l1.833,0.058l0.917,0l0.172,-0.115l0,-0.974l-0.631,-0.057l-2.004,-0.057l-1.547,0l-0.286,0.63l-0.401,0.744l-0.115,0.401l-0.172,0.401l-0.229,0.688l-0.573,1.088l-0.343,0.859l-0.172,0.63l-0.172,0.287l-0.229,0.401l-0.344,0.229l-1.604,-0.057l-0.458,0.057l-0.859,-0.057l-0.401,-0.058l-3.322,-0.057l0,0.172l-0.115,0.401l0.115,0.458l0.515,0.115l4.182,0.057l0.401,0.057l0.859,0.057Z" style="fill:#ac343c;fill-rule:nonzero;stroke:#000;stroke-width:0.24px;"/><path d="M33.572,43.309l5.327,0l0.171,-0.401l0.23,-0.573l-0.058,-0.515l0.115,-0.458l0.229,-0.459l0.114,-0.343l0,-0.401l0.23,-0.802l0.057,-0.573l0.114,-0.859l0,-0.688l0.058,-0.515l0.229,-0.401l0.057,-0.516l0.172,-0.572l0.057,-0.516l0.229,-0.63l0.058,-0.63l0.171,-0.573l0.058,-0.401l0.057,-0.343l0.057,-0.401l0.058,-0.344l0.114,-0.573l0.057,-0.515l0,-0.287l0.115,-0.401l0.057,-0.458l0.516,-0.172l2.176,-0.057l1.49,-0.172l1.031,-0.229l0.859,-0.057l0.745,-0.344l0.802,-0.229l0.859,-0.458l0.63,-0.23l0.63,-0.401l0.458,-0.286l0.516,-0.573l0.515,-0.343l0.287,-0.344l0.401,-0.458l0.458,-0.573l0.458,-0.516l0.458,-0.63l0.458,-0.744l0.344,-0.688l0.344,-0.859l0.458,-0.859l0.458,-1.26l0.229,-0.573l0,-0.344l0.23,-0.401l0.114,-0.401l0,-0.458l0.172,-0.573l0.172,-1.031l0.172,-0.859l0.057,-0.515l0,-0.631l0.057,-0.63l0.057,-0.515l-0.057,-0.63l0,-0.688l-0.057,-0.63l-0.115,-0.515l0,-0.516l-0.114,-0.63l-0.057,-0.515l-0.115,-0.573l-0.286,-0.63l-0.23,-0.573l-0.286,-0.401l-0.229,-0.401l-0.401,-0.63l-0.401,0.057l0.229,0.688l0.229,0.572l0.172,0.745l0.057,0.516l0.115,0.63l0,1.145l0.114,0.974l0,1.375l-0.057,0.63l0,0.63l-0.172,0.515l-0.171,0.86l-0.115,1.031l-0.115,0.572l-0.114,0.459l-0.057,0.401l-0.23,0.401l0,0.343l-0.114,0.573l-0.172,0.63l-0.286,0.745l-0.344,0.859l-0.401,0.745l-0.344,0.687l-0.515,0.802l-0.344,0.687l-0.515,0.516l-0.401,0.573l-0.459,0.458l-0.343,0.458l-0.573,0.458l-0.974,0.745l-0.573,0.286l-2.062,0.802l-1.031,0.229l-2.005,0.344l-3.608,0l-0.458,0.229l-0.058,0.458l-0.114,0.573l-0.115,0.859l-0.172,0.573l0.058,0.344l-0.172,0.401l-0.058,0.344l0.058,0.401l-0.229,0.572l-0.058,0.63l-0.114,0.631l-0.172,0.515l-0.172,0.573l-0.114,0.515l-0.115,0.401l-0.115,0.516l0,0.687l-0.114,0.859l-0.172,0.573l-0.057,0.401l0,0.401l-0.172,0.401l-0.057,0.344l-0.058,0.458l-0.114,0.458l-0.172,0.516l-0.115,0.573l-0.343,0.286l-0.974,0.115l-4.124,0l-0.63,-0.115l-0.172,0.115l-0.057,0.286l0.286,0.687l0.63,0.115l0.63,0l0.688,0.057Zm8.649,-25.661l0.687,0l0.516,-0.172l0.114,-0.287l0.287,-1.374l0.171,-0.745l0,-0.859l0.172,-0.917l0.229,-0.572l0.172,-0.688l0,-0.744l0.229,-0.917l0.459,-0.401l0.63,-0.114l0.63,0l-0.057,-0.287l-0.23,-0.458l-0.572,-0.286l-0.688,-0.115l-0.401,0l-0.859,-0.057l-0.344,0.172l-0.057,0.63l-0.229,0.687l-0.057,0.745l-0.115,0.687l-0.057,0.573l-0.287,0.916l-0.057,0.859l-0.114,0.745l-0.115,0.802l-0.114,0.573l-0.115,0.687l-0.115,0.63l0.287,0.287Z" style="fill:#ac343c;fill-rule:nonzero;stroke:#000;stroke-width:0.24px;"/><path d="M59.806,43.309l5.327,0l0.172,-0.401l0.229,-0.573l-0.058,-0.515l0.115,-0.458l0.229,-0.459l0.115,-0.343l0,-0.401l0.229,-0.802l0.057,-0.573l0.115,-0.859l0,-0.688l0.057,-0.515l0.229,-0.401l0.057,-0.516l0.172,-0.572l0.057,-0.516l0.23,-0.63l0.057,-0.63l0.172,-0.573l0.057,-0.401l0.057,-0.343l0.058,-0.401l0.057,-0.344l0.114,-0.573l0.058,-0.515l0,-0.287l0.114,-0.401l0.058,-0.458l0.515,-0.172l2.177,-0.057l1.489,-0.172l1.031,-0.229l0.859,-0.057l0.745,-0.344l0.802,-0.229l0.859,-0.458l0.63,-0.23l0.63,-0.401l0.458,-0.286l0.516,-0.573l0.515,-0.343l0.287,-0.344l0.401,-0.458l0.458,-0.573l0.458,-0.516l0.458,-0.63l0.459,-0.744l0.343,-0.688l0.344,-0.859l0.458,-0.859l0.459,-1.26l0.229,-0.573l0,-0.344l0.229,-0.401l0.114,-0.401l0,-0.458l0.172,-0.573l0.172,-1.031l0.172,-0.859l0.057,-0.515l0,-0.631l0.057,-0.63l0.058,-0.515l-0.058,-0.63l0,-0.688l-0.057,-0.63l-0.114,-0.515l0,-0.516l-0.115,-0.63l-0.057,-0.515l-0.115,-0.573l-0.286,-0.63l-0.229,-0.573l-0.287,-0.401l-0.229,-0.401l-0.401,-0.63l-0.401,0.057l0.229,0.688l0.229,0.572l0.172,0.745l0.058,0.516l0.114,0.63l0,1.145l0.115,0.974l0,1.375l-0.058,0.63l0,0.63l-0.171,0.515l-0.172,0.86l-0.115,1.031l-0.114,0.572l-0.115,0.459l-0.057,0.401l-0.229,0.401l0,0.343l-0.115,0.573l-0.172,0.63l-0.286,0.745l-0.344,0.859l-0.401,0.745l-0.343,0.687l-0.516,0.802l-0.344,0.687l-0.515,0.516l-0.401,0.573l-0.458,0.458l-0.344,0.458l-0.573,0.458l-0.974,0.745l-0.572,0.286l-2.062,0.802l-1.032,0.229l-2.004,0.344l-3.609,0l-0.458,0.229l-0.057,0.458l-0.115,0.573l-0.115,0.859l-0.171,0.573l0.057,0.344l-0.172,0.401l-0.057,0.344l0.057,0.401l-0.229,0.572l-0.057,0.63l-0.115,0.631l-0.172,0.515l-0.172,0.573l-0.114,0.515l-0.115,0.401l-0.114,0.516l0,0.687l-0.115,0.859l-0.172,0.573l-0.057,0.401l0,0.401l-0.172,0.401l-0.057,0.344l-0.057,0.458l-0.115,0.458l-0.172,0.516l-0.114,0.573l-0.344,0.286l-0.974,0.115l-4.124,0l-0.63,-0.115l-0.172,0.115l-0.057,0.286l0.286,0.687l0.63,0.115l0.63,0l0.688,0.057Zm8.649,-25.661l0.687,0l0.516,-0.172l0.114,-0.287l0.287,-1.374l0.172,-0.745l0,-0.859l0.172,-0.917l0.229,-0.572l0.172,-0.688l0,-0.744l0.229,-0.917l0.458,-0.401l0.63,-0.114l0.63,0l-0.057,-0.287l-0.229,-0.458l-0.573,-0.286l-0.688,-0.115l-0.4,0l-0.86,-0.057l-0.343,0.172l-0.058,0.63l-0.229,0.687l-0.057,0.745l-0.115,0.687l-0.057,0.573l-0.286,0.916l-0.058,0.859l-0.114,0.745l-0.115,0.802l-0.114,0.573l-0.115,0.687l-0.114,0.63l0.286,0.287Z" style="fill:#ac343c;fill-rule:nonzero;stroke:#000;stroke-width:0.24px;"/><path d="M92.914,32.082l1.145,0l0.057,-0.343l0.115,-0.573l0.057,-0.516l0.115,-0.515l0.172,-1.318l0.114,-0.458l0,-0.401l0.229,-0.916l0.058,-0.401l0.057,-0.459l0.172,-0.802l0.057,-0.859l0.229,-0.916l0.057,-0.401l0.172,-0.859l0.115,-0.401l0,-0.802l0.114,-0.401l0.172,-1.203l0,-0.458l0.115,-0.401l-0.057,-0.459l0.229,-0.4l0.172,-0.745l0.171,-0.802l0.115,-0.401l0.057,-0.401l0.115,-0.458l-0.115,-0.458l0.229,-0.401l0.115,-0.802l0.229,-0.802l0,-0.458l0.172,-0.802l0.458,-2.005l0.115,-0.573l0.114,-0.63l0.172,-1.203l0.115,-0.344l0,-0.401l0.343,-1.374l0,-0.401l0.058,-0.401l-0.172,-0.688l-1.146,-0.057l-0.172,0l0,0.401l-0.343,1.375l0,0.401l-0.115,0.343l-0.172,1.203l-0.114,0.63l-0.115,0.573l-0.458,2.005l-0.172,0.802l0,0.458l-0.229,0.802l-0.115,0.802l-0.229,0.401l0,0.916l-0.057,0.401l-0.115,0.401l-0.171,0.802l-0.172,0.745l-0.172,0.859l-0.115,0.401l0,0.458l-0.172,1.203l-0.114,0.401l0,0.802l-0.115,0.401l-0.172,0.859l-0.057,0.401l-0.229,0.917l-0.057,0.859l-0.172,0.802l-0.057,0.458l-0.058,0.401l-0.229,0.916l0,0.401l-0.114,0.459l-0.058,0.802l-0.171,0.916l-0.058,0.687l-0.057,0.401l-0.057,0.344l-0.115,0.401l0,0.573l0.287,0.286Zm-8.306,11.284l0.745,-0.057l0.401,0.057l1.603,0l0.573,-0.057l4.697,0l1.146,-0.057l0.802,0.114l0.859,-0.057l1.031,0.057l1.26,-0.171l0.745,-0.115l1.088,0l0.458,-0.401l0.229,-0.974l0.115,-0.859l0.057,-0.344l0,-0.401l0.172,-0.401l0.287,-2.004l0.171,-0.459l-0.057,-0.401l0.115,-0.4l0.057,-0.86l-0.344,-0.172l-1.088,0l-0.172,0.287l0.057,0.401l-0.171,0.458l-0.287,2.005l-0.172,0.401l0,0.401l-0.057,0.343l-0.115,0.86l-0.229,0.916l-0.458,0.401l-1.088,0l-0.745,0.115l-1.26,0.172l-1.031,-0.058l-0.859,0.058l-0.802,-0.115l-1.146,0.057l-4.697,0l-0.573,0.058l-1.603,0l-0.459,0.171l0,0.516l0.229,0.344l0.516,0.171Z" style="fill:#ac343c;fill-rule:nonzero;stroke:#000;stroke-width:0.24px;"/><path d="M107.635,43.309l1.202,0l0.344,-0.057l0.859,0.057l0.516,0l0.344,-0.057l0.458,0.057l1.89,0l0.344,-0.114l0.114,-1.146l0.172,-1.031l0.172,-0.802l0.229,-0.859l0.115,-0.401l0.171,-0.859l0.115,-0.802l0,-0.344l0.115,-0.401l0.171,-0.573l0.058,-0.401l0.229,-0.802l0.229,-0.859l0.172,-0.802l0.172,-0.744l-0.058,-0.344l0.115,-0.344l0.114,-0.687l0.115,-0.573l0.172,-0.63l0.229,-0.745l0,-0.401l0.057,-0.572l0.172,-0.63l0.286,-0.459l0.172,-0.401l0.229,-0.458l0.23,-0.515l0.401,-0.688l0.171,-0.343l0.172,-0.287l0.287,-0.286l0.286,-0.573l0.401,-0.745l0.458,-1.031l0.172,-0.286l0.286,-0.287l0.631,-1.26l0.286,-0.515l0.401,-0.802l0.286,-0.344l0.115,-0.286l0.687,-1.203l0.401,-0.745l0.516,-0.916l0.114,-0.344l0.229,-0.344l0.287,-0.572l0.286,-0.63l0.287,-0.516l0.343,-0.63l0.458,-0.917l0.115,-0.343l0.229,-0.344l0.115,-0.401l0.343,-0.63l0.344,-0.687l0.229,-0.287l0.401,-0.687l0,-0.401l0.287,-0.344l0.171,-0.343l0.287,-0.344l0.057,-0.344l0.401,-0.63l0,-0.286l0.229,-0.745l0.115,-0.744l-0.63,-0.344l-0.745,0.057l-0.172,0.63l-0.114,0.287l-0.401,0.63l-0.115,0.343l-0.344,0.688l-0.229,0.343l-0.114,0.401l-0.344,0.688l-0.229,0.286l-0.229,0.687l-0.458,0.631l-0.115,0.401l-0.229,0.343l-0.115,0.344l-0.515,1.088l-0.573,1.146l-0.458,0.687l-0.058,0.344l-0.229,0.344l-0.114,0.343l-0.573,0.974l-0.286,0.745l-0.287,0.401l-0.114,0.343l-0.459,0.688l-0.057,0.286l-0.344,0.344l-0.572,1.088l-0.229,0.344l-0.23,0.401l-0.343,0.744l-0.344,0.573l-0.458,1.031l-0.458,0.687l-0.344,0.573l-0.344,0.516l-0.172,0.286l-0.171,0.344l-0.401,0.687l-0.23,0.516l-0.229,0.458l-0.172,0.401l-0.171,0.286l-0.229,0.344l-0.115,0.573l0,0.401l-0.229,0.744l-0.172,0.631l-0.115,0.572l-0.114,0.688l-0.115,0.343l0.058,0.344l-0.172,0.745l-0.172,0.802l-0.229,0.859l-0.229,0.802l-0.058,0.401l-0.171,0.572l-0.115,0.401l0,0.344l-0.115,0.802l-0.171,0.859l-0.115,0.401l-0.229,0.859l-0.172,0.802l-0.172,1.031l-0.114,1.089l-0.344,0.114l-1.89,0l-0.458,-0.057l-0.344,0.057l-0.516,0l-0.859,-0.057l-0.344,0.057l-1.202,0l-0.401,-0.057l-0.115,0l0,0.057l0.057,0.802l0.63,0.344l0.86,0l0.401,0.057Zm5.212,-32.649l0.401,-0.917l0.516,-0.802l0.057,-0.401l-0.172,-0.344l0.057,-0.343l-0.172,-0.63l-0.057,-0.459l0,-0.572l-0.172,-0.459l-0.172,-1.718l-0.171,-0.573l-0.63,-0.286l-0.688,0l-0.057,0.114l0.172,1.261l0.114,0.515l0,0.573l0.172,0.802l0.172,1.26l0.115,0.687l0.114,0.401l0,0.573l0.172,0.573l0.057,0.401l0,0.229l0.172,0.115Z" style="fill:#ac343c;fill-rule:nonzero;stroke:#000;stroke-width:0.24px;"/><path d="M144.065,43.424l0.687,-0.172l4.983,0l0.688,-0.287l0.114,-0.343l0.172,-0.802l0.115,-0.802l0.343,-1.604l0.287,-1.26l-0.058,-0.458l0.172,-0.802l0.115,-0.458l0.286,-1.203l0.172,-0.745l0.057,-0.401l0.23,-0.745l0.171,-0.916l0.172,-0.802l-0.057,-0.401l0.057,-0.344l0.057,-0.401l0.23,-0.687l0.057,-0.401l0.114,-0.344l0.058,-0.343l0,-0.573l0.114,-0.516l0.172,-0.859l0.172,-0.802l0,-0.343l0.115,-0.344l0.057,-0.802l0.229,-0.401l0.172,-0.687l0.057,-0.745l0,-0.401l0.172,-0.344l0.172,-0.802l0.114,-0.4l0.115,-0.86l0.286,-0.687l0,-0.401l0.058,-0.344l0.057,-0.687l0,-0.344l0.229,-0.744l0.286,-0.802l-0.114,-0.287l0.229,-0.458l0.229,-1.031l0.057,-0.401l0.115,-0.745l0.114,-0.343l0,-0.344l0.172,-0.401l-0.057,-0.344l0.115,-0.343l0.515,-0.058l2.406,0.058l0.573,0l0.515,-0.058l0.687,0l0.516,0.058l0.573,-0.058l0.229,-0.572l0.057,-0.802l0.115,-0.401l0.229,-0.745l0.057,-0.687l0.057,-0.344l0.115,-0.401l0.115,-0.687l0,-0.344l0.114,-0.401l0.057,-0.344l0,-0.4l0.115,-0.459l0.057,-0.401l0,-0.343l-0.114,-0.459l-0.516,-0.114l-0.573,-0.057l-0.286,0.229l-0.115,0.458l0,0.401l-0.057,0.344l-0.114,0.401l0,0.343l-0.115,0.688l-0.115,0.401l-0.057,0.343l-0.057,0.688l-0.229,0.744l-0.115,0.401l-0.057,0.802l-0.229,0.516l-0.573,0.057l-0.516,-0.057l-0.687,0l-0.515,0.057l-0.573,0l-2.406,-0.057l-0.515,0.057l-0.115,0.401l0.057,0.344l-0.172,0.4l0,0.344l-0.114,0.344l-0.115,0.744l-0.057,0.401l-0.229,1.031l-0.229,0.459l0.114,0.286l-0.286,0.802l-0.229,0.745l0,0.343l-0.057,0.688l-0.058,0.343l0,0.401l-0.286,0.688l-0.115,0.859l-0.114,0.401l-0.172,0.802l-0.172,0.343l0,0.401l-0.057,0.745l-0.172,0.687l-0.229,0.401l-0.057,0.802l-0.115,0.344l0,0.344l-0.172,0.802l-0.172,0.859l-0.114,0.515l0,0.573l-0.058,0.344l-0.114,0.343l-0.057,0.401l-0.23,0.688l-0.057,0.401l-0.057,0.343l0.057,0.401l-0.172,0.802l-0.171,0.917l-0.23,0.744l-0.057,0.401l-0.172,0.745l-0.286,1.203l-0.115,0.458l-0.172,0.802l0.058,0.458l-0.287,1.26l-0.343,1.604l-0.115,0.802l-0.172,0.802l-0.114,0.344l-0.688,0.286l-4.983,0l-0.63,0.172l-0.057,0.516l0.515,0.458l0.401,0l0.516,0.172Zm-0.63,-32.364l0.515,0l0.286,-0.057l0.401,0l0.115,-0.286l0.115,-0.802l-1.146,0l-0.687,-0.057l-0.401,0.057l-0.745,0l-0.057,0.401l0.172,0.515l0.515,0.172l0.458,0l0.459,0.057Z" style="fill:#ac343c;fill-rule:nonzero;stroke:#000;stroke-width:0.24px;"/><path d="M170.413,44.168l0.745,0l1.489,-0.057l1.261,-0.115l0.63,-0.171l0.401,-0.058l0.801,-0.171l0.459,-0.23l0.63,-0.171l0.859,-0.459l0.229,-0.172l0.687,-0.4l0.688,-0.516l0.401,-0.344l0.343,-0.286l0.516,-0.63l0.286,-0.458l0.401,-0.573l0.229,-0.344l0.401,-0.515l0.23,-0.401l0.458,-0.86l0.401,-0.801l0.172,-0.573l0.171,-0.401l0.287,-0.63l0,-0.401l0.229,-0.688l0.286,-0.63l0.058,-0.63l0.171,-0.343l0.23,-0.688l-0.058,-0.344l0.229,-0.801l0.172,-0.401l0.229,-0.802l0.287,-1.146l0.114,-0.401l0,-0.515l0.115,-0.287l0.057,-0.744l0.172,-0.344l0.172,-0.745l0.057,-0.687l0.172,-0.745l0.115,-0.744l0.229,-0.745l-0.058,-0.687l0.287,-0.63l-0.057,-0.573l0.114,-0.917l0.115,-0.401l0.057,-0.916l0.057,-0.859l0.115,-0.802l0.057,-0.344l0,-0.573l-0.057,-0.401l0.057,-0.343l0.115,-0.401l0.057,-0.745l0,-0.401l-0.057,-0.745l0.057,-0.343l0.057,-0.745l0,-0.401l-0.057,-0.458l-0.115,-1.088l-0.057,-0.86l-0.115,-0.401l-0.114,-0.343l-0.057,-0.344l-0.229,-0.687l-0.115,-0.459l-0.344,-0.802l-0.916,-0.916l-0.229,0.057l0.229,0.516l0.229,0.458l0.172,0.516l0.057,0.515l0.115,0.344l0,0.401l0.057,0.859l0,1.088l0.057,0.458l0,0.401l-0.057,0.745l-0.057,0.344l0.057,0.744l0,0.401l-0.057,0.745l-0.115,0.401l-0.057,0.344l0.057,0.401l0,0.572l-0.057,0.344l-0.115,0.802l-0.057,0.859l-0.057,0.917l-0.115,0.401l-0.114,0.916l0.057,0.573l-0.287,0.63l0.058,0.687l-0.229,0.745l-0.115,0.745l-0.172,0.744l-0.057,0.688l-0.172,0.744l-0.172,0.344l-0.057,0.745l-0.115,0.286l0,0.516l-0.114,0.4l-0.115,0.802l-0.172,0.344l-0.572,2.005l0.057,0.344l-0.287,0.687l-0.171,0.344l-0.058,0.63l-0.286,0.63l-0.172,0.687l0,0.401l-0.172,0.63l-0.286,0.401l-0.057,0.573l-0.401,0.802l-0.459,1.031l-0.286,0.401l-0.401,0.744l-0.229,0.344l-0.286,0.344l-0.23,0.344l-0.687,0.687l-0.344,0.286l-0.286,0.344l-0.687,0.515l-0.688,0.459l-0.229,0.172l-1.317,0.515l-0.401,0.057l-0.459,0.115l-0.801,0.172l-0.401,0.057l-0.63,0.172l-1.261,0.229l-1.489,-0.057l-0.745,0.057l-0.401,-0.057l-0.515,-0.058l-1.317,-0.229l-0.917,-0.172l-0.115,0.287l0.745,0.401l0.401,0.229l0.859,0.172l0.459,0.057l1.317,0.344l0.515,0.057l0.401,0.057Zm-0.63,-11.227l0.058,-0.744l0.171,-0.802l-0.114,-0.458l0.114,-0.401l0,-0.401l0.23,-0.859l0,-0.459l0.114,-0.401l0,-0.458l0.115,-0.515l-0.058,-0.23l0.115,-0.401l-0.057,-0.458l0.172,-0.802l0.114,-0.401l0.057,-0.458l0.058,-0.401l0,-0.401l0.057,-0.802l0.115,-0.401l0.229,-0.916l0.171,-0.458l0.115,-0.86l0.115,-0.401l0.057,-0.401l0.172,-0.916l0.172,-0.802l0.229,-0.802l0.057,-0.344l0.172,-0.801l0.057,-0.459l0,-0.114l0.344,-1.203l0.114,-0.458l0.115,-0.401l0.172,-0.802l0.401,-1.203l0.401,-0.63l0.458,-0.401l0.515,-0.229l0.63,0l0.058,-0.287l-0.058,-0.572l-0.286,-0.401l-0.401,-0.058l-0.63,0.058l-0.745,0.401l-0.572,0.515l-0.401,0.63l-0.229,0.687l-0.23,0.401l-0.343,0.745l-0.115,0.401l-0.114,0.458l-0.344,1.203l0,0.115l-0.057,0.458l-0.172,0.802l-0.057,0.344l-0.23,0.801l-0.171,0.802l-0.172,0.917l-0.058,0.401l-0.114,0.401l-0.115,0.859l-0.172,0.458l-0.229,0.917l-0.114,0.401l-0.115,0.802l0,0.401l-0.057,0.401l0.057,0.458l-0.172,0.401l-0.286,0.802l0.057,0.458l-0.114,0.401l0.057,0.229l-0.115,0.515l0,0.459l-0.114,0.401l0,0.458l-0.172,0.859l0,0.401l-0.172,0.401l0.172,0.401l-0.057,0.687l0,0.459l0.057,0.63l0.344,0.687l0.458,0.229l0.286,0.057Z" style="fill:#ac343c;fill-rule:nonzero;stroke:#000;stroke-width:0.24px;"/><path d="M222.137,21.314l0.287,-0.058l0.458,-0.286l0.344,-0.229l0.171,-0.229l0.344,-0.229l0.229,-0.23l0.229,-0.171l0.459,-0.459l0.515,-0.63l0.401,-0.573l0.344,-0.63l0.286,-0.458l0.172,-0.344l0.115,-0.4l0.171,-0.344l0.058,-0.401l0.057,-0.172l0.229,-0.401l-0.057,-0.344l0.401,-0.744l0.057,-0.401l0.115,-0.745l0,-0.344l0.114,-0.4l0,-0.745l0.057,-0.344l0.058,-0.859l-0.058,-0.687l-0.114,-0.459l-0.057,-1.088l-0.058,-0.458l-0.229,-0.802l-0.172,-0.687l-0.114,-0.287l-0.344,-0.63l-0.573,-0.687l-0.401,0.172l0.172,0.286l0.115,0.687l0.229,0.802l0.057,0.458l0,0.401l0.172,1.031l0,0.802l-0.057,0.86l-0.058,0.343l0,0.401l-0.057,0.344l-0.114,0.401l0,0.344l-0.115,0.744l-0.057,0.401l-0.229,0.745l0.057,0.343l-0.229,0.401l-0.057,0.172l-0.058,0.401l-0.114,0.344l-0.172,0.458l-0.172,0.344l-0.229,0.515l-0.401,0.573l-0.344,0.63l-0.458,0.63l-0.458,0.459l-0.172,0.229l-0.286,0.172l-0.287,0.286l-0.286,0.229l-0.344,0.172l-0.573,0.344l-0.057,0.171l0.401,0.287l0.458,0.343l0.229,0.23Zm-9.795,-6.129l0.401,0l0.516,-0.058l0.401,-0.229l0.172,-0.515l0.057,-0.344l0.057,-0.401l0.172,-0.974l0,-0.401l0.172,-0.687l0.057,-0.401l0.057,-0.515l0.172,-0.516l0,-0.401l0.459,-0.115l0.687,0l0.172,-0.4l-0.229,-0.573l-0.63,-0.115l-0.631,-0.057l-0.63,0l-0.458,0.114l0,0.401l-0.172,0.516l-0.057,0.515l-0.057,0.401l-0.172,0.688l0,0.401l-0.172,0.744l-0.057,0.401l-0.115,0.344l-0.057,0.63l-0.229,0.974l0,0.458l0.114,0.115Zm-4.009,28.181l0.859,-0.057l0.172,0l0.458,-0.057l0.802,0l0.458,0.057l0.745,0l1.546,-0.057l0.401,-0.057l0.401,0.057l1.661,-0.229l0.459,-0.115l0.573,-0.114l0.515,-0.115l0.344,-0.115l0.401,-0.171l0.572,-0.229l0.459,-0.23l0.286,-0.171l0.401,-0.172l0.286,-0.172l0.287,-0.229l0.573,-0.344l0.286,-0.286l0.286,-0.229l0.344,-0.401l0.745,-0.745l0.515,-0.687l0.401,-0.802l0.344,-0.516l0.229,-0.458l0.115,-0.458l0.171,-0.344l0.172,-0.401l0.172,-0.458l0.229,-0.63l0.058,-0.401l0.229,-0.745l0.172,-0.859l0.171,-0.802l0,-0.401l0.058,-0.401l0,-0.401l0.057,-0.515l-0.115,-0.573l0.058,-0.745l-0.058,-0.744l-0.171,-0.745l0,-0.344l-0.115,-0.573l-0.286,-0.63l-0.172,-0.401l-0.459,-0.916l-0.286,-0.401l-0.401,0.172l0.115,0.401l0.172,0.63l0,0.573l0.171,0.343l0.229,1.49l0,0.744l-0.057,0.573l-0.057,0.516l0.057,0.343l0,0.401l-0.057,0.401l-0.115,0.859l-0.171,0.86l-0.23,0.744l-0.114,0.401l-0.172,0.802l-0.115,0.344l-0.114,0.401l-0.172,0.343l-0.229,0.802l-0.458,0.688l-0.459,0.744l-0.458,0.63l-0.401,0.63l-0.229,0.23l-0.401,0.286l-0.229,0.344l-0.344,0.286l-0.286,0.172l-0.286,0.229l-0.401,0.286l-0.287,0.172l-0.343,0.172l-0.401,0.229l-0.459,0.229l-0.63,0.172l-0.458,0.115l-0.344,0.057l-0.458,0.172l-1.088,0.172l-0.859,0.114l-0.86,0l-0.401,-0.057l-0.401,0.057l-1.546,0.058l-0.745,-0.058l-0.458,-0.057l-0.802,0l-0.458,0.057l-0.172,0l-0.859,0.058l-0.917,-0.115l-0.458,0l-0.916,0.057l-2.349,0l-0.344,-0.057l-0.687,0l-0.057,0.229l-0.057,0.458l0.4,0.401l0.516,0.058l0.859,0.057l0.458,0l0.344,0.057l2.349,0l0.916,-0.057l0.458,0l0.917,0.114Zm1.947,-10.711l0.344,-0.115l0.172,-0.744l0.114,-0.401l0.058,-0.287l0.114,-0.63l0.058,-0.343l0,-0.401l0.114,-0.401l0.115,-0.859l0.114,-0.23l0.115,-0.458l0.114,-1.031l0.172,-0.515l0.745,0l0.458,0.057l0.63,0l-0.057,-0.458l-0.344,-0.344l-0.286,-0.172l-0.573,-0.172l-0.286,0l-0.745,-0.057l-0.802,0l-0.172,0.516l-0.114,1.031l-0.115,0.458l-0.115,0.229l-0.114,0.859l-0.115,0.401l0,0.401l-0.114,0.344l-0.057,0.458l-0.115,0.802l-0.115,0.573l-0.114,0.343l0,0.401l-0.115,0.688l0.459,-0.058l0.572,0.115Z" style="fill:#ac343c;fill-rule:nonzero;stroke:#000;stroke-width:0.24px;"/><path d="M238.577,44.168l0.744,0l1.49,-0.057l1.26,-0.115l0.63,-0.171l0.401,-0.058l0.802,-0.171l0.458,-0.23l0.63,-0.171l0.859,-0.459l0.229,-0.172l0.688,-0.4l0.687,-0.516l0.401,-0.344l0.344,-0.286l0.515,-0.63l0.287,-0.458l0.401,-0.573l0.229,-0.344l0.401,-0.515l0.229,-0.401l0.458,-0.86l0.401,-0.801l0.172,-0.573l0.172,-0.401l0.286,-0.63l0,-0.401l0.229,-0.688l0.287,-0.63l0.057,-0.63l0.172,-0.343l0.229,-0.688l-0.057,-0.344l0.229,-0.801l0.171,-0.401l0.23,-0.802l0.286,-1.146l0.115,-0.401l0,-0.515l0.114,-0.287l0.057,-0.744l0.172,-0.344l0.172,-0.745l0.057,-0.687l0.172,-0.745l0.115,-0.744l0.229,-0.745l-0.057,-0.687l0.286,-0.63l-0.057,-0.573l0.114,-0.917l0.115,-0.401l0.057,-0.916l0.057,-0.859l0.115,-0.802l0.057,-0.344l0,-0.573l-0.057,-0.401l0.057,-0.343l0.115,-0.401l0.057,-0.745l0,-0.401l-0.057,-0.745l0.057,-0.343l0.057,-0.745l0,-0.401l-0.057,-0.458l-0.114,-1.088l-0.058,-0.86l-0.114,-0.401l-0.115,-0.343l-0.057,-0.344l-0.229,-0.687l-0.115,-0.459l-0.344,-0.802l-0.916,-0.916l-0.229,0.057l0.229,0.516l0.229,0.458l0.172,0.516l0.057,0.515l0.115,0.344l0,0.401l0.057,0.859l0,1.088l0.057,0.458l0,0.401l-0.057,0.745l-0.057,0.344l0.057,0.744l0,0.401l-0.057,0.745l-0.115,0.401l-0.057,0.344l0.057,0.401l0,0.572l-0.057,0.344l-0.115,0.802l-0.057,0.859l-0.057,0.917l-0.115,0.401l-0.114,0.916l0.057,0.573l-0.286,0.63l0.057,0.687l-0.229,0.745l-0.115,0.745l-0.172,0.744l-0.057,0.688l-0.172,0.744l-0.172,0.344l-0.057,0.745l-0.114,0.286l0,0.516l-0.115,0.4l-0.115,0.802l-0.171,0.344l-0.573,2.005l0.057,0.344l-0.286,0.687l-0.172,0.344l-0.057,0.63l-0.287,0.63l-0.172,0.687l0,0.401l-0.172,0.63l-0.286,0.401l-0.057,0.573l-0.401,0.802l-0.458,1.031l-0.287,0.401l-0.401,0.744l-0.229,0.344l-0.286,0.344l-0.229,0.344l-0.688,0.687l-0.343,0.286l-0.287,0.344l-0.687,0.515l-0.688,0.459l-0.229,0.172l-1.317,0.515l-0.401,0.057l-0.458,0.115l-0.802,0.172l-0.401,0.057l-0.63,0.172l-1.26,0.229l-1.49,-0.057l-0.744,0.057l-0.401,-0.057l-0.516,-0.058l-1.317,-0.229l-0.917,-0.172l-0.114,0.287l0.744,0.401l0.401,0.229l0.859,0.172l0.459,0.057l1.317,0.344l0.516,0.057l0.401,0.057Zm-0.63,-11.227l0.057,-0.744l0.172,-0.802l-0.115,-0.458l0.115,-0.401l0,-0.401l0.229,-0.859l0,-0.459l0.114,-0.401l0,-0.458l0.115,-0.515l-0.057,-0.23l0.114,-0.401l-0.057,-0.458l0.172,-0.802l0.114,-0.401l0.058,-0.458l0.057,-0.401l0,-0.401l0.057,-0.802l0.115,-0.401l0.229,-0.916l0.172,-0.458l0.114,-0.86l0.115,-0.401l0.057,-0.401l0.172,-0.916l0.172,-0.802l0.229,-0.802l0.057,-0.344l0.172,-0.801l0.057,-0.459l0,-0.114l0.344,-1.203l0.115,-0.458l0.114,-0.401l0.172,-0.802l0.401,-1.203l0.401,-0.63l0.458,-0.401l0.516,-0.229l0.63,0l0.057,-0.287l-0.057,-0.572l-0.287,-0.401l-0.401,-0.058l-0.63,0.058l-0.744,0.401l-0.573,0.515l-0.401,0.63l-0.229,0.687l-0.229,0.401l-0.344,0.745l-0.115,0.401l-0.114,0.458l-0.344,1.203l0,0.115l-0.057,0.458l-0.172,0.802l-0.057,0.344l-0.229,0.801l-0.172,0.802l-0.172,0.917l-0.057,0.401l-0.115,0.401l-0.114,0.859l-0.172,0.458l-0.229,0.917l-0.115,0.401l-0.115,0.802l0,0.401l-0.057,0.401l0.057,0.458l-0.171,0.401l-0.287,0.802l0.057,0.458l-0.114,0.401l0.057,0.229l-0.114,0.515l0,0.459l-0.115,0.401l0,0.458l-0.172,0.859l0,0.401l-0.172,0.401l0.172,0.401l-0.057,0.687l0,0.459l0.057,0.63l0.344,0.687l0.458,0.229l0.287,0.057Z" style="fill:#ac343c;fill-rule:nonzero;stroke:#000;stroke-width:0.24px;"/><path d="M262.634,43.424l1.49,-0.058l0.63,-0.171l0.171,-0.516l0.058,-0.458l0.172,-0.745l0.114,-0.802l0.172,-0.744l0.229,-1.375l0.172,-0.63l0,-0.401l0.114,-0.745l0.115,-0.802l0.172,-0.802l0,-0.458l0.229,-0.745l0.057,-0.458l0.172,-0.859l-0.057,-0.63l0.286,-0.573l0,-0.802l0.058,-0.286l0.114,-0.802l0,-0.458l0.229,-0.802l0,-0.458l0.229,-0.802l0.115,-0.688l0.114,-0.744l0.172,-0.745l0,-0.458l0.172,-0.401l0.229,-0.802l0.287,-1.719l0.171,-0.572l0.115,-0.745l0,-0.401l0.057,-0.458l0.058,-0.401l0,-0.516l0.171,-0.515l0.172,-0.802l0.058,-0.287l0.171,-0.744l0.172,-0.688l0.115,-0.744l0.057,-0.401l0.057,-0.687l0.058,-0.401l0.114,-0.688l0.115,-0.343l0.114,-0.631l0.287,-1.489l0.057,-0.344l0,-0.4l0.057,-0.344l0,-0.458l0.229,-0.516l0.115,-0.802l0.172,-0.286l0,-0.516l0.172,-0.229l-0.058,-0.344l0.058,-0.63l0.114,-0.171l0,-0.745l0.057,-0.344l-0.229,-0.573l-0.63,-0.171l-0.401,0.057l-0.401,0l0,0.916l-0.057,0.459l0,0.343l-0.057,0.344l-0.115,0.401l-0.114,0.458l-0.229,0.63l-0.115,0.573l0.057,0.401l-0.114,0.401l0.057,0.401l-0.057,0.63l-0.229,0.974l-0.115,0.802l-0.229,0.458l-0.115,0.573l0,1.088l-0.229,0.516l-0.114,0.687l-0.172,0.687l-0.172,0.63l0,0.516l-0.115,0.63l-0.171,0.573l-0.115,0.916l0,0.917l-0.172,0.63l-0.114,0.63l-0.172,0.573l-0.115,0.515l0,0.573l-0.114,0.458l-0.229,0.401l0,0.401l-0.172,0.516l-0.058,0.687l-0.057,0.745l-0.229,0.687l-0.057,0.687l-0.229,0.63l-0.229,1.261l-0.058,0.63l0,0.515l-0.057,0.63l-0.229,0.63l0,0.688l-0.057,0.687l-0.287,0.63l0,0.63l-0.172,0.573l0,0.745l-0.229,0.802l-0.114,0.63l-0.115,0.572l-0.057,0.516l-0.172,0.458l-0.057,0.516l0,0.573l-0.229,0.63l-0.058,0.802l0,0.687l-0.229,0.515l-0.286,0.401l-0.688,0.23l-1.26,0.057l-1.604,-0.057l-0.973,-0.058l-0.344,-0.057l-1.375,0l-0.458,-0.057l0.057,0.744l0.459,0.401l0.458,0.115l0.458,-0.057l0.401,0.057l0.63,0.057l0.401,-0.057l0.458,0l0.802,0.114l1.661,0l0.401,0.058Z" style="fill:#ac343c;fill-rule:nonzero;stroke:#000;stroke-width:0.24px;"/><path d="M280.62,32.082l1.146,0l0.057,-0.343l0.115,-0.573l0.057,-0.516l0.114,-0.515l0.172,-1.318l0.115,-0.458l0,-0.401l0.229,-0.916l0.057,-0.401l0.058,-0.459l0.171,-0.802l0.058,-0.859l0.229,-0.916l0.057,-0.401l0.172,-0.859l0.114,-0.401l0,-0.802l0.115,-0.401l0.172,-1.203l0,-0.458l0.114,-0.401l-0.057,-0.459l0.229,-0.4l0.172,-0.745l0.172,-0.802l0.114,-0.401l0.058,-0.401l0.114,-0.458l-0.114,-0.458l0.229,-0.401l0.114,-0.802l0.23,-0.802l0,-0.458l0.171,-0.802l0.459,-2.005l0.114,-0.573l0.115,-0.63l0.172,-1.203l0.114,-0.344l0,-0.401l0.344,-1.374l0,-0.401l0.057,-0.401l-0.172,-0.688l-1.145,-0.057l-0.172,0l0,0.401l-0.344,1.375l0,0.401l-0.114,0.343l-0.172,1.203l-0.115,0.63l-0.114,0.573l-0.459,2.005l-0.171,0.802l0,0.458l-0.23,0.802l-0.114,0.802l-0.229,0.401l0,0.916l-0.058,0.401l-0.114,0.401l-0.172,0.802l-0.172,0.745l-0.172,0.859l-0.114,0.401l0,0.458l-0.172,1.203l-0.115,0.401l0,0.802l-0.114,0.401l-0.172,0.859l-0.057,0.401l-0.229,0.917l-0.058,0.859l-0.171,0.802l-0.058,0.458l-0.057,0.401l-0.229,0.916l0,0.401l-0.115,0.459l-0.057,0.802l-0.172,0.916l-0.057,0.687l-0.057,0.401l-0.058,0.344l-0.114,0.401l0,0.573l0.286,0.286Zm-8.305,11.284l0.744,-0.057l0.401,0.057l1.604,0l0.573,-0.057l4.697,0l1.145,-0.057l0.802,0.114l0.859,-0.057l1.032,0.057l1.26,-0.171l0.744,-0.115l1.089,0l0.458,-0.401l0.229,-0.974l0.115,-0.859l0.057,-0.344l0,-0.401l0.172,-0.401l0.286,-2.004l0.172,-0.459l-0.057,-0.401l0.114,-0.4l0.057,-0.86l-0.343,-0.172l-1.089,0l-0.171,0.287l0.057,0.401l-0.172,0.458l-0.286,2.005l-0.172,0.401l0,0.401l-0.057,0.343l-0.115,0.86l-0.229,0.916l-0.458,0.401l-1.089,0l-0.744,0.115l-1.26,0.172l-1.032,-0.058l-0.859,0.058l-0.802,-0.115l-1.145,0.057l-4.697,0l-0.573,0.058l-1.604,0l-0.458,0.171l0,0.516l0.229,0.344l0.516,0.171Z" style="fill:#ac343c;fill-rule:nonzero;stroke:#000;stroke-width:0.24px;"/><path d="M303.819,15.414l0.572,-0.058l0.115,-0.343l0,-0.229l0.057,-0.287l0.172,-0.973l0,-0.459l0.172,-0.343l0,-0.802l0.057,-0.344l0.172,-0.687l1.375,-0.058l3.723,0l0.687,-0.057l2.406,0l0.573,-0.057l0.172,-0.802l0.057,-0.344l0.229,-0.802l0,-0.458l0.172,-0.859l0.057,-0.344l0.057,-0.401l0.172,-0.401l0,-0.343l0.115,-1.432l0,-0.344l0.172,-0.63l-0.287,-0.401l-0.515,-0.057l-0.573,-0.058l-0.229,0.172l-0.115,1.604l0,0.344l-0.172,0.401l-0.057,0.401l-0.057,0.343l-0.172,0.859l0,0.459l-0.229,0.802l-0.057,0.343l-0.172,0.745l-0.573,0.057l-2.406,0l-0.687,0.057l-3.723,0l-1.375,0.058l-0.172,0.687l-0.057,0.401l0,0.802l-0.172,0.344l0,0.458l-0.172,1.088l-0.172,1.031l0,0.172l-0.114,0.573l0.114,0.114l0.86,0.058Zm-3.437,16.267l1.145,0l0.172,-0.114l0.115,-0.859l0.114,-0.516l0.172,-0.573l0.229,-1.604l0.172,-0.687l0.172,-0.458l0.229,-0.115l1.088,-0.057l0.63,0l0.974,0.057l1.432,-0.057l0.516,0l0.859,-0.057l0.573,0l0.114,-0.115l0.115,-0.916l0.172,-0.917l0.114,-0.802l0.172,-0.458l0,-0.401l0.172,-0.859l0.115,-0.401l0.171,-0.802l0.115,-0.63l0,-0.458l0.114,-0.688l-0.343,-0.458l-0.458,-0.115l-0.516,0l-0.229,0.115l0,0.458l-0.115,0.63l-0.171,0.802l-0.115,0.401l-0.172,0.859l0,0.401l-0.172,0.459l-0.114,0.802l-0.172,0.916l-0.115,0.802l-0.114,0.114l-0.573,0l-0.859,0.058l-0.516,0l-1.432,0.057l-0.974,-0.057l-0.63,0l-1.031,0.057l-0.286,0.115l-0.172,0.515l-0.172,0.745l-0.229,1.604l-0.172,0.572l-0.114,0.516l-0.058,0.573l-0.114,0.401l-0.057,0.458l0,0.458l0.229,0.229Zm-2.005,11.628l0.458,-0.057l0.917,-0.057l1.203,0l0.343,-0.058l0.745,0.058l0.916,-0.058l5.442,0l0.172,-0.63l0.114,-0.515l0.058,-0.974l0.171,-0.859l0.058,-0.401l0.114,-0.344l0.115,-0.401l0,-0.745l0.229,-1.26l0.057,-0.458l0.115,-0.63l0.057,-0.229l0.057,-0.458l-0.401,-0.172l-1.202,0.057l-0.058,0.286l-0.057,0.459l-0.229,1.26l0,0.745l-0.115,0.4l-0.114,0.344l-0.058,0.401l-0.171,0.859l-0.058,0.974l-0.114,0.516l-0.172,0.63l-5.442,0l-0.916,0.057l-0.745,-0.057l-0.343,0.057l-1.203,0l-0.917,0.057l-0.458,0.058l-1.088,-0.058l-1.49,0l-0.401,-0.057l-2.119,0l-0.172,0.515l0.172,0.516l0.516,0.115l3.035,0l0.401,0.057l1.49,0l1.088,0.057Z" style="fill:#ac343c;fill-rule:nonzero;stroke:#000;stroke-width:0.24px;"/><path d="M329.938,43.309l0.516,-0.057l0.458,0l0.63,-0.057l0.745,0l1.489,-0.172l1.203,-0.172l0.745,0l0.63,-0.287l0.572,-0.229l0.516,-0.744l-0.115,-0.745l0,-0.515l-0.057,-0.401l-0.229,-0.688l-0.229,-0.974l-0.172,-0.801l-0.573,-2.005l-0.114,-0.745l-0.287,-0.859l0,-0.344l-0.286,-0.802l-0.115,-0.458l-0.172,-0.401l-0.114,-0.802l-0.115,-0.343l-0.172,-0.745l-0.171,-0.344l-0.172,-0.802l-0.057,-0.458l-0.172,-0.573l-0.401,-1.89l-0.115,-0.458l-0.057,-0.516l0,-0.458l0.286,-0.286l0.229,-0.172l0.344,-0.287l0.63,-0.515l1.26,-1.489l0.172,-0.344l0.573,-0.745l0.229,-0.515l0.687,-1.146l0.344,-0.515l0.172,-0.401l0.115,-0.344l0.114,-0.401l0.229,-0.687l0.287,-0.745l0.114,-0.745l0.172,-0.916l0.057,-0.401l0.172,-0.859l0.057,-0.401l0.172,-0.802l0,-0.458l-0.114,-1.089l0,-0.401l-0.115,-1.088l-0.057,-1.088l-0.172,-0.745l-0.401,-0.802l-0.401,-0.687l-0.229,-0.287l-0.286,-0.401l-0.23,-0.229l-0.343,0.058l0.458,1.202l0.172,0.917l0.172,1.088l0.057,0.917l0,0.401l0.115,1.088l0,0.458l-0.172,0.802l-0.058,0.401l-0.057,0.859l0,0.401l-0.344,0.917l-0.114,0.916l-0.172,0.573l-0.229,0.687l-0.115,0.401l-0.114,0.344l-0.172,0.401l-0.344,0.63l-0.401,0.745l-0.229,0.458l-0.286,0.515l-0.458,0.745l-0.23,0.344l-0.572,0.687l-0.287,0.287l-0.744,0.859l-0.573,0.515l-0.917,0.459l-0.401,0.286l0.058,0.515l0.171,0.459l0.287,0.859l0,0.515l0.114,0.745l0.23,0.344l0.057,0.458l0.057,0.745l0.229,0.343l0.172,0.745l0.115,0.344l0.114,0.802l0.172,0.4l0.115,0.459l0.229,0.744l0,0.344l0.286,0.859l0.115,0.745l0.63,2.062l0.114,0.802l0.401,0.974l0.058,0.687l0.057,0.401l0.114,0.515l0.23,0.802l-0.401,0.917l-0.401,0.172l-0.63,0.114l-0.745,0l-1.203,0.172l-1.489,0.172l-0.745,0l-0.63,0.057l-0.573,0l0.057,0.344l0.115,0.286l0.516,0.516l0.343,0.057Zm-5.098,-27.036l0.401,-0.057l0.344,-0.172l0.172,-0.172l0.114,-0.229l0.172,-0.401l0,-0.401l0.172,-1.088l0.115,-0.459l0.057,-0.744l0.057,-0.859l0.115,-0.917l0.172,-0.401l0.171,-0.63l0.745,-0.115l0.229,-0.286l-0.172,-0.458l-0.572,-0.344l-0.573,-0.114l-0.459,0l-0.515,0.171l-0.172,0.631l-0.172,0.4l-0.114,0.917l-0.058,0.859l-0.057,0.745l-0.114,0.458l-0.172,0.917l0,0.4l-0.115,1.032l-0.114,0.458l0,0.744l0.343,0.115Zm-5.728,27.093l0.459,-0.057l0.859,-0.057l0.515,-0.057l0.745,-0.459l0.172,-0.401l0.057,-0.687l0.057,-0.401l0,-0.344l0.058,-0.401l0.057,-0.744l0,-0.344l0.114,-0.401l-0.057,-0.344l0.172,-0.801l0,-0.459l0.115,-0.343l0.057,-0.459l0.114,-1.088l0,-0.515l0.115,-0.631l0.115,-0.744l0,-0.458l0.057,-0.459l0,-0.515l-0.229,-1.031l-0.115,-0.458l-0.172,-0.573l-0.172,-0.401l-0.286,0l-0.057,0.229l-0.115,0.344l-0.172,0.801l-0.057,0.459l-0.057,0.401l-0.115,1.26l-0.114,0.802l-0.058,0.573l-0.114,0.859l-0.057,0.458l-0.115,0.344l0,0.458l-0.172,0.802l0.057,0.344l-0.114,0.4l0,0.344l-0.057,0.745l-0.058,0.401l0,0.343l-0.057,0.401l-0.057,0.688l-0.172,0.401l-0.745,0.458l-0.515,0.057l-0.859,0.058l-0.459,0.057l-2.062,-0.057l-0.744,0l-0.917,-0.058l-0.057,0.115l0,0.515l0.114,0.344l0.516,0.115l1.776,0.114l0.744,0l2.062,0.057Z" style="fill:#ac343c;fill-rule:nonzero;stroke:#000;stroke-width:0.24px;"/><path d="M356.23,19.71l0.515,-0.859l0.459,-0.86l-0.172,-0.572l-0.115,-0.86l0,-0.343l-0.057,-0.802l-0.172,-0.344l-0.057,-0.401l0,-0.401l-0.115,-0.802l-0.057,-0.343l-0.229,-1.203l0,-0.459l-0.115,-0.401l-0.057,-0.801l-0.115,-0.745l-0.171,-0.917l-0.058,-0.973l-0.172,-0.802l-0.057,-0.344l-0.114,-0.802l-0.115,-0.401l-0.172,-1.604l-0.344,-0.515l-1.031,0l0.115,0.974l0.115,0.401l0.114,0.801l0.057,0.344l0.172,0.802l0.058,0.974l0.171,0.916l0.115,0.745l0.057,0.802l0.115,0.401l0,0.458l0.229,1.203l0.057,0.344l0.115,0.802l0,0.401l0.057,0.4l0.172,0.344l0.057,0.745l0,0.343l0.057,0.802l0.23,0.917l0,0.401l0.171,0.802l0.287,1.432Zm7.79,23.599l0.802,-0.057l2.52,0l1.718,0.057l0.631,0l0.801,-0.229l0.172,-0.516l0.115,-0.744l0.172,-0.745l0.172,-0.802l0.057,-0.458l0.172,-0.745l0,-0.401l0.057,-0.401l0.057,-0.744l0.115,-0.344l0.057,-0.401l0.172,-0.744l0.057,-0.459l0.115,-0.802l0.114,-0.343l0.115,-0.802l0.057,-0.458l0.057,-0.401l0.172,-0.86l0.058,-0.401l0.286,-0.859l0.115,-0.744l0,-0.344l0.171,-0.802l0.229,-1.718l0.172,-0.745l0.058,-0.344l0.057,-0.401l0.057,-0.343l-0.057,-0.401l0,-0.401l0.229,-0.401l0.057,-0.859l0.058,-0.631l0.171,-0.687l0.058,-0.401l0.057,-0.344l0.172,-0.687l0.114,-0.802l0.172,-0.744l0.115,-0.344l0.057,-0.401l0,-0.344l0.057,-0.515l0.229,-0.459l0.058,-0.916l0.114,-0.802l0.058,-0.344l0.286,-0.744l0.172,-0.344l0,-0.974l0.229,-0.401l-0.057,-0.343l0.057,-0.688l0.114,-0.343l0.172,-0.802l0,-0.459l0.287,-0.744l0.057,-0.401l0.115,-0.344l0,-0.802l0.057,-0.172l0.057,-0.401l0.057,-0.343l0.058,-0.401l0.057,-0.229l0.057,-0.802l0.115,-0.344l0.172,-0.745l-0.115,-0.4l-0.515,-0.344l-0.917,0.057l-0.057,0.287l-0.115,0.343l-0.057,0.802l-0.057,0.229l-0.058,0.401l-0.057,0.344l-0.057,0.401l-0.057,0.172l0,0.802l-0.115,0.343l-0.057,0.401l-0.287,0.745l0,0.458l-0.172,0.802l-0.114,0.344l-0.057,0.687l0.057,0.344l-0.229,0.401l0,0.973l-0.172,0.344l-0.286,0.745l-0.058,0.343l-0.114,0.802l-0.058,0.917l-0.229,0.458l-0.057,0.516l0,0.343l-0.057,0.401l-0.115,0.344l-0.172,0.745l-0.114,0.802l-0.172,0.687l-0.057,0.344l-0.058,0.401l-0.171,0.687l-0.058,0.63l-0.057,0.859l-0.229,0.401l0,0.401l0.057,0.401l-0.057,0.344l-0.057,0.401l-0.058,0.343l-0.172,0.745l-0.229,1.718l-0.171,0.802l0,0.344l-0.115,0.745l-0.286,0.859l-0.058,0.401l-0.172,0.859l-0.057,0.401l-0.057,0.458l-0.115,0.802l-0.114,0.344l-0.115,0.802l-0.057,0.458l-0.172,0.745l-0.057,0.401l-0.115,0.343l-0.057,0.745l-0.057,0.401l0,0.401l-0.172,0.744l-0.057,0.459l-0.172,0.802l-0.172,0.744l-0.115,0.745l-0.172,0.515l-0.801,0.23l-0.631,0l-1.718,-0.058l-2.52,0l-0.573,0.058l0,0.171l0.115,0.63l0.4,0.287l0.401,0l0.287,0.057Zm-18.903,0.057l0.401,-0.057l0.287,-0.057l1.718,0l0.688,-0.287l0.343,-0.63l0.058,-0.572l0,-0.344l0.171,-0.401l0.058,-0.745l0,-0.744l0.171,-0.688l0.058,-0.343l0.114,-0.802l0.115,-0.917l0.057,-0.515l0.057,-0.459l0.172,-1.031l0,-0.458l0.058,-0.344l0.057,-0.801l-0.115,-1.318l-0.172,-0.916l-0.171,-1.948l-0.344,0l-0.172,0.802l-0.057,0.344l-0.115,0.401l-0.057,0.401l0,0.401l-0.115,0.687l-0.057,0.401l-0.057,0.802l-0.115,0.744l0,0.344l-0.114,0.344l-0.058,0.458l-0.057,0.516l-0.114,0.916l-0.115,0.802l-0.057,0.344l-0.172,0.687l0,0.745l-0.057,0.744l-0.172,0.401l-0.057,0.344l-0.058,0.573l-0.343,0.63l-0.688,0.286l-1.718,0l-0.287,0.058l-0.401,0.057l-1.546,-0.115l-1.432,0l0,0.573l0.286,0.344l0.229,0.172l0.802,0.057l1.547,0l1.546,0.114Zm9.165,-5.899l1.604,0l1.031,-0.115l0.516,0.115l0.343,0l0.63,-0.172l0.287,-0.573l1.432,-3.265l0.172,-1.146l0.114,-0.744l0.172,-1.318l-0.401,-0.286l-0.515,1.203l-0.917,2.176l-0.859,1.604l-0.401,0.688l-0.286,0.572l-0.631,0.115l-0.343,0l-0.516,-0.115l-1.26,0.115l-1.031,-0.172l0.057,0.573l0.229,0.458l0.573,0.287Z" style="fill:#ac343c;fill-rule:nonzero;stroke:#000;stroke-width:0.24px;"/><path d="M393.748,43.366l0.573,-0.057l0.401,-0.057l0.687,0.057l0.459,0l1.26,-0.057l0.802,0l0.458,0.057l0.63,-0.057c0.229,0 0.344,0.057 0.573,0c0.286,-0.172 0.229,-0.688 0.172,-0.917l0,-1.203l-0.058,-1.26l0,-0.515l-0.057,-0.458l0.057,-0.802l0,-0.86l-0.057,-0.401l-0.057,-0.744l0,-0.344l-0.115,-2.176l0.057,-0.401l-0.057,-0.802l0.057,-0.86l-0.057,-0.859l0,-0.401l-0.057,-2.635l0,-1.718l-0.057,-0.458l-0.058,-0.688l0,-2.234l-0.114,-0.63l-0.058,-0.916l0,-0.344l-0.057,-0.744l0.057,-0.344l-0.057,-0.802l0,-1.146l-0.114,-0.802l0,-1.26l0.057,-0.401l-0.057,-0.859l0,-0.802l-0.115,-1.145l-0.057,-0.745l0,-0.802l-0.057,-2.062l0,-1.031l-0.115,-0.802l0,-0.802l-0.172,-2.463l-0.344,-0.286l-0.458,-0.115l-0.687,0l0.114,1.719l0,1.26l0.115,0.343l0,1.031l0.057,2.062l0,0.802l0.058,0.745l0.114,1.146l0,0.802l0.057,0.859l-0.057,0.401l0,1.26l0.115,0.802l0,1.145l0.057,0.802l-0.057,0.344l0.057,0.745l0,0.343l0.057,0.917l0.115,0.63l0,2.234l0.057,0.687l0.057,0.458l0,1.719l0.058,2.635l0,0.401l0.057,0.859l-0.057,0.859l0.057,0.802l-0.057,0.401l0.114,2.177l0,0.343l0.057,0.745l0.058,0.401l0,0.859l-0.058,0.802l0.058,0.458l0,0.516l0.057,1.26l0,1.203c0.057,0.229 0.115,0.744 -0.172,0.916c-0.229,0.058 -0.401,0 -0.63,0l-0.401,0.058l-0.458,-0.058l-0.802,0l-1.26,0.058l-0.458,0l-0.688,-0.058l-0.401,0.058l-0.573,0.057l-0.572,-0.057l0,0.4l0.114,0.573l0.229,0.172l0.86,0l0.744,0.057Zm-7.217,-17.184l1.203,0l0.343,-3.666l0,-1.031l-0.286,0.058l-0.458,1.145l-0.172,0.63l-0.229,0.86l-0.115,0.458l-0.172,0.401l-0.286,0.916l0.172,0.229Zm-6.645,17.184l0.459,-0.057l1.603,0.057l0.287,-0.229l0.229,-0.401l0.115,-0.286l0.229,-0.745l0.343,-0.859l0.401,-0.974l0.229,-0.687l0.172,-0.401l0.115,-0.401l0.401,-0.859l0.401,-0.516l1.833,0.058l0.916,0l0.172,-0.115l0,-0.974l-0.63,-0.057l-2.005,-0.057l-1.546,0l-0.287,0.63l-0.401,0.744l-0.114,0.401l-0.172,0.401l-0.229,0.688l-0.573,1.088l-0.344,0.859l-0.172,0.63l-0.171,0.287l-0.23,0.401l-0.343,0.229l-1.604,-0.057l-0.458,0.057l-0.86,-0.057l-0.4,-0.058l-3.323,-0.057l0,0.172l-0.114,0.401l0.114,0.458l0.516,0.115l4.181,0.057l0.401,0.057l0.859,0.057Z" style="fill:#ac343c;fill-rule:nonzero;stroke:#000;stroke-width:0.24px;"/><path d="M420.04,43.309l1.26,-0.057l0.401,0.057l1.203,0l0.515,-0.057l1.776,0.057l1.432,0l1.432,-0.057l0.515,-0.458l0,-0.86l-0.057,-0.572l-0.114,-0.573l-0.23,-0.688l-0.171,-0.63l-0.115,-0.458l-0.172,-0.286l-0.114,-0.401l-0.058,-0.458l-0.114,-0.344l-0.172,-0.401l-0.172,-0.573l-0.229,-0.63l-0.057,-0.458l-0.229,-0.63l-0.115,-0.401l-0.115,-0.344l-0.114,-0.458l-0.286,-0.63l-0.115,-0.401l-0.229,-0.688l-0.229,-0.63l-0.115,-0.401l-0.286,-0.859l-0.229,-0.916l-0.229,-0.573l-0.172,-0.63l-0.287,-0.745l-0.114,-0.458l-0.63,-1.604l-0.172,-0.687l-0.229,-0.688l-0.115,-0.572l-0.344,-0.917l-0.171,-0.573l-0.172,-0.802l-0.115,-0.572l0.115,-0.516l0.458,-0.802l0.401,-0.63l0.286,-0.515l0.401,-0.516l0.63,-0.974l0.516,-0.573l0.401,-0.63l0.859,-1.26l0.344,-0.458l0.343,-0.516l0.516,-0.63l0.286,-0.401l0.344,-0.401l0.286,-0.572l0.344,-0.516l0.229,-0.458l0.401,-0.458l0.229,-0.344l0.459,-0.516l0.286,-0.458l0.344,-0.401l0.401,-0.515l0.229,-0.344l0.343,-0.573l0.287,-0.401l0.515,-0.573l0.459,-0.572l0.171,-0.401l0.573,-0.688l-0.172,-0.401l-0.687,-0.171l-0.516,0.057l-0.63,0.515l-0.458,0.573l-0.515,0.63l-0.287,0.401l-0.343,0.573l-0.23,0.286l-0.401,0.573l-0.229,0.401l-0.343,0.573l-0.459,0.515l-0.229,0.344l-0.343,0.344l-0.229,0.458l-0.459,0.516l-0.229,0.572l-0.344,0.401l-0.286,0.401l-0.573,0.688l-0.343,0.515l-0.344,0.458l-0.859,1.261l-0.401,0.572l-0.516,0.688l-0.63,0.974l-0.401,0.515l-0.286,0.516l-0.401,0.63l-0.516,0.687l-0.401,0.63l-0.171,0.63l0.114,0.573l0.229,0.573l0.229,0.916l0.115,0.573l0.286,0.687l0.172,0.688l0.516,1.604l0.171,0.458l0.172,0.744l0.344,0.631l0.229,0.515l0.115,0.458l0.172,0.459l0.057,0.343l0.229,0.516l0.114,0.401l0.23,0.63l0.114,0.687l0.115,0.401l0.286,0.687l0.115,0.401l0.458,1.49l0.172,0.515l0.229,0.516l0.114,0.515l0.058,0.401l0.114,0.344l0.115,0.458l0.114,0.401l0.23,0.344l0.114,0.401l0.172,0.63l0.229,0.687l0.229,0.63l0.401,0.974l0,0.573l-0.63,0.229l-1.26,0.057l-1.432,0l-1.776,-0.057l-0.515,0.057l-1.203,0l-0.401,-0.057l-0.688,0.057l-0.114,0.458l0.286,0.631l0.688,0.114Zm-4.64,-34.425l0.516,-0.63l0.4,-0.573l0.344,-0.401l0.287,-0.458l0.057,-0.287l0.114,-0.343l0.058,-0.802l0.114,-0.974l0.115,-0.573l-0.172,-0.401l-0.458,-0.229l-0.401,-0.057l-0.287,0.172l-0.057,0.401l-0.172,0.515l-0.057,0.802l-0.172,0.974l-0.229,1.604l-0.229,1.031l0.229,0.229Zm-11.857,34.368l0.573,-0.057l0.515,0.057l1.089,0l0.401,-0.057l0.171,0.057l0.344,0l0.802,-0.057l0.687,0.057l0.516,-0.057l1.489,0l0.516,-0.23l0.286,-0.859l0.115,-0.974l0.229,-0.744l0.114,-0.688l0.058,-0.859l0.057,-0.401l0.115,-0.343l0.171,-0.688l0.172,-0.916l0.115,-1.031l0.114,-0.344l0.058,-0.401l0,-0.286l0.057,-0.459l0,-0.343l0.172,-0.974l-0.058,-0.458l-0.171,-0.458l-0.172,-0.917l-0.287,-1.26l-0.229,0.057l-0.057,0.229l-0.057,0.287l-0.058,0.401l0,0.343l-0.114,0.344l-0.115,0.458l-0.057,0.802l-0.057,0.458l-0.058,0.745l-0.114,0.229l-0.115,0.344l-0.114,1.203l-0.172,0.916l-0.172,0.688l-0.114,0.343l-0.058,0.401l-0.057,0.745l-0.229,0.802l-0.229,0.63l0,0.687l-0.287,1.146l-0.63,0.229l-1.489,0l-0.516,0.057l-0.687,-0.057l-0.802,0.057l-0.344,0l-0.171,-0.057l-0.401,0.057l-0.688,0l-0.458,0.229l-0.057,0.573l0.458,0.344Z" style="fill:#ac343c;fill-rule:nonzero;stroke:#000;stroke-width:0.24px;"/><path d="M443.181,15.414l0.573,-0.058l0.114,-0.343l0,-0.229l0.057,-0.287l0.172,-0.973l0,-0.459l0.172,-0.343l0,-0.802l0.057,-0.344l0.172,-0.687l1.375,-0.058l3.723,0l0.688,-0.057l2.405,0l0.573,-0.057l0.172,-0.802l0.057,-0.344l0.229,-0.802l0,-0.458l0.172,-0.859l0.057,-0.344l0.058,-0.401l0.172,-0.401l0,-0.343l0.114,-1.432l0,-0.344l0.172,-0.63l-0.286,-0.401l-0.516,-0.057l-0.573,-0.058l-0.229,0.172l-0.114,1.604l0,0.344l-0.172,0.401l-0.058,0.401l-0.057,0.343l-0.172,0.859l0,0.459l-0.229,0.802l-0.057,0.343l-0.172,0.745l-0.573,0.057l-2.405,0l-0.688,0.057l-3.723,0l-1.375,0.058l-0.172,0.687l-0.057,0.401l0,0.802l-0.172,0.344l0,0.458l-0.172,1.088l-0.171,1.031l0,0.172l-0.115,0.573l0.115,0.114l0.859,0.058Zm-3.437,16.267l1.146,0l0.171,-0.114l0.115,-0.859l0.115,-0.516l0.171,-0.573l0.23,-1.604l0.171,-0.687l0.172,-0.458l0.229,-0.115l1.089,-0.057l0.63,0l0.973,0.057l1.432,-0.057l0.516,0l0.859,-0.057l0.573,0l0.115,-0.115l0.114,-0.916l0.172,-0.917l0.115,-0.802l0.171,-0.458l0,-0.401l0.172,-0.859l0.115,-0.401l0.172,-0.802l0.114,-0.63l0,-0.458l0.115,-0.688l-0.344,-0.458l-0.458,-0.115l-0.516,0l-0.229,0.115l0,0.458l-0.114,0.63l-0.172,0.802l-0.115,0.401l-0.172,0.859l0,0.401l-0.171,0.459l-0.115,0.802l-0.172,0.916l-0.114,0.802l-0.115,0.114l-0.573,0l-0.859,0.058l-0.516,0l-1.432,0.057l-0.973,-0.057l-0.63,0l-1.031,0.057l-0.287,0.115l-0.172,0.515l-0.171,0.745l-0.23,1.604l-0.171,0.572l-0.115,0.516l-0.057,0.573l-0.115,0.401l-0.057,0.458l0,0.458l0.229,0.229Zm-2.005,11.628l0.458,-0.057l0.917,-0.057l1.203,0l0.343,-0.058l0.745,0.058l0.917,-0.058l5.441,0l0.172,-0.63l0.115,-0.515l0.057,-0.974l0.172,-0.859l0.057,-0.401l0.115,-0.344l0.114,-0.401l0,-0.745l0.229,-1.26l0.058,-0.458l0.114,-0.63l0.057,-0.229l0.058,-0.458l-0.401,-0.172l-1.203,0.057l-0.057,0.286l-0.058,0.459l-0.229,1.26l0,0.745l-0.114,0.4l-0.115,0.344l-0.057,0.401l-0.172,0.859l-0.057,0.974l-0.115,0.516l-0.172,0.63l-5.441,0l-0.917,0.057l-0.745,-0.057l-0.343,0.057l-1.203,0l-0.917,0.057l-0.458,0.058l-1.088,-0.058l-1.489,0l-0.401,-0.057l-2.12,0l-0.172,0.515l0.172,0.516l0.516,0.115l3.036,0l0.401,0.057l1.489,0l1.088,0.057Z" style="fill:#ac343c;fill-rule:nonzero;stroke:#000;stroke-width:0.24px;"/><path d="M6.192,41.132l0.458,-0.057l1.604,0.057l0.343,-0.229l0.23,-0.401l0.171,-0.286l0.172,-0.63l0.344,-0.859l0.573,-1.089l0.229,-0.687l0.172,-0.401l0.114,-0.401l0.401,-0.745l0.287,-0.63l1.546,0l2.52,0.058l0.917,0.114l1.26,0.058l0.057,0.458l0,2.692l-0.057,0.573l0.057,0.573l0.058,1.031l0.114,0.572l0.229,0.172l0.86,0l0.744,0.057l0.573,-0.057l0.401,-0.057l0.687,0.057l0.459,0l1.26,-0.057l0.802,0l0.458,0.057l0.401,-0.057c0.229,0 0.401,0.057 0.63,0c0.286,-0.172 0.229,-0.687 0.172,-0.917l0,-1.202l-0.058,-1.261l0,-0.515l-0.057,-0.458l0.057,-0.802l0,-0.859l-0.057,-0.401l-0.057,-0.745l0,-0.344l-0.115,-2.176l0.058,-0.401l-0.058,-0.802l0.058,-0.859l-0.058,-0.86l0,-0.401l-0.057,-2.635l0,-1.718l-0.057,-0.458l-0.057,-0.688l0,-2.233l-0.115,-0.631l-0.057,-0.916l0,-0.344l-0.058,-0.744l0.058,-0.344l-0.058,-0.802l0,-1.146l-0.114,-0.801l0,-1.261l0.057,-0.401l-0.057,-0.859l0,-0.802l-0.115,-1.145l-0.057,-0.745l0,-0.802l-0.057,-2.062l0,-1.031l-0.115,-0.344l0,-1.26l-0.172,-2.463l-0.401,-0.286l-0.286,-0.115l-0.917,0l-0.515,0.057l-0.401,-0.114l-0.516,0l-1.088,0.057l-0.916,0l-0.573,0.057l-1.088,-0.057l-0.573,0l-0.401,0.057l-0.229,0.631l-0.172,0.343l-0.172,0.401l-0.516,1.031l-0.4,0.745l-0.344,1.031l-0.115,0.286l-0.229,0.344l-0.344,0.63l-0.114,0.401l-0.115,0.344l-0.171,0.343l-0.115,0.401l-0.516,1.031l-0.171,0.401l-0.172,0.573l-0.344,0.516l-0.172,0.343l-0.286,0.745l-0.458,1.203l-0.23,0.344l-0.286,0.401l-0.172,0.801l-0.343,0.745l-0.115,0.286l-0.172,0.745l-0.286,0.401l-0.172,0.745l-0.172,0.343l-0.344,0.63l-0.286,0.974l-0.401,0.745l-0.172,0.458l-0.458,1.604l-0.172,0.344l-0.286,0.802l-0.172,0.343l-0.172,0.401l-0.057,0.344l-0.344,0.802l-0.114,0.401l-0.344,0.687l-0.287,0.458l-0.114,0.516l-0.115,0.401l-0.401,0.802l-0.171,0.401l-0.287,0.744l-0.172,0.344l-0.057,0.401l-0.115,0.344l-0.286,0.687l-0.286,0.401l-0.115,0.344l-0.458,1.031l-0.229,0.744l-0.63,1.375l-0.287,0.687l-0.343,0.688l-0.573,1.718l-0.458,0.745l-0.344,0.687l-0.057,0.344l-0.115,0.401l0.115,0.458l0.515,0.115l4.182,0.057l0.4,0.057l0.86,0.057Zm9.451,-13.804l-0.516,-0.057l-0.63,-0.058l-0.458,0l-0.401,-0.343l0.172,-0.401l0.114,-0.516l0.115,-0.401l0.286,-0.973l0.23,-0.401l0.286,-0.86l0.057,-0.401l0.344,-1.26l0.172,-0.515l0.172,-0.401l0.171,-0.516l0.23,-0.401l0.057,-0.401l0.229,-0.572l0.229,-0.459l0.286,-0.916l0.172,-0.573l0.287,-0.916l0.229,-0.745l0.458,-0.172l0.057,1.318l-0.057,2.062l-0.057,2.176l0.057,1.375l-0.114,0.458l0,0.974l-0.058,0.401l0,1.489l-0.057,0.458l0.057,0.459l-0.057,0.802l-0.344,0.286l-1.718,0Z" style="fill-rule:nonzero;stroke:#000;stroke-width:0.24px;"/><path d="M31.567,41.075l4.582,0l0.401,-0.057l0.172,-0.687l0.057,-0.459l0.057,-0.515l0.172,-0.458l0.058,-0.401l0.114,-0.344l0.057,-0.401l0,-0.458l0.23,-0.344l0,-0.802l0.171,-0.859l0,-0.573l0.172,-0.401l0.058,-0.401l0.171,-0.687l0.115,-0.401l0.114,-0.687l0.172,-0.516l0.172,-0.802l0,-0.344l0.057,-0.401l0.115,-0.343l0.057,-0.401l0.058,-0.344l0.057,-0.745l0.114,-0.286l0.058,-0.745l0.172,-0.458l0.057,-0.401l0,-0.114l0.859,0.057l1.26,0l1.088,0.057l1.604,-0.114l0.802,-0.115l0.745,-0.057l0.687,-0.115l0.917,-0.286l0.744,-0.344l0.573,-0.172l0.802,-0.401l0.286,-0.343l0.745,-0.573l0.287,-0.401l0.4,-0.573l0.516,-0.458l0.401,-0.687l0.344,-0.344l0.515,-0.859l0.401,-0.688l0.287,-0.63l0.458,-1.088l0.286,-0.802l0.172,-0.458l0.172,-0.802l0.114,-0.344l0.058,-0.344l0.172,-0.4l0.057,-0.459l0.172,-0.401l0.114,-0.802l0.115,-1.26l0.057,-0.401l0.115,-0.63l0.057,-0.63l-0.057,-0.63l0,-0.401l-0.058,-0.859l0.058,-0.573l-0.172,-0.63l-0.058,-0.401l-0.057,-0.63l-0.229,-0.63l-0.114,-0.401l-0.344,-0.745l-0.172,-0.458l-0.344,-0.401l-0.343,-0.458l-0.229,-0.287l-0.516,-0.458l-0.745,-0.401l-0.401,-0.172l-0.401,-0.286l-0.401,-0.115l-0.916,-0.171l-1.203,-0.172l-0.745,-0.115l-0.458,0l-0.859,-0.114l-0.802,0l-0.859,0.057l-0.401,-0.057l-3.838,0l-0.343,0.057l-0.745,-0.057l-0.745,0.057l-2.978,0l-0.459,0.229l-0.229,0.745l-0.057,0.458l-0.172,0.802l-0.057,0.458l-0.057,0.401l-0.229,0.917l-0.115,0.4l0,0.344l-0.057,0.401l-0.115,0.401l0,0.458l-0.114,0.401l-0.058,0.688l-0.172,0.515l-0.171,0.802l-0.115,0.458l-0.057,1.031l-0.058,0.344l-0.171,0.745l0.057,0.229l-0.057,0.63l-0.229,0.916l-0.058,0.344l-0.057,0.745l-0.172,0.401l-0.114,0.401l-0.058,0.744l0,0.688l-0.172,0.744l-0.171,0.917l-0.115,0.859l-0.057,0.458l-0.172,0.802l-0.057,0.344l-0.115,0.401l-0.057,0.343l-0.115,0.401l-0.057,0.802l-0.057,0.459l-0.172,0.4l-0.172,1.203l-0.057,0.86l-0.172,0.343l0,0.401l-0.115,0.344l0,0.63l-0.286,0.573l0,0.286l-0.057,0.688l-0.058,0.343l-0.229,0.745l-0.114,0.344l-0.058,0.4l-0.057,0.745l-0.172,0.344l-0.229,1.317l-0.057,0.344l-0.057,0.401l-0.172,0.687l-0.058,0.401l-0.171,0.745l-0.172,0.859l-0.172,0.802l0,0.344l-0.172,0.802l0.057,0.401l-0.171,0.343l0,1.089l0.343,0.286l1.031,-0.057l0.401,0.057l0.917,0.057Zm8.993,-22.053l0.057,-0.515l0.172,-0.802l0,-0.516l0.286,-1.432l0.115,-0.515l0,-0.458l0.057,-0.688l0.172,-0.916l0.114,-0.573l0.172,-1.146l0.172,-0.687l0.115,-0.401l0.114,-0.974l0.058,-0.572l0.114,-0.287l0.286,-0.687l0.401,-0.115l1.318,-0.057l1.546,0.057l0.516,0.115l0.63,0.458l0.344,0.516l0.229,0.687l0,0.974l-0.115,1.489l-0.229,1.604l-0.229,0.974l-0.229,0.515l-0.115,0.516l-0.286,0.802l-0.229,0.343l-0.401,0.63l-0.63,0.573l-0.917,0.687l-0.401,0.172l-1.088,0.115l-0.63,0.114l-1.489,0Z" style="fill-rule:nonzero;stroke:#000;stroke-width:0.24px;"/><path d="M57.801,41.075l4.582,0l0.401,-0.057l0.172,-0.687l0.057,-0.459l0.058,-0.515l0.172,-0.458l0.057,-0.401l0.114,-0.344l0.058,-0.401l0,-0.458l0.229,-0.344l0,-0.802l0.172,-0.859l0,-0.573l0.171,-0.401l0.058,-0.401l0.172,-0.687l0.114,-0.401l0.115,-0.687l0.172,-0.516l0.171,-0.802l0,-0.344l0.058,-0.401l0.114,-0.343l0.058,-0.401l0.057,-0.344l0.057,-0.745l0.115,-0.286l0.057,-0.745l0.172,-0.458l0.057,-0.401l0,-0.114l0.859,0.057l1.26,0l1.089,0.057l1.604,-0.114l0.801,-0.115l0.745,-0.057l0.687,-0.115l0.917,-0.286l0.745,-0.344l0.572,-0.172l0.802,-0.401l0.287,-0.343l0.744,-0.573l0.287,-0.401l0.401,-0.573l0.515,-0.458l0.401,-0.687l0.344,-0.344l0.515,-0.859l0.401,-0.688l0.287,-0.63l0.458,-1.088l0.286,-0.802l0.172,-0.458l0.172,-0.802l0.115,-0.344l0.057,-0.344l0.172,-0.4l0.057,-0.459l0.172,-0.401l0.114,-0.802l0.115,-1.26l0.057,-0.401l0.115,-0.63l0.057,-0.63l-0.057,-0.63l0,-0.401l-0.057,-0.859l0.057,-0.573l-0.172,-0.63l-0.057,-0.401l-0.058,-0.63l-0.229,-0.63l-0.114,-0.401l-0.344,-0.745l-0.172,-0.458l-0.343,-0.401l-0.344,-0.458l-0.229,-0.287l-0.516,-0.458l-0.744,-0.401l-0.401,-0.172l-0.401,-0.286l-0.401,-0.115l-0.917,-0.171l-1.203,-0.172l-0.744,-0.115l-0.459,0l-0.859,-0.114l-0.802,0l-0.859,0.057l-0.401,-0.057l-3.838,0l-0.343,0.057l-0.745,-0.057l-0.745,0.057l-2.978,0l-0.458,0.229l-0.229,0.745l-0.058,0.458l-0.172,0.802l-0.057,0.458l-0.057,0.401l-0.229,0.917l-0.115,0.4l0,0.344l-0.057,0.401l-0.115,0.401l0,0.458l-0.114,0.401l-0.057,0.688l-0.172,0.515l-0.172,0.802l-0.115,0.458l-0.057,1.031l-0.057,0.344l-0.172,0.745l0.057,0.229l-0.057,0.63l-0.229,0.916l-0.058,0.344l-0.057,0.745l-0.172,0.401l-0.114,0.401l-0.057,0.744l0,0.688l-0.172,0.744l-0.172,0.917l-0.115,0.859l-0.057,0.458l-0.172,0.802l-0.057,0.344l-0.115,0.401l-0.057,0.343l-0.115,0.401l-0.057,0.802l-0.057,0.459l-0.172,0.4l-0.172,1.203l-0.057,0.86l-0.172,0.343l0,0.401l-0.114,0.344l0,0.63l-0.287,0.573l0,0.286l-0.057,0.688l-0.057,0.343l-0.23,0.745l-0.114,0.344l-0.057,0.4l-0.058,0.745l-0.171,0.344l-0.23,1.317l-0.057,0.344l-0.057,0.401l-0.172,0.687l-0.057,0.401l-0.172,0.745l-0.172,0.859l-0.172,0.802l0,0.344l-0.172,0.802l0.058,0.401l-0.172,0.343l0,1.089l0.343,0.286l1.032,-0.057l0.4,0.057l0.917,0.057Zm8.993,-22.053l0.057,-0.515l0.172,-0.802l0,-0.516l0.286,-1.432l0.115,-0.515l0,-0.458l0.057,-0.688l0.172,-0.916l0.115,-0.573l0.172,-1.146l0.171,-0.687l0.115,-0.401l0.114,-0.974l0.058,-0.572l0.114,-0.287l0.287,-0.687l0.401,-0.115l1.317,-0.057l1.547,0.057l0.515,0.115l0.63,0.458l0.344,0.516l0.229,0.687l0,0.974l-0.114,1.489l-0.23,1.604l-0.229,0.974l-0.229,0.515l-0.114,0.516l-0.287,0.802l-0.229,0.343l-0.401,0.63l-0.63,0.573l-0.916,0.687l-0.401,0.172l-1.089,0.115l-0.63,0.114l-1.489,0Z" style="fill-rule:nonzero;stroke:#000;stroke-width:0.24px;"/><path d="M82.088,41.075l0.744,-0.057l0.401,0.057l1.604,0l0.573,-0.057l4.697,0l1.145,-0.057l0.802,0.114l0.86,-0.057l1.031,0.057l1.26,-0.172l0.744,-0.114l1.089,0l0.458,-0.401l0.229,-0.917l0.115,-0.859l0.057,-0.344l0,-0.4l0.172,-0.401l0.286,-2.005l0.172,-0.458l-0.057,-0.401l0.114,-0.401l0.058,-0.86l-0.344,-0.171l-1.489,0l-1.261,0.057l-2.978,0l-0.516,-0.057l-0.572,0l-0.287,-0.287l0,-0.573l0.115,-0.572l0.057,-0.631l0.115,-0.4l0.057,-0.344l0.057,-0.401l0,-0.573l0.115,-0.515l0.057,-0.745l0.229,-0.745l0.057,-0.802l0.115,-0.458l0,-0.401l0.229,-0.916l0.057,-0.401l0.058,-0.459l0.171,-0.801l0.058,-0.86l0.229,-0.916l0.057,-0.401l0.172,-0.859l0.115,-0.401l0,-0.802l0.114,-0.401l0.172,-1.203l0,-0.458l0.115,-0.401l-0.058,-0.458l0.229,-0.401l0.172,-0.745l0.172,-0.802l0.115,-0.401l0.057,-0.401l0.114,-0.458l-0.114,-0.458l0.229,-0.401l0.115,-0.802l0.229,-0.802l0,-0.458l0.172,-0.802l0.458,-2.005l0.114,-0.573l0.115,-0.63l0.172,-1.203l0.114,-0.344l0,-0.401l0.344,-1.374l0,-0.401l0.057,-0.401l-0.172,-0.688l-1.145,-0.057l-2.234,0l-2.119,-0.057l-1.375,0l-0.917,0.114l-0.172,0.344l-0.286,1.146l-0.114,0.343l0,0.401l-0.058,0.688l-0.229,0.687l-0.172,0.917l-0.057,0.916l-0.229,0.401l0,0.344l-0.057,0.401l0,0.401l-0.23,0.343l-0.114,0.63l-0.057,0.745l-0.115,0.458l0.115,0.401l-0.115,0.458l-0.229,0.802l-0.172,0.459l0.057,0.458l-0.171,1.203l-0.115,0.687l0,0.401l-0.286,0.745l0,0.802l-0.058,0.458l-0.286,0.745l-0.115,0.687l-0.114,0.745l-0.344,1.603l0,0.287l-0.229,0.802l-0.229,1.718l-0.287,0.802l0,0.401l-0.229,0.802l0,0.344l-0.057,0.401l-0.057,0.343l0,0.802l-0.115,0.344l-0.114,0.802l-0.058,0.343l0,0.344l-0.171,0.401l-0.172,0.745l0.057,0.343l-0.172,0.401l-0.114,0.344l-0.287,0.802l0,0.687l-0.114,0.516l-0.115,0.744l-0.057,0.344l0,0.401l-0.229,0.745l0,0.859l-0.229,0.745l-0.058,0.343l-0.057,0.401l-0.172,0.573l-0.229,0.573l-0.057,0.343l0.057,0.344l0.057,0.401l0.229,0.344l0.459,0.286Z" style="fill-rule:nonzero;stroke:#000;stroke-width:0.24px;"/><path d="M105.114,41.018l1.203,0l0.344,-0.057l0.859,0.057l0.516,0l0.343,-0.057l0.458,0.057l2.063,0l0.286,-1.203l0.172,-1.031l0.172,-0.802l0.229,-0.859l0.114,-0.401l0.172,-0.859l0.115,-0.802l0,-0.344l0.114,-0.401l0.172,-0.573l0.057,-0.401l0.229,-0.802l0.23,-0.859l0.171,-0.802l0.172,-0.744l-0.057,-0.344l0.115,-0.344l0.114,-0.687l0.115,-0.573l0.172,-0.63l0.229,-0.745l0,-0.4l0.114,-0.573l0.287,-0.287l0.171,-0.286l0.115,-0.458l0.229,-0.287l0.229,-0.687l0.401,-0.687l0.172,-0.344l0.172,-0.287l0.344,-0.343l0.343,-0.745l0.458,-0.687l0.459,-1.031l0.343,-0.573l0.344,-0.745l0.229,-0.401l0.229,-0.343l0.573,-0.745l0.057,-0.344l0.287,-0.343l0.114,-0.287l0.401,-0.687l0.115,-0.344l0.172,-0.401l0.286,-0.744l0.573,-0.974l0.114,-0.344l0.23,-0.343l0.057,-0.344l0.458,-0.688l0.344,-0.801l0.343,-0.344l0.516,-1.088l0.115,-0.344l0.229,-0.344l0.114,-0.401l0.458,-0.63l0.23,-0.687l0.229,-0.287l0.343,-0.687l0.058,-0.401l0.229,-0.344l0.343,-0.687l0.115,-0.344l0.458,-0.63l0.115,-0.286l0.172,-0.745l0,-0.744l-0.63,-0.344l-1.146,0.057l-0.63,-0.114l-1.489,0l-0.917,0.057l-0.859,-0.115l-1.89,0.115l-0.401,0.229l-0.573,0.745l-0.344,0.572l-0.172,0.344l-0.286,0.745l-0.344,0.802l-0.515,1.145l-0.115,0.401l-0.114,0.344l-0.459,0.745l-0.057,0.401l-0.229,0.343l-0.344,0.745l-0.572,1.375l-0.344,0.63l-0.286,0.687l-0.459,0.687l-0.057,0.344l-0.229,0.401l-0.344,0.687l-0.114,0.287l-0.115,0.343l-0.172,0.287l-0.229,-0.057l-0.057,-0.86l-0.229,-1.489l-0.115,-0.687l0,-0.516l-0.172,-0.573l-0.057,-0.744l0.057,-0.573l-0.229,-0.573l-0.114,-0.401l-0.172,-0.802l0.057,-0.343l-0.114,-1.604l-0.23,-0.458l0,-0.573l-0.171,-0.458l0,-1.318l-0.172,-0.573l-0.63,-0.687l-0.86,0l-1.546,-0.057l-0.63,0.114l-0.401,-0.057l-0.573,0.057l-0.802,-0.057l-1.489,0.057l-0.458,0.057l-0.287,0.115l-0.172,0.458l0,0.573l0.058,0.745l0.114,0.802l0.057,0.343l0.058,0.745l0.229,1.718l0.229,0.802l0,0.401l0.115,0.859l0.171,0.401l-0.057,0.688l0.115,0.458l0.114,1.432l0.058,0.458l0.286,0.859l0.172,0.917l0,0.401l0.114,0.745l0.229,0.744l0.172,0.688l0.058,0.4l0.171,1.032l0.172,0.859l-0.057,0.343l0.115,0.802l0.171,0.401l0,0.459l0.172,0.859l0.115,0.859l0.114,0.401l-0.057,0.458l0.057,0.516l0.172,0.572l0.057,0.688l-0.286,0.974l-0.057,0.687l-0.229,0.63l0,0.401l-0.058,0.344l-0.229,0.744l-0.172,0.917l0,0.573l-0.171,0.458l-0.172,0.802l-0.115,0.859l-0.172,0.401l-0.114,0.745l-0.058,0.63l-0.286,1.26l-0.172,0.515l0,0.63l-0.114,0.344l-0.058,0.401l-0.057,0.344l-0.114,0.401l0.057,0.343l-0.115,0.745l-0.114,0.687l0.057,0.745l0.63,0.344l0.859,0l0.401,0.057Z" style="fill-rule:nonzero;stroke:#000;stroke-width:0.24px;"/><path d="M141.544,41.19l0.688,-0.172l4.983,0l0.687,-0.286l0.115,-0.344l0.172,-0.802l0.114,-0.802l0.344,-1.604l0.286,-1.26l-0.057,-0.458l0.172,-0.802l0.115,-0.458l0.286,-1.203l0.172,-0.745l0.057,-0.401l0.229,-0.745l0.172,-0.916l0.172,-0.802l-0.057,-0.401l0.057,-0.344l0.057,-0.401l0.229,-0.687l0.058,-0.401l0.114,-0.344l0.057,-0.343l0,-0.573l0.115,-0.516l0.172,-0.859l0.172,-0.802l0,-0.343l0.114,-0.344l0.057,-0.802l0.23,-0.401l0.171,-0.687l0.058,-0.745l0,-0.401l0.172,-0.344l0.171,-0.801l0.115,-0.401l0.115,-0.86l0.286,-0.687l0,-0.401l0.057,-0.344l0.057,-0.687l0,-0.344l0.23,-0.744l0.286,-0.802l-0.115,-0.287l0.23,-0.458l0.229,-1.031l0.057,-0.401l0.115,-0.744l0.114,-0.344l0,-0.344l0.172,-0.401l-0.057,-0.343l0.114,-0.401l0.516,-0.058l2.405,0.058l0.573,0l0.516,-0.058l0.687,0l0.516,0.058l0.572,-0.058l0.23,-0.515l0.057,-0.802l0.114,-0.401l0.23,-0.745l0.057,-0.687l0.057,-0.344l0.115,-0.401l0.114,-0.687l0,-0.344l0.115,-0.401l0.057,-0.343l0,-0.401l0.115,-0.459l0.057,-0.401l0,-0.343l-0.115,-0.459l-0.515,-0.114l-0.802,-0.057l-3.551,0l-0.516,-0.058l-1.203,0.058l-0.859,-0.058l-3.666,0.058l-1.26,0l-0.401,-0.058l-4.239,0l-0.401,0.058l-0.401,0l-0.286,-0.058l-1.489,0l-0.401,0.058l-0.516,0.401l-0.286,0.63l-0.058,0.343l0,0.802l-0.171,0.344l-0.23,0.745l-0.057,0.802l-0.114,0.343l-0.229,0.802l0.057,0.401l0,0.458l-0.172,0.459l-0.115,0.687l0.172,0.515l0.516,0.172l0.458,0l0.573,0.058l0.515,0l0.401,-0.058l0.802,0.058l3.093,0l-0.057,0.916l-0.115,0.859l-0.114,0.401l-0.172,0.745l0,0.344l-0.057,0.4l0,0.344l-0.057,0.344l-0.287,0.916l-0.114,0.401l-0.058,0.401l0,0.458l-0.114,0.287l0,0.573l-0.287,0.63l0.058,0.401l-0.172,0.859l-0.115,0.344l0,0.401l-0.229,0.343l-0.114,0.401l0,0.516l-0.172,0.573l0,0.801l-0.115,0.344l-0.286,0.687l0.114,0.401l-0.114,0.401l-0.229,0.86l-0.287,0.802l-0.114,0.4l-0.058,0.401l0.115,0.573l-0.286,0.573l-0.058,0.802l-0.114,0.344l-0.115,0.744l-0.057,0.401l-0.115,0.401l-0.172,0.859l-0.171,0.688l0,0.458l-0.287,1.203l0.057,0.458l-0.057,0.401l-0.286,0.802l0,0.401l-0.057,0.802l-0.115,0.344l-0.057,0.859l-0.115,0.401l-0.401,1.203l-0.057,1.202l-0.115,0.86l0.516,0.458l0.401,0l0.515,0.172Z" style="fill-rule:nonzero;stroke:#000;stroke-width:0.24px;"/><path d="M170.127,41.934l1.26,-0.171l0.63,-0.172l0.401,-0.058l0.802,-0.171l0.458,-0.115l0.401,-0.057l1.318,-0.516l0.229,-0.172l0.687,-0.458l0.688,-0.515l0.286,-0.344l0.344,-0.286l0.687,-0.688l0.115,-0.343l0.286,-0.344l0.229,-0.344l0.516,-0.744l0.286,-0.401l0.458,-1.031l0.401,-0.802l0.058,-0.573l0.286,-0.401l0.172,-0.63l0,-0.401l0.172,-0.688l0.286,-0.63l0.057,-0.63l0.172,-0.343l0.287,-0.688l-0.058,-0.343l0.573,-2.005l0.172,-0.344l0.114,-0.802l0.115,-0.401l0,-0.515l0.172,-1.031l0.172,-0.344l0.172,-0.745l0.057,-0.687l0.172,-0.745l0.114,-0.744l0.229,-0.745l-0.057,-0.687l0.286,-0.63l-0.057,-0.573l0.115,-0.917l0.114,-0.401l0.058,-0.916l0.057,-0.859l0.114,-0.802l0.058,-0.344l0,-0.573l-0.058,-0.401l0.058,-0.343l0.114,-0.401l0.058,-0.745l0,-0.401l-0.058,-0.745l0.058,-0.343l0.057,-0.745l0,-0.401l-0.057,-0.458l-0.115,-1.088l-0.172,-0.86l-0.114,-0.401l-0.115,-0.343l-0.172,-0.344l-0.343,-0.745l-0.172,-0.401l-0.287,-0.343l-0.63,-0.573l-0.63,-0.516l-0.286,-0.343l-0.459,-0.287l-1.031,-0.687l-0.859,-0.401l-0.343,-0.114l-0.459,-0.058l-0.458,-0.172l-0.916,-0.114l-0.63,-0.057l-0.344,-0.058l-1.031,-0.057l-0.688,0.057l-0.801,0.058l-1.032,0.171l-0.572,0.058l-0.86,0.229l-0.343,0.057l-0.859,0.229l-0.688,0.344l-0.687,0.401l-0.401,0.286l-0.458,0.172l-0.745,0.516l-0.802,0.859l-0.286,0.343l-0.401,0.287l-0.458,0.687l-0.459,0.745l-0.229,0.344l-0.057,0.401l-0.516,0.744l-0.229,0.401l-0.343,0.687l-0.287,0.802l-0.229,0.688l-0.172,0.401l-0.343,0.744l-0.115,0.745l-0.286,0.401l-0.23,1.432l-0.114,0.802l-0.057,0.344l-0.172,0.401l-0.115,0.687l0,0.802l-0.114,0.401l-0.344,0.573l0.057,0.343l-0.114,0.401l0,0.344l-0.115,0.401l-0.172,0.344l0,0.4l-0.172,0.688l0,0.744l-0.171,0.688l-0.172,1.031l-0.115,0.401l-0.114,0.744l0.114,0.287l-0.229,0.802l0,0.401l-0.114,0.802l0,0.458l-0.23,0.802l-0.114,1.26l0,0.401l0.057,0.458l-0.172,0.573l0,1.088l-0.114,0.401l0.172,1.146l0.057,0.344l0.057,0.801l0.115,0.344l0.057,0.401l0.115,0.344l0.114,0.286l0.057,0.344l0.172,0.401l0,0.344l0.458,0.744l0.287,0.401l0.172,0.344l0.286,0.286l0.172,0.287l0.802,0.916l1.031,0.859l0.802,0.516l0.401,0.229l0.859,0.229l0.458,0.057l1.318,0.401l0.515,0.058l0.401,0.057l0.745,-0.057l1.489,0.171Zm-0.458,-7.79l-0.344,-0.057l-0.458,-0.115l-0.458,-0.171l-0.287,-0.287l-0.343,-0.515l-0.115,-0.229l-0.172,-0.401l0,-1.604l-0.172,-0.401l0.229,-0.573l0.058,-0.687l-0.172,-0.401l0.172,-0.401l0,-0.401l0.172,-0.859l0,-0.459l0.114,-0.401l0,-0.458l0.115,-0.515l-0.058,-0.229l0.115,-0.401l-0.057,-0.459l0.286,-0.802l0.172,-0.401l-0.057,-0.458l0.057,-0.401l0,-0.401l0.114,-0.802l0.115,-0.401l0.229,-0.916l0.172,-0.458l0.115,-0.86l0.114,-0.4l0.057,-0.401l0.172,-0.917l0.172,-0.802l0.229,-0.802l0.057,-0.343l0.172,-0.802l0.058,-0.459l0,-0.114l0.343,-1.203l0.115,-0.458l0.114,-0.401l0.344,-0.745l0.229,-0.401l0.229,-0.687l0.401,-0.63l0.573,-0.516l0.917,-0.343l0.458,-0.115l1.088,-0.057l0.917,0.401l0.401,0.515l0.229,0.344l0.229,1.145l-0.115,0.802l-0.057,0.745l-0.115,1.031l0,0.745l-0.114,0.515l-0.172,0.802l-0.115,0.458l-0.057,0.745l0.057,0.401l-0.114,0.401l-0.115,0.458l-0.114,0.688l-0.229,0.859l0.057,0.973l-0.172,0.344l-0.114,1.088l-0.172,0.459l-0.172,0.515l-0.115,1.318l-0.172,0.859l-0.171,0.515l0.057,0.172l0,0.458l-0.172,0.344l-0.057,0.458l-0.172,0.745l-0.172,0.401l-0.057,0.802l-0.172,0.458l-0.115,0.802l-0.114,0.401l-0.172,0.859l0,0.458l-0.115,0.401l-0.343,0.802l-0.401,0.802l-0.802,0.573l-0.516,0.229l-0.802,0.229l-0.744,0Z" style="fill-rule:nonzero;stroke:#000;stroke-width:0.24px;"/><path d="M205.812,41.075l0.86,-0.057l0.172,0l0.458,-0.057l0.802,0l0.458,0.057l0.745,0.057l1.546,-0.057l0.401,-0.057l0.401,0.057l0.859,0.057l0.859,-0.172l0.344,0.058l0.745,-0.172l0.515,-0.057l0.344,-0.058l0.458,-0.172l0.63,-0.171l0.459,-0.23l0.4,-0.171l0.287,-0.172l0.286,-0.229l0.401,-0.229l0.287,-0.287l0.343,-0.172l0.459,-0.286l0.229,-0.287l0.401,-0.343l0.286,-0.287l0.344,-0.63l0.515,-0.687l0.917,-1.833l0.114,-0.401l0.115,-0.344l0.114,-0.401l0.115,-0.343l0.172,-0.802l0.057,-0.401l0.172,-0.745l0.172,-0.859l0.114,-0.859l0.058,-0.401l0,-0.745l0.057,-0.515l-0.115,-0.573l0.058,-0.745l-0.23,-0.744l-0.114,-0.745l-0.172,-0.344l-0.114,-0.573l-0.287,-0.63l-0.229,-0.401l-0.344,-0.572l-0.343,-0.344l-0.344,-0.401l-0.687,-0.458l-0.516,-0.229l-0.63,-0.344l-0.573,-0.229l0,-0.344l0.516,-0.229l0.687,-0.286l0.687,-0.401l0.401,-0.229l0.287,-0.23l0.286,-0.343l0.287,-0.229l0.744,-0.745l0.458,-0.687l0.401,-0.573l0.401,-0.63l0.23,-0.516l0.171,-0.343l0.115,-0.401l0.114,-0.344l0.058,-0.401l0.057,-0.172l0.115,-0.401l-0.058,-0.344l0.229,-0.744l0.058,-0.401l0.114,-0.745l0,-0.343l0.115,-0.401l0.057,-0.344l0,-0.401l0.057,-0.344l0.058,-0.859l-0.115,-0.687l-0.114,-0.459l0,-0.4l-0.058,-0.459l-0.343,-0.802l-0.23,-0.687l-0.171,-0.286l-0.229,-0.344l-0.516,-0.458l-0.745,-0.802l-0.63,-0.516l-0.515,-0.229l-0.573,-0.286l-0.687,-0.172l-0.86,-0.229l-0.572,-0.058l-0.63,-0.114l-1.719,0l-0.802,-0.057l-2.291,0.057l-2.807,-0.115l-1.203,0l-0.63,0.058l-0.343,-0.058l-1.432,0l-0.802,0.058l-0.516,0.458l-0.172,0.286l-0.114,0.516l-0.057,0.859l-0.058,0.401l0,0.458l-0.172,0.745l-0.343,1.375l-0.172,0.744l-0.172,0.859l-0.115,1.833l-0.229,0.802l-0.114,0.859l-0.057,0.344l-0.115,0.344l0,0.401l-0.057,0.343l-0.058,0.516l-0.171,0.458l-0.058,0.344l-0.114,0.401l-0.058,0.687l-0.057,0.516l-0.172,0.515l-0.114,0.401l-0.058,0.401l0,0.458l-0.114,0.802l-0.229,0.802l-0.057,0.459l-0.23,0.744l-0.114,0.287l-0.057,0.801l-0.23,0.802l-0.114,0.573l-0.057,0.229l0,0.344l-0.172,0.687l-0.058,0.401l-0.114,0.745l-0.172,0.745l0,0.401l-0.057,0.343l-0.115,0.458l-0.172,0.459l-0.171,0.802l0.057,0.572l-0.229,0.573l-0.115,0.917l-0.114,0.859l-0.058,0.344l-0.172,0.458l-0.057,0.458l-0.114,0.401l-0.058,0.401l-0.114,0.344l-0.057,0.802l-0.115,0.802l-0.229,0.744l-0.057,0.401l-0.115,0.687l-0.115,0.802l-0.114,0.516l-0.172,0.458l0,0.859l-0.115,0.573l-0.057,0.458l0.401,0.344l0.516,0.057l0.859,0.058l0.458,0l0.344,0.057l2.348,0l0.917,-0.057l0.458,0l0.916,0.114Zm6.473,-24.917l-0.687,-0.057l-0.745,0l0,-0.344l0.057,-0.572l0.115,-0.459l0.401,-2.806l0.114,-0.344l0.058,-0.401l0.172,-0.745l0,-0.401l0.171,-0.687l0.058,-0.401l0.057,-0.515l0.172,-0.516l0,-0.401l0.458,-0.114l1.432,0l1.031,0.114l0.516,0.115l0.343,0.057l0.459,0.401l0.171,0.286l0.344,0.688l0.057,0.687l0.058,0.401l0.057,0.63l-0.229,0.573l-0.057,0.458l-0.115,0.344l-0.172,0.687l-0.286,0.802l-0.459,0.573l-0.286,0.515l-0.687,0.573l-0.63,0.401l-0.459,0.287l-0.687,0.114l-0.802,0.057Zm-3.666,17.528l-0.916,-0.057l0.229,-0.745l0.057,-0.458l0.115,-0.458l0.114,-0.802l0,-0.401l0.172,-0.859l0.115,-0.401l0.114,-0.802l0.057,-0.459l0.115,-0.343l0,-0.401l0.115,-0.401l0.114,-0.859l0.115,-0.229l0.114,-0.459l0.115,-1.031l0.172,-0.515l0.802,0l0.63,0.057l0.802,0l0.458,0.115l0.573,0.114l1.088,0.401l0.63,0.573l0.516,1.375l-0.058,0.744l0.058,0.974l-0.115,1.031l-0.286,0.745l-0.058,0.458l-0.114,0.401l-0.287,0.63l-0.057,0.458l-0.344,0.516l-0.401,0.343l-0.515,0.401l-0.401,0.172l-0.401,0l-0.401,0.172l-1.088,0l-1.432,-0.172l-0.516,0.172Z" style="fill-rule:nonzero;stroke:#000;stroke-width:0.24px;"/><path d="M238.29,41.934l1.26,-0.171l0.63,-0.172l0.401,-0.058l0.802,-0.171l0.459,-0.115l0.401,-0.057l1.317,-0.516l0.229,-0.172l0.687,-0.458l0.688,-0.515l0.286,-0.344l0.344,-0.286l0.687,-0.688l0.115,-0.343l0.286,-0.344l0.229,-0.344l0.516,-0.744l0.286,-0.401l0.459,-1.031l0.4,-0.802l0.058,-0.573l0.286,-0.401l0.172,-0.63l0,-0.401l0.172,-0.688l0.286,-0.63l0.058,-0.63l0.171,-0.343l0.287,-0.688l-0.058,-0.343l0.573,-2.005l0.172,-0.344l0.115,-0.802l0.114,-0.401l0,-0.515l0.172,-1.031l0.172,-0.344l0.172,-0.745l0.057,-0.687l0.172,-0.745l0.114,-0.744l0.23,-0.745l-0.058,-0.687l0.287,-0.63l-0.058,-0.573l0.115,-0.917l0.115,-0.401l0.057,-0.916l0.057,-0.859l0.115,-0.802l0.057,-0.344l0,-0.573l-0.057,-0.401l0.057,-0.343l0.114,-0.401l0.058,-0.745l0,-0.401l-0.058,-0.745l0.058,-0.343l0.057,-0.745l0,-0.401l-0.057,-0.458l-0.115,-1.088l-0.172,-0.86l-0.114,-0.401l-0.115,-0.343l-0.172,-0.344l-0.343,-0.745l-0.172,-0.401l-0.287,-0.343l-0.63,-0.573l-0.63,-0.516l-0.286,-0.343l-0.458,-0.287l-1.031,-0.687l-0.86,-0.401l-0.343,-0.114l-0.458,-0.058l-0.459,-0.172l-0.916,-0.114l-0.63,-0.057l-0.344,-0.058l-1.031,-0.057l-0.687,0.057l-0.802,0.058l-1.031,0.171l-0.573,0.058l-0.859,0.229l-0.344,0.057l-0.859,0.229l-0.688,0.344l-0.687,0.401l-0.401,0.286l-0.458,0.172l-0.745,0.516l-0.802,0.859l-0.286,0.343l-0.401,0.287l-0.458,0.687l-0.459,0.745l-0.229,0.344l-0.057,0.401l-0.515,0.744l-0.23,0.401l-0.343,0.687l-0.287,0.802l-0.229,0.688l-0.172,0.401l-0.343,0.744l-0.115,0.745l-0.286,0.401l-0.229,1.432l-0.115,0.802l-0.057,0.344l-0.172,0.401l-0.115,0.687l0,0.802l-0.114,0.401l-0.344,0.573l0.057,0.343l-0.114,0.401l0,0.344l-0.115,0.401l-0.172,0.344l0,0.4l-0.171,0.688l0,0.744l-0.172,0.688l-0.172,1.031l-0.115,0.401l-0.114,0.744l0.114,0.287l-0.229,0.802l0,0.401l-0.114,0.802l0,0.458l-0.229,0.802l-0.115,1.26l0,0.401l0.057,0.458l-0.172,0.573l0,1.088l-0.114,0.401l0.172,1.146l0.057,0.344l0.057,0.801l0.115,0.344l0.057,0.401l0.115,0.344l0.114,0.286l0.058,0.344l0.171,0.401l0,0.344l0.459,0.744l0.286,0.401l0.172,0.344l0.286,0.286l0.172,0.287l0.802,0.916l1.031,0.859l0.802,0.516l0.401,0.229l0.859,0.229l0.458,0.057l1.318,0.401l0.515,0.058l0.401,0.057l0.745,-0.057l1.489,0.171Zm-0.458,-7.79l-0.344,-0.057l-0.458,-0.115l-0.458,-0.171l-0.287,-0.287l-0.343,-0.515l-0.115,-0.229l-0.172,-0.401l0,-1.604l-0.171,-0.401l0.229,-0.573l0.057,-0.687l-0.172,-0.401l0.172,-0.401l0,-0.401l0.172,-0.859l0,-0.459l0.114,-0.401l0,-0.458l0.115,-0.515l-0.057,-0.229l0.114,-0.401l-0.057,-0.459l0.286,-0.802l0.172,-0.401l-0.057,-0.458l0.057,-0.401l0,-0.401l0.115,-0.802l0.114,-0.401l0.229,-0.916l0.172,-0.458l0.115,-0.86l0.114,-0.4l0.058,-0.401l0.171,-0.917l0.172,-0.802l0.229,-0.802l0.058,-0.343l0.172,-0.802l0.057,-0.459l0,-0.114l0.343,-1.203l0.115,-0.458l0.115,-0.401l0.343,-0.745l0.229,-0.401l0.23,-0.687l0.4,-0.63l0.573,-0.516l0.917,-0.343l0.458,-0.115l1.088,-0.057l0.917,0.401l0.401,0.515l0.229,0.344l0.229,1.145l-0.115,0.802l-0.057,0.745l-0.114,1.031l0,0.745l-0.115,0.515l-0.172,0.802l-0.114,0.458l-0.058,0.745l0.058,0.401l-0.115,0.401l-0.114,0.458l-0.115,0.688l-0.229,0.859l0.057,0.973l-0.172,0.344l-0.114,1.088l-0.172,0.459l-0.172,0.515l-0.115,1.318l-0.171,0.859l-0.172,0.515l0.057,0.172l0,0.458l-0.172,0.344l-0.057,0.458l-0.172,0.745l-0.172,0.401l-0.057,0.802l-0.172,0.458l-0.114,0.802l-0.115,0.401l-0.172,0.859l0,0.458l-0.114,0.401l-0.344,0.802l-0.401,0.802l-0.802,0.573l-0.515,0.229l-0.802,0.229l-0.745,0Z" style="fill-rule:nonzero;stroke:#000;stroke-width:0.24px;"/><path d="M260.114,41.132l1.489,0l0.63,-0.171l0.172,-0.516l0.057,-0.458l0.172,-0.745l0.115,-0.802l0.172,-0.744l0.229,-1.375l0.172,-0.63l0,-0.401l0.114,-0.745l0.115,-0.802l0.172,-0.802l0,-0.458l0.229,-0.744l0.057,-0.459l0.172,-0.859l-0.057,-0.63l0.286,-0.573l0,-0.802l0.057,-0.286l0.115,-0.802l0,-0.458l0.229,-0.802l0,-0.458l0.229,-0.802l0.115,-0.688l0.114,-0.744l0.172,-0.745l0,-0.458l0.172,-0.401l0.229,-0.802l0.286,-1.718l0.172,-0.573l0.115,-0.745l0,-0.401l0.057,-0.458l0.057,-0.401l0,-0.516l0.172,-0.515l0.172,-0.802l0.057,-0.286l0.172,-0.745l0.172,-0.687l0.114,-0.745l0.058,-0.401l0.057,-0.687l0.057,-0.401l0.115,-0.688l0.114,-0.343l0.115,-0.63l0.286,-1.49l0.058,-0.343l0,-0.401l0.057,-0.344l0,-0.458l0.229,-0.516l0.115,-0.802l0.171,-0.286l0,-0.516l0.172,-0.229l-0.057,-0.343l0.057,-0.631l0.115,-0.171l0,-0.745l0.057,-0.344l-0.229,-0.573l-0.63,-0.171l-0.401,0.057l-3.036,0l-0.401,0.057l-0.802,0l-0.515,-0.057l-0.859,0.057l-0.401,0.057l-0.344,0.23l-0.401,0.171l-0.401,0.573l-0.057,0.401l-0.115,0.344l-0.114,0.859l-0.23,0.63l-0.114,0.63l-0.057,0.688l-0.115,0.343l-0.057,0.344l-0.172,0.745l-0.115,0.802l-0.114,0.286l-0.057,0.745l-0.058,0.458l0.058,0.401l-0.23,0.744l-0.057,0.401l-0.172,0.745l-0.057,0.344l-0.229,0.687l0.057,0.401l-0.057,0.344l-0.115,0.802l-0.171,0.401l0,0.801l-0.172,1.203l-0.287,0.802l-0.172,0.745l-0.114,0.687l0,0.745l-0.229,0.458l-0.115,0.802l0,0.401l-0.229,0.802l0,0.802l-0.114,0.802l-0.058,0.343l-0.057,0.401l-0.115,0.401l0,0.344l-0.114,0.859l-0.401,1.26l0.057,0.401l-0.114,0.401l-0.058,0.344l-0.114,0.401l0,0.401l-0.115,0.687l-0.114,0.516l-0.172,0.515l-0.115,0.516l-0.172,0.63l-0.171,1.031l0.057,0.344l-0.229,0.744l-0.058,0.401l-0.114,0.459l-0.057,0.4l-0.172,0.86l-0.058,0.458l-0.114,0.802l-0.115,0.401l-0.057,0.859l-0.286,0.802l0.057,0.859l0.458,0.401l0.458,0.115l0.459,-0.058l0.401,0.058l0.63,0.057l0.401,-0.057l0.458,0l0.802,0.114l1.661,0l0.401,0.057Z" style="fill-rule:nonzero;stroke:#000;stroke-width:0.24px;"/><path d="M269.794,41.075l0.745,-0.057l0.401,0.057l1.604,0l0.572,-0.057l4.697,0l1.146,-0.057l0.802,0.114l0.859,-0.057l1.031,0.057l1.26,-0.172l0.745,-0.114l1.088,0l0.459,-0.401l0.229,-0.917l0.114,-0.859l0.058,-0.344l0,-0.4l0.171,-0.401l0.287,-2.005l0.172,-0.458l-0.058,-0.401l0.115,-0.401l0.057,-0.86l-0.344,-0.171l-1.489,0l-1.26,0.057l-2.979,0l-0.515,-0.057l-0.573,0l-0.286,-0.287l0,-0.573l0.114,-0.572l0.058,-0.631l0.114,-0.4l0.057,-0.344l0.058,-0.401l0,-0.573l0.114,-0.515l0.058,-0.745l0.229,-0.745l0.057,-0.802l0.115,-0.458l0,-0.401l0.229,-0.916l0.057,-0.401l0.057,-0.459l0.172,-0.801l0.057,-0.86l0.229,-0.916l0.058,-0.401l0.172,-0.859l0.114,-0.401l0,-0.802l0.115,-0.401l0.172,-1.203l0,-0.458l0.114,-0.401l-0.057,-0.458l0.229,-0.401l0.172,-0.745l0.172,-0.802l0.114,-0.401l0.057,-0.401l0.115,-0.458l-0.115,-0.458l0.23,-0.401l0.114,-0.802l0.229,-0.802l0,-0.458l0.172,-0.802l0.458,-2.005l0.115,-0.573l0.114,-0.63l0.172,-1.203l0.115,-0.344l0,-0.401l0.344,-1.374l0,-0.401l0.057,-0.401l-0.172,-0.688l-1.146,-0.057l-2.234,0l-2.119,-0.057l-1.375,0l-0.916,0.114l-0.172,0.344l-0.286,1.146l-0.115,0.343l0,0.401l-0.057,0.688l-0.229,0.687l-0.172,0.917l-0.057,0.916l-0.23,0.401l0,0.344l-0.057,0.401l0,0.401l-0.229,0.343l-0.115,0.63l-0.057,0.745l-0.114,0.458l0.114,0.401l-0.114,0.458l-0.229,0.802l-0.172,0.459l0.057,0.458l-0.172,1.203l-0.114,0.687l0,0.401l-0.287,0.745l0,0.802l-0.057,0.458l-0.287,0.745l-0.114,0.687l-0.115,0.745l-0.343,1.603l0,0.287l-0.229,0.802l-0.23,1.718l-0.286,0.802l0,0.401l-0.229,0.802l0,0.344l-0.057,0.401l-0.058,0.343l0,0.802l-0.114,0.344l-0.115,0.802l-0.057,0.343l0,0.344l-0.172,0.401l-0.172,0.745l0.058,0.343l-0.172,0.401l-0.115,0.344l-0.286,0.802l0,0.687l-0.115,0.516l-0.114,0.744l-0.058,0.344l0,0.401l-0.229,0.745l0,0.859l-0.229,0.745l-0.057,0.343l-0.057,0.401l-0.172,0.573l-0.229,0.573l-0.058,0.343l0.058,0.344l0.057,0.401l0.229,0.344l0.458,0.286Z" style="fill-rule:nonzero;stroke:#000;stroke-width:0.24px;"/><path d="M295.857,41.075l0.458,-0.057l0.916,-0.057l1.203,0l0.344,-0.058l0.745,0.058l0.916,-0.058l5.442,0l0.171,-0.63l0.115,-0.515l0.057,-0.974l0.172,-0.859l0.057,-0.401l0.115,-0.344l0.115,-0.401l0,-0.744l0.229,-1.261l0.057,-0.458l0.115,-0.63l0.057,-0.229l0.057,-0.458l-0.401,-0.172l-1.604,0.057l-1.26,-0.057l-0.802,-0.057l-3.379,0l-0.802,-0.115l-0.229,-0.229l0,-0.458l0.229,-1.49l0.172,-1.031l0.114,-0.401l0.057,-0.572l0.115,-0.516l0.172,-0.573l0.229,-1.604l0.172,-0.744l0.229,-0.63l0.515,0l0.745,-0.058l0.63,0l0.974,0.058l1.432,-0.058l0.515,0l0.86,-0.057l0.572,0l0.115,-0.114l0.115,-0.802l0.171,-0.917l0.115,-0.802l0.172,-0.458l0,-0.401l0.172,-0.859l0.114,-0.401l0.172,-0.802l0.115,-0.63l0,-0.458l0.114,-0.688l-0.344,-0.458l-0.458,-0.114l-1.489,0l-1.088,0.114l-2.005,-0.057l-1.031,0l0.114,-1.031l0.172,-0.573l-0.057,-0.458l0.114,-0.401l0.172,-0.802l0.115,-0.802l0.172,-1.088l0,-0.459l0.172,-0.343l0,-0.802l0.057,-0.401l0.172,-0.688l1.374,-0.057l3.724,0l0.687,-0.057l2.406,0l0.573,-0.057l0.171,-0.745l0.058,-0.344l0.229,-0.802l0,-0.458l0.172,-0.859l0.057,-0.344l0.057,-0.401l0.172,-0.401l0,-0.343l0.115,-1.432l0,-0.344l0.171,-0.63l-0.286,-0.401l-0.516,-0.057l-0.572,-0.058l-0.516,0.058l-1.26,0l-1.661,0.057l-0.458,-0.057l-1.318,-0.058l-4.296,0.058l-1.26,0.057l-0.573,0l-0.458,-0.057l-0.401,0l-0.687,0.057l-0.401,-0.057l-0.344,0.057l-0.974,0l-0.458,0.344l-0.057,0.343l-0.172,0.344l-0.172,0.687l0.115,0.401l-0.058,0.344l-0.057,0.745l-0.057,0.343l-0.115,0.344l-0.057,0.745l-0.115,0.401l0.058,0.343l-0.172,0.401l0,0.401l-0.172,0.344l-0.115,0.802l-0.229,0.744l-0.057,0.401l0.057,0.344l-0.057,0.401l-0.115,0.458l-0.229,0.344l-0.057,1.203l-0.172,0.401l-0.057,1.604l-0.229,0.859l-0.172,0.802l0.057,0.343l-0.114,0.401l-0.172,0.459l-0.344,1.718l-0.229,0.344l0,0.401l-0.057,0.401l-0.057,0.458l-0.172,0.401l-0.115,0.859l-0.229,0.802l0,0.859l-0.229,1.203l-0.115,0.401l-0.172,0.859l-0.057,0.401l-0.172,0.401l-0.171,0.745l0.057,0.343l-0.229,0.688l0,0.286l-0.115,0.745l-0.114,0.458l0,0.401l-0.115,0.916l-0.229,0.459l-0.115,0.744l-0.057,0.802l-0.057,0.401l-0.115,0.458l0,0.401l-0.114,0.401l0,0.516l-0.172,0.458l-0.057,0.917l-0.23,0.859l-0.114,0.916l-0.115,0.86l-0.114,0.515l-0.172,0.516l0.172,0.515l0.515,0.115l3.036,0l0.401,0.057l1.489,0l1.089,0.057Z" style="fill-rule:nonzero;stroke:#000;stroke-width:0.24px;"/><path d="M316.592,41.132l0.458,-0.057l0.859,-0.057l0.516,-0.057l0.573,0.057l0.172,-0.516l0.171,-0.401l0.058,-0.687l0.057,-0.401l0,-0.344l0.057,-0.401l0.058,-0.744l0,-0.344l0.114,-0.401l-0.057,-0.343l0.172,-0.802l0,-0.459l0.114,-0.343l0.058,-0.459l0.229,-1.202l0.114,-0.459l0,-1.203l0.229,-0.458l0.115,-0.802l0,-0.343l0.114,-0.802l0.287,-0.745l0,-0.974l0.172,-1.203l0.057,-0.458l0.172,-0.802l0.114,-0.343l0.058,-0.23l0.401,0.058l0.229,0.229l0.229,0.458l0.114,0.458l0.23,0.459l0.114,0.572l0.172,0.802l0.114,0.287l0.058,0.802l0.229,0.744l0.114,0.745l0.115,0.401l0.229,0.687l0.057,0.401l0.344,1.031l0,0.688l0.229,0.572l0.172,0.63l0.057,0.401l0.172,0.344l0,0.401l0.172,0.401l0.115,0.745l0.114,0.171l0.172,0.459l0,0.458l0.344,0.859l0.171,0.63l0.115,0.287l0.172,0.687l0.114,0.286l0.516,0.516l0.344,0.057l0.515,-0.057l0.458,0l0.63,-0.057l0.745,0l1.489,-0.172l1.203,-0.172l0.745,0l0.63,-0.115l0.286,-0.057l0.172,-0.745l-0.401,-1.088l-0.114,-0.515l-0.058,-0.401l-0.057,-0.688l-0.401,-0.973l-0.114,-0.802l-0.63,-2.062l-0.115,-0.745l-0.286,-0.859l0,-0.344l-0.23,-0.745l-0.114,-0.458l-0.172,-0.401l-0.114,-0.802l-0.115,-0.343l-0.172,-0.745l-0.172,-0.344l-0.114,-0.744l-0.058,-0.459l-0.229,-0.343l-0.114,-0.745l0,-0.515l-0.287,-0.86l-0.171,-0.458l0,-0.515l0.4,-0.058l0.802,-0.401l1.146,-0.744l0.802,-0.859l0.286,-0.287l0.63,-0.745l0.172,-0.343l0.458,-0.745l0.23,-0.515l0.171,-0.401l0.516,-0.745l0.286,-0.687l0.172,-0.401l0.115,-0.344l0.114,-0.401l0.229,-0.687l0.172,-0.573l0.115,-0.917l0.172,-0.916l0,-0.401l-0.058,-0.859l0.058,-0.401l0.172,-0.802l0,-0.458l-0.172,-1.089l0,-0.401l-0.115,-1.088l-0.172,-0.916l-0.401,-0.802l-0.401,-0.688l-0.229,-0.286l-0.286,-0.344l-0.229,-0.229l-0.688,-0.401l-0.286,-0.172l-0.344,-0.172l-0.515,-0.343l-0.401,-0.115l-0.516,-0.229l-0.63,-0.286l-0.458,-0.115l-0.917,0l-0.63,-0.114l-0.859,-0.058l-0.744,-0.114l-0.516,0l-0.859,-0.115l-0.458,-0.114l-0.573,0.057l-0.401,0.057l-2.463,0l-3.437,-0.057l-0.802,0l-0.573,0.114l-0.401,0.459l-0.229,0.286l0.057,0.63l-0.229,0.458l0,0.459l-0.057,0.401l-0.057,0.458l-0.229,1.604l-0.172,0.916l-0.172,0.688l-0.115,0.401l0,0.343l-0.057,0.745l0,0.344l-0.057,0.343l-0.172,0.802l-0.172,0.917l-0.172,0.802l-0.057,0.343l-0.057,0.802l-0.229,0.687l-0.058,0.344l0,0.401l-0.057,0.344l-0.114,0.744l-0.058,0.401l-0.057,0.344l0,0.401l-0.286,1.203l0,0.458l-0.115,0.802l-0.115,0.745l-0.057,0.343l-0.114,0.63l-0.115,0.401l0,0.344l-0.172,0.344l-0.114,0.401l-0.058,0.687l0.058,0.344l-0.115,0.343l-0.286,0.401l0,0.516l-0.058,0.458l-0.057,0.401l-0.229,0.802l0,0.458l-0.057,0.86l-0.115,0.572l0,0.516l-0.286,1.031l0,0.859l-0.229,0.458l0.057,0.459l-0.057,0.401l-0.115,0.458l-0.057,0.802l-0.172,0.458l0.057,0.401l-0.172,0.458l0,0.401l-0.171,0.802l-0.058,0.401l0,0.344l-0.172,0.401l0,0.401l-0.114,0.343l0,0.401l-0.057,0.63l-0.058,0.573l-0.171,0.573l0,0.515l0.114,0.344l0.516,0.115l1.775,0.114l0.745,0l2.062,0.057Zm7.446,-23.599l-0.973,-0.114l0.057,-0.459l-0.057,-0.401l0.057,-0.401l0.172,-0.916l0.114,-0.516l-0.057,-0.515l0.172,-0.516l0.114,-0.859l0,-0.401l0.172,-0.916l0.115,-0.459l0.057,-0.744l0.057,-0.859l0.115,-0.917l0.172,-0.401l0.172,-0.63l0.515,-0.172l1.375,0.058l1.26,0.171l0.516,0.287l0.401,0.401l0.286,0.515l0.172,1.203l0.057,1.26l-0.057,0.917l-0.172,0.458l0,0.458l-0.401,0.802l-0.057,0.344l-0.115,0.458l-0.286,0.745l-0.401,0.343l-0.229,0.344l-0.401,0.458l-0.401,0.229l-0.573,0.344l-0.344,0.229l-0.687,0.172l-0.917,0Z" style="fill-rule:nonzero;stroke:#000;stroke-width:0.24px;"/><path d="M342.597,41.132l0.401,-0.057l0.286,-0.057l1.719,0l0.687,-0.286l0.344,-0.631l0.057,-0.572l0.057,-0.344l0.172,-0.401l0.058,-0.745l0,-0.744l0.171,-0.688l0.058,-0.343l0.114,-0.802l0.115,-0.917l0.057,-0.515l0.057,-0.458l0.23,-0.688l0,-0.344l0.114,-0.801l0.057,-0.802l0,-0.401l0.115,-0.688l0.114,-0.802l0.115,-0.401l0.057,-0.343l0.115,-0.745l0.057,-0.401l0,-1.088l0.115,-0.344l0.057,-0.401l0.229,-2.119l0.229,-0.917l0,-0.687l0.287,-2.348l0.229,0l0.229,2.634l0.057,0.344l0.057,0.401l0.115,0.859l0.115,1.203l0.343,2.406l0.115,0.745l0.172,0.801l0.114,0.344l0.115,1.203l0.114,0.974l0.115,0.401l0.057,0.401l0.057,0.458l0.115,0.401l0.057,0.458l0.287,0.974l0.057,0.401l0.687,0.344l0.516,0.057l1.088,0.172l1.26,-0.115l0.516,0.115l0.344,0l0.63,-0.115l0.286,-0.573l0.401,-0.687l1.547,-3.38l1.26,-2.348l0.744,-1.718l1.318,-2.922l1.718,-3.379l0.172,0l-0.229,1.374l-0.115,0.401l-0.057,0.344l-0.172,0.802l-0.172,1.031l-0.458,2.234l-0.114,0.401l0,0.344l-0.058,0.401l-0.172,0.63l-0.057,0.401l-0.057,0.343l-0.057,0.688l-0.172,0.401l-0.115,0.744l0,0.802l-0.172,0.745l-0.229,0.687l-0.057,0.745l-0.229,0.744l-0.172,0.802l-0.115,0.86l-0.114,0.801l-0.115,0.459l-0.114,0.859l-0.058,0.401l-0.171,0.802l-0.058,0.343l0.058,0.401l0.114,0.631l0.401,0.286l0.401,0l0.287,0.057l0.801,-0.057l2.521,0l1.718,0.057l0.63,0l0.802,-0.229l0.172,-0.515l0.115,-0.745l0.171,-0.745l0.172,-0.802l0.058,-0.458l0.171,-0.745l0,-0.4l0.058,-0.401l0.057,-0.745l0.114,-0.344l0.058,-0.401l0.172,-0.744l0.057,-0.459l0.114,-0.802l0.115,-0.343l0.115,-0.802l0.057,-0.458l0.057,-0.401l0.172,-0.86l0.057,-0.4l0.287,-0.86l0.114,-0.744l0,-0.344l0.172,-0.802l0.115,-0.859l-0.172,-0.458l0.286,-0.401l0.172,-0.745l0.057,-0.344l0.058,-0.401l0.057,-0.343l-0.057,-0.401l0,-0.401l0.229,-0.401l0.057,-0.859l0.057,-0.63l0.172,-0.688l0.057,-0.401l0.058,-0.343l0.171,-0.688l0.115,-0.802l0.172,-0.744l0.114,-0.344l0.058,-0.401l0,-0.344l0.057,-0.515l0.229,-0.458l0.057,-0.917l0.115,-0.802l0.057,-0.344l0.287,-0.744l0.171,-0.344l0,-0.974l0.23,-0.401l-0.058,-0.343l0.058,-0.688l0.114,-0.343l0.172,-0.802l0,-0.458l0.286,-0.745l0.058,-0.401l0.114,-0.344l0,-0.802l0.058,-0.171l0.057,-0.401l0.057,-0.344l0.057,-0.401l0.058,-0.229l0.057,-0.802l0.114,-0.344l0.172,-0.744l-0.114,-0.401l-0.516,-0.344l-1.145,0.057l-1.948,-0.114l-0.916,0.057l-1.375,-0.057l-1.375,0.114l-0.286,0.573l-0.401,0.573l-0.287,0.687l-0.229,0.344l-0.057,0.344l-0.115,0.229l-0.171,0.286l-0.229,0.344l-0.344,0.687l-0.401,0.63l-0.458,0.802l-0.344,0.745l-0.802,1.604l-0.229,0.343l-1.146,2.291l-0.572,0.86l-0.058,0.343l-0.229,0.344l-0.515,0.745l-0.23,0.687l-0.343,0.344l-0.401,0.744l-0.229,0.573l-0.344,0.516l-0.401,0.859l0,0.344l-0.401,0.515l-0.344,0.573l-0.401,0.802l-0.171,0.401l-0.459,0.916l-0.229,0.344l-0.172,0.286l-0.744,1.432l-0.172,0l-0.229,-1.088l-0.115,-0.745l-0.114,-0.343l0,-0.401l-0.058,-0.401l0,-0.344l-0.229,-0.802l-0.229,-1.947l-0.172,-0.802l0,-0.401l-0.171,-0.802l-0.058,-0.745l0,-0.344l-0.057,-0.744l-0.172,-0.344l-0.057,-0.401l0,-0.401l-0.115,-0.802l-0.057,-0.343l-0.229,-1.203l0,-0.458l-0.115,-0.401l-0.057,-0.802l-0.115,-0.745l-0.171,-0.916l-0.058,-0.974l-0.171,-0.802l-0.058,-0.344l-0.114,-0.802l-0.115,-0.401l-0.172,-1.604l-0.343,-0.515l-0.745,0l-1.146,-0.057l-1.031,0.057l-0.973,0l-0.974,-0.057l-1.089,0.057l-0.801,0l-0.573,0.057l-0.344,0.688l0,0.401l-0.229,0.515l-0.057,0.63l-0.115,0.401l0.057,0.458l-0.171,0.745l-0.058,0.401l-0.172,0.63l-0.114,0.687l-0.057,0.745l0,0.344l-0.344,1.718l-0.057,0.344l0,0.401l-0.115,0.343l-0.114,0.401l-0.172,0.745l-0.058,0.458l-0.114,0.802l-0.057,0.344l-0.115,0.802l-0.115,0.343l-0.114,0.745l-0.057,0.745l-0.172,0.687l-0.172,0.401l-0.057,0.344l-0.115,0.744l-0.057,0.401l-0.115,0.344l0,0.401l-0.057,0.687l-0.115,0.688l-0.114,0.458l-0.172,0.515l0.057,0.344l-0.172,0.687l-0.057,0.344l0,0.516l-0.286,1.145l-0.115,0.802l0,0.458l-0.229,0.86l-0.057,0.916l-0.115,0.859l-0.114,0.344l-0.058,0.802l-0.057,0.344l-0.057,0.458l-0.115,0.458l-0.172,0.802l-0.057,0.802l-0.057,0.458l-0.172,0.401l0,0.401l-0.057,0.458l-0.172,0.802l-0.115,0.401l-0.114,0.688l-0.172,0.63l-0.057,0.744l-0.058,0.401l-0.171,0.516l0.114,0.515l-0.057,0.344l-0.057,0.859l0,0.401l0.286,0.344l0.229,0.172l0.802,0.057l1.547,0l1.546,0.114Z" style="fill-rule:nonzero;stroke:#000;stroke-width:0.24px;"/><path d="M377.595,41.132l0.458,-0.057l1.604,0.057l0.344,-0.229l0.229,-0.401l0.172,-0.286l0.172,-0.63l0.343,-0.859l0.573,-1.089l0.229,-0.687l0.172,-0.401l0.115,-0.401l0.401,-0.745l0.286,-0.63l1.547,0l2.52,0.058l0.916,0.114l1.261,0.058l0.057,0.458l0,2.692l-0.057,0.573l0.057,0.573l0.057,1.031l0.115,0.572l0.229,0.172l0.859,0l0.745,0.057l0.573,-0.057l0.4,-0.057l0.688,0.057l0.458,0l1.26,-0.057l0.802,0l0.458,0.057l0.401,-0.057c0.229,0 0.401,0.057 0.63,0c0.287,-0.172 0.23,-0.687 0.172,-0.917l0,-1.202l-0.057,-1.261l0,-0.515l-0.057,-0.458l0.057,-0.802l0,-0.859l-0.057,-0.401l-0.058,-0.745l0,-0.344l-0.114,-2.176l0.057,-0.401l-0.057,-0.802l0.057,-0.859l-0.057,-0.86l0,-0.401l-0.057,-2.635l0,-1.718l-0.058,-0.458l-0.057,-0.688l0,-2.233l-0.115,-0.631l-0.057,-0.916l0,-0.344l-0.057,-0.744l0.057,-0.344l-0.057,-0.802l0,-1.146l-0.115,-0.801l0,-1.261l0.058,-0.401l-0.058,-0.859l0,-0.802l-0.114,-1.145l-0.057,-0.745l0,-0.802l-0.058,-2.062l0,-1.031l-0.114,-0.344l0,-1.26l-0.172,-2.463l-0.401,-0.286l-0.287,-0.115l-0.916,0l-0.516,0.057l-0.4,-0.114l-0.516,0l-1.088,0.057l-0.917,0l-0.573,0.057l-1.088,-0.057l-0.573,0l-0.401,0.057l-0.229,0.631l-0.172,0.343l-0.171,0.401l-0.516,1.031l-0.401,0.745l-0.344,1.031l-0.114,0.286l-0.229,0.344l-0.344,0.63l-0.115,0.401l-0.114,0.344l-0.172,0.343l-0.115,0.401l-0.515,1.031l-0.172,0.401l-0.172,0.573l-0.343,0.516l-0.172,0.343l-0.287,0.745l-0.458,1.203l-0.229,0.344l-0.286,0.401l-0.172,0.801l-0.344,0.745l-0.114,0.286l-0.172,0.745l-0.287,0.401l-0.172,0.745l-0.171,0.343l-0.344,0.63l-0.286,0.974l-0.401,0.745l-0.172,0.458l-0.459,1.604l-0.171,0.344l-0.287,0.802l-0.172,0.343l-0.171,0.401l-0.058,0.344l-0.343,0.802l-0.115,0.401l-0.344,0.687l-0.286,0.458l-0.115,0.516l-0.114,0.401l-0.401,0.802l-0.172,0.401l-0.286,0.744l-0.172,0.344l-0.057,0.401l-0.115,0.344l-0.286,0.687l-0.287,0.401l-0.114,0.344l-0.459,1.031l-0.229,0.744l-0.63,1.375l-0.286,0.687l-0.344,0.688l-0.573,1.718l-0.458,0.745l-0.344,0.687l-0.057,0.344l-0.114,0.401l0.114,0.458l0.516,0.115l4.181,0.057l0.401,0.057l0.859,0.057Zm9.451,-13.804l-0.515,-0.057l-0.63,-0.058l-0.458,0l-0.401,-0.343l0.171,-0.401l0.115,-0.516l0.115,-0.401l0.286,-0.973l0.229,-0.401l0.286,-0.86l0.058,-0.401l0.343,-1.26l0.172,-0.515l0.172,-0.401l0.172,-0.516l0.229,-0.401l0.057,-0.401l0.229,-0.572l0.23,-0.459l0.286,-0.916l0.172,-0.573l0.286,-0.916l0.229,-0.745l0.459,-0.172l0.057,1.318l-0.057,2.062l-0.058,2.176l0.058,1.375l-0.115,0.458l0,0.974l-0.057,0.401l0,1.489l-0.058,0.458l0.058,0.459l-0.058,0.802l-0.343,0.286l-1.719,0Z" style="fill-rule:nonzero;stroke:#000;stroke-width:0.24px;"/><path d="M401.023,41.018l0.573,-0.057l0.515,0.057l1.088,0l0.401,-0.057l0.172,0.057l0.344,0l0.802,-0.057l0.687,0.057l0.516,-0.057l1.489,0l0.63,-0.229l0.286,-1.146l0,-0.687l0.23,-0.631l0.229,-0.801l0.057,-0.745l0.057,-0.401l0.115,-0.344l0.172,-0.687l0.171,-0.917l0.115,-1.202l0.115,-0.344l0.171,-0.401l0.058,-0.745l0.057,-0.458l0.057,-0.802l0.115,-0.458l0.172,-0.802l0,-0.344l0.057,-0.401l0.114,-0.687l0.115,-0.745l0.115,-1.203l0.114,-0.343l0.057,-0.401l0.115,-0.458l0.057,-0.344l0.172,0l0.344,0.859l0.515,1.489l0.172,0.459l0.172,0.515l0.057,0.458l0.287,0.63l0,0.401l0.286,0.63l0.172,0.401l0.057,0.344l0.115,0.745l0.343,0.744l0.23,0.688l0.229,0.802l0.286,0.802l0.115,0.343l0.114,0.401l0.172,0.745l0.229,0.458l0.229,0.687l0.459,1.604l0.515,1.375l0.172,0.745l0.229,0.343l0.687,0.115l1.261,-0.057l0.4,0.057l1.203,0l0.516,-0.057l1.776,0.057l1.432,0l1.317,-0.057l0.057,-0.516l-0.114,-0.286l-0.344,-0.974l-0.229,-0.63l-0.401,-0.687l-0.172,-0.631l-0.057,-0.458l-0.172,-0.286l-0.172,-0.401l0,-0.458l-0.172,-0.344l-0.057,-0.401l-0.057,-0.516l-0.458,-0.687l0,-0.344l-0.23,-0.744l-0.229,-0.401l0,-0.344l-0.057,-0.401l-0.458,-0.687l-0.115,-0.401l-0.229,-0.688l-0.286,-0.63l-0.058,-0.401l-0.229,-0.515l-0.057,-0.344l-0.172,-0.458l-0.057,-0.458l-0.229,-0.516l-0.287,-0.63l-0.229,-0.744l-0.114,-0.459l-0.459,-1.604l-0.171,-0.687l-0.287,-0.687l-0.114,-0.573l-0.287,-0.917l-0.114,-0.572l0.572,-1.146l1.032,-1.375l0.4,-0.63l0.287,-0.515l0.401,-0.516l0.63,-0.974l0.515,-0.687l0.401,-0.573l0.86,-1.26l0.343,-0.458l0.344,-0.516l0.573,-0.687l0.286,-0.401l0.344,-0.401l0.229,-0.573l0.458,-0.515l0.229,-0.458l0.344,-0.344l0.229,-0.344l0.458,-0.515l0.287,-0.573l0.229,-0.401l0.401,-0.573l0.229,-0.286l0.057,-0.344l0.287,-0.286l0.286,-0.401l0.516,-0.63l0.458,-0.573l0.172,-0.401l0.458,-0.688l-0.172,-0.401l-0.687,-0.171l-0.516,0.057l-1.145,-0.115l-0.802,0.115l-1.089,0l-0.286,0.057l-0.573,-0.057l-1.776,0l-1.031,-0.057l-0.572,0.171l-0.459,0.631l-0.171,0.458l-0.344,0.343l-0.63,0.86l-0.516,0.744l-0.63,0.86l-0.344,0.458l-0.114,0.401l-0.516,0.63l-0.572,0.859l-0.287,0.516l-0.458,0.515l-0.401,0.573l-0.458,0.573l-0.115,0.286l-0.286,0.573l-0.458,0.401l-0.344,0.458l-0.344,0.516l-0.63,0.744l-0.344,0.688l-0.572,0.572l-0.115,-0.401l0.172,-1.031l0.172,-0.687l0.286,-1.547l0.115,-0.343l0,-0.401l0.114,-0.401l0.058,-0.573l0.114,-0.515l0.115,-0.459l0.114,-1.145l0.058,-0.401l0.171,-0.859l0.172,-0.974l0.057,-0.802l0.115,-0.974l0.115,-0.573l-0.172,-0.401l-0.458,-0.229l-0.86,0l-0.859,-0.057l-0.401,0l-1.088,0.057l-0.802,-0.057l-1.432,0l-0.802,-0.057l-0.401,0.114l-0.515,0l-0.23,0.172l-0.171,0.516l-0.172,1.088l-0.115,0.687l0,0.745l-0.172,0.63l0,0.745l-0.229,0.744l-0.229,1.49l-0.057,0.458l-0.115,0.343l-0.057,0.802l0,0.344l-0.115,0.401l0,0.344l-0.114,0.401l-0.172,0.687l0.057,0.401l-0.114,0.802l-0.172,0.344l-0.057,0.744l-0.115,0.401l0,0.344l-0.172,0.344l-0.057,0.801l-0.057,0.631l-0.172,0.801l-0.172,0.917l-0.057,0.401l-0.058,0.458l-0.171,0.802l-0.23,1.146l-0.114,0.859l-0.057,0.401l-0.058,0.802l-0.229,0.859l-0.172,0.859l-0.114,0.458l-0.172,0.802l-0.229,1.604l-0.115,0.859l-0.172,0.802l-0.286,1.203l0,0.401l-0.229,0.745l0,0.343l-0.115,0.344l-0.057,0.802l-0.172,0.401l-0.114,1.031l0,0.286l-0.172,0.745l0,0.401l-0.057,0.458l0,0.401l-0.23,0.745l-0.057,0.344l-0.172,0.744l0.058,0.401l-0.172,0.401l0,0.401l-0.058,0.859l0.459,0.344Z" style="fill-rule:nonzero;stroke:#000;stroke-width:0.24px;"/><path d="M435.219,41.075l0.458,-0.057l0.917,-0.057l1.202,0l0.344,-0.058l0.745,0.058l0.916,-0.058l5.442,0l0.172,-0.63l0.114,-0.515l0.058,-0.974l0.171,-0.859l0.058,-0.401l0.114,-0.344l0.115,-0.401l0,-0.744l0.229,-1.261l0.057,-0.458l0.115,-0.63l0.057,-0.229l0.057,-0.458l-0.401,-0.172l-1.603,0.057l-1.261,-0.057l-0.802,-0.057l-3.379,0l-0.802,-0.115l-0.229,-0.229l0,-0.458l0.229,-1.49l0.172,-1.031l0.114,-0.401l0.058,-0.572l0.114,-0.516l0.172,-0.573l0.229,-1.604l0.172,-0.744l0.229,-0.63l0.516,0l0.744,-0.058l0.63,0l0.974,0.058l1.432,-0.058l0.516,0l0.859,-0.057l0.573,0l0.114,-0.114l0.115,-0.802l0.172,-0.917l0.114,-0.802l0.172,-0.458l0,-0.401l0.172,-0.859l0.114,-0.401l0.172,-0.802l0.115,-0.63l0,-0.458l0.114,-0.688l-0.343,-0.458l-0.459,-0.114l-1.489,0l-1.088,0.114l-2.005,-0.057l-1.031,0l0.115,-1.031l0.171,-0.573l-0.057,-0.458l0.115,-0.401l0.172,-0.802l0.114,-0.802l0.172,-1.088l0,-0.459l0.172,-0.343l0,-0.802l0.057,-0.401l0.172,-0.688l1.375,-0.057l3.723,0l0.687,-0.057l2.406,0l0.573,-0.057l0.172,-0.745l0.057,-0.344l0.229,-0.802l0,-0.458l0.172,-0.859l0.057,-0.344l0.057,-0.401l0.172,-0.401l0,-0.343l0.115,-1.432l0,-0.344l0.172,-0.63l-0.287,-0.401l-0.515,-0.057l-0.573,-0.058l-0.516,0.058l-1.26,0l-1.661,0.057l-0.458,-0.057l-1.318,-0.058l-4.296,0.058l-1.26,0.057l-0.573,0l-0.458,-0.057l-0.401,0l-0.687,0.057l-0.401,-0.057l-0.344,0.057l-0.973,0l-0.459,0.344l-0.057,0.343l-0.172,0.344l-0.172,0.687l0.115,0.401l-0.057,0.344l-0.058,0.745l-0.057,0.343l-0.115,0.344l-0.057,0.745l-0.114,0.401l0.057,0.343l-0.172,0.401l0,0.401l-0.172,0.344l-0.114,0.802l-0.229,0.744l-0.058,0.401l0.058,0.344l-0.058,0.401l-0.114,0.458l-0.229,0.344l-0.058,1.203l-0.172,0.401l-0.057,1.604l-0.229,0.859l-0.172,0.802l0.058,0.343l-0.115,0.401l-0.172,0.459l-0.344,1.718l-0.229,0.344l0,0.401l-0.057,0.401l-0.057,0.458l-0.172,0.401l-0.115,0.859l-0.229,0.802l0,0.859l-0.229,1.203l-0.114,0.401l-0.172,0.859l-0.058,0.401l-0.171,0.401l-0.172,0.745l0.057,0.343l-0.229,0.688l0,0.286l-0.115,0.745l-0.114,0.458l0,0.401l-0.115,0.916l-0.229,0.459l-0.114,0.744l-0.058,0.802l-0.057,0.401l-0.115,0.458l0,0.401l-0.114,0.401l0,0.516l-0.172,0.458l-0.057,0.917l-0.229,0.859l-0.115,0.916l-0.114,0.86l-0.115,0.515l-0.172,0.516l0.172,0.515l0.515,0.115l3.036,0l0.401,0.057l1.49,0l1.088,0.057Z" style="fill-rule:nonzero;stroke:#000;stroke-width:0.24px;"/></g></svg>