<svg xmlns="http://www.w3.org/2000/svg" xmlns:xlink="http://www.w3.org/1999/xlink" width="100%" height="100%" version="1.1" viewBox="0 0 63 63" xml:space="preserve" style="fill-rule:evenodd;clip-rule:evenodd;stroke-linejoin:round;stroke-miterlimit:2"><g><path d="M14.876,29.783c-2.727,0 -5.455,0.001 -8.182,0c-3.349,0 -6.084,-2.335 -6.614,-5.646c-0.566,-3.527 1.947,-6.977 5.47,-7.493c0.499,-0.073 1.009,-0.113 1.513,-0.114c5.286,-0.008 10.572,-0.008 15.858,-0.004c2.021,0.002 3.76,0.694 5.136,2.196c0.925,1.011 1.471,2.209 1.661,3.571c0.445,3.204 -1.566,6.282 -4.662,7.201c-0.583,0.173 -1.21,0.271 -1.818,0.277c-2.787,0.029 -5.574,0.012 -8.362,0.012" style="fill:#ab343b;fill-rule:nonzero"/><path d="M48.004,46.385c-2.659,0 -5.317,0.004 -7.975,-0.002c-1.222,-0.002 -2.398,-0.225 -3.469,-0.845c-1.943,-1.126 -3.085,-2.799 -3.369,-5.035c-0.419,-3.295 1.825,-6.491 5.17,-7.203c0.435,-0.093 0.886,-0.153 1.33,-0.154c5.555,-0.01 11.11,-0.009 16.666,-0.006c3.188,0.002 6.01,2.459 6.462,5.616c0.532,3.707 -1.982,7.055 -5.68,7.555c-0.383,0.051 -0.774,0.07 -1.161,0.071c-2.658,0.006 -5.316,0.003 -7.974,0.003" style="fill:#ab343b;fill-rule:nonzero"/><path d="M16.554,48.008c0,-2.698 -0.005,-5.397 0.001,-8.095c0.004,-2.247 0.879,-4.08 2.672,-5.443c3.868,-2.942 9.599,-0.676 10.418,4.114c0.073,0.43 0.113,0.871 0.113,1.306c0.008,5.487 0.009,10.973 0.003,16.46c-0.002,3.188 -2.482,6.001 -5.58,6.472c-3.924,0.598 -7.656,-2.428 -7.63,-6.659c0.016,-2.718 0.003,-5.437 0.003,-8.155" style="fill:#ab343b;fill-rule:nonzero"/><path d="M33.146,14.897c0,-2.697 -0.02,-5.395 0.005,-8.093c0.026,-2.777 1.267,-4.862 3.754,-6.112c3.753,-1.887 8.401,0.382 9.27,4.491c0.108,0.512 0.164,1.045 0.165,1.568c0.011,5.425 -0.008,10.851 0.013,16.276c0.011,2.973 -1.855,5.494 -4.51,6.383c-2.748,0.92 -5.703,-0.034 -7.426,-2.391c-0.87,-1.19 -1.267,-2.535 -1.27,-3.999c-0.005,-2.707 -0.001,-5.415 -0.001,-8.123" style="fill:#ab343b;fill-rule:nonzero"/><path d="M29.779,9.581c0,1.095 -0.009,2.19 0.006,3.285c0.003,0.293 -0.1,0.372 -0.381,0.371c-2.18,-0.009 -4.361,0.028 -6.541,-0.016c-1.589,-0.032 -2.983,-0.64 -4.157,-1.716c-1.156,-1.06 -1.864,-2.37 -2.09,-3.925c-0.281,-1.939 0.223,-3.673 1.459,-5.18c0.973,-1.186 2.226,-1.947 3.734,-2.252c2.07,-0.418 3.934,0.05 5.558,1.391c1.637,1.351 2.41,3.12 2.412,5.234c0.001,0.936 0,1.872 0,2.808" style="fill:#ab343b;fill-rule:nonzero"/><path d="M36.794,49.687c1.006,0 2.011,0 3.016,0.001c3.268,0.002 6.135,2.563 6.504,5.809c0.395,3.465 -1.871,6.585 -5.295,7.291c-3.571,0.736 -7.164,-1.733 -7.767,-5.347c-0.071,-0.43 -0.11,-0.869 -0.113,-1.305c-0.011,-2.01 -0.005,-4.021 -0.004,-6.032c0,-0.415 0.001,-0.416 0.404,-0.416c1.085,-0.001 2.17,-0.001 3.255,-0.001" style="fill:#ab343b;fill-rule:nonzero"/><path d="M9.603,33.151c1.105,0 2.21,0.006 3.315,-0.004c0.23,-0.002 0.308,0.061 0.307,0.302c-0.008,2.16 0.037,4.321 -0.014,6.48c-0.084,3.528 -2.909,6.245 -6.281,6.421c-3.315,0.174 -6.359,-2.302 -6.831,-5.592c-0.582,-4.068 2.49,-7.605 6.608,-7.607c0.965,0 1.931,0 2.896,0" style="fill:#ab343b;fill-rule:nonzero"/><path d="M53.369,29.767c-1.105,0 -2.21,-0.009 -3.315,0.006c-0.294,0.004 -0.368,-0.095 -0.366,-0.376c0.01,-2.091 0.002,-4.181 0.006,-6.272c0.006,-3.912 3.534,-7.003 7.417,-6.501c2.945,0.38 5.267,2.655 5.696,5.58c0.585,3.986 -2.471,7.521 -6.541,7.561c-0.965,0.01 -1.931,0.002 -2.897,0.002" style="fill:#ab343b;fill-rule:nonzero"/></g></svg>