<?xml version="1.0" encoding="UTF-8" standalone="no"?><!DOCTYPE svg PUBLIC "-//W3C//DTD SVG 1.1//EN" "http://www.w3.org/Graphics/SVG/1.1/DTD/svg11.dtd"><svg width="100%" height="100%" viewBox="0 0 366 47" version="1.1" xmlns="http://www.w3.org/2000/svg" xmlns:xlink="http://www.w3.org/1999/xlink" xml:space="preserve" xmlns:serif="http://www.serif.com/" style="fill-rule:evenodd;clip-rule:evenodd;stroke-linejoin:round;stroke-miterlimit:2;"><g id="Why-BoilerMake-" serif:id="Why BoilerMake?"><g transform="matrix(0.654643,6.16298e-32,3.69779e-32,0.654643,-4725.21,-424.764)"><g transform="matrix(96,0,0,96,7209.54,716.241)"><path d="M0.463,0.002l0.015,-0.003l0.007,-0.025l0.014,-0.024l0.003,-0.013l0.001,-0.006l0.005,-0.014l0.003,-0.008l0.004,-0.013l0.006,-0.012l0.002,-0.007l0.002,-0.013l0.004,-0.007l0.002,-0.006l0.005,-0.014l0.002,-0.006l0.008,-0.021l0.001,-0.007l0.004,-0.007l0.003,-0.014l0.008,-0.014l0.003,-0.014l0.008,-0.016l0.004,-0.012l0.003,-0.006l0.005,-0.013l0.006,-0.024l0.001,-0.006l0.002,-0.006l0.007,-0.009l0.003,-0.011l0.005,-0.014l0.007,-0.012l0.004,-0.011l0.004,-0.007l0.002,-0.006l0.003,-0.014l0.002,-0.007l0.003,-0.007l0.005,-0.013l0.004,-0.006l0.005,-0.016l0.002,-0.006l0.006,-0.013l0.002,-0.005l0.002,-0.009l0.008,-0.018l0.001,-0.007l0.005,-0.012l0.002,-0.007l0.007,-0.019l0.002,-0.007l0.008,-0.013l0.001,-0.006l0.003,-0.007l0.004,-0.013l0.003,-0.014l0.004,-0.012l0.01,-0.024l0.003,-0.006l0.004,-0.011l0.002,-0.006l0.002,-0.017l-0.006,-0.006l-0.01,0l-0.007,-0.001l-0.007,0.001l-0.014,-0.001l-0.021,0.001l-0.02,0l-0.031,-0.001l-0.007,0.002l-0.007,0l-0.012,0.005l-0.003,0.005l-0.006,0.013l-0.002,0.006l-0.001,0.007l-0.003,0.007l-0.002,0.007l-0.003,0.006l-0.005,0.014l-0.005,0.011l-0.003,0.011l-0.004,0.013l-0.007,0.013l-0.005,0.026l-0.003,0.012l-0.001,0.007l-0.007,0.012l-0.002,0.007l-0.002,0.006l-0.001,0.007l-0.004,0.012l-0.002,0.008l-0.004,0.013l-0.003,0.006l-0.003,0.007l-0.002,0.006l-0.002,0.007l-0.003,0.006l-0.003,0.012l-0.009,0.023l-0.002,0.006l-0.001,0.007l-0.008,0.028l-0.004,0.013l-0.005,0.012l-0.003,0.011l-0.005,0l0,-0.017l-0.002,-0.014l0.001,-0.036l-0.002,-0.02l0.001,-0.008l0.001,-0.007l-0.001,-0.008l0.002,-0.006l-0.001,-0.008l0,-0.02l-0.001,-0.011l0.002,-0.013l0,-0.007l-0.001,-0.037l0.001,-0.006l-0.001,-0.014l0,-0.006l0.001,-0.021l-0.001,-0.016l0,-0.03l-0.001,-0.025l-0.005,-0.007l-0.007,0l-0.007,-0.001l-0.008,0l-0.01,0.001l-0.012,-0.001l-0.032,0l-0.01,0.005l-0.007,0.013l-0.003,0.006l-0.006,0.018l-0.002,0.008l-0.006,0.013l-0.007,0.02l-0.002,0.007l-0.01,0.025l-0.006,0.014l-0.003,0.011l-0.003,0.006l-0.005,0.012l-0.003,0.005l-0.004,0.012l-0.009,0.018l-0.002,0.007l-0.007,0.018l-0.002,0.012l-0.014,0.024l-0.001,0.006l-0.007,0.013l-0.003,0.012l-0.006,0.013l-0.002,0.007l-0.006,0.013l-0.003,0.006l-0.006,0.011l-0.004,0l-0.001,-0.01l0.002,-0.013l0,-0.014l0.001,-0.008l-0.001,-0.007l0.002,-0.014l0.001,-0.022l-0.001,-0.006l0.001,-0.007l0,-0.006l0.002,-0.007l0,-0.006l0.001,-0.007l0.001,-0.014l0.001,-0.006l0.001,-0.007l-0.002,-0.014l0,-0.013l0.003,-0.014l0.001,-0.007l0,-0.018l0.001,-0.023l0.002,-0.006l0.001,-0.037l-0.001,-0.007l0,-0.006l0.004,-0.031l-0.001,-0.007l0,-0.009l-0.002,-0.017l-0.011,-0.006l-0.007,0l-0.011,0.001l-0.013,-0.002l-0.02,0l-0.008,0.001l-0.005,0l-0.01,-0.001l-0.011,0.001l-0.026,0l-0.012,0.003l-0.002,0.014l0,0.009l-0.001,0.006l0,0.007l0.001,0.012l-0.001,0.007l0,0.006l-0.002,0.02l0,0.007l0.001,0.021l-0.001,0.015l0,0.012l-0.001,0.01l-0.001,0.007l-0.002,0.019l0.001,0.013l-0.001,0.014l-0.001,0.029l0.001,0.007l0.001,0.015l-0.002,0.007l0.001,0.008l-0.001,0.014l0.001,0.006l-0.001,0.013l0.001,0.007l-0.001,0.012l-0.001,0.007l0,0.017l0.001,0.007l-0.002,0.008l0,0.007l-0.002,0.013l-0.001,0.009l0.002,0.013l-0.002,0.018l0,0.008l-0.001,0.014l0,0.055l-0.001,0.014l-0.001,0.006l0,0.02l0.001,0.014l-0.001,0.007l0.001,0.007l-0.001,0.014l-0.001,0.006l0,0.01l-0.001,0.011l-0.001,0.007l0.001,0.009l-0.001,0.007l0.001,0.006l-0.001,0.012l0.001,0.007l0,0.009l-0.001,0.01l0.002,0.007l-0.001,0.008l0.006,0.009l0.007,0.001l0.01,0l0.007,-0.001l0.01,0l0.006,-0.001l0.01,0.004l0.012,-0.003l0.023,0.001l0.005,-0.002l0.009,0.003l0.006,0l0.014,-0.005l0.002,-0.005l0.003,-0.006l0.007,-0.011l0.002,-0.011l0.003,-0.009l0.004,-0.01l0.003,-0.007l0.003,-0.014l0.004,-0.006l0.003,-0.007l0.003,-0.012l0.002,-0.006l0.006,-0.012l0.006,-0.013l0.003,-0.011l0.001,-0.006l0.006,-0.012l0.001,-0.007l0.018,-0.04l0.004,-0.007l0.024,-0.058l0.006,-0.013l0.007,-0.017l0.005,-0.018l0.004,-0.006l0.002,-0.007l0.006,-0.01l0.005,0l0.002,0.018l-0.001,0.018l0.002,0.035l-0.004,0.025l0,0.007l0.002,0.018l0.002,0.009l0.002,0.013l-0.002,0.015l-0.002,0.011l0.003,0.012l-0.001,0.014l0.001,0.007l-0.002,0.006l0.003,0.007l0,0.02l0.001,0.007l0.001,0.014l-0.001,0.006l-0.001,0.013l0.003,0.008l0.002,0.016l0.002,0.014l-0.001,0.006l0.001,0.014l0.003,0.011l0.005,0.004l0.071,0l0.015,0.001Z" style="fill:#fff;fill-rule:nonzero;"/></g><g transform="matrix(80.0436,0,0,80.0436,7272.13,716.241)"><path d="M0.34,0.002l0.008,-0.001l0.02,0l0.013,-0.001l0.006,-0.001l0.015,0l0.012,-0.003l0.004,-0.006l0.002,-0.007l0,-0.008l0.002,-0.007l0.001,-0.008l0.003,-0.005l0.002,-0.012l0.001,-0.011l0.002,-0.007l0.002,-0.013l0.001,-0.007l0.003,-0.014l0.001,-0.016l0.001,-0.014l0.002,-0.006l0.003,-0.011l0.003,-0.014l0.001,-0.007l0,-0.008l0.003,-0.014l0.001,-0.007l0.002,-0.006l0.002,-0.007l-0.001,-0.006l0.006,-0.021l-0.001,-0.006l0.002,-0.007l0.003,-0.014l0.002,-0.011l0,-0.006l0.004,-0.018l0.001,-0.007l0.005,-0.013l0.001,-0.007l0,-0.013l0.001,-0.007l0.003,-0.006l-0.002,-0.007l0,-0.008l0.004,-0.006l0.001,-0.007l0.003,-0.014l0.001,-0.006l0.001,-0.015l0.005,-0.014l0.001,-0.015l0.002,-0.016l0.002,-0.013l0.001,-0.006l0.005,-0.012l0.001,-0.006l0.002,-0.013l0.001,-0.008l0.002,-0.007l0.001,-0.007l0.003,-0.013l0.001,-0.007l0.002,-0.013l0,-0.007l0.001,-0.013l0.002,-0.008l0.002,-0.007l0.001,-0.007l0,-0.008l0.001,-0.014l0.004,-0.012l0,-0.007l0.001,-0.006l-0.001,-0.004l0.004,-0.006l-0.001,-0.007l0.001,-0.006l-0.007,-0.009l-0.007,-0.003l-0.016,-0.002l-0.028,0l-0.02,-0.001l-0.036,0l-0.009,0.001l-0.006,0.001l-0.008,0.009l-0.001,0.006l0.001,0.007l-0.002,0.007l-0.004,0.009l-0.001,0.006l-0.002,0.013l-0.002,0.006l-0.003,0.013l0,0.008l-0.004,0.014l-0.001,0.007l0.001,0.008l0,0.012l-0.004,0.009l-0.001,0.013l-0.003,0.013l0,0.007l-0.002,0.006l-0.001,0.007l-0.001,0.008l-0.001,0.007l-0.001,0.006l-0.005,0.013l0.002,0.006l-0.005,0.015l-0.001,0.007l0,0.007l-0.004,0.009l-0.002,0.011l-0.001,0.005l-0.021,-0.001l-0.008,0.001l-0.012,-0.001l-0.008,0.001l-0.029,-0.001l-0.008,0l-0.007,-0.001l0.002,-0.008l0.001,-0.006l0.002,-0.008l-0.001,-0.006l0.002,-0.007l0.003,-0.013l-0.001,-0.007l0.003,-0.006l0.001,-0.007l0.002,-0.008l0.002,-0.005l0,-0.006l0.001,-0.012l0.002,-0.005l0.001,-0.013l0.002,-0.008l0.002,-0.007l0,-0.016l0.003,-0.007l0.001,-0.012l0.002,-0.014l0.004,-0.019l0.001,-0.009l0.003,-0.009l0.001,-0.014l0.001,-0.006l0.003,-0.012l-0.001,-0.007l0,-0.006l-0.002,-0.009l-0.01,-0.002l-0.012,-0.002l-0.01,0.003l-0.022,0l-0.014,-0.001l-0.041,0.001l-0.025,0l-0.009,0.005l-0.001,0.011l-0.001,0.012l-0.003,0.013l-0.002,0.007l0.001,0.008l-0.003,0.007l-0.001,0.007l-0.002,0.007l0.001,0.014l-0.007,0.013l0,0.021l-0.003,0.013l-0.001,0.006l-0.001,0.008l-0.004,0.008l0,0.014l-0.001,0.005l-0.003,0.021l-0.002,0.008l-0.002,0.013l-0.004,0.021l-0.001,0.014l-0.001,0.007l-0.006,0.014l-0.001,0.014l-0.002,0.014l-0.001,0.006l-0.005,0.029l-0.004,0.014l0,0.008l-0.003,0.008l-0.003,0.007l-0.002,0.015l0,0.007l-0.002,0.012l-0.003,0.01l-0.001,0.013l-0.004,0.014l0.001,0.007l-0.002,0.008l-0.001,0.006l-0.002,0.006l-0.005,0.035l-0.002,0.008l-0.003,0.014l0,0.008l-0.001,0.007l-0.004,0.009l-0.004,0.007l0.001,0.014l-0.004,0.014l0.001,0.008l-0.002,0.007l-0.006,0.011l0.002,0.007l-0.002,0.006l0,0.007l-0.002,0.009l-0.001,0.01l-0.005,0.013l-0.004,0.009l0,0.008l0.004,0.011l0.02,0.002l0.032,0l0.012,0.002l0.007,-0.002l0.007,-0.001l0.007,0.003l0.008,0l0.015,-0.002l0.012,-0.001l0.009,-0.001l0.008,-0.004l0.005,-0.01l0.002,-0.015l0.001,-0.007l0.002,-0.008l0.002,-0.014l0,-0.007l0.003,-0.014l0.001,-0.008l0.006,-0.028l0.002,-0.015l0.004,-0.013l0.001,-0.005l0.005,-0.012l-0.001,-0.006l0.006,-0.022l0.005,-0.023l0.002,-0.007l0,-0.017l0.004,-0.007l0.002,-0.013l0.004,-0.014l0.001,-0.008l0.001,-0.005l0.017,0.001l0.015,0.003l0.032,-0.003l0.009,0.002l0.007,0l0.009,-0.001l-0.002,0.012l0,0.007l-0.002,0.014l-0.002,0.007l-0.003,0.014l0,0.012l-0.002,0.01l-0.004,0.011l-0.006,0.03l-0.002,0.019l-0.003,0.015l-0.001,0.014l-0.002,0.005l-0.001,0.013l-0.001,0.007l0,0.007l-0.001,0.007l-0.004,0.021l0,0.014l-0.004,0.007l-0.002,0.009l-0.001,0.009l-0.001,0.008l0.006,0.009l0.007,0.001l0.007,0l0.011,0.001l0.027,0l0.008,0.002Z" style="fill:#fff;fill-rule:nonzero;"/></g><g transform="matrix(80.0436,0,0,80.0436,7312.4,716.241)"><path d="M0.138,0l0.021,0l0.006,-0.001l0.015,0.001l0.009,0l0.006,-0.001l0.008,0.001l0.036,0l0.005,-0.021l0.003,-0.018l0.003,-0.014l0.004,-0.015l0.002,-0.007l0.003,-0.015l0.002,-0.014l0,-0.006l0.002,-0.007l0.003,-0.01l0.001,-0.007l0.004,-0.014l0.004,-0.015l0.003,-0.014l0.003,-0.013l-0.001,-0.006l0.002,-0.006l0.002,-0.012l0.002,-0.01l0.003,-0.011l0.004,-0.013l0,-0.007l0.002,-0.01l0.005,-0.005l0.003,-0.005l0.002,-0.008l0.004,-0.005l0.004,-0.012l0.007,-0.012l0.003,-0.006l0.003,-0.005l0.006,-0.006l0.006,-0.013l0.008,-0.012l0.008,-0.018l0.006,-0.01l0.006,-0.013l0.004,-0.007l0.004,-0.006l0.01,-0.013l0.001,-0.006l0.005,-0.006l0.002,-0.005l0.007,-0.012l0.002,-0.006l0.003,-0.007l0.005,-0.013l0.01,-0.017l0.002,-0.006l0.004,-0.006l0.001,-0.006l0.008,-0.012l0.006,-0.014l0.006,-0.006l0.009,-0.019l0.002,-0.006l0.004,-0.006l0.002,-0.007l0.008,-0.011l0.004,-0.012l0.004,-0.005l0.006,-0.012l0.001,-0.007l0.004,-0.006l0.006,-0.012l0.002,-0.006l0.008,-0.011l0.002,-0.005l0.003,-0.013l0,-0.013l-0.011,-0.006l-0.02,0.001l-0.011,-0.002l-0.026,0l-0.016,0.001l-0.015,-0.002l-0.033,0.002l-0.007,0.004l-0.01,0.013l-0.006,0.01l-0.003,0.006l-0.005,0.013l-0.006,0.014l-0.009,0.02l-0.002,0.007l-0.002,0.006l-0.008,0.013l-0.001,0.007l-0.004,0.006l-0.006,0.013l-0.01,0.024l-0.006,0.011l-0.005,0.012l-0.008,0.012l-0.001,0.006l-0.004,0.007l-0.006,0.012l-0.002,0.005l-0.002,0.006l-0.003,0.005l-0.004,-0.001l-0.001,-0.015l-0.004,-0.026l-0.002,-0.012l0,-0.009l-0.003,-0.01l-0.001,-0.013l0.001,-0.01l-0.004,-0.01l-0.002,-0.007l-0.003,-0.014l0.001,-0.006l-0.002,-0.028l-0.004,-0.008l0,-0.01l-0.003,-0.008l0,-0.023l-0.003,-0.01l-0.011,-0.012l-0.015,0l-0.027,-0.001l-0.011,0.002l-0.007,-0.001l-0.01,0.001l-0.014,-0.001l-0.026,0.001l-0.008,0.001l-0.005,0.002l-0.003,0.008l0,0.01l0.001,0.013l0.002,0.014l0.001,0.006l0.001,0.013l0.004,0.03l0.004,0.014l0,0.007l0.002,0.015l0.003,0.007l-0.001,0.012l0.002,0.008l0.002,0.025l0.001,0.008l0.005,0.015l0.003,0.016l0,0.007l0.002,0.013l0.004,0.013l0.003,0.012l0.001,0.007l0.003,0.018l0.003,0.015l-0.001,0.006l0.002,0.014l0.003,0.007l0,0.008l0.003,0.015l0.002,0.015l0.002,0.007l-0.001,0.008l0.001,0.009l0.003,0.01l0.001,0.012l-0.005,0.017l-0.001,0.012l-0.004,0.011l0,0.007l-0.001,0.006l-0.004,0.013l-0.003,0.016l0,0.01l-0.003,0.008l-0.003,0.014l-0.002,0.015l-0.003,0.007l-0.002,0.013l-0.001,0.011l-0.005,0.022l-0.003,0.009l0,0.011l-0.002,0.006l-0.001,0.007l-0.001,0.006l-0.002,0.007l0.001,0.006l-0.002,0.013l-0.002,0.012l0.001,0.013l0.011,0.006l0.015,0l0.007,0.001Z" style="fill:#fff;fill-rule:nonzero;"/></g><g transform="matrix(96,0,0,96,7368,716.241)"><path d="M0.156,0.001l0.015,-0.001l0.003,0l0.008,-0.001l0.014,0l0.008,0.001l0.013,0.001l0.027,-0.001l0.007,-0.001l0.007,0.001l0.015,0.001l0.015,-0.003l0.006,0.001l0.013,-0.003l0.009,-0.001l0.006,-0.001l0.008,-0.003l0.011,-0.003l0.008,-0.004l0.007,-0.003l0.005,-0.003l0.005,-0.004l0.007,-0.004l0.005,-0.005l0.006,-0.003l0.008,-0.005l0.004,-0.005l0.007,-0.006l0.005,-0.005l0.006,-0.011l0.009,-0.012l0.016,-0.032l0.002,-0.007l0.002,-0.006l0.002,-0.007l0.002,-0.006l0.003,-0.014l0.001,-0.007l0.003,-0.013l0.003,-0.015l0.002,-0.015l0.001,-0.007l0,-0.013l0.001,-0.009l-0.002,-0.01l0.001,-0.013l-0.004,-0.013l-0.002,-0.013l-0.003,-0.006l-0.002,-0.01l-0.005,-0.011l-0.004,-0.007l-0.006,-0.01l-0.006,-0.006l-0.006,-0.007l-0.012,-0.008l-0.009,-0.004l-0.011,-0.006l-0.01,-0.004l0,-0.006l0.009,-0.004l0.012,-0.005l0.012,-0.007l0.007,-0.004l0.005,-0.004l0.005,-0.006l0.005,-0.004l0.013,-0.013l0.008,-0.012l0.007,-0.01l0.007,-0.011l0.004,-0.009l0.003,-0.006l0.002,-0.007l0.002,-0.006l0.001,-0.007l0.001,-0.003l0.002,-0.007l-0.001,-0.006l0.004,-0.013l0.001,-0.007l0.002,-0.013l0,-0.006l0.002,-0.007l0.001,-0.006l0,-0.007l0.001,-0.006l0.001,-0.015l-0.002,-0.012l-0.002,-0.008l0,-0.007l-0.001,-0.008l-0.006,-0.014l-0.004,-0.012l-0.003,-0.005l-0.004,-0.006l-0.009,-0.008l-0.013,-0.014l-0.011,-0.009l-0.009,-0.004l-0.01,-0.005l-0.012,-0.003l-0.015,-0.004l-0.01,-0.001l-0.011,-0.002l-0.03,0l-0.014,-0.001l-0.04,0.001l-0.049,-0.002l-0.021,0l-0.011,0.001l-0.006,-0.001l-0.025,0l-0.014,0.001l-0.009,0.008l-0.003,0.005l-0.002,0.009l-0.001,0.015l-0.001,0.007l0,0.008l-0.003,0.013l-0.006,0.024l-0.003,0.013l-0.003,0.015l-0.002,0.032l-0.004,0.014l-0.002,0.015l-0.001,0.006l-0.002,0.006l0,0.007l-0.001,0.006l-0.001,0.009l-0.003,0.008l-0.001,0.006l-0.002,0.007l-0.001,0.012l-0.001,0.009l-0.003,0.009l-0.002,0.007l-0.001,0.007l0,0.008l-0.002,0.014l-0.004,0.014l-0.001,0.008l-0.004,0.013l-0.002,0.005l-0.001,0.014l-0.004,0.014l-0.002,0.01l-0.001,0.004l0,0.006l-0.003,0.012l-0.001,0.007l-0.002,0.013l-0.003,0.013l0,0.007l-0.001,0.006l-0.002,0.008l-0.003,0.008l-0.003,0.014l0.001,0.01l-0.004,0.01l-0.002,0.016l-0.002,0.015l-0.001,0.006l-0.003,0.008l-0.001,0.008l-0.002,0.007l-0.001,0.007l-0.002,0.006l-0.001,0.014l-0.002,0.014l-0.004,0.013l-0.001,0.007l-0.002,0.012l-0.002,0.014l-0.002,0.009l-0.003,0.008l0,0.015l-0.002,0.01l-0.001,0.008l0.007,0.006l0.009,0.001l0.015,0.001l0.008,0l0.006,0.001l0.041,0l0.016,-0.001l0.008,0l0.016,0.002Zm0.113,-0.435l-0.012,-0.001l-0.013,0l0,-0.006l0.001,-0.01l0.002,-0.008l0.007,-0.049l0.002,-0.006l0.001,-0.007l0.003,-0.013l0,-0.007l0.003,-0.012l0.001,-0.007l0.001,-0.009l0.003,-0.009l0,-0.007l0.008,-0.002l0.025,0l0.018,0.002l0.009,0.002l0.006,0.001l0.008,0.007l0.003,0.005l0.006,0.012l0.001,0.012l0.001,0.007l0.001,0.011l-0.004,0.01l-0.001,0.008l-0.002,0.006l-0.003,0.012l-0.005,0.014l-0.008,0.01l-0.005,0.009l-0.012,0.01l-0.011,0.007l-0.008,0.005l-0.012,0.002l-0.014,0.001Zm-0.064,0.306l-0.016,-0.001l0.004,-0.013l0.001,-0.008l0.002,-0.008l0.002,-0.014l0,-0.007l0.003,-0.015l0.002,-0.007l0.002,-0.014l0.001,-0.008l0.002,-0.006l0,-0.007l0.002,-0.007l0.002,-0.015l0.002,-0.004l0.002,-0.008l0.002,-0.018l0.003,-0.009l0.014,0l0.011,0.001l0.014,0l0.008,0.002l0.01,0.002l0.019,0.007l0.011,0.01l0.009,0.024l-0.001,0.013l0.001,0.017l-0.002,0.018l-0.005,0.013l-0.001,0.008l-0.002,0.007l-0.005,0.011l-0.001,0.008l-0.006,0.009l-0.007,0.006l-0.009,0.007l-0.007,0.003l-0.007,0l-0.007,0.003l-0.019,0l-0.025,-0.003l-0.009,0.003Z" style="fill:#fff;fill-rule:nonzero;"/></g><g transform="matrix(80.0436,0,0,80.0436,7414.18,716.241)"><path d="M0.242,0.016l0.022,-0.003l0.011,-0.003l0.007,-0.001l0.014,-0.003l0.008,-0.002l0.007,-0.001l0.023,-0.009l0.004,-0.003l0.012,-0.008l0.012,-0.009l0.005,-0.006l0.006,-0.005l0.012,-0.012l0.002,-0.006l0.005,-0.006l0.004,-0.006l0.009,-0.013l0.005,-0.007l0.008,-0.018l0.007,-0.014l0.001,-0.01l0.005,-0.007l0.003,-0.011l0,-0.007l0.003,-0.012l0.005,-0.011l0.001,-0.011l0.003,-0.006l0.005,-0.012l-0.001,-0.006l0.01,-0.035l0.003,-0.006l0.002,-0.014l0.002,-0.007l0,-0.009l0.003,-0.018l0.003,-0.006l0.003,-0.013l0.001,-0.012l0.003,-0.013l0.002,-0.013l0.004,-0.013l-0.001,-0.012l0.005,-0.011l-0.001,-0.01l0.002,-0.016l0.002,-0.007l0.001,-0.016l0.001,-0.015l0.002,-0.014l0.001,-0.006l0,-0.01l-0.001,-0.007l0.001,-0.006l0.002,-0.007l0.001,-0.013l0,-0.007l-0.001,-0.013l0.001,-0.006l0.001,-0.013l0,-0.007l-0.001,-0.008l-0.002,-0.019l-0.003,-0.015l-0.002,-0.007l-0.002,-0.006l-0.003,-0.006l-0.006,-0.013l-0.003,-0.007l-0.005,-0.006l-0.011,-0.01l-0.011,-0.009l-0.005,-0.006l-0.008,-0.005l-0.018,-0.012l-0.015,-0.007l-0.006,-0.002l-0.008,-0.001l-0.008,-0.003l-0.016,-0.002l-0.011,-0.001l-0.006,-0.001l-0.018,-0.001l-0.012,0.001l-0.014,0.001l-0.018,0.003l-0.01,0.001l-0.015,0.004l-0.006,0.001l-0.015,0.004l-0.012,0.006l-0.012,0.007l-0.007,0.005l-0.008,0.003l-0.013,0.009l-0.014,0.015l-0.005,0.006l-0.007,0.005l-0.008,0.012l-0.008,0.013l-0.004,0.006l-0.001,0.007l-0.009,0.013l-0.004,0.007l-0.006,0.012l-0.005,0.014l-0.004,0.012l-0.003,0.007l-0.006,0.013l-0.002,0.013l-0.005,0.007l-0.004,0.025l-0.002,0.014l-0.001,0.006l-0.003,0.007l-0.002,0.012l0,0.014l-0.002,0.007l-0.006,0.01l0.001,0.006l-0.002,0.007l0,0.006l-0.002,0.007l-0.003,0.006l0,0.007l-0.003,0.012l0,0.013l-0.003,0.012l-0.003,0.018l-0.002,0.007l-0.002,0.013l0.002,0.005l-0.004,0.014l0,0.007l-0.002,0.014l0,0.008l-0.004,0.014l-0.002,0.022l0,0.007l0.001,0.008l-0.003,0.01l0,0.019l-0.002,0.007l0.004,0.026l0.001,0.014l0.002,0.006l0.001,0.007l0.002,0.006l0.002,0.005l0.001,0.006l0.003,0.007l0,0.006l0.008,0.013l0.005,0.007l0.003,0.006l0.005,0.005l0.003,0.005l0.014,0.016l0.018,0.015l0.014,0.009l0.007,0.004l0.015,0.004l0.008,0.001l0.023,0.007l0.009,0.001l0.007,0.001l0.013,-0.001l0.026,0.003Zm-0.008,-0.136l-0.006,-0.001l-0.008,-0.002l-0.008,-0.003l-0.005,-0.005l-0.006,-0.009l-0.002,-0.004l-0.003,-0.007l0,-0.028l-0.003,-0.007l0.004,-0.01l0.001,-0.012l-0.003,-0.007l0.003,-0.007l0,-0.007l0.003,-0.015l0,-0.008l0.002,-0.007l0,-0.008l0.002,-0.009l-0.001,-0.004l0.002,-0.007l-0.001,-0.008l0.005,-0.014l0.003,-0.007l-0.001,-0.008l0.001,-0.007l0,-0.007l0.002,-0.014l0.002,-0.007l0.004,-0.016l0.003,-0.008l0.002,-0.015l0.002,-0.007l0.001,-0.007l0.003,-0.016l0.003,-0.014l0.004,-0.014l0.001,-0.006l0.003,-0.014l0.001,-0.008l0,-0.002l0.006,-0.021l0.002,-0.008l0.002,-0.007l0.006,-0.013l0.004,-0.007l0.004,-0.012l0.007,-0.011l0.01,-0.009l0.016,-0.006l0.008,-0.002l0.019,-0.001l0.016,0.007l0.007,0.009l0.004,0.006l0.004,0.02l-0.002,0.014l-0.001,0.013l-0.002,0.018l0,0.013l-0.002,0.009l-0.003,0.014l-0.002,0.008l-0.001,0.013l0.001,0.007l-0.002,0.007l-0.002,0.008l-0.002,0.012l-0.004,0.015l0.001,0.017l-0.003,0.006l-0.002,0.019l-0.003,0.008l-0.003,0.009l-0.002,0.023l-0.003,0.015l-0.003,0.009l0.001,0.003l0,0.008l-0.003,0.006l-0.001,0.008l-0.003,0.013l-0.003,0.007l-0.001,0.014l-0.003,0.008l-0.002,0.014l-0.002,0.007l-0.003,0.015l0,0.008l-0.002,0.007l-0.006,0.014l-0.007,0.014l-0.014,0.01l-0.009,0.004l-0.014,0.004l-0.013,0Z" style="fill:#fff;fill-rule:nonzero;"/></g><g transform="matrix(80.0436,0,0,80.0436,7453,716.241)"><path d="M0.138,0.002l0.026,0l0.011,-0.003l0.003,-0.009l0.001,-0.008l0.003,-0.013l0.002,-0.014l0.003,-0.013l0.004,-0.024l0.003,-0.011l0,-0.007l0.002,-0.013l0.002,-0.014l0.003,-0.014l0,-0.008l0.004,-0.013l0.001,-0.008l0.003,-0.015l-0.001,-0.011l0.005,-0.01l0,-0.014l0.001,-0.005l0.002,-0.014l0,-0.008l0.004,-0.014l0,-0.008l0.004,-0.014l0.002,-0.012l0.002,-0.013l0.003,-0.013l0,-0.008l0.003,-0.007l0.004,-0.014l0.005,-0.03l0.003,-0.01l0.002,-0.013l0,-0.007l0.001,-0.008l0.001,-0.007l0,-0.009l0.003,-0.009l0.003,-0.014l0.001,-0.005l0.003,-0.013l0.003,-0.012l0.002,-0.013l0.001,-0.007l0.001,-0.012l0.001,-0.007l0.002,-0.012l0.002,-0.006l0.002,-0.011l0.005,-0.026l0.001,-0.006l0,-0.007l0.001,-0.006l0,-0.008l0.004,-0.009l0.002,-0.014l0.003,-0.005l0,-0.009l0.003,-0.004l-0.001,-0.006l0.001,-0.011l0.002,-0.003l0,-0.013l0.001,-0.006l-0.004,-0.01l-0.011,-0.003l-0.007,0.001l-0.053,0l-0.007,0.001l-0.014,0l-0.009,-0.001l-0.015,0.001l-0.007,0.001l-0.006,0.004l-0.007,0.003l-0.007,0.01l-0.001,0.007l-0.002,0.006l-0.002,0.015l-0.004,0.011l-0.002,0.011l-0.001,0.012l-0.002,0.006l-0.001,0.006l-0.003,0.013l-0.002,0.014l-0.002,0.005l-0.001,0.013l-0.001,0.008l0.001,0.007l-0.004,0.013l-0.001,0.007l-0.003,0.013l-0.001,0.006l-0.004,0.012l0.001,0.007l-0.001,0.006l-0.002,0.014l-0.003,0.007l0,0.014l-0.003,0.021l-0.005,0.014l-0.003,0.013l-0.002,0.012l0,0.013l-0.004,0.008l-0.002,0.014l0,0.007l-0.004,0.014l0,0.014l-0.002,0.014l-0.001,0.006l-0.001,0.007l-0.002,0.007l0,0.006l-0.002,0.015l-0.007,0.022l0.001,0.007l-0.002,0.007l-0.001,0.006l-0.002,0.007l0,0.007l-0.002,0.012l-0.002,0.009l-0.003,0.009l-0.002,0.009l-0.003,0.011l-0.003,0.018l0.001,0.006l-0.004,0.013l-0.001,0.007l-0.002,0.008l-0.001,0.007l-0.003,0.015l-0.001,0.008l-0.002,0.014l-0.002,0.007l-0.001,0.015l-0.005,0.014l0.001,0.015l0.008,0.007l0.008,0.002l0.008,-0.001l0.007,0.001l0.011,0.001l0.007,-0.001l0.008,0l0.014,0.002l0.029,0l0.007,0.001Z" style="fill:#fff;fill-rule:nonzero;"/></g><g transform="matrix(80.0436,0,0,80.0436,7474.05,716.241)"><path d="M0.044,0.001l0.013,-0.001l0.007,0.001l0.028,0l0.01,-0.001l0.082,0l0.02,-0.001l0.014,0.002l0.015,-0.001l0.018,0.001l0.022,-0.003l0.013,-0.002l0.019,0l0.008,-0.007l0.004,-0.016l0.002,-0.015l0.001,-0.006l0,-0.007l0.003,-0.007l0.005,-0.035l0.003,-0.008l-0.001,-0.007l0.002,-0.007l0.001,-0.015l-0.006,-0.003l-0.026,0l-0.022,0.001l-0.052,0l-0.009,-0.001l-0.01,0l-0.005,-0.005l0,-0.01l0.002,-0.01l0.001,-0.011l0.002,-0.007l0.001,-0.006l0.001,-0.007l0,-0.01l0.002,-0.009l0.001,-0.013l0.004,-0.013l0.001,-0.014l0.002,-0.008l0,-0.007l0.004,-0.016l0.001,-0.007l0.001,-0.008l0.003,-0.014l0.001,-0.015l0.004,-0.016l0.001,-0.007l0.003,-0.015l0.002,-0.007l0,-0.014l0.002,-0.007l0.003,-0.021l0,-0.008l0.002,-0.007l-0.001,-0.008l0.004,-0.007l0.003,-0.013l0.003,-0.014l0.002,-0.007l0.001,-0.007l0.002,-0.008l-0.002,-0.008l0.004,-0.007l0.002,-0.014l0.004,-0.014l0,-0.008l0.003,-0.014l0.008,-0.035l0.002,-0.01l0.002,-0.011l0.003,-0.021l0.002,-0.006l0,-0.007l0.006,-0.024l0,-0.007l0.001,-0.007l-0.003,-0.012l-0.02,-0.001l-0.039,0l-0.037,-0.001l-0.024,0l-0.016,0.002l-0.003,0.006l-0.005,0.02l-0.002,0.006l0,0.007l-0.001,0.012l-0.004,0.012l-0.003,0.016l-0.001,0.016l-0.004,0.007l0,0.006l-0.001,0.007l0,0.007l-0.004,0.006l-0.002,0.011l-0.001,0.013l-0.002,0.008l0.002,0.007l-0.002,0.008l-0.004,0.014l-0.003,0.008l0.001,0.008l-0.003,0.021l-0.002,0.012l0,0.007l-0.005,0.013l0,0.014l-0.001,0.008l-0.005,0.013l-0.002,0.012l-0.002,0.013l-0.006,0.028l0,0.005l-0.004,0.014l-0.004,0.03l-0.005,0.014l0,0.007l-0.004,0.014l0,0.006l-0.001,0.007l-0.001,0.006l0,0.014l-0.002,0.006l-0.002,0.014l-0.001,0.006l0,0.006l-0.003,0.007l-0.003,0.013l0.001,0.006l-0.003,0.007l-0.002,0.006l-0.005,0.014l0,0.012l-0.002,0.009l-0.002,0.013l-0.001,0.006l0,0.007l-0.004,0.013l0,0.015l-0.004,0.013l-0.001,0.006l-0.001,0.007l-0.003,0.01l-0.004,0.01l-0.001,0.006l0.002,0.013l0.004,0.006l0.008,0.005Z" style="fill:#fff;fill-rule:nonzero;"/></g><g transform="matrix(80.0436,0,0,80.0436,7502.22,716.241)"><path d="M0.147,0.001l0.008,-0.001l0.016,-0.001l0.021,0l0.006,-0.001l0.013,0.001l0.016,-0.001l0.095,0l0.003,-0.011l0.002,-0.009l0.001,-0.017l0.003,-0.015l0.001,-0.007l0.002,-0.006l0.002,-0.007l0,-0.013l0.004,-0.022l0.001,-0.008l0.002,-0.011l0.001,-0.004l0.001,-0.008l-0.007,-0.003l-0.028,0.001l-0.022,-0.001l-0.014,-0.001l-0.059,0l-0.014,-0.002l-0.004,-0.004l0,-0.008l0.004,-0.026l0.003,-0.018l0.002,-0.007l0.001,-0.01l0.002,-0.009l0.003,-0.01l0.004,-0.028l0.003,-0.013l0.004,-0.011l0.009,0l0.013,-0.001l0.011,0l0.017,0.001l0.025,-0.001l0.009,0l0.015,-0.001l0.01,0l0.002,-0.002l0.002,-0.014l0.003,-0.016l0.002,-0.014l0.003,-0.008l0,-0.007l0.003,-0.015l0.002,-0.007l0.003,-0.014l0.002,-0.011l0,-0.008l0.002,-0.012l-0.006,-0.008l-0.008,-0.002l-0.026,0l-0.019,0.002l-0.035,-0.001l-0.018,0l0.002,-0.018l0.003,-0.01l-0.001,-0.008l0.002,-0.007l0.003,-0.014l0.002,-0.014l0.003,-0.019l0,-0.008l0.003,-0.006l0,-0.014l0.001,-0.007l0.003,-0.012l0.024,-0.001l0.065,0l0.012,-0.001l0.042,0l0.01,-0.001l0.003,-0.013l0.001,-0.006l0.004,-0.014l0,-0.008l0.003,-0.015l0.001,-0.006l0.001,-0.007l0.003,-0.007l0,-0.006l0.002,-0.025l0,-0.006l0.003,-0.011l-0.005,-0.007l-0.009,-0.001l-0.01,-0.001l-0.009,0.001l-0.022,0l-0.029,0.001l-0.008,-0.001l-0.023,-0.001l-0.075,0.001l-0.022,0.001l-0.01,0l-0.008,-0.001l-0.007,0l-0.012,0.001l-0.007,-0.001l-0.006,0.001l-0.017,0l-0.008,0.006l-0.001,0.006l-0.003,0.006l-0.003,0.012l0.002,0.007l-0.001,0.006l-0.001,0.013l-0.001,0.006l-0.002,0.006l-0.001,0.013l-0.002,0.007l0.001,0.006l-0.003,0.007l0,0.007l-0.003,0.006l-0.002,0.014l-0.004,0.013l-0.001,0.007l0.001,0.006l-0.001,0.007l-0.002,0.008l-0.004,0.006l-0.001,0.021l-0.003,0.007l-0.001,0.028l-0.004,0.015l-0.003,0.014l0.001,0.006l-0.002,0.007l-0.003,0.008l-0.006,0.03l-0.004,0.006l0,0.007l-0.001,0.007l-0.001,0.008l-0.003,0.007l-0.002,0.015l-0.004,0.014l0,0.015l-0.004,0.021l-0.002,0.007l-0.003,0.015l-0.001,0.007l-0.003,0.007l-0.003,0.013l0.001,0.006l-0.004,0.012l0,0.005l-0.002,0.013l-0.002,0.008l0,0.007l-0.002,0.016l-0.004,0.008l-0.002,0.013l-0.001,0.014l-0.001,0.007l-0.002,0.008l0,0.007l-0.002,0.007l0,0.009l-0.003,0.008l-0.001,0.016l-0.004,0.015l-0.002,0.016l-0.002,0.015l-0.002,0.009l-0.003,0.009l0.003,0.009l0.009,0.002l0.053,0l0.007,0.001l0.026,0l0.019,0.001Z" style="fill:#fff;fill-rule:nonzero;"/></g><g transform="matrix(80.0436,0,0,80.0436,7532.4,716.241)"><path d="M0.132,0.002l0.008,-0.001l0.015,-0.001l0.009,-0.001l0.01,0.001l0.003,-0.009l0.003,-0.007l0.001,-0.012l0.001,-0.007l0,-0.006l0.001,-0.007l0.001,-0.013l0,-0.006l0.002,-0.007l-0.001,-0.006l0.003,-0.014l0,-0.008l0.002,-0.006l0.001,-0.008l0.004,-0.021l0.002,-0.008l0,-0.021l0.004,-0.008l0.002,-0.014l0,-0.006l0.002,-0.014l0.005,-0.013l0,-0.017l0.003,-0.021l0.001,-0.008l0.003,-0.014l0.002,-0.006l0.001,-0.004l0.007,0.001l0.004,0.004l0.004,0.008l0.002,0.008l0.004,0.008l0.002,0.01l0.003,0.014l0.002,0.005l0.001,0.014l0.004,0.013l0.002,0.013l0.002,0.007l0.004,0.012l0.001,0.007l0.006,0.018l0,0.012l0.004,0.01l0.003,0.011l0.001,0.007l0.003,0.006l0,0.007l0.003,0.007l0.002,0.013l0.002,0.003l0.003,0.008l0,0.008l0.006,0.015l0.003,0.011l0.002,0.005l0.003,0.012l0.002,0.005l0.009,0.009l0.006,0.001l0.009,-0.001l0.008,0l0.011,-0.001l0.013,0l0.026,-0.003l0.021,-0.003l0.013,0l0.011,-0.002l0.005,-0.001l0.003,-0.013l-0.007,-0.019l-0.002,-0.009l-0.001,-0.007l-0.001,-0.012l-0.007,-0.017l-0.002,-0.014l-0.011,-0.036l-0.002,-0.013l-0.005,-0.015l0,-0.006l-0.004,-0.013l-0.002,-0.008l-0.003,-0.007l-0.002,-0.014l-0.002,-0.006l-0.003,-0.013l-0.003,-0.006l-0.002,-0.013l-0.001,-0.008l-0.004,-0.006l-0.002,-0.013l0,-0.009l-0.005,-0.015l-0.003,-0.008l0,-0.009l0.007,-0.001l0.014,-0.007l0.02,-0.013l0.014,-0.015l0.005,-0.005l0.011,-0.013l0.003,-0.006l0.008,-0.013l0.004,-0.009l0.003,-0.007l0.009,-0.013l0.005,-0.012l0.003,-0.007l0.002,-0.006l0.002,-0.007l0.004,-0.012l0.003,-0.01l0.002,-0.016l0.003,-0.016l0,-0.007l-0.001,-0.015l0.001,-0.007l0.003,-0.014l0,-0.008l-0.003,-0.019l0,-0.007l-0.002,-0.019l-0.003,-0.016l-0.007,-0.014l-0.007,-0.012l-0.004,-0.005l-0.005,-0.006l-0.004,-0.004l-0.012,-0.007l-0.005,-0.003l-0.006,-0.003l-0.009,-0.006l-0.007,-0.002l-0.009,-0.004l-0.011,-0.005l-0.008,-0.002l-0.016,0l-0.011,-0.002l-0.015,-0.001l-0.013,-0.002l-0.009,0l-0.015,-0.002l-0.008,-0.002l-0.01,0.001l-0.007,0.001l-0.043,0l-0.06,-0.001l-0.014,0l-0.01,0.002l-0.007,0.008l-0.004,0.005l0.001,0.011l-0.004,0.008l0,0.008l-0.001,0.007l-0.001,0.008l-0.004,0.028l-0.003,0.016l-0.003,0.012l-0.002,0.007l0,0.006l-0.001,0.013l0,0.006l-0.001,0.006l-0.003,0.014l-0.003,0.016l-0.003,0.014l-0.001,0.006l-0.001,0.014l-0.004,0.012l-0.001,0.006l0,0.007l-0.001,0.006l-0.002,0.013l-0.001,0.007l-0.001,0.006l0,0.007l-0.005,0.021l0,0.008l-0.002,0.014l-0.002,0.013l-0.001,0.006l-0.002,0.011l-0.002,0.007l0,0.006l-0.003,0.006l-0.002,0.007l-0.001,0.012l0.001,0.006l-0.002,0.006l-0.005,0.007l0,0.009l-0.001,0.008l-0.001,0.007l-0.004,0.014l0,0.008l-0.001,0.015l-0.002,0.01l0,0.009l-0.005,0.018l0,0.015l-0.004,0.008l0.001,0.008l-0.001,0.007l-0.002,0.008l-0.001,0.014l-0.003,0.008l0.001,0.007l-0.003,0.008l0,0.007l-0.003,0.014l-0.001,0.007l0,0.006l-0.003,0.007l0,0.007l-0.002,0.006l0,0.007l-0.001,0.011l-0.001,0.01l-0.003,0.01l0,0.009l0.002,0.006l0.009,0.002l0.031,0.002l0.013,0l0.036,0.001Zm0.13,-0.412l-0.017,-0.002l0.001,-0.008l-0.001,-0.007l0.001,-0.007l0.003,-0.016l0.002,-0.009l-0.001,-0.009l0.003,-0.009l0.002,-0.015l0,-0.007l0.003,-0.016l0.002,-0.008l0.001,-0.013l0.001,-0.015l0.002,-0.016l0.003,-0.007l0.003,-0.011l0.009,-0.003l0.024,0.001l0.022,0.003l0.009,0.005l0.007,0.007l0.005,0.009l0.003,0.021l0.001,0.022l-0.001,0.016l-0.003,0.008l0,0.008l-0.007,0.014l-0.001,0.006l-0.002,0.008l-0.005,0.013l-0.007,0.006l-0.004,0.006l-0.007,0.008l-0.007,0.004l-0.01,0.006l-0.006,0.004l-0.012,0.003l-0.016,0Z" style="fill:#fff;fill-rule:nonzero;"/></g><g transform="matrix(96,0,0,96,7570.02,716.241)"><path d="M0.116,0.002l0.007,-0.001l0.005,-0.001l0.03,0l0.012,-0.005l0.006,-0.011l0.001,-0.01l0.001,-0.006l0.003,-0.007l0.001,-0.013l0,-0.013l0.003,-0.012l0.001,-0.006l0.002,-0.014l0.002,-0.016l0.001,-0.009l0.001,-0.008l0.004,-0.012l0,-0.006l0.002,-0.014l0.001,-0.014l0,-0.007l0.002,-0.012l0.002,-0.014l0.002,-0.007l0.001,-0.006l0.002,-0.013l0.001,-0.007l0,-0.019l0.002,-0.006l0.001,-0.007l0.004,-0.037l0.004,-0.016l0,-0.012l0.005,-0.041l0.004,0l0.004,0.046l0.002,0.013l0.002,0.015l0.002,0.021l0.006,0.042l0.002,0.013l0.003,0.014l0.002,0.006l0.002,0.021l0.002,0.017l0.002,0.007l0.002,0.015l0.002,0.007l0.001,0.008l0.005,0.017l0.001,0.007l0.012,0.006l0.009,0.001l0.019,0.003l0.022,-0.002l0.009,0.002l0.006,0l0.011,-0.002l0.005,-0.01l0.007,-0.012l0.027,-0.059l0.022,-0.041l0.013,-0.03l0.023,-0.051l0.03,-0.059l0.003,0l-0.004,0.024l-0.002,0.007l-0.001,0.006l-0.003,0.014l-0.003,0.018l-0.008,0.039l-0.002,0.007l0,0.006l-0.001,0.007l-0.003,0.011l-0.001,0.007l-0.001,0.006l-0.001,0.012l-0.003,0.007l-0.002,0.013l0,0.014l-0.003,0.013l-0.004,0.012l-0.001,0.013l-0.004,0.013l-0.003,0.014l-0.002,0.015l-0.002,0.014l-0.002,0.008l-0.002,0.015l-0.001,0.007l-0.003,0.014l-0.001,0.006l0.001,0.007l0.002,0.011l0.007,0.005l0.007,0l0.005,0.001l0.014,-0.001l0.044,0l0.03,0.001l0.011,0l0.014,-0.004l0.003,-0.009l0.002,-0.013l0.003,-0.013l0.003,-0.014l0.001,-0.008l0.003,-0.013l0,-0.007l0.001,-0.007l0.001,-0.013l0.002,-0.006l0.001,-0.007l0.003,-0.013l0.001,-0.008l0.002,-0.014l0.002,-0.006l0.002,-0.014l0.001,-0.008l0.001,-0.007l0.003,-0.015l0.001,-0.007l0.005,-0.015l0.002,-0.013l0,-0.006l0.003,-0.014l0.002,-0.015l-0.003,-0.008l0.005,-0.007l0.003,-0.013l0.001,-0.006l0.001,-0.007l0.001,-0.006l-0.001,-0.007l0,-0.007l0.004,-0.007l0.001,-0.015l0.001,-0.011l0.003,-0.012l0.001,-0.007l0.001,-0.006l0.003,-0.012l0.002,-0.014l0.003,-0.013l0.002,-0.006l0.001,-0.007l0,-0.006l0.001,-0.009l0.004,-0.008l0.001,-0.016l0.002,-0.014l0.001,-0.006l0.005,-0.013l0.003,-0.006l0,-0.017l0.004,-0.007l-0.001,-0.006l0.001,-0.012l0.002,-0.006l0.003,-0.014l0,-0.008l0.005,-0.013l0.001,-0.007l0.002,-0.006l0,-0.014l0.001,-0.003l0.001,-0.007l0.001,-0.006l0.001,-0.007l0.001,-0.004l0.001,-0.014l0.002,-0.006l0.003,-0.013l-0.002,-0.007l-0.009,-0.006l-0.02,0.001l-0.034,-0.002l-0.016,0.001l-0.024,-0.001l-0.024,0.002l-0.005,0.01l-0.007,0.01l-0.005,0.012l-0.004,0.006l-0.001,0.006l-0.002,0.004l-0.003,0.005l-0.004,0.006l-0.006,0.012l-0.007,0.011l-0.008,0.014l-0.006,0.013l-0.014,0.028l-0.004,0.006l-0.02,0.04l-0.01,0.015l-0.001,0.006l-0.004,0.006l-0.009,0.013l-0.004,0.012l-0.006,0.006l-0.007,0.013l-0.004,0.01l-0.006,0.009l-0.007,0.015l0,0.006l-0.007,0.009l-0.006,0.01l-0.007,0.014l-0.003,0.007l-0.008,0.016l-0.004,0.006l-0.003,0.005l-0.013,0.025l-0.003,0l-0.004,-0.019l-0.002,-0.013l-0.002,-0.006l0,-0.007l-0.001,-0.007l0,-0.006l-0.004,-0.014l-0.004,-0.034l-0.003,-0.014l0,-0.007l-0.003,-0.014l-0.001,-0.013l0,-0.006l-0.001,-0.013l-0.003,-0.006l-0.001,-0.007l0,-0.007l-0.002,-0.014l-0.001,-0.006l-0.004,-0.021l0,-0.008l-0.002,-0.007l-0.001,-0.014l-0.002,-0.013l-0.003,-0.016l-0.001,-0.017l-0.003,-0.014l-0.001,-0.006l-0.002,-0.014l-0.002,-0.007l-0.003,-0.028l-0.006,-0.009l-0.013,0l-0.02,-0.001l-0.018,0.001l-0.017,0l-0.017,-0.001l-0.019,0.001l-0.014,0l-0.01,0.001l-0.006,0.012l0,0.007l-0.004,0.009l-0.001,0.011l-0.002,0.007l0.001,0.008l-0.003,0.013l-0.001,0.007l-0.003,0.011l-0.002,0.012l-0.001,0.013l0,0.006l-0.006,0.03l-0.001,0.006l0,0.007l-0.002,0.006l-0.002,0.007l-0.003,0.013l-0.001,0.008l-0.002,0.014l-0.001,0.006l-0.002,0.014l-0.002,0.006l-0.002,0.013l-0.001,0.013l-0.003,0.012l-0.003,0.007l-0.001,0.006l-0.002,0.013l-0.001,0.007l-0.002,0.006l0,0.007l-0.001,0.012l-0.002,0.012l-0.002,0.008l-0.003,0.009l0.001,0.006l-0.003,0.012l-0.001,0.006l0,0.009l-0.005,0.02l-0.002,0.014l0,0.008l-0.004,0.015l-0.001,0.016l-0.002,0.015l-0.002,0.006l-0.001,0.014l-0.001,0.006l-0.001,0.008l-0.002,0.008l-0.003,0.014l-0.001,0.014l-0.001,0.008l-0.003,0.007l0,0.007l-0.001,0.008l-0.003,0.014l-0.002,0.007l-0.002,0.012l-0.003,0.011l-0.001,0.013l-0.001,0.007l-0.003,0.009l0.002,0.009l-0.001,0.006l-0.001,0.015l0,0.007l0.005,0.006l0.004,0.003l0.014,0.001l0.027,0l0.027,0.002Z" style="fill:#fff;fill-rule:nonzero;"/></g><g transform="matrix(80.0436,0,0,80.0436,7632.04,716.241)"><path d="M0.081,0.002l0.008,-0.001l0.028,0.001l0.006,-0.004l0.004,-0.007l0.003,-0.005l0.003,-0.011l0.006,-0.015l0.01,-0.019l0.004,-0.012l0.003,-0.007l0.002,-0.007l0.007,-0.013l0.005,-0.011l0.027,0l0.044,0.001l0.016,0.002l0.022,0.001l0.001,0.008l0,0.047l-0.001,0.01l0.001,0.01l0.001,0.018l0.002,0.01l0.004,0.003l0.015,0l0.013,0.001l0.01,-0.001l0.007,-0.001l0.012,0.001l0.008,0l0.022,-0.001l0.014,0l0.008,0.001l0.007,-0.001c0.004,0 0.007,0.001 0.011,0c0.005,-0.003 0.004,-0.012 0.003,-0.016l0,-0.021l-0.001,-0.022l0,-0.009l-0.001,-0.008l0.001,-0.014l0,-0.015l-0.001,-0.007l-0.001,-0.013l0,-0.006l-0.002,-0.038l0.001,-0.007l-0.001,-0.014l0.001,-0.015l-0.001,-0.015l0,-0.007l-0.001,-0.046l0,-0.03l-0.001,-0.008l-0.001,-0.012l0,-0.039l-0.002,-0.011l-0.001,-0.016l0,-0.006l-0.001,-0.013l0.001,-0.006l-0.001,-0.014l0,-0.02l-0.002,-0.014l0,-0.022l0.001,-0.007l-0.001,-0.015l0,-0.014l-0.002,-0.02l-0.001,-0.013l0,-0.014l-0.001,-0.036l0,-0.018l-0.002,-0.006l0,-0.022l-0.003,-0.043l-0.007,-0.005l-0.005,-0.002l-0.016,0l-0.009,0.001l-0.007,-0.002l-0.009,0l-0.019,0.001l-0.016,0l-0.01,0.001l-0.019,-0.001l-0.01,0l-0.007,0.001l-0.004,0.011l-0.003,0.006l-0.003,0.007l-0.009,0.018l-0.007,0.013l-0.006,0.018l-0.002,0.005l-0.004,0.006l-0.006,0.011l-0.002,0.007l-0.002,0.006l-0.003,0.006l-0.002,0.007l-0.009,0.018l-0.003,0.007l-0.003,0.01l-0.006,0.009l-0.003,0.006l-0.005,0.013l-0.008,0.021l-0.004,0.006l-0.005,0.007l-0.003,0.014l-0.006,0.013l-0.002,0.005l-0.003,0.013l-0.005,0.007l-0.003,0.013l-0.003,0.006l-0.006,0.011l-0.005,0.017l-0.007,0.013l-0.003,0.008l-0.008,0.028l-0.003,0.006l-0.005,0.014l-0.003,0.006l-0.003,0.007l-0.001,0.006l-0.006,0.014l-0.002,0.007l-0.006,0.012l-0.005,0.008l-0.002,0.009l-0.002,0.007l-0.007,0.014l-0.003,0.007l-0.005,0.013l-0.003,0.006l-0.001,0.007l-0.002,0.006l-0.005,0.012l-0.005,0.007l-0.002,0.006l-0.008,0.018l-0.004,0.013l-0.011,0.024l-0.005,0.012l-0.006,0.012l-0.01,0.03l-0.008,0.013l-0.006,0.012l-0.001,0.006l-0.002,0.007l0.002,0.008l0.009,0.002l0.073,0.001l0.007,0.001l0.015,0.001Zm0.165,-0.241l-0.009,-0.001l-0.011,-0.001l-0.008,0l-0.007,-0.006l0.003,-0.007l0.002,-0.009l0.002,-0.007l0.005,-0.017l0.004,-0.007l0.005,-0.015l0.001,-0.007l0.006,-0.022l0.003,-0.009l0.003,-0.007l0.003,-0.009l0.004,-0.007l0.001,-0.007l0.004,-0.01l0.004,-0.008l0.005,-0.016l0.003,-0.01l0.005,-0.016l0.004,-0.013l0.008,-0.003l0.001,0.023l-0.001,0.036l-0.001,0.038l0.001,0.024l-0.002,0.008l0,0.017l-0.001,0.007l0,0.026l-0.001,0.008l0.001,0.008l-0.001,0.014l-0.006,0.005l-0.03,0Z" style="fill:#fff;fill-rule:nonzero;"/></g><g transform="matrix(80.0436,0,0,80.0436,7667.74,716.241)"><path d="M0.044,0l0.01,-0.001l0.009,0.001l0.019,0l0.007,-0.001l0.003,0.001l0.006,0l0.014,-0.001l0.012,0.001l0.009,-0.001l0.026,0l0.011,-0.004l0.005,-0.02l0,-0.012l0.004,-0.011l0.004,-0.014l0.001,-0.013l0.001,-0.007l0.002,-0.006l0.003,-0.012l0.003,-0.016l0.002,-0.021l0.002,-0.006l0.003,-0.007l0.001,-0.013l0.001,-0.008l0.001,-0.014l0.002,-0.008l0.003,-0.014l0,-0.006l0.001,-0.007l0.002,-0.012l0.002,-0.013l0.002,-0.021l0.002,-0.006l0.001,-0.007l0.002,-0.008l0.001,-0.006l0.003,0l0.006,0.015l0.009,0.026l0.003,0.008l0.003,0.009l0.001,0.008l0.005,0.011l0,0.007l0.008,0.018l0.003,0.019l0.006,0.013l0.004,0.012l0.004,0.014l0.005,0.014l0.004,0.013l0.003,0.013l0.004,0.008l0.004,0.012l0.008,0.028l0.009,0.024l0.003,0.013l0.004,0.006l0.012,0.002l0.022,-0.001l0.007,0.001l0.021,0l0.009,-0.001l0.031,0.001l0.025,0l0.023,-0.001l0.001,-0.009l-0.002,-0.005l-0.006,-0.017l-0.004,-0.011l-0.007,-0.012l-0.003,-0.011l-0.001,-0.008l-0.003,-0.005l-0.003,-0.007l0,-0.008l-0.003,-0.006l-0.001,-0.007l-0.001,-0.009l-0.008,-0.012l0,-0.006l-0.004,-0.013l-0.004,-0.007l0,-0.006l-0.001,-0.007l-0.008,-0.012l-0.002,-0.007l-0.004,-0.012l-0.005,-0.011l-0.001,-0.007l-0.004,-0.009l-0.001,-0.006l-0.003,-0.008l-0.001,-0.008l-0.004,-0.009l-0.005,-0.011l-0.004,-0.013l-0.002,-0.008l-0.008,-0.028l-0.003,-0.012l-0.005,-0.012l-0.002,-0.01l-0.005,-0.016l-0.002,-0.01l0.01,-0.02l0.018,-0.024l0.007,-0.011l0.005,-0.009l0.007,-0.009l0.011,-0.017l0.009,-0.012l0.007,-0.01l0.015,-0.022l0.006,-0.008l0.006,-0.009l0.01,-0.012l0.005,-0.007l0.006,-0.007l0.004,-0.01l0.008,-0.009l0.004,-0.008l0.006,-0.006l0.004,-0.006l0.008,-0.009l0.005,-0.01l0.004,-0.007l0.007,-0.01l0.004,-0.005l0.001,-0.006l0.005,-0.005l0.005,-0.007l0.009,-0.011l0.008,-0.01l0.003,-0.007l0.008,-0.012l-0.003,-0.007l-0.012,-0.003l-0.009,0.001l-0.02,-0.002l-0.014,0.002l-0.019,0l-0.005,0.001l-0.01,-0.001l-0.031,0l-0.018,-0.001l-0.01,0.003l-0.008,0.011l-0.003,0.008l-0.006,0.006l-0.011,0.015l-0.009,0.013l-0.011,0.015l-0.006,0.008l-0.002,0.007l-0.009,0.011l-0.01,0.015l-0.005,0.009l-0.008,0.009l-0.007,0.01l-0.008,0.01l-0.002,0.005l-0.005,0.01l-0.008,0.007l-0.006,0.008l-0.006,0.009l-0.011,0.013l-0.006,0.012l-0.01,0.01l-0.002,-0.007l0.003,-0.018l0.003,-0.012l0.005,-0.027l0.002,-0.006l0,-0.007l0.002,-0.007l0.001,-0.01l0.002,-0.009l0.002,-0.008l0.002,-0.02l0.001,-0.007l0.003,-0.015l0.003,-0.017l0.001,-0.014l0.002,-0.017l0.002,-0.01l-0.003,-0.007l-0.008,-0.004l-0.015,0l-0.015,-0.001l-0.007,0l-0.019,0.001l-0.014,-0.001l-0.025,0l-0.014,-0.001l-0.007,0.002l-0.009,0l-0.004,0.003l-0.003,0.009l-0.003,0.019l-0.002,0.012l0,0.013l-0.003,0.011l0,0.013l-0.004,0.013l-0.004,0.026l-0.001,0.008l-0.002,0.006l-0.001,0.014l0,0.006l-0.002,0.007l0,0.006l-0.002,0.007l-0.003,0.012l0.001,0.007l-0.002,0.014l-0.003,0.006l-0.001,0.013l-0.002,0.007l0,0.006l-0.003,0.006l-0.001,0.014l-0.001,0.011l-0.003,0.014l-0.003,0.016l-0.001,0.007l-0.001,0.008l-0.003,0.014l-0.004,0.02l-0.002,0.015l-0.001,0.007l-0.001,0.014l-0.004,0.015l-0.003,0.015l-0.002,0.008l-0.003,0.014l-0.004,0.028l-0.002,0.015l-0.003,0.014l-0.005,0.021l0,0.007l-0.004,0.013l0,0.006l-0.002,0.006l-0.001,0.014l-0.003,0.007l-0.002,0.018l0,0.005l-0.003,0.013l0,0.007l-0.001,0.008l0,0.007l-0.004,0.013l-0.001,0.006l-0.003,0.013l0.001,0.007l-0.003,0.007l0,0.007l-0.001,0.015l0.008,0.006Z" style="fill:#fff;fill-rule:nonzero;"/></g><g transform="matrix(80.0436,0,0,80.0436,7707.28,716.241)"><path d="M0.147,0.001l0.008,-0.001l0.016,-0.001l0.021,0l0.006,-0.001l0.013,0.001l0.016,-0.001l0.095,0l0.003,-0.011l0.002,-0.009l0.001,-0.017l0.003,-0.015l0.001,-0.007l0.002,-0.006l0.002,-0.007l0,-0.013l0.004,-0.022l0.001,-0.008l0.002,-0.011l0.001,-0.004l0.001,-0.008l-0.007,-0.003l-0.028,0.001l-0.022,-0.001l-0.014,-0.001l-0.059,0l-0.014,-0.002l-0.004,-0.004l0,-0.008l0.004,-0.026l0.003,-0.018l0.002,-0.007l0.001,-0.01l0.002,-0.009l0.003,-0.01l0.004,-0.028l0.003,-0.013l0.004,-0.011l0.009,0l0.013,-0.001l0.011,0l0.017,0.001l0.025,-0.001l0.009,0l0.015,-0.001l0.01,0l0.002,-0.002l0.002,-0.014l0.003,-0.016l0.002,-0.014l0.003,-0.008l0,-0.007l0.003,-0.015l0.002,-0.007l0.003,-0.014l0.002,-0.011l0,-0.008l0.002,-0.012l-0.006,-0.008l-0.008,-0.002l-0.026,0l-0.019,0.002l-0.035,-0.001l-0.018,0l0.002,-0.018l0.003,-0.01l-0.001,-0.008l0.002,-0.007l0.003,-0.014l0.002,-0.014l0.003,-0.019l0,-0.008l0.003,-0.006l0,-0.014l0.001,-0.007l0.003,-0.012l0.024,-0.001l0.065,0l0.012,-0.001l0.042,0l0.01,-0.001l0.003,-0.013l0.001,-0.006l0.004,-0.014l0,-0.008l0.003,-0.015l0.001,-0.006l0.001,-0.007l0.003,-0.007l0,-0.006l0.002,-0.025l0,-0.006l0.003,-0.011l-0.005,-0.007l-0.009,-0.001l-0.01,-0.001l-0.009,0.001l-0.022,0l-0.029,0.001l-0.008,-0.001l-0.023,-0.001l-0.075,0.001l-0.022,0.001l-0.01,0l-0.008,-0.001l-0.007,0l-0.012,0.001l-0.007,-0.001l-0.006,0.001l-0.017,0l-0.008,0.006l-0.001,0.006l-0.003,0.006l-0.003,0.012l0.002,0.007l-0.001,0.006l-0.001,0.013l-0.001,0.006l-0.002,0.006l-0.001,0.013l-0.002,0.007l0.001,0.006l-0.003,0.007l0,0.007l-0.003,0.006l-0.002,0.014l-0.004,0.013l-0.001,0.007l0.001,0.006l-0.001,0.007l-0.002,0.008l-0.004,0.006l-0.001,0.021l-0.003,0.007l-0.001,0.028l-0.004,0.015l-0.003,0.014l0.001,0.006l-0.002,0.007l-0.003,0.008l-0.006,0.03l-0.004,0.006l0,0.007l-0.001,0.007l-0.001,0.008l-0.003,0.007l-0.002,0.015l-0.004,0.014l0,0.015l-0.004,0.021l-0.002,0.007l-0.003,0.015l-0.001,0.007l-0.003,0.007l-0.003,0.013l0.001,0.006l-0.004,0.012l0,0.005l-0.002,0.013l-0.002,0.008l0,0.007l-0.002,0.016l-0.004,0.008l-0.002,0.013l-0.001,0.014l-0.001,0.007l-0.002,0.008l0,0.007l-0.002,0.007l0,0.009l-0.003,0.008l-0.001,0.016l-0.004,0.015l-0.002,0.016l-0.002,0.015l-0.002,0.009l-0.003,0.009l0.003,0.009l0.009,0.002l0.053,0l0.007,0.001l0.026,0l0.019,0.001Z" style="fill:#fff;fill-rule:nonzero;"/></g><g transform="matrix(80.0436,0,0,80.0436,7739.69,716.241)"><path d="M0.258,-0.221l0.009,0l0.005,-0.007l0.001,-0.012l0.003,-0.008l0.002,-0.006l0.004,-0.008l0.003,-0.012l0.006,-0.016l0.002,-0.006l0.007,-0.012l0.003,-0.006l0.014,-0.025l0.005,-0.006l0.007,-0.014l0.009,-0.009l0.006,-0.012l0.009,-0.011l0.003,-0.007l0.006,-0.011l0.006,-0.007l0.005,-0.011l0.006,-0.01l0.008,-0.012l0,-0.006l0.005,-0.014l0.003,-0.007l0.002,-0.009l0.002,-0.007l0.005,-0.014l0.001,-0.007l0.002,-0.006l0.001,-0.015l0.004,-0.021l0.001,-0.024l-0.003,-0.012l-0.007,-0.019l-0.001,-0.01l-0.01,-0.019l-0.002,-0.006l-0.003,-0.007l-0.016,-0.016l-0.006,-0.008l-0.007,-0.006l-0.007,-0.003l-0.008,-0.002l-0.013,-0.007l-0.008,-0.002l-0.013,-0.004l-0.019,-0.007l-0.025,-0.003l-0.006,0.001l-0.013,0.001l-0.016,0l-0.013,0.004l-0.007,-0.002l-0.008,0.003l-0.016,0.001l-0.014,0.005l-0.006,0.006l-0.015,0.005l-0.006,0.005l-0.008,0.006l-0.006,0.003l-0.01,0.01l-0.004,0.006l-0.008,0.011l-0.004,0.006l-0.007,0.013l-0.001,0.006l-0.007,0.019l-0.003,0.007l-0.001,0.007l-0.003,0.008l-0.005,0.013l0,0.009l-0.003,0.013l-0.001,0.008l-0.002,0.014l-0.004,0.027l0.004,0.012l0.014,0.005l0.058,0l0.017,-0.002l0.017,0.001l0.006,-0.002l0.008,-0.005l0.002,-0.014l0.002,-0.023l0.002,-0.007l0.001,-0.017l0.002,-0.008l0.006,-0.015l0.012,-0.011l0.01,-0.005l0.019,-0.002l0.012,0.005l0.008,0.009l0.003,0.011l0.002,0.011l0.001,0.016l-0.002,0.02l-0.002,0.006l-0.002,0.014l-0.006,0.014l-0.002,0.008l-0.005,0.011l-0.005,0.006l-0.004,0.013l-0.003,0.005l-0.007,0.013l-0.008,0.012l-0.004,0.005l-0.003,0.006l-0.005,0.005l-0.004,0.008l-0.007,0.004l-0.007,0.011l-0.009,0.012l-0.005,0.006l-0.003,0.008l-0.01,0.012l-0.014,0.023l-0.001,0.007l-0.009,0.021l-0.004,0.009l-0.002,0.009l-0.003,0.014l-0.002,0.008l0.001,0.012l0.005,0.008l0.015,0.001l0.007,0l0.018,0.001l0.02,0l0.056,0.003Zm-0.045,0.222l0.009,0l0.015,-0.006l0.009,-0.011l0.003,-0.008l0.001,-0.013l0.002,-0.012l0,-0.011l0.004,-0.018l0.002,-0.014l0.002,-0.012l0.003,-0.015l-0.001,-0.014l-0.008,-0.008l-0.009,-0.005l-0.007,0l-0.015,-0.001l-0.016,0l-0.006,-0.001l-0.01,0.001l-0.008,0l-0.026,-0.001l-0.018,-0.001l-0.012,0.001l-0.007,0.006l-0.002,0.005l-0.003,0.016l-0.005,0.042l-0.002,0.015l-0.002,0.006l0.001,0.008l-0.003,0.011l0,0.026l0.002,0.006l0.006,0.002l0.013,0.002l0.01,0.001l0.018,0.001l0.023,0.001l0.033,0l0.004,0.001Z" style="fill:#fff;fill-rule:nonzero;"/></g></g><g transform="matrix(0.654643,6.16298e-32,3.69779e-32,0.654643,-4725.21,-424.764)"><g transform="matrix(96,0,0,96,7209.54,716.241)"><path d="M0.507,0.041l0.012,-0.003l0.007,-0.025l0.011,-0.024l0.005,-0.013l0.001,-0.006l0.007,-0.014l0.003,-0.008l0.004,-0.013l0.006,-0.012l0.002,-0.007l0.002,-0.013l0.003,-0.007l0.003,-0.01l0.005,-0.014l0.002,-0.006l0.008,-0.017l0.001,-0.007l0.004,-0.008l0.003,-0.014l0.008,-0.014l0.003,-0.014l0.007,-0.016l0.004,-0.012l0.003,-0.006l0.005,-0.013l0.007,-0.023l0.001,-0.006l0.002,-0.006l0.007,-0.009l0.003,-0.011l0.005,-0.014l0.007,-0.012l0.003,-0.011l0.004,-0.007l0.002,-0.006l0.003,-0.014l0.002,-0.007l0.003,-0.007l0.005,-0.013l0.004,-0.006l0.006,-0.016l0.002,-0.006l0.006,-0.013l0.002,-0.005l0.002,-0.009l0.008,-0.018l0.001,-0.007l0.006,-0.012l0.002,-0.007l0.007,-0.019l0.002,-0.007l0.008,-0.013l0.001,-0.006l0.003,-0.007l0.004,-0.013l0.004,-0.014l0.004,-0.012l0.009,-0.024l0.003,-0.006l0.004,-0.011l0.002,-0.006l0.002,-0.017l-0.006,-0.006l-0.009,0l-0.007,-0.001l-0.004,0.001l-0.002,0.006l-0.002,0.008l-0.004,0.009l-0.005,0.015l-0.008,0.018l-0.005,0.013l-0.002,0.013l-0.004,0.01l-0.001,0.007l-0.004,0.009l-0.012,0.023l-0.002,0.013l-0.005,0.01l-0.003,0.009l-0.005,0.013l-0.004,0.013l-0.002,0.007l-0.005,0.009l-0.002,0.01l-0.004,0.011l-0.006,0.011l-0.004,0.009l-0.004,0.01l-0.003,0.007l-0.001,0.011l-0.002,0.01l-0.005,0.006l-0.004,0.009l-0.004,0.012l-0.006,0.013l-0.006,0.012l-0.004,0.01l-0.005,0.008l0,0.006l-0.002,0.009l-0.004,0.012l-0.003,0.012l-0.004,0.01l-0.008,0.018l-0.005,0.008l-0.002,0.012l-0.005,0.014l-0.008,0.014l-0.003,0.01l-0.003,0.007l-0.003,0.014l-0.005,0.014l-0.003,0.01l-0.008,0.016l-0.004,0.02l-0.004,0.007l-0.003,0.006l-0.001,0.009l-0.006,0.011l-0.003,0.011l-0.002,0.01l-0.002,0.009l-0.006,0.013l-0.008,0.012l-0.005,0.018l-0.011,0.015l-0.015,0.001l-0.023,-0.001l-0.033,0l-0.006,0.005l0.003,0.011l0.005,0.004l0.071,0l0.015,0.001Zm-0.252,-0.506l0.006,0l0.011,-0.025l0.006,-0.016l0.005,-0.008l0.001,-0.023l0.002,-0.006l0.001,-0.034l-0.001,-0.007l0,-0.006l0.004,-0.031l-0.001,-0.007l0,-0.009l-0.002,-0.017l-0.011,-0.006l-0.007,0l-0.006,0.001l0,0.006l0.001,0.008l0,0.019l-0.002,0.019l-0.001,0.006l0.001,0.022l-0.003,0.022l0,0.011l-0.001,0.017l0.001,0.009l-0.003,0.007l-0.001,0.011l-0.001,0.013l0.001,0.014l0,0.01Zm0.225,0.009l0.01,-0.025l0.004,-0.019l0.007,-0.015l0.001,-0.006l0,-0.014l0.001,-0.012l-0.001,-0.016l0,-0.03l-0.001,-0.025l-0.005,-0.007l-0.007,0l-0.007,-0.001l-0.007,0l0.002,0.028l0.001,0.023l-0.002,0.018l0.001,0.014l0.001,0.01l-0.002,0.01l0.001,0.021l0,0.019l-0.001,0.013l-0.001,0.012l0.005,0.002Zm-0.291,0.495l0.012,-0.003l0.023,0.001l0.005,-0.002l0.009,0.003l0.006,0l0.01,-0.005l0.002,-0.005l0.003,-0.006l0.005,-0.011l0.004,-0.011l0.002,-0.009l0.004,-0.01l0.003,-0.007l0.003,-0.014l0.002,-0.006l0.003,-0.007l0.005,-0.01l0.002,-0.006l0.007,-0.014l0.011,-0.03l0.006,-0.012l0.001,-0.007l0.014,-0.032l0.004,-0.012l0.003,-0.008l-0.002,-0.037l-0.006,-0.003l-0.003,0.004l-0.012,0.024l-0.008,0.017l-0.006,0.014l-0.006,0.016l-0.004,0.007l-0.003,0.006l-0.001,0.006l-0.001,0.008l-0.006,0.012l-0.004,0.01l-0.004,0.006l-0.002,0.006l-0.001,0.009l-0.005,0.009l-0.001,0.007l-0.005,0.01l-0.002,0.01l-0.008,0.018l-0.002,0.01l-0.004,0.011l-0.007,0.009l0,0.005l-0.01,0.005l-0.01,0.003l-0.007,-0.002l-0.022,0l-0.015,0.001l-0.013,0l-0.008,-0.002l-0.009,0.001l-0.007,0.003l-0.001,0.008l0.006,0.009l0.007,0.001l0.01,0l0.007,-0.001l0.01,0l0.006,-0.001l0.01,0.004Z" style="fill:#ac333b;fill-rule:nonzero;"/></g><g transform="matrix(80.0436,0,0,80.0436,7272.13,716.241)"><path d="M0.293,-0.444l0.017,-0.001l0.002,-0.013l0.002,-0.005l0.002,-0.012l0.001,-0.012l0.002,-0.005l0.001,-0.013l0.002,-0.008l0.002,-0.007l0,-0.016l0.003,-0.007l0.001,-0.012l0.002,-0.014l0.004,-0.019l0.001,-0.009l0.003,-0.009l0.001,-0.014l0.001,-0.006l0.003,-0.012l-0.001,-0.007l0,-0.006l-0.002,-0.009l-0.01,-0.002l-0.012,-0.002l0,0.006l-0.003,0.012l-0.001,0.006l-0.001,0.014l-0.003,0.009l-0.001,0.009l-0.004,0.019l-0.002,0.014l-0.001,0.012l-0.003,0.007l0,0.016l-0.002,0.007l-0.002,0.008l-0.001,0.013l-0.002,0.005l-0.001,0.012l0,0.006l-0.002,0.005l-0.002,0.008l-0.002,0.013l-0.003,0.006l0.001,0.011l0.01,0.002Zm0.091,0.485l0.008,-0.001l0.02,0l0.013,-0.001l0.006,-0.001l0.015,0l0.012,-0.003l0.004,-0.006l0.002,-0.007l0,-0.008l0.002,-0.007l0.001,-0.008l0.003,-0.005l0.002,-0.012l0.001,-0.011l0.002,-0.007l0.002,-0.013l0.001,-0.007l0.003,-0.014l0.001,-0.016l0.001,-0.014l0.002,-0.006l0.003,-0.011l0.003,-0.014l0.001,-0.007l0,-0.008l0.003,-0.014l0.001,-0.007l0.002,-0.006l0.002,-0.007l-0.001,-0.006l0.006,-0.021l-0.001,-0.006l0.002,-0.007l0.003,-0.014l0.002,-0.011l0,-0.006l0.004,-0.018l0.001,-0.007l0.005,-0.013l0.001,-0.007l0,-0.013l0.001,-0.007l0.003,-0.006l-0.002,-0.007l0,-0.008l0.004,-0.006l0.001,-0.007l0.003,-0.014l0.001,-0.006l0.001,-0.015l0.005,-0.014l0.001,-0.015l0.002,-0.016l0.002,-0.013l0.001,-0.006l0.005,-0.012l0.001,-0.006l0.002,-0.013l0.001,-0.008l0.002,-0.007l0.001,-0.007l0.003,-0.013l0.001,-0.007l0.002,-0.013l0,-0.007l0.001,-0.013l0.002,-0.008l0.002,-0.007l0.001,-0.007l0,-0.008l0.001,-0.014l0.004,-0.012l0,-0.007l0.001,-0.006l-0.001,-0.004l0.004,-0.006l-0.001,-0.007l0.001,-0.006l-0.007,-0.009l-0.007,-0.003l-0.012,-0.001l-0.001,0.006l-0.002,0.006l0.001,0.004l-0.001,0.006l0,0.007l-0.004,0.012l-0.001,0.014l0,0.008l-0.001,0.007l-0.002,0.007l-0.002,0.008l-0.001,0.013l0,0.007l-0.002,0.013l-0.001,0.007l-0.003,0.013l-0.001,0.007l-0.002,0.007l-0.001,0.008l-0.002,0.013l-0.001,0.006l-0.005,0.012l-0.001,0.006l-0.002,0.013l-0.002,0.016l-0.001,0.015l-0.005,0.014l-0.001,0.015l-0.001,0.006l-0.003,0.014l-0.001,0.007l-0.004,0.006l0,0.008l0.002,0.007l-0.003,0.006l-0.001,0.007l0,0.013l-0.001,0.007l-0.005,0.013l-0.001,0.007l-0.004,0.018l0,0.006l-0.002,0.011l-0.003,0.014l-0.002,0.007l0.001,0.006l-0.006,0.021l0.001,0.006l-0.002,0.007l-0.002,0.006l-0.001,0.007l-0.003,0.014l0,0.008l-0.001,0.007l-0.003,0.014l-0.003,0.011l-0.002,0.006l-0.001,0.014l-0.001,0.016l-0.003,0.014l-0.001,0.007l-0.002,0.013l-0.002,0.007l-0.001,0.011l-0.002,0.012l-0.003,0.005l-0.001,0.008l-0.002,0.007l0,0.008l-0.002,0.007l-0.004,0.006l-0.012,0.003l-0.015,0l-0.006,0.001l-0.013,0.001l-0.02,0l-0.008,0.001l-0.008,-0.002l-0.032,0l0,0.001l-0.001,0.008l0.006,0.009l0.007,0.001l0.007,0l0.011,0.001l0.027,0l0.008,0.002Zm-0.242,-0.001l0.007,-0.002l0.007,-0.001l0.007,0.003l0.008,0l0.015,-0.002l0.012,-0.001l0.009,-0.001l0.008,-0.004l0.005,-0.01l0.002,-0.015l0.001,-0.007l0.002,-0.008l0.002,-0.014l0,-0.007l0.003,-0.014l0.001,-0.008l0.006,-0.028l0.002,-0.015l0.004,-0.013l0.001,-0.005l0.005,-0.012l-0.001,-0.006l0.006,-0.022l0.005,-0.023l0.002,-0.007l0,-0.017l0.004,-0.007l0.002,-0.013l0.004,-0.014l0.001,-0.008l0.001,-0.005l0.006,0l0.015,-0.001l0.002,-0.004l0.002,-0.013l-0.004,-0.001l-0.018,0.001l-0.011,-0.001l-0.017,-0.001l-0.001,0.005l-0.001,0.008l-0.004,0.014l-0.002,0.013l-0.004,0.007l0,0.017l-0.002,0.007l-0.005,0.023l-0.006,0.022l0.001,0.006l-0.005,0.012l-0.001,0.005l-0.004,0.013l-0.002,0.015l-0.006,0.028l-0.001,0.008l-0.003,0.014l0,0.007l-0.002,0.014l-0.002,0.008l-0.001,0.007l-0.002,0.015l-0.005,0.01l-0.008,0.004l-0.009,0.001l-0.012,0.001l-0.015,0.002l-0.008,0l-0.007,-0.003l-0.007,0.001l-0.007,0.002l-0.012,-0.002l-0.031,0l0,0.007l0.004,0.011l0.02,0.002l0.032,0l0.012,0.002Z" style="fill:#ac333b;fill-rule:nonzero;"/></g><g transform="matrix(80.0436,0,0,80.0436,7312.4,716.241)"><path d="M0.182,0.04l0.021,0l0.006,-0.001l0.015,0.001l0.009,0l0.006,-0.001l0.008,0.001l0.033,0l0.006,-0.002l0.002,-0.02l0.003,-0.018l0.003,-0.014l0.004,-0.015l0.002,-0.007l0.003,-0.015l0.002,-0.014l0,-0.006l0.002,-0.007l0.003,-0.01l0.001,-0.007l0.004,-0.014l0.004,-0.015l0.003,-0.014l0.003,-0.013l-0.001,-0.006l0.002,-0.006l0.002,-0.012l0.002,-0.01l0.003,-0.011l0.004,-0.013l0,-0.007l0.001,-0.01l0.003,-0.011l0.005,-0.008l0.003,-0.007l0.004,-0.008l0.004,-0.009l0.007,-0.012l0.003,-0.006l0.003,-0.005l0.005,-0.005l0.005,-0.01l0.007,-0.013l0.008,-0.018l0.003,-0.005l0.005,-0.005l0.011,-0.022l0.005,-0.009l0.007,-0.014l0.005,-0.006l0.002,-0.005l0.012,-0.021l0.007,-0.013l0.009,-0.016l0.002,-0.006l0.004,-0.006l0.005,-0.01l0.005,-0.011l0.005,-0.009l0.006,-0.011l0.008,-0.016l0.002,-0.006l0.004,-0.006l0.002,-0.007l0.006,-0.011l0.006,-0.012l0.004,-0.005l0.007,-0.012l0,-0.007l0.005,-0.006l0.003,-0.006l0.005,-0.006l0.001,-0.006l0.007,-0.011l0,-0.005l0.004,-0.013l0.002,-0.013l-0.011,-0.006l-0.013,0.001l-0.003,0.011l-0.002,0.005l-0.007,0.011l-0.002,0.006l-0.006,0.012l-0.004,0.006l-0.002,0.007l-0.006,0.012l-0.004,0.005l-0.004,0.012l-0.008,0.011l-0.002,0.007l-0.004,0.006l-0.002,0.006l-0.009,0.019l-0.01,0.02l-0.008,0.012l-0.001,0.006l-0.004,0.006l-0.002,0.006l-0.01,0.017l-0.005,0.013l-0.005,0.007l-0.002,0.006l-0.008,0.012l-0.001,0.005l-0.006,0.006l-0.01,0.019l-0.004,0.006l-0.004,0.007l-0.006,0.013l-0.006,0.01l-0.008,0.018l-0.008,0.012l-0.006,0.01l-0.006,0.009l-0.003,0.005l-0.003,0.006l-0.007,0.012l-0.004,0.009l-0.004,0.008l-0.003,0.007l-0.003,0.005l-0.004,0.006l-0.002,0.01l0,0.007l-0.004,0.013l-0.003,0.011l-0.002,0.01l-0.002,0.012l-0.002,0.006l0.001,0.006l-0.003,0.013l-0.003,0.014l-0.004,0.015l-0.004,0.014l-0.001,0.007l-0.003,0.01l-0.002,0.007l0,0.006l-0.002,0.014l-0.003,0.015l-0.002,0.007l-0.004,0.015l-0.003,0.014l-0.003,0.018l-0.002,0.019l-0.006,0.002l-0.033,0l-0.008,-0.001l-0.006,0.001l-0.009,0l-0.015,-0.001l-0.006,0.001l-0.021,0l-0.007,-0.001l-0.002,0l0.001,0.015l0.011,0.006l0.015,0l0.007,0.001Zm0.091,-0.57l0.007,-0.016l0.009,-0.014l0.001,-0.007l-0.003,-0.006l0.001,-0.006l-0.003,-0.011l-0.001,-0.008l0,-0.01l-0.003,-0.008l-0.003,-0.03l-0.003,-0.01l-0.011,-0.005l-0.012,0l-0.001,0.002l0.003,0.022l0.002,0.009l0,0.01l0.003,0.014l0.003,0.022l0.002,0.012l0.002,0.007l0,0.01l0.003,0.01l0.001,0.007l0,0.004l0.003,0.002Z" style="fill:#ac333b;fill-rule:nonzero;"/></g><g transform="matrix(96,0,0,96,7368,716.241)"><path d="M0.441,-0.344l0.005,-0.001l0.008,-0.005l0.006,-0.004l0.003,-0.004l0.006,-0.004l0.004,-0.004l0.004,-0.003l0.008,-0.008l0.009,-0.011l0.007,-0.01l0.006,-0.011l0.005,-0.008l0.003,-0.006l0.002,-0.007l0.003,-0.006l0.001,-0.007l0.001,-0.003l0.004,-0.007l-0.001,-0.006l0.007,-0.013l0.001,-0.007l0.002,-0.013l0,-0.006l0.002,-0.007l0,-0.013l0.001,-0.006l0.001,-0.015l-0.001,-0.012l-0.002,-0.008l-0.001,-0.019l-0.001,-0.008l-0.004,-0.014l-0.003,-0.012l-0.002,-0.005l-0.006,-0.011l-0.01,-0.012l-0.007,0.003l0.003,0.005l0.002,0.012l0.004,0.014l0.001,0.008l0,0.007l0.003,0.018l0,0.014l-0.001,0.015l-0.001,0.006l0,0.007l-0.001,0.006l-0.002,0.007l0,0.006l-0.002,0.013l-0.001,0.007l-0.004,0.013l0.001,0.006l-0.004,0.007l-0.001,0.003l-0.001,0.007l-0.002,0.006l-0.003,0.008l-0.003,0.006l-0.004,0.009l-0.007,0.01l-0.006,0.011l-0.008,0.011l-0.008,0.008l-0.003,0.004l-0.005,0.003l-0.005,0.005l-0.005,0.004l-0.006,0.003l-0.01,0.006l-0.001,0.003l0.007,0.005l0.008,0.006l0.004,0.004Zm-0.171,-0.107l0.007,0l0.009,-0.001l0.007,-0.004l0.003,-0.009l0.001,-0.006l0.001,-0.007l0.003,-0.017l0,-0.007l0.003,-0.012l0.001,-0.007l0.001,-0.009l0.003,-0.009l0,-0.007l0.008,-0.002l0.012,0l0.003,-0.007l-0.004,-0.01l-0.011,-0.002l-0.011,-0.001l-0.011,0l-0.008,0.002l0,0.007l-0.003,0.009l-0.001,0.009l-0.001,0.007l-0.003,0.012l0,0.007l-0.003,0.013l-0.001,0.007l-0.002,0.006l-0.001,0.011l-0.004,0.017l0,0.008l0.002,0.002Zm-0.07,0.492l0.015,-0.001l0.003,0l0.008,-0.001l0.014,0l0.008,0.001l0.013,0l0.027,-0.001l0.007,-0.001l0.007,0.001l0.029,-0.004l0.008,-0.002l0.01,-0.002l0.009,-0.002l0.006,-0.002l0.007,-0.003l0.01,-0.004l0.008,-0.004l0.005,-0.003l0.007,-0.003l0.005,-0.003l0.005,-0.004l0.01,-0.006l0.005,-0.005l0.005,-0.004l0.006,-0.007l0.013,-0.013l0.009,-0.012l0.007,-0.014l0.006,-0.009l0.004,-0.008l0.002,-0.008l0.003,-0.006l0.003,-0.007l0.003,-0.008l0.004,-0.011l0.001,-0.007l0.004,-0.013l0.003,-0.015l0.003,-0.014l0,-0.007l0.001,-0.007l0,-0.007l0.001,-0.009l-0.002,-0.01l0.001,-0.013l-0.001,-0.013l-0.003,-0.013l0,-0.006l-0.002,-0.01l-0.005,-0.011l-0.003,-0.007l-0.008,-0.016l-0.005,-0.007l-0.007,0.003l0.005,0.018l0,0.01l0.003,0.006l0.004,0.026l0,0.013l-0.001,0.01l-0.001,0.009l0.001,0.006l0,0.007l-0.001,0.007l-0.002,0.015l-0.003,0.015l-0.004,0.013l-0.002,0.007l-0.003,0.014l-0.002,0.006l-0.002,0.007l-0.003,0.006l-0.004,0.014l-0.008,0.012l-0.008,0.013l-0.008,0.011l-0.007,0.011l-0.004,0.004l-0.007,0.005l-0.004,0.006l-0.006,0.005l-0.005,0.003l-0.005,0.004l-0.007,0.005l-0.005,0.003l-0.006,0.003l-0.007,0.004l-0.008,0.004l-0.011,0.003l-0.008,0.002l-0.006,0.001l-0.008,0.003l-0.019,0.003l-0.015,0.002l-0.015,0l-0.007,-0.001l-0.007,0.001l-0.027,0.001l-0.013,-0.001l-0.008,-0.001l-0.014,0l-0.008,0.001l-0.003,0l-0.015,0.001l-0.016,-0.002l-0.008,0l-0.016,0.001l-0.041,0l-0.006,-0.001l-0.012,0l-0.001,0.004l-0.001,0.008l0.007,0.007l0.009,0.001l0.015,0.001l0.008,0l0.006,0.001l0.041,0l0.016,-0.001l0.008,0l0.016,0.002Zm0.034,-0.187l0.006,-0.002l0.003,-0.013l0.002,-0.007l0.001,-0.005l0.002,-0.011l0.001,-0.006l0,-0.007l0.002,-0.007l0.002,-0.015l0.002,-0.004l0.002,-0.008l0.002,-0.018l0.003,-0.009l0.013,0l0.008,0.001l0.011,0l-0.001,-0.008l-0.006,-0.006l-0.005,-0.003l-0.01,-0.003l-0.005,0l-0.013,-0.001l-0.014,0l-0.003,0.009l-0.002,0.018l-0.002,0.008l-0.002,0.004l-0.002,0.015l-0.002,0.007l0,0.007l-0.002,0.006l-0.001,0.008l-0.002,0.014l-0.002,0.01l-0.002,0.006l0,0.007l-0.002,0.012l0.008,-0.001l0.01,0.002Z" style="fill:#ac333b;fill-rule:nonzero;"/></g><g transform="matrix(80.0436,0,0,80.0436,7414.18,716.241)"><path d="M0.247,0.055l0.013,0l0.026,-0.001l0.022,-0.002l0.011,-0.003l0.007,-0.001l0.014,-0.003l0.008,-0.004l0.011,-0.003l0.015,-0.008l0.004,-0.003l0.012,-0.007l0.012,-0.009l0.007,-0.006l0.006,-0.005l0.009,-0.011l0.005,-0.008l0.007,-0.01l0.004,-0.006l0.007,-0.009l0.004,-0.007l0.008,-0.015l0.007,-0.014l0.003,-0.01l0.003,-0.007l0.005,-0.011l0,-0.007l0.004,-0.012l0.005,-0.011l0.001,-0.011l0.003,-0.006l0.004,-0.012l-0.001,-0.006l0.004,-0.014l0.003,-0.007l0.004,-0.014l0.005,-0.02l0.002,-0.007l0,-0.009l0.002,-0.005l0.001,-0.013l0.003,-0.006l0.003,-0.013l0.001,-0.012l0.003,-0.013l0.002,-0.013l0.004,-0.013l-0.001,-0.012l0.005,-0.011l-0.001,-0.01l0.002,-0.016l0.002,-0.007l0.001,-0.016l0.001,-0.015l0.002,-0.014l0.001,-0.006l0,-0.01l-0.001,-0.007l0.001,-0.006l0.002,-0.007l0.001,-0.013l0,-0.007l-0.001,-0.013l0.001,-0.006l0.001,-0.013l0,-0.007l-0.001,-0.008l-0.002,-0.019l-0.001,-0.015l-0.002,-0.007l-0.002,-0.006l-0.001,-0.006l-0.004,-0.012l-0.002,-0.008l-0.006,-0.014l-0.016,-0.016l-0.004,0.001l0.004,0.009l0.004,0.008l0.003,0.009l0.001,0.009l0.002,0.006l0,0.007l0.001,0.015l0,0.019l0.001,0.008l0,0.007l-0.001,0.013l-0.001,0.006l0.001,0.013l0,0.007l-0.001,0.013l-0.002,0.007l-0.001,0.006l0.001,0.007l0,0.01l-0.001,0.006l-0.002,0.014l-0.001,0.015l-0.001,0.016l-0.002,0.007l-0.002,0.016l0.001,0.01l-0.005,0.011l0.001,0.012l-0.004,0.013l-0.002,0.013l-0.003,0.013l-0.001,0.012l-0.003,0.013l-0.003,0.006l-0.001,0.013l-0.002,0.005l0,0.009l-0.002,0.007l-0.002,0.014l-0.003,0.006l-0.01,0.035l0.001,0.006l-0.005,0.012l-0.003,0.006l-0.001,0.011l-0.005,0.011l-0.003,0.012l0,0.007l-0.003,0.011l-0.005,0.007l-0.001,0.01l-0.007,0.014l-0.008,0.018l-0.005,0.007l-0.007,0.013l-0.004,0.006l-0.005,0.006l-0.004,0.006l-0.012,0.012l-0.006,0.005l-0.005,0.006l-0.012,0.009l-0.012,0.008l-0.004,0.003l-0.023,0.009l-0.007,0.001l-0.008,0.002l-0.014,0.003l-0.007,0.001l-0.011,0.003l-0.022,0.004l-0.026,-0.001l-0.013,0.001l-0.007,-0.001l-0.009,-0.001l-0.023,-0.004l-0.016,-0.003l-0.002,0.005l0.013,0.007l0.007,0.004l0.015,0.003l0.008,0.001l0.023,0.006l0.009,0.001l0.007,0.001Zm-0.011,-0.196l0.001,-0.013l0.003,-0.014l-0.002,-0.008l0.002,-0.007l0,-0.007l0.004,-0.015l0,-0.008l0.002,-0.007l0,-0.008l0.002,-0.009l-0.001,-0.004l0.002,-0.007l-0.001,-0.008l0.003,-0.014l0.002,-0.007l0.001,-0.008l0.001,-0.007l0,-0.007l0.001,-0.014l0.002,-0.007l0.004,-0.016l0.003,-0.008l0.002,-0.015l0.002,-0.007l0.001,-0.007l0.003,-0.016l0.003,-0.014l0.004,-0.014l0.001,-0.006l0.003,-0.014l0.001,-0.008l0,-0.002l0.006,-0.021l0.002,-0.008l0.002,-0.007l0.003,-0.014l0.007,-0.021l0.007,-0.011l0.008,-0.007l0.009,-0.004l0.011,0l0.001,-0.005l-0.001,-0.01l-0.005,-0.007l-0.007,-0.001l-0.011,0.001l-0.013,0.007l-0.01,0.009l-0.007,0.011l-0.004,0.012l-0.004,0.007l-0.006,0.013l-0.002,0.007l-0.002,0.008l-0.006,0.021l0,0.002l-0.001,0.008l-0.003,0.014l-0.001,0.006l-0.004,0.014l-0.003,0.014l-0.003,0.016l-0.001,0.007l-0.002,0.007l-0.002,0.015l-0.003,0.008l-0.004,0.016l-0.002,0.007l-0.002,0.014l0,0.007l-0.001,0.007l0.001,0.008l-0.003,0.007l-0.005,0.014l0.001,0.008l-0.002,0.007l0.001,0.004l-0.002,0.009l0,0.008l-0.002,0.007l0,0.008l-0.003,0.015l0,0.007l-0.003,0.007l0.003,0.007l-0.001,0.012l0,0.008l0.001,0.011l0.006,0.012l0.008,0.004l0.005,0.001Z" style="fill:#ac333b;fill-rule:nonzero;"/></g><g transform="matrix(80.0436,0,0,80.0436,7453,716.241)"><path d="M0.182,0.042l0.026,-0.001l0.011,-0.003l0.003,-0.009l0.001,-0.008l0.003,-0.013l0.002,-0.014l0.003,-0.013l0.004,-0.024l0.003,-0.011l0,-0.007l0.002,-0.013l0.002,-0.014l0.003,-0.014l0,-0.008l0.004,-0.013l0.001,-0.008l0.003,-0.015l-0.001,-0.011l0.005,-0.01l0,-0.014l0.001,-0.005l0.002,-0.014l0,-0.008l0.004,-0.014l0,-0.008l0.004,-0.014l0.002,-0.012l0.002,-0.013l0.003,-0.013l0,-0.008l0.003,-0.007l0.004,-0.014l0.005,-0.03l0.003,-0.01l0.002,-0.013l0,-0.007l0.001,-0.008l0.001,-0.007l0,-0.009l0.003,-0.009l0.003,-0.014l0.001,-0.005l0.003,-0.013l0.003,-0.012l0.002,-0.013l0.001,-0.007l0.001,-0.012l0.001,-0.007l0.002,-0.012l0.002,-0.006l0.002,-0.011l0.005,-0.026l0.001,-0.006l0,-0.007l0.001,-0.006l0,-0.008l0.004,-0.009l0.002,-0.014l0.003,-0.005l0,-0.009l0.003,-0.004l-0.001,-0.006l0.001,-0.011l0.002,-0.003l0,-0.013l0.001,-0.006l-0.004,-0.01l-0.011,-0.003l-0.007,0.001l-0.007,0l0,0.016l-0.001,0.008l0,0.006l-0.001,0.006l-0.002,0.007l-0.002,0.008l-0.004,0.011l-0.002,0.01l0.001,0.007l-0.002,0.007l0.001,0.007l-0.001,0.011l-0.004,0.017l-0.002,0.014l-0.004,0.008l-0.002,0.01l0,0.019l-0.004,0.009l-0.002,0.012l-0.003,0.012l-0.003,0.011l0,0.009l-0.002,0.011l-0.003,0.01l-0.002,0.016l0,0.016l-0.003,0.011l-0.002,0.011l-0.003,0.01l-0.002,0.009l0,0.01l-0.002,0.008l-0.004,0.007l0,0.007l-0.003,0.009l-0.001,0.012l-0.001,0.013l-0.004,0.012l-0.001,0.012l-0.004,0.011l-0.004,0.022l-0.001,0.011l0,0.009l-0.001,0.011l-0.004,0.011l0,0.012l-0.001,0.012l-0.005,0.011l0,0.011l-0.003,0.01l0,0.013l-0.004,0.014l-0.002,0.011l-0.002,0.01l-0.001,0.009l-0.003,0.008l-0.001,0.009l0,0.01l-0.004,0.011l-0.001,0.014l0,0.012l-0.004,0.009l-0.005,0.007l-0.012,0.004l-0.022,0.001l-0.028,-0.001l-0.017,-0.001l-0.006,-0.001l-0.024,0l-0.008,-0.001l0.001,0.013l0.008,0.007l0.008,0.002l0.008,-0.001l0.007,0.001l0.011,0.001l0.007,-0.001l0.008,0l0.014,0.002l0.029,0l0.007,0.001Z" style="fill:#ac333b;fill-rule:nonzero;"/></g><g transform="matrix(80.0436,0,0,80.0436,7474.05,716.241)"><path d="M0.233,-0.156l0.02,0l0.001,-0.006l0.002,-0.01l0.001,-0.009l0.002,-0.009l0.003,-0.023l0.002,-0.008l0,-0.007l0.004,-0.016l0.001,-0.007l0.001,-0.008l0.003,-0.014l0.001,-0.015l0.004,-0.016l0.001,-0.007l0.003,-0.015l0.002,-0.007l0,-0.014l0.002,-0.007l0.003,-0.021l0,-0.008l0.002,-0.007l-0.001,-0.008l0.004,-0.007l0.003,-0.013l0.003,-0.014l0.002,-0.007l0.001,-0.007l0.002,-0.008l-0.002,-0.008l0.004,-0.007l0.002,-0.014l0.004,-0.014l0,-0.008l0.003,-0.014l0.008,-0.035l0.002,-0.01l0.002,-0.011l0.003,-0.021l0.002,-0.006l0,-0.007l0.006,-0.024l0,-0.007l0.001,-0.007l-0.003,-0.012l-0.02,-0.001l-0.003,0l0,0.007l-0.006,0.024l0,0.007l-0.002,0.006l-0.003,0.021l-0.002,0.011l-0.002,0.01l-0.008,0.035l-0.003,0.014l0,0.008l-0.004,0.014l-0.002,0.014l-0.004,0.007l0,0.016l-0.001,0.007l-0.002,0.007l-0.003,0.014l-0.003,0.013l-0.003,0.015l-0.002,0.007l0,0.008l-0.003,0.021l-0.002,0.007l0,0.014l-0.002,0.007l-0.003,0.015l-0.001,0.007l-0.004,0.016l-0.001,0.015l-0.003,0.014l-0.001,0.008l-0.001,0.007l-0.004,0.016l0,0.007l-0.002,0.008l-0.001,0.014l-0.003,0.016l-0.001,0.012l-0.001,0.007l-0.001,0.006l-0.002,0.007l0,0.01l0.005,0.005Zm-0.145,0.197l0.013,-0.001l0.007,0.001l0.028,0l0.01,-0.001l0.082,0l0.02,-0.001l0.014,0.002l0.015,-0.001l0.018,0.001l0.022,-0.003l0.013,-0.002l0.019,0l0.008,-0.007l0.004,-0.017l0.002,-0.015l0.001,-0.006l0,-0.007l0.003,-0.007l0.005,-0.035l0.003,-0.008l-0.001,-0.007l0.002,-0.007l0.001,-0.015l-0.006,-0.003l-0.019,0l-0.003,0.005l0.001,0.007l-0.003,0.008l-0.005,0.035l-0.003,0.007l0,0.007l-0.001,0.006l-0.002,0.015l-0.004,0.016l-0.008,0.007l-0.019,0l-0.013,0.002l-0.022,0.003l-0.018,-0.001l-0.015,0.001l-0.014,-0.002l-0.02,0.001l-0.082,0l-0.01,0.001l-0.028,0l-0.008,0.003l0,0.009l0.004,0.006l0.009,0.003Z" style="fill:#ac333b;fill-rule:nonzero;"/></g><g transform="matrix(80.0436,0,0,80.0436,7502.22,716.241)"><path d="M0.286,-0.447l0.01,-0.001l0.002,-0.006l0,-0.004l0.001,-0.005l0.003,-0.017l0,-0.008l0.003,-0.006l0,-0.014l0.001,-0.006l0.003,-0.012l0.024,-0.001l0.065,0l0.012,-0.001l0.042,0l0.01,-0.001l0.003,-0.014l0.001,-0.006l0.004,-0.014l0,-0.008l0.003,-0.015l0.001,-0.006l0.001,-0.007l0.003,-0.007l0,-0.006l0.002,-0.025l0,-0.006l0.003,-0.011l-0.005,-0.007l-0.009,-0.001l-0.01,-0.001l-0.004,0.003l-0.002,0.028l0,0.006l-0.003,0.007l-0.001,0.007l-0.001,0.006l-0.003,0.015l0,0.008l-0.004,0.014l-0.001,0.006l-0.003,0.013l-0.01,0.001l-0.042,0l-0.012,0.001l-0.065,0l-0.024,0.001l-0.003,0.012l-0.001,0.007l0,0.014l-0.003,0.006l0,0.008l-0.003,0.019l-0.003,0.018l0,0.003l-0.002,0.01l0.002,0.002l0.015,0.001Zm-0.06,0.284l0.02,0l0.003,-0.002l0.002,-0.015l0.002,-0.009l0.003,-0.01l0.004,-0.028l0.003,-0.012l0.003,-0.008l0.004,-0.002l0.019,-0.001l0.011,0l0.017,0.001l0.025,-0.001l0.009,0l0.015,-0.001l0.01,0l0.002,-0.002l0.002,-0.016l0.003,-0.016l0.002,-0.014l0.003,-0.008l0,-0.007l0.003,-0.015l0.002,-0.007l0.003,-0.014l0.002,-0.011l0,-0.008l0.002,-0.012l-0.006,-0.008l-0.008,-0.002l-0.009,0l-0.004,0.002l0,0.008l-0.002,0.011l-0.003,0.014l-0.002,0.007l-0.003,0.015l0,0.007l-0.003,0.008l-0.002,0.014l-0.003,0.016l-0.002,0.014l-0.002,0.002l-0.01,0l-0.015,0.001l-0.009,0l-0.025,0.001l-0.017,-0.001l-0.011,0l-0.018,0.001l-0.005,0.002l-0.003,0.009l-0.003,0.013l-0.004,0.028l-0.003,0.01l-0.002,0.009l-0.001,0.01l-0.002,0.007l-0.001,0.008l0,0.008l0.004,0.004Zm-0.035,0.203l0.008,-0.001l0.016,-0.001l0.021,0l0.006,-0.001l0.013,0.001l0.016,-0.001l0.095,0l0.003,-0.011l0.002,-0.009l0.001,-0.017l0.003,-0.015l0.001,-0.007l0.002,-0.006l0.002,-0.007l0,-0.013l0.004,-0.022l0.001,-0.008l0.002,-0.011l0.001,-0.004l0.001,-0.008l-0.007,-0.003l-0.021,0.001l-0.001,0.005l-0.001,0.008l-0.004,0.022l0,0.013l-0.002,0.007l-0.002,0.006l-0.001,0.007l-0.003,0.015l-0.001,0.017l-0.002,0.009l-0.003,0.011l-0.095,0l-0.016,0.001l-0.013,-0.001l-0.006,0.001l-0.021,0l-0.016,0.001l-0.008,0.001l-0.019,-0.001l-0.026,0l-0.007,-0.001l-0.037,0l-0.003,0.009l0.003,0.009l0.009,0.002l0.053,0l0.007,0.001l0.026,0l0.019,0.001Z" style="fill:#ac333b;fill-rule:nonzero;"/></g><g transform="matrix(80.0436,0,0,80.0436,7532.4,716.241)"><path d="M0.365,0.04l0.009,-0.001l0.008,0l0.011,-0.001l0.013,0l0.026,-0.003l0.021,-0.003l0.013,0l0.011,-0.005l0.01,-0.004l0.009,-0.013l-0.002,-0.013l0,-0.009l-0.001,-0.007l-0.004,-0.012l-0.004,-0.017l-0.003,-0.014l-0.01,-0.035l-0.002,-0.013l-0.005,-0.015l0,-0.006l-0.005,-0.014l-0.002,-0.008l-0.003,-0.007l-0.002,-0.014l-0.002,-0.006l-0.003,-0.013l-0.003,-0.006l-0.003,-0.014l-0.001,-0.008l-0.003,-0.01l-0.007,-0.033l-0.002,-0.008l-0.001,-0.009l0,-0.008l0.005,-0.005l0.004,-0.003l0.006,-0.005l0.011,-0.009l0.022,-0.026l0.003,-0.006l0.01,-0.013l0.004,-0.009l0.012,-0.02l0.006,-0.009l0.003,-0.007l0.002,-0.006l0.002,-0.007l0.004,-0.012l0.005,-0.013l0.002,-0.013l0.003,-0.016l0.001,-0.007l0.003,-0.015l0.001,-0.007l0.003,-0.014l0,-0.008l-0.002,-0.019l0,-0.007l-0.002,-0.019l-0.001,-0.019l-0.003,-0.013l-0.007,-0.014l-0.007,-0.012l-0.004,-0.005l-0.005,-0.007l-0.004,-0.004l-0.006,0.001l0.008,0.021l0.003,0.016l0.003,0.019l0.001,0.016l0,0.007l0.002,0.019l0,0.008l-0.003,0.014l-0.001,0.007l-0.001,0.015l0,0.007l-0.006,0.016l-0.002,0.016l-0.003,0.01l-0.004,0.012l-0.002,0.007l-0.002,0.006l-0.003,0.007l-0.006,0.011l-0.007,0.013l-0.004,0.008l-0.005,0.009l-0.008,0.013l-0.004,0.006l-0.01,0.012l-0.005,0.005l-0.013,0.015l-0.01,0.009l-0.016,0.008l-0.007,0.005l0.001,0.009l0.003,0.008l0.005,0.015l0,0.009l0.002,0.013l0.004,0.006l0.001,0.008l0.001,0.013l0.004,0.006l0.003,0.013l0.002,0.006l0.002,0.014l0.003,0.007l0.002,0.008l0.004,0.013l0,0.006l0.005,0.015l0.002,0.013l0.011,0.036l0.002,0.014l0.007,0.017l0.001,0.012l0.001,0.007l0.002,0.009l0.004,0.014l-0.007,0.016l-0.007,0.003l-0.011,0.002l-0.013,0l-0.021,0.003l-0.026,0.003l-0.013,0l-0.011,0.001l-0.01,0l0.001,0.006l0.002,0.005l0.009,0.009l0.006,0.001Zm-0.089,-0.472l0.007,-0.001l0.006,-0.003l0.003,-0.003l0.002,-0.004l0.003,-0.007l0,-0.007l0.003,-0.019l0.002,-0.008l0.001,-0.013l0.001,-0.015l0.002,-0.016l0.003,-0.007l0.003,-0.011l0.013,-0.002l0.004,-0.005l-0.003,-0.008l-0.01,-0.006l-0.01,-0.002l-0.008,0l-0.009,0.003l-0.003,0.011l-0.003,0.007l-0.002,0.016l-0.001,0.015l-0.001,0.013l-0.002,0.008l-0.003,0.016l0,0.007l-0.002,0.018l-0.002,0.008l0,0.013l0.006,0.002Zm-0.1,0.473l0.008,-0.001l0.015,-0.001l0.009,-0.001l0.013,-0.008l0.003,-0.007l0.001,-0.012l0.001,-0.007l0,-0.006l0.001,-0.007l0.001,-0.013l0,-0.006l0.002,-0.007l-0.001,-0.006l0.003,-0.014l0,-0.008l0.002,-0.006l0.001,-0.008l0.002,-0.019l0,-0.009l0.002,-0.011l0.002,-0.013l0,-0.008l0.001,-0.008l0,-0.009l-0.004,-0.018l-0.002,-0.008l-0.003,-0.01l-0.003,-0.007l-0.005,0l-0.001,0.004l-0.002,0.006l-0.003,0.014l-0.001,0.008l-0.001,0.007l-0.002,0.022l-0.002,0.014l-0.001,0.01l-0.002,0.015l-0.001,0.008l-0.002,0.006l0,0.008l-0.003,0.014l0.001,0.006l-0.002,0.007l0,0.006l-0.001,0.013l-0.001,0.007l0,0.006l-0.001,0.007l-0.001,0.012l-0.003,0.007l-0.013,0.008l-0.009,0.001l-0.015,0.001l-0.008,0.001l-0.036,-0.001l-0.013,0l-0.016,-0.001l-0.001,0.002l0,0.009l0.002,0.006l0.009,0.002l0.031,0.002l0.013,0l0.036,0.001Z" style="fill:#ac333b;fill-rule:nonzero;"/></g><g transform="matrix(96,0,0,96,7570.02,716.241)"><path d="M0.354,-0.372l0.009,-0.015l0.008,-0.015l-0.003,-0.01l-0.002,-0.015l0,-0.006l-0.001,-0.014l-0.003,-0.006l-0.001,-0.007l0,-0.007l-0.002,-0.014l-0.001,-0.006l-0.004,-0.021l0,-0.008l-0.002,-0.007l-0.001,-0.014l-0.002,-0.013l-0.003,-0.016l-0.001,-0.017l-0.003,-0.014l-0.001,-0.006l-0.002,-0.014l-0.002,-0.007l-0.003,-0.028l-0.006,-0.009l-0.018,0l0.002,0.017l0.002,0.007l0.002,0.014l0.001,0.006l0.003,0.014l0.001,0.017l0.003,0.016l0.002,0.013l0.001,0.014l0.002,0.007l0,0.008l0.004,0.021l0.001,0.006l0.002,0.014l0,0.007l0.001,0.007l0.003,0.006l0.001,0.013l0,0.006l0.001,0.014l0.004,0.016l0,0.007l0.003,0.014l0.005,0.025Zm0.136,0.412l0.014,-0.001l0.044,0l0.03,0.001l0.011,0l0.014,-0.004l0.003,-0.009l0.002,-0.013l0.003,-0.013l0.003,-0.014l0.001,-0.008l0.003,-0.013l0,-0.007l0.001,-0.007l0.001,-0.013l0.002,-0.006l0.001,-0.007l0.003,-0.013l0.001,-0.008l0.002,-0.014l0.002,-0.006l0.002,-0.014l0.001,-0.008l0.001,-0.007l0.003,-0.015l0.001,-0.007l0.005,-0.015l0.002,-0.013l0,-0.006l0.003,-0.014l0.004,-0.03l0.003,-0.013l0.001,-0.006l0.001,-0.007l0.001,-0.006l-0.001,-0.007l0,-0.007l0.004,-0.007l0.001,-0.015l0.001,-0.011l0.003,-0.012l0.001,-0.007l0.001,-0.006l0.003,-0.012l0.002,-0.014l0.003,-0.013l0.002,-0.006l0.001,-0.007l0,-0.006l0.001,-0.009l0.004,-0.008l0.001,-0.016l0.002,-0.014l0.001,-0.006l0.005,-0.013l0.003,-0.006l0,-0.017l0.004,-0.007l-0.001,-0.006l0.001,-0.012l0.002,-0.006l0.003,-0.014l0,-0.008l0.005,-0.013l0.001,-0.007l0.002,-0.006l0,-0.014l0.001,-0.003l0.001,-0.007l0.001,-0.006l0.001,-0.007l0.001,-0.004l0.001,-0.014l0.002,-0.006l0.003,-0.013l-0.002,-0.007l-0.009,-0.006l-0.016,0.001l-0.001,0.005l-0.002,0.006l-0.001,0.014l-0.001,0.004l-0.001,0.007l-0.001,0.006l-0.001,0.007l-0.001,0.003l0,0.014l-0.002,0.006l-0.001,0.007l-0.005,0.013l0,0.008l-0.003,0.014l-0.002,0.006l-0.001,0.012l0.001,0.006l-0.004,0.007l0,0.017l-0.003,0.006l-0.005,0.013l-0.001,0.006l-0.002,0.014l-0.001,0.016l-0.004,0.008l-0.001,0.009l0,0.006l-0.001,0.007l-0.002,0.006l-0.003,0.013l-0.002,0.014l-0.003,0.012l-0.001,0.006l-0.001,0.007l-0.003,0.012l-0.001,0.011l-0.001,0.015l-0.004,0.007l0,0.007l0.001,0.007l-0.001,0.006l-0.001,0.007l-0.001,0.006l-0.003,0.013l-0.004,0.03l-0.003,0.014l0,0.006l-0.002,0.013l-0.005,0.015l-0.001,0.007l-0.003,0.015l-0.001,0.007l-0.001,0.008l-0.002,0.014l-0.002,0.006l-0.002,0.014l-0.001,0.008l-0.003,0.013l-0.001,0.007l-0.002,0.006l-0.001,0.013l-0.001,0.007l0,0.007l-0.003,0.013l-0.001,0.008l-0.003,0.014l-0.003,0.013l-0.002,0.013l-0.003,0.009l-0.014,0.004l-0.011,0l-0.03,-0.001l-0.044,0l-0.01,0.001l0,0.003l0.002,0.011l0.007,0.005l0.007,0l0.005,0.001Zm-0.33,0.001l0.007,-0.001l0.005,-0.001l0.03,0l0.012,-0.005l0.006,-0.011l0.001,-0.01l0,-0.006l0.003,-0.007l0.001,-0.013l0,-0.013l0.003,-0.012l0.001,-0.006l0.002,-0.014l0.002,-0.016l0.001,-0.009l0.001,-0.008l0.003,-0.018l0,-0.008l0.001,-0.006l0.001,-0.014l-0.002,-0.023l-0.003,-0.016l-0.003,-0.034l-0.006,0l-0.003,0.014l-0.001,0.006l-0.002,0.007l-0.001,0.007l0,0.007l-0.002,0.012l-0.001,0.007l-0.001,0.014l-0.002,0.013l0,0.006l-0.002,0.006l-0.001,0.008l-0.001,0.009l-0.002,0.016l-0.002,0.014l-0.001,0.006l-0.003,0.012l0,0.013l-0.001,0.013l-0.003,0.007l-0.001,0.006l-0.001,0.01l-0.006,0.011l-0.012,0.005l-0.03,0l-0.005,0.001l-0.007,0.001l-0.027,-0.002l-0.025,0l0,0.01l0.005,0.006l0.004,0.003l0.014,0.001l0.027,0l0.027,0.002Zm0.16,-0.103l0.028,0l0.018,-0.002l0.009,0.002l0.006,0l0.011,-0.003l0.005,-0.01l0.025,-0.057l0.003,-0.02l0.002,-0.013l0.003,-0.023l-0.007,-0.005l-0.009,0.021l-0.016,0.038l-0.015,0.028l-0.007,0.012l-0.005,0.01l-0.011,0.002l-0.006,0l-0.009,-0.002l-0.022,0.002l-0.018,-0.003l0.001,0.01l0.004,0.008l0.01,0.005Z" style="fill:#ac333b;fill-rule:nonzero;"/></g><g transform="matrix(80.0436,0,0,80.0436,7632.04,716.241)"><path d="M0.363,0.041l0.01,-0.001l0.007,-0.001l0.012,0.001l0.008,0l0.022,-0.001l0.014,0l0.008,0.001l0.011,-0.001c0.004,0 0.006,0.001 0.01,0c0.005,-0.003 0.004,-0.012 0.003,-0.016l0,-0.021l-0.001,-0.022l0,-0.009l-0.001,-0.008l0.001,-0.014l0,-0.015l-0.001,-0.007l-0.001,-0.013l0,-0.006l-0.002,-0.038l0.001,-0.007l-0.001,-0.014l0.001,-0.015l-0.001,-0.015l0,-0.007l-0.001,-0.046l0,-0.03l-0.001,-0.008l-0.001,-0.012l0,-0.039l-0.002,-0.011l-0.001,-0.016l0,-0.006l-0.001,-0.013l0.001,-0.006l-0.001,-0.014l0,-0.02l-0.002,-0.014l0,-0.022l0.001,-0.007l-0.001,-0.015l0,-0.014l-0.002,-0.02l-0.001,-0.013l0,-0.014l-0.001,-0.036l0,-0.018l-0.002,-0.014l0,-0.014l-0.003,-0.043l-0.006,-0.005l-0.008,-0.002l-0.012,0l0.002,0.03l0,0.022l0.002,0.006l0,0.018l0.001,0.036l0,0.014l0.001,0.013l0.002,0.02l0,0.014l0.001,0.015l-0.001,0.007l0,0.022l0.002,0.014l0,0.02l0.001,0.014l-0.001,0.006l0.001,0.013l0,0.006l0.001,0.016l0.002,0.011l0,0.039l0.001,0.012l0.001,0.008l0,0.03l0.001,0.046l0,0.007l0.001,0.015l-0.001,0.015l0.001,0.014l-0.001,0.007l0.002,0.038l0,0.006l0.001,0.013l0.001,0.007l0,0.015l-0.001,0.014l0.001,0.008l0,0.009l0.001,0.022l0,0.021c0.001,0.004 0.002,0.013 -0.003,0.016c-0.004,0.001 -0.007,0 -0.011,0l-0.007,0.001l-0.008,-0.001l-0.014,0l-0.022,0.001l-0.008,0l-0.012,-0.001l-0.007,0.001l-0.01,0.001l-0.01,-0.001l0,0.007l0.002,0.01l0.004,0.003l0.015,0l0.013,0.001Zm-0.126,-0.3l0.021,0l0.006,-0.064l0,-0.018l-0.005,0.001l-0.008,0.02l-0.003,0.011l-0.004,0.015l-0.002,0.008l-0.003,0.007l-0.005,0.016l0.003,0.004Zm-0.116,0.3l0.008,-0.001l0.028,0.001l0.005,-0.004l0.004,-0.007l0.002,-0.005l0.004,-0.013l0.006,-0.015l0.007,-0.017l0.004,-0.012l0.003,-0.007l0.002,-0.007l0.007,-0.015l0.007,-0.009l0.032,0.001l0.016,0l0.003,-0.002l0,-0.017l-0.011,-0.001l-0.035,-0.001l-0.027,0l-0.005,0.011l-0.007,0.013l-0.002,0.007l-0.003,0.007l-0.004,0.012l-0.01,0.019l-0.006,0.015l-0.003,0.011l-0.003,0.005l-0.004,0.007l-0.006,0.004l-0.028,-0.001l-0.008,0.001l-0.015,-0.001l-0.007,-0.001l-0.058,-0.001l0,0.003l-0.002,0.007l0.002,0.008l0.009,0.002l0.073,0.001l0.007,0.001l0.015,0.001Z" style="fill:#ac333b;fill-rule:nonzero;"/></g><g transform="matrix(80.0436,0,0,80.0436,7667.74,716.241)"><path d="M0.376,0.04l0.022,-0.001l0.007,0.001l0.021,0l0.009,-0.001l0.031,0.001l0.025,0l0.025,-0.001l0.009,-0.008l0,-0.015l-0.001,-0.01l-0.002,-0.01l-0.004,-0.012l-0.003,-0.011l-0.002,-0.008l-0.003,-0.005l-0.002,-0.007l-0.001,-0.008l-0.002,-0.006l-0.003,-0.007l-0.003,-0.01l-0.004,-0.011l-0.001,-0.008l-0.004,-0.011l-0.002,-0.007l-0.002,-0.006l-0.002,-0.008l-0.005,-0.011l-0.002,-0.007l-0.004,-0.012l-0.004,-0.011l-0.002,-0.007l-0.005,-0.015l-0.004,-0.016l-0.004,-0.01l-0.003,-0.011l-0.005,-0.013l-0.002,-0.008l-0.011,-0.028l-0.003,-0.012l-0.004,-0.012l-0.002,-0.01l-0.006,-0.016l-0.003,-0.01l-0.003,-0.014l-0.002,-0.01l0.002,-0.009l0.008,-0.014l0.007,-0.011l0.005,-0.009l0.007,-0.009l0.011,-0.017l0.009,-0.01l0.007,-0.011l0.015,-0.022l0.006,-0.008l0.006,-0.009l0.009,-0.011l0.005,-0.007l0.006,-0.007l0.005,-0.01l0.006,-0.009l0.004,-0.008l0.007,-0.008l0.004,-0.006l0.008,-0.009l0.005,-0.008l0.006,-0.007l0.007,-0.009l0.004,-0.006l0.006,-0.01l0.005,-0.007l0.009,-0.01l0.008,-0.01l0.003,-0.007l0.01,-0.012l-0.003,-0.007l-0.012,-0.003l-0.009,0.001l-0.011,0.009l-0.008,0.01l-0.009,0.011l-0.005,0.007l-0.006,0.01l-0.004,0.005l-0.007,0.01l-0.004,0.007l-0.006,0.01l-0.008,0.009l-0.004,0.006l-0.006,0.006l-0.004,0.008l-0.008,0.009l-0.004,0.01l-0.006,0.007l-0.005,0.007l-0.01,0.012l-0.006,0.009l-0.006,0.008l-0.015,0.022l-0.007,0.01l-0.009,0.012l-0.011,0.017l-0.007,0.009l-0.005,0.009l-0.007,0.011l-0.009,0.012l-0.007,0.011l-0.003,0.011l0.002,0.01l0.004,0.01l0.004,0.016l0.002,0.01l0.005,0.012l0.003,0.012l0.009,0.028l0.003,0.008l0.003,0.013l0.006,0.011l0.004,0.009l0.002,0.008l0.003,0.008l0.001,0.006l0.004,0.009l0.002,0.007l0.004,0.011l0.002,0.012l0.002,0.007l0.005,0.012l0.002,0.007l0.008,0.026l0.003,0.009l0.004,0.009l0.002,0.009l0.001,0.007l0.002,0.006l0.002,0.008l0.002,0.007l0.004,0.006l0.005,0.018l0.004,0.012l0.004,0.011l0.007,0.017l0,0.01l-0.011,0.004l-0.022,0.001l-0.025,0l-0.031,-0.001l-0.009,0.001l-0.021,0l-0.007,-0.001l-0.012,0.001l-0.002,0.008l0.005,0.011l0.012,0.002Zm-0.081,-0.601l0.009,-0.011l0.007,-0.01l0.006,-0.007l0.005,-0.008l0.001,-0.005l0.002,-0.006l0.001,-0.014l0.002,-0.017l0.002,-0.01l-0.003,-0.007l-0.008,-0.004l-0.007,-0.001l-0.005,0.003l-0.001,0.007l-0.003,0.009l-0.001,0.014l-0.003,0.017l-0.004,0.028l-0.004,0.018l0.004,0.004Zm-0.207,0.6l0.01,-0.001l0.009,0.001l0.019,0l0.007,-0.001l0.003,0.001l0.006,0l0.014,-0.001l0.012,0.001l0.009,-0.001l0.026,0l0.009,-0.004l0.005,-0.015l0.002,-0.017l0.004,-0.013l0.002,-0.012l0.001,-0.015l0.001,-0.007l0.002,-0.006l0.003,-0.012l0.003,-0.016l0.002,-0.018l0.002,-0.006l0.001,-0.007l0,-0.005l0.001,-0.008l0,-0.006l0.003,-0.017l-0.001,-0.008l-0.003,-0.008l-0.003,-0.016l-0.005,-0.022l-0.004,0.001l-0.001,0.004l-0.001,0.005l-0.001,0.007l0,0.006l-0.002,0.006l-0.002,0.008l-0.001,0.014l-0.001,0.008l-0.001,0.013l-0.002,0.004l-0.002,0.006l-0.002,0.021l-0.003,0.016l-0.003,0.012l-0.002,0.006l-0.001,0.007l-0.001,0.013l-0.004,0.014l-0.004,0.011l0,0.012l-0.005,0.02l-0.011,0.004l-0.026,0l-0.009,0.001l-0.012,-0.001l-0.014,0.001l-0.006,0l-0.003,-0.001l-0.007,0.001l-0.012,0l-0.008,0.004l-0.001,0.01l0.008,0.006Z" style="fill:#ac333b;fill-rule:nonzero;"/></g><g transform="matrix(80.0436,0,0,80.0436,7707.28,716.241)"><path d="M0.286,-0.447l0.01,-0.001l0.002,-0.006l0,-0.004l0.001,-0.005l0.003,-0.017l0,-0.008l0.003,-0.006l0,-0.014l0.001,-0.006l0.003,-0.012l0.024,-0.001l0.065,0l0.012,-0.001l0.042,0l0.01,-0.001l0.003,-0.014l0.001,-0.006l0.004,-0.014l0,-0.008l0.003,-0.015l0.001,-0.006l0.001,-0.007l0.003,-0.007l0,-0.006l0.002,-0.025l0,-0.006l0.003,-0.011l-0.005,-0.007l-0.009,-0.001l-0.01,-0.001l-0.004,0.003l-0.002,0.028l0,0.006l-0.003,0.007l-0.001,0.007l-0.001,0.006l-0.003,0.015l0,0.008l-0.004,0.014l-0.001,0.006l-0.003,0.013l-0.01,0.001l-0.042,0l-0.012,0.001l-0.065,0l-0.024,0.001l-0.003,0.012l-0.001,0.007l0,0.014l-0.003,0.006l0,0.008l-0.003,0.019l-0.003,0.018l0,0.003l-0.002,0.01l0.002,0.002l0.015,0.001Zm-0.06,0.284l0.02,0l0.003,-0.002l0.002,-0.015l0.002,-0.009l0.003,-0.01l0.004,-0.028l0.003,-0.012l0.003,-0.008l0.004,-0.002l0.019,-0.001l0.011,0l0.017,0.001l0.025,-0.001l0.009,0l0.015,-0.001l0.01,0l0.002,-0.002l0.002,-0.016l0.003,-0.016l0.002,-0.014l0.003,-0.008l0,-0.007l0.003,-0.015l0.002,-0.007l0.003,-0.014l0.002,-0.011l0,-0.008l0.002,-0.012l-0.006,-0.008l-0.008,-0.002l-0.009,0l-0.004,0.002l0,0.008l-0.002,0.011l-0.003,0.014l-0.002,0.007l-0.003,0.015l0,0.007l-0.003,0.008l-0.002,0.014l-0.003,0.016l-0.002,0.014l-0.002,0.002l-0.01,0l-0.015,0.001l-0.009,0l-0.025,0.001l-0.017,-0.001l-0.011,0l-0.018,0.001l-0.005,0.002l-0.003,0.009l-0.003,0.013l-0.004,0.028l-0.003,0.01l-0.002,0.009l-0.001,0.01l-0.002,0.007l-0.001,0.008l0,0.008l0.004,0.004Zm-0.035,0.203l0.008,-0.001l0.016,-0.001l0.021,0l0.006,-0.001l0.013,0.001l0.016,-0.001l0.095,0l0.003,-0.011l0.002,-0.009l0.001,-0.017l0.003,-0.015l0.001,-0.007l0.002,-0.006l0.002,-0.007l0,-0.013l0.004,-0.022l0.001,-0.008l0.002,-0.011l0.001,-0.004l0.001,-0.008l-0.007,-0.003l-0.021,0.001l-0.001,0.005l-0.001,0.008l-0.004,0.022l0,0.013l-0.002,0.007l-0.002,0.006l-0.001,0.007l-0.003,0.015l-0.001,0.017l-0.002,0.009l-0.003,0.011l-0.095,0l-0.016,0.001l-0.013,-0.001l-0.006,0.001l-0.021,0l-0.016,0.001l-0.008,0.001l-0.019,-0.001l-0.026,0l-0.007,-0.001l-0.037,0l-0.003,0.009l0.003,0.009l0.009,0.002l0.053,0l0.007,0.001l0.026,0l0.019,0.001Z" style="fill:#ac333b;fill-rule:nonzero;"/></g><g transform="matrix(80.0436,0,0,80.0436,7739.69,716.241)"><path d="M0.296,-0.181l0.009,0l0.005,-0.007l0.002,-0.012l0.002,-0.008l0.005,-0.015l0.003,-0.012l0.006,-0.017l0.002,-0.006l0.006,-0.013l0.019,-0.038l0.01,-0.015l0.008,-0.01l0.007,-0.011l0.008,-0.01l0.006,-0.01l0.009,-0.012l0.006,-0.009l0.004,-0.007l0.006,-0.011l0.014,-0.028l0.003,-0.007l0.003,-0.008l0.002,-0.007l0.005,-0.014l0.001,-0.007l0.002,-0.008l0.002,-0.012l0.003,-0.021l0.001,-0.024l-0.001,-0.012l-0.003,-0.02l-0.001,-0.01l-0.005,-0.018l-0.002,-0.006l-0.004,-0.009l-0.008,-0.015l-0.006,-0.008l-0.007,0.005l0.003,0.007l0.007,0.021l0.003,0.014l0.002,0.018l-0.001,0.013l0,0.024l-0.004,0.021l-0.002,0.015l-0.002,0.006l-0.001,0.007l-0.005,0.014l-0.002,0.007l-0.002,0.009l-0.003,0.007l-0.006,0.013l-0.002,0.007l-0.006,0.011l-0.006,0.01l-0.005,0.011l-0.006,0.008l-0.007,0.011l-0.003,0.007l-0.009,0.011l-0.014,0.02l-0.01,0.014l-0.004,0.007l-0.013,0.024l-0.003,0.006l-0.006,0.013l-0.002,0.006l-0.006,0.016l-0.004,0.011l-0.005,0.015l-0.003,0.008l-0.003,0.012l-0.004,0.007l-0.007,0l-0.056,-0.003l-0.018,0l-0.018,-0.001l-0.003,0l-0.001,0.012l0.005,0.008l0.015,0.001l0.007,0l0.018,0.001l0.02,0l0.05,0.003Zm-0.166,-0.258l0.058,0l0.017,-0.002l0.017,-0.004l0.003,-0.002l0.007,-0.011l0.002,-0.009l0.002,-0.017l0.001,-0.007l0.001,-0.017l0,-0.008l0.002,-0.015l0.003,-0.014l0.006,-0.004l0.007,0l0,-0.007l-0.002,-0.008l-0.006,-0.005l-0.009,0l-0.01,0.005l-0.007,0.013l-0.004,0.015l-0.001,0.008l0,0.017l-0.002,0.007l-0.002,0.018l-0.002,0.014l-0.007,0.01l-0.01,0.002l-0.014,-0.001l-0.017,0.002l-0.048,0l-0.003,0.003l0.003,0.014l0.015,0.003Zm0.078,0.479l0.028,-0.001l0.018,0.001l0.008,0l0.012,-0.003l0.01,-0.008l0.008,-0.01l0,-0.011l0.004,-0.012l-0.001,-0.012l0.002,-0.014l0.004,-0.016l0.001,-0.01l0,-0.006l0.004,-0.011l0,-0.014l-0.005,-0.011l-0.007,-0.007l-0.009,-0.002l-0.004,0.004l-0.002,0.01l0,0.011l-0.002,0.006l-0.002,0.01l-0.003,0.016l0,0.014l-0.003,0.012l-0.002,0.012l0,0.011l-0.007,0.009l-0.013,0.009l-0.011,0.003l-0.006,0l-0.048,-0.002l-0.019,-0.001l-0.013,0l-0.002,0.013l0.005,0.004l0.01,0.002l0.011,0.002l0.013,0.001l0.021,0.001Z" style="fill:#ac333b;fill-rule:nonzero;"/></g></g></g></svg>