<svg width="152" height="32" viewBox="0 0 152 32" fill="none" xmlns="http://www.w3.org/2000/svg">
<path d="M6.85938 31.0391C5.60938 31.0391 4.5026 30.8828 3.53906 30.5703C2.58854 30.2578 1.56641 29.6979 0.472656 28.8906V23.5195C1.14974 24.2357 1.67057 24.724 2.03516 24.9844C2.39974 25.2318 2.84245 25.4987 3.36328 25.7852C3.89714 26.0716 4.48307 26.3125 5.12109 26.5078C5.75911 26.7031 6.39062 26.8008 7.01562 26.8008C8.30469 26.8008 9.35938 26.3581 10.1797 25.4727C11.013 24.5742 11.4297 23.513 11.4297 22.2891C11.4297 21.2865 11.0781 20.4727 10.375 19.8477C9.67188 19.2227 8.51953 18.5065 6.91797 17.6992C5.95443 17.2044 5.14062 16.7552 4.47656 16.3516C3.8125 15.9479 3.17448 15.4466 2.5625 14.8477C1.95052 14.2487 1.45573 13.5391 1.07812 12.7188C0.700521 11.8854 0.511719 10.9089 0.511719 9.78906C0.563802 8.69531 0.830729 7.67969 1.3125 6.74219C1.79427 5.79167 2.44531 4.96484 3.26562 4.26172C4.08594 3.54557 5.01693 2.99219 6.05859 2.60156C7.11328 2.21094 8.22005 2.01562 9.37891 2.01562C10.2513 2.04167 11.0456 2.16536 11.7617 2.38672C12.4779 2.59505 13.2917 2.97917 14.2031 3.53906V8.05078C13.6562 7.6862 13.2786 7.46484 13.0703 7.38672C12.875 7.29557 12.5885 7.15234 12.2109 6.95703C11.8464 6.7487 11.4167 6.57292 10.9219 6.42969C10.4401 6.28646 9.92578 6.21484 9.37891 6.21484C8.15495 6.22786 7.11979 6.61849 6.27344 7.38672C5.42708 8.14193 5.00391 9.02083 5.00391 10.0234C5.02995 10.974 5.38151 11.7357 6.05859 12.3086C6.7487 12.8685 7.85547 13.5 9.37891 14.2031C10.4206 14.6979 11.2669 15.1341 11.918 15.5117C12.582 15.8893 13.2331 16.3776 13.8711 16.9766C14.5091 17.5755 15.0234 18.3307 15.4141 19.2422C15.8047 20.1536 16.013 21.2344 16.0391 22.4844C16.0391 23.6302 15.7982 24.724 15.3164 25.7656C14.8346 26.7943 14.1641 27.7057 13.3047 28.5C12.4453 29.2943 11.4557 29.9193 10.3359 30.375C9.22917 30.8177 8.07031 31.0391 6.85938 31.0391ZM50.2969 16.5469C50.2969 18.5521 49.9062 20.4336 49.125 22.1914C48.3568 23.9362 47.3021 25.4596 45.9609 26.7617C44.6198 28.0638 43.0573 29.099 41.2734 29.8672C39.4896 30.6224 37.5755 31 35.5312 31C33.474 31 31.5534 30.6224 29.7695 29.8672C27.9857 29.099 26.4232 28.0638 25.082 26.7617C23.7409 25.4596 22.6797 23.9362 21.8984 22.1914C21.1302 20.4336 20.7461 18.5521 20.7461 16.5469C20.7461 14.5547 21.1302 12.6732 21.8984 10.9023C22.6797 9.11849 23.7409 7.57552 25.082 6.27344C26.4232 4.97135 27.9857 3.94271 29.7695 3.1875C31.5534 2.43229 33.474 2.05469 35.5312 2.05469C37.5755 2.05469 39.4896 2.43229 41.2734 3.1875C43.0573 3.94271 44.6198 4.97135 45.9609 6.27344C47.3021 7.57552 48.3568 9.11849 49.125 10.9023C49.9062 12.6732 50.2969 14.5547 50.2969 16.5469ZM25.4727 16.5469C25.4727 17.9401 25.7331 19.2487 26.2539 20.4727C26.7747 21.6836 27.4909 22.7448 28.4023 23.6562C29.3138 24.5547 30.3815 25.2643 31.6055 25.7852C32.8294 26.293 34.138 26.5469 35.5312 26.5469C36.9115 26.5469 38.2135 26.293 39.4375 25.7852C40.6615 25.2643 41.7227 24.5547 42.6211 23.6562C43.5326 22.7448 44.2487 21.6836 44.7695 20.4727C45.2904 19.2487 45.5508 17.9401 45.5508 16.5469C45.5508 15.1536 45.2904 13.8516 44.7695 12.6406C44.2487 11.4167 43.5326 10.3555 42.6211 9.45703C41.7227 8.54557 40.6615 7.83594 39.4375 7.32812C38.2135 6.82031 36.9115 6.56641 35.5312 6.56641C34.138 6.56641 32.8294 6.82031 31.6055 7.32812C30.3815 7.83594 29.3138 8.54557 28.4023 9.45703C27.4909 10.3555 26.7747 11.4167 26.2539 12.6406C25.7331 13.8516 25.4727 15.1536 25.4727 16.5469ZM75.2188 24.9844V29.9844C73.526 30.6615 71.7161 31 69.7891 31C67.7318 31 65.8112 30.6224 64.0273 29.8672C62.2435 29.099 60.681 28.0638 59.3398 26.7617C57.9987 25.4596 56.9375 23.9362 56.1562 22.1914C55.388 20.4336 55.0039 18.5521 55.0039 16.5469C55.0039 14.5547 55.388 12.6732 56.1562 10.9023C56.9375 9.11849 57.9987 7.57552 59.3398 6.27344C60.681 4.97135 62.2435 3.94271 64.0273 3.1875C65.8112 2.43229 67.7318 2.05469 69.7891 2.05469C71.7161 2.05469 73.526 2.38672 75.2188 3.05078V8.10938C74.737 7.8099 74.2292 7.54948 73.6953 7.32812C72.4714 6.82031 71.1693 6.56641 69.7891 6.56641C68.3958 6.56641 67.0872 6.82031 65.8633 7.32812C64.6393 7.83594 63.5716 8.54557 62.6602 9.45703C61.7487 10.3555 61.0326 11.4167 60.5117 12.6406C59.9909 13.8516 59.7305 15.1536 59.7305 16.5469C59.7305 17.9401 59.9909 19.2487 60.5117 20.4727C61.0326 21.6836 61.7487 22.7448 62.6602 23.6562C63.5716 24.5547 64.6393 25.2643 65.8633 25.7852C67.0872 26.293 68.3958 26.5469 69.7891 26.5469C71.1693 26.5469 72.4714 26.2865 73.6953 25.7656C74.2292 25.5443 74.737 25.2839 75.2188 24.9844ZM79.9258 2.09375H84.3008V31H79.9258V2.09375ZM95.2188 27.1133L93.6758 31.0977H88.9883L100.59 0.941406L112.172 31.0977H107.484L105.961 27.1133H95.2188ZM96.8984 22.7383H104.281L100.59 13.1484L96.8984 22.7383ZM116.879 2.25H121.273V26.625H131.254V31H116.879V2.25ZM142.328 31.0391C141.078 31.0391 139.971 30.8828 139.008 30.5703C138.057 30.2578 137.035 29.6979 135.941 28.8906V23.5195C136.618 24.2357 137.139 24.724 137.504 24.9844C137.868 25.2318 138.311 25.4987 138.832 25.7852C139.366 26.0716 139.952 26.3125 140.59 26.5078C141.228 26.7031 141.859 26.8008 142.484 26.8008C143.773 26.8008 144.828 26.3581 145.648 25.4727C146.482 24.5742 146.898 23.513 146.898 22.2891C146.898 21.2865 146.547 20.4727 145.844 19.8477C145.141 19.2227 143.988 18.5065 142.387 17.6992C141.423 17.2044 140.609 16.7552 139.945 16.3516C139.281 15.9479 138.643 15.4466 138.031 14.8477C137.419 14.2487 136.924 13.5391 136.547 12.7188C136.169 11.8854 135.98 10.9089 135.98 9.78906C136.033 8.69531 136.299 7.67969 136.781 6.74219C137.263 5.79167 137.914 4.96484 138.734 4.26172C139.555 3.54557 140.486 2.99219 141.527 2.60156C142.582 2.21094 143.689 2.01562 144.848 2.01562C145.72 2.04167 146.514 2.16536 147.23 2.38672C147.947 2.59505 148.76 2.97917 149.672 3.53906V8.05078C149.125 7.6862 148.747 7.46484 148.539 7.38672C148.344 7.29557 148.057 7.15234 147.68 6.95703C147.315 6.7487 146.885 6.57292 146.391 6.42969C145.909 6.28646 145.395 6.21484 144.848 6.21484C143.624 6.22786 142.589 6.61849 141.742 7.38672C140.896 8.14193 140.473 9.02083 140.473 10.0234C140.499 10.974 140.85 11.7357 141.527 12.3086C142.217 12.8685 143.324 13.5 144.848 14.2031C145.889 14.6979 146.736 15.1341 147.387 15.5117C148.051 15.8893 148.702 16.3776 149.34 16.9766C149.978 17.5755 150.492 18.3307 150.883 19.2422C151.273 20.1536 151.482 21.2344 151.508 22.4844C151.508 23.6302 151.267 24.724 150.785 25.7656C150.303 26.7943 149.633 27.7057 148.773 28.5C147.914 29.2943 146.924 29.9193 145.805 30.375C144.698 30.8177 143.539 31.0391 142.328 31.0391Z" fill="black"/>
</svg>
