<svg xmlns="http://www.w3.org/2000/svg" xmlns:xlink="http://www.w3.org/1999/xlink" width="100%" height="100%" version="1.1" viewBox="0 0 72 72" xml:space="preserve" style="fill-rule:evenodd;clip-rule:evenodd;stroke-linecap:round;stroke-linejoin:round;stroke-miterlimit:1.5"><circle cx="36" cy="36" r="36" style="fill:#fff"/><clipPath id="_clip1"><circle cx="36" cy="36" r="36"/></clipPath><g clip-path="url(#_clip1)"><path d="M55.2,20.4l-7.2,-7.2l-28.08,0c-1.723,0 -3.12,1.397 -3.12,3.12l0,39.36c0,1.723 1.397,3.12 3.12,3.12l32.16,0c1.723,0 3.12,-1.397 3.12,-3.12l0,-35.28Z" style="fill:#fff;stroke:#000;stroke-width:2.06px"/><rect width="31.68" height="27.84" x="20.16" y="27.6" style="fill:#fff;stroke:#000;stroke-width:2.06px"/><path d="M36,38.504c1.617,-4.424 4.851,-4.424 6.467,-2.984c1.617,1.44 1.617,4.32 0,7.2c-1.131,2.16 -4.042,4.32 -6.467,5.76c-2.425,-1.44 -5.336,-3.6 -6.467,-5.76c-1.617,-2.88 -1.617,-5.76 0,-7.2c1.616,-1.44 4.85,-1.44 6.467,2.984Z" style="fill:#fff;stroke:#000;stroke-width:2.06px"/><rect width="4.08" height="7.2" x="20.16" y="16.56" style="fill:#fff;stroke:#000;stroke-width:2.06px"/><rect width="4.08" height="7.2" x="27.59" y="16.56" style="fill:#fff;stroke:#000;stroke-width:2.06px"/><rect width="4.08" height="7.2" x="35.02" y="16.56" style="fill:#fff;stroke:#000;stroke-width:2.06px"/></g></svg>