<?xml version="1.0" encoding="UTF-8" standalone="no"?><!DOCTYPE svg PUBLIC "-//W3C//DTD SVG 1.1//EN" "http://www.w3.org/Graphics/SVG/1.1/DTD/svg11.dtd"><svg width="100%" height="100%" viewBox="0 0 273 48" version="1.1" xmlns="http://www.w3.org/2000/svg" xmlns:xlink="http://www.w3.org/1999/xlink" xml:space="preserve" xmlns:serif="http://www.serif.com/" style="fill-rule:evenodd;clip-rule:evenodd;stroke-linejoin:round;stroke-miterlimit:2;"><g id="Join-the-Fun" serif:id="Join the Fun"><g transform="matrix(0.654643,4.93038e-32,2.46519e-32,0.654643,-4769.36,-424.639)"><g transform="matrix(96,0,0,96,7281.98,716.241)"><path d="M0.223,0.047l0.016,-0.001l0.021,-0.002l0.016,-0.003l0.018,-0.005l0.014,-0.005l0.01,-0.003l0.008,-0.003l0.009,-0.004l0.01,-0.006l0.011,-0.008l0.013,-0.012l0.011,-0.01l0.014,-0.018l0.006,-0.009l0.004,-0.008l0.005,-0.008l0.004,-0.011l0.003,-0.01l0.01,-0.02l0,-0.007l0.004,-0.007l0.002,-0.014l0.002,-0.009l0.003,-0.008l0,-0.007l0.002,-0.007l0.002,-0.008l0.003,-0.009l0.002,-0.009l-0.001,-0.011l0.003,-0.014l0.002,-0.012l0.004,-0.01l0,-0.01l0.002,-0.006l0.002,-0.007l0,-0.007l0.004,-0.011l0.003,-0.019l0.003,-0.017l0.003,-0.012l0.002,-0.012l0.001,-0.012l0.002,-0.013l0.002,-0.01l-0.001,-0.006l0.003,-0.01l0.004,-0.01l0.001,-0.013l0.001,-0.014l0.002,-0.014l0.001,-0.008l0.003,-0.008l0.004,-0.01l-0.001,-0.014l0.002,-0.02l0.006,-0.024l0.007,-0.022l0.002,-0.01l0.001,-0.01l0.002,-0.017l0.003,-0.017l0.002,-0.007l0.001,-0.006l0,-0.014l0.001,-0.006l0.002,-0.007l0,-0.006l-0.002,-0.009l-0.006,-0.007l-0.009,-0.003l-0.003,0l-0.004,-0.001l-0.002,0.003l-0.003,0.007l0,0.006l-0.001,0.007l0.001,0.007l-0.002,0.006l-0.001,0.007l-0.002,0.011l-0.001,0.017l-0.001,0.014l-0.003,0.01l-0.005,0.016l-0.005,0.023l-0.003,0.017l-0.001,0.01l-0.001,0.012l-0.003,0.012l0,0.009l-0.003,0.008l-0.001,0.008l-0.001,0.007l-0.003,0.01l-0.002,0.013l-0.003,0.012l-0.001,0.01l0,0.008l-0.002,0.008l0,0.012l-0.003,0.012l-0.001,0.012l-0.006,0.012l0.001,0.015l-0.005,0.018l-0.003,0.015l-0.004,0.009l0.001,0.007l-0.001,0.006l0,0.008l-0.003,0.01l-0.003,0.011l-0.003,0.013l-0.002,0.013l-0.001,0.009l0,0.009l-0.004,0.009l-0.001,0.008l-0.001,0.007l0,0.007l-0.003,0.009l-0.002,0.008l0.001,0.007l-0.004,0.01l-0.003,0.011l-0.004,0.01l-0.005,0.01l-0.004,0.013l-0.002,0.009l-0.004,0.008l-0.006,0.01l-0.005,0.009l-0.014,0.016l-0.013,0.012l-0.015,0.012l-0.014,0.008l-0.01,0.005l-0.01,0.004l-0.008,0.003l-0.023,0.008l-0.019,0.003l-0.023,0.002l-0.016,0.001l-0.013,-0.001l-0.012,0l-0.009,-0.001l-0.008,0l-0.008,-0.002l-0.009,-0.002l-0.002,0.008l0.007,0.004l0.015,0.006l0.012,0.003l0.015,0.001l0.01,0.002l0.011,0l0.008,0.001Zm0.009,-0.577l0.053,0l0.003,-0.002l0.001,-0.01l0.002,-0.008l-0.058,-0.002l-0.016,0.002l-0.021,-0.001l-0.003,0.004l0.003,0.01l0.007,0.005l0.009,0.001l0.02,0.001Zm-0.026,0.388l0.006,-0.002l0.001,-0.004l0.002,-0.009l0.001,-0.022l0.003,-0.014l0,-0.007l0.003,-0.017l0.003,-0.025l0.001,-0.021l-0.002,-0.011l-0.005,-0.007l-0.006,-0.002l-0.008,-0.001l-0.001,0.012l-0.001,0.023l-0.004,0.021l-0.001,0.018l-0.003,0.023l-0.001,0.01l0,0.008l0.002,0.013l0.002,0.011l0.008,0.003Z" style="fill:#ac333b;fill-rule:nonzero;"/></g><g transform="matrix(80,0,0,80,7323.55,716.241)"><path d="M0.247,0.055l0.013,0l0.026,-0.001l0.022,-0.002l0.011,-0.003l0.007,-0.001l0.014,-0.003l0.008,-0.004l0.011,-0.003l0.015,-0.008l0.004,-0.003l0.012,-0.007l0.012,-0.009l0.007,-0.006l0.006,-0.005l0.009,-0.011l0.005,-0.008l0.007,-0.01l0.004,-0.006l0.007,-0.009l0.004,-0.007l0.008,-0.015l0.007,-0.014l0.003,-0.01l0.003,-0.007l0.005,-0.011l0,-0.007l0.004,-0.012l0.005,-0.011l0.001,-0.011l0.003,-0.006l0.004,-0.012l-0.001,-0.006l0.004,-0.014l0.003,-0.007l0.004,-0.014l0.005,-0.02l0.002,-0.007l0,-0.009l0.002,-0.005l0.001,-0.013l0.003,-0.006l0.003,-0.013l0.001,-0.012l0.003,-0.013l0.002,-0.013l0.004,-0.013l-0.001,-0.012l0.005,-0.011l-0.001,-0.01l0.002,-0.016l0.002,-0.007l0.001,-0.016l0.001,-0.015l0.002,-0.014l0.001,-0.006l0,-0.01l-0.001,-0.007l0.001,-0.006l0.002,-0.007l0.001,-0.013l0,-0.007l-0.001,-0.013l0.001,-0.006l0.001,-0.013l0,-0.007l-0.001,-0.008l-0.002,-0.019l-0.001,-0.015l-0.002,-0.007l-0.002,-0.006l-0.001,-0.006l-0.004,-0.012l-0.002,-0.008l-0.006,-0.014l-0.016,-0.016l-0.004,0.001l0.004,0.009l0.004,0.008l0.003,0.009l0.001,0.009l0.002,0.006l0,0.007l0.001,0.015l0,0.019l0.001,0.008l0,0.007l-0.001,0.013l-0.001,0.006l0.001,0.013l0,0.007l-0.001,0.013l-0.002,0.007l-0.001,0.006l0.001,0.007l0,0.01l-0.001,0.006l-0.002,0.014l-0.001,0.015l-0.001,0.016l-0.002,0.007l-0.002,0.016l0.001,0.01l-0.005,0.011l0.001,0.012l-0.004,0.013l-0.002,0.013l-0.003,0.013l-0.001,0.012l-0.003,0.013l-0.003,0.006l-0.001,0.013l-0.002,0.005l0,0.009l-0.002,0.007l-0.002,0.014l-0.003,0.006l-0.01,0.035l0.001,0.006l-0.005,0.012l-0.003,0.006l-0.001,0.011l-0.005,0.011l-0.003,0.012l0,0.007l-0.003,0.011l-0.005,0.007l-0.001,0.01l-0.007,0.014l-0.008,0.018l-0.005,0.007l-0.007,0.013l-0.004,0.006l-0.005,0.006l-0.004,0.006l-0.012,0.012l-0.006,0.005l-0.005,0.006l-0.012,0.009l-0.012,0.008l-0.004,0.003l-0.023,0.009l-0.007,0.001l-0.008,0.002l-0.014,0.003l-0.007,0.001l-0.011,0.003l-0.022,0.004l-0.026,-0.001l-0.013,0.001l-0.007,-0.001l-0.009,-0.001l-0.023,-0.004l-0.016,-0.003l-0.002,0.005l0.013,0.007l0.007,0.004l0.015,0.003l0.008,0.001l0.023,0.006l0.009,0.001l0.007,0.001Zm-0.011,-0.196l0.001,-0.013l0.003,-0.014l-0.002,-0.008l0.002,-0.007l0,-0.007l0.004,-0.015l0,-0.008l0.002,-0.007l0,-0.008l0.002,-0.009l-0.001,-0.004l0.002,-0.007l-0.001,-0.008l0.003,-0.014l0.002,-0.007l0.001,-0.008l0.001,-0.007l0,-0.007l0.001,-0.014l0.002,-0.007l0.004,-0.016l0.003,-0.008l0.002,-0.015l0.002,-0.007l0.001,-0.007l0.003,-0.016l0.003,-0.014l0.004,-0.014l0.001,-0.006l0.003,-0.014l0.001,-0.008l0,-0.002l0.006,-0.021l0.002,-0.008l0.002,-0.007l0.003,-0.014l0.007,-0.021l0.007,-0.011l0.008,-0.007l0.009,-0.004l0.011,0l0.001,-0.005l-0.001,-0.01l-0.005,-0.007l-0.007,-0.001l-0.011,0.001l-0.013,0.007l-0.01,0.009l-0.007,0.011l-0.004,0.012l-0.004,0.007l-0.006,0.013l-0.002,0.007l-0.002,0.008l-0.006,0.021l0,0.002l-0.001,0.008l-0.003,0.014l-0.001,0.006l-0.004,0.014l-0.003,0.014l-0.003,0.016l-0.001,0.007l-0.002,0.007l-0.002,0.015l-0.003,0.008l-0.004,0.016l-0.002,0.007l-0.002,0.014l0,0.007l-0.001,0.007l0.001,0.008l-0.003,0.007l-0.005,0.014l0.001,0.008l-0.002,0.007l0.001,0.004l-0.002,0.009l0,0.008l-0.002,0.007l0,0.008l-0.003,0.015l0,0.007l-0.003,0.007l0.003,0.007l-0.001,0.012l0,0.008l0.001,0.011l0.006,0.012l0.008,0.004l0.005,0.001Z" style="fill:#ac333b;fill-rule:nonzero;"/></g><g transform="matrix(80,0,0,80,7362.35,716.241)"><path d="M0.182,0.042l0.026,-0.001l0.011,-0.003l0.003,-0.009l0.001,-0.008l0.003,-0.013l0.002,-0.014l0.003,-0.013l0.004,-0.024l0.003,-0.011l0,-0.007l0.002,-0.013l0.002,-0.014l0.003,-0.014l0,-0.008l0.004,-0.013l0.001,-0.008l0.003,-0.015l-0.001,-0.011l0.005,-0.01l0,-0.014l0.001,-0.005l0.002,-0.014l0,-0.008l0.004,-0.014l0,-0.008l0.004,-0.014l0.002,-0.012l0.002,-0.013l0.003,-0.013l0,-0.008l0.003,-0.007l0.004,-0.014l0.005,-0.03l0.003,-0.01l0.002,-0.013l0,-0.007l0.001,-0.008l0.001,-0.007l0,-0.009l0.003,-0.009l0.003,-0.014l0.001,-0.005l0.003,-0.013l0.003,-0.012l0.002,-0.013l0.001,-0.007l0.001,-0.012l0.001,-0.007l0.002,-0.012l0.002,-0.006l0.002,-0.011l0.005,-0.026l0.001,-0.006l0,-0.007l0.001,-0.006l0,-0.008l0.004,-0.009l0.002,-0.014l0.003,-0.005l0,-0.009l0.003,-0.004l-0.001,-0.006l0.001,-0.011l0.002,-0.003l0,-0.013l0.001,-0.006l-0.004,-0.01l-0.011,-0.003l-0.007,0.001l-0.007,0l0,0.016l-0.001,0.008l0,0.006l-0.001,0.006l-0.002,0.007l-0.002,0.008l-0.004,0.011l-0.002,0.01l0.001,0.007l-0.002,0.007l0.001,0.007l-0.001,0.011l-0.004,0.017l-0.002,0.014l-0.004,0.008l-0.002,0.01l0,0.019l-0.004,0.009l-0.002,0.012l-0.003,0.012l-0.003,0.011l0,0.009l-0.002,0.011l-0.003,0.01l-0.002,0.016l0,0.016l-0.003,0.011l-0.002,0.011l-0.003,0.01l-0.002,0.009l0,0.01l-0.002,0.008l-0.004,0.007l0,0.007l-0.003,0.009l-0.001,0.012l-0.001,0.013l-0.004,0.012l-0.001,0.012l-0.004,0.011l-0.004,0.022l-0.001,0.011l0,0.009l-0.001,0.011l-0.004,0.011l0,0.012l-0.001,0.012l-0.005,0.011l0,0.011l-0.003,0.01l0,0.013l-0.004,0.014l-0.002,0.011l-0.002,0.01l-0.001,0.009l-0.003,0.008l-0.001,0.009l0,0.01l-0.004,0.011l-0.001,0.014l0,0.012l-0.004,0.009l-0.005,0.007l-0.012,0.004l-0.022,0.001l-0.028,-0.001l-0.017,-0.001l-0.006,-0.001l-0.024,0l-0.008,-0.001l0.001,0.013l0.008,0.007l0.008,0.002l0.008,-0.001l0.007,0.001l0.011,0.001l0.007,-0.001l0.008,0l0.014,0.002l0.029,0l0.007,0.001Z" style="fill:#ac333b;fill-rule:nonzero;"/></g><g transform="matrix(80,0,0,80,7383.39,716.241)"><path d="M0.362,0.04l0.087,0l0.006,-0.001l0.013,-0.002l0.013,-0.004l0.007,-0.01l0.008,-0.022l0.003,-0.023l0.005,-0.01l0.001,-0.006l0,-0.01l0.004,-0.014l0.003,-0.015l0.004,-0.022l0.002,-0.013l0,-0.012l0.005,-0.011l0.002,-0.011l0.003,-0.009l0.002,-0.012l0.004,-0.014l0.001,-0.01l0.001,-0.006l0.002,-0.007l-0.001,-0.006l0.002,-0.008l0.001,-0.009l0.003,-0.011l0.006,-0.02l0,-0.016l0.001,-0.006l0.002,-0.007l0.002,-0.006l0,-0.008l0.002,-0.008l0.002,-0.011l0.001,-0.014l0.002,-0.01l0.004,-0.01l0.003,-0.01l0.001,-0.008l0.001,-0.009l0,-0.01l0.005,-0.019l0.002,-0.019l0.001,-0.01l0.003,-0.01l0.001,-0.007l0.001,-0.009l0.004,-0.012l0.004,-0.016l0.003,-0.019l0.001,-0.014l0.002,-0.013l0.004,-0.015l0.005,-0.017l0.005,-0.019l0,-0.018l0.001,-0.015l0.003,-0.011l0.002,-0.011l-0.002,-0.008l-0.004,-0.006l-0.009,-0.003l-0.011,-0.001l-0.001,0l-0.002,0.005l0,0.017l-0.003,0.022l-0.004,0.015l-0.002,0.013l-0.003,0.012l-0.002,0.011l-0.002,0.01l-0.001,0.008l0,0.008l-0.003,0.007l0,0.007l-0.002,0.009l-0.004,0.014l-0.002,0.014l-0.004,0.011l0,0.008l-0.003,0.008l0,0.01l-0.002,0.015l-0.004,0.019l-0.002,0.014l0,0.01l-0.003,0.008l-0.002,0.009l-0.003,0.01l-0.001,0.01l-0.004,0.024l-0.003,0.01l-0.001,0.008l-0.002,0.007l-0.001,0.007l-0.001,0.006l0.001,0.007l-0.003,0.008l-0.001,0.009l-0.001,0.01l-0.004,0.011l-0.001,0.01l-0.003,0.008l0,0.007l-0.001,0.007l-0.002,0.006l0.002,0.008l-0.004,0.012l-0.001,0.013l-0.005,0.011l-0.003,0.01l-0.006,0.022l-0.002,0.013l0,0.012l-0.004,0.01l-0.002,0.013l-0.002,0.015l-0.003,0.012l-0.003,0.008l0.001,0.008l-0.003,0.017l-0.006,0.022l-0.009,0.016l-0.011,0.006l-0.012,0.003l-0.009,0.001l-0.01,0.001l-0.021,-0.001l-0.032,0.001l-0.019,-0.001l-0.004,0.005l0.007,0.014l0.014,0.003Zm0.011,-0.483l0.003,-0.021l0.001,-0.015l0.002,-0.016l-0.001,-0.005l-0.001,-0.011l-0.003,-0.007l-0.002,-0.012l-0.004,-0.016l-0.002,-0.016l-0.002,-0.02l-0.003,-0.019l-0.004,-0.013l-0.001,-0.011l-0.003,-0.011l-0.004,-0.009l-0.001,-0.008l-0.011,-0.006l-0.008,0.008l0.002,0.012l0.004,0.012l0.002,0.015l0.002,0.02l0.005,0.018l0,0.016l0.004,0.016l0.003,0.016l0.003,0.011l0,0.009l0.006,0.024l0.002,0.018l0.003,0.009l0.003,0.011l0.005,0.001Zm-0.278,0.484l0.106,0l0.008,-0.004l0.003,-0.01l0.003,-0.012l0.003,-0.018l0.002,-0.006l0.002,-0.013l0.001,-0.007l0.003,-0.013l0.004,-0.029l0.001,-0.008l0.001,-0.006l0.002,-0.014l0.004,-0.02l0.002,-0.013l0.002,-0.014l0.001,-0.006l0,-0.007l0.002,-0.007l0,-0.012l0.001,-0.012l-0.002,-0.027l-0.003,-0.026l-0.002,-0.023l-0.004,0l-0.005,0.041l-0.002,0.006l-0.003,0.013l0.002,0.007l-0.003,0.012l-0.002,0.007l0.001,0.007l-0.001,0.006l-0.002,0.014l-0.004,0.015l-0.004,0.02l-0.002,0.014l-0.001,0.006l-0.002,0.007l-0.004,0.029l-0.003,0.013l-0.001,0.007l0,0.013l-0.002,0.006l-0.003,0.018l-0.004,0.012l-0.003,0.01l-0.011,0.004l-0.099,0l-0.002,0.006l0.005,0.012l0.015,0.002Z" style="fill:#ac333b;fill-rule:nonzero;"/></g><g transform="matrix(96,0,0,96,7448.01,716.241)"><path d="M0.168,0.042l0.012,-0.003l0.087,0l0.012,-0.005l0.002,-0.006l0.003,-0.014l0.002,-0.014l0.006,-0.028l0.005,-0.022l-0.001,-0.008l0.003,-0.014l0.002,-0.008l0.005,-0.021l0.003,-0.013l0.001,-0.007l0.004,-0.013l0.003,-0.016l0.003,-0.014l-0.001,-0.007l0.001,-0.006l0.001,-0.007l0.004,-0.012l0.001,-0.007l0.002,-0.006l0.001,-0.006l0,-0.01l0.002,-0.009l0.003,-0.015l0.003,-0.014l0,-0.006l0.002,-0.006l0.001,-0.014l0.004,-0.007l0.003,-0.012l0.001,-0.013l0,-0.007l0.003,-0.006l0.003,-0.014l0.002,-0.007l0.002,-0.015l0.005,-0.012l0,-0.007l0.001,-0.006l0.001,-0.012l0,-0.006l0.004,-0.013l0.005,-0.014l-0.002,-0.005l0.004,-0.008l0.004,-0.018l0.001,-0.007l0.002,-0.013l0.002,-0.006l0,-0.006l0.003,-0.007l-0.001,-0.006l0.002,-0.006l0.009,-0.001l0.042,0.001l0.01,0l0.009,-0.001l0.012,0l0.009,0.001l0.01,-0.001l0.004,-0.01l0.001,-0.014l0.002,-0.007l0.004,-0.013l0.001,-0.012l0.001,-0.006l0.002,-0.007l0.002,-0.012l0,-0.006l0.002,-0.007l0.001,-0.006l0,-0.007l0.002,-0.008l0.001,-0.007l0,-0.006l-0.002,-0.008l-0.009,-0.002l-0.01,-0.001l-0.005,0.004l-0.002,0.008l0,0.007l-0.001,0.006l-0.002,0.007l0,0.006l-0.002,0.012l-0.002,0.007l-0.001,0.006l-0.001,0.012l-0.004,0.013l-0.002,0.007l-0.001,0.014l-0.004,0.009l-0.01,0.001l-0.009,-0.001l-0.012,0l-0.009,0.001l-0.01,0l-0.042,-0.001l-0.009,0.001l-0.002,0.007l0.001,0.006l-0.003,0.007l0,0.006l-0.002,0.006l-0.002,0.013l-0.001,0.007l-0.004,0.018l-0.004,0.008l0.002,0.005l-0.005,0.014l-0.004,0.013l0,0.006l-0.001,0.012l-0.001,0.006l0,0.007l-0.005,0.012l-0.002,0.015l-0.002,0.007l-0.003,0.014l-0.003,0.006l0,0.007l-0.001,0.013l-0.003,0.012l-0.004,0.007l-0.001,0.014l-0.002,0.006l0,0.006l-0.003,0.014l-0.003,0.015l-0.002,0.009l0,0.01l-0.001,0.006l-0.002,0.006l-0.001,0.007l-0.004,0.012l-0.001,0.007l-0.001,0.006l0.001,0.007l-0.003,0.014l-0.003,0.016l-0.004,0.013l-0.001,0.007l-0.003,0.013l-0.005,0.021l-0.002,0.008l-0.003,0.014l0.001,0.008l-0.005,0.022l-0.006,0.028l-0.002,0.014l-0.003,0.014l-0.002,0.006l-0.012,0.005l-0.087,0l-0.011,0.003l-0.001,0.009l0.009,0.008l0.007,0l0.009,0.003Zm-0.011,-0.565l0.009,0l0.005,-0.001l0.007,0l0.002,-0.005l0.002,-0.014l-0.02,0l-0.012,-0.001l-0.007,0.001l-0.013,0l-0.001,0.007l0.003,0.009l0.009,0.003l0.008,0l0.008,0.001Z" style="fill:#ac333b;fill-rule:nonzero;"/></g><g transform="matrix(80,0,0,80,7485.45,716.241)"><path d="M0.293,-0.444l0.017,-0.001l0.002,-0.013l0.002,-0.005l0.002,-0.012l0.001,-0.012l0.002,-0.005l0.001,-0.013l0.002,-0.008l0.002,-0.007l0,-0.016l0.003,-0.007l0.001,-0.012l0.002,-0.014l0.004,-0.019l0.001,-0.009l0.003,-0.009l0.001,-0.014l0.001,-0.006l0.003,-0.012l-0.001,-0.007l0,-0.006l-0.002,-0.009l-0.01,-0.002l-0.012,-0.002l0,0.006l-0.003,0.012l-0.001,0.006l-0.001,0.014l-0.003,0.009l-0.001,0.009l-0.004,0.019l-0.002,0.014l-0.001,0.012l-0.003,0.007l0,0.016l-0.002,0.007l-0.002,0.008l-0.001,0.013l-0.002,0.005l-0.001,0.012l0,0.006l-0.002,0.005l-0.002,0.008l-0.002,0.013l-0.003,0.006l0.001,0.011l0.01,0.002Zm0.091,0.485l0.008,-0.001l0.02,0l0.013,-0.001l0.006,-0.001l0.015,0l0.012,-0.003l0.004,-0.006l0.002,-0.007l0,-0.008l0.002,-0.007l0.001,-0.008l0.003,-0.005l0.002,-0.012l0.001,-0.011l0.002,-0.007l0.002,-0.013l0.001,-0.007l0.003,-0.014l0.001,-0.016l0.001,-0.014l0.002,-0.006l0.003,-0.011l0.003,-0.014l0.001,-0.007l0,-0.008l0.003,-0.014l0.001,-0.007l0.002,-0.006l0.002,-0.007l-0.001,-0.006l0.006,-0.021l-0.001,-0.006l0.002,-0.007l0.003,-0.014l0.002,-0.011l0,-0.006l0.004,-0.018l0.001,-0.007l0.005,-0.013l0.001,-0.007l0,-0.013l0.001,-0.007l0.003,-0.006l-0.002,-0.007l0,-0.008l0.004,-0.006l0.001,-0.007l0.003,-0.014l0.001,-0.006l0.001,-0.015l0.005,-0.014l0.001,-0.015l0.002,-0.016l0.002,-0.013l0.001,-0.006l0.005,-0.012l0.001,-0.006l0.002,-0.013l0.001,-0.008l0.002,-0.007l0.001,-0.007l0.003,-0.013l0.001,-0.007l0.002,-0.013l0,-0.007l0.001,-0.013l0.002,-0.008l0.002,-0.007l0.001,-0.007l0,-0.008l0.001,-0.014l0.004,-0.012l0,-0.007l0.001,-0.006l-0.001,-0.004l0.004,-0.006l-0.001,-0.007l0.001,-0.006l-0.007,-0.009l-0.007,-0.003l-0.012,-0.001l-0.001,0.006l-0.002,0.006l0.001,0.004l-0.001,0.006l0,0.007l-0.004,0.012l-0.001,0.014l0,0.008l-0.001,0.007l-0.002,0.007l-0.002,0.008l-0.001,0.013l0,0.007l-0.002,0.013l-0.001,0.007l-0.003,0.013l-0.001,0.007l-0.002,0.007l-0.001,0.008l-0.002,0.013l-0.001,0.006l-0.005,0.012l-0.001,0.006l-0.002,0.013l-0.002,0.016l-0.001,0.015l-0.005,0.014l-0.001,0.015l-0.001,0.006l-0.003,0.014l-0.001,0.007l-0.004,0.006l0,0.008l0.002,0.007l-0.003,0.006l-0.001,0.007l0,0.013l-0.001,0.007l-0.005,0.013l-0.001,0.007l-0.004,0.018l0,0.006l-0.002,0.011l-0.003,0.014l-0.002,0.007l0.001,0.006l-0.006,0.021l0.001,0.006l-0.002,0.007l-0.002,0.006l-0.001,0.007l-0.003,0.014l0,0.008l-0.001,0.007l-0.003,0.014l-0.003,0.011l-0.002,0.006l-0.001,0.014l-0.001,0.016l-0.003,0.014l-0.001,0.007l-0.002,0.013l-0.002,0.007l-0.001,0.011l-0.002,0.012l-0.003,0.005l-0.001,0.008l-0.002,0.007l0,0.008l-0.002,0.007l-0.004,0.006l-0.012,0.003l-0.015,0l-0.006,0.001l-0.013,0.001l-0.02,0l-0.008,0.001l-0.008,-0.002l-0.032,0l0,0.001l-0.001,0.008l0.006,0.009l0.007,0.001l0.007,0l0.011,0.001l0.027,0l0.008,0.002Zm-0.242,-0.001l0.007,-0.002l0.007,-0.001l0.007,0.003l0.008,0l0.015,-0.002l0.012,-0.001l0.009,-0.001l0.008,-0.004l0.005,-0.01l0.002,-0.015l0.001,-0.007l0.002,-0.008l0.002,-0.014l0,-0.007l0.003,-0.014l0.001,-0.008l0.006,-0.028l0.002,-0.015l0.004,-0.013l0.001,-0.005l0.005,-0.012l-0.001,-0.006l0.006,-0.022l0.005,-0.023l0.002,-0.007l0,-0.017l0.004,-0.007l0.002,-0.013l0.004,-0.014l0.001,-0.008l0.001,-0.005l0.006,0l0.015,-0.001l0.002,-0.004l0.002,-0.013l-0.004,-0.001l-0.018,0.001l-0.011,-0.001l-0.017,-0.001l-0.001,0.005l-0.001,0.008l-0.004,0.014l-0.002,0.013l-0.004,0.007l0,0.017l-0.002,0.007l-0.005,0.023l-0.006,0.022l0.001,0.006l-0.005,0.012l-0.001,0.005l-0.004,0.013l-0.002,0.015l-0.006,0.028l-0.001,0.008l-0.003,0.014l0,0.007l-0.002,0.014l-0.002,0.008l-0.001,0.007l-0.002,0.015l-0.005,0.01l-0.008,0.004l-0.009,0.001l-0.012,0.001l-0.015,0.002l-0.008,0l-0.007,-0.003l-0.007,0.001l-0.007,0.002l-0.012,-0.002l-0.031,0l0,0.007l0.004,0.011l0.02,0.002l0.032,0l0.012,0.002Z" style="fill:#ac333b;fill-rule:nonzero;"/></g><g transform="matrix(80,0,0,80,7525.69,716.241)"><path d="M0.286,-0.447l0.01,-0.001l0.002,-0.006l0,-0.004l0.001,-0.005l0.003,-0.017l0,-0.008l0.003,-0.006l0,-0.014l0.001,-0.006l0.003,-0.012l0.024,-0.001l0.065,0l0.012,-0.001l0.042,0l0.01,-0.001l0.003,-0.014l0.001,-0.006l0.004,-0.014l0,-0.008l0.003,-0.015l0.001,-0.006l0.001,-0.007l0.003,-0.007l0,-0.006l0.002,-0.025l0,-0.006l0.003,-0.011l-0.005,-0.007l-0.009,-0.001l-0.01,-0.001l-0.004,0.003l-0.002,0.028l0,0.006l-0.003,0.007l-0.001,0.007l-0.001,0.006l-0.003,0.015l0,0.008l-0.004,0.014l-0.001,0.006l-0.003,0.013l-0.01,0.001l-0.042,0l-0.012,0.001l-0.065,0l-0.024,0.001l-0.003,0.012l-0.001,0.007l0,0.014l-0.003,0.006l0,0.008l-0.003,0.019l-0.003,0.018l0,0.003l-0.002,0.01l0.002,0.002l0.015,0.001Zm-0.06,0.284l0.02,0l0.003,-0.002l0.002,-0.015l0.002,-0.009l0.003,-0.01l0.004,-0.028l0.003,-0.012l0.003,-0.008l0.004,-0.002l0.019,-0.001l0.011,0l0.017,0.001l0.025,-0.001l0.009,0l0.015,-0.001l0.01,0l0.002,-0.002l0.002,-0.016l0.003,-0.016l0.002,-0.014l0.003,-0.008l0,-0.007l0.003,-0.015l0.002,-0.007l0.003,-0.014l0.002,-0.011l0,-0.008l0.002,-0.012l-0.006,-0.008l-0.008,-0.002l-0.009,0l-0.004,0.002l0,0.008l-0.002,0.011l-0.003,0.014l-0.002,0.007l-0.003,0.015l0,0.007l-0.003,0.008l-0.002,0.014l-0.003,0.016l-0.002,0.014l-0.002,0.002l-0.01,0l-0.015,0.001l-0.009,0l-0.025,0.001l-0.017,-0.001l-0.011,0l-0.018,0.001l-0.005,0.002l-0.003,0.009l-0.003,0.013l-0.004,0.028l-0.003,0.01l-0.002,0.009l-0.001,0.01l-0.002,0.007l-0.001,0.008l0,0.008l0.004,0.004Zm-0.035,0.203l0.008,-0.001l0.016,-0.001l0.021,0l0.006,-0.001l0.013,0.001l0.016,-0.001l0.095,0l0.003,-0.011l0.002,-0.009l0.001,-0.017l0.003,-0.015l0.001,-0.007l0.002,-0.006l0.002,-0.007l0,-0.013l0.004,-0.022l0.001,-0.008l0.002,-0.011l0.001,-0.004l0.001,-0.008l-0.007,-0.003l-0.021,0.001l-0.001,0.005l-0.001,0.008l-0.004,0.022l0,0.013l-0.002,0.007l-0.002,0.006l-0.001,0.007l-0.003,0.015l-0.001,0.017l-0.002,0.009l-0.003,0.011l-0.095,0l-0.016,0.001l-0.013,-0.001l-0.006,0.001l-0.021,0l-0.016,0.001l-0.008,0.001l-0.019,-0.001l-0.026,0l-0.007,-0.001l-0.037,0l-0.003,0.009l0.003,0.009l0.009,0.002l0.053,0l0.007,0.001l0.026,0l0.019,0.001Z" style="fill:#ac333b;fill-rule:nonzero;"/></g><g transform="matrix(96,0,0,96,7577.35,716.241)"><path d="M0.278,-0.438l0.022,0l0.001,-0.003l0,-0.007l0.001,-0.006l0.003,-0.011l0,-0.005l0.003,-0.014l0.003,-0.015l0.001,-0.007l0.001,-0.011l0.002,-0.008l0.051,0l0.026,-0.001l0.014,0.001l0.019,0.002l0.016,-0.002l0.009,0.001l0.009,-0.005l0.003,-0.022l0.004,-0.018l0,-0.007l0.001,-0.006l0.003,-0.013l0.003,-0.017l0,-0.005l0.002,-0.013l0,-0.011l0.002,-0.007l-0.003,-0.008l-0.013,-0.004l-0.011,0l0,0.01l-0.002,0.013l0,0.005l-0.003,0.017l-0.003,0.013l-0.001,0.006l0,0.007l-0.004,0.018l-0.003,0.021l-0.009,0.005l-0.009,-0.001l-0.016,0.002l-0.019,-0.002l-0.014,-0.001l-0.026,0.001l-0.041,0.001l-0.01,0l-0.002,0.008l-0.001,0.011l-0.001,0.007l-0.003,0.015l-0.003,0.014l0,0.005l-0.003,0.02l-0.001,0.009l-0.003,0.008l-0.001,0.008l0.006,0.002Zm-0.176,0.479l0.039,0l0.006,-0.001l0.02,0l0.024,-0.002l0.007,-0.001l0.007,0.001l0.01,-0.007l0.004,-0.013l0.002,-0.012l0.003,-0.012l-0.001,-0.007l0.001,-0.007l0,-0.006l0.001,-0.007l0.006,-0.012l0.001,-0.007l0.002,-0.012l0.002,-0.014l0,-0.006l0.001,-0.014l0.002,-0.007l-0.001,-0.007l0.004,-0.013l0.003,-0.012l0.003,-0.015l0.003,-0.013l-0.001,-0.006l0.004,-0.011l0.001,-0.005l0.003,-0.014l0.002,-0.013l0.002,-0.01l0.004,-0.013l0.023,-0.001l0.059,0l0.011,0.001l0.01,0l0.006,-0.013l0.003,-0.015l0.004,-0.013l0,-0.012l0.003,-0.013l0.001,-0.007l0.001,-0.006l0.003,-0.012l0,-0.005l0.004,-0.014l0,-0.008l0.003,-0.008l0.001,-0.008l-0.003,-0.011l-0.014,-0.001l-0.009,0l-0.003,0.008l0,0.008l-0.004,0.014l0,0.005l-0.003,0.012l-0.001,0.006l-0.001,0.007l-0.003,0.013l0,0.012l-0.004,0.013l-0.003,0.014l-0.006,0.012l-0.01,0l-0.011,-0.001l-0.036,0l-0.023,0.002l-0.024,-0.002l-0.003,0.016l-0.002,0.01l-0.002,0.013l-0.003,0.014l-0.001,0.005l-0.004,0.011l0.001,0.006l-0.003,0.013l-0.003,0.015l-0.003,0.012l-0.004,0.013l0.001,0.007l-0.002,0.007l-0.001,0.014l0,0.006l-0.002,0.014l-0.002,0.012l-0.001,0.007l-0.006,0.012l-0.001,0.007l0,0.006l-0.001,0.007l0.001,0.007l-0.003,0.012l-0.002,0.012l-0.004,0.013l-0.01,0.007l-0.007,-0.001l-0.007,0.001l-0.024,0.002l-0.02,-0.001l-0.006,0.001l-0.04,0l0,0.007l0.004,0.011l0.012,0.002l0.01,0.001Z" style="fill:#ac333b;fill-rule:nonzero;"/></g><g transform="matrix(80,0,0,80,7612.39,716.241)"><path d="M0.261,0.047l0.02,-0.001l0.015,-0.001l0.023,-0.001l0.01,-0.001l0.008,-0.003l0.006,-0.002l0.009,-0.002l0.012,-0.003l0.006,-0.002l0.014,-0.006l0.008,-0.005l0.009,-0.005l0.006,-0.006l0.009,-0.005l0.01,-0.009l0.008,-0.007l0.006,-0.008l0.005,-0.008l0.005,-0.007l0.004,-0.007l0.009,-0.013l0.004,-0.006l0.011,-0.025l0.004,-0.01l0.003,-0.013l0.004,-0.013l0.004,-0.012l0.002,-0.007l0.002,-0.006l0.001,-0.007l0.002,-0.009l0.003,-0.011l0.002,-0.007l0,-0.006l0.003,-0.013l0.004,-0.012l0,-0.002l0.003,-0.014l0.001,-0.007l0.004,-0.014l0.003,-0.013l0.002,-0.012l0.001,-0.013l0.004,-0.008l0.002,-0.014l0,-0.007l0.004,-0.014l0.001,-0.014l0.002,-0.014l0.001,-0.006l0.003,-0.014l0,-0.006l0.003,-0.015l0.007,-0.022l-0.001,-0.007l0.002,-0.007l0.001,-0.006l0.002,-0.007l0,-0.007l0.003,-0.012l0.002,-0.009l0.003,-0.009l0.002,-0.009l0.003,-0.011l0,-0.006l0.004,-0.012l-0.001,-0.006l0.004,-0.013l0.001,-0.007l0.002,-0.008l0.001,-0.007l0.004,-0.014l0.001,-0.008l0.002,-0.014l0.002,-0.008l0.001,-0.015l0.006,-0.014l-0.001,-0.015l-0.008,-0.008l-0.008,-0.001l-0.008,0.001l0,0.003l-0.006,0.014l-0.001,0.015l-0.002,0.008l-0.002,0.014l-0.001,0.008l-0.004,0.014l-0.001,0.007l-0.002,0.008l-0.001,0.007l-0.004,0.013l0.001,0.006l-0.004,0.012l0,0.006l-0.003,0.011l-0.002,0.009l-0.003,0.009l-0.002,0.009l-0.003,0.012l0,0.007l-0.002,0.007l-0.001,0.006l-0.002,0.007l0.001,0.007l-0.007,0.022l-0.003,0.015l0,0.006l-0.003,0.014l-0.001,0.006l-0.002,0.014l-0.001,0.014l-0.004,0.014l0,0.007l-0.002,0.014l-0.004,0.008l-0.001,0.013l-0.002,0.012l-0.003,0.013l-0.004,0.014l-0.001,0.007l-0.003,0.014l0,0.002l-0.004,0.012l-0.003,0.013l0,0.006l-0.002,0.007l-0.003,0.011l-0.002,0.009l0,0.007l-0.002,0.006l-0.002,0.007l-0.004,0.012l-0.004,0.013l-0.003,0.017l-0.005,0.006l-0.003,0.013l-0.007,0.013l-0.004,0.006l-0.006,0.013l-0.004,0.007l-0.005,0.007l-0.006,0.009l-0.006,0.008l-0.009,0.007l-0.008,0.01l-0.009,0.005l-0.008,0.005l-0.012,0.006l-0.005,0.004l-0.016,0.006l-0.006,0.002l-0.01,0.004l-0.009,0.002l-0.006,0.002l-0.041,0.004l-0.017,0l-0.02,0.001l-0.017,-0.002l-0.024,-0.001l-0.007,-0.002l-0.007,-0.001l-0.014,-0.005l-0.003,0.007l0.013,0.008l0.008,0.004l0.007,0.003l0.017,0.003l0.009,0.002l0.007,0.002l0.019,0l0.017,0.001Zm-0.015,-0.205l0.008,-0.001l0,-0.009l0.001,-0.005l0.003,-0.027l0.003,-0.013l0.001,-0.014l0.003,-0.02l0.005,-0.036l0.002,-0.012l0.004,-0.013l0,-0.013l0.003,-0.012l0.002,-0.006l0.002,-0.007l0.001,-0.008l0.001,-0.009l0.003,-0.009l0,-0.013l0.001,-0.006l0.004,-0.014l0,-0.007l0.002,-0.008l0.001,-0.007l0.001,-0.01l0.003,-0.007l0.001,-0.006l0.002,-0.015l0.003,-0.015l0.001,-0.008l0.003,-0.014l0.001,-0.007l0.001,-0.01l0.001,-0.008l0.002,-0.013l0.004,-0.012l0,-0.007l0.002,-0.006l0.001,-0.007l0.002,-0.008l0.001,-0.009l0.002,-0.007l0.002,-0.014l0.002,-0.007l0.002,-0.006l0,-0.014l-0.001,-0.015l-0.009,-0.007l-0.015,-0.001l0,0.017l-0.002,0.006l-0.002,0.007l0.001,0.014l-0.002,0.007l-0.002,0.009l-0.002,0.008l-0.001,0.007l-0.002,0.006l0,0.007l-0.004,0.012l-0.002,0.013l-0.001,0.008l0,0.01l-0.001,0.007l-0.005,0.014l-0.001,0.008l-0.003,0.015l-0.002,0.015l-0.001,0.006l-0.003,0.007l-0.001,0.01l-0.001,0.007l-0.002,0.008l0,0.007l-0.005,0.014l-0.001,0.006l0.002,0.013l-0.004,0.009l-0.001,0.009l-0.001,0.008l-0.002,0.007l-0.002,0.006l-0.003,0.012l0,0.013l-0.004,0.013l-0.002,0.012l-0.005,0.036l-0.003,0.02l-0.001,0.014l-0.003,0.013l-0.003,0.024l0,0.006l-0.001,0.006l0,0.005l0.001,0.007l0.004,0.01l0.011,0.004Z" style="fill:#ac333b;fill-rule:nonzero;"/></g><g transform="matrix(80,0,0,80,7653.03,716.241)"><path d="M0.362,0.04l0.087,0l0.006,-0.001l0.013,-0.002l0.013,-0.004l0.007,-0.01l0.008,-0.022l0.003,-0.023l0.005,-0.01l0.001,-0.006l0,-0.01l0.004,-0.014l0.003,-0.015l0.004,-0.022l0.002,-0.013l0,-0.012l0.005,-0.011l0.002,-0.011l0.003,-0.009l0.002,-0.012l0.004,-0.014l0.001,-0.01l0.001,-0.006l0.002,-0.007l-0.001,-0.006l0.002,-0.008l0.001,-0.009l0.003,-0.011l0.006,-0.02l0,-0.016l0.001,-0.006l0.002,-0.007l0.002,-0.006l0,-0.008l0.002,-0.008l0.002,-0.011l0.001,-0.014l0.002,-0.01l0.004,-0.01l0.003,-0.01l0.001,-0.008l0.001,-0.009l0,-0.01l0.005,-0.019l0.002,-0.019l0.001,-0.01l0.003,-0.01l0.001,-0.007l0.001,-0.009l0.004,-0.012l0.004,-0.016l0.003,-0.019l0.001,-0.014l0.002,-0.013l0.004,-0.015l0.005,-0.017l0.005,-0.019l0,-0.018l0.001,-0.015l0.003,-0.011l0.002,-0.011l-0.002,-0.008l-0.004,-0.006l-0.009,-0.003l-0.011,-0.001l-0.001,0l-0.002,0.005l0,0.017l-0.003,0.022l-0.004,0.015l-0.002,0.013l-0.003,0.012l-0.002,0.011l-0.002,0.01l-0.001,0.008l0,0.008l-0.003,0.007l0,0.007l-0.002,0.009l-0.004,0.014l-0.002,0.014l-0.004,0.011l0,0.008l-0.003,0.008l0,0.01l-0.002,0.015l-0.004,0.019l-0.002,0.014l0,0.01l-0.003,0.008l-0.002,0.009l-0.003,0.01l-0.001,0.01l-0.004,0.024l-0.003,0.01l-0.001,0.008l-0.002,0.007l-0.001,0.007l-0.001,0.006l0.001,0.007l-0.003,0.008l-0.001,0.009l-0.001,0.01l-0.004,0.011l-0.001,0.01l-0.003,0.008l0,0.007l-0.001,0.007l-0.002,0.006l0.002,0.008l-0.004,0.012l-0.001,0.013l-0.005,0.011l-0.003,0.01l-0.006,0.022l-0.002,0.013l0,0.012l-0.004,0.01l-0.002,0.013l-0.002,0.015l-0.003,0.012l-0.003,0.008l0.001,0.008l-0.003,0.017l-0.006,0.022l-0.009,0.016l-0.011,0.006l-0.012,0.003l-0.009,0.001l-0.01,0.001l-0.021,-0.001l-0.032,0.001l-0.019,-0.001l-0.004,0.005l0.007,0.014l0.014,0.003Zm0.011,-0.483l0.003,-0.021l0.001,-0.015l0.002,-0.016l-0.001,-0.005l-0.001,-0.011l-0.003,-0.007l-0.002,-0.012l-0.004,-0.016l-0.002,-0.016l-0.002,-0.02l-0.003,-0.019l-0.004,-0.013l-0.001,-0.011l-0.003,-0.011l-0.004,-0.009l-0.001,-0.008l-0.011,-0.006l-0.008,0.008l0.002,0.012l0.004,0.012l0.002,0.015l0.002,0.02l0.005,0.018l0,0.016l0.004,0.016l0.003,0.016l0.003,0.011l0,0.009l0.006,0.024l0.002,0.018l0.003,0.009l0.003,0.011l0.005,0.001Zm-0.278,0.484l0.106,0l0.008,-0.004l0.003,-0.01l0.003,-0.012l0.003,-0.018l0.002,-0.006l0.002,-0.013l0.001,-0.007l0.003,-0.013l0.004,-0.029l0.001,-0.008l0.001,-0.006l0.002,-0.014l0.004,-0.02l0.002,-0.013l0.002,-0.014l0.001,-0.006l0,-0.007l0.002,-0.007l0,-0.012l0.001,-0.012l-0.002,-0.027l-0.003,-0.026l-0.002,-0.023l-0.004,0l-0.005,0.041l-0.002,0.006l-0.003,0.013l0.002,0.007l-0.003,0.012l-0.002,0.007l0.001,0.007l-0.001,0.006l-0.002,0.014l-0.004,0.015l-0.004,0.02l-0.002,0.014l-0.001,0.006l-0.002,0.007l-0.004,0.029l-0.003,0.013l-0.001,0.007l0,0.013l-0.002,0.006l-0.003,0.018l-0.004,0.012l-0.003,0.01l-0.011,0.004l-0.099,0l-0.002,0.006l0.005,0.012l0.015,0.002Z" style="fill:#ac333b;fill-rule:nonzero;"/></g></g><g transform="matrix(0.654643,6.16298e-32,3.69779e-32,0.654643,-4769.36,-424.639)"><g transform="matrix(96,0,0,96,7281.98,716.241)"><path d="M0.176,0.006l0.027,0l0.016,-0.001l0.02,-0.003l0.016,-0.004l0.009,-0.003l0.008,-0.002l0.009,-0.005l0.008,-0.003l0.016,-0.009l0.015,-0.013l0.015,-0.011l0.007,-0.01l0.004,-0.009l0.007,-0.01l0.004,-0.008l0.005,-0.007l0.004,-0.01l0.003,-0.01l0.005,-0.014l0.004,-0.009l0,-0.007l0.004,-0.007l0,-0.007l0.003,-0.007l0,-0.008l0.001,-0.009l0.003,-0.007l-0.002,-0.007l0.004,-0.007l0.001,-0.01l0.003,-0.008l0,-0.01l0.001,-0.011l0.004,-0.018l0.003,-0.006l0.001,-0.013l0.002,-0.007l0.001,-0.006l0,-0.007l0.002,-0.007l0.005,-0.015l0.002,-0.023l0.004,-0.012l0.001,-0.012l0.004,-0.011l0.001,-0.013l0.002,-0.013l0,-0.007l0.001,-0.006l0.002,-0.014l0.004,-0.006l0,-0.02l0.003,-0.007l0,-0.007l0.002,-0.007l0,-0.009l0.004,-0.007l0.002,-0.014l0.001,-0.013l0,-0.007l0.003,-0.013l0.009,-0.036l0,-0.007l0.004,-0.014l0.001,-0.006l0.003,-0.028l0.002,-0.006l0.001,-0.007l0.001,-0.006l0,-0.007l0.001,-0.007l0,-0.006l0.002,-0.007l-0.001,-0.006l-0.002,-0.011l-0.01,-0.004l-0.007,-0.001l-0.001,0l-0.004,-0.001l-0.046,0l-0.012,-0.001l-0.041,0l-0.009,0.001l-0.066,0l-0.007,-0.001l-0.026,-0.003l-0.022,0.004l-0.014,-0.001l-0.014,0.001l-0.015,0l-0.011,0.003l-0.003,0.004l-0.004,0.007l-0.003,0.009l-0.001,0.008l-0.001,0.018l-0.002,0.007l-0.003,0.007l0,0.006l-0.002,0.012l-0.001,0.007l-0.003,0.022l0.001,0.007l0.005,0.01l0.008,0.001l0.011,0.001l0.118,0l0.024,0.001l0,0.006l-0.003,0.015l-0.002,0.015l-0.002,0.006l-0.001,0.013l-0.002,0.007l0,0.006l-0.003,0.014l-0.002,0.007l0,0.006l-0.001,0.007l0,0.01l-0.003,0.007l-0.002,0.012l-0.001,0.007l-0.002,0.006l-0.002,0.01l0,0.006l-0.001,0.014l-0.001,0.013l-0.002,0.007l-0.001,0.008l-0.002,0.014l-0.003,0.018l-0.002,0.015l-0.004,0.019l-0.002,0.006l0.001,0.007l-0.004,0.018l-0.002,0.013l-0.002,0.007l0,0.006l-0.003,0.014l-0.002,0.012l-0.002,0.009l-0.005,0.025l-0.004,0.014l-0.003,0.014l-0.006,0.013l-0.006,0.008l-0.011,0.008l-0.013,0.001l-0.011,0l-0.009,-0.005l-0.008,-0.009l-0.003,-0.01l-0.001,-0.013l0,-0.017l0.003,-0.027l0.002,-0.023l0.002,-0.017l0.003,-0.017l0.003,-0.033l0,-0.01l-0.002,-0.012l-0.009,-0.002l-0.001,-0.001l-0.036,-0.001l-0.015,0l-0.003,0.001l-0.015,-0.001l-0.009,-0.001l-0.021,0.002l-0.007,0l-0.005,0.004l-0.009,0.003l-0.005,0.007l-0.001,0.011l-0.001,0.02l-0.006,0.021l-0.001,0.018l-0.001,0.016l-0.001,0.036l-0.001,0.008l0,0.02l0.001,0.013l0.003,0.026l0.002,0.006l0,0.006l0.002,0.01l0.004,0.008l0.002,0.012l0.002,0.006l0.011,0.017l0.008,0.01l0.009,0.01l0.005,0.007l0.014,0.009l0.013,0.007l0.013,0.005l0.004,0.002l0.01,0.004l0.009,0.003l0.011,0.002l0.01,0.001l0.007,0.001Z" style="fill:#fff;fill-rule:nonzero;"/></g><g transform="matrix(80,0,0,80,7323.55,716.241)"><path d="M0.242,0.016l0.022,-0.003l0.011,-0.003l0.007,-0.001l0.014,-0.003l0.008,-0.002l0.007,-0.001l0.023,-0.009l0.004,-0.003l0.012,-0.008l0.012,-0.009l0.005,-0.006l0.006,-0.005l0.012,-0.012l0.002,-0.006l0.005,-0.006l0.004,-0.006l0.009,-0.013l0.005,-0.007l0.008,-0.018l0.007,-0.014l0.001,-0.01l0.005,-0.007l0.003,-0.011l0,-0.007l0.003,-0.012l0.005,-0.011l0.001,-0.011l0.003,-0.006l0.005,-0.012l-0.001,-0.006l0.01,-0.035l0.003,-0.006l0.002,-0.014l0.002,-0.007l0,-0.009l0.003,-0.018l0.003,-0.006l0.003,-0.013l0.001,-0.012l0.003,-0.013l0.002,-0.013l0.004,-0.013l-0.001,-0.012l0.005,-0.011l-0.001,-0.01l0.002,-0.016l0.002,-0.007l0.001,-0.016l0.001,-0.015l0.002,-0.014l0.001,-0.006l0,-0.01l-0.001,-0.007l0.001,-0.006l0.002,-0.007l0.001,-0.013l0,-0.007l-0.001,-0.013l0.001,-0.006l0.001,-0.013l0,-0.007l-0.001,-0.008l-0.002,-0.019l-0.003,-0.015l-0.002,-0.007l-0.002,-0.006l-0.003,-0.006l-0.006,-0.013l-0.003,-0.007l-0.005,-0.006l-0.011,-0.01l-0.011,-0.009l-0.005,-0.006l-0.008,-0.005l-0.018,-0.012l-0.015,-0.007l-0.006,-0.002l-0.008,-0.001l-0.008,-0.003l-0.016,-0.002l-0.011,-0.001l-0.006,-0.001l-0.018,-0.001l-0.012,0.001l-0.014,0.001l-0.018,0.003l-0.01,0.001l-0.015,0.004l-0.006,0.001l-0.015,0.004l-0.012,0.006l-0.012,0.007l-0.007,0.005l-0.008,0.003l-0.013,0.009l-0.014,0.015l-0.005,0.006l-0.007,0.005l-0.008,0.012l-0.008,0.013l-0.004,0.006l-0.001,0.007l-0.009,0.013l-0.004,0.007l-0.006,0.012l-0.005,0.014l-0.004,0.012l-0.003,0.007l-0.006,0.013l-0.002,0.013l-0.005,0.007l-0.004,0.025l-0.002,0.014l-0.001,0.006l-0.003,0.007l-0.002,0.012l0,0.014l-0.002,0.007l-0.006,0.01l0.001,0.006l-0.002,0.007l0,0.006l-0.002,0.007l-0.003,0.006l0,0.007l-0.003,0.012l0,0.013l-0.003,0.012l-0.003,0.018l-0.002,0.007l-0.002,0.013l0.002,0.005l-0.004,0.014l0,0.007l-0.002,0.014l0,0.008l-0.004,0.014l-0.002,0.022l0,0.007l0.001,0.008l-0.003,0.01l0,0.019l-0.002,0.007l0.004,0.026l0.001,0.014l0.002,0.006l0.001,0.007l0.002,0.006l0.002,0.005l0.001,0.006l0.003,0.007l0,0.006l0.008,0.013l0.005,0.007l0.003,0.006l0.005,0.005l0.003,0.005l0.014,0.016l0.018,0.015l0.014,0.009l0.007,0.004l0.015,0.004l0.008,0.001l0.023,0.007l0.009,0.001l0.007,0.001l0.013,-0.001l0.026,0.003Zm-0.008,-0.136l-0.006,-0.001l-0.008,-0.002l-0.008,-0.003l-0.005,-0.005l-0.006,-0.009l-0.002,-0.004l-0.003,-0.007l0,-0.028l-0.003,-0.007l0.004,-0.01l0.001,-0.012l-0.003,-0.007l0.003,-0.007l0,-0.007l0.003,-0.015l0,-0.008l0.002,-0.007l0,-0.008l0.002,-0.009l-0.001,-0.004l0.002,-0.007l-0.001,-0.008l0.005,-0.014l0.003,-0.007l-0.001,-0.008l0.001,-0.007l0,-0.007l0.002,-0.014l0.002,-0.007l0.004,-0.016l0.003,-0.008l0.002,-0.015l0.002,-0.007l0.001,-0.007l0.003,-0.016l0.003,-0.014l0.004,-0.014l0.001,-0.006l0.003,-0.014l0.001,-0.008l0,-0.002l0.006,-0.021l0.002,-0.008l0.002,-0.007l0.006,-0.013l0.004,-0.007l0.004,-0.012l0.007,-0.011l0.01,-0.009l0.016,-0.006l0.008,-0.002l0.019,-0.001l0.016,0.007l0.007,0.009l0.004,0.006l0.004,0.02l-0.002,0.014l-0.001,0.013l-0.002,0.018l0,0.013l-0.002,0.009l-0.003,0.014l-0.002,0.008l-0.001,0.013l0.001,0.007l-0.002,0.007l-0.002,0.008l-0.002,0.012l-0.004,0.015l0.001,0.017l-0.003,0.006l-0.002,0.019l-0.003,0.008l-0.003,0.009l-0.002,0.023l-0.003,0.015l-0.003,0.009l0.001,0.003l0,0.008l-0.003,0.006l-0.001,0.008l-0.003,0.013l-0.003,0.007l-0.001,0.014l-0.003,0.008l-0.002,0.014l-0.002,0.007l-0.003,0.015l0,0.008l-0.002,0.007l-0.006,0.014l-0.007,0.014l-0.014,0.01l-0.009,0.004l-0.014,0.004l-0.013,0Z" style="fill:#fff;fill-rule:nonzero;"/></g><g transform="matrix(80,0,0,80,7362.35,716.241)"><path d="M0.138,0.002l0.026,0l0.011,-0.003l0.003,-0.009l0.001,-0.008l0.003,-0.013l0.002,-0.014l0.003,-0.013l0.004,-0.024l0.003,-0.011l0,-0.007l0.002,-0.013l0.002,-0.014l0.003,-0.014l0,-0.008l0.004,-0.013l0.001,-0.008l0.003,-0.015l-0.001,-0.011l0.005,-0.01l0,-0.014l0.001,-0.005l0.002,-0.014l0,-0.008l0.004,-0.014l0,-0.008l0.004,-0.014l0.002,-0.012l0.002,-0.013l0.003,-0.013l0,-0.008l0.003,-0.007l0.004,-0.014l0.005,-0.03l0.003,-0.01l0.002,-0.013l0,-0.007l0.001,-0.008l0.001,-0.007l0,-0.009l0.003,-0.009l0.003,-0.014l0.001,-0.005l0.003,-0.013l0.003,-0.012l0.002,-0.013l0.001,-0.007l0.001,-0.012l0.001,-0.007l0.002,-0.012l0.002,-0.006l0.002,-0.011l0.005,-0.026l0.001,-0.006l0,-0.007l0.001,-0.006l0,-0.008l0.004,-0.009l0.002,-0.014l0.003,-0.005l0,-0.009l0.003,-0.004l-0.001,-0.006l0.001,-0.011l0.002,-0.003l0,-0.013l0.001,-0.006l-0.004,-0.01l-0.011,-0.003l-0.007,0.001l-0.053,0l-0.007,0.001l-0.014,0l-0.009,-0.001l-0.015,0.001l-0.007,0.001l-0.006,0.004l-0.007,0.003l-0.007,0.01l-0.001,0.007l-0.002,0.006l-0.002,0.015l-0.004,0.011l-0.002,0.011l-0.001,0.012l-0.002,0.006l-0.001,0.006l-0.003,0.013l-0.002,0.014l-0.002,0.005l-0.001,0.013l-0.001,0.008l0.001,0.007l-0.004,0.013l-0.001,0.007l-0.003,0.013l-0.001,0.006l-0.004,0.012l0.001,0.007l-0.001,0.006l-0.002,0.014l-0.003,0.007l0,0.014l-0.003,0.021l-0.005,0.014l-0.003,0.013l-0.002,0.012l0,0.013l-0.004,0.008l-0.002,0.014l0,0.007l-0.004,0.014l0,0.014l-0.002,0.014l-0.001,0.006l-0.001,0.007l-0.002,0.007l0,0.006l-0.002,0.015l-0.007,0.022l0.001,0.007l-0.002,0.007l-0.001,0.006l-0.002,0.007l0,0.007l-0.002,0.012l-0.002,0.009l-0.003,0.009l-0.002,0.009l-0.003,0.011l-0.003,0.018l0.001,0.006l-0.004,0.013l-0.001,0.007l-0.002,0.008l-0.001,0.007l-0.003,0.015l-0.001,0.008l-0.002,0.014l-0.002,0.007l-0.001,0.015l-0.005,0.014l0.001,0.015l0.008,0.007l0.008,0.002l0.008,-0.001l0.007,0.001l0.011,0.001l0.007,-0.001l0.008,0l0.014,0.002l0.029,0l0.007,0.001Z" style="fill:#fff;fill-rule:nonzero;"/></g><g transform="matrix(80,0,0,80,7383.39,716.241)"><path d="M0.051,0.002l0.106,0l0.011,-0.004l0.003,-0.01l0.004,-0.012l0.003,-0.018l0.002,-0.006l0,-0.013l0.001,-0.007l0.003,-0.013l0.004,-0.029l0.002,-0.007l0.001,-0.006l0.002,-0.014l0.004,-0.02l0.004,-0.015l0.002,-0.014l0.001,-0.006l-0.001,-0.007l0.002,-0.007l0.003,-0.012l-0.002,-0.007l0.003,-0.013l0.002,-0.006l0.004,-0.039l0.007,-0.048l0.001,-0.025l0.002,-0.017l0.001,-0.011l0.001,-0.02l0.001,-0.028l0.003,0l0.006,0.038l0.006,0.036l0.003,0.028l0.005,0.032l0.004,0.028l0.002,0.019l0.004,0.02l0,0.015l0.001,0.006l0.003,0.014l0.001,0.006l0.003,0.014l0,0.006l0.003,0.015l0.003,0.011l0.001,0.015l0.002,0.014l0.001,0.006l0.004,0.021l0.001,0.006l0.002,0.021l0.001,0.006l0.001,0.012l0.001,0.005l0.005,0.014l0.008,0.016l0.008,0.007l0.017,0l0.013,0.001l0.02,0l0.006,-0.001l0.01,0.001l0.007,-0.001l0.019,0.001l0.004,0l0.011,-0.002l0.014,-0.001l0.01,-0.007l0.009,-0.012l0.005,-0.032l0.003,-0.013l0.002,-0.007l0,-0.006l0.005,-0.013l0,-0.016l0.004,-0.014l0.003,-0.008l0.002,-0.013l0.001,-0.013l0.001,-0.011l0.004,-0.012l0.004,-0.009l0.002,-0.01l0.002,-0.014l0.004,-0.014l0,-0.006l0.001,-0.006l0.001,-0.007l0.001,-0.006l0.001,-0.009l0.002,-0.009l0.003,-0.014l0.003,-0.006l0,-0.013l0.001,-0.006l0.001,-0.007l0.002,-0.006l0.001,-0.007l0.002,-0.006l-0.001,-0.009l0.002,-0.008l0.002,-0.014l0.003,-0.013l0.002,-0.007l0.003,-0.013l0.002,-0.008l0.001,-0.007l0.001,-0.011l0.003,-0.009l0.004,-0.03l0.002,-0.007l0,-0.013l0.002,-0.007l0.002,-0.008l0.003,-0.009l0.002,-0.016l0.004,-0.016l0.003,-0.021l0.002,-0.008l0.003,-0.018l0.003,-0.011l0.006,-0.024l0.002,-0.014l0.003,-0.022l-0.001,-0.008l0.003,-0.014l0,-0.008l-0.001,-0.008l-0.006,-0.003l-0.014,-0.003l-0.014,0.001l-0.01,0l-0.023,-0.001l-0.01,0l-0.007,0.001l-0.021,-0.002l-0.019,0.004l-0.004,0.003l-0.008,0.014l-0.004,0.021l-0.003,0.016l-0.001,0.006l0,0.009l-0.003,0.008l-0.002,0.007l-0.003,0.014l-0.001,0.008l-0.002,0.014l-0.002,0.006l-0.001,0.007l-0.003,0.013l0,0.006l-0.003,0.018l0.001,0.007l-0.006,0.012l0,0.007l-0.001,0.012l0,0.012l-0.004,0.013l0,0.006l-0.002,0.014l-0.002,0.006l-0.001,0.014l-0.001,0.008l-0.001,0.007l-0.001,0.006l-0.003,0.014l0,0.034l-0.003,0.021l-0.003,0.048l0,0.014l-0.002,0.024l-0.001,0.02l-0.003,0l-0.003,-0.022l-0.003,-0.027l-0.002,-0.012l-0.002,-0.007l0,-0.007l-0.002,-0.022l-0.004,-0.023l-0.003,-0.027l-0.002,-0.008l-0.002,-0.014l-0.001,-0.016l-0.003,-0.017l-0.002,-0.017l-0.003,-0.015l-0.001,-0.011l0,-0.007l-0.003,-0.011l0,-0.006l-0.003,-0.013l-0.002,-0.015l-0.001,-0.007l-0.002,-0.008l-0.004,-0.02l-0.003,-0.014l-0.003,-0.017l-0.003,-0.016l-0.004,-0.024l-0.004,-0.014l-0.001,-0.011l-0.002,-0.012l-0.004,-0.01l-0.001,-0.007l-0.006,-0.009l-0.011,-0.003l-0.014,0l-0.015,-0.001l-0.012,0.001l-0.019,-0.001l-0.013,0.001l-0.009,0l-0.017,-0.001l-0.014,0.001l-0.01,0.002l-0.006,0.011l-0.003,0.005l-0.002,0.006l-0.003,0.013l0,0.008l-0.003,0.013l-0.002,0.012l-0.002,0.013l-0.001,0.007l-0.002,0.006l-0.001,0.007l-0.001,0.006l-0.001,0.007l-0.001,0.013l-0.002,0.009l-0.004,0.009l0,0.007l-0.005,0.028l-0.002,0.006l-0.001,0.007l0,0.012l-0.003,0.009l-0.003,0.011l-0.002,0.013l-0.002,0.007l0,0.007l-0.003,0.007l0,0.008l-0.003,0.008l-0.001,0.008l0,0.014l-0.002,0.01l-0.002,0.008l-0.005,0.012l-0.001,0.01l-0.001,0.014l-0.001,0.007l-0.001,0.006l-0.005,0.012l0,0.006l-0.001,0.006l-0.001,0.013l-0.002,0.006l-0.001,0.007l-0.002,0.012l-0.003,0.011l-0.002,0.009l-0.002,0.012l-0.004,0.016l-0.002,0.013l0.001,0.007l-0.001,0.006l-0.003,0.012l-0.001,0.007l-0.001,0.012l-0.004,0.007l0,0.013l-0.002,0.008l0,0.007l-0.003,0.016l-0.002,0.009l-0.003,0.014l-0.002,0.005l-0.003,0.014l-0.001,0.007l-0.004,0.014l-0.002,0.016l0,0.016l-0.002,0.008l0.005,0.012l0.015,0.002Z" style="fill:#fff;fill-rule:nonzero;"/></g><g transform="matrix(96,0,0,96,7448.01,716.241)"><path d="M0.124,0.003l0.012,-0.003l0.087,0l0.012,-0.005l0.002,-0.006l0.003,-0.014l0.002,-0.014l0.006,-0.028l0.005,-0.022l-0.001,-0.008l0.003,-0.014l0.002,-0.008l0.005,-0.021l0.003,-0.013l0.001,-0.007l0.004,-0.013l0.003,-0.016l0.003,-0.014l-0.001,-0.007l0.001,-0.006l0.001,-0.007l0.004,-0.012l0.001,-0.007l0.002,-0.006l0.001,-0.006l0,-0.01l0.002,-0.009l0.003,-0.015l0.003,-0.014l0,-0.006l0.002,-0.006l0.001,-0.014l0.004,-0.007l0.003,-0.012l0.001,-0.013l0,-0.007l0.003,-0.006l0.003,-0.014l0.002,-0.007l0.002,-0.015l0.005,-0.012l0,-0.007l0.001,-0.006l0.001,-0.012l0,-0.006l0.004,-0.013l0.005,-0.014l-0.002,-0.005l0.004,-0.008l0.004,-0.018l0.001,-0.007l0.002,-0.013l0.002,-0.006l0,-0.006l0.003,-0.007l-0.001,-0.006l0.002,-0.007l0.009,-0.001l0.042,0.001l0.01,0l0.009,-0.001l0.012,0l0.009,0.001l0.01,-0.001l0.004,-0.009l0.001,-0.014l0.002,-0.007l0.004,-0.013l0.001,-0.012l0.001,-0.006l0.002,-0.007l0.002,-0.012l0,-0.006l0.002,-0.007l0.001,-0.006l0,-0.007l0.002,-0.008l0.001,-0.007l0,-0.006l-0.002,-0.008l-0.009,-0.002l-0.014,-0.001l-0.062,0l-0.009,-0.001l-0.021,0.001l-0.015,-0.001l-0.064,0.001l-0.022,0l-0.007,-0.001l-0.074,0l-0.007,0.001l-0.007,0l-0.005,-0.001l-0.026,0l-0.007,0.001l-0.009,0.007l-0.005,0.011l-0.001,0.006l0,0.014l-0.003,0.006l-0.004,0.013l-0.001,0.014l-0.002,0.006l-0.004,0.014l0.001,0.007l0,0.008l-0.003,0.008l-0.002,0.012l0.003,0.009l0.009,0.003l0.008,0l0.01,0.001l0.009,0l0.007,-0.001l0.014,0.001l0.054,0l-0.001,0.016l-0.002,0.015l-0.002,0.007l-0.003,0.013l0,0.006l-0.001,0.007l0,0.006l-0.001,0.006l-0.005,0.016l-0.002,0.007l-0.001,0.007l0,0.008l-0.002,0.005l0,0.01l-0.005,0.011l0.001,0.007l-0.003,0.015l-0.002,0.006l0,0.007l-0.004,0.006l-0.002,0.007l0,0.009l-0.003,0.01l0,0.014l-0.002,0.006l-0.005,0.012l0.002,0.007l-0.002,0.007l-0.004,0.015l-0.005,0.014l-0.002,0.007l-0.001,0.007l0.002,0.01l-0.005,0.01l-0.001,0.014l-0.002,0.006l-0.002,0.013l-0.001,0.007l-0.002,0.007l-0.003,0.015l-0.003,0.012l0,0.008l-0.005,0.021l0.001,0.008l-0.001,0.007l-0.005,0.014l0,0.007l-0.001,0.014l-0.002,0.006l-0.001,0.015l-0.002,0.007l-0.007,0.021l-0.001,0.021l-0.002,0.015l0.009,0.008l0.007,0l0.009,0.003Z" style="fill:#fff;fill-rule:nonzero;"/></g><g transform="matrix(80,0,0,80,7485.45,716.241)"><path d="M0.34,0.002l0.008,-0.001l0.02,0l0.013,-0.001l0.006,-0.001l0.015,0l0.012,-0.003l0.004,-0.006l0.002,-0.007l0,-0.008l0.002,-0.007l0.001,-0.008l0.003,-0.005l0.002,-0.012l0.001,-0.011l0.002,-0.007l0.002,-0.013l0.001,-0.007l0.003,-0.014l0.001,-0.016l0.001,-0.014l0.002,-0.006l0.003,-0.011l0.003,-0.014l0.001,-0.007l0,-0.008l0.003,-0.014l0.001,-0.007l0.002,-0.006l0.002,-0.007l-0.001,-0.006l0.006,-0.021l-0.001,-0.006l0.002,-0.007l0.003,-0.014l0.002,-0.011l0,-0.006l0.004,-0.018l0.001,-0.007l0.005,-0.013l0.001,-0.007l0,-0.013l0.001,-0.007l0.003,-0.006l-0.002,-0.007l0,-0.008l0.004,-0.006l0.001,-0.007l0.003,-0.014l0.001,-0.006l0.001,-0.015l0.005,-0.014l0.001,-0.015l0.002,-0.016l0.002,-0.013l0.001,-0.006l0.005,-0.012l0.001,-0.006l0.002,-0.013l0.001,-0.008l0.002,-0.007l0.001,-0.007l0.003,-0.013l0.001,-0.007l0.002,-0.013l0,-0.007l0.001,-0.013l0.002,-0.008l0.002,-0.007l0.001,-0.007l0,-0.008l0.001,-0.014l0.004,-0.012l0,-0.007l0.001,-0.006l-0.001,-0.004l0.004,-0.006l-0.001,-0.007l0.001,-0.006l-0.007,-0.009l-0.007,-0.003l-0.016,-0.002l-0.028,0l-0.02,-0.001l-0.036,0l-0.009,0.001l-0.006,0.001l-0.008,0.009l-0.001,0.006l0.001,0.007l-0.002,0.007l-0.004,0.009l-0.001,0.006l-0.002,0.013l-0.002,0.006l-0.003,0.013l0,0.008l-0.004,0.014l-0.001,0.007l0.001,0.008l0,0.012l-0.004,0.009l-0.001,0.013l-0.003,0.013l0,0.007l-0.002,0.006l-0.001,0.007l-0.001,0.008l-0.001,0.007l-0.001,0.006l-0.005,0.013l0.002,0.006l-0.005,0.015l-0.001,0.007l0,0.007l-0.004,0.009l-0.002,0.011l-0.001,0.005l-0.021,-0.001l-0.008,0.001l-0.012,-0.001l-0.008,0.001l-0.029,-0.001l-0.008,0l-0.007,-0.001l0.002,-0.008l0.001,-0.006l0.002,-0.008l-0.001,-0.006l0.002,-0.007l0.003,-0.013l-0.001,-0.007l0.003,-0.006l0.001,-0.007l0.002,-0.008l0.002,-0.005l0,-0.006l0.001,-0.012l0.002,-0.005l0.001,-0.013l0.002,-0.008l0.002,-0.007l0,-0.016l0.003,-0.007l0.001,-0.012l0.002,-0.014l0.004,-0.019l0.001,-0.009l0.003,-0.009l0.001,-0.014l0.001,-0.006l0.003,-0.012l-0.001,-0.007l0,-0.006l-0.002,-0.009l-0.01,-0.002l-0.012,-0.002l-0.01,0.003l-0.022,0l-0.014,-0.001l-0.041,0.001l-0.025,0l-0.009,0.005l-0.001,0.011l-0.001,0.012l-0.003,0.013l-0.002,0.007l0.001,0.008l-0.003,0.007l-0.001,0.007l-0.002,0.007l0.001,0.014l-0.007,0.013l0,0.021l-0.003,0.013l-0.001,0.006l-0.001,0.008l-0.004,0.008l0,0.014l-0.001,0.005l-0.003,0.021l-0.002,0.008l-0.002,0.013l-0.004,0.021l-0.001,0.014l-0.001,0.007l-0.006,0.014l-0.001,0.014l-0.002,0.014l-0.001,0.006l-0.005,0.029l-0.004,0.014l0,0.008l-0.003,0.008l-0.003,0.007l-0.002,0.015l0,0.007l-0.002,0.012l-0.003,0.01l-0.001,0.013l-0.004,0.014l0.001,0.007l-0.002,0.008l-0.001,0.006l-0.002,0.006l-0.005,0.035l-0.002,0.008l-0.003,0.014l0,0.008l-0.001,0.007l-0.004,0.009l-0.004,0.007l0.001,0.014l-0.004,0.014l0.001,0.008l-0.002,0.007l-0.006,0.011l0.002,0.007l-0.002,0.006l0,0.007l-0.002,0.009l-0.001,0.01l-0.005,0.013l-0.004,0.009l0,0.008l0.004,0.011l0.02,0.002l0.032,0l0.012,0.002l0.007,-0.002l0.007,-0.001l0.007,0.003l0.008,0l0.015,-0.002l0.012,-0.001l0.009,-0.001l0.008,-0.004l0.005,-0.01l0.002,-0.015l0.001,-0.007l0.002,-0.008l0.002,-0.014l0,-0.007l0.003,-0.014l0.001,-0.008l0.006,-0.028l0.002,-0.015l0.004,-0.013l0.001,-0.005l0.005,-0.012l-0.001,-0.006l0.006,-0.022l0.005,-0.023l0.002,-0.007l0,-0.017l0.004,-0.007l0.002,-0.013l0.004,-0.014l0.001,-0.008l0.001,-0.005l0.017,0.001l0.015,0.003l0.032,-0.003l0.009,0.002l0.007,0l0.009,-0.001l-0.002,0.012l0,0.007l-0.002,0.014l-0.002,0.007l-0.003,0.014l0,0.012l-0.002,0.01l-0.004,0.011l-0.006,0.03l-0.002,0.019l-0.003,0.015l-0.001,0.014l-0.002,0.005l-0.001,0.013l-0.001,0.007l0,0.007l-0.001,0.007l-0.004,0.021l0,0.014l-0.004,0.007l-0.002,0.009l-0.001,0.009l-0.001,0.008l0.006,0.009l0.007,0.001l0.007,0l0.011,0.001l0.027,0l0.008,0.002Z" style="fill:#fff;fill-rule:nonzero;"/></g><g transform="matrix(80,0,0,80,7525.69,716.241)"><path d="M0.147,0.001l0.008,-0.001l0.016,-0.001l0.021,0l0.006,-0.001l0.013,0.001l0.016,-0.001l0.095,0l0.003,-0.011l0.002,-0.009l0.001,-0.017l0.003,-0.015l0.001,-0.007l0.002,-0.006l0.002,-0.007l0,-0.013l0.004,-0.022l0.001,-0.008l0.002,-0.011l0.001,-0.004l0.001,-0.008l-0.007,-0.003l-0.028,0.001l-0.022,-0.001l-0.014,-0.001l-0.059,0l-0.014,-0.002l-0.004,-0.004l0,-0.008l0.004,-0.026l0.003,-0.018l0.002,-0.007l0.001,-0.01l0.002,-0.009l0.003,-0.01l0.004,-0.028l0.003,-0.013l0.004,-0.011l0.009,0l0.013,-0.001l0.011,0l0.017,0.001l0.025,-0.001l0.009,0l0.015,-0.001l0.01,0l0.002,-0.002l0.002,-0.014l0.003,-0.016l0.002,-0.014l0.003,-0.008l0,-0.007l0.003,-0.015l0.002,-0.007l0.003,-0.014l0.002,-0.011l0,-0.008l0.002,-0.012l-0.006,-0.008l-0.008,-0.002l-0.026,0l-0.019,0.002l-0.035,-0.001l-0.018,0l0.002,-0.018l0.003,-0.01l-0.001,-0.008l0.002,-0.007l0.003,-0.014l0.002,-0.014l0.003,-0.019l0,-0.008l0.003,-0.006l0,-0.014l0.001,-0.007l0.003,-0.012l0.024,-0.001l0.065,0l0.012,-0.001l0.042,0l0.01,-0.001l0.003,-0.013l0.001,-0.006l0.004,-0.014l0,-0.008l0.003,-0.015l0.001,-0.006l0.001,-0.007l0.003,-0.007l0,-0.006l0.002,-0.025l0,-0.006l0.003,-0.011l-0.005,-0.007l-0.009,-0.001l-0.01,-0.001l-0.009,0.001l-0.022,0l-0.029,0.001l-0.008,-0.001l-0.023,-0.001l-0.075,0.001l-0.022,0.001l-0.01,0l-0.008,-0.001l-0.007,0l-0.012,0.001l-0.007,-0.001l-0.006,0.001l-0.017,0l-0.008,0.006l-0.001,0.006l-0.003,0.006l-0.003,0.012l0.002,0.007l-0.001,0.006l-0.001,0.013l-0.001,0.006l-0.002,0.006l-0.001,0.013l-0.002,0.007l0.001,0.006l-0.003,0.007l0,0.007l-0.003,0.006l-0.002,0.014l-0.004,0.013l-0.001,0.007l0.001,0.006l-0.001,0.007l-0.002,0.008l-0.004,0.006l-0.001,0.021l-0.003,0.007l-0.001,0.028l-0.004,0.015l-0.003,0.014l0.001,0.006l-0.002,0.007l-0.003,0.008l-0.006,0.03l-0.004,0.006l0,0.007l-0.001,0.007l-0.001,0.008l-0.003,0.007l-0.002,0.015l-0.004,0.014l0,0.015l-0.004,0.021l-0.002,0.007l-0.003,0.015l-0.001,0.007l-0.003,0.007l-0.003,0.013l0.001,0.006l-0.004,0.012l0,0.005l-0.002,0.013l-0.002,0.008l0,0.007l-0.002,0.016l-0.004,0.008l-0.002,0.013l-0.001,0.014l-0.001,0.007l-0.002,0.008l0,0.007l-0.002,0.007l0,0.009l-0.003,0.008l-0.001,0.016l-0.004,0.015l-0.002,0.016l-0.002,0.015l-0.002,0.009l-0.003,0.009l0.003,0.009l0.009,0.002l0.053,0l0.007,0.001l0.026,0l0.019,0.001Z" style="fill:#fff;fill-rule:nonzero;"/></g><g transform="matrix(96,0,0,96,7577.35,716.241)"><path d="M0.058,0.001l0.039,0l0.006,-0.001l0.02,0.001l0.024,-0.002l0.007,-0.001l0.007,0.001l0.01,-0.007l0.004,-0.013l0.002,-0.012l0.003,-0.012l-0.001,-0.007l0.001,-0.007l0,-0.006l0.001,-0.007l0.006,-0.012l0.001,-0.007l0.002,-0.012l0.002,-0.014l0,-0.006l0.001,-0.014l0.002,-0.007l-0.001,-0.007l0.004,-0.013l0.003,-0.012l0.003,-0.015l0.003,-0.013l-0.001,-0.006l0.004,-0.011l0.001,-0.005l0.003,-0.014l0.002,-0.013l0.002,-0.01l0.003,-0.016l0.024,0.002l0.023,-0.002l0.036,0l0.011,0.001l0.01,0l0.006,-0.012l0.003,-0.014l0.004,-0.013l0,-0.012l0.003,-0.013l0.001,-0.007l0.001,-0.006l0.003,-0.012l0,-0.005l0.004,-0.014l0,-0.008l0.003,-0.008l0.001,-0.008l-0.003,-0.011l-0.014,-0.001l-0.011,0l-0.014,0.001l-0.012,0.001l-0.044,-0.001l-0.011,-0.001l0.003,-0.01l0.002,-0.012l0,-0.007l0.001,-0.006l0.002,-0.007l0,-0.008l0.004,-0.008l0.004,-0.024l0,-0.005l0.003,-0.014l0.003,-0.015l0.001,-0.007l0.001,-0.011l0.002,-0.008l0.01,0l0.041,-0.001l0.026,-0.001l0.014,0.001l0.019,0.002l0.016,-0.002l0.009,0.001l0.009,-0.005l0.003,-0.021l0.004,-0.018l0,-0.007l0.001,-0.006l0.003,-0.013l0.003,-0.017l0,-0.005l0.002,-0.013l0,-0.011l0.002,-0.007l-0.003,-0.008l-0.013,-0.004l-0.012,0l-0.016,-0.001l-0.117,0l-0.026,-0.001l-0.036,-0.001l-0.049,0.002l-0.012,0.005l-0.002,0.012l-0.001,0.007l0.001,0.012l-0.002,0.005l-0.002,0.013l-0.004,0.018l0,0.008l-0.004,0.007l-0.001,0.011l-0.001,0.013l-0.001,0.008l-0.002,0.006l-0.003,0.013l-0.001,0.014l-0.003,0.006l0,0.007l-0.005,0.016l-0.001,0.007l0,0.007l-0.001,0.007l0.001,0.006l-0.002,0.013l-0.002,0.007l-0.002,0.014l-0.003,0.007l-0.002,0.014l0,0.012l-0.003,0.012l-0.002,0.007l-0.004,0.012l-0.004,0.013l-0.001,0.013l-0.003,0.014l0,0.007l-0.004,0.013l-0.004,0.028l0,0.014l-0.003,0.007l-0.002,0.015l0.001,0.007l-0.003,0.016l-0.005,0.014l-0.002,0.013l0,0.014l-0.004,0.012l0,0.007l-0.002,0.006l0,0.008l-0.003,0.009l-0.001,0.014l-0.002,0.006l0,0.009l-0.004,0.01l-0.004,0.014l-0.001,0.008l-0.001,0.013l-0.001,0.007l-0.001,0.006l-0.004,0.008l-0.002,0.011l-0.001,0.007l-0.001,0.006l0.001,0.014l-0.004,0.008l0,0.011l0.004,0.01l0.012,0.002l0.01,0.001Z" style="fill:#fff;fill-rule:nonzero;"/></g><g transform="matrix(80,0,0,80,7612.39,716.241)"><path d="M0.217,0.006l0.02,0l0.015,-0.001l0.023,0l0.02,-0.002l0.006,-0.002l0.009,-0.002l0.012,-0.003l0.006,-0.002l0.016,-0.006l0.005,-0.004l0.012,-0.005l0.008,-0.005l0.009,-0.005l0.008,-0.01l0.009,-0.007l0.006,-0.009l0.004,-0.009l0.005,-0.007l0.004,-0.007l0.006,-0.014l0.004,-0.006l0.007,-0.013l0.003,-0.013l0.005,-0.006l0.003,-0.017l0.004,-0.013l0.004,-0.012l0.002,-0.007l0.002,-0.006l0,-0.007l0.002,-0.009l0.003,-0.011l0.002,-0.007l0,-0.006l0.003,-0.013l0.004,-0.012l0,-0.002l0.003,-0.014l0.001,-0.007l0.004,-0.014l0.003,-0.013l0.002,-0.012l0.001,-0.013l0.004,-0.008l0.002,-0.014l0,-0.007l0.004,-0.014l0.001,-0.014l0.002,-0.014l0.001,-0.006l0.003,-0.014l0,-0.006l0.003,-0.015l0.007,-0.022l-0.001,-0.007l0.002,-0.007l0.001,-0.006l0.002,-0.007l0,-0.007l0.003,-0.012l0.002,-0.009l0.003,-0.009l0.002,-0.009l0.003,-0.011l0,-0.006l0.004,-0.012l-0.001,-0.006l0.004,-0.013l0.001,-0.007l0.002,-0.008l0.001,-0.007l0.004,-0.014l0.001,-0.008l0.002,-0.014l0.002,-0.008l0.001,-0.015l0.006,-0.014l-0.001,-0.015l-0.008,-0.008l-0.008,-0.001l-0.009,0.001l-0.007,0.001l-0.01,-0.001l-0.007,0.001l-0.008,0l-0.007,-0.001l-0.007,0l-0.029,0.001l-0.007,-0.001l-0.007,0l-0.03,0.001l-0.003,0.007l-0.001,0.008l-0.003,0.013l-0.003,0.014l-0.003,0.013l-0.001,0.006l-0.001,0.012l-0.001,0.006l-0.005,0.011l0.001,0.007l-0.002,0.013l-0.002,0.014l-0.003,0.014l-0.001,0.008l-0.002,0.014l-0.001,0.008l-0.004,0.014l0.001,0.011l-0.006,0.01l0,0.014l-0.001,0.005l-0.002,0.014l0,0.008l-0.004,0.014l-0.001,0.008l-0.004,0.014l-0.002,0.012l-0.003,0.013l-0.002,0.013l0,0.008l-0.005,0.014l-0.002,0.007l-0.001,0.012l-0.004,0.018l-0.002,0.01l-0.002,0.013l-0.001,0.007l-0.002,0.008l-0.002,0.007l-0.001,0.009l-0.002,0.009l-0.002,0.006l-0.001,0.01l-0.002,0.007l-0.003,0.014l-0.005,0.02l-0.002,0.006l-0.002,0.009l-0.005,0.01l-0.007,0.016l-0.003,0.006l-0.006,0.008l-0.01,0.008l-0.023,0.003l-0.021,-0.003l-0.011,-0.003l-0.011,-0.013l-0.001,-0.012l0,-0.011l-0.001,-0.016l0.001,-0.007l0.001,-0.006l0.001,-0.009l0.003,-0.024l0.003,-0.013l0.001,-0.014l0.003,-0.02l0.005,-0.036l0.002,-0.012l0.004,-0.013l0,-0.013l0.003,-0.012l0.002,-0.006l0.002,-0.007l0.001,-0.008l0.001,-0.009l0.004,-0.009l-0.002,-0.013l0.001,-0.006l0.005,-0.014l0,-0.007l0.002,-0.008l0.001,-0.007l0.001,-0.01l0.003,-0.007l0.001,-0.006l0.002,-0.015l0.003,-0.015l0.001,-0.008l0.005,-0.014l0.001,-0.007l0,-0.01l0.001,-0.008l0.002,-0.013l0.004,-0.012l0,-0.007l0.002,-0.006l0.001,-0.007l0.002,-0.008l0.002,-0.009l0.002,-0.007l-0.001,-0.014l0.002,-0.007l0.002,-0.006l0,-0.014l-0.001,-0.015l-0.009,-0.007l-0.016,-0.001l-0.009,-0.001l-0.024,0.002l-0.042,-0.001l-0.009,0.001l-0.005,0l-0.017,0.001l-0.006,0.002l-0.002,0.008l-0.004,0.014l-0.002,0.014l-0.002,0.01l-0.002,0.005l-0.005,0.013l-0.003,0.028l-0.002,0.006l0,0.007l-0.003,0.014l0,0.008l-0.001,0.008l-0.003,0.014l-0.001,0.008l-0.001,0.007l-0.005,0.013l-0.001,0.006l0,0.007l-0.002,0.013l-0.002,0.006l-0.003,0.028l-0.003,0.006l-0.001,0.014l0,0.008l-0.004,0.014l-0.003,0.013l-0.001,0.014l-0.004,0.013l0,0.013l-0.002,0.007l-0.003,0.012l-0.001,0.007l0.001,0.007l-0.003,0.012l-0.001,0.006l-0.001,0.007l-0.004,0.012l0,0.013l-0.002,0.01l-0.002,0.012l-0.001,0.015l-0.001,0.013l-0.004,0.027l-0.002,0.009l-0.001,0.034l-0.001,0.006l0.004,0.034l0.001,0.014l0.004,0.016l0.008,0.014l0.008,0.016l0.001,0.003l0.005,0.008l0.011,0.013l0.01,0.01l0.02,0.012l0.006,0.003l0.007,0.003l0.017,0.006l0.004,0.002l0.007,0.002l0.041,0.005Z" style="fill:#fff;fill-rule:nonzero;"/></g><g transform="matrix(80,0,0,80,7653.03,716.241)"><path d="M0.051,0.002l0.106,0l0.011,-0.004l0.003,-0.01l0.004,-0.012l0.003,-0.018l0.002,-0.006l0,-0.013l0.001,-0.007l0.003,-0.013l0.004,-0.029l0.002,-0.007l0.001,-0.006l0.002,-0.014l0.004,-0.02l0.004,-0.015l0.002,-0.014l0.001,-0.006l-0.001,-0.007l0.002,-0.007l0.003,-0.012l-0.002,-0.007l0.003,-0.013l0.002,-0.006l0.004,-0.039l0.007,-0.048l0.001,-0.025l0.002,-0.017l0.001,-0.011l0.001,-0.02l0.001,-0.028l0.003,0l0.006,0.038l0.006,0.036l0.003,0.028l0.005,0.032l0.004,0.028l0.002,0.019l0.004,0.02l0,0.015l0.001,0.006l0.003,0.014l0.001,0.006l0.003,0.014l0,0.006l0.003,0.015l0.003,0.011l0.001,0.015l0.002,0.014l0.001,0.006l0.004,0.021l0.001,0.006l0.002,0.021l0.001,0.006l0.001,0.012l0.001,0.005l0.005,0.014l0.008,0.016l0.008,0.007l0.017,0l0.013,0.001l0.02,0l0.006,-0.001l0.01,0.001l0.007,-0.001l0.019,0.001l0.004,0l0.011,-0.002l0.014,-0.001l0.01,-0.007l0.009,-0.012l0.005,-0.032l0.003,-0.013l0.002,-0.007l0,-0.006l0.005,-0.013l0,-0.016l0.004,-0.014l0.003,-0.008l0.002,-0.013l0.001,-0.013l0.001,-0.011l0.004,-0.012l0.004,-0.009l0.002,-0.01l0.002,-0.014l0.004,-0.014l0,-0.006l0.001,-0.006l0.001,-0.007l0.001,-0.006l0.001,-0.009l0.002,-0.009l0.003,-0.014l0.003,-0.006l0,-0.013l0.001,-0.006l0.001,-0.007l0.002,-0.006l0.001,-0.007l0.002,-0.006l-0.001,-0.009l0.002,-0.008l0.002,-0.014l0.003,-0.013l0.002,-0.007l0.003,-0.013l0.002,-0.008l0.001,-0.007l0.001,-0.011l0.003,-0.009l0.004,-0.03l0.002,-0.007l0,-0.013l0.002,-0.007l0.002,-0.008l0.003,-0.009l0.002,-0.016l0.004,-0.016l0.003,-0.021l0.002,-0.008l0.003,-0.018l0.003,-0.011l0.006,-0.024l0.002,-0.014l0.003,-0.022l-0.001,-0.008l0.003,-0.014l0,-0.008l-0.001,-0.008l-0.006,-0.003l-0.014,-0.003l-0.014,0.001l-0.01,0l-0.023,-0.001l-0.01,0l-0.007,0.001l-0.021,-0.002l-0.019,0.004l-0.004,0.003l-0.008,0.014l-0.004,0.021l-0.003,0.016l-0.001,0.006l0,0.009l-0.003,0.008l-0.002,0.007l-0.003,0.014l-0.001,0.008l-0.002,0.014l-0.002,0.006l-0.001,0.007l-0.003,0.013l0,0.006l-0.003,0.018l0.001,0.007l-0.006,0.012l0,0.007l-0.001,0.012l0,0.012l-0.004,0.013l0,0.006l-0.002,0.014l-0.002,0.006l-0.001,0.014l-0.001,0.008l-0.001,0.007l-0.001,0.006l-0.003,0.014l0,0.034l-0.003,0.021l-0.003,0.048l0,0.014l-0.002,0.024l-0.001,0.02l-0.003,0l-0.003,-0.022l-0.003,-0.027l-0.002,-0.012l-0.002,-0.007l0,-0.007l-0.002,-0.022l-0.004,-0.023l-0.003,-0.027l-0.002,-0.008l-0.002,-0.014l-0.001,-0.016l-0.003,-0.017l-0.002,-0.017l-0.003,-0.015l-0.001,-0.011l0,-0.007l-0.003,-0.011l0,-0.006l-0.003,-0.013l-0.002,-0.015l-0.001,-0.007l-0.002,-0.008l-0.004,-0.02l-0.003,-0.014l-0.003,-0.017l-0.003,-0.016l-0.004,-0.024l-0.004,-0.014l-0.001,-0.011l-0.002,-0.012l-0.004,-0.01l-0.001,-0.007l-0.006,-0.009l-0.011,-0.003l-0.014,0l-0.015,-0.001l-0.012,0.001l-0.019,-0.001l-0.013,0.001l-0.009,0l-0.017,-0.001l-0.014,0.001l-0.01,0.002l-0.006,0.011l-0.003,0.005l-0.002,0.006l-0.003,0.013l0,0.008l-0.003,0.013l-0.002,0.012l-0.002,0.013l-0.001,0.007l-0.002,0.006l-0.001,0.007l-0.001,0.006l-0.001,0.007l-0.001,0.013l-0.002,0.009l-0.004,0.009l0,0.007l-0.005,0.028l-0.002,0.006l-0.001,0.007l0,0.012l-0.003,0.009l-0.003,0.011l-0.002,0.013l-0.002,0.007l0,0.007l-0.003,0.007l0,0.008l-0.003,0.008l-0.001,0.008l0,0.014l-0.002,0.01l-0.002,0.008l-0.005,0.012l-0.001,0.01l-0.001,0.014l-0.001,0.007l-0.001,0.006l-0.005,0.012l0,0.006l-0.001,0.006l-0.001,0.013l-0.002,0.006l-0.001,0.007l-0.002,0.012l-0.003,0.011l-0.002,0.009l-0.002,0.012l-0.004,0.016l-0.002,0.013l0.001,0.007l-0.001,0.006l-0.003,0.012l-0.001,0.007l-0.001,0.012l-0.004,0.007l0,0.013l-0.002,0.008l0,0.007l-0.003,0.016l-0.002,0.009l-0.003,0.014l-0.002,0.005l-0.003,0.014l-0.001,0.007l-0.004,0.014l-0.002,0.016l0,0.016l-0.002,0.008l0.005,0.012l0.015,0.002Z" style="fill:#fff;fill-rule:nonzero;"/></g></g></g></svg>