<svg xmlns="http://www.w3.org/2000/svg" xmlns:xlink="http://www.w3.org/1999/xlink" width="100%" height="100%" version="1.1" viewBox="0 0 72 72" xml:space="preserve" style="fill-rule:evenodd;clip-rule:evenodd;stroke-linecap:round;stroke-linejoin:round;stroke-miterlimit:1.5"><circle id="Trophy" cx="36" cy="36" r="36" style="fill:#fff"/><clipPath id="_clip1"><circle cx="36" cy="36" r="36"/></clipPath><g clip-path="url(#_clip1)"><g><path d="M49.256,57.677c0,-1.273 -0.505,-2.494 -1.405,-3.394c-0.901,-0.901 -2.122,-1.406 -3.395,-1.406l-16.172,0c-1.273,0 -2.494,0.505 -3.394,1.406c-0.9,0.9 -1.406,2.121 -1.406,3.394l0,2.074l25.772,0l0,-2.074Z" style="fill:#fff;stroke:#000;stroke-width:2.52px"/><rect width="14.469" height="5.958" x="29.136" y="46.838" style="fill:#fff;stroke:#000;stroke-width:2.52px"/><path d="M36.473,23.839c1.723,6.03 1.582,17.813 7.132,22.824l-14.469,0c5.617,-4.629 5.956,-16.99 7.337,-22.824Z" style="fill:#fff;stroke:#000;stroke-width:2.52px"/><path d="M19.197,17.544c-1.728,1.762 -2.637,3.76 -2.637,5.794c0,6.394 8.818,11.586 19.68,11.586c10.862,0 19.68,-5.192 19.68,-11.586c0,-2.034 -0.909,-4.032 -2.637,-5.794l-34.086,0Z" style="fill:#fff;stroke:#000;stroke-width:2.52px"/><path d="M47.674,12.402l-22.607,0l0,16.114c0,5.964 4.835,10.8 10.8,10.8l1.007,0c5.965,0 10.8,-4.836 10.8,-10.8l0,-16.114Z" style="fill:#fff;stroke:#000;stroke-width:2.52px"/></g></g></svg>