<?xml version="1.0" encoding="UTF-8" standalone="no"?>
<!DOCTYPE svg PUBLIC "-//W3C//DTD SVG 1.1//EN" "http://www.w3.org/Graphics/SVG/1.1/DTD/svg11.dtd">
<svg width="100%" height="100%" viewBox="0 0 593 200" version="1.1" xmlns="http://www.w3.org/2000/svg" xmlns:xlink="http://www.w3.org/1999/xlink" xml:space="preserve" xmlns:serif="http://www.serif.com/" style="fill-rule:evenodd;clip-rule:evenodd;stroke-linejoin:round;stroke-miterlimit:1.5;">
    <g id="Artboard1" transform="matrix(1.82462,0,0,0.966184,-352.151,-60.8696)">
        <rect x="193" y="63" width="325" height="207" style="fill:none;"/>
        <g transform="matrix(2.42833,0,0,1.935,-546.136,-140.67)">
            <g transform="matrix(0.18704,0,0,-0.443274,238.158,262.692)">
                <path d="M380,234.5C380,184.552 420.552,144 470.5,144C520.448,144 561,184.552 561,234.5" style="fill:none;stroke:rgb(255,142,158);stroke-width:21.12px;"/>
            </g>
            <g transform="matrix(0.18704,0,0,0.443274,238.158,54.7965)">
                <path d="M380,234.5C380,184.552 420.552,144 470.5,144C520.448,144 561,184.552 561,234.5" style="fill:none;stroke:rgb(167,195,255);stroke-width:21.12px;"/>
            </g>
        </g>
        <g transform="matrix(2.42833,0,0,1.935,-436.524,-140.67)">
            <g transform="matrix(0.18704,0,0,-0.443274,238.158,262.692)">
                <path d="M380,234.5C380,184.552 420.552,144 470.5,144C520.448,144 561,184.552 561,234.5" style="fill:none;stroke:rgb(255,142,158);stroke-width:21.12px;"/>
            </g>
            <g transform="matrix(0.18704,0,0,0.443274,238.158,54.7965)">
                <path d="M380,234.5C380,184.552 420.552,144 470.5,144C520.448,144 561,184.552 561,234.5" style="fill:none;stroke:rgb(167,195,255);stroke-width:21.12px;"/>
            </g>
        </g>
        <g transform="matrix(2.42833,0,0,1.935,-326.911,-140.67)">
            <g transform="matrix(0.18704,0,0,-0.443274,238.158,262.692)">
                <path d="M380,234.5C380,184.552 420.552,144 470.5,144C520.448,144 561,184.552 561,234.5" style="fill:none;stroke:rgb(255,142,158);stroke-width:21.12px;"/>
            </g>
            <g transform="matrix(0.18704,0,0,0.443274,238.158,54.7965)">
                <path d="M380,234.5C380,184.552 420.552,144 470.5,144C520.448,144 561,184.552 561,234.5" style="fill:none;stroke:rgb(167,195,255);stroke-width:21.12px;"/>
            </g>
        </g>
    </g>
</svg>
