<?xml version="1.0" encoding="UTF-8" standalone="no"?><!DOCTYPE svg PUBLIC "-//W3C//DTD SVG 1.1//EN" "http://www.w3.org/Graphics/SVG/1.1/DTD/svg11.dtd"><svg width="100%" height="100%" viewBox="0 0 72 72" version="1.1" xmlns="http://www.w3.org/2000/svg" xmlns:xlink="http://www.w3.org/1999/xlink" xml:space="preserve" xmlns:serif="http://www.serif.com/" style="fill-rule:evenodd;clip-rule:evenodd;stroke-linecap:round;stroke-linejoin:round;stroke-miterlimit:1.5;"><circle cx="36" cy="36" r="36" style="fill:#fff;"/><clipPath id="_clip1"><circle cx="36" cy="36" r="36"/></clipPath><g clip-path="url(#_clip1)"><path d="M54.72,14.304c0,-2.066 -1.678,-3.744 -3.744,-3.744l-29.952,0c-2.066,0 -3.744,1.678 -3.744,3.744l0,43.872c0,2.066 1.678,3.744 3.744,3.744l29.952,0c2.066,0 3.744,-1.678 3.744,-3.744l0,-43.872Z" style="fill:#fff;stroke:#000;stroke-width:2.52px;"/><path d="M22.08,16.56l16.8,0" style="fill:none;stroke:#000;stroke-width:2.52px;"/><path d="M22.08,24l27.84,0" style="fill:none;stroke:#000;stroke-width:2.52px;"/><path d="M22.08,28.8l27.84,0" style="fill:none;stroke:#000;stroke-width:2.52px;"/><path d="M22.08,33.6l27.84,0" style="fill:none;stroke:#000;stroke-width:2.52px;"/><path d="M22.08,38.4l27.84,0" style="fill:none;stroke:#000;stroke-width:2.52px;"/><path d="M22.08,43.2l27.84,0" style="fill:none;stroke:#000;stroke-width:2.52px;"/><path d="M22.08,48l27.84,0" style="fill:none;stroke:#000;stroke-width:2.52px;"/><path d="M22.08,52.8l27.84,0" style="fill:none;stroke:#000;stroke-width:2.52px;"/><path d="M62.381,13.774l-0.018,4.86l-4.86,0.019l-0.018,4.86l-4.861,0.018l0.018,-4.86l-4.86,0.018l0.018,-4.86l4.861,-0.018l0.018,-4.861l4.86,-0.018l-0.018,4.86l4.86,-0.018Z" style="fill:#fff;stroke:#000;stroke-width:2.52px;"/><path d="M21.586,50.86l-0.014,3.635l-2.615,0.01l-0.01,2.615l-3.635,0.014l0.01,-2.615l-2.615,0.009l0.013,-3.634l2.616,-0.01l0.009,-2.616l3.635,-0.013l-0.01,2.615l2.616,-0.01Z" style="fill:#fff;stroke:#000;stroke-width:2.52px;"/><path d="M51.817,59.607l-0.014,3.635l-2.615,0.01l-0.01,2.615l-3.635,0.014l0.01,-2.616l-2.615,0.01l0.013,-3.635l2.616,-0.009l0.009,-2.616l3.635,-0.013l-0.009,2.615l2.615,-0.01Z" style="fill:#fff;stroke:#000;stroke-width:2.52px;"/></g></svg>