<?xml version="1.0" encoding="UTF-8" standalone="no"?><!DOCTYPE svg PUBLIC "-//W3C//DTD SVG 1.1//EN" "http://www.w3.org/Graphics/SVG/1.1/DTD/svg11.dtd"><svg width="100%" height="100%" viewBox="0 0 600 521" version="1.1" xmlns="http://www.w3.org/2000/svg" xmlns:xlink="http://www.w3.org/1999/xlink" xml:space="preserve" xmlns:serif="http://www.serif.com/" style="fill-rule:evenodd;clip-rule:evenodd;stroke-miterlimit:2;"><g><g id="BoilerMake-Island" serif:id="BoilerMake Island"><path d="M471.448,277.079c6.211,6.17 14.619,9.62 23.374,9.591c8.755,-0.029 17.14,-3.535 23.31,-9.747c17.612,-17.729 45.602,-42.421 65.824,-62.779c9.686,-9.751 15.099,-22.953 15.045,-36.697c-0.054,-13.745 -5.57,-26.904 -15.333,-36.579c-30.79,-30.513 -80.199,-79.541 -103.305,-102.439c-10.638,-10.542 -24.99,-16.485 -39.967,-16.55c-26.016,-0.113 -69.883,-0.287 -85.213,-0.353c-4.015,-0.018 -7.927,1.26 -11.158,3.642c-3.019,2.226 -6.857,5.056 -9.868,7.276c-3.201,2.361 -7.073,3.637 -11.051,3.643c-8.066,0.011 -22.144,0.03 -29.985,0.041c-3.705,0.005 -7.327,-1.092 -10.407,-3.153c-3.786,-2.535 -9.073,-6.073 -12.846,-8.598c-3.048,-2.04 -6.628,-3.136 -10.295,-3.153c-17.865,-0.082 -73.446,-0.338 -95.421,-0.439c-5.805,-0.026 -11.377,2.279 -15.465,6.4c-9.328,9.401 -25.698,25.9 -26.887,27.099c-0.046,0.046 -0.091,0.092 -0.136,0.139c-1.477,1.515 -56.467,57.806 -92.004,94.184c-16.456,16.851 -16.314,43.798 0.319,60.474c25.652,25.753 60.63,60.84 74.945,75.06c11.791,11.712 30.844,11.649 42.557,-0.142c5.665,-5.704 11.515,-11.593 16.222,-16.331c5.364,-5.4 14.09,-5.429 19.49,-0.065c0,0 0,0 0.001,0.001c3.027,3.007 4.736,7.094 4.75,11.361c0.015,4.268 -1.667,8.366 -4.674,11.394c-25.243,25.412 -86.416,86.994 -119.108,119.906c-11.841,11.92 -11.777,31.183 0.144,43.024c15.835,15.729 37.495,37.245 54.75,54.386c7.557,7.506 17.786,11.703 28.436,11.667c10.651,-0.035 20.852,-4.301 28.358,-11.857c24.829,-24.996 59.761,-60.161 78.155,-78.679c3.303,-3.325 7.791,-5.202 12.478,-5.217c4.686,-0.016 9.187,1.831 12.512,5.134c1.212,1.203 2.441,2.424 3.651,3.626c3.291,3.27 7.747,5.098 12.386,5.082c4.64,-0.015 9.083,-1.873 12.352,-5.165c5.486,-5.522 11.893,-11.972 17.21,-17.324c6.053,-6.094 15.901,-6.127 21.995,-0.074c19.744,19.613 71.815,71.406 97.267,96.688c11.727,11.65 30.679,11.587 42.328,-0.141c18.003,-18.123 43.724,-44.016 61.491,-61.903c5.381,-5.417 8.39,-12.749 8.364,-20.384c-0.025,-7.635 -3.083,-14.947 -8.5,-20.328c-27.394,-27.212 -85.764,-85.263 -109.889,-109.227c-3.907,-3.881 -6.112,-9.155 -6.13,-14.661c-0.019,-5.507 2.151,-10.795 6.032,-14.702c0.795,-0.8 1.587,-1.598 2.367,-2.383c6.106,-6.147 16.039,-6.18 22.187,-0.074c0.787,0.782 8.52,8.509 9.342,9.326Z" style="fill:#7289da;"/><g><path d="M174.49,486.415c0,0 58.178,-59.494 80.82,-82.649c2.343,-2.396 5.547,-3.754 8.897,-3.773c3.351,-0.019 6.57,1.304 8.939,3.673c0,0 0,0.001 0,0.001c4.948,4.947 12.96,4.981 17.948,0.074c6.022,-5.922 14.073,-13.841 20.97,-20.625c7.959,-7.828 20.741,-7.775 28.634,0.119c0.001,0 0.001,0.001 0.002,0.001c0.043,0.044 0.086,0.088 0.129,0.132c2.938,3.028 105.594,108.861 105.594,108.861c12.845,12.784 33.594,12.784 46.438,0l34.304,-35.012c12.567,-13.036 12.567,-34.287 0,-47.323l-113.683,-116.422c-5.105,-5.236 -24.118,-21.744 -7.252,-38.707l15.611,-15.701c4.788,-4.823 11.309,-7.538 18.104,-7.538c6.796,0 13.317,2.715 18.105,7.538l19.535,19.398c4.787,4.822 11.309,7.537 18.104,7.537c6.795,0 13.317,-2.715 18.104,-7.537l54.707,-54.021c18.179,-15.583 14.528,-51.805 -2.221,-65.699l-89.521,-88.972c-4.628,-5.095 -11.092,-8.154 -17.967,-8.504l-101.227,0c-19.146,0 -24.277,23.864 -40.281,23.864l-12.534,0c-14.729,-0.624 -18.548,-22.735 -41.976,-23.047l-101.622,-1.354c-7.196,0.363 -13.969,3.59 -18.838,8.979l-94.3,96.763c-5.009,5.03 -10.385,14.049 -10.2,25.981c0.111,7.15 6.298,18.66 11.308,23.69l63.226,63.339c4.982,5.092 11.767,7.959 18.839,7.959c7.071,0 13.857,-2.867 18.838,-7.959l13.834,-15.245c4.982,-5.092 11.768,-7.959 18.839,-7.959c7.071,0 13.857,2.867 18.839,7.959l9.419,9.413c4.938,5.119 11.708,8.008 18.767,8.008c7.06,0 4.242,9.159 4.242,9.159l-137.865,137.483c-9.819,9.927 -9.819,26.143 0,36.071l42.045,42.045c9.99,9.924 26.356,9.924 36.346,0Z" style="fill:#bccfe8;"/></g><g><path d="M297.836,254.27l-46.94,-46.94l-21.601,21.601l46.94,46.94l21.601,-21.601Z" style="fill:#8e97be;"/><path d="M385.253,348.522l-46.941,-46.941l-21.601,21.601l46.941,46.941l21.601,-21.601Z" style="fill:#8e97be;"/><g><path d="M277.132,122.34c9.316,-9.377 11.504,-47.352 2.188,-56.729l-6.437,11.18c-4.393,-4.79 -10.503,-7.66 -16.995,-7.982l-93.213,0c-6.492,0.322 -12.602,3.192 -16.994,7.982l-89.222,90.123c-4.52,4.472 -7.065,-5.372 -7.065,0.986c0,6.358 -1.837,18.987 7.411,29.074l51.499,50.855c4.494,4.527 10.616,7.076 16.995,7.076c6.379,0 14.927,-2.549 19.421,-7.076l19.629,-19.76c4.494,-4.526 10.616,-7.075 16.995,-7.075c6.378,0 12.5,2.549 16.994,7.075l8.498,8.369c4.454,4.552 10.561,7.12 16.93,7.12c6.368,0 12.476,-2.568 16.93,-7.12l22.66,-22.531c4.527,-4.494 7.075,-10.616 7.075,-16.994c0,-6.379 1.284,-18.417 -3.243,-22.911l-12.716,-2.581c-4.527,-4.495 -7.076,-10.616 -7.076,-16.995c0,-3.289 -3.754,0.202 -3.754,0.202c0,0 8.637,-8.095 10.83,-10.272l22.66,-22.016Z" style="fill:#aa7348;fill-rule:nonzero;"/><path d="M272.286,96.72c9.316,-9.377 15.654,-22.492 6.338,-31.869l-5.889,-1.267c-4.393,-4.791 -10.503,-7.66 -16.995,-7.982l-93.213,0c-6.492,0.322 -12.602,3.191 -16.995,7.982l-89.222,90.123c-4.519,4.472 -7.065,5.505 -7.065,11.862c0,6.358 2.546,17.527 7.065,21.999l51.499,50.855c4.494,4.527 10.616,7.076 16.995,7.076c6.379,0 12.5,-2.549 16.994,-7.076l22.402,-23.561c4.495,-4.527 10.616,-7.075 16.995,-7.075c6.379,0 12.501,2.548 16.995,7.075l8.497,8.369c4.455,4.551 10.562,7.12 16.93,7.12c6.369,0 12.476,-2.569 16.931,-7.12l22.659,-22.531c4.527,-4.494 7.076,-10.616 7.076,-16.995c0,-6.379 -2.549,-12.5 -7.076,-16.994l-8.883,-8.498c-4.527,-4.494 -16.771,-6.352 -16.771,-12.731c0,-6.379 12.244,-16.175 16.771,-20.67l15.023,-15.185l2.939,-12.907Z" style="fill:#8a3d40;fill-rule:nonzero;"/><path d="M276.983,97.14c9.316,-9.377 9.316,-24.741 0,-34.118l-4.248,-4.506c-4.393,-4.791 -10.503,-7.661 -16.995,-7.982l-93.213,0c-6.492,0.321 -12.602,3.191 -16.995,7.982l-89.222,90.123c-4.519,4.472 -7.065,10.573 -7.065,16.93c0,6.358 2.546,12.459 7.065,16.931l51.499,50.855c4.494,4.527 10.616,7.076 16.995,7.076c6.379,0 12.5,-2.549 16.994,-7.076l22.402,-23.561c4.495,-4.527 10.616,-7.076 16.995,-7.076c6.379,0 12.501,2.549 16.995,7.076l8.497,8.369c4.455,4.551 10.562,7.119 16.93,7.119c6.369,0 12.476,-2.568 16.931,-7.119l22.659,-22.531c4.527,-4.494 7.076,-10.616 7.076,-16.995c0,-6.379 -2.549,-12.5 -7.076,-16.994l-8.883,-8.498c-4.527,-4.494 -7.076,-10.616 -7.076,-16.994c0,-6.379 2.549,-12.501 7.076,-16.995l22.659,-22.016Z" style="fill:#8ec13d;fill-rule:nonzero;"/><clipPath id="_clip1"><path d="M276.983,97.14c9.316,-9.377 9.316,-24.741 0,-34.118l-4.248,-4.506c-4.393,-4.791 -10.503,-7.661 -16.995,-7.982l-93.213,0c-6.492,0.321 -12.602,3.191 -16.995,7.982l-89.222,90.123c-4.519,4.472 -7.065,10.573 -7.065,16.93c0,6.358 2.546,12.459 7.065,16.931l51.499,50.855c4.494,4.527 10.616,7.076 16.995,7.076c6.379,0 12.5,-2.549 16.994,-7.076l22.402,-23.561c4.495,-4.527 10.616,-7.076 16.995,-7.076c6.379,0 12.501,2.549 16.995,7.076l8.497,8.369c4.455,4.551 10.562,7.119 16.93,7.119c6.369,0 12.476,-2.568 16.931,-7.119l22.659,-22.531c4.527,-4.494 7.076,-10.616 7.076,-16.995c0,-6.379 -2.549,-12.5 -7.076,-16.994l-8.883,-8.498c-4.527,-4.494 -7.076,-10.616 -7.076,-16.994c0,-6.379 2.549,-12.501 7.076,-16.995l22.659,-22.016Z" clip-rule="nonzero"/></clipPath><g clip-path="url(#_clip1)"><path d="M279.199,114.798c9.593,-9.377 9.593,-24.74 0,-34.118l-4.375,-4.506c-4.524,-4.79 -10.815,-7.66 -17.5,-7.982l-95.988,0c-6.685,0.322 -12.976,3.192 -17.5,7.982l-69.604,47.428c0,0 7.396,6.913 16.412,15.342c20.632,19.287 47.82,30.016 76.063,30.016l10.876,0c28.868,0 56.607,-11.208 77.373,-31.26c0.51,-0.498 0.827,-0.807 0.909,-0.886l23.334,-22.016Z" style="fill:#4ea03d;fill-rule:nonzero;"/><path d="M276.983,83.29c9.316,-9.377 9.316,-24.74 0,-34.118l-4.248,-4.506c-4.393,-4.79 -10.503,-7.66 -16.995,-7.982l-93.213,0c-6.492,0.322 1.248,17.041 -3.145,21.832l-89.222,90.123c-4.519,4.472 -7.065,10.573 -7.065,16.93c0,6.358 2.546,12.459 7.065,16.931l37.649,37.005c4.494,4.527 10.616,7.076 16.995,7.076c6.379,0 12.5,-2.549 16.994,-7.076l22.402,-23.561c4.495,-4.527 10.616,-7.075 16.995,-7.075c6.379,0 12.501,2.548 16.995,7.075l8.497,8.369c4.455,4.551 10.746,8.641 16.93,7.12c10.929,-2.69 18.709,11.627 23.163,7.076l15.042,-14.567c4.527,-4.494 -7.155,-12.731 -5.389,-25.305c0.887,-6.317 -2.548,-12.5 -7.075,-16.994l-8.884,-8.498c-4.527,-4.494 -7.076,-10.616 -7.076,-16.994c0,-6.379 2.549,-12.501 7.076,-16.995l36.509,-35.866Z" style="fill:#4ea03d;fill-rule:nonzero;"/><clipPath id="_clip2"><path d="M276.983,83.29c9.316,-9.377 9.316,-24.74 0,-34.118l-4.248,-4.506c-4.393,-4.79 -10.503,-7.66 -16.995,-7.982l-93.213,0c-6.492,0.322 1.248,17.041 -3.145,21.832l-89.222,90.123c-4.519,4.472 -7.065,10.573 -7.065,16.93c0,6.358 2.546,12.459 7.065,16.931l37.649,37.005c4.494,4.527 10.616,7.076 16.995,7.076c6.379,0 12.5,-2.549 16.994,-7.076l22.402,-23.561c4.495,-4.527 10.616,-7.075 16.995,-7.075c6.379,0 12.501,2.548 16.995,7.075l8.497,8.369c4.455,4.551 10.746,8.641 16.93,7.12c10.929,-2.69 18.709,11.627 23.163,7.076l15.042,-14.567c4.527,-4.494 -7.155,-12.731 -5.389,-25.305c0.887,-6.317 -2.548,-12.5 -7.075,-16.994l-8.884,-8.498c-4.527,-4.494 -7.076,-10.616 -7.076,-16.994c0,-6.379 2.549,-12.501 7.076,-16.995l36.509,-35.866Z" clip-rule="nonzero"/></clipPath><g clip-path="url(#_clip2)"><path d="M279.199,114.798c9.593,-9.377 9.593,-24.74 0,-34.118l-4.375,-4.506c-4.524,-4.79 -10.815,-7.66 -17.5,-7.982l-95.988,0c-6.685,0.322 -12.976,3.192 -17.5,7.982l-69.604,47.428c0,0 7.396,6.913 16.412,15.342c20.632,19.287 47.82,30.016 76.063,30.016l10.876,0c28.868,0 56.607,-11.208 77.373,-31.26c0.51,-0.498 0.827,-0.807 0.909,-0.886l23.334,-22.016Z" style="fill:#1e7c4b;fill-rule:nonzero;"/></g><path d="M279.199,110.297c9.593,-9.377 15.98,-34.522 6.387,-43.899l-10.762,5.275c-4.524,-4.79 -10.815,-7.66 -17.5,-7.982l-95.988,0c-6.685,0.322 -12.976,3.192 -17.5,7.982l-69.604,47.428c0,0 7.396,6.913 16.412,15.342c20.632,19.287 47.82,30.016 76.063,30.016l10.876,0c28.868,0 56.607,-11.208 77.373,-31.261c0.51,-0.497 0.827,-0.806 0.909,-0.885l23.334,-22.016Z" style="fill:#aa7348;fill-rule:nonzero;"/><path d="M272.286,96.72c9.593,-9.377 16.154,-22.211 6.561,-31.588l-4.023,-2.807c-4.524,-4.791 -10.815,-7.661 -17.5,-7.983l-95.988,0c-6.685,0.322 -12.976,3.192 -17.5,7.983l-59.216,57.815c0,0 2.487,2.281 6.191,5.678c20.545,18.84 47.407,29.292 75.282,29.292l11.49,0c28.868,0 56.607,-11.207 77.373,-31.26c0.51,-0.498 0.827,-0.807 0.909,-0.885l11.368,-10.726l5.053,-15.519Z" style="fill:#8a3d40;fill-rule:nonzero;"/></g><path d="M272.286,93.95c9.316,-9.377 14.013,-21.551 4.697,-30.928l-4.248,-4.506c-4.393,-4.791 -10.503,-7.661 -16.995,-7.982l-93.213,0c-6.492,0.321 -12.602,3.191 -16.995,7.982l-57.505,57.815c0,0 1.899,1.794 4.838,4.569c20.675,19.524 48.036,30.402 76.474,30.402l6.977,0c29.226,-0.001 57.266,-11.556 78.007,-32.146c0,0 0.001,0 0.001,0l16.161,-15.702l1.801,-9.504Z" style="fill:#4ea03d;fill-rule:nonzero;"/><clipPath id="_clip3"><path d="M272.286,93.95c9.316,-9.377 14.013,-21.551 4.697,-30.928l-4.248,-4.506c-4.393,-4.791 -10.503,-7.661 -16.995,-7.982l-93.213,0c-6.492,0.321 -12.602,3.191 -16.995,7.982l-57.505,57.815c0,0 1.899,1.794 4.838,4.569c20.675,19.524 48.036,30.402 76.474,30.402l6.977,0c29.226,-0.001 57.266,-11.556 78.007,-32.146c0,0 0.001,0 0.001,0l16.161,-15.702l1.801,-9.504Z" clip-rule="nonzero"/></clipPath><g clip-path="url(#_clip3)"><path d="M272.286,91.873c9.316,-9.378 11.699,-22.433 1.778,-31.948l-1.329,-7.295c-4.393,-4.791 -10.503,-7.661 -16.995,-7.983l-93.213,0c-6.492,0.322 -12.602,3.192 -16.995,7.983l-57.505,57.815c0,0 1.899,1.794 4.838,4.568c20.675,19.525 48.036,30.402 76.474,30.402l6.977,0c29.226,0 57.266,-11.555 78.007,-32.145c0,0 0.001,0 0.001,0l14.988,-14.562l2.974,-6.835Z" style="fill:#8ec13d;fill-rule:nonzero;"/></g><g id="Pond"><path d="M233.757,58.666c4.381,0.218 8.504,2.155 11.469,5.387l13.148,13.769l13.912,14.051l0,4.983c0,0 -10.526,-2.951 -18.122,-5.08c-4.736,-1.327 -9.82,-0.056 -13.374,3.344c-2.796,2.675 -5.565,5.323 -5.565,5.323c-0.295,0.292 -5.245,5.269 -10.329,10.381c-7.234,7.243 -17.051,11.313 -27.288,11.313l-43.623,0c-3.851,0 -7.556,-1.473 -10.356,-4.117c-3.165,-2.989 -15.499,-14.556 -15.499,-14.556l0,-4.965c0,0 0,-0.007 0,-0.01c-0.05,-3.198 1.194,-6.281 3.45,-8.55c11.43,-11.492 22.26,-22.423 22.26,-22.423c2.965,-3.233 9.166,-8.632 13.547,-8.85l66.37,0Z" style="fill:#558b5f;fill-rule:nonzero;"/><path d="M233.757,60.744c4.381,0.217 8.504,2.154 11.469,5.387l13.148,13.768l13.912,14.051l0,4.984c0,0 -10.526,-2.951 -18.122,-5.08c-4.736,-1.328 -9.82,-0.057 -13.374,3.343c-2.796,2.675 -5.565,5.324 -5.565,5.324c-0.295,0.292 -5.245,5.268 -10.329,10.381c-7.234,7.243 -17.051,11.313 -27.288,11.313l-43.623,0c-3.851,0 -7.556,-1.473 -10.356,-4.117c-3.165,-2.99 -15.499,-14.556 -15.499,-14.556l0,-4.966c0,0 0,-0.006 0,-0.009c-0.05,-3.199 1.194,-6.282 3.45,-8.55c11.43,-11.492 22.26,-22.424 22.26,-22.424c2.965,-3.233 9.166,-8.632 13.547,-8.849l66.37,0Z" style="fill:#8a3d40;fill-rule:nonzero;"/><path d="M233.757,63.514c4.381,0.217 8.504,2.154 11.469,5.387l13.148,13.768l13.912,14.051l0,4.984c0,0 -10.526,-2.951 -18.122,-5.08c-4.736,-1.328 -9.82,-0.057 -13.374,3.343c-2.796,2.675 -5.565,5.324 -5.565,5.324c-0.295,0.292 -5.245,5.268 -10.329,10.38c-7.234,7.244 -17.051,11.314 -27.288,11.314l-43.623,0c-3.851,0 -7.556,-1.473 -10.356,-4.117c-3.165,-2.99 -15.499,-14.556 -15.499,-14.556l0,-4.966c0,0 0,-0.006 0,-0.009c-0.05,-3.199 1.194,-6.282 3.45,-8.55c11.43,-11.492 22.26,-22.424 22.26,-22.424c2.965,-3.233 9.166,-8.632 13.547,-8.849l66.37,0Z" style="fill:#aa7348;fill-rule:nonzero;"/><path d="M232.718,67.636c4.381,0.217 8.505,2.154 11.469,5.387l14.187,14.807l13.912,13.874l-11.944,11.604c0,0 -1.85,-1.824 -4.196,-4.139c-5.358,-5.287 -13.95,-5.353 -19.39,-0.149c-0.928,0.887 -1.531,1.464 -1.531,1.464c-0.295,0.293 -5.245,5.269 -10.329,10.381c-7.234,7.243 -17.051,11.313 -27.288,11.313l-43.623,0c-3.851,0 -7.556,-1.473 -10.356,-4.117c-3.245,-3.065 -7.786,-7.353 -11.782,-11.126c-2.326,-2.196 -3.666,-5.239 -3.716,-8.437c-0.05,-3.199 1.194,-6.282 3.45,-8.55c11.431,-11.492 23.3,-23.462 23.3,-23.462c2.964,-3.233 9.165,-8.633 13.546,-8.85l64.291,0Z" style="fill:#bccfe8;fill-rule:nonzero;"/><path d="M272.286,145.588l0,-43.884l-11.944,0l0,43.884l11.944,0Z" style="fill:#bccfe8;"/><path d="M230.422,71.694c3.845,0.191 7.464,1.89 10.065,4.728l2.517,2.669c4.767,4.798 8.178,8.066 8.178,8.066l17.918,17.917l-5.336,5.336c0,0 -2.273,-2.273 -5.191,-5.19c-6.933,-6.934 -18.16,-6.984 -25.155,-0.112c-2.219,2.18 -3.835,3.767 -3.835,3.767c-0.232,0.231 -3.754,3.771 -7.699,7.737c-7.233,7.237 -17.045,11.303 -27.277,11.303l-35.59,0c-3.851,0 -7.556,-1.473 -10.356,-4.117c-2.496,-2.357 -5.72,-5.402 -8.724,-8.239c-2.326,-2.196 -3.666,-5.239 -3.716,-8.437c-0.05,-3.199 1.194,-6.282 3.45,-8.55c10.09,-10.144 18.551,-18.688 18.551,-18.688c2.602,-2.837 7.952,-7.999 11.797,-8.19l60.403,0Z" style="fill:#8c9dde;"/><path d="M221.212,75.639c3.069,0.152 5.957,1.509 8.034,3.774l2.008,2.13c2.473,2.489 3.558,5.87 3.254,9.141c-0.227,2.31 -1.203,4.481 -2.779,6.184c-0.892,0.98 -2.121,2.307 -2.696,2.928c-0.214,0.231 -0.434,0.456 -0.659,0.675c-1.543,1.499 -7.832,7.609 -7.832,7.609c-0.185,0.184 -2.996,3.01 -6.145,6.175c-5.773,5.777 -13.605,9.022 -21.772,9.022l-28.407,0c-3.073,0 -6.031,-1.176 -8.265,-3.286c-1.993,-1.881 -4.566,-4.312 -6.964,-6.576c-1.856,-1.753 -2.926,-4.181 -2.966,-6.734c-0.039,-2.553 0.953,-5.014 2.754,-6.825c8.053,-8.096 20.334,-20.443 20.334,-20.443c2.077,-2.265 4.965,-3.622 8.034,-3.774l44.067,0Z" style="fill:#7289da;"/><path d="M248.414,130.601l-6.684,6.684l4.441,4.441l6.684,-6.684l-4.441,-4.441Z" style="fill:#aa7348;"/><path d="M253.42,120.249l-9.814,9.814l2.461,2.462l9.815,-9.815l-2.462,-2.461Z" style="fill:#8a3d40;"/><path d="M284.619,79.519l-12.333,22.202l4.441,4.441l6.684,-6.684l1.208,-19.959Z" style="fill:#aa7348;"/><path d="M268.288,125.373c0.423,-0.437 1.016,-0.71 1.672,-0.71c1.284,0 2.326,1.042 2.326,2.326c-11.94,11.659 -0.015,0.04 -11.944,11.664c-0.012,-6.714 0,-5.323 0,-6.751c0,-1.428 1.159,-2.587 2.587,-2.587c0,-2.279 1.85,-4.128 4.129,-4.128c0.428,0 0.841,0.065 1.23,0.186Z" style="fill:#e9f6fb;"/><circle cx="268.633" cy="116.066" r="1.189" style="fill:#e9f6fb;"/><circle cx="263.437" cy="123.051" r="0.595" style="fill:#e9f6fb;"/></g></g><g id="Bridge"><path d="M288.568,227.668l-28.751,-28.751l-15.026,15.007l28.81,28.712l14.967,-14.968Z" style="fill:#c7ad85;"/><path d="M273.182,242.216l-28.391,-28.292l0,18.423l28.517,28.469l-0.126,-18.6Z" style="fill:#8f5837;"/></g><path d="M257.962,234.262c-4.731,-4.731 -8.6,-3.73 -8.635,2.234c-0.036,5.963 3.776,14.645 8.507,19.376c4.731,4.731 8.6,3.73 8.636,-2.233c0.035,-5.964 -3.777,-14.646 -8.508,-19.377Z" style="fill:#8e97be;"/><clipPath id="_clip4"><path d="M257.962,234.262c-4.731,-4.731 -8.6,-3.73 -8.635,2.234c-0.036,5.963 3.776,14.645 8.507,19.376c4.731,4.731 8.6,3.73 8.636,-2.233c0.035,-5.964 -3.777,-14.646 -8.508,-19.377Z"/></clipPath><g clip-path="url(#_clip4)"><path d="M262.701,204.709l-28.006,28.134l0.126,18.6l28.007,-28.135l-0.127,-18.599Z" style="fill:#8a3d40;"/></g><g><path d="M335.545,116.192c-7.463,-7.524 -6.35,-17.653 -7.067,-33.265l11.316,-5.359c4.393,-4.79 10.503,-7.66 16.995,-7.982l95.636,-2.424c6.492,0.322 12.602,3.192 16.995,7.982c0,0 36.339,36.622 65.643,66.155c9.571,9.645 14.846,22.743 14.632,36.329c-0.215,13.586 -5.9,26.511 -15.77,35.849c-0.001,0.001 -0.001,0.001 -0.001,0.001c0,0 -6.377,-5.919 -14.405,-13.372c-20.6,-19.124 -47.67,-29.752 -75.78,-29.752l-7.527,0c-29.225,0 -57.266,-11.555 -78.006,-32.146c-0.001,0 -0.001,0 -0.001,0l-16.162,-15.702l-6.498,-6.314Z" style="fill:#aa7348;fill-rule:nonzero;"/><path d="M546.082,137.946l-72.391,-61.155c-4.344,-4.783 -10.412,-7.654 -16.865,-7.982l-93.342,0c-6.485,0.349 -12.585,3.214 -16.995,7.982l-10.199,-11.013c-8.553,6.112 -14.092,27.595 5.95,49.637l22.66,22.531c4.527,4.494 7.076,10.616 7.076,16.995c0,6.379 -2.549,12.5 -7.076,16.995l-256.112,235.209c-9.217,9.32 -13.451,29.366 6.857,47.262l22.659,22.66c9.378,9.316 24.741,9.316 34.118,0l248.998,-248.998c4.494,-4.526 10.616,-7.075 16.995,-7.075c6.379,0 12.5,2.549 16.994,7.075l22.66,22.531c4.494,4.527 10.616,7.076 16.995,7.076c6.378,0 12.5,-2.549 16.994,-7.076l28.034,-29.606c17.452,-17.899 15.353,-63.302 5.99,-83.048Z" style="fill:#aa7348;fill-rule:nonzero;"/><path d="M503.888,191.703l-33.14,-125.912c-4.345,-4.783 -10.412,-7.655 -16.866,-7.983l-93.342,0c-6.485,0.35 -12.585,3.215 -16.994,7.983l-5.371,-1.309c-9.285,9.288 -3.479,21.797 8.554,34.204l23.786,19.887c4.527,4.494 6.184,16.585 6.184,22.964c0,6.379 -10.215,14.904 -14.742,19.398l-251.22,244.006c-9.218,9.32 -10.041,24.471 2.988,37.443l21.892,21.892c9.377,9.316 24.741,9.316 34.118,0l248.486,-248.486c4.494,-4.527 10.616,-7.076 16.995,-7.076c6.378,0 12.5,2.549 16.994,7.076l22.66,22.531c4.494,4.527 10.616,7.076 16.994,7.076c6.379,0 12.501,-2.549 16.995,-7.076l26.45,-26.799l0,-5.027c-20.44,-8.862 -22.095,-5.495 -31.421,-14.792Z" style="fill:#8a3d40;fill-rule:nonzero;"/><path d="M546.56,150.056l-75.812,-91.54c-4.345,-4.783 -10.412,-7.655 -16.866,-7.982l-93.342,0c-6.485,0.349 -12.585,3.214 -16.994,7.982l-4.249,4.764c-9.286,9.288 -7.396,23.883 1.89,33.172l23.824,22.387c4.527,4.494 4.021,11.448 4.021,17.827c0,6.378 -2.548,12.5 -7.075,16.994l-249.255,248.612c-9.218,9.319 -9.218,24.541 0,33.86l22.659,22.66c9.377,9.316 24.741,9.316 34.118,0l248.998,-248.998c4.494,-4.527 10.615,-7.076 16.994,-7.076c6.379,0 12.501,2.549 16.995,7.076l22.66,22.531c4.494,4.527 10.615,7.076 16.994,7.076c6.379,0 12.501,-2.549 16.995,-7.076l26.194,-25.83l0,-9.982c9.041,-9.575 20.577,-37.159 11.251,-46.457Z" style="fill:#8ec13d;fill-rule:nonzero;"/><clipPath id="_clip5"><path d="M546.56,150.056l-75.812,-91.54c-4.345,-4.783 -10.412,-7.655 -16.866,-7.982l-93.342,0c-6.485,0.349 -12.585,3.214 -16.994,7.982l-4.249,4.764c-9.286,9.288 -7.396,23.883 1.89,33.172l23.824,22.387c4.527,4.494 4.021,11.448 4.021,17.827c0,6.378 -2.548,12.5 -7.075,16.994l-249.255,248.612c-9.218,9.319 -9.218,24.541 0,33.86l22.659,22.66c9.377,9.316 24.741,9.316 34.118,0l248.998,-248.998c4.494,-4.527 10.615,-7.076 16.994,-7.076c6.379,0 12.501,2.549 16.995,7.076l22.66,22.531c4.494,4.527 10.615,7.076 16.994,7.076c6.379,0 12.501,-2.549 16.995,-7.076l26.194,-25.83l0,-9.982c9.041,-9.575 20.577,-37.159 11.251,-46.457Z" clip-rule="nonzero"/></clipPath><g clip-path="url(#_clip5)"><path d="M545.968,143.818l-78.584,-78.131c-3.821,-4.207 -9.158,-6.732 -14.833,-7.021l-82.094,0c-5.704,0.307 -11.069,2.827 -14.947,7.021l-3.737,4.19c-8.166,8.169 -8.166,21.61 0,29.78l26.508,25.702c3.981,3.952 6.223,9.336 6.223,14.947c0,5.61 -2.242,10.994 -6.223,14.946c0,0 -46.033,45.14 -66.028,64.746c-5.034,4.936 -13.106,4.897 -18.091,-0.089c-0.001,0 -0.001,0 -0.001,0l-28.707,27.47c0,0 0,0 0.001,0c2.528,2.348 3.985,5.629 4.032,9.079c0.047,3.451 -1.32,6.77 -3.784,9.186c-25.682,25.183 -94.869,93.027 -94.869,93.027c-8.107,8.196 -8.107,21.584 0,29.78l10.58,9.888c8.247,8.194 21.76,8.194 30.007,0c0,0 67.316,-66.188 93.047,-91.487c5.489,-5.397 14.266,-5.482 19.859,-0.192c0.001,0 0.001,0 0.001,0l27.719,-30.437c0,0 0,0 0,0c-2.237,-1.955 -3.557,-4.754 -3.645,-7.723c-0.087,-2.969 1.066,-5.841 3.184,-7.924c19.376,-19.067 66.363,-65.303 66.363,-65.303c3.953,-3.981 9.337,-6.223 14.947,-6.223c5.61,0 10.994,2.242 14.947,6.223l23.391,23.279c3.953,3.981 9.337,6.223 14.947,6.223c5.61,0 10.994,-2.242 14.947,-6.223l45.293,-44.727c7.952,-8.422 7.749,-21.83 -0.453,-30.007Z" style="fill:#4ea03d;fill-rule:nonzero;"/><path d="M336.93,115.154c-9.316,-9.378 -9.316,-24.741 0,-34.118l4.249,-4.507c4.393,-4.79 10.503,-7.66 16.995,-7.982l95.636,-2.424c6.492,0.322 12.602,3.192 16.995,7.983c0,0 36.339,36.621 65.643,66.154c9.571,9.646 14.846,22.743 14.632,36.329c-0.215,13.586 -5.9,26.511 -15.77,35.85c-0.001,0 -0.001,0.001 -0.001,0.001c0,0 -6.377,-5.92 -14.405,-13.372c-20.601,-19.125 -47.67,-29.753 -75.78,-29.753l-7.527,0c-29.225,0 -57.266,-11.555 -78.006,-32.145c-0.001,0 -0.001,0 -0.001,-0.001l-16.162,-15.702l-6.498,-6.313Z" style="fill:#4ea03d;fill-rule:nonzero;"/><clipPath id="_clip6"><path d="M336.93,115.154c-9.316,-9.378 -9.316,-24.741 0,-34.118l4.249,-4.507c4.393,-4.79 10.503,-7.66 16.995,-7.982l95.636,-2.424c6.492,0.322 12.602,3.192 16.995,7.983c0,0 36.339,36.621 65.643,66.154c9.571,9.646 14.846,22.743 14.632,36.329c-0.215,13.586 -5.9,26.511 -15.77,35.85c-0.001,0 -0.001,0.001 -0.001,0.001c0,0 -6.377,-5.92 -14.405,-13.372c-20.601,-19.125 -47.67,-29.753 -75.78,-29.753l-7.527,0c-29.225,0 -57.266,-11.555 -78.006,-32.145c-0.001,0 -0.001,0 -0.001,-0.001l-16.162,-15.702l-6.498,-6.313Z" clip-rule="nonzero"/></clipPath><g clip-path="url(#_clip6)"><path d="M545.968,143.818l-78.584,-78.131c-3.821,-4.207 -9.158,-6.732 -14.833,-7.021l-82.094,0c-5.704,0.307 -11.069,2.827 -14.947,7.021l-3.737,4.19c-8.166,8.169 -8.166,21.61 0,29.78l26.508,25.702c3.981,3.952 6.223,9.336 6.223,14.947c0,5.61 -2.242,10.994 -6.223,14.946c0,0 -46.033,45.14 -66.028,64.746c-5.034,4.936 -13.106,4.897 -18.091,-0.089c-0.001,0 -0.001,0 -0.001,0l-28.707,27.47c0,0 0,0 0.001,0c2.528,2.348 3.985,5.629 4.032,9.079c0.047,3.451 -1.32,6.77 -3.784,9.186c-25.682,25.183 -94.869,93.027 -94.869,93.027c-8.107,8.196 -8.107,21.584 0,29.78l10.58,9.888c8.247,8.194 21.76,8.194 30.007,0c0,0 67.316,-66.188 93.047,-91.487c5.489,-5.397 14.266,-5.482 19.859,-0.192c0.001,0 0.001,0 0.001,0l27.719,-30.437c0,0 0,0 0,0c-2.237,-1.955 -3.557,-4.754 -3.645,-7.723c-0.087,-2.969 1.066,-5.841 3.184,-7.924c19.376,-19.067 66.363,-65.303 66.363,-65.303c3.953,-3.981 9.337,-6.223 14.947,-6.223c5.61,0 10.994,2.242 14.947,6.223l23.391,23.279c3.953,3.981 9.337,6.223 14.947,6.223c5.61,0 10.994,-2.242 14.947,-6.223l45.293,-44.727c7.952,-8.422 7.749,-21.83 -0.453,-30.007Z" style="fill:#1e7c4b;fill-rule:nonzero;"/></g></g><path d="M336.93,109.614c-9.316,-9.378 -9.316,-24.741 0,-34.118l4.249,-4.507c4.393,-4.79 10.503,-7.66 16.995,-7.982l95.636,-2.424c6.492,0.322 12.602,3.192 16.995,7.983c0,0 36.339,36.622 65.643,66.155c9.571,9.645 14.846,22.743 14.632,36.328c-0.215,13.586 -5.9,26.511 -15.77,35.85c-0.001,0 -0.001,0.001 -0.001,0.001c0,0 -6.377,-5.92 -14.405,-13.372c-20.601,-19.125 -47.67,-29.753 -75.78,-29.753l-7.527,0c-29.225,0 -57.266,-11.555 -78.006,-32.145c-0.001,0 -0.001,0 -0.001,0l-16.162,-15.703l-6.498,-6.313Z" style="fill:#aa7348;fill-rule:nonzero;"/><path d="M336.93,99.226c-9.316,-9.377 -9.316,-24.74 0,-34.118l4.249,-4.506c4.393,-4.79 10.503,-7.66 16.995,-7.982l95.636,-2.424c6.492,0.322 12.602,3.192 16.995,7.982c0,0 36.339,36.622 65.643,66.155c9.571,9.645 14.846,22.743 14.632,36.329c-0.215,13.586 -5.9,26.511 -15.77,35.85c-0.001,0 -0.001,0.001 -0.001,0.001c0,0 -6.377,-5.92 -14.405,-13.373c-20.601,-19.124 -47.67,-29.752 -75.78,-29.752l-7.527,0c-29.225,0 -57.266,-11.555 -78.006,-32.146c-0.001,0.001 -0.001,0 -0.001,0l-16.162,-15.702l-6.498,-6.314Z" style="fill:#8a3d40;fill-rule:nonzero;"/><path d="M339.008,96.456c-9.316,-9.377 -9.316,-24.74 0,-34.118l4.248,-4.506c4.393,-4.79 10.503,-7.66 16.995,-7.982l93.213,0c6.492,0.322 12.602,3.192 16.995,7.982c0,0 37.41,37.577 66.615,66.912c8.939,8.979 13.868,21.191 13.666,33.859c-0.202,12.669 -5.517,24.718 -14.738,33.407c0,0.001 -0.001,0.001 -0.001,0.001c0,0 -5.735,-5.267 -13.113,-12.044c-20.552,-18.875 -47.44,-29.349 -75.344,-29.349c-2.613,0 -5.246,0 -7.869,0c-29.226,0 -57.266,-11.555 -78.007,-32.146c0,0.001 -0.001,0 -0.001,0l-16.161,-15.702l-6.498,-6.314Z" style="fill:#4ea03d;fill-rule:nonzero;"/><clipPath id="_clip7"><path d="M339.008,96.456c-9.316,-9.377 -9.316,-24.74 0,-34.118l4.248,-4.506c4.393,-4.79 10.503,-7.66 16.995,-7.982l93.213,0c6.492,0.322 12.602,3.192 16.995,7.982c0,0 37.41,37.577 66.615,66.912c8.939,8.979 13.868,21.191 13.666,33.859c-0.202,12.669 -5.517,24.718 -14.738,33.407c0,0.001 -0.001,0.001 -0.001,0.001c0,0 -5.735,-5.267 -13.113,-12.044c-20.552,-18.875 -47.44,-29.349 -75.344,-29.349c-2.613,0 -5.246,0 -7.869,0c-29.226,0 -57.266,-11.555 -78.007,-32.146c0,0.001 -0.001,0 -0.001,0l-16.161,-15.702l-6.498,-6.314Z" clip-rule="nonzero"/></clipPath><g clip-path="url(#_clip7)"><path d="M339.008,91.513c-9.316,-9.377 -9.316,-24.741 0,-34.118l4.248,-4.506c4.393,-4.791 10.503,-7.661 16.995,-7.982l93.213,0c6.492,0.321 12.602,3.191 16.995,7.982c0,0 37.41,37.577 66.615,66.912c8.939,8.979 13.868,21.191 13.666,33.859c-0.202,12.669 -5.517,24.717 -14.738,33.407c0,0.001 -0.001,0.001 -0.001,0.001c0,0 -5.735,-5.267 -13.113,-12.044c-20.552,-18.876 -47.44,-29.349 -75.344,-29.349c-2.613,0 -5.246,0 -7.869,0c-29.226,-0.001 -57.266,-11.556 -78.007,-32.146c0,0 -0.001,0 -0.001,0l-16.161,-15.702l-6.498,-6.314Z" style="fill:#8ec13d;fill-rule:nonzero;"/><path d="M348.864,91.294c-8.082,-8.134 -8.082,-21.462 0,-29.596l4.032,-3.563c3.81,-4.156 19.152,-3.183 24.783,-3.462l73.589,0c5.631,0.279 10.931,2.769 14.742,6.924c0,0 47.589,49.088 73.604,75.922c9.196,9.486 9.171,24.568 -0.056,34.023c0,0 -0.001,0.001 -0.001,0.001c-3.316,3.398 -8.734,3.536 -12.218,0.313c-2.218,-2.052 -4.88,-4.514 -7.741,-7.161c-18.359,-16.984 -42.449,-26.417 -67.459,-26.417l-20.89,0c-22.204,0 -43.508,-8.779 -59.265,-24.423c-0.001,0 -0.001,0 -0.001,0l-14.02,-13.622l-9.099,-8.939Z" style="fill:#4ea03d;fill-rule:nonzero;"/></g></g><g id="Bridge1" serif:id="Bridge"><path d="M373.931,311.762l-28.751,-28.752l-15.027,15.007l28.81,28.712l14.968,-14.967Z" style="fill:#c7ad85;"/><path d="M358.544,326.31l-28.391,-28.277l0.02,21.284l28.517,28.461l-0.146,-21.468Z" style="fill:#8f5837;"/></g><path d="M343.884,321.807c-4.731,-4.731 -8.6,-3.73 -8.636,2.234c-0.035,5.963 3.777,14.645 8.508,19.376c4.731,4.731 8.6,3.73 8.635,-2.233c0.036,-5.964 -3.776,-14.646 -8.507,-19.377Z" style="fill:#8e97be;"/><clipPath id="_clip8"><path d="M343.884,321.807c-4.731,-4.731 -8.6,-3.73 -8.636,2.234c-0.035,5.963 3.777,14.645 8.508,19.376c4.731,4.731 8.6,3.73 8.635,-2.233c0.036,-5.964 -3.776,-14.646 -8.507,-19.377Z"/></clipPath><g clip-path="url(#_clip8)"><path d="M348.623,292.254l-28.006,28.134l0.126,18.6l28.006,-28.135l-0.126,-18.599Z" style="fill:#8a3d40;"/></g><g><path d="M413.901,321.784c-4.823,-4.874 -11.403,-7.619 -18.26,-7.619c-6.857,0 -13.436,2.745 -18.259,7.619l-28.806,16.098c-4.874,4.823 -7.052,15.013 -7.052,21.87c0,6.857 6.545,18.167 11.419,22.99l100.532,100.81c10.178,9.903 26.619,9.903 36.797,0l24.438,-24.439c14.74,-14.555 13.614,-34.641 3.656,-44.74l-104.465,-92.589Z" style="fill:#aa7348;fill-rule:nonzero;"/><path d="M413.512,313.909c-4.823,-4.874 -11.403,-7.62 -18.26,-7.62c-6.857,0 -13.436,2.746 -18.259,7.62l-26.345,21.004c-4.874,4.823 -8.011,12.429 -7.109,20.608c0.751,6.816 4.141,14.522 9.015,19.345l100.532,100.81c10.178,9.903 26.619,9.903 36.797,0l24.438,-24.439c9.958,-10.098 12.497,-29.102 2.539,-39.201l-103.348,-98.127Z" style="fill:#8a3d40;fill-rule:nonzero;"/><path d="M413.512,308.367c-4.823,-4.874 -11.403,-7.62 -18.26,-7.62c-6.857,0 -13.436,2.746 -18.259,7.62l-24.439,24.438c-4.874,4.824 -7.62,11.403 -7.62,18.26c0,6.857 2.746,13.436 7.62,18.26l100.532,100.809c10.178,9.903 26.619,9.903 36.797,0l24.438,-24.439c9.958,-10.098 9.958,-26.559 0,-36.658l-100.809,-100.67Z" style="fill:#8ec13d;fill-rule:nonzero;"/><clipPath id="_clip9"><path d="M413.512,308.367c-4.823,-4.874 -11.403,-7.62 -18.26,-7.62c-6.857,0 -13.436,2.746 -18.259,7.62l-24.439,24.438c-4.874,4.824 -7.62,11.403 -7.62,18.26c0,6.857 2.746,13.436 7.62,18.26l100.532,100.809c10.178,9.903 26.619,9.903 36.797,0l24.438,-24.439c9.958,-10.098 9.958,-26.559 0,-36.658l-100.809,-100.67Z" clip-rule="nonzero"/></clipPath><g clip-path="url(#_clip9)"><path d="M411.781,317.901c-3.932,-3.973 -9.295,-6.211 -14.884,-6.211c-2.736,0 -5.168,0.287 -7.399,1.046c-4.814,1.644 -10.143,0.447 -13.792,-3.097c-0.044,0.045 -0.044,0.045 -0.044,0.045l-21.358,21.371c0,0 0,0 0.001,0.001c3.556,3.739 4.673,9.178 2.876,14.017c-0.921,2.32 -1.301,4.864 -1.301,7.633c0,5.59 2.238,10.953 6.212,14.885l94.412,94.638c8.296,8.073 21.698,8.073 29.995,0l19.921,-19.921c8.117,-8.231 8.117,-21.649 0,-29.881l-94.639,-94.526Z" style="fill:#4ea03d;fill-rule:nonzero;"/></g></g></g><path d="M331.306,155.343c6.879,-6.782 6.959,-17.874 0.177,-24.754l-9.066,-9.196c-6.782,-6.88 -17.874,-6.959 -24.754,-0.177l-10.86,10.706c-6.88,6.781 -6.959,17.873 -0.177,24.753l9.066,9.197c6.782,6.879 17.873,6.959 24.753,0.177l10.861,-10.706Z" style="fill:#8c9dde;"/></g><g><path d="M439.359,166.052c0,-1.05 -0.853,-1.902 -1.902,-1.902l-6.701,0c-1.05,0 -1.902,0.852 -1.902,1.902l0,3.804c0,1.05 0.852,1.902 1.902,1.902l6.701,0c1.049,0 1.902,-0.852 1.902,-1.902l0,-3.804Z" style="fill:#1e7c4b;"/><rect x="429.591" y="160.697" width="8.947" height="0.705" style="fill:#e38f33;"/><rect x="429.591" y="161.402" width="8.947" height="4.819" style="fill:#a0603b;"/><rect x="430.401" y="162.029" width="7.328" height="3.464" style="fill:#e38f33;"/><rect x="433.407" y="165.695" width="1.316" height="4.819" style="fill:#a0603b;"/></g><g><path d="M237.313,171.899l-2.331,2.331l1.225,1.225l2.331,-2.331l-1.225,-1.225Z" style="fill:#fff;"/><path d="M240.87,168.342l-2.332,2.331l1.226,1.226l2.331,-2.332l-1.225,-1.225Z" style="fill:#fff;"/><path d="M235.616,170.201l1.697,1.698l1.225,-1.226l-1.697,-1.697l-1.225,1.225Z" style="fill:#fff;"/><path d="M238.538,173.124l1.697,1.697l1.226,-1.225l-1.697,-1.697l-1.226,1.225Z" style="fill:#fff;"/></g><g><path d="M92.751,151.218l-2.332,2.332l1.226,1.225l2.331,-2.331l-1.225,-1.226Z" style="fill:#fff;"/><path d="M96.307,147.662l-2.331,2.331l1.225,1.225l2.332,-2.331l-1.226,-1.225Z" style="fill:#fff;"/><path d="M91.054,149.521l1.697,1.697l1.225,-1.225l-1.697,-1.697l-1.225,1.225Z" style="fill:#fff;"/><path d="M93.976,152.444l1.697,1.697l1.225,-1.226l-1.697,-1.697l-1.225,1.226Z" style="fill:#fff;"/></g><g><path d="M295.181,224.722c-0.548,-0.5 -1.418,-0.481 -1.943,0.044l-4.564,4.571c-0.524,0.525 -0.504,1.358 0.044,1.858l1.986,1.815c0.548,0.501 1.418,0.482 1.943,-0.043l4.564,-4.571c0.524,-0.525 0.504,-1.358 -0.044,-1.859l-1.986,-1.815Z" style="fill:#1e7c4b;"/><rect x="292.238" y="225.17" width="0.704" height="4.819" style="fill:#aa7348;"/><path d="M295.395,217.715l-5.504,5.513l0.704,0l5.505,-5.513l-0.705,0Z" style="fill:#e38f33;"/><path d="M296.1,217.715l-5.505,5.513l0,4.819l5.505,-5.513l0,-4.819Z" style="fill:#a0603b;"/><path d="M295.602,218.84l-4.509,4.515l0,3.464l4.509,-4.515l0,-3.464Z" style="fill:#e38f33;"/><path d="M293.752,224.359l-0.81,0.811l0,4.819l0.81,-0.811l0,-4.819Z" style="fill:#a0603b;"/><rect x="289.891" y="223.228" width="0.704" height="4.819" style="fill:#aa7348;"/></g><g><path d="M326.161,293.284c-0.548,-0.501 -1.418,-0.481 -1.942,0.043l-4.564,4.571c-0.524,0.525 -0.505,1.358 0.043,1.859l1.986,1.815c0.548,0.501 1.419,0.481 1.943,-0.043l4.564,-4.571c0.524,-0.525 0.504,-1.358 -0.044,-1.859l-1.986,-1.815Z" style="fill:#1e7c4b;"/><rect x="323.218" y="293.732" width="0.704" height="4.819" style="fill:#aa7348;"/><path d="M326.376,286.277l-5.505,5.513l0.704,0l5.505,-5.513l-0.704,0Z" style="fill:#e38f33;"/><path d="M327.08,286.277l-5.505,5.513l0,4.818l5.505,-5.513l0,-4.818Z" style="fill:#a0603b;"/><path d="M324.733,292.921l-0.81,0.811l0,4.818l0.81,-0.811l0,-4.818Z" style="fill:#a0603b;"/><rect x="320.871" y="291.79" width="0.704" height="4.819" style="fill:#aa7348;"/></g><g><path d="M138.714,166.568c0,-1.05 -0.852,-1.902 -1.902,-1.902l-8.863,0c-1.05,0 -1.902,0.852 -1.902,1.902l0,3.804c0,1.05 0.852,1.902 1.902,1.902l8.863,0c1.05,0 1.902,-0.852 1.902,-1.902l0,-3.804Z" style="fill:#1e7c4b;"/><rect x="126.784" y="161.213" width="8.947" height="0.705" style="fill:#e38f33;"/><rect x="126.784" y="161.918" width="8.947" height="4.819" style="fill:#a0603b;"/><rect x="127.594" y="162.545" width="7.328" height="3.464" style="fill:#e38f33;"/><rect x="130.6" y="166.211" width="1.316" height="4.819" style="fill:#a0603b;"/></g><g><rect x="455.874" y="415.616" width="16.081" height="9.131" style="fill:#1e7c4b;"/><rect x="455.874" y="413.789" width="16.081" height="9.131" style="fill:#e6a851;"/><rect x="457.786" y="413.789" width="12.257" height="7.31" style="fill:#7a2544;"/><rect x="455.874" y="406.721" width="16.081" height="9.851" style="fill:#db4242;"/><rect x="455.874" y="409.27" width="16.081" height="7.302" style="fill:#ab333b;"/><rect x="461.913" y="415.851" width="4.002" height="2.503" style="fill:#fff;"/><rect x="455.874" y="406.721" width="1.912" height="9.851" style="fill:#fff;"/><rect x="462.958" y="406.721" width="1.912" height="9.851" style="fill:#fff;"/><rect x="470.043" y="406.721" width="1.912" height="9.851" style="fill:#fff;"/><path d="M455.874,414.66l0,1.912l16.081,0l0,-1.912l-16.081,0Z" style="fill:#fff;"/></g><g id="Ladder"><path d="M427.391,169.043c0,-1.05 -0.853,-1.902 -1.902,-1.902l-15.007,0c-1.049,0 -1.902,0.852 -1.902,1.902l0,3.804c0,1.05 0.853,1.902 1.902,1.902l15.007,0c1.049,0 1.902,-0.852 1.902,-1.902l0,-3.804Z" style="fill:#1e7c4b;"/><g><rect x="414.099" y="163.182" width="8.053" height="0.705" style="fill:#e38f33;"/><rect x="414.099" y="163.887" width="8.053" height="1.293" style="fill:#a0603b;"/></g><g><rect x="414.118" y="166.436" width="8.053" height="0.705" style="fill:#e38f33;"/><rect x="414.118" y="167.141" width="8.053" height="1.293" style="fill:#a0603b;"/></g><g><rect x="414.122" y="169.69" width="8.053" height="0.705" style="fill:#e38f33;"/><rect x="414.122" y="170.395" width="8.053" height="1.293" style="fill:#a0603b;"/></g><g><rect x="414.078" y="159.928" width="8.053" height="0.705" style="fill:#e38f33;"/><rect x="414.078" y="160.633" width="8.053" height="1.293" style="fill:#a0603b;"/></g><g><rect x="414.078" y="156.674" width="8.053" height="0.705" style="fill:#e38f33;"/><rect x="414.078" y="157.379" width="8.053" height="1.293" style="fill:#a0603b;"/></g><g><rect x="414.078" y="153.42" width="8.053" height="0.705" style="fill:#e38f33;"/><rect x="414.078" y="154.125" width="8.053" height="1.293" style="fill:#a0603b;"/></g><g><rect x="414.099" y="150.166" width="8.053" height="0.705" style="fill:#e38f33;"/><rect x="414.099" y="150.871" width="8.053" height="1.293" style="fill:#a0603b;"/></g><g><rect x="414.233" y="146.912" width="8.053" height="0.705" style="fill:#e38f33;"/><rect x="414.233" y="147.617" width="8.053" height="1.293" style="fill:#a0603b;"/></g><g><path d="M414.878,146.206l-3.95,0l0,25.929c0.008,1.421 3.918,1.48 3.95,0l0,-25.929Z" style="fill:#a0603b;"/><clipPath id="_clip10"><path d="M414.878,146.206l-3.95,0l0,25.929c0.008,1.421 3.918,1.48 3.95,0l0,-25.929Z"/></clipPath><g clip-path="url(#_clip10)"><rect x="412.903" y="146.206" width="3.95" height="27.903" style="fill:#7a2544;"/></g><ellipse cx="412.903" cy="146.206" rx="1.975" ry="1.155" style="fill:#e38f33;"/><ellipse cx="412.903" cy="146.206" rx="1.093" ry="0.639" style="fill:#a0603b;"/></g><g><path d="M425.542,146.206l-3.95,0l0,25.929c0.008,1.421 3.918,1.48 3.95,0l0,-25.929Z" style="fill:#a0603b;"/><clipPath id="_clip11"><path d="M425.542,146.206l-3.95,0l0,25.929c0.008,1.421 3.918,1.48 3.95,0l0,-25.929Z"/></clipPath><g clip-path="url(#_clip11)"><rect x="423.567" y="146.206" width="3.95" height="27.903" style="fill:#7a2544;"/></g><ellipse cx="423.567" cy="146.206" rx="1.975" ry="1.155" style="fill:#e38f33;"/><ellipse cx="423.567" cy="146.206" rx="1.093" ry="0.639" style="fill:#a0603b;"/></g></g><g id="Ladder1" serif:id="Ladder"><path d="M155.024,168.742c0,-1.05 -0.852,-1.902 -1.902,-1.902l-15.006,0c-1.05,0 -1.902,0.852 -1.902,1.902l0,3.804c0,1.05 0.852,1.902 1.902,1.902l15.006,0c1.05,0 1.902,-0.852 1.902,-1.902l0,-3.804Z" style="fill:#1e7c4b;"/><g><rect x="141.733" y="162.88" width="8.053" height="0.705" style="fill:#e38f33;"/><rect x="141.733" y="163.586" width="8.053" height="1.293" style="fill:#a0603b;"/></g><g><rect x="141.751" y="166.134" width="8.053" height="0.705" style="fill:#e38f33;"/><rect x="141.751" y="166.84" width="8.053" height="1.293" style="fill:#a0603b;"/></g><g><rect x="141.756" y="169.388" width="8.053" height="0.705" style="fill:#e38f33;"/><rect x="141.756" y="170.094" width="8.053" height="1.293" style="fill:#a0603b;"/></g><g><rect x="141.712" y="159.626" width="8.053" height="0.705" style="fill:#e38f33;"/><rect x="141.712" y="160.332" width="8.053" height="1.293" style="fill:#a0603b;"/></g><g><rect x="141.712" y="156.372" width="8.053" height="0.705" style="fill:#e38f33;"/><rect x="141.712" y="157.078" width="8.053" height="1.293" style="fill:#a0603b;"/></g><g><rect x="141.712" y="153.118" width="8.053" height="0.705" style="fill:#e38f33;"/><rect x="141.712" y="153.824" width="8.053" height="1.293" style="fill:#a0603b;"/></g><g><rect x="141.733" y="149.864" width="8.053" height="0.705" style="fill:#e38f33;"/><rect x="141.733" y="150.57" width="8.053" height="1.293" style="fill:#a0603b;"/></g><g><rect x="141.867" y="146.61" width="8.053" height="0.705" style="fill:#e38f33;"/><rect x="141.867" y="147.316" width="8.053" height="1.293" style="fill:#a0603b;"/></g><g><path d="M142.512,145.904l-3.95,0l0,25.929c0.008,1.422 3.918,1.48 3.95,0l0,-25.929Z" style="fill:#a0603b;"/><clipPath id="_clip12"><path d="M142.512,145.904l-3.95,0l0,25.929c0.008,1.422 3.918,1.48 3.95,0l0,-25.929Z"/></clipPath><g clip-path="url(#_clip12)"><rect x="140.537" y="145.904" width="3.95" height="27.903" style="fill:#7a2544;"/></g><ellipse cx="140.537" cy="145.904" rx="1.975" ry="1.155" style="fill:#e38f33;"/><ellipse cx="140.537" cy="145.904" rx="1.093" ry="0.639" style="fill:#a0603b;"/></g><g><path d="M153.176,145.904l-3.951,0l0,25.929c0.009,1.422 3.919,1.48 3.951,0l0,-25.929Z" style="fill:#a0603b;"/><clipPath id="_clip13"><path d="M153.176,145.904l-3.951,0l0,25.929c0.009,1.422 3.919,1.48 3.951,0l0,-25.929Z"/></clipPath><g clip-path="url(#_clip13)"><rect x="151.201" y="145.904" width="3.95" height="27.903" style="fill:#7a2544;"/></g><ellipse cx="151.201" cy="145.904" rx="1.975" ry="1.155" style="fill:#e38f33;"/><ellipse cx="151.201" cy="145.904" rx="1.093" ry="0.639" style="fill:#a0603b;"/></g></g><path d="M229.29,200.413c-0.689,0.689 -1.808,0.689 -2.498,0l-6.345,-6.346c-0.69,-0.689 -0.69,-1.808 0,-2.497l2.497,-2.498c0.689,-0.689 1.808,-0.689 2.498,0l6.345,6.346c0.69,0.689 0.69,1.808 0,2.497l-2.497,2.498Z" style="fill:#f9cf9d;"/><g><ellipse cx="464.499" cy="76.668" rx="11.438" ry="3.75" style="fill:#1e7c4b;"/><path d="M469.395,48.472l-9.792,0c0,0 0,18.386 0,26.845c0,1.299 1.505,2.967 4.896,2.967c0,0 0,0 0,0c3.721,0 4.896,-1.668 4.896,-2.967c0,-8.459 0,-26.845 0,-26.845Z" style="fill:#7a2544;"/><clipPath id="_clip14"><path d="M469.395,48.472l-9.792,0c0,0 0,18.386 0,26.845c0,1.299 1.505,2.967 4.896,2.967c0,0 0,0 0,0c3.721,0 4.896,-1.668 4.896,-2.967c0,-8.459 0,-26.845 0,-26.845Z"/></clipPath><g clip-path="url(#_clip14)"><path d="M465.965,64.655l-9.791,0l0,36.494c0,1.298 0.515,2.543 1.433,3.461c0.918,0.918 2.163,1.433 3.461,1.433c0.001,0 0.002,0 0.003,0c1.298,0 2.543,-0.515 3.461,-1.433c0.918,-0.918 1.433,-2.163 1.433,-3.461c0,-10.954 0,-36.494 0,-36.494Z" style="fill:#a0603b;"/></g><circle cx="464.499" cy="41.004" r="21.721" style="fill:#1e7c4b;"/><clipPath id="_clip15"><circle cx="464.499" cy="41.004" r="21.721"/></clipPath><g clip-path="url(#_clip15)"><circle cx="457.67" cy="33.236" r="21.721" style="fill:#4ea03d;"/></g><path d="M449.805,41.194c0.755,-0.523 2.071,0.068 2.938,1.32c0.867,1.251 0.959,2.691 0.204,3.214c-0.755,0.523 -2.071,-0.068 -2.938,-1.319c-0.867,-1.252 -0.959,-2.692 -0.204,-3.215Z" style="fill:#c7e254;"/><path d="M473.332,30.545c0.896,0.201 1.353,1.57 1.019,3.055c-0.333,1.486 -1.331,2.529 -2.227,2.328c-0.895,-0.201 -1.352,-1.57 -1.019,-3.056c0.333,-1.485 1.331,-2.528 2.227,-2.327Z" style="fill:#c7e254;"/><circle cx="457.67" cy="30.545" r="1.276" style="fill:#8ec13d;"/><circle cx="464.534" cy="46.94" r="1.276" style="fill:#8ec13d;"/></g><g><path d="M287.056,251.361c-0.689,0.69 -1.808,0.69 -2.497,0l-6.346,-6.345c-0.689,-0.69 -0.689,-1.809 0,-2.498l2.497,-2.497c0.69,-0.69 1.809,-0.69 2.498,0l6.346,6.345c0.689,0.69 0.689,1.809 0,2.498l-2.498,2.497Z" style="fill:#f9cf9d;"/><path d="M157.463,407.252c-0.69,0.689 -1.809,0.689 -2.498,0l-6.346,-6.345c-0.689,-0.69 -0.689,-1.809 0,-2.498l2.498,-2.497c0.689,-0.69 1.808,-0.69 2.497,0l6.346,6.345c0.689,0.689 0.689,1.809 0,2.498l-2.497,2.497Z" style="fill:#e6a851;"/><path d="M156.165,440.595c-0.689,0.689 -1.808,0.689 -2.497,0l-6.346,-6.346c-0.689,-0.689 -0.689,-1.808 0,-2.498l2.497,-2.497c0.69,-0.689 1.809,-0.689 2.498,0l6.345,6.346c0.69,0.689 0.69,1.808 0,2.497l-2.497,2.498Z" style="fill:#e6a851;"/><path d="M299.1,263.338c-0.69,0.689 -1.809,0.689 -2.498,0l-6.346,-6.346c-0.689,-0.689 -0.689,-1.808 0,-2.497l2.498,-2.498c0.689,-0.689 1.808,-0.689 2.497,0l6.346,6.346c0.689,0.689 0.689,1.808 0,2.498l-2.497,2.497Z" style="fill:#f9cf9d;"/><path d="M265.06,282.959c-0.689,-0.69 -1.808,-0.69 -2.498,0l-6.345,6.345c-0.689,0.689 -0.689,1.808 0,2.498l2.497,2.497c0.689,0.689 1.809,0.689 2.498,0l6.345,-6.346c0.69,-0.689 0.69,-1.808 0,-2.497l-2.497,-2.497Z" style="fill:#f9cf9d;"/><path d="M266.099,297.847c-0.689,-0.689 -1.809,-0.689 -2.498,0l-6.345,6.346c-0.69,0.689 -0.69,1.808 0,2.497l2.497,2.498c0.689,0.689 1.808,0.689 2.498,0l6.345,-6.346c0.689,-0.689 0.689,-1.808 0,-2.498l-2.497,-2.497Z" style="fill:#f9cf9d;"/><path d="M366.906,205.384c-0.689,-0.69 -1.808,-0.69 -2.497,0l-6.346,6.345c-0.689,0.689 -0.689,1.809 0,2.498l2.498,2.497c0.689,0.689 1.808,0.689 2.497,0l6.346,-6.345c0.689,-0.69 0.689,-1.809 0,-2.498l-2.498,-2.497Z" style="fill:#f9cf9d;"/><path d="M410.278,183.269c-0.689,-0.689 -1.808,-0.689 -2.497,0l-6.346,6.346c-0.689,0.689 -0.689,1.808 0,2.498l2.497,2.497c0.69,0.689 1.809,0.689 2.498,0l6.346,-6.346c0.689,-0.689 0.689,-1.808 0,-2.497l-2.498,-2.498Z" style="fill:#f9cf9d;"/><path d="M221.087,339.396c-0.689,-0.689 -1.808,-0.689 -2.497,0l-6.346,6.346c-0.689,0.689 -0.689,1.808 0,2.497l2.497,2.498c0.69,0.689 1.809,0.689 2.498,0l6.346,-6.346c0.689,-0.689 0.689,-1.808 0,-2.497l-2.498,-2.498Z" style="fill:#f9cf9d;"/><path d="M183,360.171c-0.689,-0.689 -1.808,-0.689 -2.497,0l-6.346,6.345c-0.689,0.69 -0.689,1.809 0,2.498l2.498,2.497c0.689,0.69 1.808,0.69 2.497,0l6.346,-6.345c0.689,-0.689 0.689,-1.809 0,-2.498l-2.498,-2.497Z" style="fill:#8ec13d;"/><path d="M251.21,296.808c-0.689,-0.689 -1.808,-0.689 -2.497,0l-6.346,6.346c-0.689,0.689 -0.689,1.808 0,2.497l2.498,2.498c0.689,0.689 1.808,0.689 2.497,0l6.346,-6.346c0.689,-0.689 0.689,-1.808 0,-2.497l-2.498,-2.498Z" style="fill:#8ec13d;"/><path d="M355.49,232.092c-0.689,-0.689 -1.809,-0.689 -2.498,0l-6.345,6.346c-0.69,0.689 -0.69,1.808 0,2.497l2.497,2.498c0.689,0.689 1.808,0.689 2.498,0l6.345,-6.346c0.689,-0.689 0.689,-1.808 0,-2.497l-2.497,-2.498Z" style="fill:#8ec13d;"/><path d="M368.863,218.941c-0.689,-0.69 -1.808,-0.69 -2.497,0l-6.346,6.345c-0.689,0.689 -0.689,1.809 0,2.498l2.498,2.497c0.689,0.689 1.808,0.689 2.497,0l6.346,-6.345c0.689,-0.69 0.689,-1.809 0,-2.498l-2.498,-2.497Z" style="fill:#8ec13d;"/><path d="M319.874,284.113c-0.689,0.689 -1.808,0.689 -2.497,0l-6.346,-6.346c-0.689,-0.689 -0.689,-1.808 0,-2.498l2.497,-2.497c0.69,-0.689 1.809,-0.689 2.498,0l6.346,6.346c0.689,0.689 0.689,1.808 0,2.497l-2.498,2.498Z" style="fill:#8ec13d;"/><path d="M138.928,215.844c-0.689,0.689 -1.808,0.689 -2.497,0l-6.346,-6.345c-0.689,-0.69 -0.689,-1.809 0,-2.498l2.498,-2.497c0.689,-0.69 1.808,-0.69 2.497,0l6.346,6.345c0.689,0.689 0.689,1.809 0,2.498l-2.498,2.497Z" style="fill:#8ec13d;"/><path d="M119.738,211.213c-0.689,0.689 -1.808,0.689 -2.497,0l-6.346,-6.346c-0.689,-0.689 -0.689,-1.808 0,-2.497l2.497,-2.498c0.69,-0.689 1.809,-0.689 2.498,0l6.346,6.346c0.689,0.689 0.689,1.808 0,2.497l-2.498,2.498Z" style="fill:#8ec13d;"/><path d="M313.091,261.107c-0.689,0.689 -1.808,0.689 -2.497,0l-6.346,-6.346c-0.689,-0.689 -0.689,-1.808 0,-2.497l2.498,-2.498c0.689,-0.689 1.808,-0.689 2.497,0l6.346,6.346c0.689,0.689 0.689,1.808 0,2.498l-2.498,2.497Z" style="fill:#f9cf9d;"/><path d="M488.69,107.008c-0.69,0.689 -1.809,0.689 -2.498,0l-6.346,-6.345c-0.689,-0.69 -0.689,-1.809 0,-2.498l2.498,-2.497c0.689,-0.69 1.808,-0.69 2.497,0l6.346,6.345c0.689,0.69 0.689,1.809 0,2.498l-2.497,2.497Z" style="fill:#f9cf9d;"/><path d="M333.866,281.882c-0.689,0.689 -1.809,0.689 -2.498,0l-6.345,-6.346c-0.69,-0.689 -0.69,-1.808 0,-2.497l2.497,-2.498c0.689,-0.689 1.808,-0.689 2.498,0l6.345,6.346c0.689,0.689 0.689,1.808 0,2.497l-2.497,2.498Z" style="fill:#f9cf9d;"/><path d="M301.535,249.551c-0.689,0.689 -1.809,0.689 -2.498,0l-6.345,-6.346c-0.69,-0.689 -0.69,-1.808 0,-2.498l2.497,-2.497c0.689,-0.689 1.808,-0.689 2.498,0l6.345,6.346c0.689,0.689 0.689,1.808 0,2.497l-2.497,2.498Z" style="fill:#8ec13d;"/><path d="M466.746,105.839c-0.689,0.689 -1.808,0.689 -2.498,0l-6.345,-6.346c-0.69,-0.689 -0.69,-1.808 0,-2.497l2.497,-2.498c0.689,-0.689 1.808,-0.689 2.498,0l6.345,6.346c0.69,0.689 0.69,1.808 0,2.498l-2.497,2.497Z" style="fill:#8ec13d;"/><g><ellipse cx="363.058" cy="77.926" rx="5.84" ry="1.914" style="fill:#1e7c4b;"/><rect x="361.214" y="65.952" width="3.688" height="11.974" style="fill:#005771;"/><circle cx="363.058" cy="63.333" r="4.666" style="fill:#e4953d;stroke:#fff;stroke-width:3px;"/></g><g><ellipse cx="481.738" cy="204.805" rx="5.84" ry="1.914" style="fill:#1e7c4b;"/><rect x="479.894" y="192.832" width="3.688" height="11.974" style="fill:#005771;"/><circle cx="481.738" cy="190.212" r="4.666" style="fill:#e4953d;stroke:#fff;stroke-width:3px;"/></g><g><ellipse cx="215.042" cy="323.005" rx="5.84" ry="1.914" style="fill:#1e7c4b;"/><rect x="213.198" y="311.032" width="3.688" height="11.974" style="fill:#005771;"/><circle cx="215.042" cy="308.412" r="4.666" style="fill:#e4953d;stroke:#fff;stroke-width:3px;"/></g><g><ellipse cx="107.682" cy="176.78" rx="5.84" ry="1.914" style="fill:#419641;"/><rect x="105.838" y="164.807" width="3.688" height="11.974" style="fill:#005771;"/><circle cx="107.682" cy="162.187" r="4.666" style="fill:#e4953d;stroke:#fff;stroke-width:3px;"/></g><g><ellipse cx="498.003" cy="424.343" rx="5.84" ry="1.914" style="fill:#1e7c4b;"/><rect x="496.159" y="412.369" width="3.688" height="11.974" style="fill:#005771;"/><circle cx="498.003" cy="409.75" r="4.666" style="fill:#e4953d;stroke:#fff;stroke-width:3px;"/></g><g><ellipse cx="480.049" cy="429.016" rx="5.84" ry="1.914" style="fill:#1e7c4b;"/><rect x="478.205" y="417.042" width="3.688" height="11.974" style="fill:#005771;"/><circle cx="480.049" cy="414.423" r="4.666" style="fill:#e4953d;stroke:#fff;stroke-width:3px;"/></g><path d="M449.624,121.821c0.128,-0.146 0.264,-0.29 0.405,-0.431c1.958,-1.958 4.381,-2.714 5.407,-1.688c1.027,1.026 0.27,3.449 -1.688,5.407c-1.21,1.211 -2.599,1.962 -3.725,2.116c-0.127,0.021 -0.26,0.031 -0.399,0.03c-0.139,0.001 -0.273,-0.009 -0.4,-0.03c-1.126,-0.154 -2.515,-0.905 -3.725,-2.116c-1.958,-1.958 -2.714,-4.381 -1.688,-5.407c1.026,-1.026 3.449,-0.27 5.407,1.688c0.141,0.141 0.277,0.285 0.406,0.431Z" style="fill:#1e7c4b;"/><path d="M397.258,74.029c0.129,-0.146 0.264,-0.29 0.406,-0.431c1.958,-1.958 4.38,-2.715 5.407,-1.688c1.026,1.026 0.27,3.449 -1.688,5.407c-1.211,1.211 -2.599,1.962 -3.726,2.116c-0.126,0.021 -0.26,0.031 -0.399,0.03c-0.139,0.001 -0.272,-0.009 -0.399,-0.03c-1.126,-0.154 -2.515,-0.905 -3.726,-2.116c-1.958,-1.958 -2.714,-4.381 -1.688,-5.407c1.027,-1.027 3.449,-0.27 5.407,1.688c0.142,0.141 0.277,0.285 0.406,0.431Z" style="fill:#1e7c4b;"/><path d="M332.282,214.151c0.129,-0.146 0.264,-0.29 0.406,-0.431c1.957,-1.958 4.38,-2.714 5.407,-1.688c1.026,1.026 0.27,3.449 -1.688,5.407c-1.211,1.211 -2.6,1.962 -3.726,2.116c-0.127,0.021 -0.26,0.031 -0.399,0.03c-0.139,0.001 -0.273,-0.009 -0.4,-0.03c-1.126,-0.154 -2.514,-0.905 -3.725,-2.116c-1.958,-1.958 -2.714,-4.381 -1.688,-5.407c1.026,-1.026 3.449,-0.27 5.407,1.688c0.142,0.141 0.277,0.285 0.406,0.431Z" style="fill:#1e7c4b;"/><path d="M215.43,376.075c0.129,-0.145 0.264,-0.289 0.406,-0.431c1.958,-1.958 4.38,-2.714 5.407,-1.688c1.026,1.026 0.27,3.449 -1.688,5.407c-1.211,1.211 -2.599,1.962 -3.726,2.116c-0.127,0.021 -0.26,0.031 -0.399,0.03c-0.139,0.001 -0.272,-0.009 -0.399,-0.03c-1.127,-0.154 -2.515,-0.905 -3.726,-2.116c-1.958,-1.958 -2.714,-4.381 -1.688,-5.407c1.027,-1.026 3.449,-0.27 5.407,1.688c0.142,0.142 0.277,0.286 0.406,0.431Z" style="fill:#1e7c4b;"/><path d="M407.232,347.778c0.128,-0.146 0.264,-0.29 0.405,-0.431c1.958,-1.958 4.381,-2.715 5.407,-1.688c1.027,1.026 0.27,3.449 -1.687,5.407c-1.211,1.211 -2.6,1.962 -3.726,2.116c-0.127,0.021 -0.26,0.031 -0.399,0.03c-0.139,0.001 -0.273,-0.009 -0.4,-0.03c-1.126,-0.154 -2.514,-0.905 -3.725,-2.116c-1.958,-1.958 -2.714,-4.381 -1.688,-5.407c1.026,-1.027 3.449,-0.27 5.407,1.688c0.142,0.141 0.277,0.285 0.406,0.431Z" style="fill:#1e7c4b;"/><path d="M413.503,399.838c0.128,-0.146 0.264,-0.29 0.405,-0.431c1.958,-1.958 4.381,-2.714 5.407,-1.688c1.027,1.026 0.27,3.449 -1.688,5.407c-1.21,1.211 -2.599,1.962 -3.725,2.116c-0.127,0.021 -0.261,0.031 -0.399,0.03c-0.139,0.001 -0.273,-0.009 -0.4,-0.03c-1.126,-0.154 -2.515,-0.905 -3.725,-2.116c-1.958,-1.958 -2.715,-4.381 -1.688,-5.407c1.026,-1.026 3.449,-0.27 5.407,1.688c0.141,0.141 0.277,0.285 0.406,0.431Z" style="fill:#1e7c4b;"/><path d="M94.076,182.248c0.129,-0.146 0.264,-0.29 0.406,-0.432c1.958,-1.957 4.381,-2.714 5.407,-1.687c1.026,1.026 0.27,3.449 -1.688,5.407c-1.211,1.21 -2.599,1.962 -3.725,2.116c-0.127,0.021 -0.261,0.03 -0.4,0.03c-0.139,0 -0.272,-0.009 -0.399,-0.03c-1.126,-0.154 -2.515,-0.906 -3.726,-2.116c-1.957,-1.958 -2.714,-4.381 -1.687,-5.407c1.026,-1.027 3.449,-0.27 5.407,1.687c0.141,0.142 0.277,0.286 0.405,0.432Z" style="fill:#1e7c4b;"/><path d="M246.572,187.315c0.129,-0.146 0.264,-0.29 0.406,-0.432c1.958,-1.958 4.381,-2.714 5.407,-1.688c1.026,1.027 0.27,3.45 -1.688,5.407c-1.211,1.211 -2.599,1.962 -3.725,2.117c-0.127,0.02 -0.261,0.03 -0.4,0.029c-0.139,0.001 -0.272,-0.009 -0.399,-0.029c-1.126,-0.155 -2.515,-0.906 -3.726,-2.117c-1.958,-1.957 -2.714,-4.38 -1.688,-5.407c1.027,-1.026 3.45,-0.27 5.407,1.688c0.142,0.142 0.277,0.286 0.406,0.432Z" style="fill:#1e7c4b;"/><path d="M110.674,112.668c0.128,-0.145 0.264,-0.289 0.405,-0.431c1.958,-1.958 4.381,-2.714 5.407,-1.688c1.027,1.027 0.27,3.449 -1.688,5.407c-1.21,1.211 -2.599,1.962 -3.725,2.116c-0.127,0.021 -0.26,0.031 -0.399,0.03c-0.139,0.001 -0.273,-0.009 -0.4,-0.03c-1.126,-0.154 -2.515,-0.905 -3.725,-2.116c-1.958,-1.958 -2.715,-4.38 -1.688,-5.407c1.026,-1.026 3.449,-0.27 5.407,1.688c0.141,0.142 0.277,0.286 0.406,0.431Z" style="fill:#54a33d;"/><path d="M154.504,375.502c0.129,-0.146 0.264,-0.29 0.406,-0.432c1.958,-1.958 4.381,-2.714 5.407,-1.688c1.026,1.027 0.27,3.45 -1.688,5.407c-1.211,1.211 -2.599,1.962 -3.725,2.117c-0.127,0.02 -0.261,0.03 -0.4,0.029c-0.139,0.001 -0.272,-0.009 -0.399,-0.029c-1.126,-0.155 -2.515,-0.906 -3.726,-2.117c-1.957,-1.957 -2.714,-4.38 -1.687,-5.407c1.026,-1.026 3.449,-0.27 5.407,1.688c0.141,0.142 0.277,0.286 0.405,0.432Z" style="fill:#54a33d;"/><g><ellipse cx="377.026" cy="358.457" rx="11.438" ry="3.75" style="fill:#1e7c4b;"/><path d="M381.922,330.261l-9.792,0c0,0 0,18.386 0,26.845c0,1.299 1.505,2.967 4.896,2.967c0,0 0,0 0,0c3.721,0 4.896,-1.668 4.896,-2.967c0,-8.459 0,-26.845 0,-26.845Z" style="fill:#7a2544;"/><clipPath id="_clip16"><path d="M381.922,330.261l-9.792,0c0,0 0,18.386 0,26.845c0,1.299 1.505,2.967 4.896,2.967c0,0 0,0 0,0c3.721,0 4.896,-1.668 4.896,-2.967c0,-8.459 0,-26.845 0,-26.845Z"/></clipPath><g clip-path="url(#_clip16)"><path d="M378.492,349.906l-9.791,0l0,36.495c0,1.298 0.515,2.543 1.433,3.46c0.918,0.918 2.163,1.434 3.461,1.434l0.003,0c1.298,0 2.543,-0.516 3.461,-1.434c0.918,-0.917 1.433,-2.162 1.433,-3.46c0,-10.955 0,-36.495 0,-36.495Z" style="fill:#a0603b;"/></g><circle cx="377.026" cy="325.563" r="21.721" style="fill:#1e7c4b;"/><clipPath id="_clip17"><circle cx="377.026" cy="325.563" r="21.721"/></clipPath><g clip-path="url(#_clip17)"><circle cx="370.198" cy="317.795" r="21.721" style="fill:#4ea03d;"/></g><path d="M386.476,325.753c-0.755,-0.523 -2.071,0.069 -2.938,1.32c-0.867,1.251 -0.958,2.691 -0.204,3.214c0.755,0.523 2.071,-0.068 2.938,-1.319c0.868,-1.252 0.959,-2.692 0.204,-3.215Z" style="fill:#c7e254;"/><path d="M362.949,315.104c-0.896,0.201 -1.353,1.57 -1.019,3.056c0.333,1.485 1.331,2.528 2.227,2.327c0.896,-0.201 1.352,-1.57 1.019,-3.056c-0.333,-1.485 -1.331,-2.528 -2.227,-2.327Z" style="fill:#c7e254;"/><circle cx="378.611" cy="315.104" r="1.276" style="fill:#8ec13d;"/><circle cx="371.747" cy="331.499" r="1.276" style="fill:#8ec13d;"/></g><g><ellipse cx="464.805" cy="387.079" rx="11.438" ry="3.75" style="fill:#1e7c4b;"/><path d="M469.701,358.883l-9.792,0c0,0 0,18.386 0,26.845c0,1.299 1.505,2.967 4.896,2.967c0,0 0,0 0,0c3.721,0 4.896,-1.668 4.896,-2.967c0,-8.459 0,-26.845 0,-26.845Z" style="fill:#7a2544;"/><clipPath id="_clip18"><path d="M469.701,358.883l-9.792,0c0,0 0,18.386 0,26.845c0,1.299 1.505,2.967 4.896,2.967c0,0 0,0 0,0c3.721,0 4.896,-1.668 4.896,-2.967c0,-8.459 0,-26.845 0,-26.845Z"/></clipPath><g clip-path="url(#_clip18)"><path d="M466.271,371.603l-9.791,0l0,36.495c0,1.298 0.515,2.543 1.433,3.46c0.918,0.918 2.163,1.434 3.461,1.434c0.001,0 0.002,0 0.003,0c1.298,0 2.543,-0.516 3.461,-1.434c0.918,-0.917 1.433,-2.162 1.433,-3.46l0,-36.495Z" style="fill:#a0603b;"/></g><circle cx="464.805" cy="347.26" r="21.721" style="fill:#1e7c4b;"/><clipPath id="_clip19"><circle cx="464.805" cy="347.26" r="21.721"/></clipPath><g clip-path="url(#_clip19)"><circle cx="457.977" cy="339.492" r="21.721" style="fill:#4ea03d;"/></g><path d="M469.719,332.772c0.754,-0.523 2.071,0.068 2.938,1.319c0.867,1.252 0.958,2.692 0.204,3.215c-0.755,0.523 -2.072,-0.068 -2.939,-1.32c-0.867,-1.251 -0.958,-2.691 -0.203,-3.214Z" style="fill:#c7e254;"/><path d="M457.143,354.769c0.104,-0.913 1.417,-1.512 2.93,-1.339c1.512,0.174 2.655,1.055 2.55,1.968c-0.105,0.912 -1.417,1.511 -2.93,1.338c-1.512,-0.174 -2.655,-1.055 -2.55,-1.967Z" style="fill:#c7e254;"/><circle cx="476.017" cy="343.133" r="0.638" style="fill:#8ec13d;"/><circle cx="474.103" cy="345.374" r="1.276" style="fill:#8ec13d;"/><circle cx="453.182" cy="345.134" r="1.276" style="fill:#8ec13d;"/></g><g><ellipse cx="448.082" cy="433.143" rx="11.438" ry="3.75" style="fill:#1e7c4b;"/><path d="M452.978,404.948l-9.791,0c0,0 0,18.385 0,26.845c0,1.298 1.504,2.966 4.895,2.966c0,0 0,0 0,0c3.722,0 4.896,-1.668 4.896,-2.966c0,-8.46 0,-26.845 0,-26.845Z" style="fill:#7a2544;"/><clipPath id="_clip20"><path d="M452.978,404.948l-9.791,0c0,0 0,18.385 0,26.845c0,1.298 1.504,2.966 4.895,2.966c0,0 0,0 0,0c3.722,0 4.896,-1.668 4.896,-2.966c0,-8.46 0,-26.845 0,-26.845Z"/></clipPath><g clip-path="url(#_clip20)"><path d="M449.549,424.592l-9.792,0l0,36.495c0,1.298 0.516,2.543 1.434,3.461c0.918,0.917 2.162,1.433 3.46,1.433c0.002,0 0.003,0 0.004,0c1.298,0 2.543,-0.516 3.461,-1.433c0.917,-0.918 1.433,-2.163 1.433,-3.461l0,-36.495Z" style="fill:#a0603b;"/></g><circle cx="448.082" cy="399.557" r="21.721" style="fill:#095b55;"/><clipPath id="_clip21"><circle cx="448.082" cy="399.557" r="21.721"/></clipPath><g clip-path="url(#_clip21)"><circle cx="441.254" cy="391.789" r="21.721" style="fill:#1e7c4b;"/></g><path d="M433.389,399.747c0.754,-0.523 2.071,0.068 2.938,1.32c0.867,1.251 0.958,2.691 0.204,3.214c-0.755,0.523 -2.072,-0.068 -2.939,-1.319c-0.867,-1.252 -0.958,-2.692 -0.203,-3.215Z" style="fill:#4ea03d;"/><path d="M456.916,389.098c0.896,0.201 1.352,1.57 1.019,3.055c-0.333,1.486 -1.331,2.528 -2.227,2.327c-0.896,-0.201 -1.353,-1.57 -1.019,-3.055c0.333,-1.485 1.331,-2.528 2.227,-2.327Z" style="fill:#4ea03d;"/><circle cx="441.254" cy="389.098" r="1.276" style="fill:#8ec13d;"/><circle cx="448.118" cy="405.493" r="1.276" style="fill:#8ec13d;"/></g><g><ellipse cx="129.152" cy="130.756" rx="11.438" ry="3.75" style="fill:#419641;"/><path d="M134.048,102.561l-9.792,0c0,0 0,18.385 0,26.845c0,1.298 1.505,2.966 4.896,2.966c0,0 0,0 0,0c3.722,0 4.896,-1.668 4.896,-2.966c0,-8.46 0,-26.845 0,-26.845Z" style="fill:#7a2544;"/><clipPath id="_clip22"><path d="M134.048,102.561l-9.792,0c0,0 0,18.385 0,26.845c0,1.298 1.505,2.966 4.896,2.966c0,0 0,0 0,0c3.722,0 4.896,-1.668 4.896,-2.966c0,-8.46 0,-26.845 0,-26.845Z"/></clipPath><g clip-path="url(#_clip22)"><path d="M130.619,115.281l-9.792,0l0,36.494c0,1.298 0.516,2.543 1.433,3.461c0.918,0.918 2.163,1.433 3.461,1.433c0.001,0 0.002,0 0.004,0c1.298,0 2.542,-0.515 3.46,-1.433c0.918,-0.918 1.434,-2.163 1.434,-3.461c0,-10.954 0,-36.494 0,-36.494Z" style="fill:#a0603b;"/></g><circle cx="129.152" cy="90.937" r="21.721" style="fill:#095b55;"/><clipPath id="_clip23"><circle cx="129.152" cy="90.937" r="21.721"/></clipPath><g clip-path="url(#_clip23)"><circle cx="122.324" cy="83.17" r="21.721" style="fill:#1e7c4b;"/></g><path d="M114.458,91.128c0.755,-0.523 2.072,0.068 2.939,1.319c0.867,1.251 0.958,2.692 0.203,3.215c-0.754,0.523 -2.071,-0.069 -2.938,-1.32c-0.867,-1.251 -0.958,-2.691 -0.204,-3.214Z" style="fill:#4ea03d;"/><path d="M137.985,80.479c0.896,0.201 1.353,1.57 1.02,3.055c-0.333,1.485 -1.331,2.528 -2.227,2.327c-0.896,-0.201 -1.353,-1.57 -1.02,-3.055c0.334,-1.486 1.332,-2.528 2.227,-2.327Z" style="fill:#4ea03d;"/><circle cx="122.324" cy="80.479" r="1.276" style="fill:#8ec13d;"/><circle cx="129.188" cy="96.873" r="1.276" style="fill:#8ec13d;"/></g><g><ellipse cx="491.631" cy="180.033" rx="11.438" ry="3.75" style="fill:#1e7c4b;"/><path d="M496.527,151.838l-9.792,0c0,0 0,18.386 0,26.845c0,1.298 1.505,2.967 4.896,2.967c0,0 0,0 0,0c3.722,0 4.896,-1.669 4.896,-2.967c0,-8.459 0,-26.845 0,-26.845Z" style="fill:#7a2544;"/><clipPath id="_clip24"><path d="M496.527,151.838l-9.792,0c0,0 0,18.386 0,26.845c0,1.298 1.505,2.967 4.896,2.967c0,0 0,0 0,0c3.722,0 4.896,-1.669 4.896,-2.967c0,-8.459 0,-26.845 0,-26.845Z"/></clipPath><g clip-path="url(#_clip24)"><path d="M493.097,164.558l-9.791,0l0,36.494c0,1.298 0.515,2.543 1.433,3.461c0.918,0.918 2.163,1.433 3.461,1.433c0.001,0 0.002,0 0.003,0c1.298,0 2.543,-0.515 3.461,-1.433c0.918,-0.918 1.433,-2.163 1.433,-3.461l0,-36.494Z" style="fill:#a0603b;"/></g><circle cx="491.631" cy="140.214" r="21.721" style="fill:#095b55;"/><clipPath id="_clip25"><circle cx="491.631" cy="140.214" r="21.721"/></clipPath><g clip-path="url(#_clip25)"><circle cx="484.803" cy="132.447" r="21.721" style="fill:#1e7c4b;"/></g><path d="M476.937,140.405c0.755,-0.523 2.071,0.068 2.938,1.319c0.868,1.252 0.959,2.692 0.204,3.215c-0.754,0.523 -2.071,-0.068 -2.938,-1.32c-0.867,-1.251 -0.958,-2.691 -0.204,-3.214Z" style="fill:#4ea03d;"/><path d="M500.464,129.756c0.896,0.201 1.353,1.57 1.02,3.055c-0.334,1.486 -1.332,2.528 -2.227,2.327c-0.896,-0.201 -1.353,-1.57 -1.02,-3.055c0.334,-1.486 1.331,-2.528 2.227,-2.327Z" style="fill:#4ea03d;"/><circle cx="484.803" cy="129.756" r="1.276" style="fill:#8ec13d;"/><circle cx="491.666" cy="146.151" r="1.276" style="fill:#8ec13d;"/></g><g><ellipse cx="80.122" cy="166.015" rx="11.438" ry="3.75" style="fill:#1e7c4b;"/><path d="M85.018,137.819l-9.792,0c0,0 0,18.386 0,26.845c0,1.299 1.505,2.967 4.896,2.967c0,0 0,0 0,0c3.721,0 4.896,-1.668 4.896,-2.967c0,-8.459 0,-26.845 0,-26.845Z" style="fill:#7a2544;"/><clipPath id="_clip26"><path d="M85.018,137.819l-9.792,0c0,0 0,18.386 0,26.845c0,1.299 1.505,2.967 4.896,2.967c0,0 0,0 0,0c3.721,0 4.896,-1.668 4.896,-2.967c0,-8.459 0,-26.845 0,-26.845Z"/></clipPath><g clip-path="url(#_clip26)"><path d="M81.588,157.464l-9.791,0l0,36.495c0,1.298 0.515,2.542 1.433,3.46c0.918,0.918 2.163,1.434 3.461,1.434c0.001,0 0.002,0 0.003,0c1.298,0 2.543,-0.516 3.461,-1.434c0.918,-0.918 1.433,-2.162 1.433,-3.46c0,-10.955 0,-36.495 0,-36.495Z" style="fill:#a0603b;"/></g><circle cx="80.122" cy="133.121" r="21.721" style="fill:#1e7c4b;"/><clipPath id="_clip27"><circle cx="80.122" cy="133.121" r="21.721"/></clipPath><g clip-path="url(#_clip27)"><circle cx="73.293" cy="125.353" r="21.721" style="fill:#4ea03d;"/></g><path d="M77.791,134.121c0.713,0.578 0.514,2.008 -0.445,3.19c-0.958,1.183 -2.316,1.673 -3.029,1.095c-0.713,-0.578 -0.514,-2.007 0.445,-3.19c0.959,-1.182 2.316,-1.673 3.029,-1.095Z" style="fill:#c7e254;"/><path d="M78.39,116.438c0.896,0.201 1.353,1.57 1.019,3.055c-0.333,1.485 -1.331,2.528 -2.227,2.327c-0.895,-0.201 -1.352,-1.57 -1.019,-3.055c0.333,-1.486 1.331,-2.528 2.227,-2.327Z" style="fill:#c7e254;"/><circle cx="67.942" cy="125.353" r="1.276" style="fill:#8ec13d;"/><circle cx="89.109" cy="133.879" r="1.276" style="fill:#8ec13d;"/></g><g id="Sand-Castle" serif:id="Sand Castle"><path d="M150.303,412.221c0,-0.977 -0.793,-1.77 -1.77,-1.77l-14.258,0c-0.977,0 -1.771,0.793 -1.771,1.77l0,7.748c0,0.977 0.794,1.77 1.771,1.77l14.258,0c0.977,0 1.77,-0.793 1.77,-1.77l0,-7.748Z" style="fill:#e38f33;"/><clipPath id="_clip28"><path d="M150.303,412.221c0,-0.977 -0.793,-1.77 -1.77,-1.77l-14.258,0c-0.977,0 -1.771,0.793 -1.771,1.77l0,7.748c0,0.977 0.794,1.77 1.771,1.77l14.258,0c0.977,0 1.77,-0.793 1.77,-1.77l0,-7.748Z"/></clipPath><g clip-path="url(#_clip28)"><path d="M150.303,405.856c0,-0.977 -0.793,-1.771 -1.77,-1.771l-14.258,0c-0.977,0 -1.771,0.794 -1.771,1.771l0,7.748c0,0.977 0.794,1.77 1.771,1.77l14.258,0c0.977,0 1.77,-0.793 1.77,-1.77l0,-7.748Z" style="fill:#aa7348;"/><clipPath id="_clip29"><path d="M150.303,405.856c0,-0.977 -0.793,-1.771 -1.77,-1.771l-14.258,0c-0.977,0 -1.771,0.794 -1.771,1.771l0,7.748c0,0.977 0.794,1.77 1.771,1.77l14.258,0c0.977,0 1.77,-0.793 1.77,-1.77l0,-7.748Z"/></clipPath><g clip-path="url(#_clip29)"><path d="M149.418,412.947c0,-0.903 -0.733,-1.635 -1.635,-1.635l-12.758,0c-0.903,0 -1.635,0.732 -1.635,1.635l0,7.157c0,0.903 0.732,1.635 1.635,1.635l12.758,0c0.902,0 1.635,-0.732 1.635,-1.635l0,-7.157Z" style="fill:#e6a851;"/></g></g><path d="M147.259,405.106c0,-0.873 -0.708,-1.581 -1.58,-1.581l-8.55,0c-0.872,0 -1.581,0.708 -1.581,1.581l0,6.917c0,0.873 0.709,1.581 1.581,1.581l8.55,0c0.872,0 1.58,-0.708 1.58,-1.581l0,-6.917Z" style="fill:#e38f33;"/><clipPath id="_clip30"><path d="M147.259,405.106c0,-0.873 -0.708,-1.581 -1.58,-1.581l-8.55,0c-0.872,0 -1.581,0.708 -1.581,1.581l0,6.917c0,0.873 0.709,1.581 1.581,1.581l8.55,0c0.872,0 1.58,-0.708 1.58,-1.581l0,-6.917Z"/></clipPath><g clip-path="url(#_clip30)"><path d="M147.259,398.502c0,-0.872 -0.708,-1.581 -1.58,-1.581l-8.55,0c-0.872,0 -1.581,0.709 -1.581,1.581l0,6.918c0,0.872 0.709,1.58 1.581,1.58l8.55,0c0.872,0 1.58,-0.708 1.58,-1.58l0,-6.918Z" style="fill:#aa7348;"/><clipPath id="_clip31"><path d="M147.259,398.502c0,-0.872 -0.708,-1.581 -1.58,-1.581l-8.55,0c-0.872,0 -1.581,0.709 -1.581,1.581l0,6.918c0,0.872 0.709,1.58 1.581,1.58l8.55,0c0.872,0 1.58,-0.708 1.58,-1.58l0,-6.918Z"/></clipPath><g clip-path="url(#_clip31)"><path d="M146.709,405.752c0,-0.709 -0.576,-1.285 -1.285,-1.285l-8.04,0c-0.71,0 -1.285,0.576 -1.285,1.285l0,5.625c0,0.709 0.575,1.285 1.285,1.285l8.04,0c0.709,0 1.285,-0.576 1.285,-1.285l0,-5.625Z" style="fill:#e6a851;"/></g></g><rect x="141.086" y="399.4" width="0.636" height="5.66" style="fill:#ac333b;"/><path d="M144.194,400.314l-2.592,0.677l0,-1.355l2.592,0.678Z" style="fill:#ac333b;"/><path d="M136.872,412.557c0,-0.116 -0.094,-0.209 -0.209,-0.209l-0.914,0c-0.115,0 -0.209,0.093 -0.209,0.209l0,1.513c0,0.115 0.094,0.209 0.209,0.209l0.914,0c0.115,0 0.209,-0.094 0.209,-0.209l0,-1.513Z" style="fill:#aa7348;"/><path d="M147.259,412.557c0,-0.116 -0.093,-0.209 -0.209,-0.209l-0.914,0c-0.115,0 -0.209,0.093 -0.209,0.209l0,1.513c0,0.115 0.094,0.209 0.209,0.209l0.914,0c0.116,0 0.209,-0.094 0.209,-0.209l0,-1.513Z" style="fill:#aa7348;"/><path d="M142.066,412.557c0,-0.116 -0.094,-0.209 -0.209,-0.209l-0.914,0c-0.116,0 -0.209,0.093 -0.209,0.209l0,1.513c0,0.115 0.093,0.209 0.209,0.209l0.914,0c0.115,0 0.209,-0.094 0.209,-0.209l0,-1.513Z" style="fill:#aa7348;"/><path d="M142.953,418.794c0,-0.855 -0.693,-1.548 -1.548,-1.548c-0.001,0 -0.002,0 -0.003,0c-0.855,0 -1.548,0.693 -1.548,1.548c0,1.299 0,2.945 0,2.945l3.099,0l0,-2.945Z" style="fill:#aa7348;"/><path d="M139.469,412.557c0,-0.116 -0.094,-0.209 -0.209,-0.209l-0.914,0c-0.116,0 -0.209,0.093 -0.209,0.209l0,1.513c0,0.115 0.093,0.209 0.209,0.209l0.914,0c0.115,0 0.209,-0.094 0.209,-0.209l0,-1.513Z" style="fill:#aa7348;"/><path d="M144.662,412.557c0,-0.116 -0.093,-0.209 -0.208,-0.209l-0.915,0c-0.115,0 -0.208,0.093 -0.208,0.209l0,1.513c0,0.115 0.093,0.209 0.208,0.209l0.915,0c0.115,0 0.208,-0.094 0.208,-0.209l0,-1.513Z" style="fill:#aa7348;"/></g><ellipse cx="406.349" cy="96.028" rx="13.946" ry="4.572" style="fill:#1e7c4b;"/><g><rect x="414.941" y="96.476" width="16.081" height="9.131" style="fill:#1e7c4b;"/><rect x="414.941" y="94.649" width="16.081" height="9.131" style="fill:#e6a851;"/><rect x="416.852" y="94.649" width="12.257" height="7.31" style="fill:#7a2544;"/><rect x="414.941" y="87.581" width="16.081" height="9.851" style="fill:#db4242;"/><rect x="414.941" y="90.13" width="16.081" height="7.302" style="fill:#ab333b;"/><rect x="420.98" y="96.712" width="4.002" height="2.503" style="fill:#fff;"/><rect x="414.941" y="87.581" width="1.912" height="9.851" style="fill:#fff;"/><rect x="422.025" y="87.581" width="1.912" height="9.851" style="fill:#fff;"/><rect x="429.11" y="87.581" width="1.912" height="9.851" style="fill:#fff;"/><path d="M414.941,95.521l0,1.911l16.08,0l0,-1.911l-16.08,0Z" style="fill:#fff;"/></g><path d="M406.349,0c17.354,0 31.443,14.089 31.443,31.444c0,19.902 -18.183,33.098 -27.158,54.082c-0.691,1.625 -2.29,2.676 -4.056,2.665c-1.766,-0.012 -3.352,-1.083 -4.022,-2.717c-8.498,-20.574 -27.651,-33.879 -27.651,-54.03c0,-17.355 14.089,-31.444 31.444,-31.444Z" style="fill:#ab343b;"/><g><path d="M534.904,164.895l-2.332,2.331l1.226,1.225l2.331,-2.331l-1.225,-1.225Z" style="fill:#fff;"/><path d="M538.46,161.338l-2.331,2.331l1.225,1.226l2.332,-2.332l-1.226,-1.225Z" style="fill:#fff;"/><path d="M533.207,163.198l1.697,1.697l1.225,-1.226l-1.697,-1.697l-1.225,1.226Z" style="fill:#fff;"/><path d="M536.129,166.12l1.697,1.697l1.225,-1.225l-1.697,-1.697l-1.225,1.225Z" style="fill:#fff;"/></g><g><path d="M427.277,128.619l-2.331,2.332l1.225,1.225l2.331,-2.331l-1.225,-1.226Z" style="fill:#fff;"/><path d="M430.834,125.063l-2.332,2.331l1.226,1.225l2.331,-2.331l-1.225,-1.225Z" style="fill:#fff;"/><path d="M425.58,126.922l1.697,1.697l1.225,-1.225l-1.697,-1.697l-1.225,1.225Z" style="fill:#fff;"/><path d="M428.502,129.845l1.697,1.697l1.226,-1.226l-1.697,-1.697l-1.226,1.226Z" style="fill:#fff;"/></g><g><path d="M330.803,258.715l-2.332,2.332l1.226,1.225l2.331,-2.331l-1.225,-1.226Z" style="fill:#fff;"/><path d="M334.359,255.159l-2.331,2.331l1.225,1.225l2.332,-2.331l-1.226,-1.225Z" style="fill:#fff;"/><path d="M329.106,257.018l1.697,1.697l1.225,-1.225l-1.697,-1.697l-1.225,1.225Z" style="fill:#fff;"/><path d="M332.028,259.941l1.697,1.697l1.225,-1.225l-1.697,-1.698l-1.225,1.226Z" style="fill:#fff;"/></g><g><path d="M406.417,327.962l-2.331,2.332l1.225,1.225l2.331,-2.332l-1.225,-1.225Z" style="fill:#fff;"/><path d="M409.974,324.406l-2.332,2.331l1.226,1.225l2.331,-2.331l-1.225,-1.225Z" style="fill:#fff;"/><path d="M404.72,326.265l1.697,1.697l1.225,-1.225l-1.697,-1.697l-1.225,1.225Z" style="fill:#fff;"/><path d="M407.642,329.187l1.697,1.698l1.226,-1.226l-1.697,-1.697l-1.226,1.225Z" style="fill:#fff;"/></g><g><path d="M485.063,447.734l-2.332,2.332l1.226,1.225l2.331,-2.331l-1.225,-1.226Z" style="fill:#fff;"/><path d="M488.619,444.178l-2.331,2.331l1.225,1.225l2.332,-2.331l-1.226,-1.225Z" style="fill:#fff;"/><path d="M483.366,446.037l1.697,1.697l1.225,-1.225l-1.697,-1.697l-1.225,1.225Z" style="fill:#fff;"/><path d="M486.288,448.96l1.697,1.697l1.225,-1.226l-1.697,-1.697l-1.225,1.226Z" style="fill:#fff;"/></g><g><path d="M250.026,336.6l-2.331,2.331l1.225,1.226l2.332,-2.332l-1.226,-1.225Z" style="fill:#fff;"/><path d="M253.583,333.043l-2.331,2.332l1.225,1.225l2.331,-2.332l-1.225,-1.225Z" style="fill:#fff;"/><path d="M248.329,334.903l1.697,1.697l1.226,-1.225l-1.698,-1.698l-1.225,1.226Z" style="fill:#fff;"/><path d="M251.252,337.825l1.697,1.697l1.225,-1.225l-1.697,-1.697l-1.225,1.225Z" style="fill:#fff;"/></g><g><path d="M439.035,72.077l2.332,2.331l-1.226,1.225l-2.331,-2.331l1.225,-1.225Z" style="fill:#fff;"/><path d="M435.479,68.52l2.331,2.331l-1.225,1.226l-2.332,-2.332l1.226,-1.225Z" style="fill:#fff;"/><path d="M440.732,70.379l-1.697,1.698l-1.225,-1.226l1.697,-1.697l1.225,1.225Z" style="fill:#fff;"/><path d="M437.81,73.302l-1.697,1.697l-1.225,-1.225l1.697,-1.697l1.225,1.225Z" style="fill:#fff;"/></g><g><path d="M375.712,174.091l2.331,2.331l-1.225,1.226l-2.331,-2.332l1.225,-1.225Z" style="fill:#fff;"/><path d="M372.155,170.534l2.332,2.332l-1.226,1.225l-2.331,-2.331l1.225,-1.226Z" style="fill:#fff;"/><path d="M377.409,172.394l-1.697,1.697l-1.225,-1.225l1.697,-1.697l1.225,1.225Z" style="fill:#fff;"/><path d="M374.487,175.316l-1.697,1.697l-1.226,-1.225l1.697,-1.697l1.226,1.225Z" style="fill:#fff;"/></g><g><path d="M398.351,388.528l2.332,2.331l-1.226,1.226l-2.331,-2.332l1.225,-1.225Z" style="fill:#fff;"/><path d="M394.795,384.971l2.331,2.332l-1.225,1.225l-2.332,-2.331l1.226,-1.226Z" style="fill:#fff;"/><path d="M400.048,386.831l-1.697,1.697l-1.225,-1.225l1.697,-1.697l1.225,1.225Z" style="fill:#fff;"/><path d="M397.126,389.753l-1.697,1.697l-1.225,-1.225l1.697,-1.697l1.225,1.225Z" style="fill:#fff;"/></g><g><path d="M193.677,380.959l2.331,2.331l-1.225,1.225l-2.332,-2.331l1.226,-1.225Z" style="fill:#fff;"/><path d="M190.12,377.402l2.331,2.331l-1.225,1.226l-2.331,-2.332l1.225,-1.225Z" style="fill:#fff;"/><path d="M195.374,379.262l-1.697,1.697l-1.226,-1.226l1.698,-1.697l1.225,1.226Z" style="fill:#fff;"/><path d="M192.451,382.184l-1.697,1.697l-1.225,-1.225l1.697,-1.697l1.225,1.225Z" style="fill:#fff;"/></g><g><path d="M161.788,185.213l2.331,2.331l-1.225,1.225l-2.331,-2.331l1.225,-1.225Z" style="fill:#fff;"/><path d="M158.231,181.656l2.332,2.331l-1.226,1.226l-2.331,-2.332l1.225,-1.225Z" style="fill:#fff;"/><path d="M163.485,183.516l-1.697,1.697l-1.225,-1.226l1.697,-1.697l1.225,1.226Z" style="fill:#fff;"/><path d="M160.563,186.438l-1.697,1.697l-1.226,-1.225l1.697,-1.697l1.226,1.225Z" style="fill:#fff;"/></g><g><path d="M265.803,72.317l-2.332,2.332l1.225,1.225l2.332,-2.331l-1.225,-1.226Z" style="fill:#fff;"/><path d="M269.359,68.761l-2.331,2.331l1.225,1.225l2.331,-2.331l-1.225,-1.225Z" style="fill:#fff;"/><path d="M264.105,70.62l1.698,1.697l1.225,-1.225l-1.697,-1.697l-1.226,1.225Z" style="fill:#fff;"/><path d="M267.028,73.543l1.697,1.697l1.225,-1.226l-1.697,-1.697l-1.225,1.226Z" style="fill:#fff;"/></g></g></g></svg>