<svg width="547" height="36" viewBox="0 0 547 36" fill="none" xmlns="http://www.w3.org/2000/svg">
<path d="M15.8652 20.91H6.76518L4.63018 27H0.570176L9.32018 2.5H13.3102L22.0252 27H18.0002L15.8652 20.91ZM14.5702 17.305L11.3152 7.995L8.02518 17.305H14.5702ZM33.2626 9.325C34.8726 9.325 36.261 9.72167 37.4276 10.515C38.5943 11.3083 39.481 12.3933 40.0876 13.77C40.6943 15.1233 40.9976 16.64 40.9976 18.32C40.9976 20 40.6943 21.5283 40.0876 22.905C39.5043 24.2817 38.6293 25.3667 37.4626 26.16C36.296 26.9533 34.896 27.35 33.2626 27.35C32.1426 27.35 31.1743 27.21 30.3576 26.93C29.5643 26.65 28.841 26.2067 28.1876 25.6V35.47H24.2676V9.64H27.3826L27.8026 11.495C28.5493 10.795 29.3543 10.2583 30.2176 9.885C31.1043 9.51167 32.1193 9.325 33.2626 9.325ZM32.5976 24.06C33.9743 24.06 35.0476 23.5467 35.8176 22.52C36.5876 21.4933 36.9726 20.0933 36.9726 18.32C36.9726 16.57 36.5876 15.1817 35.8176 14.155C35.0476 13.1283 33.9743 12.615 32.5976 12.615C31.1276 12.615 29.9843 13.1167 29.1676 14.12C28.3743 15.1233 27.9776 16.5233 27.9776 18.32C27.9776 20.14 28.3743 21.5517 29.1676 22.555C29.9843 23.5583 31.1276 24.06 32.5976 24.06ZM53.121 9.325C54.731 9.325 56.1194 9.72167 57.286 10.515C58.4527 11.3083 59.3394 12.3933 59.946 13.77C60.5527 15.1233 60.856 16.64 60.856 18.32C60.856 20 60.5527 21.5283 59.946 22.905C59.3627 24.2817 58.4877 25.3667 57.321 26.16C56.1544 26.9533 54.7544 27.35 53.121 27.35C52.001 27.35 51.0327 27.21 50.216 26.93C49.4227 26.65 48.6994 26.2067 48.046 25.6V35.47H44.126V9.64H47.241L47.661 11.495C48.4077 10.795 49.2127 10.2583 50.076 9.885C50.9627 9.51167 51.9777 9.325 53.121 9.325ZM52.456 24.06C53.8327 24.06 54.906 23.5467 55.676 22.52C56.446 21.4933 56.831 20.0933 56.831 18.32C56.831 16.57 56.446 15.1817 55.676 14.155C54.906 13.1283 53.8327 12.615 52.456 12.615C50.986 12.615 49.8427 13.1167 49.026 14.12C48.2327 15.1233 47.836 16.5233 47.836 18.32C47.836 20.14 48.2327 21.5517 49.026 22.555C49.8427 23.5583 50.986 24.06 52.456 24.06ZM68.4294 27.35C66.9361 27.35 65.8161 26.9417 65.0694 26.125C64.3461 25.285 63.9844 24.2233 63.9844 22.94V0.749998H67.8694V21.12C67.8694 22.1 67.9278 22.8 68.0444 23.22C68.1611 23.6167 68.3711 23.8733 68.6744 23.99C68.9778 24.1067 69.4911 24.165 70.2144 24.165L69.8294 27.35H68.4294ZM72.837 2.5H76.757V6.525H72.837V2.5ZM72.837 9.64H76.757V27H72.837V9.64ZM88.9534 27.35C87.04 27.35 85.395 26.9533 84.0184 26.16C82.665 25.3667 81.6384 24.2933 80.9384 22.94C80.2384 21.5867 79.8884 20.07 79.8884 18.39C79.8884 16.6633 80.2267 15.1117 80.9034 13.735C81.6034 12.3583 82.6417 11.2733 84.0184 10.48C85.395 9.68667 87.0984 9.29 89.1284 9.29C90.8784 9.29 92.4417 9.65167 93.8184 10.375L93.3984 13.595C92.045 12.9417 90.7034 12.615 89.3734 12.615C87.6234 12.615 86.27 13.1283 85.3134 14.155C84.3567 15.1817 83.8784 16.57 83.8784 18.32C83.8784 20.0467 84.3567 21.435 85.3134 22.485C86.27 23.535 87.6 24.06 89.3034 24.06C90.75 24.06 92.1267 23.6867 93.4334 22.94L93.8534 26.195C93.2467 26.545 92.5117 26.825 91.6484 27.035C90.785 27.245 89.8867 27.35 88.9534 27.35ZM100.681 27.35C99.1878 27.35 97.9511 26.8833 96.9711 25.95C96.0144 24.9933 95.5361 23.745 95.5361 22.205C95.5361 20.6883 96.0728 19.475 97.1461 18.565C98.2194 17.655 99.5028 17.0133 100.996 16.64C102.513 16.2433 104.018 16.0217 105.511 15.975C105.488 14.7617 105.219 13.9217 104.706 13.455C104.193 12.965 103.341 12.72 102.151 12.72C101.404 12.72 100.658 12.8367 99.9111 13.07C99.1878 13.28 98.3711 13.63 97.4611 14.12L97.0411 10.935C99.0011 9.86167 101.066 9.325 103.236 9.325C105.336 9.325 106.899 9.90833 107.926 11.075C108.953 12.2183 109.466 14.12 109.466 16.78V21.085C109.466 21.995 109.501 22.66 109.571 23.08C109.664 23.4767 109.816 23.7567 110.026 23.92C110.259 24.0833 110.633 24.165 111.146 24.165H111.636L111.181 27.35H110.096C108.976 27.35 108.101 27.1633 107.471 26.79C106.864 26.4167 106.374 25.8683 106.001 25.145C105.394 25.8217 104.624 26.3583 103.691 26.755C102.758 27.1517 101.754 27.35 100.681 27.35ZM102.081 24.305C102.664 24.305 103.271 24.165 103.901 23.885C104.554 23.5817 105.103 23.1733 105.546 22.66V18.635C103.749 18.705 102.303 19.02 101.206 19.58C100.133 20.14 99.5961 20.9567 99.5961 22.03C99.5961 23.5467 100.424 24.305 102.081 24.305ZM119.491 27.35C117.974 27.35 116.819 26.9183 116.026 26.055C115.256 25.1917 114.871 24.1533 114.871 22.94V12.79H112.246L112.596 9.64H114.871V5.65L118.791 5.23V9.64H122.886V12.79H118.791V21.12C118.791 22.1467 118.849 22.8583 118.966 23.255C119.083 23.6283 119.328 23.8733 119.701 23.99C120.098 24.1067 120.798 24.165 121.801 24.165H122.851L122.501 27.35H119.491ZM125.645 2.5H129.565V6.525H125.645V2.5ZM125.645 9.64H129.565V27H125.645V9.64ZM141.481 27.35C139.684 27.35 138.121 26.9533 136.791 26.16C135.461 25.3433 134.434 24.2467 133.711 22.87C133.011 21.4933 132.661 19.9767 132.661 18.32C132.661 16.6633 133.011 15.1467 133.711 13.77C134.434 12.3933 135.461 11.3083 136.791 10.515C138.121 9.69833 139.684 9.29 141.481 9.29C143.301 9.29 144.876 9.69833 146.206 10.515C147.536 11.3083 148.551 12.3933 149.251 13.77C149.951 15.1467 150.301 16.6633 150.301 18.32C150.301 19.9767 149.951 21.4933 149.251 22.87C148.551 24.2467 147.536 25.3433 146.206 26.16C144.876 26.9533 143.301 27.35 141.481 27.35ZM141.481 24.06C142.998 24.06 144.176 23.5467 145.016 22.52C145.879 21.4933 146.311 20.0933 146.311 18.32C146.311 16.57 145.879 15.1817 145.016 14.155C144.176 13.105 142.998 12.58 141.481 12.58C139.964 12.58 138.786 13.105 137.946 14.155C137.106 15.1817 136.686 16.57 136.686 18.32C136.686 20.0933 137.106 21.4933 137.946 22.52C138.786 23.5467 139.964 24.06 141.481 24.06ZM162.113 9.325C164.376 9.325 166.068 10.0367 167.188 11.46C168.308 12.8833 168.868 14.8433 168.868 17.34V27H164.983V17.585C164.983 15.8583 164.679 14.5983 164.073 13.805C163.489 13.0117 162.509 12.615 161.133 12.615C159.499 12.615 158.239 13.1867 157.353 14.33V27H153.433V9.64H156.898L157.038 11.075C158.531 9.90833 160.223 9.325 162.113 9.325ZM181.373 2.5H190.508C192.865 2.5 194.953 2.99 196.773 3.97C198.616 4.95 200.051 6.36167 201.078 8.205C202.105 10.0483 202.618 12.23 202.618 14.75C202.618 17.27 202.105 19.4517 201.078 21.295C200.051 23.1383 198.616 24.55 196.773 25.53C194.953 26.51 192.865 27 190.508 27H181.373V2.5ZM190.508 23.36C193.005 23.36 194.906 22.6017 196.213 21.085C197.52 19.545 198.173 17.4333 198.173 14.75C198.173 12.0667 197.52 9.96667 196.213 8.45C194.906 6.91 193.005 6.14 190.508 6.14H185.433V23.36H190.508ZM214.161 27.35C212.154 27.35 210.439 26.9417 209.016 26.125C207.616 25.3083 206.554 24.2117 205.831 22.835C205.108 21.435 204.746 19.8833 204.746 18.18C204.746 16.5467 205.073 15.065 205.726 13.735C206.403 12.3817 207.383 11.3083 208.666 10.515C209.973 9.72167 211.501 9.325 213.251 9.325C214.791 9.325 216.121 9.65167 217.241 10.305C218.384 10.935 219.248 11.81 219.831 12.93C220.438 14.05 220.741 15.3333 220.741 16.78C220.741 17.5267 220.659 18.2383 220.496 18.915H208.806C209.016 20.7117 209.634 22.0183 210.661 22.835C211.711 23.6517 213.006 24.06 214.546 24.06C216.436 24.06 218.151 23.6283 219.691 22.765L219.971 26.02C218.198 26.9067 216.261 27.35 214.161 27.35ZM216.751 16.255C216.751 15.2283 216.459 14.365 215.876 13.665C215.293 12.965 214.406 12.615 213.216 12.615C210.953 12.615 209.529 13.8283 208.946 16.255H216.751ZM227.624 27.35C226.131 27.35 224.894 26.8833 223.914 25.95C222.958 24.9933 222.479 23.745 222.479 22.205C222.479 20.6883 223.016 19.475 224.089 18.565C225.163 17.655 226.446 17.0133 227.939 16.64C229.456 16.2433 230.961 16.0217 232.454 15.975C232.431 14.7617 232.163 13.9217 231.649 13.455C231.136 12.965 230.284 12.72 229.094 12.72C228.348 12.72 227.601 12.8367 226.854 13.07C226.131 13.28 225.314 13.63 224.404 14.12L223.984 10.935C225.944 9.86167 228.009 9.325 230.179 9.325C232.279 9.325 233.843 9.90833 234.869 11.075C235.896 12.2183 236.409 14.12 236.409 16.78V21.085C236.409 21.995 236.444 22.66 236.514 23.08C236.608 23.4767 236.759 23.7567 236.969 23.92C237.203 24.0833 237.576 24.165 238.089 24.165H238.579L238.124 27.35H237.039C235.919 27.35 235.044 27.1633 234.414 26.79C233.808 26.4167 233.318 25.8683 232.944 25.145C232.338 25.8217 231.568 26.3583 230.634 26.755C229.701 27.1517 228.698 27.35 227.624 27.35ZM229.024 24.305C229.608 24.305 230.214 24.165 230.844 23.885C231.498 23.5817 232.046 23.1733 232.489 22.66V18.635C230.693 18.705 229.246 19.02 228.149 19.58C227.076 20.14 226.539 20.9567 226.539 22.03C226.539 23.5467 227.368 24.305 229.024 24.305ZM256.647 0.749998V27H253.042L252.867 25.53C251.537 26.7433 249.892 27.35 247.932 27.35C246.322 27.35 244.91 26.9533 243.697 26.16C242.484 25.3433 241.55 24.2583 240.897 22.905C240.244 21.5283 239.917 20.0117 239.917 18.355C239.917 16.7217 240.232 15.2167 240.862 13.84C241.515 12.4633 242.437 11.3667 243.627 10.55C244.84 9.73333 246.275 9.325 247.932 9.325C249.822 9.325 251.42 9.885 252.727 11.005V0.749998H256.647ZM248.527 24.06C249.904 24.06 250.989 23.5583 251.782 22.555C252.599 21.5517 253.007 20.1517 253.007 18.355C253.007 16.5817 252.599 15.1817 251.782 14.155C250.965 13.1283 249.88 12.615 248.527 12.615C247.104 12.615 245.984 13.1517 245.167 14.225C244.35 15.275 243.942 16.6517 243.942 18.355C243.942 20.035 244.35 21.4117 245.167 22.485C245.984 23.535 247.104 24.06 248.527 24.06ZM265.202 27.35C263.709 27.35 262.589 26.9417 261.842 26.125C261.119 25.285 260.757 24.2233 260.757 22.94V0.749998H264.642V21.12C264.642 22.1 264.7 22.8 264.817 23.22C264.934 23.6167 265.144 23.8733 265.447 23.99C265.75 24.1067 266.264 24.165 266.987 24.165L266.602 27.35H265.202ZM269.609 2.5H273.529V6.525H269.609V2.5ZM269.609 9.64H273.529V27H269.609V9.64ZM286.356 9.325C288.619 9.325 290.311 10.0367 291.431 11.46C292.551 12.8833 293.111 14.8433 293.111 17.34V27H289.226V17.585C289.226 15.8583 288.923 14.5983 288.316 13.805C287.733 13.0117 286.753 12.615 285.376 12.615C283.743 12.615 282.483 13.1867 281.596 14.33V27H277.676V9.64H281.141L281.281 11.075C282.774 9.90833 284.466 9.325 286.356 9.325ZM305.455 27.35C303.448 27.35 301.733 26.9417 300.31 26.125C298.91 25.3083 297.848 24.2117 297.125 22.835C296.402 21.435 296.04 19.8833 296.04 18.18C296.04 16.5467 296.367 15.065 297.02 13.735C297.697 12.3817 298.677 11.3083 299.96 10.515C301.267 9.72167 302.795 9.325 304.545 9.325C306.085 9.325 307.415 9.65167 308.535 10.305C309.678 10.935 310.542 11.81 311.125 12.93C311.732 14.05 312.035 15.3333 312.035 16.78C312.035 17.5267 311.953 18.2383 311.79 18.915H300.1C300.31 20.7117 300.928 22.0183 301.955 22.835C303.005 23.6517 304.3 24.06 305.84 24.06C307.73 24.06 309.445 23.6283 310.985 22.765L311.265 26.02C309.492 26.9067 307.555 27.35 305.455 27.35ZM308.045 16.255C308.045 15.2283 307.753 14.365 307.17 13.665C306.587 12.965 305.7 12.615 304.51 12.615C302.247 12.615 300.823 13.8283 300.24 16.255H308.045ZM314.648 9.64H318.918V14.015H314.648V9.64ZM314.648 22.625H318.918V27H314.648V22.625ZM331.183 2.5H340.318C342.674 2.5 344.763 2.99 346.583 3.97C348.426 4.95 349.861 6.36167 350.888 8.205C351.914 10.0483 352.428 12.23 352.428 14.75C352.428 17.27 351.914 19.4517 350.888 21.295C349.861 23.1383 348.426 24.55 346.583 25.53C344.763 26.51 342.674 27 340.318 27H331.183V2.5ZM340.318 23.36C342.814 23.36 344.716 22.6017 346.023 21.085C347.329 19.545 347.983 17.4333 347.983 14.75C347.983 12.0667 347.329 9.96667 346.023 8.45C344.716 6.91 342.814 6.14 340.318 6.14H335.243V23.36H340.318ZM363.971 27.35C361.964 27.35 360.249 26.9417 358.826 26.125C357.426 25.3083 356.364 24.2117 355.641 22.835C354.917 21.435 354.556 19.8833 354.556 18.18C354.556 16.5467 354.882 15.065 355.536 13.735C356.212 12.3817 357.192 11.3083 358.476 10.515C359.782 9.72167 361.311 9.325 363.061 9.325C364.601 9.325 365.931 9.65167 367.051 10.305C368.194 10.935 369.057 11.81 369.641 12.93C370.247 14.05 370.551 15.3333 370.551 16.78C370.551 17.5267 370.469 18.2383 370.306 18.915H358.616C358.826 20.7117 359.444 22.0183 360.471 22.835C361.521 23.6517 362.816 24.06 364.356 24.06C366.246 24.06 367.961 23.6283 369.501 22.765L369.781 26.02C368.007 26.9067 366.071 27.35 363.971 27.35ZM366.561 16.255C366.561 15.2283 366.269 14.365 365.686 13.665C365.102 12.965 364.216 12.615 363.026 12.615C360.762 12.615 359.339 13.8283 358.756 16.255H366.561ZM381.634 27.35C379.721 27.35 378.076 26.9533 376.699 26.16C375.346 25.3667 374.319 24.2933 373.619 22.94C372.919 21.5867 372.569 20.07 372.569 18.39C372.569 16.6633 372.907 15.1117 373.584 13.735C374.284 12.3583 375.322 11.2733 376.699 10.48C378.076 9.68667 379.779 9.29 381.809 9.29C383.559 9.29 385.122 9.65167 386.499 10.375L386.079 13.595C384.726 12.9417 383.384 12.615 382.054 12.615C380.304 12.615 378.951 13.1283 377.994 14.155C377.037 15.1817 376.559 16.57 376.559 18.32C376.559 20.0467 377.037 21.435 377.994 22.485C378.951 23.535 380.281 24.06 381.984 24.06C383.431 24.06 384.807 23.6867 386.114 22.94L386.534 26.195C385.927 26.545 385.192 26.825 384.329 27.035C383.466 27.245 382.567 27.35 381.634 27.35ZM397.706 27.35C395.699 27.35 393.984 26.9417 392.561 26.125C391.161 25.3083 390.099 24.2117 389.376 22.835C388.653 21.435 388.291 19.8833 388.291 18.18C388.291 16.5467 388.618 15.065 389.271 13.735C389.948 12.3817 390.928 11.3083 392.211 10.515C393.518 9.72167 395.046 9.325 396.796 9.325C398.336 9.325 399.666 9.65167 400.786 10.305C401.929 10.935 402.793 11.81 403.376 12.93C403.983 14.05 404.286 15.3333 404.286 16.78C404.286 17.5267 404.204 18.2383 404.041 18.915H392.351C392.561 20.7117 393.179 22.0183 394.206 22.835C395.256 23.6517 396.551 24.06 398.091 24.06C399.981 24.06 401.696 23.6283 403.236 22.765L403.516 26.02C401.743 26.9067 399.806 27.35 397.706 27.35ZM400.296 16.255C400.296 15.2283 400.004 14.365 399.421 13.665C398.838 12.965 397.951 12.615 396.761 12.615C394.498 12.615 393.074 13.8283 392.491 16.255H400.296ZM427.094 9.325C429.381 9.325 431.084 10.0017 432.204 11.355C433.324 12.685 433.884 14.61 433.884 17.13V27H429.964V17.34C429.964 15.7067 429.684 14.5167 429.124 13.77C428.588 13 427.689 12.615 426.429 12.615C425.053 12.615 424.061 13.035 423.454 13.875C422.848 14.715 422.544 15.8233 422.544 17.2V27H418.659V17.585C418.659 15.8117 418.356 14.54 417.749 13.77C417.166 13 416.268 12.615 415.054 12.615C413.398 12.615 412.126 13.1983 411.239 14.365V27H407.319V9.64H410.574L410.819 11.18C412.359 9.94333 414.098 9.325 416.034 9.325C418.414 9.325 420.153 10.2467 421.249 12.09C421.856 11.2033 422.649 10.5267 423.629 10.06C424.633 9.57 425.788 9.325 427.094 9.325ZM446.697 9.325C448.33 9.325 449.73 9.73333 450.897 10.55C452.087 11.3667 452.985 12.4633 453.592 13.84C454.222 15.1933 454.537 16.6867 454.537 18.32C454.537 19.9767 454.21 21.4933 453.557 22.87C452.927 24.2467 452.017 25.3433 450.827 26.16C449.66 26.9533 448.284 27.35 446.697 27.35C444.644 27.35 442.94 26.7433 441.587 25.53L441.412 27H437.807V0.749998H441.727V11.145C443.174 9.93167 444.83 9.325 446.697 9.325ZM446.172 24.06C447.502 24.06 448.552 23.535 449.322 22.485C450.115 21.4117 450.512 20.0233 450.512 18.32C450.512 16.6167 450.115 15.24 449.322 14.19C448.552 13.14 447.502 12.615 446.172 12.615C444.702 12.615 443.559 13.1167 442.742 14.12C441.925 15.1233 441.517 16.5233 441.517 18.32C441.517 20.14 441.925 21.5517 442.742 22.555C443.559 23.5583 444.702 24.06 446.172 24.06ZM465.997 27.35C463.99 27.35 462.275 26.9417 460.852 26.125C459.452 25.3083 458.39 24.2117 457.667 22.835C456.944 21.435 456.582 19.8833 456.582 18.18C456.582 16.5467 456.909 15.065 457.562 13.735C458.239 12.3817 459.219 11.3083 460.502 10.515C461.809 9.72167 463.337 9.325 465.087 9.325C466.627 9.325 467.957 9.65167 469.077 10.305C470.22 10.935 471.084 11.81 471.667 12.93C472.274 14.05 472.577 15.3333 472.577 16.78C472.577 17.5267 472.495 18.2383 472.332 18.915H460.642C460.852 20.7117 461.47 22.0183 462.497 22.835C463.547 23.6517 464.842 24.06 466.382 24.06C468.272 24.06 469.987 23.6283 471.527 22.765L471.807 26.02C470.034 26.9067 468.097 27.35 465.997 27.35ZM468.587 16.255C468.587 15.2283 468.295 14.365 467.712 13.665C467.129 12.965 466.242 12.615 465.052 12.615C462.789 12.615 461.365 13.8283 460.782 16.255H468.587ZM475.61 9.64H479.145L479.355 11.845C479.985 11.075 480.709 10.4567 481.525 9.99C482.342 9.52333 483.194 9.29 484.08 9.29C484.314 9.29 484.57 9.31333 484.85 9.36L484.535 13.35C484.162 13.2333 483.719 13.175 483.205 13.175C482.435 13.175 481.712 13.3617 481.035 13.735C480.359 14.085 479.88 14.505 479.6 14.995V27H475.61V9.64ZM497.969 8.275C496.872 9.06833 495.775 9.59333 494.679 9.85L494.224 6.315C495.064 6.105 495.962 5.62667 496.919 4.88C497.899 4.11 498.587 3.31667 498.984 2.5H501.994V27H497.969V8.275ZM510.307 8.275C509.211 9.06833 508.114 9.59333 507.017 9.85L506.562 6.315C507.402 6.105 508.301 5.62667 509.257 4.88C510.237 4.11 510.926 3.31667 511.322 2.5H514.332V27H510.307V8.275ZM525.306 27.35C523.79 27.35 522.635 26.9183 521.841 26.055C521.071 25.1917 520.686 24.1533 520.686 22.94V12.79H518.061L518.411 9.64H520.686V5.65L524.606 5.23V9.64H528.701V12.79H524.606V21.12C524.606 22.1467 524.665 22.8583 524.781 23.255C524.898 23.6283 525.143 23.8733 525.516 23.99C525.913 24.1067 526.613 24.165 527.616 24.165H528.666L528.316 27.35H525.306ZM540.07 9.325C542.263 9.325 543.908 10.0483 545.005 11.495C546.125 12.9183 546.685 14.8667 546.685 17.34V27H542.765V17.69C542.765 15.94 542.473 14.6567 541.89 13.84C541.307 13.0233 540.373 12.615 539.09 12.615C537.55 12.615 536.302 13.21 535.345 14.4V27H531.425V0.749998H535.345V10.97C536.045 10.4333 536.768 10.025 537.515 9.745C538.262 9.465 539.113 9.325 540.07 9.325Z" fill="black"/>
</svg>
