<svg xmlns="http://www.w3.org/2000/svg" xmlns:xlink="http://www.w3.org/1999/xlink" width="100%" height="100%" version="1.1" viewBox="0 0 20 20" xml:space="preserve" style="fill-rule:evenodd;clip-rule:evenodd;stroke-linejoin:round;stroke-miterlimit:2"><g><path d="M5.875,0.066c-1.063,0.049 -1.79,0.218 -2.425,0.465c-0.667,0.251 -1.272,0.644 -1.771,1.153c-0.509,0.499 -0.903,1.104 -1.154,1.771c-0.247,0.636 -0.416,1.362 -0.465,2.426c-0.047,1.066 -0.06,1.408 -0.06,4.123c0,2.715 0.013,3.055 0.06,4.121c0.049,1.064 0.218,1.79 0.465,2.426c0.255,0.658 0.597,1.215 1.152,1.771c0.557,0.555 1.113,0.898 1.772,1.153c0.636,0.248 1.362,0.416 2.426,0.465c1.066,0.049 1.406,0.06 4.121,0.06c2.715,0 3.056,-0.012 4.123,-0.06c1.063,-0.049 1.79,-0.218 2.426,-0.465c0.667,-0.251 1.272,-0.644 1.771,-1.153c0.509,-0.499 0.902,-1.104 1.153,-1.771c0.247,-0.636 0.416,-1.362 0.465,-2.426c0.048,-1.066 0.06,-1.406 0.06,-4.121c0,-2.715 -0.013,-3.057 -0.06,-4.123c-0.049,-1.064 -0.218,-1.79 -0.465,-2.426c-0.251,-0.667 -0.644,-1.272 -1.153,-1.771c-0.499,-0.509 -1.104,-0.902 -1.771,-1.153c-0.636,-0.247 -1.363,-0.416 -2.426,-0.465c-1.067,-0.049 -1.408,-0.06 -4.123,-0.06c-2.715,0 -3.055,0.013 -4.121,0.06Zm4.125,2.44c2.442,0 2.732,0.01 3.696,0.054c0.893,0.04 1.376,0.189 1.7,0.315c0.426,0.165 0.731,0.364 1.05,0.684c0.321,0.32 0.52,0.625 0.685,1.052c0.125,0.323 0.275,0.806 0.315,1.699c0.045,0.964 0.054,1.254 0.054,3.696c0,2.443 -0.009,2.733 -0.054,3.697c-0.04,0.892 -0.189,1.377 -0.315,1.7c-0.146,0.396 -0.38,0.755 -0.684,1.05c-0.32,0.321 -0.625,0.52 -1.052,0.684c-0.323,0.125 -0.806,0.276 -1.699,0.316c-0.964,0.044 -1.254,0.053 -3.696,0.053c-2.443,0 -2.733,-0.009 -3.696,-0.053c-0.893,-0.04 -1.377,-0.189 -1.7,-0.316c-0.397,-0.146 -0.756,-0.38 -1.05,-0.683c-0.304,-0.295 -0.538,-0.655 -0.685,-1.053c-0.125,-0.321 -0.275,-0.806 -0.315,-1.699c-0.045,-0.963 -0.054,-1.252 -0.054,-3.696c0,-2.443 0.009,-2.732 0.054,-3.696c0.04,-0.892 0.188,-1.376 0.315,-1.7c0.165,-0.425 0.363,-0.731 0.683,-1.05c0.32,-0.321 0.625,-0.52 1.053,-0.685c0.322,-0.125 0.806,-0.275 1.699,-0.315c0.963,-0.044 1.253,-0.054 3.696,-0.054Z"/><path d="M10,12.5c-1.371,0 -2.5,-1.129 -2.5,-2.5c0,-1.371 1.129,-2.5 2.5,-2.5c1.371,0 2.5,1.129 2.5,2.5c0,1.371 -1.129,2.5 -2.5,2.5Zm0,-7.5c-2.743,0 -5,2.257 -5,5c0,2.743 2.257,5 5,5c2.743,0 5,-2.257 5,-5c0,-2.743 -2.257,-5 -5,-5Zm6.25,0c0,0.686 -0.564,1.25 -1.25,1.25c-0.686,0 -1.25,-0.564 -1.25,-1.25c0,-0.686 0.564,-1.25 1.25,-1.25c0.686,0 1.25,0.564 1.25,1.25"/></g></svg>