<?xml version="1.0" encoding="UTF-8" standalone="no"?><!DOCTYPE svg PUBLIC "-//W3C//DTD SVG 1.1//EN" "http://www.w3.org/Graphics/SVG/1.1/DTD/svg11.dtd"><svg width="100%" height="100%" viewBox="0 0 962 962" version="1.1" xmlns="http://www.w3.org/2000/svg" xmlns:xlink="http://www.w3.org/1999/xlink" xml:space="preserve" xmlns:serif="http://www.serif.com/" style="fill-rule:evenodd;clip-rule:evenodd;stroke-linejoin:round;stroke-miterlimit:2;"><rect id="Artboard1" x="0" y="0" width="961.68" height="961.68" style="fill:none;"/><g id="g3740"><path id="path3748" d="M733.041,403.665l-51.05,50.969c-9.376,9.377 -24.603,9.377 -33.979,0l-22.68,-22.679c-9.376,-9.377 -24.603,-9.377 -33.979,0l-249.315,249.395c-9.457,9.377 -24.684,9.377 -34.06,0l-22.68,-22.679c-9.376,-9.377 -9.376,-24.603 0,-33.98l249.396,-249.395c9.376,-9.377 9.376,-24.603 0,-33.98l-22.68,-22.679c-9.376,-9.377 -9.376,-24.603 0,-33.98l4.248,-4.728c4.568,-4.488 10.659,-7.453 17.07,-7.453l93.363,0c6.411,0 12.502,2.965 16.989,7.453l89.357,89.597c9.376,9.296 9.376,24.763 0,34.139m-56.659,255.006l-22.68,22.679c-9.376,9.377 -24.603,9.377 -34.06,0l-93.443,-93.523c-9.376,-9.376 -9.376,-24.603 0,-33.979l22.68,-22.68c9.376,-9.376 24.603,-9.376 33.979,0l93.524,93.523c9.376,9.377 9.376,24.603 0,33.98m-447.743,-288.985l89.357,-89.757c4.487,-4.488 10.578,-7.453 16.989,-7.453l93.363,0c6.412,0 12.502,2.965 17.07,7.453l4.248,4.488c9.376,9.456 9.376,24.763 0,34.14l-22.68,22.679c-9.376,9.377 -9.376,24.683 0,34.06l8.495,8.494c9.376,9.377 9.376,24.603 0,34.06l-22.68,22.599c-9.376,9.457 -24.603,9.457 -33.979,0l-8.495,-8.494c-9.376,-9.377 -24.603,-9.377 -33.979,0l-22.68,22.679c-9.376,9.377 -24.603,9.377 -33.979,0l-51.05,-50.969c-9.376,-9.376 -9.376,-24.603 0,-33.979m252.201,-289.546c-221.267,0 -400.7,179.433 -400.7,400.7c0,221.267 179.433,400.7 400.7,400.7c221.267,0 400.7,-179.433 400.7,-400.7c0,-221.267 -179.433,-400.7 -400.7,-400.7" style="fill:#231f20;fill-rule:nonzero;"/><path id="path3752" d="M480.84,921.61c-243.465,0 -440.77,-197.305 -440.77,-440.77c0,-243.465 197.305,-440.77 440.77,-440.77c243.465,0 440.77,197.305 440.77,440.77c0,243.465 -197.305,440.77 -440.77,440.77m0,-921.61c-265.584,0 -480.84,215.256 -480.84,480.84c0,265.584 215.256,480.84 480.84,480.84c265.584,0 480.84,-215.256 480.84,-480.84c0,-265.584 -215.256,-480.84 -480.84,-480.84" style="fill:#231f20;fill-rule:nonzero;"/></g></svg>