<?xml version="1.0" encoding="UTF-8" standalone="no"?><!DOCTYPE svg PUBLIC "-//W3C//DTD SVG 1.1//EN" "http://www.w3.org/Graphics/SVG/1.1/DTD/svg11.dtd"><svg width="100%" height="100%" viewBox="0 0 24 20" version="1.1" xmlns="http://www.w3.org/2000/svg" xmlns:xlink="http://www.w3.org/1999/xlink" xml:space="preserve" xmlns:serif="http://www.serif.com/" style="fill-rule:evenodd;clip-rule:evenodd;stroke-linejoin:round;stroke-miterlimit:2;"><path d="M0,17.692l1.187,0c2.227,0 4.454,-0.77 6.087,-2.153c-2.079,0 -3.86,-1.539 -4.602,-3.539c0.297,0 0.593,0.154 0.89,0.154c0.445,0 0.89,0 1.337,-0.154c-2.227,-0.463 -4.008,-2.463 -4.008,-4.923c0.594,0.308 1.335,0.615 2.225,0.615c-1.334,-0.923 -2.076,-2.462 -2.076,-4.307c0,-0.924 0.297,-1.846 0.594,-2.616c2.375,3.077 5.937,5.077 10.093,5.231c-0.147,-0.154 -0.147,-0.615 -0.147,-0.923c-0.001,-2.77 2.224,-5.077 4.895,-5.077c1.336,0 2.672,0.615 3.562,1.537c1.116,-0.18 2.18,-0.599 3.118,-1.23c-0.298,1.232 -1.188,2.154 -2.079,2.77c0.891,0 1.781,-0.308 2.673,-0.77c-0.594,1.078 -1.485,1.847 -2.375,2.615l0,0.617c0.001,6.768 -4.898,14.461 -13.953,14.461c-2.819,0 -5.344,-0.769 -7.421,-2.308Z"/></svg>